<?xml version="1.0" standalone="no"?>
 <!DOCTYPE svg PUBLIC "-//W3C//DTD SVG 1.1//EN" 
 "http://www.w3.org/Graphics/SVG/1.1/DTD/svg11.dtd"> 
<svg
  xmlns:svg="http://www.w3.org/2000/svg"
  xmlns="http://www.w3.org/2000/svg"
  xmlns:xlink="http://www.w3.org/1999/xlink"
  version="1.1"
  width="2.654300cm" height="3.599180cm" viewBox="0 0 26543000 35991800">
<title>SVG Picture created as epi-F_Paste.svg date 2022/11/06 20:01:35 </title>
  <desc>Picture generated by PCBNEW </desc>
<g style="fill:#000000; fill-opacity:1.000000;stroke:#000000; stroke-opacity:1.000000;
stroke-linecap:round; stroke-linejoin:round;"
 transform="translate(0 0) scale(1 1)">
</g>
<g style="fill:#000000; fill-opacity:0.0; 
stroke:#000000; stroke-width:0.000000; stroke-opacity:1; 
stroke-linecap:round; stroke-linejoin:round;">
</g>
<g style="fill:#000000; fill-opacity:1.0; 
stroke:#000000; stroke-width:21200.000000; stroke-opacity:1; 
stroke-linecap:round; stroke-linejoin:round;">
<path style="fill:#000000; fill-opacity:1.0; 
stroke:#000000; stroke-width:21200.000000; stroke-opacity:1; 
stroke-linecap:round; stroke-linejoin:round;fill-rule:evenodd;"
d="M 8775000.000000,14187500.000000
8575000.000000,14187500.000000
8575000.000000,13187500.000000
8775000.000000,13187500.000000
" /> 
<path style="fill:#000000; fill-opacity:1.0; 
stroke:#000000; stroke-width:21200.000000; stroke-opacity:1; 
stroke-linecap:round; stroke-linejoin:round;fill-rule:evenodd;"
d="M 7775000.000000,14187500.000000
7575000.000000,14187500.000000
7575000.000000,13187500.000000
7775000.000000,13187500.000000
" /> 
<path style="fill:#000000; fill-opacity:1.0; 
stroke:#000000; stroke-width:21200.000000; stroke-opacity:1; 
stroke-linecap:round; stroke-linejoin:round;fill-rule:evenodd;"
d="M 6775000.000000,14187500.000000
6575000.000000,14187500.000000
6575000.000000,13187500.000000
6775000.000000,13187500.000000
" /> 
<path style="fill:#000000; fill-opacity:1.0; 
stroke:#000000; stroke-width:21200.000000; stroke-opacity:1; 
stroke-linecap:round; stroke-linejoin:round;fill-rule:evenodd;"
d="M 10525000.000000,14187500.000000
10125000.000000,14187500.000000
10125000.000000,13187500.000000
10525000.000000,13187500.000000
" /> 
<path style="fill:#000000; fill-opacity:1.0; 
stroke:#000000; stroke-width:21200.000000; stroke-opacity:1; 
stroke-linecap:round; stroke-linejoin:round;fill-rule:evenodd;"
d="M 4925000.000000,14187500.000000
4525000.000000,14187500.000000
4525000.000000,13187500.000000
4925000.000000,13187500.000000
" /> 
<path style="fill:#000000; fill-opacity:1.0; 
stroke:#000000; stroke-width:21200.000000; stroke-opacity:1; 
stroke-linecap:round; stroke-linejoin:round;fill-rule:evenodd;"
d="M 9275000.000000,14187500.000000
9075000.000000,14187500.000000
9075000.000000,13187500.000000
9275000.000000,13187500.000000
" /> 
<path style="fill:#000000; fill-opacity:1.0; 
stroke:#000000; stroke-width:21200.000000; stroke-opacity:1; 
stroke-linecap:round; stroke-linejoin:round;fill-rule:evenodd;"
d="M 7275000.000000,14187500.000000
7075000.000000,14187500.000000
7075000.000000,13187500.000000
7275000.000000,13187500.000000
" /> 
<path style="fill:#000000; fill-opacity:1.0; 
stroke:#000000; stroke-width:21200.000000; stroke-opacity:1; 
stroke-linecap:round; stroke-linejoin:round;fill-rule:evenodd;"
d="M 9775000.000000,14187500.000000
9575000.000000,14187500.000000
9575000.000000,13187500.000000
9775000.000000,13187500.000000
" /> 
<path style="fill:#000000; fill-opacity:1.0; 
stroke:#000000; stroke-width:21200.000000; stroke-opacity:1; 
stroke-linecap:round; stroke-linejoin:round;fill-rule:evenodd;"
d="M 6275000.000000,14187500.000000
6075000.000000,14187500.000000
6075000.000000,13187500.000000
6275000.000000,13187500.000000
" /> 
<path style="fill:#000000; fill-opacity:1.0; 
stroke:#000000; stroke-width:21200.000000; stroke-opacity:1; 
stroke-linecap:round; stroke-linejoin:round;fill-rule:evenodd;"
d="M 8275000.000000,14187500.000000
8075000.000000,14187500.000000
8075000.000000,13187500.000000
8275000.000000,13187500.000000
" /> 
<path style="fill:#000000; fill-opacity:1.0; 
stroke:#000000; stroke-width:21200.000000; stroke-opacity:1; 
stroke-linecap:round; stroke-linejoin:round;fill-rule:evenodd;"
d="M 11325000.000000,14187500.000000
10925000.000000,14187500.000000
10925000.000000,13187500.000000
11325000.000000,13187500.000000
" /> 
<path style="fill:#000000; fill-opacity:1.0; 
stroke:#000000; stroke-width:21200.000000; stroke-opacity:1; 
stroke-linecap:round; stroke-linejoin:round;fill-rule:evenodd;"
d="M 5725000.000000,14187500.000000
5325000.000000,14187500.000000
5325000.000000,13187500.000000
5725000.000000,13187500.000000
" /> 
<g >
</g>
<g style="fill:#000000; fill-opacity:1.0; 
stroke:#000000; stroke-width:1.000000; stroke-opacity:1; 
stroke-linecap:round; stroke-linejoin:round;">
<path style="fill:#000000; fill-opacity:1.0; 
stroke:#000000; stroke-width:1.000000; stroke-opacity:1; 
stroke-linecap:round; stroke-linejoin:round;fill-rule:evenodd;"
d="M 3155000.000000,19342500.000000
3101424.000000,19331843.000000
3056005.000000,19301495.000000
3025657.000000,19256076.000000
3015000.000000,19202500.000000
3015000.000000,18922500.000000
3025657.000000,18868924.000000
3056005.000000,18823505.000000
3101424.000000,18793157.000000
3155000.000000,18782500.000000
3495000.000000,18782500.000000
3548576.000000,18793157.000000
3593995.000000,18823505.000000
3624343.000000,18868924.000000
3635000.000000,18922500.000000
3635000.000000,19202500.000000
3624343.000000,19256076.000000
3593995.000000,19301495.000000
3548576.000000,19331843.000000
3495000.000000,19342500.000000
Z" /> 
<path style="fill:#000000; fill-opacity:1.0; 
stroke:#000000; stroke-width:1.000000; stroke-opacity:1; 
stroke-linecap:round; stroke-linejoin:round;fill-rule:evenodd;"
d="M 3155000.000000,18382500.000000
3101424.000000,18371843.000000
3056005.000000,18341495.000000
3025657.000000,18296076.000000
3015000.000000,18242500.000000
3015000.000000,17962500.000000
3025657.000000,17908924.000000
3056005.000000,17863505.000000
3101424.000000,17833157.000000
3155000.000000,17822500.000000
3495000.000000,17822500.000000
3548576.000000,17833157.000000
3593995.000000,17863505.000000
3624343.000000,17908924.000000
3635000.000000,17962500.000000
3635000.000000,18242500.000000
3624343.000000,18296076.000000
3593995.000000,18341495.000000
3548576.000000,18371843.000000
3495000.000000,18382500.000000
Z" /> 
</g>
<g >
</g>
<g style="fill:#000000; fill-opacity:1.0; 
stroke:#000000; stroke-width:1.000000; stroke-opacity:1; 
stroke-linecap:round; stroke-linejoin:round;">
<path style="fill:#000000; fill-opacity:1.0; 
stroke:#000000; stroke-width:1.000000; stroke-opacity:1; 
stroke-linecap:round; stroke-linejoin:round;fill-rule:evenodd;"
d="M 9110000.000000,15602500.000000
9161662.000000,15612776.000000
9205459.000000,15642041.000000
9234724.000000,15685838.000000
9245000.000000,15737500.000000
9245000.000000,16007500.000000
9234724.000000,16059162.000000
9205459.000000,16102959.000000
9161662.000000,16132224.000000
9110000.000000,16142500.000000
8740000.000000,16142500.000000
8688338.000000,16132224.000000
8644541.000000,16102959.000000
8615276.000000,16059162.000000
8605000.000000,16007500.000000
8605000.000000,15737500.000000
8615276.000000,15685838.000000
8644541.000000,15642041.000000
8688338.000000,15612776.000000
8740000.000000,15602500.000000
Z" /> 
<path style="fill:#000000; fill-opacity:1.0; 
stroke:#000000; stroke-width:1.000000; stroke-opacity:1; 
stroke-linecap:round; stroke-linejoin:round;fill-rule:evenodd;"
d="M 9110000.000000,16622500.000000
9161662.000000,16632776.000000
9205459.000000,16662041.000000
9234724.000000,16705838.000000
9245000.000000,16757500.000000
9245000.000000,17027500.000000
9234724.000000,17079162.000000
9205459.000000,17122959.000000
9161662.000000,17152224.000000
9110000.000000,17162500.000000
8740000.000000,17162500.000000
8688338.000000,17152224.000000
8644541.000000,17122959.000000
8615276.000000,17079162.000000
8605000.000000,17027500.000000
8605000.000000,16757500.000000
8615276.000000,16705838.000000
8644541.000000,16662041.000000
8688338.000000,16632776.000000
8740000.000000,16622500.000000
Z" /> 
</g>
<g >
</g>
<g style="fill:#000000; fill-opacity:1.0; 
stroke:#000000; stroke-width:1.000000; stroke-opacity:1; 
stroke-linecap:round; stroke-linejoin:round;">
<path style="fill:#000000; fill-opacity:1.0; 
stroke:#000000; stroke-width:1.000000; stroke-opacity:1; 
stroke-linecap:round; stroke-linejoin:round;fill-rule:evenodd;"
d="M 6765000.000000,29216000.000000
6765000.000000,28416000.000000
7665000.000000,28416000.000000
7665000.000000,29216000.000000
Z" /> 
<path style="fill:#000000; fill-opacity:1.0; 
stroke:#000000; stroke-width:1.000000; stroke-opacity:1; 
stroke-linecap:round; stroke-linejoin:round;fill-rule:evenodd;"
d="M 8165000.000000,29216000.000000
8165000.000000,28416000.000000
9065000.000000,28416000.000000
9065000.000000,29216000.000000
Z" /> 
<path style="fill:#000000; fill-opacity:1.0; 
stroke:#000000; stroke-width:1.000000; stroke-opacity:1; 
stroke-linecap:round; stroke-linejoin:round;fill-rule:evenodd;"
d="M 8165000.000000,28116000.000000
8165000.000000,27316000.000000
9065000.000000,27316000.000000
9065000.000000,28116000.000000
Z" /> 
<path style="fill:#000000; fill-opacity:1.0; 
stroke:#000000; stroke-width:1.000000; stroke-opacity:1; 
stroke-linecap:round; stroke-linejoin:round;fill-rule:evenodd;"
d="M 6765000.000000,27316000.000000
7665000.000000,27316000.000000
7665000.000000,27956000.000000
7505000.000000,28116000.000000
6765000.000000,28116000.000000
Z" /> 
</g>
<g >
</g>
<g style="fill:#000000; fill-opacity:1.0; 
stroke:#000000; stroke-width:1.000000; stroke-opacity:1; 
stroke-linecap:round; stroke-linejoin:round;">
<path style="fill:#000000; fill-opacity:1.0; 
stroke:#000000; stroke-width:1.000000; stroke-opacity:1; 
stroke-linecap:round; stroke-linejoin:round;fill-rule:evenodd;"
d="M 9505000.000000,15167500.000000
9494724.000000,15219162.000000
9465459.000000,15262959.000000
9421662.000000,15292224.000000
9370000.000000,15302500.000000
9100000.000000,15302500.000000
9048338.000000,15292224.000000
9004541.000000,15262959.000000
8975276.000000,15219162.000000
8965000.000000,15167500.000000
8965000.000000,14797500.000000
8975276.000000,14745838.000000
9004541.000000,14702041.000000
9048338.000000,14672776.000000
9100000.000000,14662500.000000
9370000.000000,14662500.000000
9421662.000000,14672776.000000
9465459.000000,14702041.000000
9494724.000000,14745838.000000
9505000.000000,14797500.000000
Z" /> 
<path style="fill:#000000; fill-opacity:1.0; 
stroke:#000000; stroke-width:1.000000; stroke-opacity:1; 
stroke-linecap:round; stroke-linejoin:round;fill-rule:evenodd;"
d="M 8485000.000000,15167500.000000
8474724.000000,15219162.000000
8445459.000000,15262959.000000
8401662.000000,15292224.000000
8350000.000000,15302500.000000
8080000.000000,15302500.000000
8028338.000000,15292224.000000
7984541.000000,15262959.000000
7955276.000000,15219162.000000
7945000.000000,15167500.000000
7945000.000000,14797500.000000
7955276.000000,14745838.000000
7984541.000000,14702041.000000
8028338.000000,14672776.000000
8080000.000000,14662500.000000
8350000.000000,14662500.000000
8401662.000000,14672776.000000
8445459.000000,14702041.000000
8474724.000000,14745838.000000
8485000.000000,14797500.000000
Z" /> 
</g>
<g >
</g>
<g style="fill:#000000; fill-opacity:1.0; 
stroke:#000000; stroke-width:1.000000; stroke-opacity:1; 
stroke-linecap:round; stroke-linejoin:round;">
<path style="fill:#000000; fill-opacity:1.0; 
stroke:#000000; stroke-width:1.000000; stroke-opacity:1; 
stroke-linecap:round; stroke-linejoin:round;fill-rule:evenodd;"
d="M 9905000.000000,16712500.000000
9915657.000000,16658924.000000
9946005.000000,16613505.000000
9991424.000000,16583157.000000
10045000.000000,16572500.000000
10325000.000000,16572500.000000
10378576.000000,16583157.000000
10423995.000000,16613505.000000
10454343.000000,16658924.000000
10465000.000000,16712500.000000
10465000.000000,17052500.000000
10454343.000000,17106076.000000
10423995.000000,17151495.000000
10378576.000000,17181843.000000
10325000.000000,17192500.000000
10045000.000000,17192500.000000
9991424.000000,17181843.000000
9946005.000000,17151495.000000
9915657.000000,17106076.000000
9905000.000000,17052500.000000
Z" /> 
<path style="fill:#000000; fill-opacity:1.0; 
stroke:#000000; stroke-width:1.000000; stroke-opacity:1; 
stroke-linecap:round; stroke-linejoin:round;fill-rule:evenodd;"
d="M 10865000.000000,16712500.000000
10875657.000000,16658924.000000
10906005.000000,16613505.000000
10951424.000000,16583157.000000
11005000.000000,16572500.000000
11285000.000000,16572500.000000
11338576.000000,16583157.000000
11383995.000000,16613505.000000
11414343.000000,16658924.000000
11425000.000000,16712500.000000
11425000.000000,17052500.000000
11414343.000000,17106076.000000
11383995.000000,17151495.000000
11338576.000000,17181843.000000
11285000.000000,17192500.000000
11005000.000000,17192500.000000
10951424.000000,17181843.000000
10906005.000000,17151495.000000
10875657.000000,17106076.000000
10865000.000000,17052500.000000
Z" /> 
</g>
<g >
</g>
<g style="fill:#000000; fill-opacity:1.0; 
stroke:#000000; stroke-width:1.000000; stroke-opacity:1; 
stroke-linecap:round; stroke-linejoin:round;">
<path style="fill:#000000; fill-opacity:1.0; 
stroke:#000000; stroke-width:1.000000; stroke-opacity:1; 
stroke-linecap:round; stroke-linejoin:round;fill-rule:evenodd;"
d="M 10487500.000000,18657500.000000
10511418.000000,18662258.000000
10531694.000000,18675806.000000
10545242.000000,18696082.000000
10550000.000000,18720000.000000
10550000.000000,19670000.000000
10545242.000000,19693918.000000
10531694.000000,19714194.000000
10511418.000000,19727742.000000
10487500.000000,19732500.000000
10362500.000000,19732500.000000
10338582.000000,19727742.000000
10318306.000000,19714194.000000
10304758.000000,19693918.000000
10300000.000000,19670000.000000
10300000.000000,18720000.000000
10304758.000000,18696082.000000
10318306.000000,18675806.000000
10338582.000000,18662258.000000
10362500.000000,18657500.000000
Z" /> 
<path style="fill:#000000; fill-opacity:1.0; 
stroke:#000000; stroke-width:1.000000; stroke-opacity:1; 
stroke-linecap:round; stroke-linejoin:round;fill-rule:evenodd;"
d="M 9987500.000000,18657500.000000
10011418.000000,18662258.000000
10031694.000000,18675806.000000
10045242.000000,18696082.000000
10050000.000000,18720000.000000
10050000.000000,19670000.000000
10045242.000000,19693918.000000
10031694.000000,19714194.000000
10011418.000000,19727742.000000
9987500.000000,19732500.000000
9862500.000000,19732500.000000
9838582.000000,19727742.000000
9818306.000000,19714194.000000
9804758.000000,19693918.000000
9800000.000000,19670000.000000
9800000.000000,18720000.000000
9804758.000000,18696082.000000
9818306.000000,18675806.000000
9838582.000000,18662258.000000
9862500.000000,18657500.000000
Z" /> 
<path style="fill:#000000; fill-opacity:1.0; 
stroke:#000000; stroke-width:1.000000; stroke-opacity:1; 
stroke-linecap:round; stroke-linejoin:round;fill-rule:evenodd;"
d="M 9487500.000000,18657500.000000
9511418.000000,18662258.000000
9531694.000000,18675806.000000
9545242.000000,18696082.000000
9550000.000000,18720000.000000
9550000.000000,19670000.000000
9545242.000000,19693918.000000
9531694.000000,19714194.000000
9511418.000000,19727742.000000
9487500.000000,19732500.000000
9362500.000000,19732500.000000
9338582.000000,19727742.000000
9318306.000000,19714194.000000
9304758.000000,19693918.000000
9300000.000000,19670000.000000
9300000.000000,18720000.000000
9304758.000000,18696082.000000
9318306.000000,18675806.000000
9338582.000000,18662258.000000
9362500.000000,18657500.000000
Z" /> 
<path style="fill:#000000; fill-opacity:1.0; 
stroke:#000000; stroke-width:1.000000; stroke-opacity:1; 
stroke-linecap:round; stroke-linejoin:round;fill-rule:evenodd;"
d="M 8987500.000000,18657500.000000
9011418.000000,18662258.000000
9031694.000000,18675806.000000
9045242.000000,18696082.000000
9050000.000000,18720000.000000
9050000.000000,19670000.000000
9045242.000000,19693918.000000
9031694.000000,19714194.000000
9011418.000000,19727742.000000
8987500.000000,19732500.000000
8862500.000000,19732500.000000
8838582.000000,19727742.000000
8818306.000000,19714194.000000
8804758.000000,19693918.000000
8800000.000000,19670000.000000
8800000.000000,18720000.000000
8804758.000000,18696082.000000
8818306.000000,18675806.000000
8838582.000000,18662258.000000
8862500.000000,18657500.000000
Z" /> 
<path style="fill:#000000; fill-opacity:1.0; 
stroke:#000000; stroke-width:1.000000; stroke-opacity:1; 
stroke-linecap:round; stroke-linejoin:round;fill-rule:evenodd;"
d="M 8487500.000000,18657500.000000
8511418.000000,18662258.000000
8531694.000000,18675806.000000
8545242.000000,18696082.000000
8550000.000000,18720000.000000
8550000.000000,19670000.000000
8545242.000000,19693918.000000
8531694.000000,19714194.000000
8511418.000000,19727742.000000
8487500.000000,19732500.000000
8362500.000000,19732500.000000
8338582.000000,19727742.000000
8318306.000000,19714194.000000
8304758.000000,19693918.000000
8300000.000000,19670000.000000
8300000.000000,18720000.000000
8304758.000000,18696082.000000
8318306.000000,18675806.000000
8338582.000000,18662258.000000
8362500.000000,18657500.000000
Z" /> 
<path style="fill:#000000; fill-opacity:1.0; 
stroke:#000000; stroke-width:1.000000; stroke-opacity:1; 
stroke-linecap:round; stroke-linejoin:round;fill-rule:evenodd;"
d="M 7987500.000000,18657500.000000
8011418.000000,18662258.000000
8031694.000000,18675806.000000
8045242.000000,18696082.000000
8050000.000000,18720000.000000
8050000.000000,19670000.000000
8045242.000000,19693918.000000
8031694.000000,19714194.000000
8011418.000000,19727742.000000
7987500.000000,19732500.000000
7862500.000000,19732500.000000
7838582.000000,19727742.000000
7818306.000000,19714194.000000
7804758.000000,19693918.000000
7800000.000000,19670000.000000
7800000.000000,18720000.000000
7804758.000000,18696082.000000
7818306.000000,18675806.000000
7838582.000000,18662258.000000
7862500.000000,18657500.000000
Z" /> 
<path style="fill:#000000; fill-opacity:1.0; 
stroke:#000000; stroke-width:1.000000; stroke-opacity:1; 
stroke-linecap:round; stroke-linejoin:round;fill-rule:evenodd;"
d="M 7487500.000000,18657500.000000
7511418.000000,18662258.000000
7531694.000000,18675806.000000
7545242.000000,18696082.000000
7550000.000000,18720000.000000
7550000.000000,19670000.000000
7545242.000000,19693918.000000
7531694.000000,19714194.000000
7511418.000000,19727742.000000
7487500.000000,19732500.000000
7362500.000000,19732500.000000
7338582.000000,19727742.000000
7318306.000000,19714194.000000
7304758.000000,19693918.000000
7300000.000000,19670000.000000
7300000.000000,18720000.000000
7304758.000000,18696082.000000
7318306.000000,18675806.000000
7338582.000000,18662258.000000
7362500.000000,18657500.000000
Z" /> 
<path style="fill:#000000; fill-opacity:1.0; 
stroke:#000000; stroke-width:1.000000; stroke-opacity:1; 
stroke-linecap:round; stroke-linejoin:round;fill-rule:evenodd;"
d="M 6987500.000000,18657500.000000
7011418.000000,18662258.000000
7031694.000000,18675806.000000
7045242.000000,18696082.000000
7050000.000000,18720000.000000
7050000.000000,19670000.000000
7045242.000000,19693918.000000
7031694.000000,19714194.000000
7011418.000000,19727742.000000
6987500.000000,19732500.000000
6862500.000000,19732500.000000
6838582.000000,19727742.000000
6818306.000000,19714194.000000
6804758.000000,19693918.000000
6800000.000000,19670000.000000
6800000.000000,18720000.000000
6804758.000000,18696082.000000
6818306.000000,18675806.000000
6838582.000000,18662258.000000
6862500.000000,18657500.000000
Z" /> 
<path style="fill:#000000; fill-opacity:1.0; 
stroke:#000000; stroke-width:1.000000; stroke-opacity:1; 
stroke-linecap:round; stroke-linejoin:round;fill-rule:evenodd;"
d="M 6487500.000000,18657500.000000
6511418.000000,18662258.000000
6531694.000000,18675806.000000
6545242.000000,18696082.000000
6550000.000000,18720000.000000
6550000.000000,19670000.000000
6545242.000000,19693918.000000
6531694.000000,19714194.000000
6511418.000000,19727742.000000
6487500.000000,19732500.000000
6362500.000000,19732500.000000
6338582.000000,19727742.000000
6318306.000000,19714194.000000
6304758.000000,19693918.000000
6300000.000000,19670000.000000
6300000.000000,18720000.000000
6304758.000000,18696082.000000
6318306.000000,18675806.000000
6338582.000000,18662258.000000
6362500.000000,18657500.000000
Z" /> 
<path style="fill:#000000; fill-opacity:1.0; 
stroke:#000000; stroke-width:1.000000; stroke-opacity:1; 
stroke-linecap:round; stroke-linejoin:round;fill-rule:evenodd;"
d="M 5987500.000000,18657500.000000
6011418.000000,18662258.000000
6031694.000000,18675806.000000
6045242.000000,18696082.000000
6050000.000000,18720000.000000
6050000.000000,19670000.000000
6045242.000000,19693918.000000
6031694.000000,19714194.000000
6011418.000000,19727742.000000
5987500.000000,19732500.000000
5862500.000000,19732500.000000
5838582.000000,19727742.000000
5818306.000000,19714194.000000
5804758.000000,19693918.000000
5800000.000000,19670000.000000
5800000.000000,18720000.000000
5804758.000000,18696082.000000
5818306.000000,18675806.000000
5838582.000000,18662258.000000
5862500.000000,18657500.000000
Z" /> 
<path style="fill:#000000; fill-opacity:1.0; 
stroke:#000000; stroke-width:1.000000; stroke-opacity:1; 
stroke-linecap:round; stroke-linejoin:round;fill-rule:evenodd;"
d="M 5487500.000000,18657500.000000
5511418.000000,18662258.000000
5531694.000000,18675806.000000
5545242.000000,18696082.000000
5550000.000000,18720000.000000
5550000.000000,19670000.000000
5545242.000000,19693918.000000
5531694.000000,19714194.000000
5511418.000000,19727742.000000
5487500.000000,19732500.000000
5362500.000000,19732500.000000
5338582.000000,19727742.000000
5318306.000000,19714194.000000
5304758.000000,19693918.000000
5300000.000000,19670000.000000
5300000.000000,18720000.000000
5304758.000000,18696082.000000
5318306.000000,18675806.000000
5338582.000000,18662258.000000
5362500.000000,18657500.000000
Z" /> 
<path style="fill:#000000; fill-opacity:1.0; 
stroke:#000000; stroke-width:1.000000; stroke-opacity:1; 
stroke-linecap:round; stroke-linejoin:round;fill-rule:evenodd;"
d="M 5062500.000000,19907500.000000
5086418.000000,19912258.000000
5106694.000000,19925806.000000
5120242.000000,19946082.000000
5125000.000000,19970000.000000
5125000.000000,20095000.000000
5120242.000000,20118918.000000
5106694.000000,20139194.000000
5086418.000000,20152742.000000
5062500.000000,20157500.000000
4112500.000000,20157500.000000
4088582.000000,20152742.000000
4068306.000000,20139194.000000
4054758.000000,20118918.000000
4050000.000000,20095000.000000
4050000.000000,19970000.000000
4054758.000000,19946082.000000
4068306.000000,19925806.000000
4088582.000000,19912258.000000
4112500.000000,19907500.000000
Z" /> 
<path style="fill:#000000; fill-opacity:1.0; 
stroke:#000000; stroke-width:1.000000; stroke-opacity:1; 
stroke-linecap:round; stroke-linejoin:round;fill-rule:evenodd;"
d="M 5062500.000000,20407500.000000
5086418.000000,20412258.000000
5106694.000000,20425806.000000
5120242.000000,20446082.000000
5125000.000000,20470000.000000
5125000.000000,20595000.000000
5120242.000000,20618918.000000
5106694.000000,20639194.000000
5086418.000000,20652742.000000
5062500.000000,20657500.000000
4112500.000000,20657500.000000
4088582.000000,20652742.000000
4068306.000000,20639194.000000
4054758.000000,20618918.000000
4050000.000000,20595000.000000
4050000.000000,20470000.000000
4054758.000000,20446082.000000
4068306.000000,20425806.000000
4088582.000000,20412258.000000
4112500.000000,20407500.000000
Z" /> 
<path style="fill:#000000; fill-opacity:1.0; 
stroke:#000000; stroke-width:1.000000; stroke-opacity:1; 
stroke-linecap:round; stroke-linejoin:round;fill-rule:evenodd;"
d="M 5062500.000000,20907500.000000
5086418.000000,20912258.000000
5106694.000000,20925806.000000
5120242.000000,20946082.000000
5125000.000000,20970000.000000
5125000.000000,21095000.000000
5120242.000000,21118918.000000
5106694.000000,21139194.000000
5086418.000000,21152742.000000
5062500.000000,21157500.000000
4112500.000000,21157500.000000
4088582.000000,21152742.000000
4068306.000000,21139194.000000
4054758.000000,21118918.000000
4050000.000000,21095000.000000
4050000.000000,20970000.000000
4054758.000000,20946082.000000
4068306.000000,20925806.000000
4088582.000000,20912258.000000
4112500.000000,20907500.000000
Z" /> 
<path style="fill:#000000; fill-opacity:1.0; 
stroke:#000000; stroke-width:1.000000; stroke-opacity:1; 
stroke-linecap:round; stroke-linejoin:round;fill-rule:evenodd;"
d="M 5062500.000000,21407500.000000
5086418.000000,21412258.000000
5106694.000000,21425806.000000
5120242.000000,21446082.000000
5125000.000000,21470000.000000
5125000.000000,21595000.000000
5120242.000000,21618918.000000
5106694.000000,21639194.000000
5086418.000000,21652742.000000
5062500.000000,21657500.000000
4112500.000000,21657500.000000
4088582.000000,21652742.000000
4068306.000000,21639194.000000
4054758.000000,21618918.000000
4050000.000000,21595000.000000
4050000.000000,21470000.000000
4054758.000000,21446082.000000
4068306.000000,21425806.000000
4088582.000000,21412258.000000
4112500.000000,21407500.000000
Z" /> 
<path style="fill:#000000; fill-opacity:1.0; 
stroke:#000000; stroke-width:1.000000; stroke-opacity:1; 
stroke-linecap:round; stroke-linejoin:round;fill-rule:evenodd;"
d="M 5062500.000000,21907500.000000
5086418.000000,21912258.000000
5106694.000000,21925806.000000
5120242.000000,21946082.000000
5125000.000000,21970000.000000
5125000.000000,22095000.000000
5120242.000000,22118918.000000
5106694.000000,22139194.000000
5086418.000000,22152742.000000
5062500.000000,22157500.000000
4112500.000000,22157500.000000
4088582.000000,22152742.000000
4068306.000000,22139194.000000
4054758.000000,22118918.000000
4050000.000000,22095000.000000
4050000.000000,21970000.000000
4054758.000000,21946082.000000
4068306.000000,21925806.000000
4088582.000000,21912258.000000
4112500.000000,21907500.000000
Z" /> 
<path style="fill:#000000; fill-opacity:1.0; 
stroke:#000000; stroke-width:1.000000; stroke-opacity:1; 
stroke-linecap:round; stroke-linejoin:round;fill-rule:evenodd;"
d="M 5062500.000000,22407500.000000
5086418.000000,22412258.000000
5106694.000000,22425806.000000
5120242.000000,22446082.000000
5125000.000000,22470000.000000
5125000.000000,22595000.000000
5120242.000000,22618918.000000
5106694.000000,22639194.000000
5086418.000000,22652742.000000
5062500.000000,22657500.000000
4112500.000000,22657500.000000
4088582.000000,22652742.000000
4068306.000000,22639194.000000
4054758.000000,22618918.000000
4050000.000000,22595000.000000
4050000.000000,22470000.000000
4054758.000000,22446082.000000
4068306.000000,22425806.000000
4088582.000000,22412258.000000
4112500.000000,22407500.000000
Z" /> 
<path style="fill:#000000; fill-opacity:1.0; 
stroke:#000000; stroke-width:1.000000; stroke-opacity:1; 
stroke-linecap:round; stroke-linejoin:round;fill-rule:evenodd;"
d="M 5062500.000000,22907500.000000
5086418.000000,22912258.000000
5106694.000000,22925806.000000
5120242.000000,22946082.000000
5125000.000000,22970000.000000
5125000.000000,23095000.000000
5120242.000000,23118918.000000
5106694.000000,23139194.000000
5086418.000000,23152742.000000
5062500.000000,23157500.000000
4112500.000000,23157500.000000
4088582.000000,23152742.000000
4068306.000000,23139194.000000
4054758.000000,23118918.000000
4050000.000000,23095000.000000
4050000.000000,22970000.000000
4054758.000000,22946082.000000
4068306.000000,22925806.000000
4088582.000000,22912258.000000
4112500.000000,22907500.000000
Z" /> 
<path style="fill:#000000; fill-opacity:1.0; 
stroke:#000000; stroke-width:1.000000; stroke-opacity:1; 
stroke-linecap:round; stroke-linejoin:round;fill-rule:evenodd;"
d="M 5062500.000000,23407500.000000
5086418.000000,23412258.000000
5106694.000000,23425806.000000
5120242.000000,23446082.000000
5125000.000000,23470000.000000
5125000.000000,23595000.000000
5120242.000000,23618918.000000
5106694.000000,23639194.000000
5086418.000000,23652742.000000
5062500.000000,23657500.000000
4112500.000000,23657500.000000
4088582.000000,23652742.000000
4068306.000000,23639194.000000
4054758.000000,23618918.000000
4050000.000000,23595000.000000
4050000.000000,23470000.000000
4054758.000000,23446082.000000
4068306.000000,23425806.000000
4088582.000000,23412258.000000
4112500.000000,23407500.000000
Z" /> 
<path style="fill:#000000; fill-opacity:1.0; 
stroke:#000000; stroke-width:1.000000; stroke-opacity:1; 
stroke-linecap:round; stroke-linejoin:round;fill-rule:evenodd;"
d="M 5062500.000000,23907500.000000
5086418.000000,23912258.000000
5106694.000000,23925806.000000
5120242.000000,23946082.000000
5125000.000000,23970000.000000
5125000.000000,24095000.000000
5120242.000000,24118918.000000
5106694.000000,24139194.000000
5086418.000000,24152742.000000
5062500.000000,24157500.000000
4112500.000000,24157500.000000
4088582.000000,24152742.000000
4068306.000000,24139194.000000
4054758.000000,24118918.000000
4050000.000000,24095000.000000
4050000.000000,23970000.000000
4054758.000000,23946082.000000
4068306.000000,23925806.000000
4088582.000000,23912258.000000
4112500.000000,23907500.000000
Z" /> 
<path style="fill:#000000; fill-opacity:1.0; 
stroke:#000000; stroke-width:1.000000; stroke-opacity:1; 
stroke-linecap:round; stroke-linejoin:round;fill-rule:evenodd;"
d="M 5062500.000000,24407500.000000
5086418.000000,24412258.000000
5106694.000000,24425806.000000
5120242.000000,24446082.000000
5125000.000000,24470000.000000
5125000.000000,24595000.000000
5120242.000000,24618918.000000
5106694.000000,24639194.000000
5086418.000000,24652742.000000
5062500.000000,24657500.000000
4112500.000000,24657500.000000
4088582.000000,24652742.000000
4068306.000000,24639194.000000
4054758.000000,24618918.000000
4050000.000000,24595000.000000
4050000.000000,24470000.000000
4054758.000000,24446082.000000
4068306.000000,24425806.000000
4088582.000000,24412258.000000
4112500.000000,24407500.000000
Z" /> 
<path style="fill:#000000; fill-opacity:1.0; 
stroke:#000000; stroke-width:1.000000; stroke-opacity:1; 
stroke-linecap:round; stroke-linejoin:round;fill-rule:evenodd;"
d="M 5062500.000000,24907500.000000
5086418.000000,24912258.000000
5106694.000000,24925806.000000
5120242.000000,24946082.000000
5125000.000000,24970000.000000
5125000.000000,25095000.000000
5120242.000000,25118918.000000
5106694.000000,25139194.000000
5086418.000000,25152742.000000
5062500.000000,25157500.000000
4112500.000000,25157500.000000
4088582.000000,25152742.000000
4068306.000000,25139194.000000
4054758.000000,25118918.000000
4050000.000000,25095000.000000
4050000.000000,24970000.000000
4054758.000000,24946082.000000
4068306.000000,24925806.000000
4088582.000000,24912258.000000
4112500.000000,24907500.000000
Z" /> 
<path style="fill:#000000; fill-opacity:1.0; 
stroke:#000000; stroke-width:1.000000; stroke-opacity:1; 
stroke-linecap:round; stroke-linejoin:round;fill-rule:evenodd;"
d="M 5487500.000000,25332500.000000
5511418.000000,25337258.000000
5531694.000000,25350806.000000
5545242.000000,25371082.000000
5550000.000000,25395000.000000
5550000.000000,26345000.000000
5545242.000000,26368918.000000
5531694.000000,26389194.000000
5511418.000000,26402742.000000
5487500.000000,26407500.000000
5362500.000000,26407500.000000
5338582.000000,26402742.000000
5318306.000000,26389194.000000
5304758.000000,26368918.000000
5300000.000000,26345000.000000
5300000.000000,25395000.000000
5304758.000000,25371082.000000
5318306.000000,25350806.000000
5338582.000000,25337258.000000
5362500.000000,25332500.000000
Z" /> 
<path style="fill:#000000; fill-opacity:1.0; 
stroke:#000000; stroke-width:1.000000; stroke-opacity:1; 
stroke-linecap:round; stroke-linejoin:round;fill-rule:evenodd;"
d="M 5987500.000000,25332500.000000
6011418.000000,25337258.000000
6031694.000000,25350806.000000
6045242.000000,25371082.000000
6050000.000000,25395000.000000
6050000.000000,26345000.000000
6045242.000000,26368918.000000
6031694.000000,26389194.000000
6011418.000000,26402742.000000
5987500.000000,26407500.000000
5862500.000000,26407500.000000
5838582.000000,26402742.000000
5818306.000000,26389194.000000
5804758.000000,26368918.000000
5800000.000000,26345000.000000
5800000.000000,25395000.000000
5804758.000000,25371082.000000
5818306.000000,25350806.000000
5838582.000000,25337258.000000
5862500.000000,25332500.000000
Z" /> 
<path style="fill:#000000; fill-opacity:1.0; 
stroke:#000000; stroke-width:1.000000; stroke-opacity:1; 
stroke-linecap:round; stroke-linejoin:round;fill-rule:evenodd;"
d="M 6487500.000000,25332500.000000
6511418.000000,25337258.000000
6531694.000000,25350806.000000
6545242.000000,25371082.000000
6550000.000000,25395000.000000
6550000.000000,26345000.000000
6545242.000000,26368918.000000
6531694.000000,26389194.000000
6511418.000000,26402742.000000
6487500.000000,26407500.000000
6362500.000000,26407500.000000
6338582.000000,26402742.000000
6318306.000000,26389194.000000
6304758.000000,26368918.000000
6300000.000000,26345000.000000
6300000.000000,25395000.000000
6304758.000000,25371082.000000
6318306.000000,25350806.000000
6338582.000000,25337258.000000
6362500.000000,25332500.000000
Z" /> 
<path style="fill:#000000; fill-opacity:1.0; 
stroke:#000000; stroke-width:1.000000; stroke-opacity:1; 
stroke-linecap:round; stroke-linejoin:round;fill-rule:evenodd;"
d="M 6987500.000000,25332500.000000
7011418.000000,25337258.000000
7031694.000000,25350806.000000
7045242.000000,25371082.000000
7050000.000000,25395000.000000
7050000.000000,26345000.000000
7045242.000000,26368918.000000
7031694.000000,26389194.000000
7011418.000000,26402742.000000
6987500.000000,26407500.000000
6862500.000000,26407500.000000
6838582.000000,26402742.000000
6818306.000000,26389194.000000
6804758.000000,26368918.000000
6800000.000000,26345000.000000
6800000.000000,25395000.000000
6804758.000000,25371082.000000
6818306.000000,25350806.000000
6838582.000000,25337258.000000
6862500.000000,25332500.000000
Z" /> 
<path style="fill:#000000; fill-opacity:1.0; 
stroke:#000000; stroke-width:1.000000; stroke-opacity:1; 
stroke-linecap:round; stroke-linejoin:round;fill-rule:evenodd;"
d="M 7487500.000000,25332500.000000
7511418.000000,25337258.000000
7531694.000000,25350806.000000
7545242.000000,25371082.000000
7550000.000000,25395000.000000
7550000.000000,26345000.000000
7545242.000000,26368918.000000
7531694.000000,26389194.000000
7511418.000000,26402742.000000
7487500.000000,26407500.000000
7362500.000000,26407500.000000
7338582.000000,26402742.000000
7318306.000000,26389194.000000
7304758.000000,26368918.000000
7300000.000000,26345000.000000
7300000.000000,25395000.000000
7304758.000000,25371082.000000
7318306.000000,25350806.000000
7338582.000000,25337258.000000
7362500.000000,25332500.000000
Z" /> 
<path style="fill:#000000; fill-opacity:1.0; 
stroke:#000000; stroke-width:1.000000; stroke-opacity:1; 
stroke-linecap:round; stroke-linejoin:round;fill-rule:evenodd;"
d="M 7987500.000000,25332500.000000
8011418.000000,25337258.000000
8031694.000000,25350806.000000
8045242.000000,25371082.000000
8050000.000000,25395000.000000
8050000.000000,26345000.000000
8045242.000000,26368918.000000
8031694.000000,26389194.000000
8011418.000000,26402742.000000
7987500.000000,26407500.000000
7862500.000000,26407500.000000
7838582.000000,26402742.000000
7818306.000000,26389194.000000
7804758.000000,26368918.000000
7800000.000000,26345000.000000
7800000.000000,25395000.000000
7804758.000000,25371082.000000
7818306.000000,25350806.000000
7838582.000000,25337258.000000
7862500.000000,25332500.000000
Z" /> 
<path style="fill:#000000; fill-opacity:1.0; 
stroke:#000000; stroke-width:1.000000; stroke-opacity:1; 
stroke-linecap:round; stroke-linejoin:round;fill-rule:evenodd;"
d="M 8487500.000000,25332500.000000
8511418.000000,25337258.000000
8531694.000000,25350806.000000
8545242.000000,25371082.000000
8550000.000000,25395000.000000
8550000.000000,26345000.000000
8545242.000000,26368918.000000
8531694.000000,26389194.000000
8511418.000000,26402742.000000
8487500.000000,26407500.000000
8362500.000000,26407500.000000
8338582.000000,26402742.000000
8318306.000000,26389194.000000
8304758.000000,26368918.000000
8300000.000000,26345000.000000
8300000.000000,25395000.000000
8304758.000000,25371082.000000
8318306.000000,25350806.000000
8338582.000000,25337258.000000
8362500.000000,25332500.000000
Z" /> 
<path style="fill:#000000; fill-opacity:1.0; 
stroke:#000000; stroke-width:1.000000; stroke-opacity:1; 
stroke-linecap:round; stroke-linejoin:round;fill-rule:evenodd;"
d="M 8987500.000000,25332500.000000
9011418.000000,25337258.000000
9031694.000000,25350806.000000
9045242.000000,25371082.000000
9050000.000000,25395000.000000
9050000.000000,26345000.000000
9045242.000000,26368918.000000
9031694.000000,26389194.000000
9011418.000000,26402742.000000
8987500.000000,26407500.000000
8862500.000000,26407500.000000
8838582.000000,26402742.000000
8818306.000000,26389194.000000
8804758.000000,26368918.000000
8800000.000000,26345000.000000
8800000.000000,25395000.000000
8804758.000000,25371082.000000
8818306.000000,25350806.000000
8838582.000000,25337258.000000
8862500.000000,25332500.000000
Z" /> 
<path style="fill:#000000; fill-opacity:1.0; 
stroke:#000000; stroke-width:1.000000; stroke-opacity:1; 
stroke-linecap:round; stroke-linejoin:round;fill-rule:evenodd;"
d="M 9487500.000000,25332500.000000
9511418.000000,25337258.000000
9531694.000000,25350806.000000
9545242.000000,25371082.000000
9550000.000000,25395000.000000
9550000.000000,26345000.000000
9545242.000000,26368918.000000
9531694.000000,26389194.000000
9511418.000000,26402742.000000
9487500.000000,26407500.000000
9362500.000000,26407500.000000
9338582.000000,26402742.000000
9318306.000000,26389194.000000
9304758.000000,26368918.000000
9300000.000000,26345000.000000
9300000.000000,25395000.000000
9304758.000000,25371082.000000
9318306.000000,25350806.000000
9338582.000000,25337258.000000
9362500.000000,25332500.000000
Z" /> 
<path style="fill:#000000; fill-opacity:1.0; 
stroke:#000000; stroke-width:1.000000; stroke-opacity:1; 
stroke-linecap:round; stroke-linejoin:round;fill-rule:evenodd;"
d="M 9987500.000000,25332500.000000
10011418.000000,25337258.000000
10031694.000000,25350806.000000
10045242.000000,25371082.000000
10050000.000000,25395000.000000
10050000.000000,26345000.000000
10045242.000000,26368918.000000
10031694.000000,26389194.000000
10011418.000000,26402742.000000
9987500.000000,26407500.000000
9862500.000000,26407500.000000
9838582.000000,26402742.000000
9818306.000000,26389194.000000
9804758.000000,26368918.000000
9800000.000000,26345000.000000
9800000.000000,25395000.000000
9804758.000000,25371082.000000
9818306.000000,25350806.000000
9838582.000000,25337258.000000
9862500.000000,25332500.000000
Z" /> 
<path style="fill:#000000; fill-opacity:1.0; 
stroke:#000000; stroke-width:1.000000; stroke-opacity:1; 
stroke-linecap:round; stroke-linejoin:round;fill-rule:evenodd;"
d="M 10487500.000000,25332500.000000
10511418.000000,25337258.000000
10531694.000000,25350806.000000
10545242.000000,25371082.000000
10550000.000000,25395000.000000
10550000.000000,26345000.000000
10545242.000000,26368918.000000
10531694.000000,26389194.000000
10511418.000000,26402742.000000
10487500.000000,26407500.000000
10362500.000000,26407500.000000
10338582.000000,26402742.000000
10318306.000000,26389194.000000
10304758.000000,26368918.000000
10300000.000000,26345000.000000
10300000.000000,25395000.000000
10304758.000000,25371082.000000
10318306.000000,25350806.000000
10338582.000000,25337258.000000
10362500.000000,25332500.000000
Z" /> 
<path style="fill:#000000; fill-opacity:1.0; 
stroke:#000000; stroke-width:1.000000; stroke-opacity:1; 
stroke-linecap:round; stroke-linejoin:round;fill-rule:evenodd;"
d="M 11737500.000000,24907500.000000
11761418.000000,24912258.000000
11781694.000000,24925806.000000
11795242.000000,24946082.000000
11800000.000000,24970000.000000
11800000.000000,25095000.000000
11795242.000000,25118918.000000
11781694.000000,25139194.000000
11761418.000000,25152742.000000
11737500.000000,25157500.000000
10787500.000000,25157500.000000
10763582.000000,25152742.000000
10743306.000000,25139194.000000
10729758.000000,25118918.000000
10725000.000000,25095000.000000
10725000.000000,24970000.000000
10729758.000000,24946082.000000
10743306.000000,24925806.000000
10763582.000000,24912258.000000
10787500.000000,24907500.000000
Z" /> 
<path style="fill:#000000; fill-opacity:1.0; 
stroke:#000000; stroke-width:1.000000; stroke-opacity:1; 
stroke-linecap:round; stroke-linejoin:round;fill-rule:evenodd;"
d="M 11737500.000000,24407500.000000
11761418.000000,24412258.000000
11781694.000000,24425806.000000
11795242.000000,24446082.000000
11800000.000000,24470000.000000
11800000.000000,24595000.000000
11795242.000000,24618918.000000
11781694.000000,24639194.000000
11761418.000000,24652742.000000
11737500.000000,24657500.000000
10787500.000000,24657500.000000
10763582.000000,24652742.000000
10743306.000000,24639194.000000
10729758.000000,24618918.000000
10725000.000000,24595000.000000
10725000.000000,24470000.000000
10729758.000000,24446082.000000
10743306.000000,24425806.000000
10763582.000000,24412258.000000
10787500.000000,24407500.000000
Z" /> 
<path style="fill:#000000; fill-opacity:1.0; 
stroke:#000000; stroke-width:1.000000; stroke-opacity:1; 
stroke-linecap:round; stroke-linejoin:round;fill-rule:evenodd;"
d="M 11737500.000000,23907500.000000
11761418.000000,23912258.000000
11781694.000000,23925806.000000
11795242.000000,23946082.000000
11800000.000000,23970000.000000
11800000.000000,24095000.000000
11795242.000000,24118918.000000
11781694.000000,24139194.000000
11761418.000000,24152742.000000
11737500.000000,24157500.000000
10787500.000000,24157500.000000
10763582.000000,24152742.000000
10743306.000000,24139194.000000
10729758.000000,24118918.000000
10725000.000000,24095000.000000
10725000.000000,23970000.000000
10729758.000000,23946082.000000
10743306.000000,23925806.000000
10763582.000000,23912258.000000
10787500.000000,23907500.000000
Z" /> 
<path style="fill:#000000; fill-opacity:1.0; 
stroke:#000000; stroke-width:1.000000; stroke-opacity:1; 
stroke-linecap:round; stroke-linejoin:round;fill-rule:evenodd;"
d="M 11737500.000000,23407500.000000
11761418.000000,23412258.000000
11781694.000000,23425806.000000
11795242.000000,23446082.000000
11800000.000000,23470000.000000
11800000.000000,23595000.000000
11795242.000000,23618918.000000
11781694.000000,23639194.000000
11761418.000000,23652742.000000
11737500.000000,23657500.000000
10787500.000000,23657500.000000
10763582.000000,23652742.000000
10743306.000000,23639194.000000
10729758.000000,23618918.000000
10725000.000000,23595000.000000
10725000.000000,23470000.000000
10729758.000000,23446082.000000
10743306.000000,23425806.000000
10763582.000000,23412258.000000
10787500.000000,23407500.000000
Z" /> 
<path style="fill:#000000; fill-opacity:1.0; 
stroke:#000000; stroke-width:1.000000; stroke-opacity:1; 
stroke-linecap:round; stroke-linejoin:round;fill-rule:evenodd;"
d="M 11737500.000000,22907500.000000
11761418.000000,22912258.000000
11781694.000000,22925806.000000
11795242.000000,22946082.000000
11800000.000000,22970000.000000
11800000.000000,23095000.000000
11795242.000000,23118918.000000
11781694.000000,23139194.000000
11761418.000000,23152742.000000
11737500.000000,23157500.000000
10787500.000000,23157500.000000
10763582.000000,23152742.000000
10743306.000000,23139194.000000
10729758.000000,23118918.000000
10725000.000000,23095000.000000
10725000.000000,22970000.000000
10729758.000000,22946082.000000
10743306.000000,22925806.000000
10763582.000000,22912258.000000
10787500.000000,22907500.000000
Z" /> 
<path style="fill:#000000; fill-opacity:1.0; 
stroke:#000000; stroke-width:1.000000; stroke-opacity:1; 
stroke-linecap:round; stroke-linejoin:round;fill-rule:evenodd;"
d="M 11737500.000000,22407500.000000
11761418.000000,22412258.000000
11781694.000000,22425806.000000
11795242.000000,22446082.000000
11800000.000000,22470000.000000
11800000.000000,22595000.000000
11795242.000000,22618918.000000
11781694.000000,22639194.000000
11761418.000000,22652742.000000
11737500.000000,22657500.000000
10787500.000000,22657500.000000
10763582.000000,22652742.000000
10743306.000000,22639194.000000
10729758.000000,22618918.000000
10725000.000000,22595000.000000
10725000.000000,22470000.000000
10729758.000000,22446082.000000
10743306.000000,22425806.000000
10763582.000000,22412258.000000
10787500.000000,22407500.000000
Z" /> 
<path style="fill:#000000; fill-opacity:1.0; 
stroke:#000000; stroke-width:1.000000; stroke-opacity:1; 
stroke-linecap:round; stroke-linejoin:round;fill-rule:evenodd;"
d="M 11737500.000000,21907500.000000
11761418.000000,21912258.000000
11781694.000000,21925806.000000
11795242.000000,21946082.000000
11800000.000000,21970000.000000
11800000.000000,22095000.000000
11795242.000000,22118918.000000
11781694.000000,22139194.000000
11761418.000000,22152742.000000
11737500.000000,22157500.000000
10787500.000000,22157500.000000
10763582.000000,22152742.000000
10743306.000000,22139194.000000
10729758.000000,22118918.000000
10725000.000000,22095000.000000
10725000.000000,21970000.000000
10729758.000000,21946082.000000
10743306.000000,21925806.000000
10763582.000000,21912258.000000
10787500.000000,21907500.000000
Z" /> 
<path style="fill:#000000; fill-opacity:1.0; 
stroke:#000000; stroke-width:1.000000; stroke-opacity:1; 
stroke-linecap:round; stroke-linejoin:round;fill-rule:evenodd;"
d="M 11737500.000000,21407500.000000
11761418.000000,21412258.000000
11781694.000000,21425806.000000
11795242.000000,21446082.000000
11800000.000000,21470000.000000
11800000.000000,21595000.000000
11795242.000000,21618918.000000
11781694.000000,21639194.000000
11761418.000000,21652742.000000
11737500.000000,21657500.000000
10787500.000000,21657500.000000
10763582.000000,21652742.000000
10743306.000000,21639194.000000
10729758.000000,21618918.000000
10725000.000000,21595000.000000
10725000.000000,21470000.000000
10729758.000000,21446082.000000
10743306.000000,21425806.000000
10763582.000000,21412258.000000
10787500.000000,21407500.000000
Z" /> 
<path style="fill:#000000; fill-opacity:1.0; 
stroke:#000000; stroke-width:1.000000; stroke-opacity:1; 
stroke-linecap:round; stroke-linejoin:round;fill-rule:evenodd;"
d="M 11737500.000000,20907500.000000
11761418.000000,20912258.000000
11781694.000000,20925806.000000
11795242.000000,20946082.000000
11800000.000000,20970000.000000
11800000.000000,21095000.000000
11795242.000000,21118918.000000
11781694.000000,21139194.000000
11761418.000000,21152742.000000
11737500.000000,21157500.000000
10787500.000000,21157500.000000
10763582.000000,21152742.000000
10743306.000000,21139194.000000
10729758.000000,21118918.000000
10725000.000000,21095000.000000
10725000.000000,20970000.000000
10729758.000000,20946082.000000
10743306.000000,20925806.000000
10763582.000000,20912258.000000
10787500.000000,20907500.000000
Z" /> 
<path style="fill:#000000; fill-opacity:1.0; 
stroke:#000000; stroke-width:1.000000; stroke-opacity:1; 
stroke-linecap:round; stroke-linejoin:round;fill-rule:evenodd;"
d="M 11737500.000000,20407500.000000
11761418.000000,20412258.000000
11781694.000000,20425806.000000
11795242.000000,20446082.000000
11800000.000000,20470000.000000
11800000.000000,20595000.000000
11795242.000000,20618918.000000
11781694.000000,20639194.000000
11761418.000000,20652742.000000
11737500.000000,20657500.000000
10787500.000000,20657500.000000
10763582.000000,20652742.000000
10743306.000000,20639194.000000
10729758.000000,20618918.000000
10725000.000000,20595000.000000
10725000.000000,20470000.000000
10729758.000000,20446082.000000
10743306.000000,20425806.000000
10763582.000000,20412258.000000
10787500.000000,20407500.000000
Z" /> 
<path style="fill:#000000; fill-opacity:1.0; 
stroke:#000000; stroke-width:1.000000; stroke-opacity:1; 
stroke-linecap:round; stroke-linejoin:round;fill-rule:evenodd;"
d="M 11737500.000000,19907500.000000
11761418.000000,19912258.000000
11781694.000000,19925806.000000
11795242.000000,19946082.000000
11800000.000000,19970000.000000
11800000.000000,20095000.000000
11795242.000000,20118918.000000
11781694.000000,20139194.000000
11761418.000000,20152742.000000
11737500.000000,20157500.000000
10787500.000000,20157500.000000
10763582.000000,20152742.000000
10743306.000000,20139194.000000
10729758.000000,20118918.000000
10725000.000000,20095000.000000
10725000.000000,19970000.000000
10729758.000000,19946082.000000
10743306.000000,19925806.000000
10763582.000000,19912258.000000
10787500.000000,19907500.000000
Z" /> 
</g>
<g >
</g>
<g style="fill:#000000; fill-opacity:1.0; 
stroke:#000000; stroke-width:1.000000; stroke-opacity:1; 
stroke-linecap:round; stroke-linejoin:round;">
<path style="fill:#000000; fill-opacity:1.0; 
stroke:#000000; stroke-width:1.000000; stroke-opacity:1; 
stroke-linecap:round; stroke-linejoin:round;fill-rule:evenodd;"
d="M 11647500.000000,27370000.000000
11703946.000000,27381228.000000
11751798.000000,27413202.000000
11783772.000000,27461054.000000
11795000.000000,27517500.000000
11795000.000000,27812500.000000
11783772.000000,27868946.000000
11751798.000000,27916798.000000
11703946.000000,27948772.000000
11647500.000000,27960000.000000
11302500.000000,27960000.000000
11246054.000000,27948772.000000
11198202.000000,27916798.000000
11166228.000000,27868946.000000
11155000.000000,27812500.000000
11155000.000000,27517500.000000
11166228.000000,27461054.000000
11198202.000000,27413202.000000
11246054.000000,27381228.000000
11302500.000000,27370000.000000
Z" /> 
<path style="fill:#000000; fill-opacity:1.0; 
stroke:#000000; stroke-width:1.000000; stroke-opacity:1; 
stroke-linecap:round; stroke-linejoin:round;fill-rule:evenodd;"
d="M 11647500.000000,28340000.000000
11703946.000000,28351228.000000
11751798.000000,28383202.000000
11783772.000000,28431054.000000
11795000.000000,28487500.000000
11795000.000000,28782500.000000
11783772.000000,28838946.000000
11751798.000000,28886798.000000
11703946.000000,28918772.000000
11647500.000000,28930000.000000
11302500.000000,28930000.000000
11246054.000000,28918772.000000
11198202.000000,28886798.000000
11166228.000000,28838946.000000
11155000.000000,28782500.000000
11155000.000000,28487500.000000
11166228.000000,28431054.000000
11198202.000000,28383202.000000
11246054.000000,28351228.000000
11302500.000000,28340000.000000
Z" /> 
</g>
<g >
</g>
<g style="fill:#000000; fill-opacity:1.0; 
stroke:#000000; stroke-width:1.000000; stroke-opacity:1; 
stroke-linecap:round; stroke-linejoin:round;">
<path style="fill:#000000; fill-opacity:1.0; 
stroke:#000000; stroke-width:1.000000; stroke-opacity:1; 
stroke-linecap:round; stroke-linejoin:round;fill-rule:evenodd;"
d="M 8160000.000000,15602500.000000
8211662.000000,15612776.000000
8255459.000000,15642041.000000
8284724.000000,15685838.000000
8295000.000000,15737500.000000
8295000.000000,16007500.000000
8284724.000000,16059162.000000
8255459.000000,16102959.000000
8211662.000000,16132224.000000
8160000.000000,16142500.000000
7790000.000000,16142500.000000
7738338.000000,16132224.000000
7694541.000000,16102959.000000
7665276.000000,16059162.000000
7655000.000000,16007500.000000
7655000.000000,15737500.000000
7665276.000000,15685838.000000
7694541.000000,15642041.000000
7738338.000000,15612776.000000
7790000.000000,15602500.000000
Z" /> 
<path style="fill:#000000; fill-opacity:1.0; 
stroke:#000000; stroke-width:1.000000; stroke-opacity:1; 
stroke-linecap:round; stroke-linejoin:round;fill-rule:evenodd;"
d="M 8160000.000000,16622500.000000
8211662.000000,16632776.000000
8255459.000000,16662041.000000
8284724.000000,16705838.000000
8295000.000000,16757500.000000
8295000.000000,17027500.000000
8284724.000000,17079162.000000
8255459.000000,17122959.000000
8211662.000000,17152224.000000
8160000.000000,17162500.000000
7790000.000000,17162500.000000
7738338.000000,17152224.000000
7694541.000000,17122959.000000
7665276.000000,17079162.000000
7655000.000000,17027500.000000
7655000.000000,16757500.000000
7665276.000000,16705838.000000
7694541.000000,16662041.000000
7738338.000000,16632776.000000
7790000.000000,16622500.000000
Z" /> 
</g>
<g >
</g>
<g style="fill:#000000; fill-opacity:1.0; 
stroke:#000000; stroke-width:1.000000; stroke-opacity:1; 
stroke-linecap:round; stroke-linejoin:round;">
<path style="fill:#000000; fill-opacity:1.0; 
stroke:#000000; stroke-width:1.000000; stroke-opacity:1; 
stroke-linecap:round; stroke-linejoin:round;fill-rule:evenodd;"
d="M 12705000.000000,18117500.000000
12694724.000000,18169162.000000
12665459.000000,18212959.000000
12621662.000000,18242224.000000
12570000.000000,18252500.000000
12300000.000000,18252500.000000
12248338.000000,18242224.000000
12204541.000000,18212959.000000
12175276.000000,18169162.000000
12165000.000000,18117500.000000
12165000.000000,17747500.000000
12175276.000000,17695838.000000
12204541.000000,17652041.000000
12248338.000000,17622776.000000
12300000.000000,17612500.000000
12570000.000000,17612500.000000
12621662.000000,17622776.000000
12665459.000000,17652041.000000
12694724.000000,17695838.000000
12705000.000000,17747500.000000
Z" /> 
<path style="fill:#000000; fill-opacity:1.0; 
stroke:#000000; stroke-width:1.000000; stroke-opacity:1; 
stroke-linecap:round; stroke-linejoin:round;fill-rule:evenodd;"
d="M 11685000.000000,18117500.000000
11674724.000000,18169162.000000
11645459.000000,18212959.000000
11601662.000000,18242224.000000
11550000.000000,18252500.000000
11280000.000000,18252500.000000
11228338.000000,18242224.000000
11184541.000000,18212959.000000
11155276.000000,18169162.000000
11145000.000000,18117500.000000
11145000.000000,17747500.000000
11155276.000000,17695838.000000
11184541.000000,17652041.000000
11228338.000000,17622776.000000
11280000.000000,17612500.000000
11550000.000000,17612500.000000
11601662.000000,17622776.000000
11645459.000000,17652041.000000
11674724.000000,17695838.000000
11685000.000000,17747500.000000
Z" /> 
</g>
<g >
</g>
<g style="fill:#000000; fill-opacity:1.0; 
stroke:#000000; stroke-width:1.000000; stroke-opacity:1; 
stroke-linecap:round; stroke-linejoin:round;">
<path style="fill:#000000; fill-opacity:1.0; 
stroke:#000000; stroke-width:1.000000; stroke-opacity:1; 
stroke-linecap:round; stroke-linejoin:round;fill-rule:evenodd;"
d="M 12340000.000000,26512500.000000
12288338.000000,26502224.000000
12244541.000000,26472959.000000
12215276.000000,26429162.000000
12205000.000000,26377500.000000
12205000.000000,26107500.000000
12215276.000000,26055838.000000
12244541.000000,26012041.000000
12288338.000000,25982776.000000
12340000.000000,25972500.000000
12710000.000000,25972500.000000
12761662.000000,25982776.000000
12805459.000000,26012041.000000
12834724.000000,26055838.000000
12845000.000000,26107500.000000
12845000.000000,26377500.000000
12834724.000000,26429162.000000
12805459.000000,26472959.000000
12761662.000000,26502224.000000
12710000.000000,26512500.000000
Z" /> 
<path style="fill:#000000; fill-opacity:1.0; 
stroke:#000000; stroke-width:1.000000; stroke-opacity:1; 
stroke-linecap:round; stroke-linejoin:round;fill-rule:evenodd;"
d="M 12340000.000000,25492500.000000
12288338.000000,25482224.000000
12244541.000000,25452959.000000
12215276.000000,25409162.000000
12205000.000000,25357500.000000
12205000.000000,25087500.000000
12215276.000000,25035838.000000
12244541.000000,24992041.000000
12288338.000000,24962776.000000
12340000.000000,24952500.000000
12710000.000000,24952500.000000
12761662.000000,24962776.000000
12805459.000000,24992041.000000
12834724.000000,25035838.000000
12845000.000000,25087500.000000
12845000.000000,25357500.000000
12834724.000000,25409162.000000
12805459.000000,25452959.000000
12761662.000000,25482224.000000
12710000.000000,25492500.000000
Z" /> 
</g>
<g >
</g>
<g style="fill:#000000; fill-opacity:1.0; 
stroke:#000000; stroke-width:1.000000; stroke-opacity:1; 
stroke-linecap:round; stroke-linejoin:round;">
<path style="fill:#000000; fill-opacity:1.0; 
stroke:#000000; stroke-width:1.000000; stroke-opacity:1; 
stroke-linecap:round; stroke-linejoin:round;fill-rule:evenodd;"
d="M 5885000.000000,14652500.000000
5936662.000000,14662776.000000
5980459.000000,14692041.000000
6009724.000000,14735838.000000
6020000.000000,14787500.000000
6020000.000000,15057500.000000
6009724.000000,15109162.000000
5980459.000000,15152959.000000
5936662.000000,15182224.000000
5885000.000000,15192500.000000
5515000.000000,15192500.000000
5463338.000000,15182224.000000
5419541.000000,15152959.000000
5390276.000000,15109162.000000
5380000.000000,15057500.000000
5380000.000000,14787500.000000
5390276.000000,14735838.000000
5419541.000000,14692041.000000
5463338.000000,14662776.000000
5515000.000000,14652500.000000
Z" /> 
<path style="fill:#000000; fill-opacity:1.0; 
stroke:#000000; stroke-width:1.000000; stroke-opacity:1; 
stroke-linecap:round; stroke-linejoin:round;fill-rule:evenodd;"
d="M 5885000.000000,15672500.000000
5936662.000000,15682776.000000
5980459.000000,15712041.000000
6009724.000000,15755838.000000
6020000.000000,15807500.000000
6020000.000000,16077500.000000
6009724.000000,16129162.000000
5980459.000000,16172959.000000
5936662.000000,16202224.000000
5885000.000000,16212500.000000
5515000.000000,16212500.000000
5463338.000000,16202224.000000
5419541.000000,16172959.000000
5390276.000000,16129162.000000
5380000.000000,16077500.000000
5380000.000000,15807500.000000
5390276.000000,15755838.000000
5419541.000000,15712041.000000
5463338.000000,15682776.000000
5515000.000000,15672500.000000
Z" /> 
</g>
<g >
</g>
<g style="fill:#000000; fill-opacity:1.0; 
stroke:#000000; stroke-width:1.000000; stroke-opacity:1; 
stroke-linecap:round; stroke-linejoin:round;">
<path style="fill:#000000; fill-opacity:1.0; 
stroke:#000000; stroke-width:1.000000; stroke-opacity:1; 
stroke-linecap:round; stroke-linejoin:round;fill-rule:evenodd;"
d="M 6005000.000000,17167500.000000
5994724.000000,17219162.000000
5965459.000000,17262959.000000
5921662.000000,17292224.000000
5870000.000000,17302500.000000
5600000.000000,17302500.000000
5548338.000000,17292224.000000
5504541.000000,17262959.000000
5475276.000000,17219162.000000
5465000.000000,17167500.000000
5465000.000000,16797500.000000
5475276.000000,16745838.000000
5504541.000000,16702041.000000
5548338.000000,16672776.000000
5600000.000000,16662500.000000
5870000.000000,16662500.000000
5921662.000000,16672776.000000
5965459.000000,16702041.000000
5994724.000000,16745838.000000
6005000.000000,16797500.000000
Z" /> 
<path style="fill:#000000; fill-opacity:1.0; 
stroke:#000000; stroke-width:1.000000; stroke-opacity:1; 
stroke-linecap:round; stroke-linejoin:round;fill-rule:evenodd;"
d="M 4985000.000000,17167500.000000
4974724.000000,17219162.000000
4945459.000000,17262959.000000
4901662.000000,17292224.000000
4850000.000000,17302500.000000
4580000.000000,17302500.000000
4528338.000000,17292224.000000
4484541.000000,17262959.000000
4455276.000000,17219162.000000
4445000.000000,17167500.000000
4445000.000000,16797500.000000
4455276.000000,16745838.000000
4484541.000000,16702041.000000
4528338.000000,16672776.000000
4580000.000000,16662500.000000
4850000.000000,16662500.000000
4901662.000000,16672776.000000
4945459.000000,16702041.000000
4974724.000000,16745838.000000
4985000.000000,16797500.000000
Z" /> 
</g>
<g >
</g>
<g style="fill:#000000; fill-opacity:1.0; 
stroke:#000000; stroke-width:1.000000; stroke-opacity:1; 
stroke-linecap:round; stroke-linejoin:round;">
<path style="fill:#000000; fill-opacity:1.0; 
stroke:#000000; stroke-width:1.000000; stroke-opacity:1; 
stroke-linecap:round; stroke-linejoin:round;fill-rule:evenodd;"
d="M 4565000.000000,16212500.000000
4513338.000000,16202224.000000
4469541.000000,16172959.000000
4440276.000000,16129162.000000
4430000.000000,16077500.000000
4430000.000000,15807500.000000
4440276.000000,15755838.000000
4469541.000000,15712041.000000
4513338.000000,15682776.000000
4565000.000000,15672500.000000
4935000.000000,15672500.000000
4986662.000000,15682776.000000
5030459.000000,15712041.000000
5059724.000000,15755838.000000
5070000.000000,15807500.000000
5070000.000000,16077500.000000
5059724.000000,16129162.000000
5030459.000000,16172959.000000
4986662.000000,16202224.000000
4935000.000000,16212500.000000
Z" /> 
<path style="fill:#000000; fill-opacity:1.0; 
stroke:#000000; stroke-width:1.000000; stroke-opacity:1; 
stroke-linecap:round; stroke-linejoin:round;fill-rule:evenodd;"
d="M 4565000.000000,15192500.000000
4513338.000000,15182224.000000
4469541.000000,15152959.000000
4440276.000000,15109162.000000
4430000.000000,15057500.000000
4430000.000000,14787500.000000
4440276.000000,14735838.000000
4469541.000000,14692041.000000
4513338.000000,14662776.000000
4565000.000000,14652500.000000
4935000.000000,14652500.000000
4986662.000000,14662776.000000
5030459.000000,14692041.000000
5059724.000000,14735838.000000
5070000.000000,14787500.000000
5070000.000000,15057500.000000
5059724.000000,15109162.000000
5030459.000000,15152959.000000
4986662.000000,15182224.000000
4935000.000000,15192500.000000
Z" /> 
</g>
<g >
</g>
<g style="fill:#000000; fill-opacity:1.0; 
stroke:#000000; stroke-width:1.000000; stroke-opacity:1; 
stroke-linecap:round; stroke-linejoin:round;">
<path style="fill:#000000; fill-opacity:1.0; 
stroke:#000000; stroke-width:1.000000; stroke-opacity:1; 
stroke-linecap:round; stroke-linejoin:round;fill-rule:evenodd;"
d="M 11455000.000000,16117500.000000
11444724.000000,16169162.000000
11415459.000000,16212959.000000
11371662.000000,16242224.000000
11320000.000000,16252500.000000
11050000.000000,16252500.000000
10998338.000000,16242224.000000
10954541.000000,16212959.000000
10925276.000000,16169162.000000
10915000.000000,16117500.000000
10915000.000000,15747500.000000
10925276.000000,15695838.000000
10954541.000000,15652041.000000
10998338.000000,15622776.000000
11050000.000000,15612500.000000
11320000.000000,15612500.000000
11371662.000000,15622776.000000
11415459.000000,15652041.000000
11444724.000000,15695838.000000
11455000.000000,15747500.000000
Z" /> 
<path style="fill:#000000; fill-opacity:1.0; 
stroke:#000000; stroke-width:1.000000; stroke-opacity:1; 
stroke-linecap:round; stroke-linejoin:round;fill-rule:evenodd;"
d="M 10435000.000000,16117500.000000
10424724.000000,16169162.000000
10395459.000000,16212959.000000
10351662.000000,16242224.000000
10300000.000000,16252500.000000
10030000.000000,16252500.000000
9978338.000000,16242224.000000
9934541.000000,16212959.000000
9905276.000000,16169162.000000
9895000.000000,16117500.000000
9895000.000000,15747500.000000
9905276.000000,15695838.000000
9934541.000000,15652041.000000
9978338.000000,15622776.000000
10030000.000000,15612500.000000
10300000.000000,15612500.000000
10351662.000000,15622776.000000
10395459.000000,15652041.000000
10424724.000000,15695838.000000
10435000.000000,15747500.000000
Z" /> 
</g>
<g >
</g>
<g style="fill:#000000; fill-opacity:1.0; 
stroke:#000000; stroke-width:1.000000; stroke-opacity:1; 
stroke-linecap:round; stroke-linejoin:round;">
<path style="fill:#000000; fill-opacity:1.0; 
stroke:#000000; stroke-width:1.000000; stroke-opacity:1; 
stroke-linecap:round; stroke-linejoin:round;fill-rule:evenodd;"
d="M 9245000.000000,17760000.000000
9256228.000000,17703554.000000
9288202.000000,17655702.000000
9336054.000000,17623728.000000
9392500.000000,17612500.000000
9687500.000000,17612500.000000
9743946.000000,17623728.000000
9791798.000000,17655702.000000
9823772.000000,17703554.000000
9835000.000000,17760000.000000
9835000.000000,18105000.000000
9823772.000000,18161446.000000
9791798.000000,18209298.000000
9743946.000000,18241272.000000
9687500.000000,18252500.000000
9392500.000000,18252500.000000
9336054.000000,18241272.000000
9288202.000000,18209298.000000
9256228.000000,18161446.000000
9245000.000000,18105000.000000
Z" /> 
<path style="fill:#000000; fill-opacity:1.0; 
stroke:#000000; stroke-width:1.000000; stroke-opacity:1; 
stroke-linecap:round; stroke-linejoin:round;fill-rule:evenodd;"
d="M 10215000.000000,17760000.000000
10226228.000000,17703554.000000
10258202.000000,17655702.000000
10306054.000000,17623728.000000
10362500.000000,17612500.000000
10657500.000000,17612500.000000
10713946.000000,17623728.000000
10761798.000000,17655702.000000
10793772.000000,17703554.000000
10805000.000000,17760000.000000
10805000.000000,18105000.000000
10793772.000000,18161446.000000
10761798.000000,18209298.000000
10713946.000000,18241272.000000
10657500.000000,18252500.000000
10362500.000000,18252500.000000
10306054.000000,18241272.000000
10258202.000000,18209298.000000
10226228.000000,18161446.000000
10215000.000000,18105000.000000
Z" /> 
</g>
<g >
</g>
<g style="fill:#000000; fill-opacity:1.0; 
stroke:#000000; stroke-width:1.000000; stroke-opacity:1; 
stroke-linecap:round; stroke-linejoin:round;">
<path style="fill:#000000; fill-opacity:1.0; 
stroke:#000000; stroke-width:1.000000; stroke-opacity:1; 
stroke-linecap:round; stroke-linejoin:round;fill-rule:evenodd;"
d="M 6145000.000000,27506000.000000
6198576.000000,27516657.000000
6243995.000000,27547005.000000
6274343.000000,27592424.000000
6285000.000000,27646000.000000
6285000.000000,27926000.000000
6274343.000000,27979576.000000
6243995.000000,28024995.000000
6198576.000000,28055343.000000
6145000.000000,28066000.000000
5805000.000000,28066000.000000
5751424.000000,28055343.000000
5706005.000000,28024995.000000
5675657.000000,27979576.000000
5665000.000000,27926000.000000
5665000.000000,27646000.000000
5675657.000000,27592424.000000
5706005.000000,27547005.000000
5751424.000000,27516657.000000
5805000.000000,27506000.000000
Z" /> 
<path style="fill:#000000; fill-opacity:1.0; 
stroke:#000000; stroke-width:1.000000; stroke-opacity:1; 
stroke-linecap:round; stroke-linejoin:round;fill-rule:evenodd;"
d="M 6145000.000000,28466000.000000
6198576.000000,28476657.000000
6243995.000000,28507005.000000
6274343.000000,28552424.000000
6285000.000000,28606000.000000
6285000.000000,28886000.000000
6274343.000000,28939576.000000
6243995.000000,28984995.000000
6198576.000000,29015343.000000
6145000.000000,29026000.000000
5805000.000000,29026000.000000
5751424.000000,29015343.000000
5706005.000000,28984995.000000
5675657.000000,28939576.000000
5665000.000000,28886000.000000
5665000.000000,28606000.000000
5675657.000000,28552424.000000
5706005.000000,28507005.000000
5751424.000000,28476657.000000
5805000.000000,28466000.000000
Z" /> 
</g>
<g >
</g>
<g >
</g>
<g >
</g>
<g style="fill:#000000; fill-opacity:1.0; 
stroke:#000000; stroke-width:1.000000; stroke-opacity:1; 
stroke-linecap:round; stroke-linejoin:round;">
<path style="fill:#000000; fill-opacity:1.0; 
stroke:#000000; stroke-width:1.000000; stroke-opacity:1; 
stroke-linecap:round; stroke-linejoin:round;fill-rule:evenodd;"
d="M 12245000.000000,15722500.000000
12298576.000000,15733157.000000
12343995.000000,15763505.000000
12374343.000000,15808924.000000
12385000.000000,15862500.000000
12385000.000000,16142500.000000
12374343.000000,16196076.000000
12343995.000000,16241495.000000
12298576.000000,16271843.000000
12245000.000000,16282500.000000
11905000.000000,16282500.000000
11851424.000000,16271843.000000
11806005.000000,16241495.000000
11775657.000000,16196076.000000
11765000.000000,16142500.000000
11765000.000000,15862500.000000
11775657.000000,15808924.000000
11806005.000000,15763505.000000
11851424.000000,15733157.000000
11905000.000000,15722500.000000
Z" /> 
<path style="fill:#000000; fill-opacity:1.0; 
stroke:#000000; stroke-width:1.000000; stroke-opacity:1; 
stroke-linecap:round; stroke-linejoin:round;fill-rule:evenodd;"
d="M 12245000.000000,16682500.000000
12298576.000000,16693157.000000
12343995.000000,16723505.000000
12374343.000000,16768924.000000
12385000.000000,16822500.000000
12385000.000000,17102500.000000
12374343.000000,17156076.000000
12343995.000000,17201495.000000
12298576.000000,17231843.000000
12245000.000000,17242500.000000
11905000.000000,17242500.000000
11851424.000000,17231843.000000
11806005.000000,17201495.000000
11775657.000000,17156076.000000
11765000.000000,17102500.000000
11765000.000000,16822500.000000
11775657.000000,16768924.000000
11806005.000000,16723505.000000
11851424.000000,16693157.000000
11905000.000000,16682500.000000
Z" /> 
</g>
<g >
</g>
<g style="fill:#000000; fill-opacity:1.0; 
stroke:#000000; stroke-width:1.000000; stroke-opacity:1; 
stroke-linecap:round; stroke-linejoin:round;">
<path style="fill:#000000; fill-opacity:1.0; 
stroke:#000000; stroke-width:1.000000; stroke-opacity:1; 
stroke-linecap:round; stroke-linejoin:round;fill-rule:evenodd;"
d="M 12405000.000000,20942500.000000
12351424.000000,20931843.000000
12306005.000000,20901495.000000
12275657.000000,20856076.000000
12265000.000000,20802500.000000
12265000.000000,20522500.000000
12275657.000000,20468924.000000
12306005.000000,20423505.000000
12351424.000000,20393157.000000
12405000.000000,20382500.000000
12745000.000000,20382500.000000
12798576.000000,20393157.000000
12843995.000000,20423505.000000
12874343.000000,20468924.000000
12885000.000000,20522500.000000
12885000.000000,20802500.000000
12874343.000000,20856076.000000
12843995.000000,20901495.000000
12798576.000000,20931843.000000
12745000.000000,20942500.000000
Z" /> 
<path style="fill:#000000; fill-opacity:1.0; 
stroke:#000000; stroke-width:1.000000; stroke-opacity:1; 
stroke-linecap:round; stroke-linejoin:round;fill-rule:evenodd;"
d="M 12405000.000000,19982500.000000
12351424.000000,19971843.000000
12306005.000000,19941495.000000
12275657.000000,19896076.000000
12265000.000000,19842500.000000
12265000.000000,19562500.000000
12275657.000000,19508924.000000
12306005.000000,19463505.000000
12351424.000000,19433157.000000
12405000.000000,19422500.000000
12745000.000000,19422500.000000
12798576.000000,19433157.000000
12843995.000000,19463505.000000
12874343.000000,19508924.000000
12885000.000000,19562500.000000
12885000.000000,19842500.000000
12874343.000000,19896076.000000
12843995.000000,19941495.000000
12798576.000000,19971843.000000
12745000.000000,19982500.000000
Z" /> 
</g>
<g >
</g>
<g style="fill:#000000; fill-opacity:1.0; 
stroke:#000000; stroke-width:1.000000; stroke-opacity:1; 
stroke-linecap:round; stroke-linejoin:round;">
<path style="fill:#000000; fill-opacity:1.0; 
stroke:#000000; stroke-width:1.000000; stroke-opacity:1; 
stroke-linecap:round; stroke-linejoin:round;fill-rule:evenodd;"
d="M 12705000.000000,29767500.000000
12694724.000000,29819162.000000
12665459.000000,29862959.000000
12621662.000000,29892224.000000
12570000.000000,29902500.000000
12300000.000000,29902500.000000
12248338.000000,29892224.000000
12204541.000000,29862959.000000
12175276.000000,29819162.000000
12165000.000000,29767500.000000
12165000.000000,29397500.000000
12175276.000000,29345838.000000
12204541.000000,29302041.000000
12248338.000000,29272776.000000
12300000.000000,29262500.000000
12570000.000000,29262500.000000
12621662.000000,29272776.000000
12665459.000000,29302041.000000
12694724.000000,29345838.000000
12705000.000000,29397500.000000
Z" /> 
<path style="fill:#000000; fill-opacity:1.0; 
stroke:#000000; stroke-width:1.000000; stroke-opacity:1; 
stroke-linecap:round; stroke-linejoin:round;fill-rule:evenodd;"
d="M 11685000.000000,29767500.000000
11674724.000000,29819162.000000
11645459.000000,29862959.000000
11601662.000000,29892224.000000
11550000.000000,29902500.000000
11280000.000000,29902500.000000
11228338.000000,29892224.000000
11184541.000000,29862959.000000
11155276.000000,29819162.000000
11145000.000000,29767500.000000
11145000.000000,29397500.000000
11155276.000000,29345838.000000
11184541.000000,29302041.000000
11228338.000000,29272776.000000
11280000.000000,29262500.000000
11550000.000000,29262500.000000
11601662.000000,29272776.000000
11645459.000000,29302041.000000
11674724.000000,29345838.000000
11685000.000000,29397500.000000
Z" /> 
</g>
<g >
</g>
<g >
</g>
<g style="fill:#000000; fill-opacity:1.0; 
stroke:#000000; stroke-width:1.000000; stroke-opacity:1; 
stroke-linecap:round; stroke-linejoin:round;">
<path style="fill:#000000; fill-opacity:1.0; 
stroke:#000000; stroke-width:1.000000; stroke-opacity:1; 
stroke-linecap:round; stroke-linejoin:round;fill-rule:evenodd;"
d="M 3895000.000000,13922500.000000
3948576.000000,13933157.000000
3993995.000000,13963505.000000
4024343.000000,14008924.000000
4035000.000000,14062500.000000
4035000.000000,14342500.000000
4024343.000000,14396076.000000
3993995.000000,14441495.000000
3948576.000000,14471843.000000
3895000.000000,14482500.000000
3555000.000000,14482500.000000
3501424.000000,14471843.000000
3456005.000000,14441495.000000
3425657.000000,14396076.000000
3415000.000000,14342500.000000
3415000.000000,14062500.000000
3425657.000000,14008924.000000
3456005.000000,13963505.000000
3501424.000000,13933157.000000
3555000.000000,13922500.000000
Z" /> 
<path style="fill:#000000; fill-opacity:1.0; 
stroke:#000000; stroke-width:1.000000; stroke-opacity:1; 
stroke-linecap:round; stroke-linejoin:round;fill-rule:evenodd;"
d="M 3895000.000000,14882500.000000
3948576.000000,14893157.000000
3993995.000000,14923505.000000
4024343.000000,14968924.000000
4035000.000000,15022500.000000
4035000.000000,15302500.000000
4024343.000000,15356076.000000
3993995.000000,15401495.000000
3948576.000000,15431843.000000
3895000.000000,15442500.000000
3555000.000000,15442500.000000
3501424.000000,15431843.000000
3456005.000000,15401495.000000
3425657.000000,15356076.000000
3415000.000000,15302500.000000
3415000.000000,15022500.000000
3425657.000000,14968924.000000
3456005.000000,14923505.000000
3501424.000000,14893157.000000
3555000.000000,14882500.000000
Z" /> 
</g>
<g >
</g>
<g style="fill:#000000; fill-opacity:1.0; 
stroke:#000000; stroke-width:1.000000; stroke-opacity:1; 
stroke-linecap:round; stroke-linejoin:round;">
<path style="fill:#000000; fill-opacity:1.0; 
stroke:#000000; stroke-width:1.000000; stroke-opacity:1; 
stroke-linecap:round; stroke-linejoin:round;fill-rule:evenodd;"
d="M 9655000.000000,29026000.000000
9601424.000000,29015343.000000
9556005.000000,28984995.000000
9525657.000000,28939576.000000
9515000.000000,28886000.000000
9515000.000000,28606000.000000
9525657.000000,28552424.000000
9556005.000000,28507005.000000
9601424.000000,28476657.000000
9655000.000000,28466000.000000
9995000.000000,28466000.000000
10048576.000000,28476657.000000
10093995.000000,28507005.000000
10124343.000000,28552424.000000
10135000.000000,28606000.000000
10135000.000000,28886000.000000
10124343.000000,28939576.000000
10093995.000000,28984995.000000
10048576.000000,29015343.000000
9995000.000000,29026000.000000
Z" /> 
<path style="fill:#000000; fill-opacity:1.0; 
stroke:#000000; stroke-width:1.000000; stroke-opacity:1; 
stroke-linecap:round; stroke-linejoin:round;fill-rule:evenodd;"
d="M 9655000.000000,28066000.000000
9601424.000000,28055343.000000
9556005.000000,28024995.000000
9525657.000000,27979576.000000
9515000.000000,27926000.000000
9515000.000000,27646000.000000
9525657.000000,27592424.000000
9556005.000000,27547005.000000
9601424.000000,27516657.000000
9655000.000000,27506000.000000
9995000.000000,27506000.000000
10048576.000000,27516657.000000
10093995.000000,27547005.000000
10124343.000000,27592424.000000
10135000.000000,27646000.000000
10135000.000000,27926000.000000
10124343.000000,27979576.000000
10093995.000000,28024995.000000
10048576.000000,28055343.000000
9995000.000000,28066000.000000
Z" /> 
</g>
<g >
</g>
<g style="fill:#000000; fill-opacity:1.0; 
stroke:#000000; stroke-width:1.000000; stroke-opacity:1; 
stroke-linecap:round; stroke-linejoin:round;">
<path style="fill:#000000; fill-opacity:1.0; 
stroke:#000000; stroke-width:1.000000; stroke-opacity:1; 
stroke-linecap:round; stroke-linejoin:round;fill-rule:evenodd;"
d="M 9845000.000000,14797500.000000
9855276.000000,14745838.000000
9884541.000000,14702041.000000
9928338.000000,14672776.000000
9980000.000000,14662500.000000
10250000.000000,14662500.000000
10301662.000000,14672776.000000
10345459.000000,14702041.000000
10374724.000000,14745838.000000
10385000.000000,14797500.000000
10385000.000000,15167500.000000
10374724.000000,15219162.000000
10345459.000000,15262959.000000
10301662.000000,15292224.000000
10250000.000000,15302500.000000
9980000.000000,15302500.000000
9928338.000000,15292224.000000
9884541.000000,15262959.000000
9855276.000000,15219162.000000
9845000.000000,15167500.000000
Z" /> 
<path style="fill:#000000; fill-opacity:1.0; 
stroke:#000000; stroke-width:1.000000; stroke-opacity:1; 
stroke-linecap:round; stroke-linejoin:round;fill-rule:evenodd;"
d="M 10865000.000000,14797500.000000
10875276.000000,14745838.000000
10904541.000000,14702041.000000
10948338.000000,14672776.000000
11000000.000000,14662500.000000
11270000.000000,14662500.000000
11321662.000000,14672776.000000
11365459.000000,14702041.000000
11394724.000000,14745838.000000
11405000.000000,14797500.000000
11405000.000000,15167500.000000
11394724.000000,15219162.000000
11365459.000000,15262959.000000
11321662.000000,15292224.000000
11270000.000000,15302500.000000
11000000.000000,15302500.000000
10948338.000000,15292224.000000
10904541.000000,15262959.000000
10875276.000000,15219162.000000
10865000.000000,15167500.000000
Z" /> 
</g>
<g >
</g>
<g style="fill:#000000; fill-opacity:1.0; 
stroke:#000000; stroke-width:1.000000; stroke-opacity:1; 
stroke-linecap:round; stroke-linejoin:round;">
<path style="fill:#000000; fill-opacity:1.0; 
stroke:#000000; stroke-width:1.000000; stroke-opacity:1; 
stroke-linecap:round; stroke-linejoin:round;fill-rule:evenodd;"
d="M 3555000.000000,17292500.000000
3501424.000000,17281843.000000
3456005.000000,17251495.000000
3425657.000000,17206076.000000
3415000.000000,17152500.000000
3415000.000000,16872500.000000
3425657.000000,16818924.000000
3456005.000000,16773505.000000
3501424.000000,16743157.000000
3555000.000000,16732500.000000
3895000.000000,16732500.000000
3948576.000000,16743157.000000
3993995.000000,16773505.000000
4024343.000000,16818924.000000
4035000.000000,16872500.000000
4035000.000000,17152500.000000
4024343.000000,17206076.000000
3993995.000000,17251495.000000
3948576.000000,17281843.000000
3895000.000000,17292500.000000
Z" /> 
<path style="fill:#000000; fill-opacity:1.0; 
stroke:#000000; stroke-width:1.000000; stroke-opacity:1; 
stroke-linecap:round; stroke-linejoin:round;fill-rule:evenodd;"
d="M 3555000.000000,16332500.000000
3501424.000000,16321843.000000
3456005.000000,16291495.000000
3425657.000000,16246076.000000
3415000.000000,16192500.000000
3415000.000000,15912500.000000
3425657.000000,15858924.000000
3456005.000000,15813505.000000
3501424.000000,15783157.000000
3555000.000000,15772500.000000
3895000.000000,15772500.000000
3948576.000000,15783157.000000
3993995.000000,15813505.000000
4024343.000000,15858924.000000
4035000.000000,15912500.000000
4035000.000000,16192500.000000
4024343.000000,16246076.000000
3993995.000000,16291495.000000
3948576.000000,16321843.000000
3895000.000000,16332500.000000
Z" /> 
</g>
<g >
</g>
<g style="fill:#000000; fill-opacity:1.0; 
stroke:#000000; stroke-width:1.000000; stroke-opacity:1; 
stroke-linecap:round; stroke-linejoin:round;">
<path style="fill:#000000; fill-opacity:1.0; 
stroke:#000000; stroke-width:1.000000; stroke-opacity:1; 
stroke-linecap:round; stroke-linejoin:round;fill-rule:evenodd;"
d="M 12247500.000000,13852500.000000
12303946.000000,13863728.000000
12351798.000000,13895702.000000
12383772.000000,13943554.000000
12395000.000000,14000000.000000
12395000.000000,14295000.000000
12383772.000000,14351446.000000
12351798.000000,14399298.000000
12303946.000000,14431272.000000
12247500.000000,14442500.000000
11902500.000000,14442500.000000
11846054.000000,14431272.000000
11798202.000000,14399298.000000
11766228.000000,14351446.000000
11755000.000000,14295000.000000
11755000.000000,14000000.000000
11766228.000000,13943554.000000
11798202.000000,13895702.000000
11846054.000000,13863728.000000
11902500.000000,13852500.000000
Z" /> 
<path style="fill:#000000; fill-opacity:1.0; 
stroke:#000000; stroke-width:1.000000; stroke-opacity:1; 
stroke-linecap:round; stroke-linejoin:round;fill-rule:evenodd;"
d="M 12247500.000000,14822500.000000
12303946.000000,14833728.000000
12351798.000000,14865702.000000
12383772.000000,14913554.000000
12395000.000000,14970000.000000
12395000.000000,15265000.000000
12383772.000000,15321446.000000
12351798.000000,15369298.000000
12303946.000000,15401272.000000
12247500.000000,15412500.000000
11902500.000000,15412500.000000
11846054.000000,15401272.000000
11798202.000000,15369298.000000
11766228.000000,15321446.000000
11755000.000000,15265000.000000
11755000.000000,14970000.000000
11766228.000000,14913554.000000
11798202.000000,14865702.000000
11846054.000000,14833728.000000
11902500.000000,14822500.000000
Z" /> 
</g>
<g >
</g>
<g >
</g>
<g >
</g>
<g >
</g>
</g>
<g style="fill:#000000; fill-opacity:1.0; 
stroke:#000000; stroke-width:1.000000; stroke-opacity:1; 
stroke-linecap:round; stroke-linejoin:round;">
</g>
<g style="fill:#000000; fill-opacity:1.0; 
stroke:#000000; stroke-width:100000.000000; stroke-opacity:1; 
stroke-linecap:round; stroke-linejoin:round;">
</g>
<g style="fill:#000000; fill-opacity:0.0; 
stroke:#000000; stroke-width:100000.000000; stroke-opacity:1; 
stroke-linecap:round; stroke-linejoin:round;">
<path d="M14275000 7382500
L14275000 9782500
" />
<path d="M1575000 7382500
L1575000 9782500
" />
<path d="M3225000 13682500
L4425000 13182500
" />
<path d="M4425000 13182500
L11425000 13182500
" />
<path d="M14275000.000000 9782500.000000 A1000000.000000 1000000.000000 0.0 0 0 14275000.000000 11782500.000000" />
<path d="M1575000.000000 11782500.000000 A1000000.000000 1000000.000000 0.0 0 0 1575000.000000 9782500.000000" />
<path d="M12625000 7382500
L14275000 7382500
" />
<path d="M12625000 13682500
L12625000 7382500
" />
<path d="M14275000 30506000
L14275000 11782500
" />
<path d="M1575000 30506000
L14275000 30506000
" />
<path d="M1575000 11782500
L1575000 30506000
" />
<path d="M1575000 7382500
L3225000 7382500
" />
<path d="M3225000 7382500
L3225000 13682500
" />
<path d="M11425000 13182500
L12625000 13682500
" />
<g >
</g>
<g >
</g>
<g >
</g>
<g >
</g>
<g >
</g>
<g >
</g>
<g >
</g>
<g >
</g>
<g >
</g>
<g >
</g>
<g >
</g>
<g >
</g>
<g >
</g>
<g >
</g>
<g >
</g>
<g >
</g>
<g >
</g>
<g >
</g>
<g >
</g>
<g >
</g>
<g >
</g>
<g >
</g>
<g >
</g>
<g >
</g>
<g >
</g>
<g >
</g>
<g >
</g>
<g >
</g>
<g >
</g>
<g >
</g>
<g >
</g>
</g> 
</svg>
