%TF.GenerationSoftware,KiCad,Pcbnew,(6.0.8)*%
%TF.CreationDate,2022-11-05T21:02:43+01:00*%
%TF.ProjectId,epi,6570692e-6b69-4636-9164-5f7063625858,1_1*%
%TF.SameCoordinates,Original*%
%TF.FileFunction,Copper,L2,Bot*%
%TF.FilePolarity,Positive*%
%FSLAX46Y46*%
G04 Gerber Fmt 4.6, Leading zero omitted, Abs format (unit mm)*
G04 Created by KiCad (PCBNEW (6.0.8)) date 2022-11-05 21:02:43*
%MOMM*%
%LPD*%
G01*
G04 APERTURE LIST*
G04 Aperture macros list*
%AMRoundRect*
0 Rectangle with rounded corners*
0 $1 Rounding radius*
0 $2 $3 $4 $5 $6 $7 $8 $9 X,Y pos of 4 corners*
0 Add a 4 corners polygon primitive as box body*
4,1,4,$2,$3,$4,$5,$6,$7,$8,$9,$2,$3,0*
0 Add four circle primitives for the rounded corners*
1,1,$1+$1,$2,$3*
1,1,$1+$1,$4,$5*
1,1,$1+$1,$6,$7*
1,1,$1+$1,$8,$9*
0 Add four rect primitives between the rounded corners*
20,1,$1+$1,$2,$3,$4,$5,0*
20,1,$1+$1,$4,$5,$6,$7,0*
20,1,$1+$1,$6,$7,$8,$9,0*
20,1,$1+$1,$8,$9,$2,$3,0*%
G04 Aperture macros list end*
%TA.AperFunction,ComponentPad*%
%ADD10RoundRect,0.250000X-0.250000X0.500000X-0.250000X-0.500000X0.250000X-0.500000X0.250000X0.500000X0*%
%TD*%
%TA.AperFunction,ComponentPad*%
%ADD11RoundRect,0.250000X-0.500000X-0.250000X0.500000X-0.250000X0.500000X0.250000X-0.500000X0.250000X0*%
%TD*%
%TA.AperFunction,ComponentPad*%
%ADD12O,1.200000X2.000000*%
%TD*%
%TA.AperFunction,ComponentPad*%
%ADD13O,1.200000X2.300000*%
%TD*%
%TA.AperFunction,ViaPad*%
%ADD14C,0.500000*%
%TD*%
%TA.AperFunction,Conductor*%
%ADD15C,0.127000*%
%TD*%
%TA.AperFunction,Conductor*%
%ADD16C,0.200000*%
%TD*%
%TA.AperFunction,Conductor*%
%ADD17C,0.250000*%
%TD*%
G04 APERTURE END LIST*
D10*
%TO.P,J3,1,Pin_1*%
%TO.N,IO11*%
X106880000Y-74160000D03*
%TO.P,J3,2,Pin_2*%
%TO.N,IO12*%
X105610000Y-74160000D03*
%TO.P,J3,3,Pin_3*%
%TO.N,IO13*%
X104340000Y-74160000D03*
%TO.P,J3,4,Pin_4*%
%TO.N,A5*%
X103070000Y-74160000D03*
%TO.P,J3,5,Pin_5*%
%TO.N,GND*%
X101800000Y-74160000D03*
%TD*%
D11*
%TO.P,J1,12,Pin_12*%
%TO.N,IO9*%
X97990000Y-72890000D03*
%TO.P,J1,11,Pin_11*%
%TO.N,IO8*%
X97990000Y-71620000D03*
%TO.P,J1,10,Pin_10*%
%TO.N,D7*%
X97990000Y-70350000D03*
%TO.P,J1,9,Pin_9*%
%TO.N,D6*%
X97990000Y-69080000D03*
%TO.P,J1,8,Pin_8*%
%TO.N,D5*%
X97990000Y-67810000D03*
%TO.P,J1,7,Pin_7*%
%TO.N,D4*%
X97990000Y-66540000D03*
%TO.P,J1,6,Pin_6*%
%TO.N,D3{slash}SCL*%
X97990000Y-65270000D03*
%TO.P,J1,5,Pin_5*%
%TO.N,D2{slash}SDA*%
X97990000Y-64000000D03*
%TO.P,J1,4,Pin_4*%
%TO.N,GND*%
X97990000Y-62730000D03*
%TO.P,J1,3,Pin_3*%
X97990000Y-61460000D03*
%TO.P,J1,2,Pin_2*%
%TO.N,D0{slash}RX*%
X97990000Y-60190000D03*
%TO.P,J1,1,Pin_1*%
%TO.N,D1{slash}TX*%
X97990000Y-58920000D03*
%TD*%
D12*
%TO.P,J4,S1,SHIELD*%
%TO.N,unconnected-(J4-PadS1)*%
X98740000Y-56341500D03*
D13*
X98740000Y-52341500D03*
D12*
X109940000Y-56341500D03*
D13*
X109940000Y-52341500D03*
%TD*%
D11*
%TO.P,J2,12,Pin_12*%
%TO.N,IO10*%
X110690000Y-72890000D03*
%TO.P,J2,11,Pin_11*%
%TO.N,D16{slash}MOSI*%
X110690000Y-71620000D03*
%TO.P,J2,10,Pin_10*%
%TO.N,D14{slash}MISO*%
X110690000Y-70350000D03*
%TO.P,J2,9,Pin_9*%
%TO.N,D15{slash}SCK*%
X110690000Y-69080000D03*
%TO.P,J2,8,Pin_8*%
%TO.N,A0*%
X110690000Y-67810000D03*
%TO.P,J2,7,Pin_7*%
%TO.N,A1*%
X110690000Y-66540000D03*
%TO.P,J2,6,Pin_6*%
%TO.N,A2*%
X110690000Y-65270000D03*
%TO.P,J2,5,Pin_5*%
%TO.N,A3*%
X110690000Y-64000000D03*
%TO.P,J2,4,Pin_4*%
%TO.N,A4*%
X110690000Y-62730000D03*
%TO.P,J2,3,Pin_3*%
%TO.N,RST*%
X110690000Y-61460000D03*
%TO.P,J2,2,Pin_2*%
%TO.N,GND*%
X110690000Y-60190000D03*
%TO.P,J2,1,Pin_1*%
%TO.N,VBUS*%
X110690000Y-58920000D03*
%TD*%
D14*
%TO.N,GND*%
X100690000Y-72430000D03*
X99640000Y-63170000D03*
X100690000Y-71270000D03*
X108740000Y-72336500D03*
X99940000Y-64670000D03*
X107550000Y-69936500D03*
X106340000Y-70720000D03*
X99250000Y-58316500D03*
X101590000Y-69386500D03*
X102890000Y-72236500D03*
X108540000Y-64220000D03*
X109400000Y-68266500D03*
X105740000Y-58736500D03*
X107590000Y-59586500D03*
%TO.N,Net-(C2-Pad2)*%
X102400000Y-61116500D03*
X106615000Y-63911500D03*
%TO.N,Net-(C5-Pad2)*%
X102090000Y-67066500D03*
X102940000Y-71370000D03*
%TO.N,Net-(C6-Pad2)*%
X104540000Y-67986500D03*
X105740000Y-72470000D03*
%TO.N,Net-(C7-Pad1)*%
X106750000Y-64786500D03*
X99690000Y-60570000D03*
%TO.N,Net-(C8-Pad2)*%
X104340000Y-64186500D03*
X100190000Y-61470000D03*
%TO.N,RST*%
X107490000Y-62386500D03*
X105740000Y-63886500D03*
%TO.N,D0{slash}RX*%
X100740000Y-62636500D03*
%TO.N,IO11*%
X100890000Y-63486500D03*
%TO.N,IO12*%
X103490000Y-68586500D03*
%TO.N,Net-(J4-PadA7)*%
X104890000Y-59520000D03*
X103490000Y-58586500D03*
%TO.N,Net-(J4-PadB5)*%
X103190000Y-59736500D03*
X104640000Y-58736500D03*
%TO.N,D+*%
X103840000Y-61586500D03*
X102020879Y-59814389D03*
%TO.N,D-*%
X104040000Y-60470000D03*
X105140000Y-61586500D03*
%TO.N,D7*%
X102740000Y-68086500D03*
X105950000Y-65566500D03*
X107990000Y-63036500D03*
%TO.N,D15{slash}SCK*%
X103340000Y-63936500D03*
%TO.N,D16{slash}MOSI*%
X102340000Y-63836500D03*
%TO.N,D14{slash}MISO*%
X101550000Y-62816500D03*
X108940000Y-70836500D03*
%TO.N,D3{slash}SCL*%
X100190000Y-66686500D03*
%TO.N,D2{slash}SDA*%
X102840000Y-65936500D03*
%TO.N,D4*%
X100040000Y-69086500D03*
X101990000Y-68436500D03*
%TO.N,IO10*%
X106640000Y-67470000D03*
%TO.N,D5*%
X106090000Y-68486500D03*
%TO.N,A5*%
X103690000Y-67186500D03*
X99940000Y-70920000D03*
%TO.N,Net-(F1-Pad1)*%
X101940000Y-57386500D03*
X106740000Y-57486500D03*
X108990000Y-57920000D03*
%TD*%
D15*
%TO.N,GND*%
X106614755Y-59043034D02*
G75*
G02*
X107095723Y-59242223I45J-680166D01*
G01*
X106383318Y-59042995D02*
G75*
G02*
X106013340Y-58889750I-18J523195D01*
G01*
D16*
X101715000Y-74060002D02*
G75*
G02*
X101569895Y-73999895I0J205202D01*
G01*
X100889199Y-73319247D02*
G75*
G02*
X100690000Y-72838255I481001J480947D01*
G01*
X98210000Y-61426500D02*
G75*
G02*
X98210000Y-61426500I0J0D01*
G01*
D15*
X105800045Y-58736480D02*
G75*
G02*
X105902548Y-58778958I-45J-145020D01*
G01*
%TO.N,Net-(C2-Pad2)*%
X103633500Y-62149988D02*
G75*
G02*
X103974921Y-62291421I0J-482812D01*
G01*
X105791545Y-64486475D02*
G75*
G02*
X105367405Y-64310815I-45J599775D01*
G01*
X105791545Y-64486537D02*
G75*
G03*
X106215683Y-64310814I-45J599837D01*
G01*
X105359793Y-64303207D02*
G75*
G02*
X105176500Y-63860691I442507J442507D01*
G01*
X105176466Y-63774744D02*
G75*
G03*
X104977276Y-63293776I-680166J44D01*
G01*
X103633500Y-62150012D02*
G75*
G02*
X103292078Y-62008578I0J482812D01*
G01*
%TO.N,Net-(C5-Pad2)*%
X104253464Y-67086545D02*
G75*
G03*
X104159132Y-66858724I-322164J45D01*
G01*
X104600042Y-67422982D02*
G75*
G02*
X104355000Y-67321500I-42J346482D01*
G01*
X104614955Y-67423019D02*
G75*
G02*
X104885454Y-67535044I45J-382481D01*
G01*
X104347886Y-67314346D02*
G75*
G02*
X104253500Y-67086545I227814J227846D01*
G01*
X104904301Y-69405748D02*
G75*
G03*
X105103500Y-68924755I-481001J480948D01*
G01*
X103665000Y-66572987D02*
G75*
G02*
X104020778Y-66720368I0J-503113D01*
G01*
X103309231Y-66720378D02*
G75*
G02*
X103665000Y-66573000I355769J-355722D01*
G01*
X105103500Y-67986498D02*
G75*
G03*
X104938455Y-67588045I-563500J-2D01*
G01*
X102928240Y-66882512D02*
G75*
G03*
X103301839Y-66727749I-40J528412D01*
G01*
X102181998Y-66974498D02*
G75*
G02*
X102404107Y-66882500I222102J-222102D01*
G01*
%TO.N,Net-(C6-Pad2)*%
X102116617Y-72836492D02*
G75*
G02*
X102088251Y-72824749I-17J40092D01*
G01*
X104340801Y-68775748D02*
G75*
G03*
X104540000Y-68294755I-481001J480948D01*
G01*
X102076534Y-71321744D02*
G75*
G02*
X102275724Y-70840777I680166J44D01*
G01*
X105114345Y-72836518D02*
G75*
G03*
X105556749Y-72653249I-45J625718D01*
G01*
X102088245Y-72824755D02*
G75*
G02*
X102076500Y-72796382I28355J28355D01*
G01*
%TO.N,Net-(C7-Pad1)*%
X103633455Y-62916534D02*
G75*
G02*
X103234923Y-62751421I45J563634D01*
G01*
X103633455Y-62916529D02*
G75*
G02*
X104031987Y-63081577I45J-563571D01*
G01*
X104903473Y-64234834D02*
G75*
G03*
X104704276Y-63753866I-680173J34D01*
G01*
X106442720Y-64966508D02*
G75*
G03*
X106660000Y-64876500I-20J307308D01*
G01*
X105618244Y-64966466D02*
G75*
G02*
X105137276Y-64767276I-44J680166D01*
G01*
X100771755Y-60570034D02*
G75*
G02*
X101252723Y-60769223I45J-680166D01*
G01*
X105102699Y-64732747D02*
G75*
G02*
X104903500Y-64251755I481001J480947D01*
G01*
%TO.N,Net-(C8-Pad2)*%
X103291665Y-63373027D02*
G75*
G02*
X103772633Y-63572223I35J-680173D01*
G01*
X100818255Y-61466534D02*
G75*
G02*
X101299223Y-61665723I45J-680166D01*
G01*
X103288244Y-63372966D02*
G75*
G02*
X102807276Y-63173776I-44J680166D01*
G01*
X104339975Y-64163045D02*
G75*
G03*
X104323414Y-64123004I-56575J45D01*
G01*
X100191757Y-61468257D02*
G75*
G02*
X100195974Y-61466500I4243J-4243D01*
G01*
%TO.N,RST*%
X107151607Y-62474884D02*
G75*
G02*
X107365000Y-62386500I213393J-213416D01*
G01*
%TO.N,D0{slash}RX*%
X99461902Y-61808392D02*
G75*
G02*
X99326500Y-61481519I326898J326892D01*
G01*
X99326478Y-61481519D02*
G75*
G03*
X99191101Y-61154642I-462278J19D01*
G01*
X98173230Y-60156469D02*
G75*
G02*
X98206912Y-60170451I-30J-47631D01*
G01*
X100515000Y-62636499D02*
G75*
G02*
X100130900Y-62477400I0J543199D01*
G01*
%TO.N,IO11*%
X106653500Y-68486498D02*
G75*
G03*
X106488455Y-68088045I-563500J-2D01*
G01*
X103390005Y-65704795D02*
G75*
G03*
X103379247Y-65678839I-36705J-5D01*
G01*
X106159165Y-67923031D02*
G75*
G02*
X105878781Y-67806861I35J396531D01*
G01*
X102849547Y-65372952D02*
G75*
G02*
X103231704Y-65531296I-47J-540448D01*
G01*
X106965002Y-74075002D02*
G75*
G03*
X106986500Y-74023094I-51902J51902D01*
G01*
X103590960Y-65720040D02*
G75*
G02*
X103934020Y-65862100I40J-485160D01*
G01*
X102738244Y-65372966D02*
G75*
G02*
X102257276Y-65173776I-44J680166D01*
G01*
X103405205Y-65720000D02*
G75*
G02*
X103390000Y-65704795I-5J15200D01*
G01*
X106913094Y-74096497D02*
G75*
G03*
X106965000Y-74075000I6J73397D01*
G01*
X101003132Y-63919642D02*
G75*
G02*
X100890000Y-63646500I273168J273142D01*
G01*
X106820010Y-69086490D02*
G75*
G02*
X106653500Y-68684533I401990J401990D01*
G01*
X106986513Y-69488466D02*
G75*
G03*
X106819999Y-69086501I-568513J-34D01*
G01*
X106159165Y-67923019D02*
G75*
G02*
X106439547Y-68039139I35J-396481D01*
G01*
%TO.N,IO12*%
X102116893Y-73220002D02*
G75*
G02*
X101786750Y-73083250I7J466902D01*
G01*
X101650034Y-71048244D02*
G75*
G02*
X101849224Y-70567277I680166J44D01*
G01*
X105610031Y-74076769D02*
G75*
G03*
X105596048Y-74043087I-47631J-31D01*
G01*
X103369788Y-69046705D02*
G75*
G03*
X103490000Y-68756500I-290188J290205D01*
G01*
X104491216Y-73219991D02*
G75*
G02*
X104972184Y-73419223I-16J-680209D01*
G01*
X101786752Y-73083248D02*
G75*
G02*
X101650000Y-72753106I330148J330148D01*
G01*
%TO.N,Net-(J4-PadA7)*%
X103748759Y-59974652D02*
G75*
G03*
X103753500Y-59963205I-11459J11452D01*
G01*
X103753507Y-59963205D02*
G75*
G02*
X103758241Y-59951758I16193J5D01*
G01*
X102626543Y-59709955D02*
G75*
G02*
X102810316Y-59266185I627557J55D01*
G01*
X103190000Y-60336494D02*
G75*
G03*
X103526146Y-60197263I0J475394D01*
G01*
X103820250Y-59889750D02*
G75*
G02*
X103981398Y-59823000I161150J-161150D01*
G01*
X104434902Y-59823000D02*
G75*
G03*
X104756704Y-59689704I-2J455100D01*
G01*
X102809793Y-60153207D02*
G75*
G02*
X102626500Y-59710691I442507J442507D01*
G01*
X104877135Y-59569290D02*
G75*
G03*
X104890000Y-59538205I-31135J31090D01*
G01*
X103190000Y-60336494D02*
G75*
G02*
X102853854Y-60197262I0J475394D01*
G01*
%TO.N,Net-(J4-PadB5)*%
X104298578Y-58936491D02*
G75*
G03*
X104540000Y-58836500I22J341391D01*
G01*
X103830900Y-59095599D02*
G75*
G02*
X104215000Y-58936500I384100J-384101D01*
G01*
%TO.N,D+*%
X102653482Y-60458505D02*
G75*
G03*
X102645371Y-60438881I-27782J5D01*
G01*
X103805000Y-61586499D02*
G75*
G02*
X103745251Y-61561751I0J84499D01*
G01*
X102661620Y-60478136D02*
G75*
G02*
X102653500Y-60458505I19680J19636D01*
G01*
%TO.N,D-*%
X104540040Y-60978250D02*
G75*
G03*
X104534166Y-60964166I-19940J-50D01*
G01*
X104545812Y-60992354D02*
G75*
G02*
X104540000Y-60978250I14088J14054D01*
G01*
%TO.N,D7*%
X101814038Y-69952424D02*
G75*
G02*
X101819955Y-69950000I5862J-5876D01*
G01*
X98173230Y-70316469D02*
G75*
G02*
X98206912Y-70330451I-30J-47631D01*
G01*
X101121757Y-71688257D02*
G75*
G03*
X101253500Y-71370177I-318057J318057D01*
G01*
X101819955Y-69950020D02*
G75*
G03*
X101825852Y-69947555I-55J8420D01*
G01*
X107639995Y-63633987D02*
G75*
G02*
X107815000Y-63211500I597505J-13D01*
G01*
X107440801Y-65275748D02*
G75*
G03*
X107640000Y-64794755I-481001J480948D01*
G01*
X99978205Y-71819993D02*
G75*
G02*
X99497237Y-71620776I-5J680193D01*
G01*
X101253534Y-70794744D02*
G75*
G02*
X101452724Y-70313777I680166J44D01*
G01*
X100803677Y-71819990D02*
G75*
G03*
X101121750Y-71688250I23J449790D01*
G01*
X106868255Y-65566465D02*
G75*
G03*
X107349223Y-65367276I45J680165D01*
G01*
X102540796Y-69232653D02*
G75*
G03*
X102740000Y-68751665I-480996J480953D01*
G01*
%TO.N,D15{slash}SCK*%
X106103153Y-66129954D02*
G75*
G03*
X106240160Y-66073250I47J193754D01*
G01*
X105949998Y-66130000D02*
G75*
G02*
X105551545Y-65964955I2J563500D01*
G01*
X105473782Y-65887218D02*
G75*
G02*
X105386500Y-65676455I210718J210718D01*
G01*
X106240188Y-66073278D02*
G75*
G02*
X106377166Y-66016500I137012J-136922D01*
G01*
X107118255Y-66016534D02*
G75*
G02*
X107599223Y-66215723I45J-680166D01*
G01*
X104345045Y-64749962D02*
G75*
G02*
X103937976Y-64581386I-45J575662D01*
G01*
X104345045Y-64749974D02*
G75*
G02*
X104752113Y-64918613I-45J-575726D01*
G01*
X109664834Y-69046473D02*
G75*
G02*
X109183866Y-68847276I-34J680173D01*
G01*
X108825704Y-68489152D02*
G75*
G02*
X108626500Y-68008165I480996J480952D01*
G01*
X108626466Y-67524744D02*
G75*
G03*
X108427276Y-67043776I-680166J44D01*
G01*
X105386516Y-65676455D02*
G75*
G03*
X105299204Y-65465704I-298116J-45D01*
G01*
X103356568Y-64000012D02*
G75*
G02*
X103340000Y-63959955I40032J40012D01*
G01*
%TO.N,D16{slash}MOSI*%
X108189199Y-68480747D02*
G75*
G02*
X107990000Y-67999755I481001J480947D01*
G01*
X104044440Y-65003958D02*
G75*
G02*
X103970932Y-64973550I-40J103958D01*
G01*
X106908255Y-66470034D02*
G75*
G02*
X107389223Y-66669223I45J-680166D01*
G01*
X107989966Y-67551744D02*
G75*
G03*
X107790776Y-67070776I-680166J44D01*
G01*
X109785199Y-71331747D02*
G75*
G02*
X109586000Y-70850755I481001J480947D01*
G01*
X103343485Y-64566504D02*
G75*
G02*
X102967248Y-64410656I15J532104D01*
G01*
X103343485Y-64566517D02*
G75*
G02*
X103719721Y-64722343I15J-532083D01*
G01*
X105835244Y-66469966D02*
G75*
G02*
X105354276Y-66270776I-44J680166D01*
G01*
X102366545Y-63836473D02*
G75*
G02*
X102411860Y-63855270I-45J-64127D01*
G01*
X104044440Y-65003985D02*
G75*
G02*
X104117948Y-65034448I-40J-104015D01*
G01*
X109585966Y-70159244D02*
G75*
G03*
X109386776Y-69678276I-680166J44D01*
G01*
X110283250Y-71586522D02*
G75*
G02*
X109867997Y-71414495I50J587322D01*
G01*
%TO.N,D14{slash}MISO*%
X105771744Y-66906466D02*
G75*
G02*
X105290776Y-66707276I-44J680166D01*
G01*
X103371744Y-65119966D02*
G75*
G02*
X102890776Y-64920776I-44J680166D01*
G01*
X102238295Y-64399992D02*
G75*
G02*
X102013461Y-64306869I5J317992D01*
G01*
X101776516Y-63203159D02*
G75*
G03*
X101663250Y-62929750I-386716J-41D01*
G01*
X101941545Y-64234955D02*
G75*
G02*
X101776500Y-63836501I398455J398455D01*
G01*
X103421755Y-65120034D02*
G75*
G02*
X103902723Y-65319223I45J-680166D01*
G01*
X102238295Y-64400015D02*
G75*
G02*
X102463128Y-64493130I5J-317985D01*
G01*
X106644755Y-66906534D02*
G75*
G02*
X107125723Y-67105723I45J-680166D01*
G01*
X107449966Y-67711744D02*
G75*
G03*
X107250776Y-67230776I-680166J44D01*
G01*
X107649199Y-68565747D02*
G75*
G02*
X107450000Y-68084755I481001J480947D01*
G01*
X108939966Y-70138244D02*
G75*
G03*
X108740776Y-69657276I-680166J44D01*
G01*
%TO.N,D3{slash}SCL*%
X98645652Y-65236537D02*
G75*
G02*
X99126619Y-65435724I48J-680163D01*
G01*
X100190001Y-66592801D02*
G75*
G03*
X100123745Y-66432848I-226201J1D01*
G01*
%TO.N,D2{slash}SDA*%
X100688244Y-65936466D02*
G75*
G02*
X100207276Y-65737276I-44J680166D01*
G01*
X98295000Y-63966497D02*
G75*
G02*
X98536555Y-64066555I0J-341603D01*
G01*
%TO.N,D4*%
X101597365Y-68666485D02*
G75*
G03*
X101875000Y-68551500I35J392585D01*
G01*
X100260752Y-68865699D02*
G75*
G02*
X100741744Y-68666500I480948J-481001D01*
G01*
%TO.N,IO10*%
X107039966Y-68151744D02*
G75*
G03*
X106840776Y-67670776I-680166J44D01*
G01*
X110293250Y-72856539D02*
G75*
G02*
X109895068Y-72691566I50J563139D01*
G01*
X108376466Y-70174744D02*
G75*
G03*
X108177276Y-69693776I-680166J44D01*
G01*
X107239199Y-68755747D02*
G75*
G02*
X107040000Y-68274755I481001J480947D01*
G01*
X108575699Y-71372247D02*
G75*
G02*
X108376500Y-70891255I481001J480947D01*
G01*
%TO.N,D5*%
X105628614Y-68025108D02*
G75*
G02*
X105590000Y-67931895I93186J93208D01*
G01*
X103665575Y-66216527D02*
G75*
G02*
X104115627Y-66402919I25J-636473D01*
G01*
X101147252Y-66569199D02*
G75*
G02*
X101628244Y-66370000I480948J-481001D01*
G01*
X102917975Y-66499972D02*
G75*
G03*
X103260190Y-66358250I25J483972D01*
G01*
X103260180Y-66358240D02*
G75*
G02*
X103602404Y-66216500I342220J-342260D01*
G01*
X102278486Y-66370003D02*
G75*
G02*
X102435410Y-66435000I14J-221897D01*
G01*
X102592333Y-66499983D02*
G75*
G02*
X102435410Y-66435000I-33J221883D01*
G01*
X99658255Y-67776465D02*
G75*
G03*
X100139223Y-67577276I45J680165D01*
G01*
X105590011Y-67931895D02*
G75*
G03*
X105551387Y-67838679I-131811J-5D01*
G01*
%TO.N,A5*%
X101883293Y-67872994D02*
G75*
G03*
X102349840Y-67679750I7J659794D01*
G01*
X99639199Y-70619247D02*
G75*
G02*
X99440000Y-70138255I481001J480947D01*
G01*
X102349846Y-67679756D02*
G75*
G02*
X102816386Y-67486500I466554J-466544D01*
G01*
X99440027Y-69171334D02*
G75*
G02*
X99639224Y-68690367I680173J34D01*
G01*
X103177867Y-67486486D02*
G75*
G03*
X103539999Y-67336499I33J512086D01*
G01*
X100257347Y-68072204D02*
G75*
G02*
X100738334Y-67873000I480953J-480996D01*
G01*
D17*
%TO.N,Net-(F1-Pad1)*%
X108274755Y-57486534D02*
G75*
G02*
X108755723Y-57685723I45J-680166D01*
G01*
X101960005Y-57366505D02*
G75*
G02*
X102008284Y-57346500I48295J-48295D01*
G01*
D16*
X106501005Y-57346498D02*
G75*
G02*
X106670000Y-57416500I-5J-239002D01*
G01*
D15*
%TO.N,D15{slash}SCK*%
X109664834Y-69046500D02*
X110526500Y-69046500D01*
X108825723Y-68489133D02*
X109183866Y-68847276D01*
X108626500Y-67524744D02*
X108626500Y-68008165D01*
X108427276Y-67043776D02*
X107599223Y-66215723D01*
X107118255Y-66016500D02*
X106377166Y-66016500D01*
X105949998Y-66130000D02*
X106103153Y-66130000D01*
X105299204Y-65465704D02*
X104752113Y-64918613D01*
X105473795Y-65887205D02*
X105551545Y-65964955D01*
X103356585Y-63999995D02*
X103937976Y-64581386D01*
X103340000Y-63959955D02*
X103340000Y-63936500D01*
%TO.N,A5*%
X99940000Y-70920000D02*
X99639223Y-70619223D01*
X99440000Y-69171334D02*
X99440000Y-70138255D01*
X103177867Y-67486500D02*
X102816386Y-67486500D01*
X100257366Y-68072223D02*
X99639223Y-68690366D01*
X100738334Y-67873000D02*
X101883293Y-67873000D01*
X103540000Y-67336500D02*
X103690000Y-67186500D01*
%TO.N,Net-(C5-Pad2)*%
X104347866Y-67314366D02*
X104355000Y-67321500D01*
X102940000Y-71370000D02*
X104904276Y-69405723D01*
X105103500Y-67986498D02*
X105103500Y-68924755D01*
X104614955Y-67423000D02*
X104600042Y-67423000D01*
X104938455Y-67588045D02*
X104885454Y-67535044D01*
X104020778Y-66720368D02*
X104159133Y-66858723D01*
X103301839Y-66727749D02*
X103309221Y-66720368D01*
X102404107Y-66882500D02*
X102928240Y-66882500D01*
X102182000Y-66974500D02*
X102090000Y-67066500D01*
%TO.N,D7*%
X99497237Y-71620776D02*
X98206912Y-70330451D01*
X98173230Y-70316500D02*
X98153500Y-70316500D01*
X100803677Y-71820000D02*
X99978205Y-71820000D01*
X101452723Y-70313776D02*
X101814056Y-69952443D01*
X101253500Y-70794744D02*
X101253500Y-71370177D01*
X102540776Y-69232633D02*
X101825853Y-69947556D01*
X102740000Y-68751665D02*
X102740000Y-68086500D01*
%TO.N,IO12*%
X101650000Y-72753106D02*
X101650000Y-71048244D01*
X104972184Y-73419223D02*
X105596048Y-74043087D01*
X103490000Y-68586500D02*
X103490000Y-68756500D01*
X103369791Y-69046708D02*
X101849223Y-70567276D01*
X105610000Y-74076769D02*
X105610000Y-74096500D01*
X104491216Y-73220000D02*
X102116893Y-73220000D01*
%TO.N,D-*%
X105140000Y-61586500D02*
X104545833Y-60992333D01*
X104040000Y-60470000D02*
X104534166Y-60964166D01*
%TO.N,Net-(J4-PadA7)*%
X103490000Y-58586500D02*
X102810315Y-59266184D01*
X102626500Y-59710691D02*
X102626500Y-59709955D01*
X103526146Y-60197263D02*
X103748758Y-59974651D01*
X104434902Y-59823000D02*
X103981398Y-59823000D01*
X103820249Y-59889749D02*
X103758241Y-59951758D01*
X104877127Y-59569282D02*
X104756705Y-59689705D01*
X104890000Y-59538205D02*
X104890000Y-59520000D01*
X102853853Y-60197263D02*
X102809795Y-60153205D01*
%TO.N,D5*%
X99658255Y-67776500D02*
X98153500Y-67776500D01*
X100139223Y-67577276D02*
X101147276Y-66569223D01*
X103602404Y-66216500D02*
X103665575Y-66216500D01*
X105551388Y-67838678D02*
X104115628Y-66402918D01*
X102278486Y-66370000D02*
X101628244Y-66370000D01*
X106090000Y-68486500D02*
X105628611Y-68025111D01*
X102592333Y-66500000D02*
X102917975Y-66500000D01*
D16*
%TO.N,GND*%
X101715000Y-74060000D02*
X101800000Y-74060000D01*
X100889223Y-73319223D02*
X101569895Y-73999895D01*
X100690000Y-72838255D02*
X100690000Y-72430000D01*
D15*
%TO.N,IO11*%
X106913094Y-74096500D02*
X106880000Y-74096500D01*
X106986500Y-69488466D02*
X106986500Y-74023094D01*
X106653500Y-68684533D02*
X106653500Y-68486498D01*
X103934020Y-65862100D02*
X105878781Y-67806861D01*
X103405205Y-65720000D02*
X103590960Y-65720000D01*
X103231705Y-65531295D02*
X103379248Y-65678838D01*
X102738244Y-65373000D02*
X102849547Y-65373000D01*
X101003137Y-63919637D02*
X102257276Y-65173776D01*
X106439548Y-68039138D02*
X106488455Y-68088045D01*
X100890000Y-63486500D02*
X100890000Y-63646500D01*
%TO.N,Net-(C6-Pad2)*%
X105556750Y-72653250D02*
X105740000Y-72470000D01*
X102275723Y-70840776D02*
X104340776Y-68775723D01*
X105114345Y-72836500D02*
X102116617Y-72836500D01*
X102076500Y-72796382D02*
X102076500Y-71321744D01*
X104540000Y-67986500D02*
X104540000Y-68294755D01*
%TO.N,D7*%
X107990000Y-63036500D02*
X107815000Y-63211500D01*
X107640000Y-64794755D02*
X107640000Y-63633987D01*
X107349223Y-65367276D02*
X107440776Y-65275723D01*
X106868255Y-65566500D02*
X105950000Y-65566500D01*
D17*
%TO.N,Net-(F1-Pad1)*%
X108274755Y-57486500D02*
X106740000Y-57486500D01*
X108755723Y-57685723D02*
X108990000Y-57920000D01*
D15*
%TO.N,D2{slash}SDA*%
X98295000Y-63966500D02*
X98153500Y-63966500D01*
X98536555Y-64066555D02*
X100207276Y-65737276D01*
X102840000Y-65936500D02*
X100688244Y-65936500D01*
%TO.N,Net-(C8-Pad2)*%
X104340000Y-64163045D02*
X104340000Y-64186500D01*
X104323414Y-64123004D02*
X103772633Y-63572223D01*
X103288244Y-63373000D02*
X103291665Y-63373000D01*
X100191750Y-61468250D02*
X100190000Y-61470000D01*
X102807276Y-63173776D02*
X101299223Y-61665723D01*
X100195974Y-61466500D02*
X100818255Y-61466500D01*
%TO.N,Net-(C7-Pad1)*%
X106660000Y-64876500D02*
X106750000Y-64786500D01*
X105618244Y-64966500D02*
X106442720Y-64966500D01*
X104704276Y-63753866D02*
X104031987Y-63081577D01*
X104903500Y-64251755D02*
X104903500Y-64234834D01*
X101252723Y-60769223D02*
X103234922Y-62751422D01*
X100771755Y-60570000D02*
X99690000Y-60570000D01*
X105102723Y-64732723D02*
X105137276Y-64767276D01*
%TO.N,Net-(C2-Pad2)*%
X106615000Y-63911500D02*
X106215684Y-64310815D01*
X104977276Y-63293776D02*
X103974921Y-62291421D01*
X105176500Y-63774744D02*
X105176500Y-63860691D01*
X105359795Y-64303205D02*
X105367405Y-64310815D01*
X103292078Y-62008578D02*
X102400000Y-61116500D01*
%TO.N,D14{slash}MISO*%
X108940000Y-70836500D02*
X108940000Y-70138244D01*
X108740776Y-69657276D02*
X107649223Y-68565723D01*
X107450000Y-68084755D02*
X107450000Y-67711744D01*
X107250776Y-67230776D02*
X107125723Y-67105723D01*
X106644755Y-66906500D02*
X105771744Y-66906500D01*
X103902723Y-65319223D02*
X105290776Y-66707276D01*
X103421755Y-65120000D02*
X103371744Y-65120000D01*
X102463129Y-64493129D02*
X102890776Y-64920776D01*
X101776500Y-63836501D02*
X101776500Y-63203159D01*
X101550000Y-62816500D02*
X101663250Y-62929750D01*
X101941545Y-64234955D02*
X102013460Y-64306870D01*
%TO.N,D16{slash}MOSI*%
X110283250Y-71586500D02*
X110526500Y-71586500D01*
X109867996Y-71414496D02*
X109785223Y-71331723D01*
X109586000Y-70159244D02*
X109586000Y-70850755D01*
X109386776Y-69678276D02*
X108189223Y-68480723D01*
X107990000Y-67551744D02*
X107990000Y-67999755D01*
X105835244Y-66470000D02*
X106908255Y-66470000D01*
X104117948Y-65034448D02*
X105354276Y-66270776D01*
X107790776Y-67070776D02*
X107389223Y-66669223D01*
X102411860Y-63855270D02*
X102967247Y-64410657D01*
X103719722Y-64722342D02*
X103970931Y-64973551D01*
X102340000Y-63836500D02*
X102366545Y-63836500D01*
%TO.N,IO10*%
X108575723Y-71372223D02*
X109895067Y-72691567D01*
X108376500Y-70891255D02*
X108376500Y-70174744D01*
X107040000Y-68274755D02*
X107040000Y-68151744D01*
X106640000Y-67470000D02*
X106840776Y-67670776D01*
X110293250Y-72856500D02*
X110526500Y-72856500D01*
X107239223Y-68755723D02*
X108177276Y-69693776D01*
%TO.N,D0{slash}RX*%
X98206912Y-60170451D02*
X99191102Y-61154641D01*
X98173230Y-60156500D02*
X98153500Y-60156500D01*
X100130900Y-62477400D02*
X99461897Y-61808397D01*
X100515000Y-62636500D02*
X100740000Y-62636500D01*
%TO.N,D4*%
X100260776Y-68865723D02*
X100040000Y-69086500D01*
X100741744Y-68666500D02*
X101597365Y-68666500D01*
X101875000Y-68551500D02*
X101990000Y-68436500D01*
%TO.N,D+*%
X102661628Y-60478128D02*
X103745251Y-61561751D01*
X103805000Y-61586500D02*
X103840000Y-61586500D01*
X102020879Y-59814389D02*
X102645371Y-60438881D01*
%TO.N,GND*%
X105800045Y-58736500D02*
X105740000Y-58736500D01*
X106383318Y-59043000D02*
X106614755Y-59043000D01*
X107095723Y-59242223D02*
X107390000Y-59536500D01*
X105902548Y-58778958D02*
X106013340Y-58889750D01*
D16*
X98210000Y-61426500D02*
X98190000Y-61426500D01*
D15*
X98210000Y-61426500D02*
X98153500Y-61426500D01*
%TO.N,RST*%
X107490000Y-62386500D02*
X107365000Y-62386500D01*
X105740000Y-63886500D02*
X107151611Y-62474888D01*
%TO.N,Net-(J4-PadB5)*%
X103830900Y-59095599D02*
X103190000Y-59736500D01*
X104640000Y-58736500D02*
X104540000Y-58836500D01*
X104215000Y-58936500D02*
X104298578Y-58936500D01*
%TO.N,D3{slash}SCL*%
X100123745Y-66432848D02*
X99126620Y-65435723D01*
X100190000Y-66592801D02*
X100190000Y-66686500D01*
X98645652Y-65236500D02*
X98153500Y-65236500D01*
D17*
%TO.N,Net-(F1-Pad1)*%
X106501005Y-57346500D02*
X102008284Y-57346500D01*
D16*
X101960000Y-57366500D02*
X101940000Y-57386500D01*
X106670000Y-57416500D02*
X106740000Y-57486500D01*
%TD*%
%TA.AperFunction,Conductor*%
%TO.N,Net-(C5-Pad2)*%
G36*
X102533908Y-66822457D02*
G01*
X102537406Y-66830801D01*
X102537406Y-66935110D01*
X102533979Y-66943383D01*
X102526545Y-66946780D01*
X102498638Y-66948783D01*
X102498175Y-66948892D01*
X102498172Y-66948893D01*
X102469932Y-66955577D01*
X102465110Y-66956718D01*
X102464642Y-66956921D01*
X102464639Y-66956922D01*
X102436854Y-66968975D01*
X102436370Y-66969185D01*
X102411969Y-66985561D01*
X102391457Y-67005226D01*
X102374384Y-67027560D01*
X102360302Y-67051939D01*
X102348759Y-67077744D01*
X102348680Y-67077968D01*
X102348675Y-67077979D01*
X102343333Y-67093021D01*
X102339307Y-67104354D01*
X102339262Y-67104509D01*
X102339254Y-67104533D01*
X102333919Y-67122836D01*
X102328314Y-67129820D01*
X102322842Y-67131261D01*
X102141800Y-67133636D01*
X102004006Y-67135443D01*
X101995689Y-67132125D01*
X101992154Y-67123897D01*
X101993127Y-67119071D01*
X101999462Y-67104533D01*
X102120488Y-66826767D01*
X102126934Y-66820551D01*
X102132564Y-66819818D01*
X102162064Y-66823245D01*
X102163037Y-66823358D01*
X102199396Y-66826004D01*
X102229166Y-66826930D01*
X102234108Y-66827084D01*
X102234113Y-66827084D01*
X102234239Y-66827088D01*
X102234355Y-66827088D01*
X102259279Y-66826984D01*
X102268777Y-66826945D01*
X102268804Y-66826944D01*
X102268823Y-66826944D01*
X102304190Y-66825909D01*
X102304199Y-66825909D01*
X102304221Y-66825908D01*
X102341782Y-66824311D01*
X102363157Y-66823358D01*
X102382591Y-66822492D01*
X102382670Y-66822488D01*
X102428077Y-66820773D01*
X102428228Y-66820769D01*
X102479126Y-66819502D01*
X102479317Y-66819498D01*
X102517636Y-66819169D01*
X102525606Y-66819101D01*
X102533908Y-66822457D01*
G37*
%TD.AperFunction*%
%TD*%
%TA.AperFunction,Conductor*%
%TO.N,Net-(C7-Pad1)*%
G36*
X106844745Y-64721505D02*
G01*
X106848225Y-64729755D01*
X106847220Y-64734576D01*
X106717920Y-65026012D01*
X106711432Y-65032184D01*
X106705780Y-65032877D01*
X106675636Y-65029119D01*
X106675517Y-65029109D01*
X106675508Y-65029108D01*
X106664236Y-65028158D01*
X106639569Y-65026080D01*
X106622283Y-65025305D01*
X106605137Y-65024536D01*
X106605118Y-65024535D01*
X106604996Y-65024530D01*
X106604878Y-65024529D01*
X106604851Y-65024528D01*
X106570812Y-65024168D01*
X106570718Y-65024167D01*
X106535535Y-65024690D01*
X106535502Y-65024691D01*
X106535501Y-65024691D01*
X106498248Y-65025795D01*
X106457701Y-65027179D01*
X106457656Y-65027181D01*
X106412615Y-65028543D01*
X106412525Y-65028546D01*
X106361782Y-65029586D01*
X106361735Y-65029586D01*
X106341541Y-65029731D01*
X106315844Y-65029915D01*
X106307546Y-65026547D01*
X106304060Y-65018215D01*
X106304060Y-64913895D01*
X106307487Y-64905622D01*
X106314928Y-64902225D01*
X106322152Y-64901710D01*
X106342025Y-64900293D01*
X106342027Y-64900293D01*
X106342500Y-64900259D01*
X106350841Y-64898298D01*
X106375266Y-64892558D01*
X106375270Y-64892557D01*
X106375758Y-64892442D01*
X106376220Y-64892243D01*
X106376223Y-64892242D01*
X106403797Y-64880366D01*
X106403801Y-64880364D01*
X106404279Y-64880158D01*
X106428513Y-64864016D01*
X106448906Y-64844625D01*
X106465907Y-64822593D01*
X106479963Y-64798531D01*
X106491522Y-64773046D01*
X106501032Y-64746748D01*
X106501074Y-64746606D01*
X106501086Y-64746571D01*
X106506465Y-64728544D01*
X106512114Y-64721597D01*
X106517600Y-64720190D01*
X106836449Y-64718131D01*
X106844745Y-64721505D01*
G37*
%TD.AperFunction*%
%TD*%
%TA.AperFunction,Conductor*%
%TO.N,RST*%
G36*
X107296000Y-62242413D02*
G01*
X107595021Y-62353058D01*
X107601591Y-62359143D01*
X107601934Y-62368091D01*
X107599292Y-62372246D01*
X107375385Y-62599295D01*
X107367136Y-62602780D01*
X107361660Y-62601462D01*
X107344374Y-62592481D01*
X107344201Y-62592391D01*
X107318151Y-62580848D01*
X107317933Y-62580772D01*
X107317927Y-62580770D01*
X107291566Y-62571625D01*
X107291272Y-62571523D01*
X107286797Y-62570486D01*
X107264030Y-62565211D01*
X107263663Y-62565126D01*
X107252794Y-62564064D01*
X107235860Y-62562409D01*
X107235855Y-62562409D01*
X107235426Y-62562367D01*
X107234990Y-62562391D01*
X107234986Y-62562391D01*
X107217089Y-62563379D01*
X107206661Y-62563955D01*
X107206185Y-62564063D01*
X107206180Y-62564064D01*
X107177964Y-62570486D01*
X107177960Y-62570487D01*
X107177469Y-62570599D01*
X107177009Y-62570792D01*
X107177004Y-62570794D01*
X107156193Y-62579544D01*
X107147950Y-62583009D01*
X107147539Y-62583270D01*
X107147535Y-62583272D01*
X107118588Y-62601651D01*
X107118584Y-62601654D01*
X107118206Y-62601894D01*
X107117866Y-62602191D01*
X107117863Y-62602193D01*
X107096572Y-62620775D01*
X107088086Y-62623633D01*
X107080606Y-62620233D01*
X107006864Y-62546491D01*
X107003437Y-62538218D01*
X107006920Y-62529889D01*
X107040095Y-62497158D01*
X107040197Y-62497058D01*
X107077278Y-62461359D01*
X107077350Y-62461291D01*
X107110478Y-62429931D01*
X107110497Y-62429913D01*
X107140386Y-62401749D01*
X107140468Y-62401672D01*
X107167829Y-62375562D01*
X107190637Y-62353058D01*
X107193164Y-62350565D01*
X107193219Y-62350510D01*
X107217278Y-62325442D01*
X107240645Y-62299283D01*
X107263958Y-62270960D01*
X107282616Y-62246323D01*
X107290341Y-62241796D01*
X107296000Y-62242413D01*
G37*
%TD.AperFunction*%
%TD*%
%TA.AperFunction,Conductor*%
%TO.N,D0{slash}RX*%
G36*
X100587034Y-62449608D02*
G01*
X100850004Y-62629629D01*
X100854895Y-62637130D01*
X100853049Y-62645892D01*
X100849477Y-62649277D01*
X100611271Y-62794170D01*
X100576939Y-62815053D01*
X100568090Y-62816425D01*
X100563209Y-62813909D01*
X100540537Y-62794307D01*
X100511914Y-62773179D01*
X100483079Y-62755027D01*
X100467742Y-62746651D01*
X100453453Y-62738847D01*
X100453439Y-62738840D01*
X100453326Y-62738778D01*
X100453228Y-62738730D01*
X100453211Y-62738721D01*
X100421981Y-62723375D01*
X100421966Y-62723368D01*
X100421948Y-62723359D01*
X100388237Y-62707697D01*
X100351487Y-62690719D01*
X100311125Y-62671417D01*
X100310875Y-62671294D01*
X100266192Y-62648603D01*
X100265883Y-62648440D01*
X100245169Y-62637130D01*
X100226364Y-62626862D01*
X100220746Y-62619891D01*
X100221792Y-62610827D01*
X100273180Y-62520124D01*
X100280239Y-62514615D01*
X100288359Y-62515313D01*
X100317000Y-62528853D01*
X100317004Y-62528855D01*
X100317443Y-62529062D01*
X100317912Y-62529194D01*
X100317915Y-62529195D01*
X100323985Y-62530902D01*
X100353821Y-62539293D01*
X100354354Y-62539341D01*
X100354356Y-62539341D01*
X100370052Y-62540744D01*
X100387886Y-62542339D01*
X100388432Y-62542285D01*
X100388435Y-62542285D01*
X100419348Y-62539227D01*
X100419347Y-62539227D01*
X100419854Y-62539177D01*
X100420339Y-62539042D01*
X100420343Y-62539041D01*
X100449529Y-62530902D01*
X100449530Y-62530902D01*
X100449941Y-62530787D01*
X100450329Y-62530614D01*
X100450333Y-62530613D01*
X100478057Y-62518282D01*
X100478063Y-62518279D01*
X100478364Y-62518145D01*
X100478646Y-62517979D01*
X100478653Y-62517975D01*
X100495117Y-62508261D01*
X100505340Y-62502229D01*
X100531084Y-62484018D01*
X100531205Y-62483922D01*
X100531219Y-62483912D01*
X100555751Y-62464538D01*
X100555763Y-62464528D01*
X100555814Y-62464488D01*
X100572952Y-62450260D01*
X100581505Y-62447612D01*
X100587034Y-62449608D01*
G37*
%TD.AperFunction*%
%TD*%
%TA.AperFunction,Conductor*%
%TO.N,IO11*%
G36*
X100882275Y-63373324D02*
G01*
X100886159Y-63376346D01*
X101059127Y-63582737D01*
X101090911Y-63620663D01*
X101093599Y-63629205D01*
X101091687Y-63634656D01*
X101080636Y-63651276D01*
X101065191Y-63676604D01*
X101065102Y-63676773D01*
X101065101Y-63676775D01*
X101051347Y-63702928D01*
X101051342Y-63702939D01*
X101051223Y-63703165D01*
X101039757Y-63730768D01*
X101031820Y-63759226D01*
X101031768Y-63759676D01*
X101031767Y-63759680D01*
X101028836Y-63784932D01*
X101028439Y-63788349D01*
X101030641Y-63817947D01*
X101030814Y-63818535D01*
X101030815Y-63818539D01*
X101037253Y-63840378D01*
X101039450Y-63847831D01*
X101055895Y-63877812D01*
X101056261Y-63878248D01*
X101056264Y-63878252D01*
X101074103Y-63899488D01*
X101076800Y-63908027D01*
X101073417Y-63915286D01*
X100999667Y-63989036D01*
X100991394Y-63992463D01*
X100982932Y-63988843D01*
X100950701Y-63955091D01*
X100950328Y-63954681D01*
X100916707Y-63915951D01*
X100916372Y-63915547D01*
X100888057Y-63879810D01*
X100887793Y-63879464D01*
X100882343Y-63872034D01*
X100863384Y-63846186D01*
X100863272Y-63846030D01*
X100841374Y-63814673D01*
X100820748Y-63784932D01*
X100820727Y-63784903D01*
X100800168Y-63756533D01*
X100800163Y-63756526D01*
X100800088Y-63756423D01*
X100778045Y-63728696D01*
X100753272Y-63701305D01*
X100730583Y-63679679D01*
X100726960Y-63671491D01*
X100728118Y-63666130D01*
X100735232Y-63651376D01*
X100866655Y-63378782D01*
X100873335Y-63372818D01*
X100882275Y-63373324D01*
G37*
%TD.AperFunction*%
%TD*%
%TA.AperFunction,Conductor*%
%TO.N,IO12*%
G36*
X103508194Y-68474530D02*
G01*
X103511291Y-68478358D01*
X103655300Y-68763068D01*
X103655977Y-68771997D01*
X103653148Y-68776607D01*
X103631088Y-68798747D01*
X103630897Y-68798939D01*
X103607109Y-68827363D01*
X103586302Y-68856267D01*
X103567024Y-68886034D01*
X103562082Y-68894017D01*
X103547874Y-68916964D01*
X103547824Y-68917044D01*
X103527354Y-68949516D01*
X103527152Y-68949825D01*
X103504005Y-68984097D01*
X103503681Y-68984553D01*
X103476375Y-69021090D01*
X103475965Y-69021607D01*
X103442999Y-69060888D01*
X103442551Y-69061391D01*
X103410469Y-69095347D01*
X103402297Y-69099007D01*
X103393692Y-69095585D01*
X103319949Y-69021842D01*
X103316522Y-69013569D01*
X103319225Y-69006089D01*
X103337174Y-68984500D01*
X103337564Y-68984031D01*
X103353517Y-68953667D01*
X103353688Y-68953011D01*
X103361232Y-68924040D01*
X103361232Y-68924037D01*
X103361397Y-68923405D01*
X103361599Y-68917044D01*
X103362327Y-68894017D01*
X103362327Y-68894016D01*
X103362345Y-68893446D01*
X103361126Y-68886034D01*
X103357572Y-68864440D01*
X103357498Y-68863989D01*
X103347995Y-68835235D01*
X103344315Y-68827363D01*
X103335074Y-68807601D01*
X103334974Y-68807387D01*
X103319573Y-68780644D01*
X103302932Y-68755207D01*
X103302896Y-68755155D01*
X103302876Y-68755126D01*
X103291230Y-68738481D01*
X103289294Y-68729738D01*
X103291707Y-68724431D01*
X103491742Y-68476296D01*
X103499602Y-68472006D01*
X103508194Y-68474530D01*
G37*
%TD.AperFunction*%
%TD*%
%TA.AperFunction,Conductor*%
%TO.N,Net-(J4-PadA7)*%
G36*
X104964465Y-59432501D02*
G01*
X104969980Y-59439555D01*
X104970270Y-59444471D01*
X104922307Y-59755209D01*
X104921605Y-59759754D01*
X104916956Y-59767407D01*
X104911918Y-59769517D01*
X104880516Y-59774617D01*
X104880291Y-59774672D01*
X104880284Y-59774673D01*
X104844379Y-59783381D01*
X104844365Y-59783385D01*
X104844183Y-59783429D01*
X104844004Y-59783485D01*
X104843996Y-59783487D01*
X104810047Y-59794070D01*
X104809919Y-59794110D01*
X104809793Y-59794155D01*
X104809776Y-59794161D01*
X104795571Y-59799267D01*
X104776338Y-59806179D01*
X104753374Y-59814870D01*
X104742114Y-59819131D01*
X104742018Y-59819167D01*
X104705786Y-59832515D01*
X104705501Y-59832615D01*
X104666055Y-59845824D01*
X104665596Y-59845967D01*
X104621351Y-59858641D01*
X104620791Y-59858786D01*
X104570370Y-59870452D01*
X104569821Y-59870564D01*
X104523285Y-59878740D01*
X104514545Y-59876796D01*
X104509690Y-59868943D01*
X104494293Y-59765787D01*
X104496461Y-59757099D01*
X104503108Y-59752689D01*
X104529702Y-59746241D01*
X104529705Y-59746240D01*
X104530274Y-59746102D01*
X104560850Y-59731641D01*
X104561364Y-59731239D01*
X104561367Y-59731237D01*
X104572391Y-59722613D01*
X104585159Y-59712625D01*
X104585561Y-59712137D01*
X104585564Y-59712134D01*
X104593614Y-59702360D01*
X104603917Y-59689853D01*
X104604184Y-59689359D01*
X104604187Y-59689355D01*
X104617619Y-59664531D01*
X104617620Y-59664528D01*
X104617840Y-59664122D01*
X104627644Y-59636233D01*
X104634046Y-59606982D01*
X104637762Y-59577169D01*
X104639508Y-59547593D01*
X104639851Y-59527785D01*
X104643420Y-59519573D01*
X104648418Y-59516715D01*
X104780689Y-59479981D01*
X104955577Y-59431413D01*
X104964465Y-59432501D01*
G37*
%TD.AperFunction*%
%TD*%
%TA.AperFunction,Conductor*%
%TO.N,Net-(J4-PadB5)*%
G36*
X104737559Y-58666941D02*
G01*
X104738736Y-58672089D01*
X104613738Y-58985116D01*
X104554624Y-58978020D01*
X104498465Y-58970488D01*
X104443981Y-58963814D01*
X104389892Y-58959294D01*
X104334916Y-58958221D01*
X104277774Y-58961893D01*
X104217185Y-58971602D01*
X104151869Y-58988646D01*
X104080546Y-59014317D01*
X104011794Y-59045449D01*
X104003201Y-59045619D01*
X103996982Y-59039920D01*
X103950837Y-58946838D01*
X103950233Y-58937903D01*
X103956045Y-58931391D01*
X104013595Y-58905464D01*
X104077942Y-58881288D01*
X104138050Y-58861583D01*
X104193402Y-58844332D01*
X104243478Y-58827516D01*
X104287763Y-58809119D01*
X104325736Y-58787122D01*
X104356882Y-58759510D01*
X104380681Y-58724264D01*
X104396616Y-58679367D01*
X104733494Y-58664499D01*
X104737559Y-58666941D01*
G37*
%TD.AperFunction*%
%TD*%
%TA.AperFunction,Conductor*%
%TO.N,D7*%
G36*
X108068810Y-62952896D02*
G01*
X108073961Y-62960222D01*
X108074001Y-62965146D01*
X108009454Y-63277242D01*
X108004422Y-63284649D01*
X107998879Y-63286539D01*
X107975918Y-63288275D01*
X107975844Y-63288283D01*
X107975840Y-63288283D01*
X107944326Y-63291542D01*
X107944311Y-63291544D01*
X107944166Y-63291559D01*
X107918340Y-63295682D01*
X107913043Y-63296528D01*
X107913041Y-63296528D01*
X107912793Y-63296568D01*
X107912545Y-63296629D01*
X107912542Y-63296630D01*
X107901174Y-63299445D01*
X107882182Y-63304147D01*
X107881883Y-63304259D01*
X107881875Y-63304261D01*
X107857318Y-63313421D01*
X107852716Y-63315137D01*
X107852360Y-63315331D01*
X107852354Y-63315334D01*
X107828320Y-63328448D01*
X107824775Y-63330382D01*
X107798743Y-63350724D01*
X107798408Y-63351095D01*
X107775331Y-63376640D01*
X107775328Y-63376644D01*
X107775001Y-63377006D01*
X107774738Y-63377418D01*
X107774737Y-63377420D01*
X107755771Y-63407184D01*
X107753931Y-63410071D01*
X107753748Y-63410485D01*
X107740348Y-63440752D01*
X107733866Y-63446930D01*
X107725635Y-63447006D01*
X107627737Y-63411242D01*
X107621142Y-63405184D01*
X107620807Y-63396118D01*
X107628025Y-63377006D01*
X107636706Y-63354021D01*
X107636747Y-63353916D01*
X107655360Y-63307352D01*
X107655413Y-63307221D01*
X107672516Y-63265889D01*
X107672521Y-63265877D01*
X107688002Y-63228584D01*
X107701702Y-63194245D01*
X107701705Y-63194238D01*
X107701731Y-63194172D01*
X107713601Y-63161429D01*
X107723506Y-63129139D01*
X107731341Y-63096090D01*
X107736998Y-63061068D01*
X107739620Y-63031379D01*
X107743762Y-63023440D01*
X107748719Y-63020992D01*
X107925313Y-62981486D01*
X108059989Y-62951358D01*
X108068810Y-62952896D01*
G37*
%TD.AperFunction*%
%TD*%
%TA.AperFunction,Conductor*%
%TO.N,D16{slash}MOSI*%
G36*
X109648372Y-70885312D02*
G01*
X109652052Y-70891985D01*
X109670139Y-70995966D01*
X109714284Y-71089823D01*
X109778354Y-71164116D01*
X109857990Y-71219601D01*
X109948835Y-71257037D01*
X110046532Y-71277183D01*
X110146722Y-71280796D01*
X110245047Y-71268635D01*
X110337149Y-71241458D01*
X110418672Y-71200023D01*
X110689000Y-71438327D01*
X110689000Y-71641259D01*
X110685573Y-71649532D01*
X110677113Y-71652956D01*
X110199740Y-71645268D01*
X110191524Y-71641709D01*
X110188541Y-71636255D01*
X110168495Y-71551236D01*
X110168494Y-71551234D01*
X110168239Y-71550152D01*
X110116731Y-71476690D01*
X110043332Y-71418275D01*
X109955266Y-71368449D01*
X109859948Y-71320848D01*
X109859594Y-71320664D01*
X109764641Y-71269059D01*
X109763467Y-71268328D01*
X109713221Y-71232754D01*
X109676295Y-71206610D01*
X109674492Y-71205033D01*
X109654953Y-71184032D01*
X109601935Y-71127049D01*
X109600083Y-71124404D01*
X109582041Y-71089104D01*
X109548575Y-71023624D01*
X109547483Y-71020395D01*
X109542902Y-70995197D01*
X109525824Y-70901274D01*
X109527715Y-70892521D01*
X109535242Y-70887670D01*
X109536747Y-70887496D01*
X109607909Y-70883916D01*
X109639937Y-70882305D01*
X109648372Y-70885312D01*
G37*
%TD.AperFunction*%
%TD*%
%TA.AperFunction,Conductor*%
%TO.N,D14{slash}MISO*%
G36*
X101490322Y-62723837D02*
G01*
X101791489Y-62828999D01*
X101798170Y-62834962D01*
X101799329Y-62840320D01*
X101798587Y-62871671D01*
X101800459Y-62908569D01*
X101804504Y-62943771D01*
X101810085Y-62978550D01*
X101810106Y-62978665D01*
X101816555Y-63014135D01*
X101816562Y-63014174D01*
X101823268Y-63051771D01*
X101823313Y-63052040D01*
X101829609Y-63092819D01*
X101829668Y-63093252D01*
X101834941Y-63138576D01*
X101834989Y-63139094D01*
X101837770Y-63178321D01*
X101838617Y-63190278D01*
X101838642Y-63190813D01*
X101839113Y-63211140D01*
X101839723Y-63237502D01*
X101836488Y-63245853D01*
X101828026Y-63249473D01*
X101723726Y-63249473D01*
X101715453Y-63246046D01*
X101712070Y-63238787D01*
X101711959Y-63237502D01*
X101709615Y-63210562D01*
X101703699Y-63190278D01*
X101700211Y-63178321D01*
X101700210Y-63178319D01*
X101700034Y-63177715D01*
X101685119Y-63150341D01*
X101684713Y-63149870D01*
X101684711Y-63149867D01*
X101666089Y-63128264D01*
X101665729Y-63127846D01*
X101642725Y-63109638D01*
X101642331Y-63109416D01*
X101642328Y-63109414D01*
X101617276Y-63095297D01*
X101617269Y-63095294D01*
X101616968Y-63095124D01*
X101616648Y-63094992D01*
X101616642Y-63094989D01*
X101589571Y-63083815D01*
X101589563Y-63083812D01*
X101589318Y-63083711D01*
X101589064Y-63083632D01*
X101589058Y-63083630D01*
X101574195Y-63079017D01*
X101560637Y-63074808D01*
X101531784Y-63067822D01*
X101512197Y-63063884D01*
X101504765Y-63058895D01*
X101502851Y-63053444D01*
X101502704Y-63051771D01*
X101474810Y-62735912D01*
X101477496Y-62727370D01*
X101485436Y-62723228D01*
X101490322Y-62723837D01*
G37*
%TD.AperFunction*%
%TD*%
%TA.AperFunction,Conductor*%
%TO.N,D3{slash}SCL*%
G36*
X100005561Y-66224813D02*
G01*
X100037026Y-66256090D01*
X100072400Y-66290586D01*
X100104321Y-66320741D01*
X100133701Y-66347217D01*
X100161450Y-66370675D01*
X100161548Y-66370752D01*
X100174398Y-66380785D01*
X100188480Y-66391780D01*
X100188583Y-66391853D01*
X100188601Y-66391867D01*
X100215607Y-66411125D01*
X100215621Y-66411134D01*
X100215703Y-66411193D01*
X100215792Y-66411251D01*
X100215810Y-66411263D01*
X100234265Y-66423240D01*
X100244028Y-66429576D01*
X100244111Y-66429625D01*
X100274288Y-66447546D01*
X100274307Y-66447557D01*
X100274368Y-66447593D01*
X100274468Y-66447648D01*
X100299981Y-66461694D01*
X100305575Y-66468685D01*
X100305768Y-66474442D01*
X100237688Y-66785867D01*
X100232573Y-66793217D01*
X100223759Y-66794798D01*
X100219280Y-66792759D01*
X99963403Y-66602546D01*
X99958808Y-66594860D01*
X99959376Y-66589190D01*
X99966323Y-66569908D01*
X99966326Y-66569899D01*
X99966375Y-66569763D01*
X99974785Y-66541925D01*
X99980998Y-66513815D01*
X99984355Y-66485395D01*
X99984193Y-66456631D01*
X99982856Y-66447648D01*
X99981231Y-66436739D01*
X99979853Y-66427486D01*
X99970673Y-66397926D01*
X99970475Y-66397521D01*
X99956179Y-66368292D01*
X99956175Y-66368285D01*
X99955993Y-66367913D01*
X99935151Y-66337414D01*
X99914841Y-66314638D01*
X99911892Y-66306184D01*
X99915300Y-66298579D01*
X99989041Y-66224838D01*
X99997314Y-66221411D01*
X100005561Y-66224813D01*
G37*
%TD.AperFunction*%
%TD*%
%TA.AperFunction,Conductor*%
%TO.N,D2{slash}SDA*%
G36*
X98453207Y-63794293D02*
G01*
X98494997Y-63857160D01*
X98534855Y-63915519D01*
X98574712Y-63971326D01*
X98616503Y-64026542D01*
X98662158Y-64083123D01*
X98713610Y-64143027D01*
X98772790Y-64208214D01*
X98841632Y-64280640D01*
X98914296Y-64354378D01*
X98917395Y-64362341D01*
X98913971Y-64370362D01*
X98839887Y-64444446D01*
X98831614Y-64447873D01*
X98824206Y-64445154D01*
X98766831Y-64395926D01*
X98757324Y-64390324D01*
X98713814Y-64364688D01*
X98710737Y-64362875D01*
X98710726Y-64362869D01*
X98710638Y-64362817D01*
X98710639Y-64362817D01*
X98702337Y-64357926D01*
X98700127Y-64357162D01*
X98700126Y-64357161D01*
X98696522Y-64355914D01*
X98654344Y-64341324D01*
X98654342Y-64341323D01*
X98654069Y-64341229D01*
X98654066Y-64341228D01*
X98638703Y-64335914D01*
X98623304Y-64333910D01*
X98623301Y-64333910D01*
X98609241Y-64332080D01*
X98609235Y-64332080D01*
X98608792Y-64332022D01*
X98608790Y-64332022D01*
X98575849Y-64327736D01*
X98513697Y-64331241D01*
X98452167Y-64344276D01*
X98391181Y-64364688D01*
X98330659Y-64390324D01*
X98270521Y-64419032D01*
X98210690Y-64448659D01*
X97991000Y-64204068D01*
X97991000Y-63857376D01*
X98407554Y-63724959D01*
X98453207Y-63794293D01*
G37*
%TD.AperFunction*%
%TD*%
%TA.AperFunction,Conductor*%
%TO.N,D4*%
G36*
X102078913Y-68363728D02*
G01*
X102083078Y-68371655D01*
X102082484Y-68376541D01*
X102037742Y-68505923D01*
X101978220Y-68678041D01*
X101972278Y-68684740D01*
X101966943Y-68685915D01*
X101952577Y-68685644D01*
X101935586Y-68685323D01*
X101935577Y-68685323D01*
X101935355Y-68685319D01*
X101935138Y-68685332D01*
X101935127Y-68685332D01*
X101898470Y-68687494D01*
X101898466Y-68687494D01*
X101898269Y-68687506D01*
X101898072Y-68687531D01*
X101898059Y-68687532D01*
X101870809Y-68690964D01*
X101862902Y-68691960D01*
X101827971Y-68698007D01*
X101810817Y-68701348D01*
X101792244Y-68704964D01*
X101792195Y-68704974D01*
X101754390Y-68712166D01*
X101754141Y-68712210D01*
X101713207Y-68718930D01*
X101712767Y-68718994D01*
X101693850Y-68721328D01*
X101667237Y-68724613D01*
X101666680Y-68724668D01*
X101615268Y-68728527D01*
X101614678Y-68728556D01*
X101567723Y-68729706D01*
X101559369Y-68726483D01*
X101555737Y-68718010D01*
X101555737Y-68613722D01*
X101559164Y-68605449D01*
X101566418Y-68602066D01*
X101594456Y-68599614D01*
X101594457Y-68599614D01*
X101595026Y-68599564D01*
X101595573Y-68599404D01*
X101595576Y-68599403D01*
X101627564Y-68590018D01*
X101627567Y-68590017D01*
X101628166Y-68589841D01*
X101628717Y-68589539D01*
X101628719Y-68589538D01*
X101655205Y-68575012D01*
X101655209Y-68575009D01*
X101655760Y-68574707D01*
X101678410Y-68555038D01*
X101696717Y-68531710D01*
X101711284Y-68505600D01*
X101722714Y-68477584D01*
X101731609Y-68448538D01*
X101738570Y-68419337D01*
X101742504Y-68399445D01*
X101747471Y-68391994D01*
X101752918Y-68390064D01*
X102070363Y-68361068D01*
X102078913Y-68363728D01*
G37*
%TD.AperFunction*%
%TD*%
%TA.AperFunction,Conductor*%
%TO.N,IO10*%
G36*
X110689000Y-72706321D02*
G01*
X110689000Y-73038441D01*
X110303328Y-73206992D01*
X110250027Y-73143285D01*
X110200416Y-73086598D01*
X110152787Y-73034698D01*
X110105435Y-72985352D01*
X110056652Y-72936327D01*
X110004734Y-72885391D01*
X109947973Y-72830311D01*
X109884663Y-72768853D01*
X109813099Y-72698786D01*
X109739708Y-72625949D01*
X109736392Y-72617865D01*
X109739819Y-72609632D01*
X109813831Y-72535620D01*
X109822104Y-72532193D01*
X109829515Y-72534870D01*
X109885333Y-72581488D01*
X109948686Y-72614951D01*
X109949350Y-72615121D01*
X109949353Y-72615122D01*
X109991719Y-72625960D01*
X110011353Y-72630983D01*
X110073251Y-72632102D01*
X110134297Y-72620827D01*
X110194407Y-72599679D01*
X110253498Y-72571177D01*
X110311487Y-72537839D01*
X110368292Y-72502186D01*
X110423828Y-72466737D01*
X110689000Y-72706321D01*
G37*
%TD.AperFunction*%
%TD*%
%TA.AperFunction,Conductor*%
%TO.N,A5*%
G36*
X103772619Y-67106655D02*
G01*
X103777422Y-67114212D01*
X103777233Y-67119133D01*
X103698148Y-67428181D01*
X103692777Y-67435346D01*
X103687542Y-67436957D01*
X103667590Y-67438201D01*
X103657850Y-67438808D01*
X103657848Y-67438808D01*
X103657627Y-67438822D01*
X103657420Y-67438851D01*
X103657414Y-67438852D01*
X103622611Y-67443797D01*
X103622603Y-67443798D01*
X103622409Y-67443826D01*
X103622201Y-67443871D01*
X103622203Y-67443871D01*
X103589299Y-67451049D01*
X103589292Y-67451051D01*
X103589112Y-67451090D01*
X103588936Y-67451140D01*
X103588926Y-67451142D01*
X103556609Y-67460230D01*
X103556585Y-67460237D01*
X103556465Y-67460271D01*
X103556341Y-67460311D01*
X103556328Y-67460315D01*
X103523297Y-67470989D01*
X103523195Y-67471022D01*
X103501307Y-67478477D01*
X103488083Y-67482980D01*
X103488031Y-67482998D01*
X103449815Y-67495813D01*
X103449590Y-67495886D01*
X103407108Y-67509183D01*
X103406773Y-67509283D01*
X103358622Y-67522765D01*
X103358268Y-67522857D01*
X103314577Y-67533426D01*
X103305731Y-67532040D01*
X103300407Y-67524597D01*
X103300022Y-67522864D01*
X103282423Y-67443826D01*
X103277746Y-67422820D01*
X103279293Y-67414000D01*
X103285735Y-67409091D01*
X103314945Y-67400131D01*
X103314949Y-67400129D01*
X103315449Y-67399976D01*
X103348063Y-67383155D01*
X103348515Y-67382795D01*
X103373618Y-67362796D01*
X103373621Y-67362793D01*
X103374073Y-67362433D01*
X103394311Y-67338441D01*
X103409613Y-67311812D01*
X103414234Y-67299999D01*
X103420690Y-67283495D01*
X103420693Y-67283486D01*
X103420813Y-67283179D01*
X103428745Y-67253174D01*
X103434244Y-67222429D01*
X103438144Y-67191577D01*
X103440370Y-67170046D01*
X103444630Y-67162169D01*
X103449988Y-67159725D01*
X103752770Y-67106655D01*
X103763878Y-67104708D01*
X103772619Y-67106655D01*
G37*
%TD.AperFunction*%
%TD*%
%TA.AperFunction,Conductor*%
%TO.N,Net-(F1-Pad1)*%
G36*
X102080712Y-57179074D02*
G01*
X102097272Y-57188144D01*
X102097279Y-57188147D01*
X102097576Y-57188310D01*
X102123580Y-57198757D01*
X102123876Y-57198841D01*
X102123879Y-57198842D01*
X102143508Y-57204409D01*
X102151773Y-57206753D01*
X102152020Y-57206800D01*
X102152019Y-57206800D01*
X102182297Y-57212588D01*
X102182306Y-57212589D01*
X102182487Y-57212624D01*
X102216054Y-57216696D01*
X102252806Y-57219295D01*
X102252911Y-57219299D01*
X102252915Y-57219299D01*
X102258582Y-57219504D01*
X102293073Y-57220749D01*
X102337187Y-57221384D01*
X102385480Y-57221525D01*
X102385481Y-57221525D01*
X102426579Y-57221506D01*
X102434853Y-57224929D01*
X102438284Y-57233206D01*
X102438284Y-57459911D01*
X102434857Y-57468184D01*
X102426696Y-57471610D01*
X102408955Y-57471777D01*
X102393002Y-57471928D01*
X102392977Y-57471929D01*
X102392932Y-57471929D01*
X102392878Y-57471931D01*
X102392871Y-57471931D01*
X102363197Y-57472942D01*
X102351040Y-57473356D01*
X102350978Y-57473360D01*
X102350962Y-57473361D01*
X102312688Y-57475974D01*
X102312675Y-57475975D01*
X102312546Y-57475984D01*
X102277387Y-57480020D01*
X102277246Y-57480045D01*
X102277232Y-57480047D01*
X102245718Y-57485632D01*
X102245504Y-57485670D01*
X102245291Y-57485725D01*
X102245284Y-57485727D01*
X102217121Y-57493063D01*
X102217112Y-57493066D01*
X102216835Y-57493138D01*
X102216564Y-57493239D01*
X102191651Y-57502507D01*
X102191644Y-57502510D01*
X102191319Y-57502631D01*
X102168895Y-57514353D01*
X102149501Y-57528511D01*
X102138734Y-57539524D01*
X102130502Y-57543044D01*
X102125667Y-57542058D01*
X101833181Y-57413663D01*
X101826984Y-57407201D01*
X101827172Y-57398248D01*
X101830056Y-57394257D01*
X102067263Y-57180642D01*
X102075703Y-57177652D01*
X102080712Y-57179074D01*
G37*
%TD.AperFunction*%
%TD*%
%TA.AperFunction,Conductor*%
%TO.N,Net-(F1-Pad1)*%
G36*
X106334861Y-57247264D02*
G01*
X106335129Y-57247272D01*
X106385262Y-57249215D01*
X106385431Y-57249222D01*
X106400398Y-57250087D01*
X106430662Y-57251836D01*
X106430772Y-57251843D01*
X106471794Y-57254600D01*
X106509465Y-57256986D01*
X106530476Y-57257877D01*
X106544392Y-57258467D01*
X106544403Y-57258467D01*
X106544539Y-57258473D01*
X106559045Y-57258503D01*
X106577667Y-57258541D01*
X106577838Y-57258541D01*
X106578006Y-57258531D01*
X106578016Y-57258531D01*
X106609942Y-57256683D01*
X106609943Y-57256683D01*
X106610183Y-57256669D01*
X106610397Y-57256640D01*
X106610410Y-57256639D01*
X106642151Y-57252368D01*
X106642155Y-57252367D01*
X106642395Y-57252335D01*
X106667030Y-57246857D01*
X106675849Y-57248406D01*
X106679624Y-57252297D01*
X106851954Y-57542098D01*
X106723551Y-57556597D01*
X106721538Y-57556824D01*
X106721537Y-57556824D01*
X106516841Y-57579939D01*
X106508235Y-57577462D01*
X106504936Y-57573283D01*
X106499728Y-57562186D01*
X106498537Y-57559647D01*
X106491304Y-57547789D01*
X106486309Y-57539600D01*
X106486308Y-57539598D01*
X106486124Y-57539297D01*
X106471095Y-57520148D01*
X106470853Y-57519908D01*
X106470849Y-57519904D01*
X106463187Y-57512321D01*
X106453285Y-57502520D01*
X106448268Y-57498704D01*
X106432833Y-57486962D01*
X106432828Y-57486958D01*
X106432526Y-57486729D01*
X106425884Y-57482936D01*
X106408977Y-57473280D01*
X106408971Y-57473277D01*
X106408654Y-57473096D01*
X106381503Y-57461938D01*
X106350906Y-57453573D01*
X106316697Y-57448321D01*
X106316411Y-57448307D01*
X106316408Y-57448307D01*
X106289852Y-57447034D01*
X106281752Y-57443214D01*
X106278712Y-57435347D01*
X106278712Y-57258360D01*
X106282139Y-57250087D01*
X106290570Y-57246661D01*
X106334861Y-57247264D01*
G37*
%TD.AperFunction*%
%TD*%
%TA.AperFunction,Conductor*%
%TO.N,D15{slash}SCK*%
G36*
X110689000Y-68910198D02*
G01*
X110689000Y-69235684D01*
X110335116Y-69432217D01*
X110282496Y-69378624D01*
X110232520Y-69328273D01*
X110183175Y-69281730D01*
X110132452Y-69239559D01*
X110078338Y-69202326D01*
X110018821Y-69170595D01*
X109951890Y-69144932D01*
X109875534Y-69125902D01*
X109787741Y-69114069D01*
X109697230Y-69110431D01*
X109689495Y-69106729D01*
X109686500Y-69098912D01*
X109686500Y-68994114D01*
X109689927Y-68985841D01*
X109697202Y-68982605D01*
X109792568Y-68979090D01*
X109884391Y-68967771D01*
X109964291Y-68949652D01*
X110034592Y-68925347D01*
X110097617Y-68895468D01*
X110155689Y-68860626D01*
X110211131Y-68821434D01*
X110266265Y-68778502D01*
X110323416Y-68732444D01*
X110384906Y-68683872D01*
X110689000Y-68910198D01*
G37*
%TD.AperFunction*%
%TD*%
%TA.AperFunction,Conductor*%
%TO.N,D15{slash}SCK*%
G36*
X103280751Y-63843563D02*
G01*
X103581291Y-63950064D01*
X103587944Y-63956057D01*
X103589071Y-63961612D01*
X103587970Y-63986333D01*
X103587963Y-63986499D01*
X103588357Y-64018582D01*
X103591142Y-64049628D01*
X103596817Y-64080058D01*
X103605886Y-64110293D01*
X103618849Y-64140754D01*
X103636209Y-64171863D01*
X103636367Y-64172092D01*
X103636368Y-64172093D01*
X103653648Y-64197075D01*
X103658466Y-64204041D01*
X103686124Y-64237710D01*
X103695768Y-64247935D01*
X103711887Y-64265025D01*
X103715070Y-64273395D01*
X103711648Y-64281326D01*
X103637977Y-64354997D01*
X103629704Y-64358424D01*
X103621612Y-64355175D01*
X103621426Y-64354997D01*
X103590908Y-64325773D01*
X103590799Y-64325679D01*
X103590786Y-64325667D01*
X103554933Y-64294700D01*
X103554800Y-64294585D01*
X103520918Y-64268829D01*
X103515075Y-64265025D01*
X103488824Y-64247935D01*
X103488814Y-64247929D01*
X103488625Y-64247806D01*
X103457282Y-64230818D01*
X103426252Y-64217166D01*
X103394895Y-64206151D01*
X103362574Y-64197075D01*
X103328652Y-64189238D01*
X103313949Y-64186272D01*
X103301101Y-64183680D01*
X103293669Y-64178685D01*
X103291756Y-64173186D01*
X103291646Y-64171863D01*
X103265183Y-63855566D01*
X103267908Y-63847036D01*
X103275867Y-63842932D01*
X103280751Y-63843563D01*
G37*
%TD.AperFunction*%
%TD*%
%TA.AperFunction,Conductor*%
%TO.N,A5*%
G36*
X99561540Y-70398534D02*
G01*
X99582266Y-70440058D01*
X99587434Y-70450413D01*
X99587594Y-70450666D01*
X99587599Y-70450674D01*
X99620372Y-70502337D01*
X99620557Y-70502628D01*
X99620771Y-70502891D01*
X99620776Y-70502898D01*
X99637775Y-70523795D01*
X99655830Y-70545991D01*
X99656110Y-70546256D01*
X99656111Y-70546257D01*
X99682607Y-70571329D01*
X99693166Y-70581321D01*
X99732477Y-70609437D01*
X99773679Y-70631160D01*
X99816684Y-70647307D01*
X99816997Y-70647387D01*
X99817001Y-70647388D01*
X99861162Y-70658636D01*
X99861165Y-70658637D01*
X99861406Y-70658698D01*
X99907758Y-70666153D01*
X99907951Y-70666170D01*
X99907955Y-70666171D01*
X99947083Y-70669715D01*
X99955014Y-70673874D01*
X99957466Y-70678905D01*
X100024575Y-70990675D01*
X100022966Y-70999484D01*
X100015599Y-71004575D01*
X100010675Y-71004575D01*
X99808695Y-70961099D01*
X99698560Y-70937392D01*
X99691193Y-70932301D01*
X99689421Y-70927470D01*
X99683778Y-70884292D01*
X99683777Y-70884289D01*
X99683723Y-70883873D01*
X99670862Y-70837743D01*
X99652675Y-70795330D01*
X99629925Y-70754700D01*
X99603378Y-70713918D01*
X99573800Y-70671052D01*
X99542048Y-70624304D01*
X99541835Y-70623977D01*
X99508778Y-70571598D01*
X99508469Y-70571080D01*
X99474701Y-70510916D01*
X99474367Y-70510276D01*
X99445723Y-70450936D01*
X99445213Y-70441996D01*
X99451512Y-70435157D01*
X99546326Y-70393065D01*
X99555277Y-70392841D01*
X99561540Y-70398534D01*
G37*
%TD.AperFunction*%
%TD*%
%TA.AperFunction,Conductor*%
%TO.N,Net-(C5-Pad2)*%
G36*
X103249619Y-70986656D02*
G01*
X103323345Y-71060383D01*
X103326771Y-71068654D01*
X103323578Y-71076686D01*
X103298990Y-71102730D01*
X103297748Y-71104045D01*
X103270141Y-71137523D01*
X103247921Y-71169334D01*
X103230448Y-71199957D01*
X103217084Y-71229874D01*
X103207188Y-71259563D01*
X103200122Y-71289506D01*
X103195246Y-71320182D01*
X103191922Y-71352071D01*
X103191916Y-71352161D01*
X103191915Y-71352167D01*
X103190138Y-71376902D01*
X103186127Y-71384909D01*
X103180931Y-71387501D01*
X102995887Y-71427333D01*
X102869325Y-71454575D01*
X102860516Y-71452966D01*
X102855425Y-71445599D01*
X102855425Y-71440675D01*
X102920638Y-71137712D01*
X102922499Y-71129069D01*
X102927589Y-71121703D01*
X102933097Y-71119862D01*
X102938308Y-71119487D01*
X102957928Y-71118077D01*
X102964916Y-71117349D01*
X102989675Y-71114768D01*
X102989682Y-71114767D01*
X102989817Y-71114753D01*
X102989948Y-71114732D01*
X102989957Y-71114731D01*
X103000252Y-71113094D01*
X103020493Y-71109877D01*
X103050436Y-71102811D01*
X103050673Y-71102732D01*
X103050680Y-71102730D01*
X103080125Y-71092915D01*
X103110042Y-71079550D01*
X103115062Y-71076686D01*
X103129548Y-71068420D01*
X103140665Y-71062077D01*
X103172476Y-71039857D01*
X103205954Y-71012250D01*
X103206074Y-71012136D01*
X103206085Y-71012127D01*
X103233314Y-70986421D01*
X103241683Y-70983234D01*
X103249619Y-70986656D01*
G37*
%TD.AperFunction*%
%TD*%
%TA.AperFunction,Conductor*%
%TO.N,D7*%
G36*
X98481784Y-70234400D02*
G01*
X98507767Y-70307492D01*
X98531395Y-70376862D01*
X98555228Y-70443955D01*
X98581823Y-70510214D01*
X98613740Y-70577082D01*
X98653535Y-70646003D01*
X98703769Y-70718421D01*
X98766998Y-70795778D01*
X98838418Y-70871692D01*
X98841300Y-70879688D01*
X98837886Y-70887415D01*
X98763777Y-70961524D01*
X98755504Y-70964951D01*
X98748056Y-70962121D01*
X98688788Y-70908274D01*
X98623922Y-70861303D01*
X98560848Y-70827070D01*
X98499033Y-70804233D01*
X98437944Y-70791454D01*
X98377047Y-70787390D01*
X98315810Y-70790704D01*
X98253699Y-70800055D01*
X98190181Y-70814102D01*
X98124723Y-70831507D01*
X97991000Y-70612169D01*
X97991000Y-70213217D01*
X98450890Y-70156145D01*
X98481784Y-70234400D01*
G37*
%TD.AperFunction*%
%TD*%
%TA.AperFunction,Conductor*%
%TO.N,D7*%
G36*
X102746347Y-67973239D02*
G01*
X102749829Y-67976721D01*
X102922739Y-68244487D01*
X102924348Y-68253296D01*
X102921755Y-68258493D01*
X102905459Y-68277312D01*
X102885260Y-68302213D01*
X102867017Y-68327352D01*
X102850840Y-68353521D01*
X102836844Y-68381512D01*
X102825140Y-68412116D01*
X102815841Y-68446126D01*
X102809060Y-68484332D01*
X102804908Y-68527526D01*
X102804903Y-68527717D01*
X102804902Y-68527725D01*
X102803827Y-68565136D01*
X102800164Y-68573307D01*
X102792132Y-68576500D01*
X102687868Y-68576500D01*
X102679595Y-68573073D01*
X102676173Y-68565136D01*
X102675097Y-68527725D01*
X102675096Y-68527717D01*
X102675091Y-68527526D01*
X102670939Y-68484332D01*
X102664158Y-68446126D01*
X102654859Y-68412116D01*
X102643155Y-68381512D01*
X102629159Y-68353521D01*
X102612982Y-68327352D01*
X102594739Y-68302213D01*
X102574540Y-68277312D01*
X102558244Y-68258492D01*
X102555419Y-68249996D01*
X102557260Y-68244487D01*
X102730171Y-67976721D01*
X102737538Y-67971630D01*
X102746347Y-67973239D01*
G37*
%TD.AperFunction*%
%TD*%
%TA.AperFunction,Conductor*%
%TO.N,IO12*%
G36*
X104694479Y-73178247D02*
G01*
X104696318Y-73178630D01*
X104740480Y-73191598D01*
X104834328Y-73219155D01*
X104836033Y-73219805D01*
X104929564Y-73264157D01*
X104952763Y-73275158D01*
X104954100Y-73275903D01*
X105055178Y-73341215D01*
X105055991Y-73341791D01*
X105146952Y-73412221D01*
X105147197Y-73412416D01*
X105233341Y-73482886D01*
X105233444Y-73482964D01*
X105233447Y-73482966D01*
X105254592Y-73498908D01*
X105319836Y-73548098D01*
X105320098Y-73548254D01*
X105320106Y-73548259D01*
X105385397Y-73587047D01*
X105412007Y-73602856D01*
X105412480Y-73603036D01*
X105412483Y-73603037D01*
X105514719Y-73641846D01*
X105515299Y-73642066D01*
X105515909Y-73642161D01*
X105515911Y-73642161D01*
X105626894Y-73659354D01*
X105634545Y-73664007D01*
X105636622Y-73668867D01*
X105639313Y-73683995D01*
X105719642Y-74135619D01*
X105721355Y-74145251D01*
X105719430Y-74153997D01*
X105711885Y-74158819D01*
X105709836Y-74159000D01*
X105218073Y-74159000D01*
X105111648Y-74119440D01*
X105116116Y-74008409D01*
X105110714Y-73895452D01*
X105093858Y-73783583D01*
X105063967Y-73675817D01*
X105019456Y-73575172D01*
X104958744Y-73484660D01*
X104880249Y-73407299D01*
X104856100Y-73392198D01*
X104812932Y-73349105D01*
X104812929Y-73349103D01*
X104812247Y-73348422D01*
X104798682Y-73341791D01*
X104700156Y-73293630D01*
X104700154Y-73293629D01*
X104699339Y-73293231D01*
X104625781Y-73282500D01*
X104534623Y-73282500D01*
X104526350Y-73279073D01*
X104522938Y-73270211D01*
X104527986Y-73170023D01*
X104531825Y-73161933D01*
X104541128Y-73159003D01*
X104694479Y-73178247D01*
G37*
%TD.AperFunction*%
%TD*%
%TA.AperFunction,Conductor*%
%TO.N,D-*%
G36*
X104846686Y-61202922D02*
G01*
X104873914Y-61228628D01*
X104873925Y-61228637D01*
X104874045Y-61228751D01*
X104907523Y-61256358D01*
X104939334Y-61278578D01*
X104969957Y-61296051D01*
X104999874Y-61309415D01*
X105000134Y-61309502D01*
X105000140Y-61309504D01*
X105029319Y-61319230D01*
X105029326Y-61319232D01*
X105029563Y-61319311D01*
X105059506Y-61326377D01*
X105079747Y-61329594D01*
X105090042Y-61331231D01*
X105090051Y-61331232D01*
X105090182Y-61331253D01*
X105090317Y-61331267D01*
X105090324Y-61331268D01*
X105115083Y-61333849D01*
X105122071Y-61334577D01*
X105142431Y-61336040D01*
X105146903Y-61336362D01*
X105154909Y-61340373D01*
X105157501Y-61345569D01*
X105159362Y-61354212D01*
X105224575Y-61657175D01*
X105222966Y-61665984D01*
X105215599Y-61671075D01*
X105210675Y-61671075D01*
X105084113Y-61643833D01*
X104899069Y-61604001D01*
X104891703Y-61598911D01*
X104889862Y-61593403D01*
X104888084Y-61568674D01*
X104888077Y-61568571D01*
X104884753Y-61536682D01*
X104879877Y-61506006D01*
X104872811Y-61476063D01*
X104862915Y-61446374D01*
X104849551Y-61416457D01*
X104832078Y-61385834D01*
X104809858Y-61354023D01*
X104787060Y-61326377D01*
X104782365Y-61320683D01*
X104782362Y-61320679D01*
X104782251Y-61320545D01*
X104782137Y-61320425D01*
X104782128Y-61320414D01*
X104756422Y-61293186D01*
X104753235Y-61284818D01*
X104756657Y-61276881D01*
X104830381Y-61203157D01*
X104838654Y-61199730D01*
X104846686Y-61202922D01*
G37*
%TD.AperFunction*%
%TD*%
%TA.AperFunction,Conductor*%
%TO.N,D-*%
G36*
X104095887Y-60412667D02*
G01*
X104280931Y-60452499D01*
X104288297Y-60457589D01*
X104290138Y-60463098D01*
X104291922Y-60487928D01*
X104295246Y-60519817D01*
X104300122Y-60550493D01*
X104307188Y-60580436D01*
X104317084Y-60610125D01*
X104330448Y-60640042D01*
X104347921Y-60670665D01*
X104370141Y-60702476D01*
X104370287Y-60702653D01*
X104392982Y-60730174D01*
X104397748Y-60735954D01*
X104397862Y-60736074D01*
X104397871Y-60736085D01*
X104423578Y-60763314D01*
X104426765Y-60771682D01*
X104423343Y-60779619D01*
X104349619Y-60853343D01*
X104341346Y-60856770D01*
X104333314Y-60853578D01*
X104306085Y-60827871D01*
X104306074Y-60827862D01*
X104305954Y-60827748D01*
X104272476Y-60800141D01*
X104240665Y-60777921D01*
X104210042Y-60760448D01*
X104180125Y-60747084D01*
X104179865Y-60746997D01*
X104179859Y-60746995D01*
X104150680Y-60737269D01*
X104150673Y-60737267D01*
X104150436Y-60737188D01*
X104120493Y-60730122D01*
X104100252Y-60726905D01*
X104089957Y-60725268D01*
X104089948Y-60725267D01*
X104089817Y-60725246D01*
X104089682Y-60725232D01*
X104089675Y-60725231D01*
X104064916Y-60722650D01*
X104057928Y-60721922D01*
X104057839Y-60721916D01*
X104057821Y-60721914D01*
X104038192Y-60720504D01*
X104033098Y-60720138D01*
X104025091Y-60716127D01*
X104022498Y-60710930D01*
X104020717Y-60702653D01*
X103955425Y-60399325D01*
X103957034Y-60390516D01*
X103964401Y-60385425D01*
X103969325Y-60385425D01*
X104095887Y-60412667D01*
G37*
%TD.AperFunction*%
%TD*%
%TA.AperFunction,Conductor*%
%TO.N,Net-(J4-PadA7)*%
G36*
X103569484Y-58503534D02*
G01*
X103574575Y-58510901D01*
X103574575Y-58515825D01*
X103509284Y-58819153D01*
X103507502Y-58827430D01*
X103502411Y-58834797D01*
X103496902Y-58836638D01*
X103484704Y-58837514D01*
X103472167Y-58838415D01*
X103472161Y-58838416D01*
X103472071Y-58838422D01*
X103461545Y-58839519D01*
X103440324Y-58841731D01*
X103440317Y-58841732D01*
X103440182Y-58841746D01*
X103440051Y-58841767D01*
X103440042Y-58841768D01*
X103429747Y-58843405D01*
X103409506Y-58846622D01*
X103379563Y-58853688D01*
X103379326Y-58853767D01*
X103379319Y-58853769D01*
X103350140Y-58863495D01*
X103350134Y-58863497D01*
X103349874Y-58863584D01*
X103319957Y-58876948D01*
X103289334Y-58894421D01*
X103257523Y-58916641D01*
X103224045Y-58944248D01*
X103223904Y-58944381D01*
X103223903Y-58944382D01*
X103196686Y-58970078D01*
X103188318Y-58973266D01*
X103180383Y-58969845D01*
X103106656Y-58896119D01*
X103103229Y-58887846D01*
X103106421Y-58879814D01*
X103132127Y-58852585D01*
X103132136Y-58852574D01*
X103132250Y-58852454D01*
X103137017Y-58846674D01*
X103159711Y-58819153D01*
X103159857Y-58818976D01*
X103182077Y-58787165D01*
X103199550Y-58756542D01*
X103212915Y-58726625D01*
X103222811Y-58696936D01*
X103229877Y-58666993D01*
X103234753Y-58636317D01*
X103238077Y-58604428D01*
X103239862Y-58579597D01*
X103243873Y-58571591D01*
X103249069Y-58568999D01*
X103434113Y-58529167D01*
X103560675Y-58501925D01*
X103569484Y-58503534D01*
G37*
%TD.AperFunction*%
%TD*%
%TA.AperFunction,Conductor*%
%TO.N,D5*%
G36*
X98356583Y-67462444D02*
G01*
X98413734Y-67508502D01*
X98468868Y-67551434D01*
X98524310Y-67590626D01*
X98582382Y-67625468D01*
X98645407Y-67655347D01*
X98715708Y-67679652D01*
X98795608Y-67697771D01*
X98887431Y-67709090D01*
X98982770Y-67712604D01*
X98990487Y-67716276D01*
X98993500Y-67724114D01*
X98993500Y-67828912D01*
X98990073Y-67837185D01*
X98982798Y-67840430D01*
X98892258Y-67844069D01*
X98804465Y-67855902D01*
X98728109Y-67874932D01*
X98661178Y-67900595D01*
X98601661Y-67932326D01*
X98547547Y-67969559D01*
X98496824Y-68011730D01*
X98447479Y-68058273D01*
X98397503Y-68108624D01*
X98344884Y-68162217D01*
X97991000Y-67965684D01*
X97991000Y-67640198D01*
X98295094Y-67413872D01*
X98356583Y-67462444D01*
G37*
%TD.AperFunction*%
%TD*%
%TA.AperFunction,Conductor*%
%TO.N,D5*%
G36*
X105796686Y-68102922D02*
G01*
X105823914Y-68128628D01*
X105823925Y-68128637D01*
X105824045Y-68128751D01*
X105857523Y-68156358D01*
X105889334Y-68178578D01*
X105919957Y-68196051D01*
X105949874Y-68209415D01*
X105950134Y-68209502D01*
X105950140Y-68209504D01*
X105979319Y-68219230D01*
X105979326Y-68219232D01*
X105979563Y-68219311D01*
X106009506Y-68226377D01*
X106029747Y-68229594D01*
X106040042Y-68231231D01*
X106040051Y-68231232D01*
X106040182Y-68231253D01*
X106040317Y-68231267D01*
X106040324Y-68231268D01*
X106065083Y-68233849D01*
X106072071Y-68234577D01*
X106092431Y-68236040D01*
X106096903Y-68236362D01*
X106104909Y-68240373D01*
X106107501Y-68245569D01*
X106109362Y-68254212D01*
X106174575Y-68557175D01*
X106172966Y-68565984D01*
X106165599Y-68571075D01*
X106160675Y-68571075D01*
X106034113Y-68543833D01*
X105849069Y-68504001D01*
X105841703Y-68498911D01*
X105839862Y-68493403D01*
X105838084Y-68468674D01*
X105838077Y-68468571D01*
X105834753Y-68436682D01*
X105829877Y-68406006D01*
X105822811Y-68376063D01*
X105812915Y-68346374D01*
X105799551Y-68316457D01*
X105782078Y-68285834D01*
X105759858Y-68254023D01*
X105737060Y-68226377D01*
X105732365Y-68220683D01*
X105732362Y-68220679D01*
X105732251Y-68220545D01*
X105732137Y-68220425D01*
X105732128Y-68220414D01*
X105706422Y-68193186D01*
X105703235Y-68184818D01*
X105706657Y-68176881D01*
X105780381Y-68103157D01*
X105788654Y-68099730D01*
X105796686Y-68102922D01*
G37*
%TD.AperFunction*%
%TD*%
%TA.AperFunction,Conductor*%
%TO.N,IO11*%
G36*
X107047129Y-73166521D02*
G01*
X107050354Y-73173802D01*
X107053684Y-73274380D01*
X107064283Y-73370657D01*
X107081112Y-73454547D01*
X107103489Y-73528673D01*
X107130730Y-73595656D01*
X107162151Y-73658119D01*
X107197070Y-73718684D01*
X107234803Y-73779973D01*
X107274668Y-73844609D01*
X107315980Y-73915213D01*
X107072623Y-74159000D01*
X106734590Y-74159000D01*
X106582635Y-73758038D01*
X106639942Y-73715287D01*
X106693533Y-73673210D01*
X106742861Y-73630157D01*
X106787381Y-73584483D01*
X106826548Y-73534538D01*
X106859816Y-73478675D01*
X106886641Y-73415247D01*
X106906477Y-73342606D01*
X106918778Y-73259104D01*
X106922528Y-73173824D01*
X106926264Y-73166068D01*
X106934059Y-73163094D01*
X107038856Y-73163094D01*
X107047129Y-73166521D01*
G37*
%TD.AperFunction*%
%TD*%
%TA.AperFunction,Conductor*%
%TO.N,Net-(C6-Pad2)*%
G36*
X105819484Y-72387034D02*
G01*
X105824575Y-72394401D01*
X105824575Y-72399325D01*
X105757458Y-72711133D01*
X105752367Y-72718500D01*
X105747126Y-72720319D01*
X105717663Y-72723117D01*
X105717649Y-72723119D01*
X105717479Y-72723135D01*
X105682472Y-72728948D01*
X105649442Y-72736908D01*
X105617201Y-72746975D01*
X105584558Y-72759107D01*
X105584469Y-72759144D01*
X105550325Y-72773265D01*
X105513311Y-72789407D01*
X105472399Y-72807463D01*
X105472326Y-72807495D01*
X105426234Y-72827464D01*
X105426080Y-72827529D01*
X105384584Y-72844807D01*
X105375630Y-72844824D01*
X105369247Y-72838409D01*
X105349342Y-72789407D01*
X105330026Y-72741856D01*
X105330088Y-72732903D01*
X105335787Y-72726915D01*
X105366623Y-72712058D01*
X105366973Y-72711823D01*
X105399349Y-72690066D01*
X105399351Y-72690064D01*
X105399734Y-72689807D01*
X105426060Y-72665237D01*
X105446436Y-72638658D01*
X105461697Y-72610381D01*
X105472678Y-72580714D01*
X105480212Y-72549967D01*
X105485136Y-72518450D01*
X105488284Y-72486473D01*
X105489888Y-72463128D01*
X105493873Y-72455109D01*
X105499097Y-72452493D01*
X105678094Y-72413963D01*
X105810675Y-72385425D01*
X105819484Y-72387034D01*
G37*
%TD.AperFunction*%
%TD*%
%TA.AperFunction,Conductor*%
%TO.N,Net-(C6-Pad2)*%
G36*
X104546347Y-67873239D02*
G01*
X104549829Y-67876721D01*
X104722911Y-68144752D01*
X104724520Y-68153561D01*
X104722189Y-68158443D01*
X104701000Y-68184714D01*
X104679514Y-68217201D01*
X104661923Y-68250137D01*
X104647108Y-68284340D01*
X104647050Y-68284500D01*
X104647046Y-68284510D01*
X104637144Y-68311819D01*
X104633950Y-68320628D01*
X104621329Y-68359820D01*
X104608128Y-68402732D01*
X104593249Y-68450111D01*
X104593192Y-68450285D01*
X104575561Y-68502830D01*
X104575452Y-68503141D01*
X104557944Y-68550824D01*
X104551876Y-68557409D01*
X104542758Y-68557710D01*
X104445670Y-68520336D01*
X104439180Y-68514166D01*
X104438742Y-68505813D01*
X104451431Y-68466628D01*
X104451431Y-68466627D01*
X104451543Y-68466282D01*
X104460387Y-68420418D01*
X104462581Y-68378320D01*
X104460801Y-68359820D01*
X104458890Y-68339974D01*
X104458849Y-68339544D01*
X104454166Y-68320728D01*
X104450011Y-68304038D01*
X104450010Y-68304036D01*
X104449914Y-68303649D01*
X104436499Y-68270190D01*
X104419327Y-68238725D01*
X104419181Y-68238508D01*
X104419175Y-68238499D01*
X104399229Y-68208969D01*
X104399221Y-68208958D01*
X104399121Y-68208810D01*
X104398996Y-68208650D01*
X104376677Y-68180095D01*
X104376670Y-68180086D01*
X104376604Y-68180002D01*
X104376541Y-68179928D01*
X104376530Y-68179915D01*
X104358177Y-68158487D01*
X104355398Y-68149974D01*
X104357234Y-68144529D01*
X104530171Y-67876721D01*
X104537538Y-67871630D01*
X104546347Y-67873239D01*
G37*
%TD.AperFunction*%
%TD*%
%TA.AperFunction,Conductor*%
%TO.N,D7*%
G36*
X106121992Y-65384743D02*
G01*
X106140812Y-65401040D01*
X106165713Y-65421239D01*
X106165833Y-65421326D01*
X106165842Y-65421333D01*
X106190678Y-65439356D01*
X106190852Y-65439482D01*
X106217021Y-65455659D01*
X106245012Y-65469655D01*
X106275616Y-65481359D01*
X106309626Y-65490658D01*
X106347832Y-65497439D01*
X106375363Y-65500085D01*
X106390826Y-65501572D01*
X106390833Y-65501572D01*
X106391026Y-65501591D01*
X106391217Y-65501596D01*
X106391225Y-65501597D01*
X106422534Y-65502497D01*
X106428636Y-65502673D01*
X106436808Y-65506336D01*
X106440000Y-65514368D01*
X106440000Y-65618632D01*
X106436573Y-65626905D01*
X106428637Y-65630327D01*
X106409704Y-65630871D01*
X106391225Y-65631402D01*
X106391217Y-65631403D01*
X106391026Y-65631408D01*
X106390833Y-65631427D01*
X106390826Y-65631427D01*
X106375363Y-65632914D01*
X106347832Y-65635560D01*
X106309626Y-65642341D01*
X106275616Y-65651640D01*
X106245012Y-65663344D01*
X106217021Y-65677340D01*
X106190852Y-65693517D01*
X106190683Y-65693640D01*
X106190678Y-65693643D01*
X106165842Y-65711666D01*
X106165833Y-65711673D01*
X106165713Y-65711760D01*
X106140812Y-65731959D01*
X106140727Y-65732033D01*
X106121993Y-65748255D01*
X106113496Y-65751080D01*
X106107987Y-65749239D01*
X105840221Y-65576329D01*
X105835130Y-65568962D01*
X105836739Y-65560153D01*
X105840221Y-65556671D01*
X106107988Y-65383760D01*
X106116796Y-65382151D01*
X106121992Y-65384743D01*
G37*
%TD.AperFunction*%
%TD*%
%TA.AperFunction,Conductor*%
%TO.N,Net-(F1-Pad1)*%
G36*
X106911896Y-57303992D02*
G01*
X106925048Y-57314034D01*
X106937128Y-57320872D01*
X106946748Y-57326318D01*
X106946752Y-57326320D01*
X106947056Y-57326492D01*
X106971576Y-57336608D01*
X106998804Y-57344616D01*
X107010691Y-57347036D01*
X107028734Y-57350709D01*
X107028743Y-57350710D01*
X107028937Y-57350750D01*
X107062168Y-57355244D01*
X107062335Y-57355258D01*
X107062334Y-57355258D01*
X107098574Y-57358322D01*
X107098588Y-57358323D01*
X107098695Y-57358332D01*
X107098781Y-57358336D01*
X107098794Y-57358337D01*
X107138687Y-57360247D01*
X107138702Y-57360248D01*
X107138722Y-57360248D01*
X107138744Y-57360249D01*
X107166312Y-57360866D01*
X107182415Y-57361226D01*
X107218367Y-57361433D01*
X107226621Y-57364908D01*
X107230000Y-57373133D01*
X107230000Y-57599867D01*
X107226573Y-57608140D01*
X107218368Y-57611567D01*
X107182415Y-57611773D01*
X107166312Y-57612133D01*
X107138744Y-57612750D01*
X107138722Y-57612751D01*
X107138702Y-57612751D01*
X107138687Y-57612752D01*
X107098794Y-57614662D01*
X107098781Y-57614663D01*
X107098695Y-57614667D01*
X107098588Y-57614676D01*
X107098574Y-57614677D01*
X107066973Y-57617349D01*
X107062168Y-57617755D01*
X107028937Y-57622249D01*
X107028743Y-57622289D01*
X107028734Y-57622290D01*
X107010691Y-57625963D01*
X106998804Y-57628383D01*
X106971576Y-57636391D01*
X106947056Y-57646507D01*
X106946752Y-57646679D01*
X106946748Y-57646681D01*
X106937128Y-57652127D01*
X106925048Y-57658965D01*
X106911896Y-57669008D01*
X106903242Y-57671305D01*
X106898449Y-57669538D01*
X106881773Y-57658769D01*
X106729793Y-57560628D01*
X106725253Y-57557696D01*
X106615000Y-57486500D01*
X106762322Y-57391367D01*
X106764372Y-57390043D01*
X106764373Y-57390043D01*
X106882078Y-57314034D01*
X106898449Y-57303462D01*
X106907258Y-57301853D01*
X106911896Y-57303992D01*
G37*
%TD.AperFunction*%
%TD*%
%TA.AperFunction,Conductor*%
%TO.N,Net-(F1-Pad1)*%
G36*
X108612405Y-57436159D02*
G01*
X108661431Y-57460274D01*
X108662203Y-57460691D01*
X108714398Y-57491424D01*
X108715028Y-57491822D01*
X108740703Y-57509229D01*
X108761116Y-57523068D01*
X108761536Y-57523368D01*
X108785118Y-57541022D01*
X108802633Y-57554135D01*
X108802855Y-57554305D01*
X108840132Y-57583628D01*
X108874583Y-57610391D01*
X108907235Y-57633487D01*
X108939214Y-57651888D01*
X108939622Y-57652047D01*
X108939623Y-57652048D01*
X108971097Y-57664351D01*
X108971099Y-57664352D01*
X108971645Y-57664565D01*
X108997885Y-57669137D01*
X109005447Y-57673933D01*
X109007314Y-57678199D01*
X109037840Y-57820013D01*
X109074575Y-57990675D01*
X109072966Y-57999484D01*
X109065599Y-58004575D01*
X109060675Y-58004575D01*
X108748575Y-57937395D01*
X108741208Y-57932304D01*
X108739433Y-57927455D01*
X108738748Y-57922149D01*
X108736885Y-57907712D01*
X108729354Y-57878948D01*
X108717667Y-57849696D01*
X108701592Y-57820289D01*
X108680898Y-57791061D01*
X108655354Y-57762346D01*
X108642297Y-57750464D01*
X108624944Y-57734672D01*
X108624937Y-57734666D01*
X108624729Y-57734477D01*
X108609773Y-57723371D01*
X108589006Y-57707948D01*
X108589000Y-57707944D01*
X108588790Y-57707788D01*
X108566160Y-57694053D01*
X108547531Y-57682747D01*
X108547525Y-57682744D01*
X108547308Y-57682612D01*
X108520012Y-57669137D01*
X108510123Y-57664255D01*
X108504221Y-57657520D01*
X108504608Y-57649017D01*
X108521791Y-57610311D01*
X108596547Y-57441911D01*
X108603036Y-57435740D01*
X108612405Y-57436159D01*
G37*
%TD.AperFunction*%
%TD*%
%TA.AperFunction,Conductor*%
%TO.N,D2{slash}SDA*%
G36*
X102682011Y-65753759D02*
G01*
X102949779Y-65926671D01*
X102954870Y-65934038D01*
X102953261Y-65942847D01*
X102949779Y-65946329D01*
X102682012Y-66119240D01*
X102673204Y-66120849D01*
X102668008Y-66118257D01*
X102649187Y-66101959D01*
X102624286Y-66081760D01*
X102624166Y-66081673D01*
X102624157Y-66081666D01*
X102599321Y-66063643D01*
X102599316Y-66063640D01*
X102599147Y-66063517D01*
X102572978Y-66047340D01*
X102544987Y-66033344D01*
X102514383Y-66021640D01*
X102480373Y-66012341D01*
X102442167Y-66005560D01*
X102414636Y-66002914D01*
X102399173Y-66001427D01*
X102399166Y-66001427D01*
X102398973Y-66001408D01*
X102398782Y-66001403D01*
X102398774Y-66001402D01*
X102380078Y-66000865D01*
X102361363Y-66000327D01*
X102353193Y-65996664D01*
X102350000Y-65988632D01*
X102350000Y-65884368D01*
X102353427Y-65876095D01*
X102361364Y-65872673D01*
X102366818Y-65872516D01*
X102398774Y-65871597D01*
X102398782Y-65871596D01*
X102398973Y-65871591D01*
X102399166Y-65871572D01*
X102399173Y-65871572D01*
X102414636Y-65870085D01*
X102442167Y-65867439D01*
X102480373Y-65860658D01*
X102514383Y-65851359D01*
X102544987Y-65839655D01*
X102572978Y-65825659D01*
X102599147Y-65809482D01*
X102599321Y-65809356D01*
X102624157Y-65791333D01*
X102624166Y-65791326D01*
X102624286Y-65791239D01*
X102649187Y-65771040D01*
X102668007Y-65754744D01*
X102676505Y-65751919D01*
X102682011Y-65753759D01*
G37*
%TD.AperFunction*%
%TD*%
%TA.AperFunction,Conductor*%
%TO.N,Net-(C8-Pad2)*%
G36*
X104058387Y-63767824D02*
G01*
X104089090Y-63797225D01*
X104089199Y-63797319D01*
X104089212Y-63797331D01*
X104125059Y-63828293D01*
X104125198Y-63828413D01*
X104159080Y-63854170D01*
X104159280Y-63854300D01*
X104191174Y-63875064D01*
X104191184Y-63875070D01*
X104191373Y-63875193D01*
X104222716Y-63892181D01*
X104253746Y-63905833D01*
X104285103Y-63916848D01*
X104317424Y-63925924D01*
X104351346Y-63933761D01*
X104378899Y-63939320D01*
X104386330Y-63944314D01*
X104388242Y-63949811D01*
X104398603Y-64073643D01*
X104414817Y-64267434D01*
X104412092Y-64275964D01*
X104404133Y-64280068D01*
X104399250Y-64279437D01*
X104098708Y-64172936D01*
X104092055Y-64166943D01*
X104090928Y-64161388D01*
X104092029Y-64136665D01*
X104092029Y-64136653D01*
X104092036Y-64136500D01*
X104091641Y-64104417D01*
X104088857Y-64073371D01*
X104083182Y-64042942D01*
X104074113Y-64012707D01*
X104061150Y-63982245D01*
X104043790Y-63951136D01*
X104039071Y-63944314D01*
X104021668Y-63919153D01*
X104021663Y-63919146D01*
X104021532Y-63918957D01*
X103993875Y-63885288D01*
X103981683Y-63872361D01*
X103968113Y-63857974D01*
X103964929Y-63849604D01*
X103968351Y-63841673D01*
X104042022Y-63768002D01*
X104050295Y-63764575D01*
X104058387Y-63767824D01*
G37*
%TD.AperFunction*%
%TD*%
%TA.AperFunction,Conductor*%
%TO.N,Net-(C8-Pad2)*%
G36*
X100359389Y-61285806D02*
G01*
X100379001Y-61302278D01*
X100404720Y-61322447D01*
X100430643Y-61340584D01*
X100457581Y-61356598D01*
X100486347Y-61370398D01*
X100486611Y-61370495D01*
X100486619Y-61370498D01*
X100517482Y-61381794D01*
X100517750Y-61381892D01*
X100518010Y-61381960D01*
X100518020Y-61381963D01*
X100549507Y-61390182D01*
X100552604Y-61390990D01*
X100591718Y-61397601D01*
X100591927Y-61397620D01*
X100591934Y-61397621D01*
X100613340Y-61399575D01*
X100635904Y-61401635D01*
X100644153Y-61401860D01*
X100674593Y-61402690D01*
X100682770Y-61406341D01*
X100685974Y-61414386D01*
X100685974Y-61518623D01*
X100682547Y-61526896D01*
X100674602Y-61530318D01*
X100636677Y-61531380D01*
X100636667Y-61531381D01*
X100636474Y-61531386D01*
X100636287Y-61531403D01*
X100636279Y-61531404D01*
X100603871Y-61534443D01*
X100592764Y-61535484D01*
X100579764Y-61537742D01*
X100554333Y-61542158D01*
X100554323Y-61542160D01*
X100554065Y-61542205D01*
X100519596Y-61551459D01*
X100488580Y-61563155D01*
X100460236Y-61577204D01*
X100460016Y-61577340D01*
X100460010Y-61577343D01*
X100447554Y-61585024D01*
X100433786Y-61593515D01*
X100408451Y-61612000D01*
X100383452Y-61632567D01*
X100383369Y-61632641D01*
X100383358Y-61632650D01*
X100364558Y-61649320D01*
X100356095Y-61652245D01*
X100350589Y-61650484D01*
X100080372Y-61481389D01*
X100075177Y-61474096D01*
X100076661Y-61465264D01*
X100080093Y-61461733D01*
X100345379Y-61285027D01*
X100354163Y-61283293D01*
X100359389Y-61285806D01*
G37*
%TD.AperFunction*%
%TD*%
%TA.AperFunction,Conductor*%
%TO.N,Net-(C7-Pad1)*%
G36*
X99861992Y-60388243D02*
G01*
X99880812Y-60404540D01*
X99905713Y-60424739D01*
X99905833Y-60424826D01*
X99905842Y-60424833D01*
X99930678Y-60442856D01*
X99930852Y-60442982D01*
X99957021Y-60459159D01*
X99985012Y-60473155D01*
X100015616Y-60484859D01*
X100049626Y-60494158D01*
X100087832Y-60500939D01*
X100115363Y-60503585D01*
X100130826Y-60505072D01*
X100130833Y-60505072D01*
X100131026Y-60505091D01*
X100131217Y-60505096D01*
X100131225Y-60505097D01*
X100162534Y-60505997D01*
X100168636Y-60506173D01*
X100176808Y-60509836D01*
X100180000Y-60517868D01*
X100180000Y-60622132D01*
X100176573Y-60630405D01*
X100168637Y-60633827D01*
X100149704Y-60634371D01*
X100131225Y-60634902D01*
X100131217Y-60634903D01*
X100131026Y-60634908D01*
X100130833Y-60634927D01*
X100130826Y-60634927D01*
X100115363Y-60636414D01*
X100087832Y-60639060D01*
X100049626Y-60645841D01*
X100015616Y-60655140D01*
X99985012Y-60666844D01*
X99957021Y-60680840D01*
X99930852Y-60697017D01*
X99930683Y-60697140D01*
X99930678Y-60697143D01*
X99905842Y-60715166D01*
X99905833Y-60715173D01*
X99905713Y-60715260D01*
X99880812Y-60735459D01*
X99880727Y-60735533D01*
X99861993Y-60751755D01*
X99853496Y-60754580D01*
X99847987Y-60752739D01*
X99580221Y-60579829D01*
X99575130Y-60572462D01*
X99576739Y-60563653D01*
X99580221Y-60560171D01*
X99847988Y-60387260D01*
X99856796Y-60385651D01*
X99861992Y-60388243D01*
G37*
%TD.AperFunction*%
%TD*%
%TA.AperFunction,Conductor*%
%TO.N,Net-(C2-Pad2)*%
G36*
X106694484Y-63828534D02*
G01*
X106699575Y-63835901D01*
X106699575Y-63840825D01*
X106634363Y-64143786D01*
X106632502Y-64152430D01*
X106627411Y-64159797D01*
X106621902Y-64161638D01*
X106609704Y-64162514D01*
X106597167Y-64163415D01*
X106597161Y-64163416D01*
X106597071Y-64163422D01*
X106586545Y-64164519D01*
X106565324Y-64166731D01*
X106565317Y-64166732D01*
X106565182Y-64166746D01*
X106565051Y-64166767D01*
X106565042Y-64166768D01*
X106554747Y-64168405D01*
X106534506Y-64171622D01*
X106504563Y-64178688D01*
X106504326Y-64178767D01*
X106504319Y-64178769D01*
X106475140Y-64188495D01*
X106475134Y-64188497D01*
X106474874Y-64188584D01*
X106444957Y-64201948D01*
X106414334Y-64219421D01*
X106382523Y-64241641D01*
X106349045Y-64269248D01*
X106321935Y-64294843D01*
X106321686Y-64295078D01*
X106313318Y-64298265D01*
X106305381Y-64294843D01*
X106231656Y-64221118D01*
X106228229Y-64212845D01*
X106231421Y-64204813D01*
X106257127Y-64177584D01*
X106257136Y-64177573D01*
X106257250Y-64177453D01*
X106262059Y-64171622D01*
X106284711Y-64144152D01*
X106284857Y-64143975D01*
X106285643Y-64142850D01*
X106306924Y-64112385D01*
X106306930Y-64112375D01*
X106307077Y-64112165D01*
X106324550Y-64081541D01*
X106337915Y-64051625D01*
X106347811Y-64021936D01*
X106354877Y-63991993D01*
X106359753Y-63961317D01*
X106363077Y-63929428D01*
X106364862Y-63904597D01*
X106368873Y-63896591D01*
X106374069Y-63893999D01*
X106559113Y-63854167D01*
X106685675Y-63826925D01*
X106694484Y-63828534D01*
G37*
%TD.AperFunction*%
%TD*%
%TA.AperFunction,Conductor*%
%TO.N,Net-(C2-Pad2)*%
G36*
X102455887Y-61059167D02*
G01*
X102640931Y-61098999D01*
X102648297Y-61104089D01*
X102650138Y-61109598D01*
X102651922Y-61134428D01*
X102655246Y-61166317D01*
X102660122Y-61196993D01*
X102667188Y-61226936D01*
X102677084Y-61256625D01*
X102690448Y-61286542D01*
X102707921Y-61317165D01*
X102730141Y-61348976D01*
X102730287Y-61349153D01*
X102752982Y-61376674D01*
X102757748Y-61382454D01*
X102757862Y-61382574D01*
X102757871Y-61382585D01*
X102783578Y-61409814D01*
X102786765Y-61418182D01*
X102783343Y-61426119D01*
X102709619Y-61499843D01*
X102701346Y-61503270D01*
X102693314Y-61500078D01*
X102666085Y-61474371D01*
X102666074Y-61474362D01*
X102665954Y-61474248D01*
X102632476Y-61446641D01*
X102600665Y-61424421D01*
X102570042Y-61406948D01*
X102540125Y-61393584D01*
X102539865Y-61393497D01*
X102539859Y-61393495D01*
X102510680Y-61383769D01*
X102510673Y-61383767D01*
X102510436Y-61383688D01*
X102480493Y-61376622D01*
X102460252Y-61373405D01*
X102449957Y-61371768D01*
X102449948Y-61371767D01*
X102449817Y-61371746D01*
X102449682Y-61371732D01*
X102449675Y-61371731D01*
X102424916Y-61369150D01*
X102417928Y-61368422D01*
X102417839Y-61368416D01*
X102417821Y-61368414D01*
X102398192Y-61367004D01*
X102393098Y-61366638D01*
X102385091Y-61362627D01*
X102382498Y-61357430D01*
X102380717Y-61349153D01*
X102315425Y-61045825D01*
X102317034Y-61037016D01*
X102324401Y-61031925D01*
X102329325Y-61031925D01*
X102455887Y-61059167D01*
G37*
%TD.AperFunction*%
%TD*%
%TA.AperFunction,Conductor*%
%TO.N,D14{slash}MISO*%
G36*
X109000405Y-70349927D02*
G01*
X109003827Y-70357863D01*
X109004908Y-70395473D01*
X109009060Y-70438667D01*
X109015841Y-70476873D01*
X109025140Y-70510883D01*
X109036844Y-70541487D01*
X109050840Y-70569478D01*
X109067017Y-70595647D01*
X109085260Y-70620786D01*
X109105459Y-70645687D01*
X109105533Y-70645772D01*
X109121756Y-70664507D01*
X109124581Y-70673004D01*
X109122740Y-70678513D01*
X108949829Y-70946279D01*
X108942462Y-70951370D01*
X108933653Y-70949761D01*
X108930171Y-70946279D01*
X108757260Y-70678513D01*
X108755651Y-70669704D01*
X108758244Y-70664507D01*
X108774466Y-70645772D01*
X108774540Y-70645687D01*
X108794739Y-70620786D01*
X108812982Y-70595647D01*
X108829159Y-70569478D01*
X108843155Y-70541487D01*
X108854859Y-70510883D01*
X108864158Y-70476873D01*
X108870939Y-70438667D01*
X108875091Y-70395473D01*
X108876173Y-70357864D01*
X108879836Y-70349692D01*
X108887868Y-70346500D01*
X108992132Y-70346500D01*
X109000405Y-70349927D01*
G37*
%TD.AperFunction*%
%TD*%
%TA.AperFunction,Conductor*%
%TO.N,D16{slash}MOSI*%
G36*
X102575762Y-63783970D02*
G01*
X102583794Y-63787930D01*
X102586425Y-63793134D01*
X102592453Y-63820628D01*
X102600766Y-63854467D01*
X102610198Y-63886702D01*
X102621468Y-63917978D01*
X102635293Y-63948938D01*
X102652392Y-63980223D01*
X102673482Y-64012479D01*
X102673614Y-64012652D01*
X102699178Y-64046210D01*
X102699188Y-64046222D01*
X102699283Y-64046347D01*
X102730512Y-64082471D01*
X102747101Y-64099792D01*
X102759967Y-64113226D01*
X102763214Y-64121572D01*
X102759790Y-64129592D01*
X102686113Y-64203269D01*
X102677840Y-64206696D01*
X102669819Y-64203514D01*
X102643098Y-64178353D01*
X102643092Y-64178348D01*
X102642951Y-64178215D01*
X102609644Y-64151003D01*
X102577762Y-64129168D01*
X102577509Y-64129029D01*
X102547178Y-64112367D01*
X102547173Y-64112365D01*
X102546908Y-64112219D01*
X102535500Y-64107481D01*
X102516990Y-64099792D01*
X102516985Y-64099790D01*
X102516681Y-64099664D01*
X102486682Y-64091013D01*
X102456512Y-64085775D01*
X102456237Y-64085754D01*
X102456235Y-64085754D01*
X102425985Y-64083473D01*
X102425982Y-64083473D01*
X102425771Y-64083457D01*
X102413904Y-64083499D01*
X102394228Y-64083567D01*
X102394214Y-64083567D01*
X102394060Y-64083568D01*
X102393899Y-64083578D01*
X102393898Y-64083578D01*
X102391862Y-64083704D01*
X102369619Y-64085083D01*
X102361151Y-64082174D01*
X102357941Y-64077512D01*
X102298207Y-63918187D01*
X102246002Y-63778944D01*
X102246306Y-63769996D01*
X102252850Y-63763883D01*
X102257721Y-63763163D01*
X102575762Y-63783970D01*
G37*
%TD.AperFunction*%
%TD*%
%TA.AperFunction,Conductor*%
%TO.N,IO10*%
G36*
X106881183Y-67452553D02*
G01*
X106888550Y-67457644D01*
X106890362Y-67462819D01*
X106893531Y-67494313D01*
X106900250Y-67530833D01*
X106909569Y-67565162D01*
X106921391Y-67598561D01*
X106935620Y-67632289D01*
X106952160Y-67667607D01*
X106970915Y-67705774D01*
X106991788Y-67748049D01*
X107002537Y-67770417D01*
X107014639Y-67795603D01*
X107014733Y-67795804D01*
X107034581Y-67839206D01*
X107034905Y-67848155D01*
X107028688Y-67854766D01*
X106933527Y-67897010D01*
X106924575Y-67897234D01*
X106918374Y-67891664D01*
X106901105Y-67858060D01*
X106900929Y-67857717D01*
X106898896Y-67854766D01*
X106876440Y-67822180D01*
X106876199Y-67821830D01*
X106849456Y-67793006D01*
X106820920Y-67770417D01*
X106820538Y-67770199D01*
X106820535Y-67770197D01*
X106791159Y-67753436D01*
X106791158Y-67753435D01*
X106790810Y-67753237D01*
X106790444Y-67753090D01*
X106790441Y-67753089D01*
X106759653Y-67740761D01*
X106759654Y-67740761D01*
X106759346Y-67740638D01*
X106726748Y-67731793D01*
X106726513Y-67731752D01*
X106726502Y-67731749D01*
X106693416Y-67725906D01*
X106693417Y-67725906D01*
X106693235Y-67725874D01*
X106693065Y-67725855D01*
X106693051Y-67725853D01*
X106659135Y-67722067D01*
X106659132Y-67722067D01*
X106659027Y-67722055D01*
X106658945Y-67722049D01*
X106658924Y-67722047D01*
X106633082Y-67720150D01*
X106625082Y-67716126D01*
X106622501Y-67710943D01*
X106621389Y-67705774D01*
X106591074Y-67564939D01*
X106555425Y-67399325D01*
X106557034Y-67390516D01*
X106564401Y-67385425D01*
X106569325Y-67385425D01*
X106881183Y-67452553D01*
G37*
%TD.AperFunction*%
%TD*%
%TA.AperFunction,Conductor*%
%TO.N,D0{slash}RX*%
G36*
X98481784Y-60074400D02*
G01*
X98507767Y-60147492D01*
X98531395Y-60216862D01*
X98555228Y-60283955D01*
X98581823Y-60350214D01*
X98613740Y-60417082D01*
X98653535Y-60486003D01*
X98703769Y-60558421D01*
X98766998Y-60635778D01*
X98838418Y-60711692D01*
X98841300Y-60719688D01*
X98837886Y-60727415D01*
X98763777Y-60801524D01*
X98755504Y-60804951D01*
X98748056Y-60802121D01*
X98688788Y-60748274D01*
X98623922Y-60701303D01*
X98560848Y-60667070D01*
X98499033Y-60644233D01*
X98437944Y-60631454D01*
X98377047Y-60627390D01*
X98315810Y-60630704D01*
X98253699Y-60640055D01*
X98190181Y-60654102D01*
X98124723Y-60671507D01*
X97991000Y-60452169D01*
X97991000Y-60053217D01*
X98450890Y-59996145D01*
X98481784Y-60074400D01*
G37*
%TD.AperFunction*%
%TD*%
%TA.AperFunction,Conductor*%
%TO.N,D4*%
G36*
X100444765Y-68677841D02*
G01*
X100486972Y-68772915D01*
X100487196Y-68781867D01*
X100481594Y-68788084D01*
X100444089Y-68807215D01*
X100443802Y-68807409D01*
X100443798Y-68807411D01*
X100434875Y-68813432D01*
X100404949Y-68833625D01*
X100401196Y-68836991D01*
X100373541Y-68861793D01*
X100373535Y-68861799D01*
X100373223Y-68862079D01*
X100348088Y-68892384D01*
X100328719Y-68924344D01*
X100314291Y-68957764D01*
X100303981Y-68992450D01*
X100296963Y-69028207D01*
X100292414Y-69064840D01*
X100292404Y-69064967D01*
X100292403Y-69064978D01*
X100290186Y-69093459D01*
X100286127Y-69101441D01*
X100280983Y-69103989D01*
X99969325Y-69171075D01*
X99960516Y-69169466D01*
X99955425Y-69162099D01*
X99955425Y-69157175D01*
X100022566Y-68845253D01*
X100027657Y-68837886D01*
X100032746Y-68836083D01*
X100066359Y-68832449D01*
X100066367Y-68832448D01*
X100066642Y-68832418D01*
X100105075Y-68824464D01*
X100141030Y-68813361D01*
X100175895Y-68799342D01*
X100180494Y-68797157D01*
X100210974Y-68782678D01*
X100210999Y-68782666D01*
X100211059Y-68782637D01*
X100247909Y-68763480D01*
X100287834Y-68742103D01*
X100287907Y-68742065D01*
X100332089Y-68718808D01*
X100332306Y-68718696D01*
X100382314Y-68693690D01*
X100382626Y-68693540D01*
X100416492Y-68677841D01*
X100429151Y-68671973D01*
X100438097Y-68671603D01*
X100444765Y-68677841D01*
G37*
%TD.AperFunction*%
%TD*%
%TA.AperFunction,Conductor*%
%TO.N,D+*%
G36*
X103501433Y-61227631D02*
G01*
X103511267Y-61236869D01*
X103527869Y-61252466D01*
X103528026Y-61252593D01*
X103528037Y-61252603D01*
X103560692Y-61279086D01*
X103560703Y-61279094D01*
X103560889Y-61279245D01*
X103592588Y-61300660D01*
X103592842Y-61300796D01*
X103592848Y-61300800D01*
X103623035Y-61317009D01*
X103623326Y-61317165D01*
X103623630Y-61317287D01*
X103623631Y-61317287D01*
X103625257Y-61317937D01*
X103653463Y-61329216D01*
X103683359Y-61337268D01*
X103713374Y-61341776D01*
X103713675Y-61341790D01*
X103743609Y-61343183D01*
X103743610Y-61343183D01*
X103743868Y-61343195D01*
X103775201Y-61341982D01*
X103775399Y-61341961D01*
X103775404Y-61341961D01*
X103799155Y-61339486D01*
X103807739Y-61342037D01*
X103811125Y-61346522D01*
X103936513Y-61639729D01*
X103936615Y-61648683D01*
X103930355Y-61655087D01*
X103925522Y-61656027D01*
X103606876Y-61649677D01*
X103598673Y-61646086D01*
X103595803Y-61640988D01*
X103588413Y-61613222D01*
X103588404Y-61613191D01*
X103588382Y-61613107D01*
X103578513Y-61579068D01*
X103567714Y-61546702D01*
X103555238Y-61515328D01*
X103540340Y-61484261D01*
X103522271Y-61452821D01*
X103522162Y-61452660D01*
X103522154Y-61452647D01*
X103500401Y-61420493D01*
X103500392Y-61420480D01*
X103500286Y-61420324D01*
X103473638Y-61386088D01*
X103441580Y-61349430D01*
X103441492Y-61349338D01*
X103411314Y-61317937D01*
X103408052Y-61309598D01*
X103411477Y-61301557D01*
X103485149Y-61227885D01*
X103493422Y-61224458D01*
X103501433Y-61227631D01*
G37*
%TD.AperFunction*%
%TD*%
%TA.AperFunction,Conductor*%
%TO.N,D+*%
G36*
X102076766Y-59757056D02*
G01*
X102261810Y-59796888D01*
X102269176Y-59801978D01*
X102271017Y-59807487D01*
X102272801Y-59832317D01*
X102276125Y-59864206D01*
X102281001Y-59894882D01*
X102288067Y-59924825D01*
X102297963Y-59954514D01*
X102311327Y-59984431D01*
X102328800Y-60015054D01*
X102351020Y-60046865D01*
X102351166Y-60047042D01*
X102373861Y-60074563D01*
X102378627Y-60080343D01*
X102378741Y-60080463D01*
X102378750Y-60080474D01*
X102404457Y-60107703D01*
X102407644Y-60116071D01*
X102404222Y-60124008D01*
X102330498Y-60197732D01*
X102322225Y-60201159D01*
X102314193Y-60197967D01*
X102286964Y-60172260D01*
X102286953Y-60172251D01*
X102286833Y-60172137D01*
X102253355Y-60144530D01*
X102221544Y-60122310D01*
X102190921Y-60104837D01*
X102161004Y-60091473D01*
X102160744Y-60091386D01*
X102160738Y-60091384D01*
X102131559Y-60081658D01*
X102131552Y-60081656D01*
X102131315Y-60081577D01*
X102101372Y-60074511D01*
X102081131Y-60071294D01*
X102070836Y-60069657D01*
X102070827Y-60069656D01*
X102070696Y-60069635D01*
X102070561Y-60069621D01*
X102070554Y-60069620D01*
X102045795Y-60067039D01*
X102038807Y-60066311D01*
X102038718Y-60066305D01*
X102038700Y-60066303D01*
X102019071Y-60064893D01*
X102013977Y-60064527D01*
X102005970Y-60060516D01*
X102003377Y-60055319D01*
X102001596Y-60047042D01*
X101936304Y-59743714D01*
X101937913Y-59734905D01*
X101945280Y-59729814D01*
X101950204Y-59729814D01*
X102076766Y-59757056D01*
G37*
%TD.AperFunction*%
%TD*%
%TA.AperFunction,Conductor*%
%TO.N,RST*%
G36*
X106049619Y-63503156D02*
G01*
X106123345Y-63576883D01*
X106126771Y-63585154D01*
X106123578Y-63593186D01*
X106098990Y-63619230D01*
X106097748Y-63620545D01*
X106070141Y-63654023D01*
X106047921Y-63685834D01*
X106030448Y-63716457D01*
X106017084Y-63746374D01*
X106007188Y-63776063D01*
X106000122Y-63806006D01*
X105995246Y-63836682D01*
X105991922Y-63868571D01*
X105991916Y-63868661D01*
X105991915Y-63868667D01*
X105990138Y-63893402D01*
X105986127Y-63901409D01*
X105980931Y-63904001D01*
X105795887Y-63943833D01*
X105669325Y-63971075D01*
X105660516Y-63969466D01*
X105655425Y-63962099D01*
X105655425Y-63957175D01*
X105720638Y-63654212D01*
X105722499Y-63645569D01*
X105727589Y-63638203D01*
X105733097Y-63636362D01*
X105738308Y-63635987D01*
X105757928Y-63634577D01*
X105764916Y-63633849D01*
X105789675Y-63631268D01*
X105789682Y-63631267D01*
X105789817Y-63631253D01*
X105789948Y-63631232D01*
X105789957Y-63631231D01*
X105800252Y-63629594D01*
X105820493Y-63626377D01*
X105850436Y-63619311D01*
X105850673Y-63619232D01*
X105850680Y-63619230D01*
X105880125Y-63609415D01*
X105910042Y-63596050D01*
X105915062Y-63593186D01*
X105929548Y-63584920D01*
X105940665Y-63578577D01*
X105972476Y-63556357D01*
X106005954Y-63528750D01*
X106006074Y-63528636D01*
X106006085Y-63528627D01*
X106033314Y-63502921D01*
X106041683Y-63499734D01*
X106049619Y-63503156D01*
G37*
%TD.AperFunction*%
%TD*%
%TA.AperFunction,Conductor*%
%TO.N,Net-(J4-PadB5)*%
G36*
X103499619Y-59353156D02*
G01*
X103573345Y-59426883D01*
X103576771Y-59435154D01*
X103573578Y-59443186D01*
X103548990Y-59469230D01*
X103547748Y-59470545D01*
X103520141Y-59504023D01*
X103497921Y-59535834D01*
X103480448Y-59566457D01*
X103467084Y-59596374D01*
X103457188Y-59626063D01*
X103450122Y-59656006D01*
X103445246Y-59686682D01*
X103441922Y-59718571D01*
X103441916Y-59718661D01*
X103441915Y-59718667D01*
X103440138Y-59743402D01*
X103436127Y-59751409D01*
X103430931Y-59754001D01*
X103245887Y-59793833D01*
X103119325Y-59821075D01*
X103110516Y-59819466D01*
X103105425Y-59812099D01*
X103105425Y-59807175D01*
X103170638Y-59504212D01*
X103172499Y-59495569D01*
X103177589Y-59488203D01*
X103183097Y-59486362D01*
X103188308Y-59485987D01*
X103207928Y-59484577D01*
X103214916Y-59483849D01*
X103239675Y-59481268D01*
X103239682Y-59481267D01*
X103239817Y-59481253D01*
X103239948Y-59481232D01*
X103239957Y-59481231D01*
X103250252Y-59479594D01*
X103270493Y-59476377D01*
X103300436Y-59469311D01*
X103300673Y-59469232D01*
X103300680Y-59469230D01*
X103330125Y-59459415D01*
X103360042Y-59446050D01*
X103365062Y-59443186D01*
X103379548Y-59434920D01*
X103390665Y-59428577D01*
X103422476Y-59406357D01*
X103455954Y-59378750D01*
X103456074Y-59378636D01*
X103456085Y-59378627D01*
X103483314Y-59352921D01*
X103491683Y-59349734D01*
X103499619Y-59353156D01*
G37*
%TD.AperFunction*%
%TD*%
%TA.AperFunction,Conductor*%
%TO.N,D3{slash}SCL*%
G36*
X98331971Y-64904432D02*
G01*
X98399419Y-64958411D01*
X98472723Y-65003815D01*
X98546175Y-65039468D01*
X98546359Y-65039542D01*
X98620651Y-65069495D01*
X98620726Y-65069525D01*
X98697251Y-65098113D01*
X98697386Y-65098165D01*
X98776648Y-65129361D01*
X98777194Y-65129593D01*
X98847713Y-65161832D01*
X98860074Y-65167483D01*
X98860898Y-65167900D01*
X98948493Y-65216643D01*
X98949402Y-65217205D01*
X99042830Y-65280999D01*
X99043694Y-65281649D01*
X99135004Y-65357257D01*
X99139191Y-65365173D01*
X99136221Y-65374115D01*
X99066370Y-65451380D01*
X99058280Y-65455219D01*
X99050719Y-65452930D01*
X99043877Y-65447853D01*
X98978179Y-65399108D01*
X98921221Y-65374115D01*
X98898945Y-65364340D01*
X98898944Y-65364340D01*
X98898277Y-65364047D01*
X98897561Y-65363928D01*
X98897557Y-65363927D01*
X98822010Y-65351386D01*
X98821769Y-65351346D01*
X98821764Y-65351346D01*
X98819905Y-65351037D01*
X98818440Y-65351152D01*
X98818439Y-65351152D01*
X98815458Y-65351386D01*
X98796130Y-65352903D01*
X98794136Y-65353060D01*
X98788117Y-65353532D01*
X98788115Y-65353532D01*
X98787686Y-65353566D01*
X98743430Y-65357040D01*
X98669218Y-65379017D01*
X98597633Y-65413933D01*
X98529042Y-65458748D01*
X98463809Y-65510426D01*
X98402301Y-65565928D01*
X98344884Y-65622217D01*
X97991000Y-65425684D01*
X97991000Y-65126917D01*
X97994427Y-65118644D01*
X97996237Y-65117164D01*
X98167289Y-65003815D01*
X98318198Y-64903814D01*
X98326986Y-64902101D01*
X98331971Y-64904432D01*
G37*
%TD.AperFunction*%
%TD*%
%TA.AperFunction,Conductor*%
%TO.N,IO12*%
G36*
X104692596Y-73178222D02*
G01*
X104825197Y-73218909D01*
X104933743Y-73274493D01*
X105025557Y-73339972D01*
X105107964Y-73410347D01*
X105188284Y-73480616D01*
X105273840Y-73545780D01*
X105371956Y-73600838D01*
X105489955Y-73640789D01*
X105627213Y-73659548D01*
X105634545Y-73664007D01*
X105636622Y-73668867D01*
X105721355Y-74145251D01*
X105719430Y-74153997D01*
X105711885Y-74158819D01*
X105709836Y-74159000D01*
X105112939Y-74159000D01*
X105104666Y-74155573D01*
X105101399Y-74149231D01*
X105094513Y-74108085D01*
X105094463Y-74107756D01*
X105074918Y-73966327D01*
X105055557Y-73832207D01*
X105055554Y-73832192D01*
X105055538Y-73832078D01*
X105031552Y-73707399D01*
X104998161Y-73594502D01*
X104974715Y-73545780D01*
X104950861Y-73496210D01*
X104950859Y-73496207D01*
X104950568Y-73495602D01*
X104950147Y-73495080D01*
X104950145Y-73495076D01*
X104884481Y-73413542D01*
X104883976Y-73412915D01*
X104860021Y-73395884D01*
X104858534Y-73394628D01*
X104812932Y-73349105D01*
X104812929Y-73349103D01*
X104812247Y-73348422D01*
X104811378Y-73347997D01*
X104700156Y-73293630D01*
X104700154Y-73293629D01*
X104699339Y-73293231D01*
X104625781Y-73282500D01*
X104534623Y-73282500D01*
X104526350Y-73279073D01*
X104522938Y-73270211D01*
X104527986Y-73170023D01*
X104531825Y-73161933D01*
X104541092Y-73159014D01*
X104692596Y-73178222D01*
G37*
%TD.AperFunction*%
%TD*%
%TA.AperFunction,Conductor*%
%TO.N,IO11*%
G36*
X107047129Y-73166521D02*
G01*
X107050542Y-73174225D01*
X107056188Y-73290221D01*
X107073407Y-73395053D01*
X107073516Y-73395417D01*
X107086449Y-73438622D01*
X107099635Y-73482675D01*
X107132850Y-73558171D01*
X107171031Y-73626624D01*
X107171095Y-73626727D01*
X107212132Y-73693080D01*
X107212196Y-73693185D01*
X107254029Y-73762448D01*
X107254368Y-73763049D01*
X107294908Y-73840098D01*
X107295357Y-73841053D01*
X107303162Y-73859853D01*
X107332758Y-73931140D01*
X107333163Y-73932279D01*
X107363222Y-74032965D01*
X107362305Y-74041873D01*
X107358557Y-74046009D01*
X107194153Y-74156997D01*
X107187607Y-74159000D01*
X106682039Y-74159000D01*
X106673766Y-74155573D01*
X106672093Y-74153462D01*
X106490167Y-73859853D01*
X106488723Y-73851016D01*
X106491217Y-73846092D01*
X106495516Y-73841060D01*
X106551615Y-73775384D01*
X106552247Y-73774701D01*
X106616273Y-73710818D01*
X106616708Y-73710405D01*
X106678110Y-73655121D01*
X106678192Y-73655049D01*
X106735487Y-73604421D01*
X106735521Y-73604389D01*
X106735619Y-73604303D01*
X106783385Y-73558171D01*
X106787459Y-73554236D01*
X106787463Y-73554232D01*
X106787676Y-73554026D01*
X106787869Y-73553796D01*
X106787876Y-73553789D01*
X106832771Y-73500404D01*
X106832772Y-73500403D01*
X106833066Y-73500053D01*
X106870540Y-73438180D01*
X106898853Y-73364200D01*
X106916142Y-73276998D01*
X106916142Y-73276997D01*
X106916755Y-73273906D01*
X106916868Y-73271910D01*
X106916869Y-73271895D01*
X106922378Y-73174136D01*
X106926264Y-73166068D01*
X106934059Y-73163094D01*
X107038856Y-73163094D01*
X107047129Y-73166521D01*
G37*
%TD.AperFunction*%
%TD*%
%TA.AperFunction,Conductor*%
%TO.N,Net-(J4-PadB5)*%
G36*
X104533856Y-58633031D02*
G01*
X104729883Y-58662329D01*
X104737559Y-58666941D01*
X104739649Y-58676079D01*
X104688292Y-58946838D01*
X104683023Y-58974615D01*
X104678114Y-58982105D01*
X104672906Y-58984054D01*
X104600367Y-58992659D01*
X104599238Y-58992737D01*
X104536796Y-58994067D01*
X104528640Y-58994241D01*
X104527699Y-58994223D01*
X104501383Y-58992659D01*
X104464183Y-58990448D01*
X104463634Y-58990403D01*
X104404389Y-58984073D01*
X104347186Y-58978000D01*
X104347178Y-58977999D01*
X104347052Y-58977986D01*
X104346927Y-58977979D01*
X104346908Y-58977978D01*
X104289579Y-58974993D01*
X104289574Y-58974993D01*
X104289286Y-58974978D01*
X104228490Y-58977858D01*
X104228131Y-58977921D01*
X104228127Y-58977921D01*
X104204122Y-58982105D01*
X104162066Y-58989435D01*
X104087414Y-59012517D01*
X104087117Y-59012647D01*
X104087106Y-59012651D01*
X104012154Y-59045442D01*
X104003201Y-59045619D01*
X103996982Y-59039920D01*
X103950837Y-58946838D01*
X103950233Y-58937903D01*
X103956349Y-58931050D01*
X104017793Y-58902210D01*
X104018184Y-58902035D01*
X104081971Y-58874902D01*
X104082179Y-58874816D01*
X104138797Y-58852006D01*
X104138832Y-58851992D01*
X104138888Y-58851969D01*
X104189197Y-58831209D01*
X104189210Y-58831203D01*
X104189344Y-58831148D01*
X104234673Y-58809963D01*
X104234890Y-58809837D01*
X104234898Y-58809833D01*
X104275566Y-58786256D01*
X104275573Y-58786251D01*
X104275884Y-58786071D01*
X104314044Y-58757109D01*
X104350218Y-58720710D01*
X104385474Y-58674511D01*
X104416843Y-58622796D01*
X104424062Y-58617502D01*
X104428573Y-58617295D01*
X104533856Y-58633031D01*
G37*
%TD.AperFunction*%
%TD*%
%TA.AperFunction,Conductor*%
%TO.N,D16{slash}MOSI*%
G36*
X109648372Y-70885312D02*
G01*
X109651886Y-70891683D01*
X109670299Y-71005052D01*
X109714228Y-71098680D01*
X109778857Y-71165686D01*
X109824017Y-71189552D01*
X109856891Y-71206925D01*
X109860978Y-71209085D01*
X109861696Y-71209255D01*
X109861699Y-71209256D01*
X109940069Y-71227797D01*
X109957382Y-71231893D01*
X110064859Y-71237125D01*
X110065242Y-71237094D01*
X110065243Y-71237094D01*
X110131075Y-71231770D01*
X110180202Y-71227797D01*
X110195873Y-71225071D01*
X110300008Y-71206959D01*
X110300015Y-71206957D01*
X110300202Y-71206925D01*
X110371968Y-71189552D01*
X110421540Y-71177552D01*
X110421554Y-71177548D01*
X110421650Y-71177525D01*
X110421767Y-71177491D01*
X110533664Y-71144851D01*
X110542565Y-71145824D01*
X110546213Y-71148948D01*
X110686573Y-71331374D01*
X110689000Y-71338509D01*
X110689000Y-71641259D01*
X110685573Y-71649532D01*
X110677113Y-71652956D01*
X110199740Y-71645268D01*
X110191524Y-71641709D01*
X110189015Y-71637121D01*
X110167181Y-71529114D01*
X110115058Y-71443445D01*
X110041411Y-71380095D01*
X109953384Y-71331048D01*
X109858124Y-71288287D01*
X109762778Y-71243794D01*
X109674490Y-71189552D01*
X109600407Y-71117545D01*
X109547674Y-71019755D01*
X109525840Y-70901199D01*
X109527715Y-70892521D01*
X109535242Y-70887670D01*
X109536747Y-70887496D01*
X109607909Y-70883916D01*
X109639937Y-70882305D01*
X109648372Y-70885312D01*
G37*
%TD.AperFunction*%
%TD*%
%TA.AperFunction,Conductor*%
%TO.N,D2{slash}SDA*%
G36*
X98349440Y-63652627D02*
G01*
X98420760Y-63727489D01*
X98421176Y-63727949D01*
X98482916Y-63800055D01*
X98483308Y-63800538D01*
X98533915Y-63866419D01*
X98534215Y-63866827D01*
X98577881Y-63929079D01*
X98578031Y-63929299D01*
X98618832Y-63990378D01*
X98660838Y-64052704D01*
X98660899Y-64052789D01*
X98707982Y-64118491D01*
X98707999Y-64118513D01*
X98708063Y-64118603D01*
X98708128Y-64118686D01*
X98708144Y-64118707D01*
X98764508Y-64190398D01*
X98764609Y-64190526D01*
X98764702Y-64190632D01*
X98764712Y-64190645D01*
X98834488Y-64270827D01*
X98834577Y-64270929D01*
X98834669Y-64271025D01*
X98834679Y-64271036D01*
X98914147Y-64353996D01*
X98917395Y-64362341D01*
X98913971Y-64370362D01*
X98839887Y-64444446D01*
X98831614Y-64447873D01*
X98824046Y-64445095D01*
X98764423Y-64394507D01*
X98764422Y-64394506D01*
X98755556Y-64386984D01*
X98683658Y-64348301D01*
X98654072Y-64341230D01*
X98654069Y-64341229D01*
X98653789Y-64341162D01*
X98623916Y-64334023D01*
X98614908Y-64331870D01*
X98608793Y-64332022D01*
X98608792Y-64332022D01*
X98608342Y-64332033D01*
X98608338Y-64332033D01*
X98548240Y-64333529D01*
X98548238Y-64333529D01*
X98547644Y-64333544D01*
X98547067Y-64333678D01*
X98547065Y-64333678D01*
X98480564Y-64349088D01*
X98480559Y-64349090D01*
X98480203Y-64349172D01*
X98410924Y-64374606D01*
X98410758Y-64374677D01*
X98338226Y-64405663D01*
X98338145Y-64405698D01*
X98260493Y-64438177D01*
X98259892Y-64438408D01*
X98175972Y-64468068D01*
X98174894Y-64468392D01*
X98090593Y-64489338D01*
X98081738Y-64488007D01*
X98077733Y-64483992D01*
X98024173Y-64394507D01*
X97992661Y-64341860D01*
X97991000Y-64335851D01*
X97991000Y-63824451D01*
X97994427Y-63816178D01*
X97997602Y-63813920D01*
X98335871Y-63650166D01*
X98344811Y-63649646D01*
X98349440Y-63652627D01*
G37*
%TD.AperFunction*%
%TD*%
%TA.AperFunction,Conductor*%
%TO.N,IO10*%
G36*
X110547956Y-72414199D02*
G01*
X110552417Y-72417803D01*
X110686659Y-72596763D01*
X110689000Y-72603784D01*
X110689000Y-73052413D01*
X110685573Y-73060686D01*
X110682715Y-73062785D01*
X110344092Y-73239562D01*
X110335172Y-73240353D01*
X110330372Y-73237431D01*
X110261659Y-73168183D01*
X110261589Y-73168112D01*
X110198515Y-73103459D01*
X110198446Y-73103388D01*
X110143801Y-73046414D01*
X110143745Y-73046354D01*
X110094481Y-72994265D01*
X110094451Y-72994234D01*
X110047227Y-72943931D01*
X109998945Y-72892571D01*
X109946423Y-72837219D01*
X109886476Y-72774942D01*
X109815921Y-72702806D01*
X109739790Y-72626149D01*
X109736392Y-72617865D01*
X109739819Y-72609632D01*
X109813831Y-72535620D01*
X109822104Y-72532193D01*
X109829583Y-72534895D01*
X109868271Y-72567051D01*
X109896442Y-72590466D01*
X109966731Y-72624622D01*
X110033828Y-72634953D01*
X110087198Y-72627553D01*
X110098690Y-72625960D01*
X110098692Y-72625960D01*
X110099316Y-72625873D01*
X110164781Y-72601793D01*
X110231806Y-72567125D01*
X110287178Y-72534895D01*
X110301933Y-72526307D01*
X110302034Y-72526249D01*
X110376572Y-72483848D01*
X110377192Y-72483520D01*
X110457534Y-72443992D01*
X110458647Y-72443514D01*
X110539009Y-72413849D01*
X110547956Y-72414199D01*
G37*
%TD.AperFunction*%
%TD*%
%TA.AperFunction,Conductor*%
%TO.N,D15{slash}SCK*%
G36*
X110508193Y-68622875D02*
G01*
X110544618Y-68662887D01*
X110685952Y-68818139D01*
X110689000Y-68826015D01*
X110689000Y-69301850D01*
X110685573Y-69310123D01*
X110684835Y-69310800D01*
X110644979Y-69344331D01*
X110449223Y-69509018D01*
X110440686Y-69511722D01*
X110435423Y-69509944D01*
X110353328Y-69457853D01*
X110352471Y-69457254D01*
X110313447Y-69427240D01*
X110278780Y-69400576D01*
X110278190Y-69400091D01*
X110214946Y-69344409D01*
X110214762Y-69344242D01*
X110157503Y-69291064D01*
X110157488Y-69291051D01*
X110157439Y-69291005D01*
X110101640Y-69241838D01*
X110042875Y-69198307D01*
X110042532Y-69198119D01*
X110042528Y-69198116D01*
X110007301Y-69178767D01*
X109976563Y-69161883D01*
X109898118Y-69134041D01*
X109802958Y-69116256D01*
X109802583Y-69116236D01*
X109802576Y-69116235D01*
X109731005Y-69112391D01*
X109697571Y-69110595D01*
X109689495Y-69106729D01*
X109686500Y-69098912D01*
X109686500Y-68994114D01*
X109689927Y-68985841D01*
X109697598Y-68982430D01*
X109808108Y-68976749D01*
X109808455Y-68976688D01*
X109808462Y-68976687D01*
X109907440Y-68959220D01*
X109907848Y-68959148D01*
X109908240Y-68959019D01*
X109990184Y-68932052D01*
X109990188Y-68932050D01*
X109990584Y-68931920D01*
X110061184Y-68896787D01*
X110124513Y-68855474D01*
X110185437Y-68809704D01*
X110185491Y-68809663D01*
X110248629Y-68761349D01*
X110249028Y-68761057D01*
X110290448Y-68732055D01*
X110319164Y-68711948D01*
X110319927Y-68711457D01*
X110401949Y-68663178D01*
X110402961Y-68662647D01*
X110494619Y-68620138D01*
X110503566Y-68619766D01*
X110508193Y-68622875D01*
G37*
%TD.AperFunction*%
%TD*%
%TA.AperFunction,Conductor*%
%TO.N,D7*%
G36*
X98382713Y-70042923D02*
G01*
X98386946Y-70046565D01*
X98425879Y-70101183D01*
X98449507Y-70134331D01*
X98450183Y-70135397D01*
X98498611Y-70221703D01*
X98499138Y-70222763D01*
X98534164Y-70303335D01*
X98534480Y-70304142D01*
X98561413Y-70381253D01*
X98561517Y-70381567D01*
X98585534Y-70457127D01*
X98585559Y-70457205D01*
X98611923Y-70533210D01*
X98645839Y-70611423D01*
X98692596Y-70693865D01*
X98757481Y-70782556D01*
X98757688Y-70782783D01*
X98757691Y-70782787D01*
X98838264Y-70871264D01*
X98841300Y-70879688D01*
X98837886Y-70887415D01*
X98763777Y-70961524D01*
X98755504Y-70964951D01*
X98747736Y-70962000D01*
X98680555Y-70902347D01*
X98677253Y-70899415D01*
X98634108Y-70871264D01*
X98604574Y-70851993D01*
X98604569Y-70851990D01*
X98604127Y-70851702D01*
X98567792Y-70836522D01*
X98535207Y-70822909D01*
X98535203Y-70822908D01*
X98534684Y-70822691D01*
X98467005Y-70808890D01*
X98466505Y-70808875D01*
X98466499Y-70808874D01*
X98428089Y-70807696D01*
X98399172Y-70806809D01*
X98398831Y-70806839D01*
X98398830Y-70806839D01*
X98389619Y-70807649D01*
X98329266Y-70812956D01*
X98255370Y-70823840D01*
X98175769Y-70835938D01*
X98175351Y-70835993D01*
X98140908Y-70839877D01*
X98088336Y-70845806D01*
X98087523Y-70845869D01*
X98045862Y-70847644D01*
X98003197Y-70849461D01*
X97994786Y-70846390D01*
X97991000Y-70837772D01*
X97991000Y-70175848D01*
X97994427Y-70167575D01*
X97999065Y-70164727D01*
X98373785Y-70042236D01*
X98382713Y-70042923D01*
G37*
%TD.AperFunction*%
%TD*%
%TA.AperFunction,Conductor*%
%TO.N,IO12*%
G36*
X104692596Y-73178222D02*
G01*
X104825197Y-73218909D01*
X104933743Y-73274493D01*
X105025557Y-73339972D01*
X105107964Y-73410347D01*
X105188284Y-73480616D01*
X105273840Y-73545780D01*
X105371956Y-73600838D01*
X105489955Y-73640789D01*
X105627213Y-73659548D01*
X105634545Y-73664007D01*
X105636622Y-73668867D01*
X105721355Y-74145251D01*
X105719430Y-74153997D01*
X105711885Y-74158819D01*
X105709836Y-74159000D01*
X105112939Y-74159000D01*
X105104666Y-74155573D01*
X105101399Y-74149231D01*
X105094513Y-74108085D01*
X105094463Y-74107756D01*
X105074918Y-73966327D01*
X105055557Y-73832207D01*
X105055554Y-73832192D01*
X105055538Y-73832078D01*
X105031552Y-73707399D01*
X104998161Y-73594502D01*
X104974715Y-73545780D01*
X104950861Y-73496210D01*
X104950859Y-73496207D01*
X104950568Y-73495602D01*
X104950147Y-73495080D01*
X104950145Y-73495076D01*
X104884481Y-73413542D01*
X104883976Y-73412915D01*
X104860021Y-73395884D01*
X104858534Y-73394628D01*
X104812932Y-73349105D01*
X104812929Y-73349103D01*
X104812247Y-73348422D01*
X104811378Y-73347997D01*
X104700156Y-73293630D01*
X104700154Y-73293629D01*
X104699339Y-73293231D01*
X104625781Y-73282500D01*
X104534623Y-73282500D01*
X104526350Y-73279073D01*
X104522938Y-73270211D01*
X104527986Y-73170023D01*
X104531825Y-73161933D01*
X104541092Y-73159014D01*
X104692596Y-73178222D01*
G37*
%TD.AperFunction*%
%TD*%
%TA.AperFunction,Conductor*%
%TO.N,D5*%
G36*
X98185381Y-67350138D02*
G01*
X98277038Y-67392647D01*
X98278050Y-67393178D01*
X98360072Y-67441457D01*
X98360835Y-67441948D01*
X98389551Y-67462055D01*
X98430971Y-67491057D01*
X98431370Y-67491349D01*
X98494508Y-67539663D01*
X98494562Y-67539704D01*
X98555486Y-67585474D01*
X98618815Y-67626787D01*
X98689415Y-67661920D01*
X98689811Y-67662050D01*
X98689815Y-67662052D01*
X98771759Y-67689019D01*
X98772151Y-67689148D01*
X98772559Y-67689220D01*
X98871537Y-67706687D01*
X98871544Y-67706688D01*
X98871891Y-67706749D01*
X98982402Y-67712430D01*
X98990487Y-67716276D01*
X98993500Y-67724114D01*
X98993500Y-67828912D01*
X98990073Y-67837185D01*
X98982429Y-67840595D01*
X98948487Y-67842418D01*
X98877423Y-67846235D01*
X98877416Y-67846236D01*
X98877041Y-67846256D01*
X98781881Y-67864041D01*
X98703436Y-67891883D01*
X98672698Y-67908767D01*
X98637471Y-67928116D01*
X98637467Y-67928119D01*
X98637124Y-67928307D01*
X98578359Y-67971838D01*
X98522560Y-68021005D01*
X98522511Y-68021051D01*
X98522496Y-68021064D01*
X98465237Y-68074242D01*
X98465053Y-68074409D01*
X98401809Y-68130091D01*
X98401219Y-68130576D01*
X98366552Y-68157240D01*
X98327528Y-68187254D01*
X98326680Y-68187847D01*
X98246037Y-68239018D01*
X98244578Y-68239944D01*
X98235756Y-68241483D01*
X98230777Y-68239018D01*
X98035021Y-68074331D01*
X97995168Y-68040803D01*
X97991043Y-68032855D01*
X97991000Y-68031850D01*
X97991000Y-67556015D01*
X97994048Y-67548139D01*
X98135382Y-67392887D01*
X98171807Y-67352876D01*
X98179910Y-67349065D01*
X98185381Y-67350138D01*
G37*
%TD.AperFunction*%
%TD*%
%TA.AperFunction,Conductor*%
%TO.N,IO11*%
G36*
X107047129Y-73166521D02*
G01*
X107050542Y-73174225D01*
X107056188Y-73290221D01*
X107073407Y-73395053D01*
X107073516Y-73395417D01*
X107086449Y-73438622D01*
X107099635Y-73482675D01*
X107132850Y-73558171D01*
X107171031Y-73626624D01*
X107171095Y-73626727D01*
X107212132Y-73693080D01*
X107212196Y-73693185D01*
X107254029Y-73762448D01*
X107254368Y-73763049D01*
X107294908Y-73840098D01*
X107295357Y-73841053D01*
X107303162Y-73859853D01*
X107332758Y-73931140D01*
X107333163Y-73932279D01*
X107363222Y-74032965D01*
X107362305Y-74041873D01*
X107358557Y-74046009D01*
X107194153Y-74156997D01*
X107187607Y-74159000D01*
X106682039Y-74159000D01*
X106673766Y-74155573D01*
X106672093Y-74153462D01*
X106490167Y-73859853D01*
X106488723Y-73851016D01*
X106491217Y-73846092D01*
X106495516Y-73841060D01*
X106551615Y-73775384D01*
X106552247Y-73774701D01*
X106616273Y-73710818D01*
X106616708Y-73710405D01*
X106678110Y-73655121D01*
X106678192Y-73655049D01*
X106735487Y-73604421D01*
X106735521Y-73604389D01*
X106735619Y-73604303D01*
X106783385Y-73558171D01*
X106787459Y-73554236D01*
X106787463Y-73554232D01*
X106787676Y-73554026D01*
X106787869Y-73553796D01*
X106787876Y-73553789D01*
X106832771Y-73500404D01*
X106832772Y-73500403D01*
X106833066Y-73500053D01*
X106870540Y-73438180D01*
X106898853Y-73364200D01*
X106916142Y-73276998D01*
X106916142Y-73276997D01*
X106916755Y-73273906D01*
X106916868Y-73271910D01*
X106916869Y-73271895D01*
X106922378Y-73174136D01*
X106926264Y-73166068D01*
X106934059Y-73163094D01*
X107038856Y-73163094D01*
X107047129Y-73166521D01*
G37*
%TD.AperFunction*%
%TD*%
%TA.AperFunction,Conductor*%
%TO.N,D0{slash}RX*%
G36*
X98382713Y-59882923D02*
G01*
X98386946Y-59886565D01*
X98425879Y-59941183D01*
X98449507Y-59974331D01*
X98450183Y-59975397D01*
X98498611Y-60061703D01*
X98499138Y-60062763D01*
X98534164Y-60143335D01*
X98534480Y-60144142D01*
X98561413Y-60221253D01*
X98561517Y-60221567D01*
X98585534Y-60297127D01*
X98585559Y-60297205D01*
X98611923Y-60373210D01*
X98645839Y-60451423D01*
X98692596Y-60533865D01*
X98757481Y-60622556D01*
X98757688Y-60622783D01*
X98757691Y-60622787D01*
X98838264Y-60711264D01*
X98841300Y-60719688D01*
X98837886Y-60727415D01*
X98763777Y-60801524D01*
X98755504Y-60804951D01*
X98747736Y-60802000D01*
X98680555Y-60742347D01*
X98677253Y-60739415D01*
X98634108Y-60711264D01*
X98604574Y-60691993D01*
X98604569Y-60691990D01*
X98604127Y-60691702D01*
X98567792Y-60676522D01*
X98535207Y-60662909D01*
X98535203Y-60662908D01*
X98534684Y-60662691D01*
X98467005Y-60648890D01*
X98466505Y-60648875D01*
X98466499Y-60648874D01*
X98428089Y-60647696D01*
X98399172Y-60646809D01*
X98398831Y-60646839D01*
X98398830Y-60646839D01*
X98389619Y-60647649D01*
X98329266Y-60652956D01*
X98255370Y-60663840D01*
X98175769Y-60675938D01*
X98175351Y-60675993D01*
X98140908Y-60679877D01*
X98088336Y-60685806D01*
X98087523Y-60685869D01*
X98045862Y-60687644D01*
X98003197Y-60689461D01*
X97994786Y-60686390D01*
X97991000Y-60677772D01*
X97991000Y-60015848D01*
X97994427Y-60007575D01*
X97999065Y-60004727D01*
X98373785Y-59882236D01*
X98382713Y-59882923D01*
G37*
%TD.AperFunction*%
%TD*%
%TA.AperFunction,Conductor*%
%TO.N,D3{slash}SCL*%
G36*
X98331646Y-64904280D02*
G01*
X98414012Y-64971604D01*
X98495784Y-65024663D01*
X98572659Y-65063411D01*
X98646670Y-65092980D01*
X98719848Y-65118502D01*
X98794228Y-65145109D01*
X98871842Y-65177936D01*
X98954723Y-65222113D01*
X99044903Y-65282773D01*
X99135015Y-65357277D01*
X99139191Y-65365173D01*
X99136221Y-65374115D01*
X99066370Y-65451380D01*
X99058280Y-65455219D01*
X99050777Y-65452947D01*
X98967839Y-65391165D01*
X98883289Y-65356293D01*
X98821774Y-65351347D01*
X98821769Y-65351346D01*
X98820851Y-65351273D01*
X98819359Y-65351153D01*
X98803793Y-65349901D01*
X98787687Y-65353566D01*
X98787686Y-65353566D01*
X98787266Y-65353661D01*
X98787263Y-65353662D01*
X98771465Y-65357257D01*
X98727549Y-65367250D01*
X98652751Y-65403602D01*
X98577597Y-65454218D01*
X98500283Y-65514359D01*
X98419158Y-65579162D01*
X98418855Y-65579396D01*
X98332306Y-65643997D01*
X98331602Y-65644483D01*
X98244582Y-65699922D01*
X98235764Y-65701477D01*
X98230764Y-65699007D01*
X98011293Y-65514369D01*
X97995168Y-65500803D01*
X97991043Y-65492855D01*
X97991000Y-65491850D01*
X97991000Y-65126917D01*
X97994427Y-65118644D01*
X97996237Y-65117164D01*
X98032733Y-65092980D01*
X98318198Y-64903814D01*
X98326986Y-64902101D01*
X98331646Y-64904280D01*
G37*
%TD.AperFunction*%
%TD*%
%TA.AperFunction,Conductor*%
%TO.N,GND*%
G36*
X98974193Y-71367847D02*
G01*
X99341658Y-71735311D01*
X99350496Y-71746430D01*
X99358225Y-71758824D01*
X99358708Y-71759309D01*
X99361706Y-71761193D01*
X99367741Y-71764986D01*
X99375071Y-71770375D01*
X99423413Y-71811662D01*
X99451009Y-71835230D01*
X99464551Y-71846796D01*
X99466643Y-71848078D01*
X99466650Y-71848083D01*
X99557088Y-71903501D01*
X99581472Y-71918443D01*
X99708162Y-71970919D01*
X99710549Y-71971492D01*
X99710552Y-71971493D01*
X99839108Y-72002355D01*
X99839114Y-72002356D01*
X99841501Y-72002929D01*
X99957982Y-72012095D01*
X99967186Y-72013515D01*
X99977522Y-72015911D01*
X99978206Y-72015912D01*
X99981644Y-72015128D01*
X99981650Y-72015127D01*
X99992879Y-72012565D01*
X100006779Y-72011000D01*
X100774651Y-72011000D01*
X100788766Y-72012615D01*
X100802983Y-72015911D01*
X100803667Y-72015912D01*
X100813884Y-72013582D01*
X100821634Y-72012322D01*
X100882352Y-72006345D01*
X100926229Y-72002026D01*
X100926233Y-72002025D01*
X100929293Y-72001724D01*
X101004904Y-71978790D01*
X101047151Y-71965976D01*
X101047153Y-71965975D01*
X101050091Y-71965084D01*
X101161420Y-71905580D01*
X101163794Y-71903632D01*
X101244395Y-71837486D01*
X101250969Y-71832769D01*
X101252630Y-71831733D01*
X101259796Y-71827264D01*
X101260281Y-71826781D01*
X101262548Y-71823173D01*
X101265770Y-71818049D01*
X101270370Y-71811662D01*
X101337141Y-71730299D01*
X101337142Y-71730297D01*
X101339089Y-71727925D01*
X101341378Y-71723643D01*
X101341843Y-71723261D01*
X101342242Y-71722664D01*
X101342423Y-71722785D01*
X101378353Y-71693293D01*
X101425958Y-71697979D01*
X101456308Y-71734954D01*
X101459000Y-71753101D01*
X101459000Y-72724088D01*
X101457386Y-72738200D01*
X101454089Y-72752425D01*
X101454088Y-72753109D01*
X101454874Y-72756553D01*
X101456254Y-72762604D01*
X101457518Y-72770377D01*
X101467551Y-72872227D01*
X101468521Y-72882077D01*
X101469410Y-72885009D01*
X101469411Y-72885012D01*
X101485300Y-72937387D01*
X101506141Y-73006089D01*
X101529031Y-73048913D01*
X101565980Y-73118039D01*
X101570669Y-73165644D01*
X101540322Y-73202621D01*
X101510860Y-73210001D01*
X101497706Y-73210001D01*
X101494762Y-73210140D01*
X101468515Y-73212620D01*
X101461135Y-73214239D01*
X101341463Y-73256264D01*
X101333293Y-73260591D01*
X101231965Y-73335433D01*
X101225433Y-73341965D01*
X101150591Y-73443293D01*
X101146264Y-73451463D01*
X101104240Y-73571133D01*
X101102620Y-73578517D01*
X101100138Y-73604765D01*
X101100000Y-73607704D01*
X101100001Y-73970000D01*
X101081695Y-74014194D01*
X101037501Y-74032500D01*
X98180000Y-74032500D01*
X98135806Y-74014194D01*
X98117500Y-73970000D01*
X98117500Y-73607170D01*
X98135806Y-73562976D01*
X98157908Y-73548705D01*
X98229813Y-73521534D01*
X98251905Y-73517499D01*
X98525780Y-73517499D01*
X98599979Y-73506578D01*
X98604338Y-73504438D01*
X98708155Y-73453466D01*
X98708156Y-73453465D01*
X98712790Y-73451190D01*
X98716437Y-73447537D01*
X98797930Y-73365902D01*
X98797932Y-73365900D01*
X98801578Y-73362247D01*
X98835372Y-73293112D01*
X98854638Y-73253699D01*
X98854638Y-73253698D01*
X98856769Y-73249339D01*
X98858537Y-73237224D01*
X98860860Y-73221296D01*
X98867500Y-73175781D01*
X98867499Y-72604220D01*
X98856578Y-72530021D01*
X98834341Y-72484729D01*
X98803466Y-72421845D01*
X98803465Y-72421844D01*
X98801190Y-72417210D01*
X98795244Y-72411274D01*
X98715902Y-72332070D01*
X98715900Y-72332068D01*
X98712247Y-72328422D01*
X98676869Y-72311129D01*
X98645203Y-72275275D01*
X98648165Y-72227531D01*
X98676770Y-72198876D01*
X98708153Y-72183467D01*
X98708154Y-72183466D01*
X98712790Y-72181190D01*
X98716437Y-72177537D01*
X98797930Y-72095902D01*
X98797932Y-72095900D01*
X98801578Y-72092247D01*
X98840647Y-72012321D01*
X98854638Y-71983699D01*
X98854638Y-71983698D01*
X98856769Y-71979339D01*
X98858135Y-71969979D01*
X98867172Y-71908027D01*
X98867500Y-71905781D01*
X98867499Y-71412041D01*
X98885805Y-71367847D01*
X98929999Y-71349541D01*
X98974193Y-71367847D01*
G37*
%TD.AperFunction*%
%TA.AperFunction,Conductor*%
G36*
X106954162Y-68700058D02*
G01*
X106969409Y-68716992D01*
X106981594Y-68736879D01*
X107013175Y-68788421D01*
X107032566Y-68811127D01*
X107089234Y-68877485D01*
X107094738Y-68884999D01*
X107100202Y-68893762D01*
X107100685Y-68894246D01*
X107103669Y-68896121D01*
X107103673Y-68896125D01*
X107113430Y-68902258D01*
X107124363Y-68910978D01*
X108021850Y-69808464D01*
X108030630Y-69819491D01*
X108038496Y-69832057D01*
X108044449Y-69835814D01*
X108047159Y-69838533D01*
X108058109Y-69848199D01*
X108099141Y-69898203D01*
X108105942Y-69908384D01*
X108145340Y-69982101D01*
X108150028Y-69993419D01*
X108153236Y-70003998D01*
X108174287Y-70073410D01*
X108176676Y-70085426D01*
X108182980Y-70149468D01*
X108182176Y-70162003D01*
X108182166Y-70167530D01*
X108180588Y-70174389D01*
X108182141Y-70181254D01*
X108183960Y-70189295D01*
X108185500Y-70203085D01*
X108185500Y-70862226D01*
X108183885Y-70876343D01*
X108180589Y-70890558D01*
X108180588Y-70891242D01*
X108182959Y-70901640D01*
X108184330Y-70910632D01*
X108185849Y-70929942D01*
X108193556Y-71027952D01*
X108194129Y-71030338D01*
X108194129Y-71030340D01*
X108200141Y-71055388D01*
X108225561Y-71161296D01*
X108278031Y-71287993D01*
X108279316Y-71290090D01*
X108348392Y-71402828D01*
X108348396Y-71402833D01*
X108349675Y-71404921D01*
X108377219Y-71437174D01*
X108425734Y-71493985D01*
X108431238Y-71501499D01*
X108436702Y-71510262D01*
X108437185Y-71510746D01*
X108440169Y-71512621D01*
X108440173Y-71512625D01*
X108449930Y-71518758D01*
X108460863Y-71527478D01*
X109627310Y-72693924D01*
X109635202Y-72703573D01*
X109645776Y-72719518D01*
X109647938Y-72721695D01*
X109721428Y-72795693D01*
X109721763Y-72796033D01*
X109791257Y-72867085D01*
X109791604Y-72867443D01*
X109795028Y-72871000D01*
X109812500Y-72914344D01*
X109812501Y-73175780D01*
X109823422Y-73249979D01*
X109825562Y-73254337D01*
X109825562Y-73254338D01*
X109873740Y-73352463D01*
X109878810Y-73362790D01*
X109882462Y-73366436D01*
X109882463Y-73366437D01*
X109964098Y-73447930D01*
X109964100Y-73447932D01*
X109967753Y-73451578D01*
X110080661Y-73506769D01*
X110085464Y-73507470D01*
X110085465Y-73507470D01*
X110107440Y-73510676D01*
X110154219Y-73517500D01*
X110428016Y-73517500D01*
X110450719Y-73521769D01*
X110520776Y-73549083D01*
X110520138Y-73550720D01*
X110553800Y-73576000D01*
X110562500Y-73607809D01*
X110562500Y-73970000D01*
X110544194Y-74014194D01*
X110500000Y-74032500D01*
X107593389Y-74032500D01*
X107549195Y-74014194D01*
X107532616Y-73984590D01*
X107518663Y-73926472D01*
X107517784Y-73922810D01*
X107516058Y-73919465D01*
X107516056Y-73919461D01*
X107514461Y-73916371D01*
X107507499Y-73887705D01*
X107507499Y-73624220D01*
X107496578Y-73550021D01*
X107482707Y-73521769D01*
X107443466Y-73441845D01*
X107443465Y-73441844D01*
X107441190Y-73437210D01*
X107419854Y-73415911D01*
X107355902Y-73352070D01*
X107355900Y-73352068D01*
X107352247Y-73348422D01*
X107243699Y-73295362D01*
X107243697Y-73295361D01*
X107243696Y-73295361D01*
X107239339Y-73293231D01*
X107234537Y-73292530D01*
X107230105Y-73291161D01*
X107193286Y-73260622D01*
X107186132Y-73234486D01*
X107183025Y-73170654D01*
X107183025Y-73170651D01*
X107182885Y-73167783D01*
X107182224Y-73164995D01*
X107182223Y-73164989D01*
X107179186Y-73152184D01*
X107177500Y-73137763D01*
X107177500Y-69517479D01*
X107179113Y-69503370D01*
X107181613Y-69492581D01*
X107182411Y-69489138D01*
X107182412Y-69488454D01*
X107181136Y-69482860D01*
X107179872Y-69475093D01*
X107170811Y-69383152D01*
X107166517Y-69339576D01*
X107160342Y-69319220D01*
X107132509Y-69227483D01*
X107123085Y-69196420D01*
X107117369Y-69185726D01*
X107054009Y-69067194D01*
X107054007Y-69067191D01*
X107052561Y-69064486D01*
X107050616Y-69062116D01*
X107050614Y-69062113D01*
X106966904Y-68960115D01*
X106962185Y-68953538D01*
X106960887Y-68951456D01*
X106960883Y-68951451D01*
X106959014Y-68948454D01*
X106958775Y-68948214D01*
X106958773Y-68948211D01*
X106958770Y-68948209D01*
X106958531Y-68947969D01*
X106955539Y-68946089D01*
X106955243Y-68945852D01*
X106954869Y-68945517D01*
X106954331Y-68945124D01*
X106952753Y-68943862D01*
X106952864Y-68943724D01*
X106950072Y-68941226D01*
X106949248Y-68940402D01*
X106949368Y-68940282D01*
X106939875Y-68931635D01*
X106939614Y-68931294D01*
X106924243Y-68911263D01*
X106900088Y-68879783D01*
X106891931Y-68865655D01*
X106860516Y-68789819D01*
X106856293Y-68774062D01*
X106854152Y-68757807D01*
X106866530Y-68711600D01*
X106907955Y-68687680D01*
X106954162Y-68700058D01*
G37*
%TD.AperFunction*%
%TA.AperFunction,Conductor*%
G36*
X105401194Y-68013836D02*
G01*
X105414741Y-68034110D01*
X105436935Y-68087683D01*
X105439846Y-68094711D01*
X105442340Y-68097961D01*
X105442342Y-68097964D01*
X105475718Y-68141452D01*
X105479165Y-68146424D01*
X105489614Y-68163174D01*
X105490097Y-68163658D01*
X105499138Y-68169339D01*
X105502827Y-68171657D01*
X105513768Y-68180383D01*
X105592529Y-68259144D01*
X105601279Y-68270124D01*
X105604511Y-68275276D01*
X105612490Y-68322442D01*
X105608748Y-68333297D01*
X105608340Y-68334631D01*
X105606447Y-68338663D01*
X105605762Y-68343061D01*
X105605762Y-68343062D01*
X105602588Y-68363448D01*
X105584391Y-68480323D01*
X105584968Y-68484736D01*
X105584968Y-68484738D01*
X105589850Y-68522070D01*
X105602980Y-68622479D01*
X105604773Y-68626554D01*
X105656659Y-68744473D01*
X105660720Y-68753703D01*
X105663584Y-68757110D01*
X105750107Y-68860043D01*
X105750110Y-68860046D01*
X105752970Y-68863448D01*
X105872313Y-68942890D01*
X105889415Y-68948233D01*
X106004905Y-68984314D01*
X106004908Y-68984314D01*
X106009157Y-68985642D01*
X106013609Y-68985724D01*
X106013611Y-68985724D01*
X106084642Y-68987026D01*
X106152499Y-68988270D01*
X106290817Y-68950560D01*
X106379729Y-68895968D01*
X106405765Y-68879982D01*
X106453005Y-68872458D01*
X106491730Y-68900541D01*
X106498276Y-68915099D01*
X106505910Y-68940260D01*
X106516927Y-68976575D01*
X106518372Y-68979279D01*
X106518374Y-68979283D01*
X106544536Y-69028226D01*
X106587449Y-69108507D01*
X106589394Y-69110877D01*
X106673046Y-69212805D01*
X106677763Y-69219378D01*
X106680986Y-69224546D01*
X106681225Y-69224786D01*
X106681227Y-69224789D01*
X106681230Y-69224791D01*
X106681469Y-69225031D01*
X106684461Y-69226911D01*
X106684757Y-69227148D01*
X106685131Y-69227483D01*
X106685669Y-69227876D01*
X106687247Y-69229138D01*
X106687136Y-69229276D01*
X106689928Y-69231774D01*
X106690752Y-69232598D01*
X106690636Y-69232714D01*
X106700154Y-69241383D01*
X106739923Y-69293210D01*
X106748080Y-69307336D01*
X106774519Y-69371158D01*
X106779498Y-69383178D01*
X106783720Y-69398934D01*
X106789616Y-69443699D01*
X106792219Y-69463462D01*
X106791706Y-69474236D01*
X106792177Y-69474237D01*
X106792165Y-69481277D01*
X106790588Y-69488136D01*
X106792142Y-69495001D01*
X106793958Y-69503025D01*
X106795500Y-69516822D01*
X106795500Y-73137776D01*
X106793517Y-73153392D01*
X106790088Y-73166680D01*
X106789915Y-73169742D01*
X106789915Y-73169745D01*
X106786885Y-73223517D01*
X106766122Y-73266612D01*
X106724484Y-73282501D01*
X106594220Y-73282501D01*
X106520021Y-73293422D01*
X106515663Y-73295562D01*
X106515662Y-73295562D01*
X106411845Y-73346534D01*
X106411844Y-73346535D01*
X106407210Y-73348810D01*
X106403564Y-73352462D01*
X106403563Y-73352463D01*
X106322070Y-73434098D01*
X106322068Y-73434100D01*
X106318422Y-73437753D01*
X106311721Y-73451463D01*
X106301129Y-73473131D01*
X106265275Y-73504797D01*
X106217531Y-73501835D01*
X106188876Y-73473230D01*
X106173467Y-73441847D01*
X106173466Y-73441845D01*
X106171190Y-73437210D01*
X106149854Y-73415911D01*
X106085902Y-73352070D01*
X106085900Y-73352068D01*
X106082247Y-73348422D01*
X105969339Y-73293231D01*
X105964536Y-73292530D01*
X105964535Y-73292530D01*
X105939274Y-73288845D01*
X105895781Y-73282500D01*
X105610755Y-73282500D01*
X105324220Y-73282501D01*
X105250021Y-73293422D01*
X105249946Y-73292911D01*
X105205591Y-73288845D01*
X105196417Y-73282945D01*
X105137367Y-73237224D01*
X105137110Y-73237025D01*
X105132589Y-73233676D01*
X105131776Y-73233100D01*
X105131521Y-73232927D01*
X105131483Y-73232901D01*
X105127377Y-73230122D01*
X105127088Y-73229926D01*
X105117170Y-73223517D01*
X105026431Y-73164886D01*
X105026430Y-73164885D01*
X105026010Y-73164614D01*
X105025598Y-73164367D01*
X105025570Y-73164349D01*
X105021674Y-73162009D01*
X105018595Y-73160159D01*
X105017258Y-73159414D01*
X105016820Y-73159188D01*
X105016795Y-73159175D01*
X105010020Y-73155686D01*
X105009535Y-73155436D01*
X104990629Y-73146471D01*
X104958543Y-73110997D01*
X104960937Y-73063221D01*
X104996413Y-73031133D01*
X105017410Y-73027500D01*
X105085334Y-73027500D01*
X105099442Y-73029113D01*
X105113675Y-73032411D01*
X105114359Y-73032412D01*
X105117794Y-73031628D01*
X105117804Y-73031627D01*
X105125771Y-73029809D01*
X105134765Y-73028436D01*
X105185650Y-73024427D01*
X105242504Y-73019949D01*
X105367494Y-72989935D01*
X105369766Y-72988994D01*
X105404719Y-72974515D01*
X105416329Y-72970981D01*
X105425483Y-72969142D01*
X105435515Y-72967127D01*
X105438350Y-72965946D01*
X105438355Y-72965945D01*
X105476821Y-72949928D01*
X105477011Y-72949849D01*
X105478750Y-72949111D01*
X105506164Y-72937235D01*
X105549645Y-72934929D01*
X105659157Y-72969142D01*
X105663610Y-72969224D01*
X105663612Y-72969224D01*
X105732791Y-72970492D01*
X105802499Y-72971770D01*
X105940817Y-72934060D01*
X106062991Y-72859045D01*
X106159200Y-72752754D01*
X106221710Y-72623733D01*
X106224610Y-72606499D01*
X106236668Y-72534826D01*
X106245496Y-72482354D01*
X106245647Y-72470000D01*
X106225323Y-72328082D01*
X106165984Y-72197572D01*
X106072400Y-72088963D01*
X105952095Y-72010985D01*
X105939456Y-72007205D01*
X105860856Y-71983699D01*
X105814739Y-71969907D01*
X105743058Y-71969469D01*
X105675829Y-71969058D01*
X105675828Y-71969058D01*
X105671376Y-71969031D01*
X105533529Y-72008428D01*
X105412280Y-72084930D01*
X105409337Y-72088262D01*
X105409335Y-72088264D01*
X105402117Y-72096437D01*
X105317377Y-72192388D01*
X105256447Y-72322163D01*
X105255762Y-72326561D01*
X105255762Y-72326562D01*
X105254843Y-72332466D01*
X105234391Y-72463823D01*
X105234968Y-72468236D01*
X105234968Y-72468237D01*
X105247955Y-72567549D01*
X105235534Y-72613744D01*
X105192113Y-72637852D01*
X105139748Y-72643013D01*
X105126630Y-72642174D01*
X105121535Y-72642165D01*
X105114673Y-72640588D01*
X105107807Y-72642142D01*
X105099783Y-72643958D01*
X105085986Y-72645500D01*
X102330000Y-72645500D01*
X102285806Y-72627194D01*
X102267500Y-72583000D01*
X102267500Y-71350531D01*
X102269089Y-71336529D01*
X102270835Y-71328934D01*
X102270835Y-71328933D01*
X102272412Y-71322073D01*
X102270858Y-71315208D01*
X102270865Y-71311102D01*
X102269979Y-71296889D01*
X102271079Y-71285720D01*
X102275981Y-71235911D01*
X102276324Y-71232427D01*
X102278713Y-71220410D01*
X102293720Y-71170926D01*
X102302972Y-71140419D01*
X102307659Y-71129102D01*
X102312099Y-71120796D01*
X102347057Y-71055385D01*
X102353862Y-71045200D01*
X102394622Y-70995528D01*
X102404337Y-70986982D01*
X102408056Y-70983275D01*
X102414020Y-70979541D01*
X102422167Y-70966627D01*
X102430833Y-70955781D01*
X104455320Y-68931294D01*
X104466431Y-68922462D01*
X104478830Y-68914729D01*
X104479314Y-68914246D01*
X104484864Y-68905416D01*
X104490249Y-68898090D01*
X104493945Y-68893762D01*
X104566825Y-68808421D01*
X104568104Y-68806333D01*
X104568108Y-68806328D01*
X104627754Y-68708981D01*
X104638469Y-68691493D01*
X104666439Y-68623956D01*
X104670842Y-68615299D01*
X104680723Y-68599117D01*
X104680724Y-68599114D01*
X104682325Y-68596493D01*
X104699833Y-68548810D01*
X104700494Y-68546966D01*
X104700603Y-68546655D01*
X104701179Y-68544977D01*
X104718867Y-68492258D01*
X104719662Y-68489810D01*
X104720703Y-68486497D01*
X104722874Y-68479582D01*
X104749801Y-68445044D01*
X104817298Y-68403601D01*
X104864537Y-68396077D01*
X104903262Y-68424161D01*
X104912500Y-68456863D01*
X104912500Y-68895968D01*
X104910911Y-68909971D01*
X104907588Y-68924426D01*
X104909142Y-68931289D01*
X104909135Y-68935124D01*
X104910045Y-68949714D01*
X104909330Y-68956980D01*
X104903709Y-69014080D01*
X104901320Y-69026096D01*
X104877713Y-69103938D01*
X104877060Y-69106090D01*
X104872373Y-69117407D01*
X104855213Y-69149517D01*
X104832973Y-69191130D01*
X104826167Y-69201317D01*
X104785472Y-69250911D01*
X104775456Y-69259723D01*
X104771944Y-69263223D01*
X104765979Y-69266958D01*
X104762224Y-69272910D01*
X104757830Y-69279875D01*
X104749164Y-69290721D01*
X103167358Y-70872527D01*
X103156378Y-70881277D01*
X103146915Y-70887213D01*
X103095795Y-70894148D01*
X103014739Y-70869907D01*
X102943058Y-70869469D01*
X102875829Y-70869058D01*
X102875828Y-70869058D01*
X102871376Y-70869031D01*
X102733529Y-70908428D01*
X102612280Y-70984930D01*
X102609337Y-70988262D01*
X102609335Y-70988264D01*
X102547032Y-71058810D01*
X102517377Y-71092388D01*
X102456447Y-71222163D01*
X102434391Y-71363823D01*
X102434968Y-71368236D01*
X102434968Y-71368238D01*
X102441815Y-71420598D01*
X102452980Y-71505979D01*
X102454773Y-71510054D01*
X102507111Y-71629000D01*
X102510720Y-71637203D01*
X102513584Y-71640610D01*
X102600107Y-71743543D01*
X102600110Y-71743546D01*
X102602970Y-71746948D01*
X102722313Y-71826390D01*
X102739415Y-71831733D01*
X102854905Y-71867814D01*
X102854908Y-71867814D01*
X102859157Y-71869142D01*
X102863609Y-71869224D01*
X102863611Y-71869224D01*
X102934642Y-71870526D01*
X103002499Y-71871770D01*
X103140817Y-71834060D01*
X103262991Y-71759045D01*
X103359200Y-71652754D01*
X103421710Y-71523733D01*
X103423977Y-71510262D01*
X103433529Y-71453485D01*
X103445496Y-71382354D01*
X103445647Y-71370000D01*
X103425323Y-71228082D01*
X103421072Y-71218732D01*
X103419444Y-71170926D01*
X103425265Y-71159267D01*
X103425495Y-71158907D01*
X103429360Y-71152844D01*
X103437867Y-71142248D01*
X105018820Y-69561294D01*
X105029931Y-69552462D01*
X105042330Y-69544729D01*
X105042814Y-69544246D01*
X105048364Y-69535416D01*
X105053749Y-69528090D01*
X105130325Y-69438421D01*
X105131604Y-69436333D01*
X105131608Y-69436328D01*
X105190889Y-69339576D01*
X105201969Y-69321493D01*
X105254439Y-69194797D01*
X105276897Y-69101229D01*
X105285871Y-69063840D01*
X105285871Y-69063838D01*
X105286444Y-69061452D01*
X105295608Y-68944912D01*
X105297029Y-68935705D01*
X105297352Y-68934314D01*
X105299411Y-68925426D01*
X105299412Y-68924742D01*
X105296066Y-68910078D01*
X105294500Y-68896174D01*
X105294500Y-68058030D01*
X105312806Y-68013836D01*
X105357000Y-67995530D01*
X105401194Y-68013836D01*
G37*
%TD.AperFunction*%
%TA.AperFunction,Conductor*%
G36*
X102513751Y-68646803D02*
G01*
X102545541Y-68682546D01*
X102549000Y-68703049D01*
X102549000Y-68722875D01*
X102547411Y-68736879D01*
X102544088Y-68751333D01*
X102545642Y-68758196D01*
X102545635Y-68762029D01*
X102546544Y-68776623D01*
X102540208Y-68840984D01*
X102537819Y-68853000D01*
X102513558Y-68932994D01*
X102508870Y-68944315D01*
X102469469Y-69018038D01*
X102462663Y-69028225D01*
X102424371Y-69074888D01*
X102421954Y-69077833D01*
X102412000Y-69086589D01*
X102408444Y-69090133D01*
X102402481Y-69093867D01*
X102398726Y-69099819D01*
X102394334Y-69106780D01*
X102385669Y-69117625D01*
X101720619Y-69782675D01*
X101714369Y-69788145D01*
X101707148Y-69793662D01*
X101702219Y-69797066D01*
X101679164Y-69811409D01*
X101679160Y-69811412D01*
X101676164Y-69813276D01*
X101675679Y-69813758D01*
X101667577Y-69826618D01*
X101658896Y-69837488D01*
X101338179Y-70158205D01*
X101327068Y-70167037D01*
X101314669Y-70174770D01*
X101314185Y-70175253D01*
X101312311Y-70178236D01*
X101312307Y-70178240D01*
X101308505Y-70184290D01*
X101303116Y-70191620D01*
X101226703Y-70281098D01*
X101187897Y-70344433D01*
X101161284Y-70387868D01*
X101155062Y-70398022D01*
X101154124Y-70400288D01*
X101154122Y-70400291D01*
X101103533Y-70522442D01*
X101103531Y-70522448D01*
X101102593Y-70524713D01*
X101099173Y-70538963D01*
X101075936Y-70635780D01*
X101070590Y-70658052D01*
X101070398Y-70660498D01*
X101061444Y-70774358D01*
X101060023Y-70783565D01*
X101058387Y-70790625D01*
X101058386Y-70790634D01*
X101057589Y-70794073D01*
X101057588Y-70794757D01*
X101060285Y-70806576D01*
X101060934Y-70809421D01*
X101062500Y-70823325D01*
X101062500Y-71341387D01*
X101060911Y-71355391D01*
X101057588Y-71369845D01*
X101059141Y-71376709D01*
X101059129Y-71383748D01*
X101058760Y-71383747D01*
X101059266Y-71394760D01*
X101054757Y-71429018D01*
X101050534Y-71444778D01*
X101030979Y-71491993D01*
X101022820Y-71506125D01*
X101002051Y-71533191D01*
X100994078Y-71540440D01*
X100994412Y-71540775D01*
X100989429Y-71545741D01*
X100988133Y-71546552D01*
X100983461Y-71549477D01*
X100979704Y-71555432D01*
X100974720Y-71560398D01*
X100974459Y-71560136D01*
X100967032Y-71568276D01*
X100939618Y-71589312D01*
X100925490Y-71597469D01*
X100879312Y-71616595D01*
X100878274Y-71617025D01*
X100862515Y-71621247D01*
X100840931Y-71624088D01*
X100828637Y-71625706D01*
X100817927Y-71625196D01*
X100817926Y-71625678D01*
X100810888Y-71625665D01*
X100804029Y-71624088D01*
X100797164Y-71625641D01*
X100789122Y-71627460D01*
X100775332Y-71629000D01*
X100006999Y-71629000D01*
X99992993Y-71627410D01*
X99991980Y-71627177D01*
X99978546Y-71624088D01*
X99971679Y-71625642D01*
X99967790Y-71625635D01*
X99953278Y-71626538D01*
X99888893Y-71620197D01*
X99876877Y-71617807D01*
X99821285Y-71600944D01*
X99796886Y-71593543D01*
X99785572Y-71588856D01*
X99711854Y-71549454D01*
X99701668Y-71542648D01*
X99651995Y-71501883D01*
X99643449Y-71492169D01*
X99639743Y-71488450D01*
X99636008Y-71482485D01*
X99623089Y-71474334D01*
X99612245Y-71465669D01*
X99570808Y-71424232D01*
X99552502Y-71380038D01*
X99570808Y-71335844D01*
X99615002Y-71317538D01*
X99649635Y-71328011D01*
X99722313Y-71376390D01*
X99726564Y-71377718D01*
X99854905Y-71417814D01*
X99854908Y-71417814D01*
X99859157Y-71419142D01*
X99863609Y-71419224D01*
X99863611Y-71419224D01*
X99934642Y-71420526D01*
X100002499Y-71421770D01*
X100140817Y-71384060D01*
X100262991Y-71309045D01*
X100272778Y-71298233D01*
X100356213Y-71206054D01*
X100359200Y-71202754D01*
X100421710Y-71073733D01*
X100422918Y-71066557D01*
X100435377Y-70992500D01*
X100445496Y-70932354D01*
X100445647Y-70920000D01*
X100425323Y-70778082D01*
X100365984Y-70647572D01*
X100272400Y-70538963D01*
X100152095Y-70460985D01*
X100014739Y-70419907D01*
X99943057Y-70419469D01*
X99875829Y-70419058D01*
X99875828Y-70419058D01*
X99871376Y-70419031D01*
X99867094Y-70420255D01*
X99867092Y-70420255D01*
X99791911Y-70441741D01*
X99744388Y-70436284D01*
X99721960Y-70415125D01*
X99704670Y-70387868D01*
X99701526Y-70382302D01*
X99681382Y-70341943D01*
X99681381Y-70341941D01*
X99680093Y-70339361D01*
X99674058Y-70331389D01*
X99664078Y-70311802D01*
X99652903Y-70274952D01*
X99642180Y-70239596D01*
X99639791Y-70227579D01*
X99633855Y-70167273D01*
X99633497Y-70163633D01*
X99634325Y-70150707D01*
X99634334Y-70145469D01*
X99635912Y-70138610D01*
X99632540Y-70123703D01*
X99631000Y-70109914D01*
X99631000Y-69532225D01*
X99649306Y-69488031D01*
X99693500Y-69469725D01*
X99728133Y-69480198D01*
X99822313Y-69542890D01*
X99834198Y-69546603D01*
X99954905Y-69584314D01*
X99954908Y-69584314D01*
X99959157Y-69585642D01*
X99963609Y-69585724D01*
X99963611Y-69585724D01*
X100034642Y-69587026D01*
X100102499Y-69588270D01*
X100240817Y-69550560D01*
X100355413Y-69480198D01*
X100359198Y-69477874D01*
X100362991Y-69475545D01*
X100395184Y-69439979D01*
X100456213Y-69372554D01*
X100459200Y-69369254D01*
X100521710Y-69240233D01*
X100523554Y-69229276D01*
X100536489Y-69152387D01*
X100545496Y-69098854D01*
X100545647Y-69086500D01*
X100527300Y-68958388D01*
X100539156Y-68912046D01*
X100571030Y-68889719D01*
X100640404Y-68868680D01*
X100652421Y-68866291D01*
X100682801Y-68863301D01*
X100716366Y-68859997D01*
X100729292Y-68860825D01*
X100734530Y-68860834D01*
X100741389Y-68862412D01*
X100756296Y-68859040D01*
X100770085Y-68857500D01*
X101538702Y-68857500D01*
X101549391Y-68858421D01*
X101570967Y-68862166D01*
X101574034Y-68862091D01*
X101574036Y-68862091D01*
X101588933Y-68861726D01*
X101594865Y-68861994D01*
X101596664Y-68862411D01*
X101597348Y-68862412D01*
X101600649Y-68861660D01*
X101605699Y-68861316D01*
X101617688Y-68861022D01*
X101617734Y-68861021D01*
X101617922Y-68861016D01*
X101618086Y-68861010D01*
X101618118Y-68861009D01*
X101619340Y-68860964D01*
X101621183Y-68860896D01*
X101621326Y-68860889D01*
X101621374Y-68860887D01*
X101621533Y-68860879D01*
X101621773Y-68860867D01*
X101624640Y-68860689D01*
X101625010Y-68860666D01*
X101625020Y-68860665D01*
X101625186Y-68860655D01*
X101638144Y-68859682D01*
X101676498Y-68856804D01*
X101676544Y-68856800D01*
X101676598Y-68856796D01*
X101679700Y-68856527D01*
X101680257Y-68856472D01*
X101681543Y-68856329D01*
X101683379Y-68856125D01*
X101683466Y-68856115D01*
X101688814Y-68855455D01*
X101731101Y-68865457D01*
X101742817Y-68873256D01*
X101772313Y-68892890D01*
X101814283Y-68906002D01*
X101904905Y-68934314D01*
X101904908Y-68934314D01*
X101909157Y-68935642D01*
X101913609Y-68935724D01*
X101913611Y-68935724D01*
X101984642Y-68937026D01*
X102052499Y-68938270D01*
X102190817Y-68900560D01*
X102312991Y-68825545D01*
X102326042Y-68811127D01*
X102406213Y-68722554D01*
X102409200Y-68719254D01*
X102430254Y-68675798D01*
X102465997Y-68644008D01*
X102513751Y-68646803D01*
G37*
%TD.AperFunction*%
%TA.AperFunction,Conductor*%
G36*
X100033705Y-67903561D02*
G01*
X100067528Y-67937388D01*
X100067525Y-67985223D01*
X100053978Y-68005496D01*
X99524680Y-68534794D01*
X99513569Y-68543626D01*
X99501170Y-68551359D01*
X99500686Y-68551841D01*
X99498802Y-68554839D01*
X99498798Y-68554844D01*
X99495005Y-68560879D01*
X99489615Y-68568211D01*
X99468390Y-68593064D01*
X99413203Y-68657686D01*
X99411922Y-68659777D01*
X99411921Y-68659778D01*
X99381773Y-68708981D01*
X99341560Y-68774609D01*
X99333438Y-68794220D01*
X99290030Y-68899029D01*
X99290028Y-68899035D01*
X99289090Y-68901300D01*
X99282472Y-68928870D01*
X99259136Y-69026096D01*
X99257085Y-69034639D01*
X99251675Y-69103421D01*
X99247933Y-69150995D01*
X99246512Y-69160202D01*
X99244887Y-69167214D01*
X99244886Y-69167219D01*
X99244089Y-69170660D01*
X99244088Y-69171344D01*
X99244873Y-69174784D01*
X99244873Y-69174785D01*
X99247434Y-69186009D01*
X99249000Y-69199912D01*
X99249000Y-70109226D01*
X99247385Y-70123343D01*
X99244089Y-70137558D01*
X99244088Y-70138242D01*
X99245433Y-70144140D01*
X99246459Y-70148640D01*
X99247830Y-70157632D01*
X99250896Y-70196621D01*
X99257056Y-70274952D01*
X99289061Y-70408296D01*
X99290001Y-70410565D01*
X99290001Y-70410566D01*
X99317764Y-70477603D01*
X99320524Y-70485850D01*
X99326398Y-70508536D01*
X99327730Y-70511296D01*
X99327731Y-70511298D01*
X99353206Y-70564072D01*
X99355042Y-70567876D01*
X99356901Y-70571579D01*
X99357235Y-70572219D01*
X99359156Y-70575767D01*
X99392924Y-70635931D01*
X99394677Y-70638960D01*
X99394986Y-70639478D01*
X99396727Y-70642315D01*
X99396870Y-70642542D01*
X99396874Y-70642548D01*
X99425068Y-70687221D01*
X99429784Y-70694694D01*
X99430811Y-70696295D01*
X99431024Y-70696622D01*
X99432440Y-70698751D01*
X99439632Y-70709339D01*
X99448109Y-70721820D01*
X99457797Y-70768664D01*
X99457470Y-70769984D01*
X99456447Y-70772163D01*
X99434391Y-70913823D01*
X99434968Y-70918236D01*
X99434968Y-70918238D01*
X99439867Y-70955700D01*
X99452980Y-71055979D01*
X99454773Y-71060054D01*
X99499321Y-71161296D01*
X99510720Y-71187203D01*
X99513584Y-71190610D01*
X99515938Y-71194392D01*
X99514836Y-71195078D01*
X99527749Y-71235911D01*
X99505698Y-71278361D01*
X99460089Y-71292785D01*
X99421288Y-71274712D01*
X98953152Y-70806576D01*
X98943818Y-70794646D01*
X98936229Y-70782051D01*
X98932615Y-70778082D01*
X98878500Y-70718658D01*
X98862278Y-70673657D01*
X98862865Y-70667554D01*
X98865780Y-70647572D01*
X98867500Y-70635781D01*
X98867499Y-70064220D01*
X98856578Y-69990021D01*
X98854438Y-69985662D01*
X98803466Y-69881845D01*
X98803465Y-69881844D01*
X98801190Y-69877210D01*
X98795855Y-69871884D01*
X98715902Y-69792070D01*
X98715900Y-69792068D01*
X98712247Y-69788422D01*
X98676869Y-69771129D01*
X98645203Y-69735275D01*
X98648165Y-69687531D01*
X98676770Y-69658876D01*
X98708153Y-69643467D01*
X98708154Y-69643466D01*
X98712790Y-69641190D01*
X98766788Y-69587098D01*
X98797930Y-69555902D01*
X98797932Y-69555900D01*
X98801578Y-69552247D01*
X98839292Y-69475093D01*
X98854638Y-69443699D01*
X98854638Y-69443698D01*
X98856769Y-69439339D01*
X98867500Y-69365781D01*
X98867499Y-68794220D01*
X98856578Y-68720021D01*
X98854234Y-68715247D01*
X98803466Y-68611845D01*
X98803465Y-68611844D01*
X98801190Y-68607210D01*
X98797537Y-68603563D01*
X98715902Y-68522070D01*
X98715900Y-68522068D01*
X98712247Y-68518422D01*
X98676869Y-68501129D01*
X98645203Y-68465275D01*
X98648165Y-68417531D01*
X98676770Y-68388876D01*
X98708153Y-68373467D01*
X98708154Y-68373466D01*
X98712790Y-68371190D01*
X98720519Y-68363448D01*
X98797930Y-68285902D01*
X98797932Y-68285900D01*
X98801578Y-68282247D01*
X98830719Y-68222631D01*
X98854638Y-68173699D01*
X98854638Y-68173698D01*
X98856769Y-68169339D01*
X98857669Y-68163174D01*
X98861567Y-68136452D01*
X98867500Y-68095781D01*
X98867500Y-68038692D01*
X98885806Y-67994498D01*
X98926648Y-67976282D01*
X98986674Y-67973058D01*
X98986677Y-67973058D01*
X98989536Y-67972904D01*
X98993082Y-67972049D01*
X99004721Y-67969242D01*
X99019373Y-67967500D01*
X99629226Y-67967500D01*
X99643343Y-67969115D01*
X99657558Y-67972411D01*
X99658242Y-67972412D01*
X99661683Y-67971627D01*
X99661685Y-67971627D01*
X99668872Y-67969988D01*
X99677867Y-67968616D01*
X99724222Y-67964970D01*
X99792497Y-67959602D01*
X99792502Y-67959601D01*
X99794946Y-67959409D01*
X99886696Y-67937388D01*
X99925891Y-67927981D01*
X99925893Y-67927980D01*
X99928286Y-67927406D01*
X99985870Y-67903558D01*
X100033705Y-67903561D01*
G37*
%TD.AperFunction*%
%TA.AperFunction,Conductor*%
G36*
X98961203Y-65551501D02*
G01*
X98971767Y-65559339D01*
X98974167Y-65560547D01*
X98974296Y-65560626D01*
X98984556Y-65568750D01*
X98987856Y-65574020D01*
X98993808Y-65577775D01*
X98993809Y-65577776D01*
X99000766Y-65582165D01*
X99011613Y-65590831D01*
X99756549Y-66335767D01*
X99774855Y-66379961D01*
X99766350Y-66408406D01*
X99767377Y-66408888D01*
X99706447Y-66538663D01*
X99705762Y-66543061D01*
X99705762Y-66543062D01*
X99701093Y-66573051D01*
X99684391Y-66680323D01*
X99684968Y-66684736D01*
X99684968Y-66684738D01*
X99688349Y-66710589D01*
X99702980Y-66822479D01*
X99704773Y-66826554D01*
X99757180Y-66945657D01*
X99760720Y-66953703D01*
X99763584Y-66957110D01*
X99850107Y-67060043D01*
X99850110Y-67060046D01*
X99852970Y-67063448D01*
X99972313Y-67142890D01*
X99976564Y-67144218D01*
X100104905Y-67184314D01*
X100104908Y-67184314D01*
X100109157Y-67185642D01*
X100113610Y-67185724D01*
X100118003Y-67186435D01*
X100117654Y-67188588D01*
X100154820Y-67204778D01*
X100172322Y-67249296D01*
X100154026Y-67292358D01*
X100024532Y-67421852D01*
X100013501Y-67430634D01*
X100000942Y-67438496D01*
X99997186Y-67444448D01*
X99994467Y-67447157D01*
X99984799Y-67458108D01*
X99955253Y-67482354D01*
X99934802Y-67499136D01*
X99924615Y-67505942D01*
X99850893Y-67545341D01*
X99839580Y-67550027D01*
X99809762Y-67559070D01*
X99759589Y-67574286D01*
X99747572Y-67576675D01*
X99714321Y-67579948D01*
X99683527Y-67582979D01*
X99671007Y-67582176D01*
X99665470Y-67582166D01*
X99658610Y-67580588D01*
X99645202Y-67583621D01*
X99643703Y-67583960D01*
X99629914Y-67585500D01*
X99018320Y-67585500D01*
X99002998Y-67583593D01*
X99000569Y-67582979D01*
X98989204Y-67580105D01*
X98938492Y-67577498D01*
X98926024Y-67576857D01*
X98882828Y-67556306D01*
X98867399Y-67523540D01*
X98861319Y-67482234D01*
X98856578Y-67450021D01*
X98854221Y-67445221D01*
X98803466Y-67341845D01*
X98803465Y-67341844D01*
X98801190Y-67337210D01*
X98793596Y-67329629D01*
X98715902Y-67252070D01*
X98715900Y-67252068D01*
X98712247Y-67248422D01*
X98676869Y-67231129D01*
X98645203Y-67195275D01*
X98648165Y-67147531D01*
X98676770Y-67118876D01*
X98708153Y-67103467D01*
X98708154Y-67103466D01*
X98712790Y-67101190D01*
X98716474Y-67097500D01*
X98797930Y-67015902D01*
X98797932Y-67015900D01*
X98801578Y-67012247D01*
X98853878Y-66905253D01*
X98854638Y-66903699D01*
X98854638Y-66903698D01*
X98856769Y-66899339D01*
X98867500Y-66825781D01*
X98867499Y-66254220D01*
X98856578Y-66180021D01*
X98850742Y-66168135D01*
X98803466Y-66071845D01*
X98803465Y-66071844D01*
X98801190Y-66067210D01*
X98797537Y-66063563D01*
X98715902Y-65982070D01*
X98715900Y-65982068D01*
X98712247Y-65978422D01*
X98676869Y-65961129D01*
X98645203Y-65925275D01*
X98648165Y-65877531D01*
X98676770Y-65848876D01*
X98708153Y-65833467D01*
X98708154Y-65833466D01*
X98712790Y-65831190D01*
X98719890Y-65824078D01*
X98797930Y-65745902D01*
X98797932Y-65745900D01*
X98801578Y-65742247D01*
X98819619Y-65705340D01*
X98854638Y-65633699D01*
X98854638Y-65633698D01*
X98856769Y-65629339D01*
X98862118Y-65592673D01*
X98886611Y-65551584D01*
X98932985Y-65539850D01*
X98961203Y-65551501D01*
G37*
%TD.AperFunction*%
%TA.AperFunction,Conductor*%
G36*
X99046775Y-61285138D02*
G01*
X99048586Y-61286955D01*
X99052320Y-61292921D01*
X99058270Y-61296676D01*
X99063241Y-61301665D01*
X99062980Y-61301925D01*
X99071122Y-61309355D01*
X99094131Y-61339345D01*
X99102287Y-61353473D01*
X99123089Y-61403698D01*
X99127312Y-61419460D01*
X99132173Y-61456400D01*
X99131331Y-61473780D01*
X99131798Y-61473833D01*
X99131393Y-61477372D01*
X99130589Y-61480843D01*
X99130589Y-61481167D01*
X99130588Y-61481169D01*
X99130589Y-61481171D01*
X99130588Y-61481527D01*
X99132347Y-61489233D01*
X99132792Y-61491185D01*
X99134056Y-61498958D01*
X99136885Y-61527667D01*
X99143253Y-61592298D01*
X99144956Y-61609588D01*
X99145847Y-61612525D01*
X99180441Y-61726554D01*
X99182313Y-61732726D01*
X99242974Y-61846212D01*
X99244924Y-61848588D01*
X99312876Y-61931389D01*
X99317594Y-61937963D01*
X99322882Y-61946442D01*
X99323365Y-61946926D01*
X99336108Y-61954936D01*
X99347037Y-61963652D01*
X99674664Y-62291278D01*
X99975321Y-62591935D01*
X99984159Y-62603056D01*
X99991886Y-62615446D01*
X99992369Y-62615931D01*
X99995366Y-62617815D01*
X99995369Y-62617817D01*
X99998149Y-62619565D01*
X100004537Y-62624166D01*
X100061102Y-62670587D01*
X100105128Y-62706718D01*
X100136233Y-62723344D01*
X100138676Y-62724650D01*
X100149285Y-62731807D01*
X100162866Y-62743156D01*
X100165552Y-62744622D01*
X100165554Y-62744624D01*
X100180323Y-62752688D01*
X100202385Y-62764734D01*
X100204062Y-62765634D01*
X100204371Y-62765797D01*
X100206198Y-62766743D01*
X100231469Y-62779576D01*
X100243278Y-62785573D01*
X100272185Y-62816127D01*
X100308927Y-62899629D01*
X100310720Y-62903703D01*
X100313584Y-62907110D01*
X100400107Y-63010043D01*
X100400110Y-63010046D01*
X100402970Y-63013448D01*
X100441228Y-63038915D01*
X100492593Y-63073107D01*
X100519238Y-63112834D01*
X100509987Y-63159767D01*
X100504806Y-63166506D01*
X100470327Y-63205547D01*
X100470325Y-63205550D01*
X100467377Y-63208888D01*
X100406447Y-63338663D01*
X100405762Y-63343061D01*
X100405762Y-63343062D01*
X100403514Y-63357499D01*
X100384391Y-63480323D01*
X100384968Y-63484736D01*
X100384968Y-63484738D01*
X100391815Y-63537098D01*
X100402980Y-63622479D01*
X100404773Y-63626554D01*
X100443347Y-63714219D01*
X100460720Y-63753703D01*
X100463584Y-63757110D01*
X100550107Y-63860043D01*
X100550110Y-63860046D01*
X100552970Y-63863448D01*
X100672313Y-63942890D01*
X100782407Y-63977285D01*
X100812508Y-63997841D01*
X100812519Y-63997832D01*
X100812699Y-63998054D01*
X100814262Y-63999983D01*
X100814297Y-64000026D01*
X100814376Y-64000123D01*
X100814711Y-64000527D01*
X100814839Y-64000678D01*
X100814892Y-64000741D01*
X100816513Y-64002650D01*
X100816649Y-64002810D01*
X100850270Y-64041540D01*
X100852318Y-64043846D01*
X100852433Y-64043973D01*
X100852482Y-64044027D01*
X100852536Y-64044086D01*
X100852691Y-64044256D01*
X100854875Y-64046599D01*
X100854998Y-64046728D01*
X100855017Y-64046748D01*
X100858596Y-64050496D01*
X100862265Y-64054708D01*
X100864117Y-64057677D01*
X100864600Y-64058161D01*
X100866454Y-64059326D01*
X100871011Y-64063496D01*
X100887106Y-64080351D01*
X100889699Y-64082149D01*
X100889700Y-64082150D01*
X100904125Y-64092153D01*
X100912703Y-64099318D01*
X102101705Y-65288320D01*
X102110537Y-65299431D01*
X102118270Y-65311830D01*
X102118753Y-65312314D01*
X102124478Y-65315912D01*
X102127778Y-65317986D01*
X102135108Y-65323375D01*
X102222726Y-65398198D01*
X102222731Y-65398202D01*
X102224598Y-65399796D01*
X102341521Y-65471438D01*
X102417311Y-65502826D01*
X102437393Y-65511143D01*
X102471219Y-65544966D01*
X102471222Y-65592802D01*
X102460325Y-65610258D01*
X102417377Y-65658888D01*
X102415486Y-65662915D01*
X102415483Y-65662920D01*
X102394758Y-65707065D01*
X102359406Y-65739290D01*
X102351707Y-65741523D01*
X102340412Y-65744024D01*
X102326908Y-65745500D01*
X100717031Y-65745500D01*
X100703029Y-65743911D01*
X100695434Y-65742165D01*
X100695433Y-65742165D01*
X100688573Y-65740588D01*
X100681708Y-65742142D01*
X100677602Y-65742135D01*
X100663390Y-65743021D01*
X100628603Y-65739597D01*
X100598927Y-65736676D01*
X100586910Y-65734287D01*
X100531247Y-65717406D01*
X100506919Y-65710028D01*
X100495601Y-65705340D01*
X100421884Y-65665942D01*
X100411697Y-65659136D01*
X100362030Y-65618380D01*
X100353475Y-65608657D01*
X100349776Y-65604945D01*
X100346041Y-65598980D01*
X100340089Y-65595225D01*
X100340088Y-65595224D01*
X100333131Y-65590835D01*
X100322284Y-65582169D01*
X99027636Y-64287521D01*
X99019128Y-64276924D01*
X99009831Y-64262340D01*
X98947773Y-64197554D01*
X98933494Y-64182647D01*
X98931480Y-64180442D01*
X98882852Y-64124562D01*
X98867500Y-64083533D01*
X98867499Y-63716499D01*
X98867499Y-63714220D01*
X98856578Y-63640021D01*
X98853785Y-63634333D01*
X98803466Y-63531845D01*
X98803465Y-63531844D01*
X98801190Y-63527210D01*
X98791077Y-63517114D01*
X98736485Y-63462618D01*
X98727340Y-63453488D01*
X98708996Y-63409311D01*
X98727263Y-63365100D01*
X98734363Y-63358983D01*
X98808035Y-63304567D01*
X98814567Y-63298035D01*
X98889409Y-63196707D01*
X98893736Y-63188537D01*
X98935760Y-63068867D01*
X98937380Y-63061483D01*
X98939862Y-63035235D01*
X98940000Y-63032296D01*
X98940000Y-62842431D01*
X98936359Y-62833641D01*
X98927569Y-62830000D01*
X98180000Y-62830000D01*
X98135806Y-62811694D01*
X98117500Y-62767500D01*
X98117500Y-62692500D01*
X98135806Y-62648306D01*
X98180000Y-62630000D01*
X98927568Y-62630000D01*
X98936358Y-62626359D01*
X98939999Y-62617569D01*
X98939999Y-62427706D01*
X98939860Y-62424762D01*
X98937380Y-62398515D01*
X98935761Y-62391135D01*
X98893736Y-62271463D01*
X98889409Y-62263293D01*
X98814567Y-62161965D01*
X98808035Y-62155433D01*
X98794280Y-62145273D01*
X98769607Y-62104291D01*
X98781140Y-62057867D01*
X98794280Y-62044727D01*
X98808035Y-62034567D01*
X98814567Y-62028035D01*
X98889409Y-61926707D01*
X98893736Y-61918537D01*
X98935760Y-61798867D01*
X98937380Y-61791483D01*
X98939862Y-61765235D01*
X98940000Y-61762296D01*
X98940000Y-61572431D01*
X98936359Y-61563641D01*
X98927569Y-61560000D01*
X98180000Y-61560000D01*
X98135806Y-61541694D01*
X98117500Y-61497500D01*
X98117500Y-61422500D01*
X98135806Y-61378306D01*
X98180000Y-61360000D01*
X98927568Y-61360000D01*
X98936358Y-61356359D01*
X98939999Y-61347569D01*
X98939999Y-61329250D01*
X98958305Y-61285056D01*
X99002499Y-61266750D01*
X99046775Y-61285138D01*
G37*
%TD.AperFunction*%
%TA.AperFunction,Conductor*%
G36*
X107183702Y-62783905D02*
G01*
X107272313Y-62842890D01*
X107409157Y-62885642D01*
X107413608Y-62885724D01*
X107413617Y-62885725D01*
X107435007Y-62886117D01*
X107478858Y-62905229D01*
X107496350Y-62949752D01*
X107495617Y-62958221D01*
X107484391Y-63030323D01*
X107484968Y-63034736D01*
X107484968Y-63034738D01*
X107488477Y-63061570D01*
X107502980Y-63172479D01*
X107518684Y-63208168D01*
X107525740Y-63224205D01*
X107526568Y-63272576D01*
X107513713Y-63304734D01*
X107512794Y-63307098D01*
X107512729Y-63307270D01*
X107512700Y-63307346D01*
X107497953Y-63346389D01*
X107497952Y-63346394D01*
X107496854Y-63349300D01*
X107494298Y-63364932D01*
X107493986Y-63366837D01*
X107492114Y-63374892D01*
X107461297Y-63476477D01*
X107461296Y-63476483D01*
X107460407Y-63479413D01*
X107460107Y-63482462D01*
X107460106Y-63482465D01*
X107446500Y-63620578D01*
X107445187Y-63628560D01*
X107444089Y-63633299D01*
X107444088Y-63633983D01*
X107444874Y-63637428D01*
X107447435Y-63648656D01*
X107449000Y-63662555D01*
X107449000Y-64765968D01*
X107447411Y-64779971D01*
X107444088Y-64794426D01*
X107445642Y-64801289D01*
X107445635Y-64805124D01*
X107446545Y-64819714D01*
X107443904Y-64846542D01*
X107440209Y-64884080D01*
X107437820Y-64896096D01*
X107428862Y-64925635D01*
X107414702Y-64972325D01*
X107413560Y-64976090D01*
X107408873Y-64987407D01*
X107392167Y-65018667D01*
X107369473Y-65061130D01*
X107362667Y-65071317D01*
X107321972Y-65120911D01*
X107311956Y-65129723D01*
X107308445Y-65133222D01*
X107302479Y-65136958D01*
X107298723Y-65142912D01*
X107294334Y-65149869D01*
X107285668Y-65160717D01*
X107234532Y-65211852D01*
X107223502Y-65220632D01*
X107216909Y-65224760D01*
X107216907Y-65224762D01*
X107210942Y-65228496D01*
X107207186Y-65234448D01*
X107204468Y-65237156D01*
X107194799Y-65248108D01*
X107158039Y-65278274D01*
X107144802Y-65289136D01*
X107134615Y-65295942D01*
X107060893Y-65335341D01*
X107049580Y-65340027D01*
X107030854Y-65345706D01*
X106983250Y-65341014D01*
X106952906Y-65304035D01*
X106957598Y-65256430D01*
X106980013Y-65232635D01*
X107069194Y-65177878D01*
X107069202Y-65177872D01*
X107072991Y-65175545D01*
X107076404Y-65171775D01*
X107166213Y-65072554D01*
X107169200Y-65069254D01*
X107231710Y-64940233D01*
X107233188Y-64931452D01*
X107254441Y-64805124D01*
X107255496Y-64798854D01*
X107255647Y-64786500D01*
X107235323Y-64644582D01*
X107175984Y-64514072D01*
X107082400Y-64405463D01*
X107078667Y-64403043D01*
X107078663Y-64403040D01*
X106993160Y-64347619D01*
X106966031Y-64308221D01*
X106974708Y-64261179D01*
X106980817Y-64253231D01*
X107031213Y-64197554D01*
X107034200Y-64194254D01*
X107096710Y-64065233D01*
X107099190Y-64050496D01*
X107110540Y-63983028D01*
X107120496Y-63923854D01*
X107120647Y-63911500D01*
X107100323Y-63769582D01*
X107040984Y-63639072D01*
X106947400Y-63530463D01*
X106827095Y-63452485D01*
X106689739Y-63411407D01*
X106636041Y-63411079D01*
X106591960Y-63392503D01*
X106573924Y-63348198D01*
X106592229Y-63304386D01*
X107104875Y-62791738D01*
X107149069Y-62773432D01*
X107183702Y-62783905D01*
G37*
%TD.AperFunction*%
%TA.AperFunction,Conductor*%
G36*
X100756971Y-60762589D02*
G01*
X100760843Y-60763479D01*
X100771426Y-60765912D01*
X100778291Y-60764358D01*
X100782397Y-60764365D01*
X100796609Y-60763479D01*
X100821328Y-60765912D01*
X100861072Y-60769824D01*
X100873089Y-60772213D01*
X100907758Y-60782727D01*
X100953080Y-60796472D01*
X100964393Y-60801158D01*
X100994950Y-60817488D01*
X101038111Y-60840555D01*
X101048299Y-60847361D01*
X101097968Y-60888118D01*
X101106525Y-60897845D01*
X101110225Y-60901557D01*
X101113958Y-60907520D01*
X101119910Y-60911275D01*
X101126872Y-60915667D01*
X101137718Y-60924333D01*
X103079338Y-62865953D01*
X103088178Y-62877077D01*
X103095899Y-62889459D01*
X103096382Y-62889943D01*
X103099365Y-62891818D01*
X103099366Y-62891819D01*
X103101495Y-62893157D01*
X103107885Y-62897761D01*
X103212174Y-62983360D01*
X103272816Y-63015780D01*
X103340560Y-63051997D01*
X103340565Y-63051999D01*
X103343264Y-63053442D01*
X103370057Y-63061572D01*
X103407031Y-63091919D01*
X103411717Y-63139524D01*
X103381368Y-63176500D01*
X103347009Y-63183686D01*
X103312005Y-63180933D01*
X103302797Y-63179512D01*
X103295785Y-63177887D01*
X103295780Y-63177886D01*
X103292339Y-63177089D01*
X103291655Y-63177088D01*
X103290108Y-63177441D01*
X103288573Y-63177088D01*
X103282994Y-63178351D01*
X103277818Y-63178635D01*
X103277607Y-63178635D01*
X103263390Y-63179521D01*
X103231251Y-63176358D01*
X103198927Y-63173176D01*
X103186910Y-63170787D01*
X103142877Y-63157433D01*
X103106919Y-63146528D01*
X103095601Y-63141840D01*
X103021884Y-63102442D01*
X103011697Y-63095636D01*
X102962030Y-63054880D01*
X102953475Y-63045157D01*
X102949776Y-63041445D01*
X102946041Y-63035480D01*
X102940089Y-63031725D01*
X102940088Y-63031724D01*
X102933131Y-63027335D01*
X102922284Y-63018669D01*
X101454794Y-61551179D01*
X101445962Y-61540068D01*
X101438229Y-61527669D01*
X101437746Y-61527185D01*
X101428721Y-61521513D01*
X101421391Y-61516124D01*
X101333773Y-61441301D01*
X101333768Y-61441297D01*
X101331901Y-61439703D01*
X101214977Y-61368061D01*
X101094422Y-61318134D01*
X101090561Y-61316535D01*
X101090559Y-61316534D01*
X101088286Y-61315593D01*
X101085893Y-61315019D01*
X101085891Y-61315018D01*
X100993823Y-61292921D01*
X100954946Y-61283590D01*
X100952504Y-61283398D01*
X100952498Y-61283397D01*
X100838641Y-61274444D01*
X100829434Y-61273023D01*
X100822374Y-61271387D01*
X100822365Y-61271386D01*
X100818926Y-61270589D01*
X100818242Y-61270588D01*
X100807571Y-61273023D01*
X100803578Y-61273934D01*
X100789674Y-61275500D01*
X100708357Y-61275500D01*
X100694498Y-61273944D01*
X100678205Y-61270239D01*
X100678485Y-61269007D01*
X100640467Y-61247332D01*
X100632949Y-61234884D01*
X100617827Y-61201625D01*
X100617826Y-61201624D01*
X100615984Y-61197572D01*
X100522400Y-61088963D01*
X100402095Y-61010985D01*
X100264739Y-60969907D01*
X100195525Y-60969484D01*
X100144315Y-60969171D01*
X100100234Y-60950595D01*
X100082198Y-60906290D01*
X100098360Y-60864730D01*
X100106213Y-60856055D01*
X100106216Y-60856051D01*
X100109200Y-60852754D01*
X100126281Y-60817500D01*
X100135343Y-60798795D01*
X100171087Y-60767005D01*
X100178073Y-60765026D01*
X100189580Y-60762478D01*
X100203090Y-60761000D01*
X100742968Y-60761000D01*
X100756971Y-60762589D01*
G37*
%TD.AperFunction*%
%TA.AperFunction,Conductor*%
G36*
X109274194Y-53203932D02*
G01*
X109284749Y-53218566D01*
X109285074Y-53219462D01*
X109378088Y-53361332D01*
X109501243Y-53477998D01*
X109647935Y-53563203D01*
X109657956Y-53566238D01*
X109794670Y-53607645D01*
X109831660Y-53637976D01*
X109836370Y-53685579D01*
X109824539Y-53707435D01*
X109822986Y-53708988D01*
X109709826Y-53870597D01*
X109626449Y-54049399D01*
X109625744Y-54052032D01*
X109625742Y-54052036D01*
X109576094Y-54237328D01*
X109575388Y-54239964D01*
X109558193Y-54436500D01*
X109575388Y-54633036D01*
X109576093Y-54635669D01*
X109576094Y-54635672D01*
X109612192Y-54770391D01*
X109626449Y-54823601D01*
X109709826Y-55002404D01*
X109711389Y-55004636D01*
X109803573Y-55136288D01*
X109813927Y-55182990D01*
X109788225Y-55223334D01*
X109762961Y-55233734D01*
X109758413Y-55234515D01*
X109736779Y-55238232D01*
X109736774Y-55238234D01*
X109733198Y-55238848D01*
X109729858Y-55240269D01*
X109729855Y-55240270D01*
X109656176Y-55271621D01*
X109577100Y-55305268D01*
X109440468Y-55405818D01*
X109330633Y-55535103D01*
X109290582Y-55613538D01*
X109285663Y-55623171D01*
X109249262Y-55654206D01*
X109201577Y-55650411D01*
X109170542Y-55614010D01*
X109167500Y-55594748D01*
X109167500Y-53248126D01*
X109185806Y-53203932D01*
X109230000Y-53185626D01*
X109274194Y-53203932D01*
G37*
%TD.AperFunction*%
%TA.AperFunction,Conductor*%
G36*
X99478423Y-53182589D02*
G01*
X99509458Y-53218990D01*
X99512500Y-53238252D01*
X99512500Y-55584874D01*
X99494194Y-55629068D01*
X99450000Y-55647374D01*
X99405806Y-55629068D01*
X99395251Y-55614434D01*
X99394926Y-55613538D01*
X99301912Y-55471668D01*
X99178757Y-55355002D01*
X99032065Y-55269797D01*
X98909089Y-55232551D01*
X98872099Y-55202220D01*
X98867389Y-55154617D01*
X98876009Y-55136885D01*
X98968611Y-55004636D01*
X98970174Y-55002404D01*
X99053551Y-54823601D01*
X99067809Y-54770391D01*
X99103906Y-54635672D01*
X99103907Y-54635669D01*
X99104612Y-54633036D01*
X99121807Y-54436500D01*
X99104612Y-54239964D01*
X99103906Y-54237328D01*
X99054258Y-54052036D01*
X99054256Y-54052032D01*
X99053551Y-54049399D01*
X98970174Y-53870597D01*
X98858577Y-53711220D01*
X98858576Y-53711218D01*
X98858573Y-53711214D01*
X98857014Y-53708988D01*
X98855086Y-53707060D01*
X98853780Y-53705504D01*
X98839391Y-53659884D01*
X98861476Y-53617452D01*
X98891069Y-53603729D01*
X98943224Y-53594767D01*
X98943225Y-53594767D01*
X98946802Y-53594152D01*
X99102900Y-53527732D01*
X99239532Y-53427182D01*
X99349367Y-53297897D01*
X99394337Y-53209829D01*
X99430738Y-53178794D01*
X99478423Y-53182589D01*
G37*
%TD.AperFunction*%
%TD*%
%TA.AperFunction,NonConductor*%
G36*
X101550948Y-56982306D02*
G01*
X101569254Y-57026500D01*
X101553600Y-57067873D01*
X101552197Y-57069462D01*
X101530526Y-57094000D01*
X101517377Y-57108888D01*
X101456447Y-57238663D01*
X101434391Y-57380323D01*
X101434968Y-57384736D01*
X101434968Y-57384738D01*
X101438716Y-57413396D01*
X101452980Y-57522479D01*
X101454773Y-57526554D01*
X101503075Y-57636328D01*
X101510720Y-57653703D01*
X101513584Y-57657110D01*
X101600107Y-57760043D01*
X101600110Y-57760046D01*
X101602970Y-57763448D01*
X101722313Y-57842890D01*
X101726564Y-57844218D01*
X101854905Y-57884314D01*
X101854908Y-57884314D01*
X101859157Y-57885642D01*
X101863609Y-57885724D01*
X101863611Y-57885724D01*
X101934642Y-57887026D01*
X102002499Y-57888270D01*
X102140817Y-57850560D01*
X102244051Y-57787174D01*
X102259198Y-57777874D01*
X102262991Y-57775545D01*
X102266490Y-57771680D01*
X102356213Y-57672554D01*
X102359200Y-57669254D01*
X102373764Y-57639194D01*
X102409507Y-57607404D01*
X102423368Y-57604299D01*
X102424924Y-57604133D01*
X102427953Y-57604104D01*
X102430916Y-57603493D01*
X102430922Y-57603492D01*
X102446444Y-57600289D01*
X102459073Y-57599000D01*
X106201867Y-57599000D01*
X106246061Y-57617306D01*
X106259073Y-57636327D01*
X106273562Y-57669254D01*
X106308665Y-57749032D01*
X106310720Y-57753703D01*
X106313584Y-57757110D01*
X106400107Y-57860043D01*
X106400110Y-57860046D01*
X106402970Y-57863448D01*
X106522313Y-57942890D01*
X106526564Y-57944218D01*
X106654905Y-57984314D01*
X106654908Y-57984314D01*
X106659157Y-57985642D01*
X106663609Y-57985724D01*
X106663611Y-57985724D01*
X106734642Y-57987026D01*
X106802499Y-57988270D01*
X106940817Y-57950560D01*
X107062991Y-57875545D01*
X107159200Y-57769254D01*
X107159735Y-57769738D01*
X107196689Y-57745275D01*
X107208258Y-57744127D01*
X107219127Y-57744065D01*
X107225611Y-57742746D01*
X107237861Y-57740254D01*
X107250320Y-57739000D01*
X108243739Y-57739000D01*
X108255928Y-57740200D01*
X108274772Y-57743947D01*
X108282201Y-57742469D01*
X108300517Y-57741568D01*
X108319709Y-57743457D01*
X108352078Y-57746643D01*
X108364095Y-57749032D01*
X108424357Y-57767308D01*
X108444286Y-57777549D01*
X108449034Y-57781196D01*
X108449039Y-57781199D01*
X108451470Y-57783066D01*
X108459794Y-57787175D01*
X108491321Y-57823149D01*
X108493887Y-57852833D01*
X108484391Y-57913823D01*
X108484968Y-57918236D01*
X108484968Y-57918238D01*
X108489195Y-57950560D01*
X108502980Y-58055979D01*
X108504773Y-58060054D01*
X108535509Y-58129906D01*
X108560720Y-58187203D01*
X108572679Y-58201430D01*
X108650107Y-58293543D01*
X108650110Y-58293546D01*
X108652970Y-58296948D01*
X108772313Y-58376390D01*
X108776564Y-58377718D01*
X108904905Y-58417814D01*
X108904908Y-58417814D01*
X108909157Y-58419142D01*
X108913609Y-58419224D01*
X108913611Y-58419224D01*
X108984642Y-58420526D01*
X109052499Y-58421770D01*
X109190817Y-58384060D01*
X109312991Y-58309045D01*
X109341558Y-58277485D01*
X109406213Y-58206054D01*
X109409200Y-58202754D01*
X109471710Y-58073733D01*
X109474012Y-58060054D01*
X109480769Y-58019889D01*
X109495496Y-57932354D01*
X109495647Y-57920000D01*
X109475323Y-57778082D01*
X109415984Y-57647572D01*
X109322400Y-57538963D01*
X109202095Y-57460985D01*
X109197826Y-57459708D01*
X109195964Y-57458848D01*
X109163524Y-57423693D01*
X109163563Y-57386799D01*
X109161751Y-57386334D01*
X109161798Y-57386151D01*
X109163570Y-57380522D01*
X109163570Y-57380404D01*
X109163620Y-57380269D01*
X109163706Y-57380091D01*
X109163774Y-57379873D01*
X109167411Y-57374241D01*
X109167500Y-57373627D01*
X109167500Y-57371720D01*
X109168638Y-57369816D01*
X109167532Y-57335184D01*
X109167500Y-57333189D01*
X109167500Y-57098126D01*
X109185806Y-57053932D01*
X109230000Y-57035626D01*
X109274194Y-57053932D01*
X109284749Y-57068566D01*
X109285074Y-57069462D01*
X109287067Y-57072501D01*
X109287067Y-57072502D01*
X109297888Y-57089006D01*
X109378088Y-57211332D01*
X109501243Y-57327998D01*
X109647935Y-57413203D01*
X109720527Y-57435189D01*
X109797289Y-57458438D01*
X109810294Y-57462377D01*
X109979610Y-57472881D01*
X110146802Y-57444152D01*
X110302900Y-57377732D01*
X110439532Y-57277182D01*
X110452368Y-57262073D01*
X110494933Y-57240245D01*
X110540466Y-57254907D01*
X110562294Y-57297472D01*
X110562500Y-57302539D01*
X110562500Y-58202830D01*
X110544194Y-58247024D01*
X110522092Y-58261295D01*
X110450187Y-58288466D01*
X110428095Y-58292501D01*
X110154220Y-58292501D01*
X110080021Y-58303422D01*
X110075663Y-58305562D01*
X110075662Y-58305562D01*
X109971845Y-58356534D01*
X109971844Y-58356535D01*
X109967210Y-58358810D01*
X109963564Y-58362462D01*
X109963563Y-58362463D01*
X109882070Y-58444098D01*
X109882068Y-58444100D01*
X109878422Y-58447753D01*
X109876154Y-58452393D01*
X109825675Y-58555662D01*
X109823231Y-58560661D01*
X109812500Y-58634219D01*
X109812501Y-59205780D01*
X109823422Y-59279979D01*
X109825562Y-59284337D01*
X109825562Y-59284338D01*
X109871589Y-59378082D01*
X109878810Y-59392790D01*
X109882462Y-59396436D01*
X109882463Y-59396437D01*
X109952660Y-59466511D01*
X109971004Y-59510689D01*
X109952737Y-59554900D01*
X109945637Y-59561017D01*
X109871965Y-59615433D01*
X109865433Y-59621965D01*
X109790591Y-59723293D01*
X109786264Y-59731463D01*
X109744240Y-59851133D01*
X109742620Y-59858517D01*
X109740138Y-59884765D01*
X109740000Y-59887704D01*
X109740000Y-60077569D01*
X109743641Y-60086359D01*
X109752431Y-60090000D01*
X110500000Y-60090000D01*
X110544194Y-60108306D01*
X110562500Y-60152500D01*
X110562500Y-60227500D01*
X110544194Y-60271694D01*
X110500000Y-60290000D01*
X109752432Y-60290000D01*
X109743642Y-60293641D01*
X109740001Y-60302431D01*
X109740001Y-60492294D01*
X109740140Y-60495238D01*
X109742620Y-60521485D01*
X109744239Y-60528865D01*
X109786264Y-60648537D01*
X109790591Y-60656707D01*
X109865433Y-60758035D01*
X109871965Y-60764567D01*
X109945578Y-60818939D01*
X109970250Y-60859920D01*
X109958718Y-60906345D01*
X109952682Y-60913363D01*
X109928797Y-60937290D01*
X109882070Y-60984098D01*
X109882068Y-60984100D01*
X109878422Y-60987753D01*
X109876154Y-60992393D01*
X109826746Y-61093471D01*
X109823231Y-61100661D01*
X109812500Y-61174219D01*
X109812501Y-61745780D01*
X109823422Y-61819979D01*
X109825562Y-61824337D01*
X109825562Y-61824338D01*
X109875668Y-61926390D01*
X109878810Y-61932790D01*
X109882462Y-61936436D01*
X109882463Y-61936437D01*
X109964098Y-62017930D01*
X109964100Y-62017932D01*
X109967753Y-62021578D01*
X110003131Y-62038871D01*
X110034797Y-62074725D01*
X110031835Y-62122469D01*
X110003230Y-62151124D01*
X109971847Y-62166533D01*
X109971846Y-62166534D01*
X109967210Y-62168810D01*
X109963564Y-62172462D01*
X109963563Y-62172463D01*
X109882070Y-62254098D01*
X109882068Y-62254100D01*
X109878422Y-62257753D01*
X109876154Y-62262393D01*
X109825590Y-62365836D01*
X109823231Y-62370661D01*
X109822530Y-62375464D01*
X109822530Y-62375465D01*
X109821125Y-62385099D01*
X109812500Y-62444219D01*
X109812501Y-63015780D01*
X109823422Y-63089979D01*
X109825562Y-63094337D01*
X109825562Y-63094338D01*
X109874613Y-63194241D01*
X109878810Y-63202790D01*
X109882462Y-63206436D01*
X109882463Y-63206437D01*
X109964098Y-63287930D01*
X109964100Y-63287932D01*
X109967753Y-63291578D01*
X110003131Y-63308871D01*
X110034797Y-63344725D01*
X110031835Y-63392469D01*
X110003230Y-63421124D01*
X109971847Y-63436533D01*
X109971846Y-63436534D01*
X109967210Y-63438810D01*
X109963564Y-63442462D01*
X109963563Y-63442463D01*
X109882070Y-63524098D01*
X109882068Y-63524100D01*
X109878422Y-63527753D01*
X109876154Y-63532393D01*
X109825587Y-63635842D01*
X109823231Y-63640661D01*
X109812500Y-63714219D01*
X109812501Y-64285780D01*
X109823422Y-64359979D01*
X109825562Y-64364337D01*
X109825562Y-64364338D01*
X109867531Y-64449817D01*
X109878810Y-64472790D01*
X109882462Y-64476436D01*
X109882463Y-64476437D01*
X109964098Y-64557930D01*
X109964100Y-64557932D01*
X109967753Y-64561578D01*
X110003131Y-64578871D01*
X110034797Y-64614725D01*
X110031835Y-64662469D01*
X110003230Y-64691124D01*
X109971847Y-64706533D01*
X109971846Y-64706534D01*
X109967210Y-64708810D01*
X109963564Y-64712462D01*
X109963563Y-64712463D01*
X109882070Y-64794098D01*
X109882068Y-64794100D01*
X109878422Y-64797753D01*
X109874819Y-64805124D01*
X109825675Y-64905662D01*
X109823231Y-64910661D01*
X109822530Y-64915464D01*
X109822530Y-64915465D01*
X109821042Y-64925665D01*
X109812500Y-64984219D01*
X109812501Y-65555780D01*
X109823422Y-65629979D01*
X109825562Y-65634337D01*
X109825562Y-65634338D01*
X109873270Y-65731506D01*
X109878810Y-65742790D01*
X109882462Y-65746436D01*
X109882463Y-65746437D01*
X109964098Y-65827930D01*
X109964100Y-65827932D01*
X109967753Y-65831578D01*
X110003131Y-65848871D01*
X110034797Y-65884725D01*
X110031835Y-65932469D01*
X110003230Y-65961124D01*
X109971847Y-65976533D01*
X109971846Y-65976534D01*
X109967210Y-65978810D01*
X109963564Y-65982462D01*
X109963563Y-65982463D01*
X109882070Y-66064098D01*
X109882068Y-66064100D01*
X109878422Y-66067753D01*
X109876154Y-66072393D01*
X109825675Y-66175662D01*
X109823231Y-66180661D01*
X109822530Y-66185464D01*
X109822530Y-66185465D01*
X109820403Y-66200044D01*
X109812500Y-66254219D01*
X109812501Y-66825780D01*
X109823422Y-66899979D01*
X109825562Y-66904337D01*
X109825562Y-66904338D01*
X109870264Y-66995383D01*
X109878810Y-67012790D01*
X109882462Y-67016436D01*
X109882463Y-67016437D01*
X109964098Y-67097930D01*
X109964100Y-67097932D01*
X109967753Y-67101578D01*
X110003131Y-67118871D01*
X110034797Y-67154725D01*
X110031835Y-67202469D01*
X110003230Y-67231124D01*
X109971847Y-67246533D01*
X109971846Y-67246534D01*
X109967210Y-67248810D01*
X109963564Y-67252462D01*
X109963563Y-67252463D01*
X109882070Y-67334098D01*
X109882068Y-67334100D01*
X109878422Y-67337753D01*
X109876154Y-67342393D01*
X109825675Y-67445662D01*
X109823231Y-67450661D01*
X109822530Y-67455464D01*
X109822530Y-67455465D01*
X109820444Y-67469768D01*
X109812500Y-67524219D01*
X109812501Y-68095780D01*
X109823422Y-68169979D01*
X109825562Y-68174337D01*
X109825562Y-68174338D01*
X109876169Y-68277410D01*
X109878810Y-68282790D01*
X109882462Y-68286436D01*
X109882463Y-68286437D01*
X109964098Y-68367930D01*
X109964100Y-68367932D01*
X109967753Y-68371578D01*
X110003131Y-68388871D01*
X110034797Y-68424725D01*
X110031835Y-68472469D01*
X110003230Y-68501124D01*
X109971847Y-68516533D01*
X109971846Y-68516534D01*
X109967210Y-68518810D01*
X109963564Y-68522462D01*
X109963563Y-68522463D01*
X109882070Y-68604098D01*
X109882068Y-68604100D01*
X109878422Y-68607753D01*
X109874733Y-68615299D01*
X109825675Y-68715662D01*
X109823231Y-68720661D01*
X109813652Y-68786327D01*
X109812611Y-68793461D01*
X109788118Y-68834550D01*
X109753975Y-68846857D01*
X109734122Y-68847878D01*
X109690796Y-68850105D01*
X109688002Y-68850774D01*
X109685170Y-68851182D01*
X109685136Y-68850948D01*
X109674686Y-68852170D01*
X109672026Y-68852165D01*
X109665166Y-68850588D01*
X109658301Y-68852142D01*
X109654251Y-68852135D01*
X109639958Y-68853025D01*
X109575519Y-68846681D01*
X109563504Y-68844292D01*
X109483516Y-68820033D01*
X109472195Y-68815345D01*
X109398476Y-68775946D01*
X109388288Y-68769139D01*
X109385147Y-68766561D01*
X109338619Y-68728380D01*
X109330062Y-68718654D01*
X109326367Y-68714947D01*
X109322632Y-68708981D01*
X109309719Y-68700834D01*
X109298874Y-68692169D01*
X108981148Y-68374443D01*
X108972366Y-68363413D01*
X108964502Y-68350850D01*
X108958547Y-68347092D01*
X108955992Y-68344528D01*
X108944816Y-68334660D01*
X108903839Y-68284726D01*
X108897031Y-68274538D01*
X108857630Y-68200815D01*
X108852942Y-68189494D01*
X108828681Y-68109500D01*
X108826292Y-68097484D01*
X108819997Y-68033542D01*
X108820825Y-68020613D01*
X108820834Y-68015377D01*
X108822412Y-68008517D01*
X108819040Y-67993610D01*
X108817500Y-67979820D01*
X108817500Y-67553773D01*
X108819115Y-67539656D01*
X108821611Y-67528891D01*
X108822411Y-67525441D01*
X108822412Y-67524757D01*
X108819989Y-67514130D01*
X108818618Y-67505138D01*
X108812759Y-67430634D01*
X108809410Y-67388052D01*
X108807437Y-67379829D01*
X108786206Y-67291374D01*
X108777407Y-67254713D01*
X108776313Y-67252070D01*
X108752393Y-67194314D01*
X108724938Y-67128021D01*
X108653296Y-67011098D01*
X108651706Y-67009236D01*
X108651703Y-67009232D01*
X108577387Y-66922209D01*
X108571882Y-66914692D01*
X108568177Y-66908751D01*
X108568174Y-66908747D01*
X108566297Y-66905737D01*
X108565814Y-66905253D01*
X108562830Y-66903378D01*
X108562826Y-66903374D01*
X108553069Y-66897241D01*
X108542136Y-66888521D01*
X107754794Y-66101179D01*
X107745962Y-66090068D01*
X107738229Y-66077669D01*
X107737746Y-66077185D01*
X107728721Y-66071513D01*
X107721391Y-66066124D01*
X107633773Y-65991301D01*
X107633768Y-65991297D01*
X107631901Y-65989703D01*
X107514977Y-65918061D01*
X107426662Y-65881486D01*
X107390561Y-65866535D01*
X107390559Y-65866534D01*
X107388286Y-65865593D01*
X107385893Y-65865019D01*
X107385891Y-65865018D01*
X107313322Y-65847601D01*
X107254946Y-65833590D01*
X107252504Y-65833398D01*
X107252498Y-65833397D01*
X107180731Y-65827754D01*
X107138108Y-65806040D01*
X107123323Y-65760546D01*
X107145037Y-65717923D01*
X107161716Y-65707703D01*
X107264977Y-65664938D01*
X107381901Y-65593296D01*
X107383763Y-65591706D01*
X107383767Y-65591703D01*
X107460461Y-65526208D01*
X107470791Y-65517386D01*
X107478308Y-65511881D01*
X107484249Y-65508177D01*
X107484256Y-65508172D01*
X107487262Y-65506297D01*
X107487746Y-65505814D01*
X107489621Y-65502830D01*
X107489625Y-65502826D01*
X107495758Y-65493069D01*
X107504478Y-65482136D01*
X107555320Y-65431294D01*
X107566431Y-65422462D01*
X107578830Y-65414729D01*
X107579314Y-65414246D01*
X107584864Y-65405416D01*
X107590249Y-65398090D01*
X107590872Y-65397361D01*
X107666825Y-65308421D01*
X107668104Y-65306333D01*
X107668108Y-65306328D01*
X107737184Y-65193590D01*
X107738469Y-65191493D01*
X107790939Y-65064797D01*
X107819474Y-64945911D01*
X107822371Y-64933840D01*
X107822371Y-64933838D01*
X107822944Y-64931452D01*
X107832108Y-64814912D01*
X107833529Y-64805705D01*
X107835113Y-64798870D01*
X107835911Y-64795426D01*
X107835912Y-64794742D01*
X107832566Y-64780078D01*
X107831000Y-64766174D01*
X107831000Y-63662785D01*
X107832590Y-63648776D01*
X107832618Y-63648656D01*
X107835912Y-63634333D01*
X107834358Y-63627466D01*
X107834365Y-63623680D01*
X107833454Y-63609030D01*
X107835299Y-63590301D01*
X107857849Y-63548114D01*
X107906822Y-63534913D01*
X107909157Y-63535642D01*
X107913612Y-63535724D01*
X107913614Y-63535724D01*
X107978744Y-63536918D01*
X108052499Y-63538270D01*
X108190817Y-63500560D01*
X108302792Y-63431807D01*
X108309198Y-63427874D01*
X108312991Y-63425545D01*
X108318465Y-63419498D01*
X108406213Y-63322554D01*
X108409200Y-63319254D01*
X108471710Y-63190233D01*
X108472634Y-63184744D01*
X108485078Y-63110776D01*
X108495496Y-63048854D01*
X108495647Y-63036500D01*
X108475323Y-62894582D01*
X108415984Y-62764072D01*
X108322400Y-62655463D01*
X108202095Y-62577485D01*
X108064739Y-62536407D01*
X108045885Y-62536292D01*
X108001804Y-62517717D01*
X107983768Y-62473412D01*
X107984633Y-62463424D01*
X107992149Y-62418749D01*
X107995496Y-62398854D01*
X107995647Y-62386500D01*
X107975323Y-62244582D01*
X107915984Y-62114072D01*
X107822400Y-62005463D01*
X107702095Y-61927485D01*
X107689456Y-61923705D01*
X107655663Y-61913599D01*
X107564739Y-61886407D01*
X107493058Y-61885969D01*
X107425829Y-61885558D01*
X107425828Y-61885558D01*
X107421376Y-61885531D01*
X107283529Y-61924928D01*
X107162280Y-62001430D01*
X107159337Y-62004762D01*
X107159335Y-62004764D01*
X107086621Y-62087098D01*
X107067377Y-62108888D01*
X107006447Y-62238663D01*
X107005762Y-62243061D01*
X107005762Y-62243062D01*
X106990096Y-62343681D01*
X106971688Y-62379091D01*
X106948303Y-62401603D01*
X106947140Y-62402736D01*
X106947042Y-62402833D01*
X106916067Y-62433392D01*
X106916065Y-62433395D01*
X106913863Y-62435567D01*
X106908018Y-62444220D01*
X106902741Y-62452031D01*
X106895145Y-62461239D01*
X105967358Y-63389027D01*
X105956378Y-63397777D01*
X105946915Y-63403713D01*
X105895795Y-63410648D01*
X105814739Y-63386407D01*
X105743057Y-63385969D01*
X105675829Y-63385558D01*
X105675828Y-63385558D01*
X105671376Y-63385531D01*
X105533529Y-63424928D01*
X105412825Y-63501086D01*
X105412502Y-63501290D01*
X105412280Y-63501430D01*
X105412192Y-63501290D01*
X105368646Y-63515353D01*
X105326063Y-63493560D01*
X105315917Y-63476969D01*
X105300767Y-63440388D01*
X105274938Y-63378021D01*
X105203296Y-63261098D01*
X105201706Y-63259236D01*
X105201703Y-63259232D01*
X105127387Y-63172209D01*
X105121882Y-63164692D01*
X105118177Y-63158751D01*
X105118174Y-63158747D01*
X105116297Y-63155737D01*
X105115814Y-63155253D01*
X105112830Y-63153378D01*
X105112826Y-63153374D01*
X105103069Y-63147241D01*
X105092136Y-63138521D01*
X104130504Y-62176889D01*
X104121664Y-62165765D01*
X104115820Y-62156393D01*
X104115820Y-62156392D01*
X104113943Y-62153383D01*
X104113460Y-62152899D01*
X104105723Y-62148035D01*
X104099349Y-62143443D01*
X104077383Y-62125415D01*
X104054836Y-62083227D01*
X104068724Y-62037452D01*
X104084332Y-62023843D01*
X104159194Y-61977878D01*
X104159202Y-61977872D01*
X104162991Y-61975545D01*
X104168713Y-61969224D01*
X104256213Y-61872554D01*
X104259200Y-61869254D01*
X104321710Y-61740233D01*
X104323468Y-61729787D01*
X104332715Y-61674824D01*
X104345496Y-61598854D01*
X104345647Y-61586500D01*
X104325323Y-61444582D01*
X104265984Y-61314072D01*
X104172400Y-61205463D01*
X104052095Y-61127485D01*
X104020567Y-61118056D01*
X103962401Y-61100661D01*
X103914739Y-61086407D01*
X103843058Y-61085969D01*
X103775829Y-61085558D01*
X103775828Y-61085558D01*
X103771376Y-61085531D01*
X103633529Y-61124928D01*
X103633515Y-61124879D01*
X103587478Y-61126161D01*
X103565584Y-61111969D01*
X103085378Y-60631763D01*
X103067072Y-60587569D01*
X103085378Y-60543375D01*
X103129572Y-60525069D01*
X103135697Y-60525370D01*
X103157814Y-60527548D01*
X103172074Y-60528952D01*
X103180061Y-60530266D01*
X103185866Y-60531612D01*
X103185872Y-60531613D01*
X103189316Y-60532411D01*
X103190000Y-60532412D01*
X103199232Y-60530306D01*
X103206993Y-60529045D01*
X103283746Y-60521485D01*
X103317577Y-60518153D01*
X103317578Y-60518153D01*
X103320632Y-60517852D01*
X103369783Y-60502943D01*
X103443308Y-60480641D01*
X103443312Y-60480639D01*
X103446244Y-60479750D01*
X103450869Y-60477278D01*
X103451601Y-60477206D01*
X103451789Y-60477128D01*
X103451813Y-60477185D01*
X103498475Y-60472594D01*
X103535450Y-60502943D01*
X103542299Y-60524296D01*
X103552980Y-60605979D01*
X103554773Y-60610054D01*
X103608180Y-60731430D01*
X103610720Y-60737203D01*
X103613584Y-60740610D01*
X103700107Y-60843543D01*
X103700110Y-60843546D01*
X103702970Y-60846948D01*
X103822313Y-60926390D01*
X103826564Y-60927718D01*
X103954905Y-60967814D01*
X103954908Y-60967814D01*
X103959157Y-60969142D01*
X103963609Y-60969224D01*
X103963611Y-60969224D01*
X104034642Y-60970526D01*
X104102499Y-60971770D01*
X104109333Y-60969907D01*
X104169905Y-60953393D01*
X104197764Y-60945798D01*
X104247796Y-60953393D01*
X104257154Y-60959358D01*
X104267754Y-60967868D01*
X104360545Y-61060659D01*
X104371569Y-61077190D01*
X104371893Y-61077003D01*
X104373940Y-61080562D01*
X104375504Y-61084357D01*
X104387719Y-61100322D01*
X104391151Y-61105288D01*
X104392317Y-61107162D01*
X104406652Y-61130211D01*
X104407135Y-61130696D01*
X104410111Y-61132571D01*
X104410114Y-61132574D01*
X104419999Y-61138803D01*
X104430870Y-61147485D01*
X104642529Y-61359144D01*
X104651279Y-61370124D01*
X104654511Y-61375276D01*
X104662490Y-61422442D01*
X104658748Y-61433297D01*
X104658340Y-61434631D01*
X104656447Y-61438663D01*
X104634391Y-61580323D01*
X104634968Y-61584736D01*
X104634968Y-61584738D01*
X104640293Y-61625456D01*
X104652980Y-61722479D01*
X104654773Y-61726554D01*
X104707748Y-61846948D01*
X104710720Y-61853703D01*
X104717168Y-61861374D01*
X104800107Y-61960043D01*
X104800110Y-61960046D01*
X104802970Y-61963448D01*
X104922313Y-62042890D01*
X104926564Y-62044218D01*
X105054905Y-62084314D01*
X105054908Y-62084314D01*
X105059157Y-62085642D01*
X105063609Y-62085724D01*
X105063611Y-62085724D01*
X105134642Y-62087026D01*
X105202499Y-62088270D01*
X105340817Y-62050560D01*
X105462991Y-61975545D01*
X105468713Y-61969224D01*
X105556213Y-61872554D01*
X105559200Y-61869254D01*
X105621710Y-61740233D01*
X105623468Y-61729787D01*
X105632715Y-61674824D01*
X105645496Y-61598854D01*
X105645647Y-61586500D01*
X105625323Y-61444582D01*
X105565984Y-61314072D01*
X105472400Y-61205463D01*
X105352095Y-61127485D01*
X105320567Y-61118056D01*
X105262401Y-61100661D01*
X105214739Y-61086407D01*
X105143058Y-61085969D01*
X105075829Y-61085558D01*
X105075828Y-61085558D01*
X105071376Y-61085531D01*
X105019623Y-61100322D01*
X105002248Y-61105288D01*
X104983297Y-61110704D01*
X104932529Y-61103314D01*
X104922852Y-61097146D01*
X104912251Y-61088636D01*
X104719277Y-60895662D01*
X104707906Y-60878689D01*
X104707728Y-60878792D01*
X104706124Y-60876030D01*
X104705788Y-60875528D01*
X104705674Y-60875254D01*
X104705672Y-60875250D01*
X104704095Y-60871470D01*
X104698898Y-60864730D01*
X104692077Y-60855886D01*
X104688597Y-60850887D01*
X104687674Y-60849413D01*
X104684570Y-60844455D01*
X104684529Y-60844414D01*
X104684512Y-60844390D01*
X104674728Y-60828785D01*
X104674724Y-60828779D01*
X104672846Y-60825785D01*
X104672362Y-60825302D01*
X104669377Y-60823436D01*
X104669371Y-60823431D01*
X104659864Y-60817488D01*
X104648801Y-60808686D01*
X104537471Y-60697356D01*
X104528721Y-60686376D01*
X104525802Y-60681723D01*
X104517823Y-60634558D01*
X104519205Y-60629506D01*
X104519769Y-60627740D01*
X104521710Y-60623733D01*
X104522927Y-60616504D01*
X104535858Y-60539642D01*
X104545496Y-60482354D01*
X104545647Y-60470000D01*
X104525323Y-60328082D01*
X104465984Y-60197572D01*
X104399853Y-60120823D01*
X104384873Y-60075395D01*
X104406403Y-60032678D01*
X104435179Y-60020127D01*
X104434902Y-60018912D01*
X104434903Y-60018912D01*
X104444840Y-60016645D01*
X104452608Y-60015382D01*
X104479754Y-60012709D01*
X104517011Y-60009039D01*
X104524541Y-60008754D01*
X104543139Y-60009172D01*
X104543140Y-60009172D01*
X104546213Y-60009241D01*
X104592749Y-60001065D01*
X104593046Y-60001009D01*
X104596034Y-60000442D01*
X104596083Y-60000432D01*
X104596306Y-60000390D01*
X104596855Y-60000278D01*
X104597020Y-60000242D01*
X104597049Y-60000236D01*
X104598847Y-59999845D01*
X104600238Y-59999542D01*
X104600464Y-59999490D01*
X104600494Y-59999483D01*
X104650471Y-59987920D01*
X104650533Y-59987905D01*
X104650659Y-59987876D01*
X104654004Y-59987056D01*
X104654564Y-59986911D01*
X104657838Y-59986018D01*
X104660589Y-59985230D01*
X104663473Y-59984404D01*
X104699325Y-59984830D01*
X104804899Y-60017813D01*
X104804907Y-60017814D01*
X104809157Y-60019142D01*
X104813611Y-60019224D01*
X104813613Y-60019224D01*
X104880828Y-60020456D01*
X104952499Y-60021770D01*
X105090817Y-59984060D01*
X105212991Y-59909045D01*
X105309200Y-59802754D01*
X105371710Y-59673733D01*
X105373682Y-59662015D01*
X105384285Y-59598991D01*
X105395496Y-59532354D01*
X105395647Y-59520000D01*
X105375323Y-59378082D01*
X105315984Y-59247572D01*
X105222400Y-59138963D01*
X105144191Y-59088270D01*
X105102095Y-59060985D01*
X105103236Y-59059225D01*
X105075594Y-59029265D01*
X105078006Y-58980438D01*
X105121710Y-58890233D01*
X105145496Y-58748854D01*
X105145647Y-58736500D01*
X105125323Y-58594582D01*
X105065984Y-58464072D01*
X104972400Y-58355463D01*
X104852095Y-58277485D01*
X104839456Y-58273705D01*
X104750240Y-58247024D01*
X104714739Y-58236407D01*
X104643058Y-58235969D01*
X104575829Y-58235558D01*
X104575828Y-58235558D01*
X104571376Y-58235531D01*
X104433529Y-58274928D01*
X104312280Y-58351430D01*
X104309337Y-58354762D01*
X104309335Y-58354764D01*
X104227211Y-58447753D01*
X104217377Y-58458888D01*
X104156447Y-58588663D01*
X104155762Y-58593061D01*
X104155762Y-58593062D01*
X104143101Y-58674380D01*
X104118214Y-58715232D01*
X104105190Y-58722537D01*
X104089034Y-58729204D01*
X104088773Y-58729310D01*
X104068671Y-58737409D01*
X104020840Y-58736945D01*
X103987345Y-58702794D01*
X103983683Y-58669068D01*
X103989162Y-58636499D01*
X103995496Y-58598854D01*
X103995647Y-58586500D01*
X103975323Y-58444582D01*
X103915984Y-58314072D01*
X103822400Y-58205463D01*
X103702095Y-58127485D01*
X103689456Y-58123705D01*
X103655663Y-58113599D01*
X103564739Y-58086407D01*
X103493058Y-58085969D01*
X103425829Y-58085558D01*
X103425828Y-58085558D01*
X103421376Y-58085531D01*
X103283529Y-58124928D01*
X103162280Y-58201430D01*
X103159337Y-58204762D01*
X103159335Y-58204764D01*
X103081556Y-58292833D01*
X103067377Y-58308888D01*
X103006447Y-58438663D01*
X102984391Y-58580323D01*
X102984968Y-58584736D01*
X102984968Y-58584738D01*
X102986499Y-58596442D01*
X103002980Y-58722479D01*
X103009550Y-58737409D01*
X103009697Y-58737744D01*
X103010741Y-58785568D01*
X103005194Y-58796510D01*
X103000639Y-58803656D01*
X102992129Y-58814256D01*
X102695773Y-59110612D01*
X102684658Y-59119447D01*
X102672258Y-59127181D01*
X102671774Y-59127664D01*
X102666194Y-59136544D01*
X102665504Y-59137642D01*
X102660115Y-59144973D01*
X102589787Y-59227330D01*
X102588509Y-59229416D01*
X102588506Y-59229420D01*
X102579450Y-59244201D01*
X102522475Y-59337194D01*
X102479494Y-59440984D01*
X102445674Y-59474809D01*
X102397838Y-59474814D01*
X102374404Y-59457867D01*
X102356186Y-59436724D01*
X102356180Y-59436719D01*
X102353279Y-59433352D01*
X102232974Y-59355374D01*
X102220335Y-59351594D01*
X102165195Y-59335104D01*
X102095618Y-59314296D01*
X102023936Y-59313858D01*
X101956708Y-59313447D01*
X101956707Y-59313447D01*
X101952255Y-59313420D01*
X101814408Y-59352817D01*
X101693159Y-59429319D01*
X101690216Y-59432651D01*
X101690214Y-59432653D01*
X101606422Y-59527531D01*
X101598256Y-59536777D01*
X101537326Y-59666552D01*
X101515270Y-59808212D01*
X101515847Y-59812625D01*
X101515847Y-59812627D01*
X101521848Y-59858517D01*
X101533859Y-59950368D01*
X101535652Y-59954443D01*
X101586611Y-60070255D01*
X101591599Y-60081592D01*
X101594463Y-60084999D01*
X101680986Y-60187932D01*
X101680989Y-60187935D01*
X101683849Y-60191337D01*
X101803192Y-60270779D01*
X101807443Y-60272107D01*
X101935784Y-60312203D01*
X101935787Y-60312203D01*
X101940036Y-60313531D01*
X101944488Y-60313613D01*
X101944490Y-60313613D01*
X102015521Y-60314915D01*
X102083378Y-60316159D01*
X102093018Y-60313531D01*
X102150784Y-60297782D01*
X102178643Y-60290187D01*
X102228675Y-60297782D01*
X102238030Y-60303745D01*
X102248630Y-60312255D01*
X102358539Y-60422163D01*
X102445640Y-60509264D01*
X102463946Y-60553458D01*
X102445640Y-60597652D01*
X102401064Y-60615957D01*
X102370822Y-60615772D01*
X102335829Y-60615558D01*
X102335828Y-60615558D01*
X102331376Y-60615531D01*
X102193529Y-60654928D01*
X102072280Y-60731430D01*
X102069337Y-60734762D01*
X102069335Y-60734764D01*
X101983019Y-60832500D01*
X101977377Y-60838888D01*
X101916447Y-60968663D01*
X101909220Y-61015078D01*
X101884335Y-61055929D01*
X101837850Y-61067218D01*
X101803271Y-61049656D01*
X101408294Y-60654679D01*
X101399462Y-60643568D01*
X101391729Y-60631169D01*
X101391246Y-60630685D01*
X101382221Y-60625013D01*
X101374891Y-60619624D01*
X101287273Y-60544801D01*
X101287268Y-60544797D01*
X101285401Y-60543203D01*
X101168477Y-60471561D01*
X101041786Y-60419093D01*
X101039393Y-60418519D01*
X101039391Y-60418518D01*
X100966822Y-60401101D01*
X100908446Y-60387090D01*
X100906004Y-60386898D01*
X100905998Y-60386897D01*
X100792141Y-60377944D01*
X100782934Y-60376523D01*
X100775874Y-60374887D01*
X100775865Y-60374886D01*
X100772426Y-60374089D01*
X100771742Y-60374088D01*
X100761071Y-60376523D01*
X100757078Y-60377434D01*
X100743174Y-60379000D01*
X100202537Y-60379000D01*
X100188591Y-60377424D01*
X100178220Y-60375050D01*
X100139225Y-60347345D01*
X100135278Y-60340007D01*
X100115984Y-60297572D01*
X100113082Y-60294204D01*
X100113080Y-60294201D01*
X100025303Y-60192332D01*
X100022400Y-60188963D01*
X99902095Y-60110985D01*
X99889456Y-60107205D01*
X99855663Y-60097099D01*
X99764739Y-60069907D01*
X99693058Y-60069469D01*
X99625829Y-60069058D01*
X99625828Y-60069058D01*
X99621376Y-60069031D01*
X99483529Y-60108428D01*
X99362280Y-60184930D01*
X99359337Y-60188262D01*
X99359335Y-60188264D01*
X99288641Y-60268311D01*
X99267377Y-60292388D01*
X99206447Y-60422163D01*
X99184391Y-60563823D01*
X99184968Y-60568236D01*
X99184968Y-60568238D01*
X99190436Y-60610054D01*
X99202980Y-60705979D01*
X99204773Y-60710055D01*
X99204774Y-60710057D01*
X99218426Y-60741084D01*
X99219469Y-60788908D01*
X99186390Y-60823462D01*
X99138566Y-60824505D01*
X99117025Y-60810449D01*
X98953152Y-60646576D01*
X98943818Y-60634646D01*
X98936229Y-60622051D01*
X98931178Y-60616504D01*
X98878500Y-60558658D01*
X98862278Y-60513657D01*
X98862865Y-60507554D01*
X98865091Y-60492294D01*
X98867500Y-60475781D01*
X98867499Y-59904220D01*
X98856578Y-59830021D01*
X98843711Y-59803814D01*
X98803466Y-59721845D01*
X98803465Y-59721844D01*
X98801190Y-59717210D01*
X98771081Y-59687153D01*
X98715902Y-59632070D01*
X98715900Y-59632068D01*
X98712247Y-59628422D01*
X98676869Y-59611129D01*
X98645203Y-59575275D01*
X98648165Y-59527531D01*
X98676770Y-59498876D01*
X98708153Y-59483467D01*
X98708154Y-59483466D01*
X98712790Y-59481190D01*
X98719160Y-59474809D01*
X98797930Y-59395902D01*
X98797932Y-59395900D01*
X98801578Y-59392247D01*
X98839058Y-59315572D01*
X98854638Y-59283699D01*
X98854638Y-59283698D01*
X98856769Y-59279339D01*
X98867500Y-59205781D01*
X98867499Y-58634220D01*
X98856578Y-58560021D01*
X98854438Y-58555662D01*
X98803466Y-58451845D01*
X98803465Y-58451844D01*
X98801190Y-58447210D01*
X98797035Y-58443062D01*
X98715902Y-58362070D01*
X98715900Y-58362068D01*
X98712247Y-58358422D01*
X98629807Y-58318124D01*
X98603699Y-58305362D01*
X98603698Y-58305362D01*
X98599339Y-58303231D01*
X98594536Y-58302530D01*
X98594535Y-58302530D01*
X98572560Y-58299324D01*
X98525781Y-58292500D01*
X98251984Y-58292500D01*
X98229281Y-58288231D01*
X98207929Y-58279906D01*
X98159224Y-58260917D01*
X98159862Y-58259280D01*
X98126200Y-58234000D01*
X98117500Y-58202191D01*
X98117500Y-57299234D01*
X98135806Y-57255040D01*
X98180000Y-57236734D01*
X98222982Y-57253861D01*
X98301243Y-57327998D01*
X98447935Y-57413203D01*
X98520527Y-57435189D01*
X98597289Y-57458438D01*
X98610294Y-57462377D01*
X98779610Y-57472881D01*
X98946802Y-57444152D01*
X99102900Y-57377732D01*
X99239532Y-57277182D01*
X99349367Y-57147897D01*
X99394337Y-57059829D01*
X99430738Y-57028794D01*
X99478423Y-57032589D01*
X99509458Y-57068990D01*
X99512500Y-57088252D01*
X99512500Y-57305814D01*
X99510117Y-57320588D01*
X99510020Y-57323383D01*
X99507196Y-57331908D01*
X99512388Y-57352171D01*
X99512500Y-57352733D01*
X99512500Y-57354849D01*
X99513757Y-57359135D01*
X99513758Y-57359140D01*
X99516727Y-57369262D01*
X99517298Y-57371340D01*
X99525764Y-57404382D01*
X99527508Y-57406004D01*
X99528178Y-57408289D01*
X99534060Y-57413393D01*
X99534062Y-57413396D01*
X99553955Y-57430658D01*
X99555563Y-57432102D01*
X99574842Y-57450037D01*
X99574843Y-57450038D01*
X99580541Y-57455338D01*
X99582884Y-57455761D01*
X99584683Y-57457322D01*
X99618450Y-57462218D01*
X99620581Y-57462565D01*
X99647572Y-57467436D01*
X99654166Y-57468626D01*
X99654767Y-57468472D01*
X99656527Y-57467739D01*
X99658723Y-57468057D01*
X99668949Y-57463408D01*
X99690272Y-57453713D01*
X99692102Y-57452916D01*
X100853961Y-56968808D01*
X100877999Y-56964000D01*
X101506754Y-56964000D01*
X101550948Y-56982306D01*
G37*
%TD.AperFunction*%
M02*
