%TF.GenerationSoftware,KiCad,Pcbnew,(6.0.8)*%
%TF.CreationDate,2022-11-05T21:02:42+01:00*%
%TF.ProjectId,epi,6570692e-6b69-4636-9164-5f7063625858,1_1*%
%TF.SameCoordinates,Original*%
%TF.FileFunction,Drillmap*%
%TF.FilePolarity,Positive*%
%FSLAX45Y45*%
G04 Gerber Fmt 4.5, Leading zero omitted, Abs format (unit mm)*
G04 Created by KiCad (PCBNEW (6.0.8)) date 2022-11-05 21:02:42*
%MOMM*%
%LPD*%
G01*
G04 APERTURE LIST*
%ADD10C,0.100000*%
%ADD11C,0.200000*%
G04 APERTURE END LIST*
D10*
X11069000Y-5103650D02*
X11069000Y-5343650D01*
X9799000Y-5103650D02*
X9799000Y-5343650D01*
X9964000Y-5733650D02*
X10084000Y-5683650D01*
X10084000Y-5683650D02*
X10784000Y-5683650D01*
X11069000Y-5343650D02*
G75*
G03*
X11069000Y-5543650I0J-100000D01*
G01*
X9799000Y-5543650D02*
G75*
G03*
X9799000Y-5343650I0J100000D01*
G01*
X10904000Y-5103650D02*
X11069000Y-5103650D01*
X10904000Y-5733650D02*
X10904000Y-5103650D01*
X11069000Y-7416000D02*
X11069000Y-5543650D01*
X9799000Y-7416000D02*
X11069000Y-7416000D01*
X9799000Y-5543650D02*
X9799000Y-7416000D01*
X9799000Y-5103650D02*
X9964000Y-5103650D01*
X9964000Y-5103650D02*
X9964000Y-5733650D01*
X10784000Y-5683650D02*
X10904000Y-5733650D01*
D11*
X10051619Y-7731476D02*
X10051619Y-7531476D01*
X10099238Y-7531476D01*
X10127810Y-7541000D01*
X10146857Y-7560048D01*
X10156381Y-7579095D01*
X10165905Y-7617190D01*
X10165905Y-7645762D01*
X10156381Y-7683857D01*
X10146857Y-7702905D01*
X10127810Y-7721952D01*
X10099238Y-7731476D01*
X10051619Y-7731476D01*
X10251619Y-7731476D02*
X10251619Y-7598143D01*
X10251619Y-7636238D02*
X10261143Y-7617190D01*
X10270667Y-7607667D01*
X10289714Y-7598143D01*
X10308762Y-7598143D01*
X10375429Y-7731476D02*
X10375429Y-7598143D01*
X10375429Y-7531476D02*
X10365905Y-7541000D01*
X10375429Y-7550524D01*
X10384952Y-7541000D01*
X10375429Y-7531476D01*
X10375429Y-7550524D01*
X10499238Y-7731476D02*
X10480190Y-7721952D01*
X10470667Y-7702905D01*
X10470667Y-7531476D01*
X10604000Y-7731476D02*
X10584952Y-7721952D01*
X10575429Y-7702905D01*
X10575429Y-7531476D01*
X10832571Y-7731476D02*
X10832571Y-7531476D01*
X10899238Y-7674333D01*
X10965905Y-7531476D01*
X10965905Y-7731476D01*
X11146857Y-7731476D02*
X11146857Y-7626714D01*
X11137333Y-7607667D01*
X11118286Y-7598143D01*
X11080190Y-7598143D01*
X11061143Y-7607667D01*
X11146857Y-7721952D02*
X11127810Y-7731476D01*
X11080190Y-7731476D01*
X11061143Y-7721952D01*
X11051619Y-7702905D01*
X11051619Y-7683857D01*
X11061143Y-7664809D01*
X11080190Y-7655286D01*
X11127810Y-7655286D01*
X11146857Y-7645762D01*
X11242095Y-7598143D02*
X11242095Y-7798143D01*
X11242095Y-7607667D02*
X11261143Y-7598143D01*
X11299238Y-7598143D01*
X11318286Y-7607667D01*
X11327809Y-7617190D01*
X11337333Y-7636238D01*
X11337333Y-7693381D01*
X11327809Y-7712428D01*
X11318286Y-7721952D01*
X11299238Y-7731476D01*
X11261143Y-7731476D01*
X11242095Y-7721952D01*
X11423048Y-7712428D02*
X11432571Y-7721952D01*
X11423048Y-7731476D01*
X11413524Y-7721952D01*
X11423048Y-7712428D01*
X11423048Y-7731476D01*
X11423048Y-7607667D02*
X11432571Y-7617190D01*
X11423048Y-7626714D01*
X11413524Y-7617190D01*
X11423048Y-7607667D01*
X11423048Y-7626714D01*
M02*
