M48
; DRILL file {KiCad (6.0.8)} date Sat Nov  5 21:02:41 2022
; FORMAT={-:-/ absolute / metric / decimal}
; #@! TF.CreationDate,2022-11-05T21:02:41+01:00
; #@! TF.GenerationSoftware,Kicad,Pcbnew,(6.0.8)
; #@! TF.FileFunction,Plated,1,2,PTH
FMAT,2
METRIC
; #@! TA.AperFunction,Plated,PTH,ViaDrill
T1C0.300
; #@! TA.AperFunction,Plated,PTH,ComponentDrill
T2C0.600
; #@! TA.AperFunction,Plated,PTH,ComponentDrill
T3C0.650
%
G90
G05
T1
X99.25Y-58.316
X99.64Y-63.17
X99.69Y-60.57
X99.94Y-64.67
X99.94Y-70.92
X100.04Y-69.087
X100.19Y-61.47
X100.19Y-66.686
X100.69Y-71.27
X100.69Y-72.43
X100.74Y-62.636
X100.89Y-63.486
X101.55Y-62.816
X101.59Y-69.386
X101.94Y-57.386
X101.99Y-68.436
X102.021Y-59.814
X102.09Y-67.066
X102.34Y-63.836
X102.4Y-61.116
X102.74Y-68.087
X102.84Y-65.936
X102.89Y-72.236
X102.94Y-71.37
X103.19Y-59.736
X103.34Y-63.936
X103.49Y-58.586
X103.49Y-68.587
X103.69Y-67.186
X103.84Y-61.586
X104.04Y-60.47
X104.34Y-64.186
X104.54Y-67.986
X104.64Y-58.736
X104.89Y-59.52
X105.14Y-61.586
X105.74Y-58.736
X105.74Y-63.886
X105.74Y-72.47
X105.95Y-65.566
X106.09Y-68.486
X106.34Y-70.72
X106.615Y-63.911
X106.64Y-67.47
X106.74Y-57.486
X106.75Y-64.787
X107.49Y-62.386
X107.55Y-69.936
X107.59Y-59.586
X107.99Y-63.036
X108.54Y-64.22
X108.74Y-72.337
X108.94Y-70.837
X108.99Y-57.92
X109.4Y-68.266
T3
X97.99Y-58.92
X97.99Y-60.19
X97.99Y-61.46
X97.99Y-62.73
X97.99Y-64.0
X97.99Y-65.27
X97.99Y-66.54
X97.99Y-67.81
X97.99Y-69.08
X97.99Y-70.35
X97.99Y-71.62
X97.99Y-72.89
X101.8Y-74.16
X103.07Y-74.16
X104.34Y-74.16
X105.61Y-74.16
X106.88Y-74.16
X110.69Y-58.92
X110.69Y-60.19
X110.69Y-61.46
X110.69Y-62.73
X110.69Y-64.0
X110.69Y-65.27
X110.69Y-66.54
X110.69Y-67.81
X110.69Y-69.08
X110.69Y-70.35
X110.69Y-71.62
X110.69Y-72.89
T2
G00X98.74Y-51.791
M15
G01X98.74Y-52.892
M16
G05
G00X98.74Y-55.941
M15
G01X98.74Y-56.741
M16
G05
G00X109.94Y-51.791
M15
G01X109.94Y-52.892
M16
G05
G00X109.94Y-55.941
M15
G01X109.94Y-56.741
M16
G05
T0
M30
