%TF.GenerationSoftware,KiCad,Pcbnew,(6.0.8)*%
%TF.CreationDate,2022-11-05T21:02:42+01:00*%
%TF.ProjectId,epi,6570692e-6b69-4636-9164-5f7063625858,1_1*%
%TF.SameCoordinates,Original*%
%TF.FileFunction,Drillmap*%
%TF.FilePolarity,Positive*%
%FSLAX45Y45*%
G04 Gerber Fmt 4.5, Leading zero omitted, Abs format (unit mm)*
G04 Created by KiCad (PCBNEW (6.0.8)) date 2022-11-05 21:02:42*
%MOMM*%
%LPD*%
G01*
G04 APERTURE LIST*
%ADD10C,0.100000*%
%ADD11C,0.200000*%
%ADD12C,0.030000*%
%ADD13C,0.060000*%
%ADD14C,0.065000*%
G04 APERTURE END LIST*
D10*
X11069000Y-5103650D02*
X11069000Y-5343650D01*
X9799000Y-5103650D02*
X9799000Y-5343650D01*
X9964000Y-5733650D02*
X10084000Y-5683650D01*
X10084000Y-5683650D02*
X10784000Y-5683650D01*
X11069000Y-5343650D02*
G75*
G03*
X11069000Y-5543650I0J-100000D01*
G01*
X9799000Y-5543650D02*
G75*
G03*
X9799000Y-5343650I0J100000D01*
G01*
X10904000Y-5103650D02*
X11069000Y-5103650D01*
X10904000Y-5733650D02*
X10904000Y-5103650D01*
X11069000Y-7416000D02*
X11069000Y-5543650D01*
X9799000Y-7416000D02*
X11069000Y-7416000D01*
X9799000Y-5543650D02*
X9799000Y-7416000D01*
X9799000Y-5103650D02*
X9964000Y-5103650D01*
X9964000Y-5103650D02*
X9964000Y-5733650D01*
X10784000Y-5683650D02*
X10904000Y-5733650D01*
D11*
D12*
X9910000Y-5816650D02*
X9940000Y-5846650D01*
X9940000Y-5816650D02*
X9910000Y-5846650D01*
X9949000Y-6302000D02*
X9979000Y-6332000D01*
X9979000Y-6302000D02*
X9949000Y-6332000D01*
X9954000Y-6042000D02*
X9984000Y-6072000D01*
X9984000Y-6042000D02*
X9954000Y-6072000D01*
X9979000Y-6452000D02*
X10009000Y-6482000D01*
X10009000Y-6452000D02*
X9979000Y-6482000D01*
X9979000Y-7077000D02*
X10009000Y-7107000D01*
X10009000Y-7077000D02*
X9979000Y-7107000D01*
X9989000Y-6893650D02*
X10019000Y-6923650D01*
X10019000Y-6893650D02*
X9989000Y-6923650D01*
X10004000Y-6132000D02*
X10034000Y-6162000D01*
X10034000Y-6132000D02*
X10004000Y-6162000D01*
X10004000Y-6653650D02*
X10034000Y-6683650D01*
X10034000Y-6653650D02*
X10004000Y-6683650D01*
X10054000Y-7112000D02*
X10084000Y-7142000D01*
X10084000Y-7112000D02*
X10054000Y-7142000D01*
X10054000Y-7228000D02*
X10084000Y-7258000D01*
X10084000Y-7228000D02*
X10054000Y-7258000D01*
X10059000Y-6248650D02*
X10089000Y-6278650D01*
X10089000Y-6248650D02*
X10059000Y-6278650D01*
X10074000Y-6333650D02*
X10104000Y-6363650D01*
X10104000Y-6333650D02*
X10074000Y-6363650D01*
X10140000Y-6266650D02*
X10170000Y-6296650D01*
X10170000Y-6266650D02*
X10140000Y-6296650D01*
X10144000Y-6923650D02*
X10174000Y-6953650D01*
X10174000Y-6923650D02*
X10144000Y-6953650D01*
X10179000Y-5723650D02*
X10209000Y-5753650D01*
X10209000Y-5723650D02*
X10179000Y-5753650D01*
X10184000Y-6828650D02*
X10214000Y-6858650D01*
X10214000Y-6828650D02*
X10184000Y-6858650D01*
X10187088Y-5966439D02*
X10217088Y-5996439D01*
X10217088Y-5966439D02*
X10187088Y-5996439D01*
X10194000Y-6691650D02*
X10224000Y-6721650D01*
X10224000Y-6691650D02*
X10194000Y-6721650D01*
X10219000Y-6368650D02*
X10249000Y-6398650D01*
X10249000Y-6368650D02*
X10219000Y-6398650D01*
X10225000Y-6096650D02*
X10255000Y-6126650D01*
X10255000Y-6096650D02*
X10225000Y-6126650D01*
X10259000Y-6793650D02*
X10289000Y-6823650D01*
X10289000Y-6793650D02*
X10259000Y-6823650D01*
X10269000Y-6578650D02*
X10299000Y-6608650D01*
X10299000Y-6578650D02*
X10269000Y-6608650D01*
X10274000Y-7208650D02*
X10304000Y-7238650D01*
X10304000Y-7208650D02*
X10274000Y-7238650D01*
X10279000Y-7122000D02*
X10309000Y-7152000D01*
X10309000Y-7122000D02*
X10279000Y-7152000D01*
X10304000Y-5958650D02*
X10334000Y-5988650D01*
X10334000Y-5958650D02*
X10304000Y-5988650D01*
X10319000Y-6378650D02*
X10349000Y-6408650D01*
X10349000Y-6378650D02*
X10319000Y-6408650D01*
X10334000Y-5843650D02*
X10364000Y-5873650D01*
X10364000Y-5843650D02*
X10334000Y-5873650D01*
X10334000Y-6843650D02*
X10364000Y-6873650D01*
X10364000Y-6843650D02*
X10334000Y-6873650D01*
X10354000Y-6703650D02*
X10384000Y-6733650D01*
X10384000Y-6703650D02*
X10354000Y-6733650D01*
X10369000Y-6143650D02*
X10399000Y-6173650D01*
X10399000Y-6143650D02*
X10369000Y-6173650D01*
X10389000Y-6032000D02*
X10419000Y-6062000D01*
X10419000Y-6032000D02*
X10389000Y-6062000D01*
X10419000Y-6403650D02*
X10449000Y-6433650D01*
X10449000Y-6403650D02*
X10419000Y-6433650D01*
X10439000Y-6783650D02*
X10469000Y-6813650D01*
X10469000Y-6783650D02*
X10439000Y-6813650D01*
X10449000Y-5858650D02*
X10479000Y-5888650D01*
X10479000Y-5858650D02*
X10449000Y-5888650D01*
X10474000Y-5937000D02*
X10504000Y-5967000D01*
X10504000Y-5937000D02*
X10474000Y-5967000D01*
X10499000Y-6143650D02*
X10529000Y-6173650D01*
X10529000Y-6143650D02*
X10499000Y-6173650D01*
X10559000Y-5858650D02*
X10589000Y-5888650D01*
X10589000Y-5858650D02*
X10559000Y-5888650D01*
X10559000Y-6373650D02*
X10589000Y-6403650D01*
X10589000Y-6373650D02*
X10559000Y-6403650D01*
X10559000Y-7232000D02*
X10589000Y-7262000D01*
X10589000Y-7232000D02*
X10559000Y-7262000D01*
X10580000Y-6541650D02*
X10610000Y-6571650D01*
X10610000Y-6541650D02*
X10580000Y-6571650D01*
X10594000Y-6833650D02*
X10624000Y-6863650D01*
X10624000Y-6833650D02*
X10594000Y-6863650D01*
X10619000Y-7057000D02*
X10649000Y-7087000D01*
X10649000Y-7057000D02*
X10619000Y-7087000D01*
X10646500Y-6376150D02*
X10676500Y-6406150D01*
X10676500Y-6376150D02*
X10646500Y-6406150D01*
X10649000Y-6732000D02*
X10679000Y-6762000D01*
X10679000Y-6732000D02*
X10649000Y-6762000D01*
X10659000Y-5733650D02*
X10689000Y-5763650D01*
X10689000Y-5733650D02*
X10659000Y-5763650D01*
X10660000Y-6463650D02*
X10690000Y-6493650D01*
X10690000Y-6463650D02*
X10660000Y-6493650D01*
X10734000Y-6223650D02*
X10764000Y-6253650D01*
X10764000Y-6223650D02*
X10734000Y-6253650D01*
X10740000Y-6978650D02*
X10770000Y-7008650D01*
X10770000Y-6978650D02*
X10740000Y-7008650D01*
X10744000Y-5943650D02*
X10774000Y-5973650D01*
X10774000Y-5943650D02*
X10744000Y-5973650D01*
X10784000Y-6288650D02*
X10814000Y-6318650D01*
X10814000Y-6288650D02*
X10784000Y-6318650D01*
X10839000Y-6407000D02*
X10869000Y-6437000D01*
X10869000Y-6407000D02*
X10839000Y-6437000D01*
X10859000Y-7218650D02*
X10889000Y-7248650D01*
X10889000Y-7218650D02*
X10859000Y-7248650D01*
X10879000Y-7068650D02*
X10909000Y-7098650D01*
X10909000Y-7068650D02*
X10879000Y-7098650D01*
X10884000Y-5777000D02*
X10914000Y-5807000D01*
X10914000Y-5777000D02*
X10884000Y-5807000D01*
X10925000Y-6811650D02*
X10955000Y-6841650D01*
X10955000Y-6811650D02*
X10925000Y-6841650D01*
D13*
X9904000Y-5234150D02*
G75*
G03*
X9904000Y-5234150I-30000J0D01*
G01*
D11*
X9844000Y-5179150D02*
X9844000Y-5289150D01*
X9904000Y-5179150D02*
X9904000Y-5289150D01*
X9844000Y-5289150D02*
G75*
G03*
X9904000Y-5289150I30000J0D01*
G01*
X9904000Y-5179150D02*
G75*
G03*
X9844000Y-5179150I-30000J0D01*
G01*
D13*
X9904000Y-5634150D02*
G75*
G03*
X9904000Y-5634150I-30000J0D01*
G01*
D11*
X9844000Y-5594150D02*
X9844000Y-5674150D01*
X9904000Y-5594150D02*
X9904000Y-5674150D01*
X9844000Y-5674150D02*
G75*
G03*
X9904000Y-5674150I30000J0D01*
G01*
X9904000Y-5594150D02*
G75*
G03*
X9844000Y-5594150I-30000J0D01*
G01*
D13*
X11024000Y-5234150D02*
G75*
G03*
X11024000Y-5234150I-30000J0D01*
G01*
D11*
X10964000Y-5179150D02*
X10964000Y-5289150D01*
X11024000Y-5179150D02*
X11024000Y-5289150D01*
X10964000Y-5289150D02*
G75*
G03*
X11024000Y-5289150I30000J0D01*
G01*
X11024000Y-5179150D02*
G75*
G03*
X10964000Y-5179150I-30000J0D01*
G01*
D13*
X11024000Y-5634150D02*
G75*
G03*
X11024000Y-5634150I-30000J0D01*
G01*
D11*
X10964000Y-5594150D02*
X10964000Y-5674150D01*
X11024000Y-5594150D02*
X11024000Y-5674150D01*
X10964000Y-5674150D02*
G75*
G03*
X11024000Y-5674150I30000J0D01*
G01*
X11024000Y-5594150D02*
G75*
G03*
X10964000Y-5594150I-30000J0D01*
G01*
D14*
X9799000Y-5859500D02*
X9799000Y-5924500D01*
X9766500Y-5892000D02*
X9831500Y-5892000D01*
X9799000Y-5986500D02*
X9799000Y-6051500D01*
X9766500Y-6019000D02*
X9831500Y-6019000D01*
X9799000Y-6113500D02*
X9799000Y-6178500D01*
X9766500Y-6146000D02*
X9831500Y-6146000D01*
X9799000Y-6240500D02*
X9799000Y-6305500D01*
X9766500Y-6273000D02*
X9831500Y-6273000D01*
X9799000Y-6367500D02*
X9799000Y-6432500D01*
X9766500Y-6400000D02*
X9831500Y-6400000D01*
X9799000Y-6494500D02*
X9799000Y-6559500D01*
X9766500Y-6527000D02*
X9831500Y-6527000D01*
X9799000Y-6621500D02*
X9799000Y-6686500D01*
X9766500Y-6654000D02*
X9831500Y-6654000D01*
X9799000Y-6748500D02*
X9799000Y-6813500D01*
X9766500Y-6781000D02*
X9831500Y-6781000D01*
X9799000Y-6875500D02*
X9799000Y-6940500D01*
X9766500Y-6908000D02*
X9831500Y-6908000D01*
X9799000Y-7002500D02*
X9799000Y-7067500D01*
X9766500Y-7035000D02*
X9831500Y-7035000D01*
X9799000Y-7129500D02*
X9799000Y-7194500D01*
X9766500Y-7162000D02*
X9831500Y-7162000D01*
X9799000Y-7256500D02*
X9799000Y-7321500D01*
X9766500Y-7289000D02*
X9831500Y-7289000D01*
X10180000Y-7383500D02*
X10180000Y-7448500D01*
X10147500Y-7416000D02*
X10212500Y-7416000D01*
X10307000Y-7383500D02*
X10307000Y-7448500D01*
X10274500Y-7416000D02*
X10339500Y-7416000D01*
X10434000Y-7383500D02*
X10434000Y-7448500D01*
X10401500Y-7416000D02*
X10466500Y-7416000D01*
X10561000Y-7383500D02*
X10561000Y-7448500D01*
X10528500Y-7416000D02*
X10593500Y-7416000D01*
X10688000Y-7383500D02*
X10688000Y-7448500D01*
X10655500Y-7416000D02*
X10720500Y-7416000D01*
X11069000Y-5859500D02*
X11069000Y-5924500D01*
X11036500Y-5892000D02*
X11101500Y-5892000D01*
X11069000Y-5986500D02*
X11069000Y-6051500D01*
X11036500Y-6019000D02*
X11101500Y-6019000D01*
X11069000Y-6113500D02*
X11069000Y-6178500D01*
X11036500Y-6146000D02*
X11101500Y-6146000D01*
X11069000Y-6240500D02*
X11069000Y-6305500D01*
X11036500Y-6273000D02*
X11101500Y-6273000D01*
X11069000Y-6367500D02*
X11069000Y-6432500D01*
X11036500Y-6400000D02*
X11101500Y-6400000D01*
X11069000Y-6494500D02*
X11069000Y-6559500D01*
X11036500Y-6527000D02*
X11101500Y-6527000D01*
X11069000Y-6621500D02*
X11069000Y-6686500D01*
X11036500Y-6654000D02*
X11101500Y-6654000D01*
X11069000Y-6748500D02*
X11069000Y-6813500D01*
X11036500Y-6781000D02*
X11101500Y-6781000D01*
X11069000Y-6875500D02*
X11069000Y-6940500D01*
X11036500Y-6908000D02*
X11101500Y-6908000D01*
X11069000Y-7002500D02*
X11069000Y-7067500D01*
X11036500Y-7035000D02*
X11101500Y-7035000D01*
X11069000Y-7129500D02*
X11069000Y-7194500D01*
X11036500Y-7162000D02*
X11101500Y-7162000D01*
X11069000Y-7256500D02*
X11069000Y-7321500D01*
X11036500Y-7289000D02*
X11101500Y-7289000D01*
D11*
X10051619Y-7731476D02*
X10051619Y-7531476D01*
X10099238Y-7531476D01*
X10127810Y-7541000D01*
X10146857Y-7560048D01*
X10156381Y-7579095D01*
X10165905Y-7617190D01*
X10165905Y-7645762D01*
X10156381Y-7683857D01*
X10146857Y-7702905D01*
X10127810Y-7721952D01*
X10099238Y-7731476D01*
X10051619Y-7731476D01*
X10251619Y-7731476D02*
X10251619Y-7598143D01*
X10251619Y-7636238D02*
X10261143Y-7617190D01*
X10270667Y-7607667D01*
X10289714Y-7598143D01*
X10308762Y-7598143D01*
X10375429Y-7731476D02*
X10375429Y-7598143D01*
X10375429Y-7531476D02*
X10365905Y-7541000D01*
X10375429Y-7550524D01*
X10384952Y-7541000D01*
X10375429Y-7531476D01*
X10375429Y-7550524D01*
X10499238Y-7731476D02*
X10480190Y-7721952D01*
X10470667Y-7702905D01*
X10470667Y-7531476D01*
X10604000Y-7731476D02*
X10584952Y-7721952D01*
X10575429Y-7702905D01*
X10575429Y-7531476D01*
X10832571Y-7731476D02*
X10832571Y-7531476D01*
X10899238Y-7674333D01*
X10965905Y-7531476D01*
X10965905Y-7731476D01*
X11146857Y-7731476D02*
X11146857Y-7626714D01*
X11137333Y-7607667D01*
X11118286Y-7598143D01*
X11080190Y-7598143D01*
X11061143Y-7607667D01*
X11146857Y-7721952D02*
X11127810Y-7731476D01*
X11080190Y-7731476D01*
X11061143Y-7721952D01*
X11051619Y-7702905D01*
X11051619Y-7683857D01*
X11061143Y-7664809D01*
X11080190Y-7655286D01*
X11127810Y-7655286D01*
X11146857Y-7645762D01*
X11242095Y-7598143D02*
X11242095Y-7798143D01*
X11242095Y-7607667D02*
X11261143Y-7598143D01*
X11299238Y-7598143D01*
X11318286Y-7607667D01*
X11327809Y-7617190D01*
X11337333Y-7636238D01*
X11337333Y-7693381D01*
X11327809Y-7712428D01*
X11318286Y-7721952D01*
X11299238Y-7731476D01*
X11261143Y-7731476D01*
X11242095Y-7721952D01*
X11423048Y-7712428D02*
X11432571Y-7721952D01*
X11423048Y-7731476D01*
X11413524Y-7721952D01*
X11423048Y-7712428D01*
X11423048Y-7731476D01*
X11423048Y-7607667D02*
X11432571Y-7617190D01*
X11423048Y-7626714D01*
X11413524Y-7617190D01*
X11423048Y-7607667D01*
X11423048Y-7626714D01*
D12*
X9764000Y-8046000D02*
X9794000Y-8076000D01*
X9794000Y-8046000D02*
X9764000Y-8076000D01*
D11*
X10089714Y-7951476D02*
X10108762Y-7951476D01*
X10127810Y-7961000D01*
X10137333Y-7970524D01*
X10146857Y-7989571D01*
X10156381Y-8027667D01*
X10156381Y-8075286D01*
X10146857Y-8113381D01*
X10137333Y-8132428D01*
X10127810Y-8141952D01*
X10108762Y-8151476D01*
X10089714Y-8151476D01*
X10070667Y-8141952D01*
X10061143Y-8132428D01*
X10051619Y-8113381D01*
X10042095Y-8075286D01*
X10042095Y-8027667D01*
X10051619Y-7989571D01*
X10061143Y-7970524D01*
X10070667Y-7961000D01*
X10089714Y-7951476D01*
X10242095Y-8132428D02*
X10251619Y-8141952D01*
X10242095Y-8151476D01*
X10232571Y-8141952D01*
X10242095Y-8132428D01*
X10242095Y-8151476D01*
X10318286Y-7951476D02*
X10442095Y-7951476D01*
X10375429Y-8027667D01*
X10404000Y-8027667D01*
X10423048Y-8037190D01*
X10432571Y-8046714D01*
X10442095Y-8065762D01*
X10442095Y-8113381D01*
X10432571Y-8132428D01*
X10423048Y-8141952D01*
X10404000Y-8151476D01*
X10346857Y-8151476D01*
X10327810Y-8141952D01*
X10318286Y-8132428D01*
X10565905Y-7951476D02*
X10584952Y-7951476D01*
X10604000Y-7961000D01*
X10613524Y-7970524D01*
X10623048Y-7989571D01*
X10632571Y-8027667D01*
X10632571Y-8075286D01*
X10623048Y-8113381D01*
X10613524Y-8132428D01*
X10604000Y-8141952D01*
X10584952Y-8151476D01*
X10565905Y-8151476D01*
X10546857Y-8141952D01*
X10537333Y-8132428D01*
X10527810Y-8113381D01*
X10518286Y-8075286D01*
X10518286Y-8027667D01*
X10527810Y-7989571D01*
X10537333Y-7970524D01*
X10546857Y-7961000D01*
X10565905Y-7951476D01*
X10756381Y-7951476D02*
X10775429Y-7951476D01*
X10794476Y-7961000D01*
X10804000Y-7970524D01*
X10813524Y-7989571D01*
X10823048Y-8027667D01*
X10823048Y-8075286D01*
X10813524Y-8113381D01*
X10804000Y-8132428D01*
X10794476Y-8141952D01*
X10775429Y-8151476D01*
X10756381Y-8151476D01*
X10737333Y-8141952D01*
X10727810Y-8132428D01*
X10718286Y-8113381D01*
X10708762Y-8075286D01*
X10708762Y-8027667D01*
X10718286Y-7989571D01*
X10727810Y-7970524D01*
X10737333Y-7961000D01*
X10756381Y-7951476D01*
X10908762Y-8151476D02*
X10908762Y-8018143D01*
X10908762Y-8037190D02*
X10918286Y-8027667D01*
X10937333Y-8018143D01*
X10965905Y-8018143D01*
X10984952Y-8027667D01*
X10994476Y-8046714D01*
X10994476Y-8151476D01*
X10994476Y-8046714D02*
X11004000Y-8027667D01*
X11023048Y-8018143D01*
X11051619Y-8018143D01*
X11070667Y-8027667D01*
X11080190Y-8046714D01*
X11080190Y-8151476D01*
X11175429Y-8151476D02*
X11175429Y-8018143D01*
X11175429Y-8037190D02*
X11184952Y-8027667D01*
X11204000Y-8018143D01*
X11232571Y-8018143D01*
X11251619Y-8027667D01*
X11261143Y-8046714D01*
X11261143Y-8151476D01*
X11261143Y-8046714D02*
X11270667Y-8027667D01*
X11289714Y-8018143D01*
X11318286Y-8018143D01*
X11337333Y-8027667D01*
X11346857Y-8046714D01*
X11346857Y-8151476D01*
X11737333Y-7941952D02*
X11565905Y-8199095D01*
X11994476Y-7951476D02*
X12013524Y-7951476D01*
X12032571Y-7961000D01*
X12042095Y-7970524D01*
X12051619Y-7989571D01*
X12061143Y-8027667D01*
X12061143Y-8075286D01*
X12051619Y-8113381D01*
X12042095Y-8132428D01*
X12032571Y-8141952D01*
X12013524Y-8151476D01*
X11994476Y-8151476D01*
X11975428Y-8141952D01*
X11965905Y-8132428D01*
X11956381Y-8113381D01*
X11946857Y-8075286D01*
X11946857Y-8027667D01*
X11956381Y-7989571D01*
X11965905Y-7970524D01*
X11975428Y-7961000D01*
X11994476Y-7951476D01*
X12146857Y-8132428D02*
X12156381Y-8141952D01*
X12146857Y-8151476D01*
X12137333Y-8141952D01*
X12146857Y-8132428D01*
X12146857Y-8151476D01*
X12280190Y-7951476D02*
X12299238Y-7951476D01*
X12318286Y-7961000D01*
X12327809Y-7970524D01*
X12337333Y-7989571D01*
X12346857Y-8027667D01*
X12346857Y-8075286D01*
X12337333Y-8113381D01*
X12327809Y-8132428D01*
X12318286Y-8141952D01*
X12299238Y-8151476D01*
X12280190Y-8151476D01*
X12261143Y-8141952D01*
X12251619Y-8132428D01*
X12242095Y-8113381D01*
X12232571Y-8075286D01*
X12232571Y-8027667D01*
X12242095Y-7989571D01*
X12251619Y-7970524D01*
X12261143Y-7961000D01*
X12280190Y-7951476D01*
X12537333Y-8151476D02*
X12423048Y-8151476D01*
X12480190Y-8151476D02*
X12480190Y-7951476D01*
X12461143Y-7980048D01*
X12442095Y-7999095D01*
X12423048Y-8008619D01*
X12727809Y-8151476D02*
X12613524Y-8151476D01*
X12670667Y-8151476D02*
X12670667Y-7951476D01*
X12651619Y-7980048D01*
X12632571Y-7999095D01*
X12613524Y-8008619D01*
X12842095Y-8037190D02*
X12823048Y-8027667D01*
X12813524Y-8018143D01*
X12804000Y-7999095D01*
X12804000Y-7989571D01*
X12813524Y-7970524D01*
X12823048Y-7961000D01*
X12842095Y-7951476D01*
X12880190Y-7951476D01*
X12899238Y-7961000D01*
X12908762Y-7970524D01*
X12918286Y-7989571D01*
X12918286Y-7999095D01*
X12908762Y-8018143D01*
X12899238Y-8027667D01*
X12880190Y-8037190D01*
X12842095Y-8037190D01*
X12823048Y-8046714D01*
X12813524Y-8056238D01*
X12804000Y-8075286D01*
X12804000Y-8113381D01*
X12813524Y-8132428D01*
X12823048Y-8141952D01*
X12842095Y-8151476D01*
X12880190Y-8151476D01*
X12899238Y-8141952D01*
X12908762Y-8132428D01*
X12918286Y-8113381D01*
X12918286Y-8075286D01*
X12908762Y-8056238D01*
X12899238Y-8046714D01*
X12880190Y-8037190D01*
X12994476Y-7951476D02*
X12994476Y-7989571D01*
X13070667Y-7951476D02*
X13070667Y-7989571D01*
X13365905Y-8227667D02*
X13356381Y-8218143D01*
X13337333Y-8189571D01*
X13327809Y-8170524D01*
X13318286Y-8141952D01*
X13308762Y-8094333D01*
X13308762Y-8056238D01*
X13318286Y-8008619D01*
X13327809Y-7980048D01*
X13337333Y-7961000D01*
X13356381Y-7932428D01*
X13365905Y-7922905D01*
X13537333Y-7951476D02*
X13442095Y-7951476D01*
X13432571Y-8046714D01*
X13442095Y-8037190D01*
X13461143Y-8027667D01*
X13508762Y-8027667D01*
X13527809Y-8037190D01*
X13537333Y-8046714D01*
X13546857Y-8065762D01*
X13546857Y-8113381D01*
X13537333Y-8132428D01*
X13527809Y-8141952D01*
X13508762Y-8151476D01*
X13461143Y-8151476D01*
X13442095Y-8141952D01*
X13432571Y-8132428D01*
X13727809Y-7951476D02*
X13632571Y-7951476D01*
X13623048Y-8046714D01*
X13632571Y-8037190D01*
X13651619Y-8027667D01*
X13699238Y-8027667D01*
X13718286Y-8037190D01*
X13727809Y-8046714D01*
X13737333Y-8065762D01*
X13737333Y-8113381D01*
X13727809Y-8132428D01*
X13718286Y-8141952D01*
X13699238Y-8151476D01*
X13651619Y-8151476D01*
X13632571Y-8141952D01*
X13623048Y-8132428D01*
X13975428Y-8151476D02*
X13975428Y-7951476D01*
X14061143Y-8151476D02*
X14061143Y-8046714D01*
X14051619Y-8027667D01*
X14032571Y-8018143D01*
X14004000Y-8018143D01*
X13984952Y-8027667D01*
X13975428Y-8037190D01*
X14184952Y-8151476D02*
X14165905Y-8141952D01*
X14156381Y-8132428D01*
X14146857Y-8113381D01*
X14146857Y-8056238D01*
X14156381Y-8037190D01*
X14165905Y-8027667D01*
X14184952Y-8018143D01*
X14213524Y-8018143D01*
X14232571Y-8027667D01*
X14242095Y-8037190D01*
X14251619Y-8056238D01*
X14251619Y-8113381D01*
X14242095Y-8132428D01*
X14232571Y-8141952D01*
X14213524Y-8151476D01*
X14184952Y-8151476D01*
X14365905Y-8151476D02*
X14346857Y-8141952D01*
X14337333Y-8122905D01*
X14337333Y-7951476D01*
X14518286Y-8141952D02*
X14499238Y-8151476D01*
X14461143Y-8151476D01*
X14442095Y-8141952D01*
X14432571Y-8122905D01*
X14432571Y-8046714D01*
X14442095Y-8027667D01*
X14461143Y-8018143D01*
X14499238Y-8018143D01*
X14518286Y-8027667D01*
X14527809Y-8046714D01*
X14527809Y-8065762D01*
X14432571Y-8084809D01*
X14604000Y-8141952D02*
X14623048Y-8151476D01*
X14661143Y-8151476D01*
X14680190Y-8141952D01*
X14689714Y-8122905D01*
X14689714Y-8113381D01*
X14680190Y-8094333D01*
X14661143Y-8084809D01*
X14632571Y-8084809D01*
X14613524Y-8075286D01*
X14604000Y-8056238D01*
X14604000Y-8046714D01*
X14613524Y-8027667D01*
X14632571Y-8018143D01*
X14661143Y-8018143D01*
X14680190Y-8027667D01*
X14756381Y-8227667D02*
X14765905Y-8218143D01*
X14784952Y-8189571D01*
X14794476Y-8170524D01*
X14804000Y-8141952D01*
X14813524Y-8094333D01*
X14813524Y-8056238D01*
X14804000Y-8008619D01*
X14794476Y-7980048D01*
X14784952Y-7961000D01*
X14765905Y-7932428D01*
X14756381Y-7922905D01*
D13*
X9794000Y-8325000D02*
G75*
G03*
X9794000Y-8325000I-30000J0D01*
G01*
D11*
X10089714Y-8215476D02*
X10108762Y-8215476D01*
X10127810Y-8225000D01*
X10137333Y-8234524D01*
X10146857Y-8253571D01*
X10156381Y-8291667D01*
X10156381Y-8339286D01*
X10146857Y-8377381D01*
X10137333Y-8396429D01*
X10127810Y-8405952D01*
X10108762Y-8415476D01*
X10089714Y-8415476D01*
X10070667Y-8405952D01*
X10061143Y-8396429D01*
X10051619Y-8377381D01*
X10042095Y-8339286D01*
X10042095Y-8291667D01*
X10051619Y-8253571D01*
X10061143Y-8234524D01*
X10070667Y-8225000D01*
X10089714Y-8215476D01*
X10242095Y-8396429D02*
X10251619Y-8405952D01*
X10242095Y-8415476D01*
X10232571Y-8405952D01*
X10242095Y-8396429D01*
X10242095Y-8415476D01*
X10423048Y-8215476D02*
X10384952Y-8215476D01*
X10365905Y-8225000D01*
X10356381Y-8234524D01*
X10337333Y-8263095D01*
X10327810Y-8301190D01*
X10327810Y-8377381D01*
X10337333Y-8396429D01*
X10346857Y-8405952D01*
X10365905Y-8415476D01*
X10404000Y-8415476D01*
X10423048Y-8405952D01*
X10432571Y-8396429D01*
X10442095Y-8377381D01*
X10442095Y-8329762D01*
X10432571Y-8310714D01*
X10423048Y-8301190D01*
X10404000Y-8291667D01*
X10365905Y-8291667D01*
X10346857Y-8301190D01*
X10337333Y-8310714D01*
X10327810Y-8329762D01*
X10565905Y-8215476D02*
X10584952Y-8215476D01*
X10604000Y-8225000D01*
X10613524Y-8234524D01*
X10623048Y-8253571D01*
X10632571Y-8291667D01*
X10632571Y-8339286D01*
X10623048Y-8377381D01*
X10613524Y-8396429D01*
X10604000Y-8405952D01*
X10584952Y-8415476D01*
X10565905Y-8415476D01*
X10546857Y-8405952D01*
X10537333Y-8396429D01*
X10527810Y-8377381D01*
X10518286Y-8339286D01*
X10518286Y-8291667D01*
X10527810Y-8253571D01*
X10537333Y-8234524D01*
X10546857Y-8225000D01*
X10565905Y-8215476D01*
X10756381Y-8215476D02*
X10775429Y-8215476D01*
X10794476Y-8225000D01*
X10804000Y-8234524D01*
X10813524Y-8253571D01*
X10823048Y-8291667D01*
X10823048Y-8339286D01*
X10813524Y-8377381D01*
X10804000Y-8396429D01*
X10794476Y-8405952D01*
X10775429Y-8415476D01*
X10756381Y-8415476D01*
X10737333Y-8405952D01*
X10727810Y-8396429D01*
X10718286Y-8377381D01*
X10708762Y-8339286D01*
X10708762Y-8291667D01*
X10718286Y-8253571D01*
X10727810Y-8234524D01*
X10737333Y-8225000D01*
X10756381Y-8215476D01*
X10908762Y-8415476D02*
X10908762Y-8282143D01*
X10908762Y-8301190D02*
X10918286Y-8291667D01*
X10937333Y-8282143D01*
X10965905Y-8282143D01*
X10984952Y-8291667D01*
X10994476Y-8310714D01*
X10994476Y-8415476D01*
X10994476Y-8310714D02*
X11004000Y-8291667D01*
X11023048Y-8282143D01*
X11051619Y-8282143D01*
X11070667Y-8291667D01*
X11080190Y-8310714D01*
X11080190Y-8415476D01*
X11175429Y-8415476D02*
X11175429Y-8282143D01*
X11175429Y-8301190D02*
X11184952Y-8291667D01*
X11204000Y-8282143D01*
X11232571Y-8282143D01*
X11251619Y-8291667D01*
X11261143Y-8310714D01*
X11261143Y-8415476D01*
X11261143Y-8310714D02*
X11270667Y-8291667D01*
X11289714Y-8282143D01*
X11318286Y-8282143D01*
X11337333Y-8291667D01*
X11346857Y-8310714D01*
X11346857Y-8415476D01*
X11737333Y-8205952D02*
X11565905Y-8463095D01*
X11994476Y-8215476D02*
X12013524Y-8215476D01*
X12032571Y-8225000D01*
X12042095Y-8234524D01*
X12051619Y-8253571D01*
X12061143Y-8291667D01*
X12061143Y-8339286D01*
X12051619Y-8377381D01*
X12042095Y-8396429D01*
X12032571Y-8405952D01*
X12013524Y-8415476D01*
X11994476Y-8415476D01*
X11975428Y-8405952D01*
X11965905Y-8396429D01*
X11956381Y-8377381D01*
X11946857Y-8339286D01*
X11946857Y-8291667D01*
X11956381Y-8253571D01*
X11965905Y-8234524D01*
X11975428Y-8225000D01*
X11994476Y-8215476D01*
X12146857Y-8396429D02*
X12156381Y-8405952D01*
X12146857Y-8415476D01*
X12137333Y-8405952D01*
X12146857Y-8396429D01*
X12146857Y-8415476D01*
X12280190Y-8215476D02*
X12299238Y-8215476D01*
X12318286Y-8225000D01*
X12327809Y-8234524D01*
X12337333Y-8253571D01*
X12346857Y-8291667D01*
X12346857Y-8339286D01*
X12337333Y-8377381D01*
X12327809Y-8396429D01*
X12318286Y-8405952D01*
X12299238Y-8415476D01*
X12280190Y-8415476D01*
X12261143Y-8405952D01*
X12251619Y-8396429D01*
X12242095Y-8377381D01*
X12232571Y-8339286D01*
X12232571Y-8291667D01*
X12242095Y-8253571D01*
X12251619Y-8234524D01*
X12261143Y-8225000D01*
X12280190Y-8215476D01*
X12423048Y-8234524D02*
X12432571Y-8225000D01*
X12451619Y-8215476D01*
X12499238Y-8215476D01*
X12518286Y-8225000D01*
X12527809Y-8234524D01*
X12537333Y-8253571D01*
X12537333Y-8272619D01*
X12527809Y-8301190D01*
X12413524Y-8415476D01*
X12537333Y-8415476D01*
X12604000Y-8215476D02*
X12727809Y-8215476D01*
X12661143Y-8291667D01*
X12689714Y-8291667D01*
X12708762Y-8301190D01*
X12718286Y-8310714D01*
X12727809Y-8329762D01*
X12727809Y-8377381D01*
X12718286Y-8396429D01*
X12708762Y-8405952D01*
X12689714Y-8415476D01*
X12632571Y-8415476D01*
X12613524Y-8405952D01*
X12604000Y-8396429D01*
X12899238Y-8215476D02*
X12861143Y-8215476D01*
X12842095Y-8225000D01*
X12832571Y-8234524D01*
X12813524Y-8263095D01*
X12804000Y-8301190D01*
X12804000Y-8377381D01*
X12813524Y-8396429D01*
X12823048Y-8405952D01*
X12842095Y-8415476D01*
X12880190Y-8415476D01*
X12899238Y-8405952D01*
X12908762Y-8396429D01*
X12918286Y-8377381D01*
X12918286Y-8329762D01*
X12908762Y-8310714D01*
X12899238Y-8301190D01*
X12880190Y-8291667D01*
X12842095Y-8291667D01*
X12823048Y-8301190D01*
X12813524Y-8310714D01*
X12804000Y-8329762D01*
X12994476Y-8215476D02*
X12994476Y-8253571D01*
X13070667Y-8215476D02*
X13070667Y-8253571D01*
X13365905Y-8491667D02*
X13356381Y-8482143D01*
X13337333Y-8453571D01*
X13327809Y-8434524D01*
X13318286Y-8405952D01*
X13308762Y-8358333D01*
X13308762Y-8320238D01*
X13318286Y-8272619D01*
X13327809Y-8244048D01*
X13337333Y-8225000D01*
X13356381Y-8196428D01*
X13365905Y-8186905D01*
X13480190Y-8215476D02*
X13499238Y-8215476D01*
X13518286Y-8225000D01*
X13527809Y-8234524D01*
X13537333Y-8253571D01*
X13546857Y-8291667D01*
X13546857Y-8339286D01*
X13537333Y-8377381D01*
X13527809Y-8396429D01*
X13518286Y-8405952D01*
X13499238Y-8415476D01*
X13480190Y-8415476D01*
X13461143Y-8405952D01*
X13451619Y-8396429D01*
X13442095Y-8377381D01*
X13432571Y-8339286D01*
X13432571Y-8291667D01*
X13442095Y-8253571D01*
X13451619Y-8234524D01*
X13461143Y-8225000D01*
X13480190Y-8215476D01*
X13784952Y-8415476D02*
X13784952Y-8215476D01*
X13870667Y-8415476D02*
X13870667Y-8310714D01*
X13861143Y-8291667D01*
X13842095Y-8282143D01*
X13813524Y-8282143D01*
X13794476Y-8291667D01*
X13784952Y-8301190D01*
X13994476Y-8415476D02*
X13975428Y-8405952D01*
X13965905Y-8396429D01*
X13956381Y-8377381D01*
X13956381Y-8320238D01*
X13965905Y-8301190D01*
X13975428Y-8291667D01*
X13994476Y-8282143D01*
X14023048Y-8282143D01*
X14042095Y-8291667D01*
X14051619Y-8301190D01*
X14061143Y-8320238D01*
X14061143Y-8377381D01*
X14051619Y-8396429D01*
X14042095Y-8405952D01*
X14023048Y-8415476D01*
X13994476Y-8415476D01*
X14175428Y-8415476D02*
X14156381Y-8405952D01*
X14146857Y-8386905D01*
X14146857Y-8215476D01*
X14327809Y-8405952D02*
X14308762Y-8415476D01*
X14270667Y-8415476D01*
X14251619Y-8405952D01*
X14242095Y-8386905D01*
X14242095Y-8310714D01*
X14251619Y-8291667D01*
X14270667Y-8282143D01*
X14308762Y-8282143D01*
X14327809Y-8291667D01*
X14337333Y-8310714D01*
X14337333Y-8329762D01*
X14242095Y-8348809D01*
X14413524Y-8405952D02*
X14432571Y-8415476D01*
X14470667Y-8415476D01*
X14489714Y-8405952D01*
X14499238Y-8386905D01*
X14499238Y-8377381D01*
X14489714Y-8358333D01*
X14470667Y-8348809D01*
X14442095Y-8348809D01*
X14423048Y-8339286D01*
X14413524Y-8320238D01*
X14413524Y-8310714D01*
X14423048Y-8291667D01*
X14442095Y-8282143D01*
X14470667Y-8282143D01*
X14489714Y-8291667D01*
X14737333Y-8339286D02*
X14889714Y-8339286D01*
X14813524Y-8415476D02*
X14813524Y-8263095D01*
X15223048Y-8282143D02*
X15223048Y-8415476D01*
X15175428Y-8205952D02*
X15127809Y-8348809D01*
X15251619Y-8348809D01*
X15470667Y-8405952D02*
X15489714Y-8415476D01*
X15527809Y-8415476D01*
X15546857Y-8405952D01*
X15556381Y-8386905D01*
X15556381Y-8377381D01*
X15546857Y-8358333D01*
X15527809Y-8348809D01*
X15499238Y-8348809D01*
X15480190Y-8339286D01*
X15470667Y-8320238D01*
X15470667Y-8310714D01*
X15480190Y-8291667D01*
X15499238Y-8282143D01*
X15527809Y-8282143D01*
X15546857Y-8291667D01*
X15670667Y-8415476D02*
X15651619Y-8405952D01*
X15642095Y-8386905D01*
X15642095Y-8215476D01*
X15775428Y-8415476D02*
X15756381Y-8405952D01*
X15746857Y-8396429D01*
X15737333Y-8377381D01*
X15737333Y-8320238D01*
X15746857Y-8301190D01*
X15756381Y-8291667D01*
X15775428Y-8282143D01*
X15804000Y-8282143D01*
X15823048Y-8291667D01*
X15832571Y-8301190D01*
X15842095Y-8320238D01*
X15842095Y-8377381D01*
X15832571Y-8396429D01*
X15823048Y-8405952D01*
X15804000Y-8415476D01*
X15775428Y-8415476D01*
X15899238Y-8282143D02*
X15975428Y-8282143D01*
X15927809Y-8215476D02*
X15927809Y-8386905D01*
X15937333Y-8405952D01*
X15956381Y-8415476D01*
X15975428Y-8415476D01*
X16032571Y-8405952D02*
X16051619Y-8415476D01*
X16089714Y-8415476D01*
X16108762Y-8405952D01*
X16118286Y-8386905D01*
X16118286Y-8377381D01*
X16108762Y-8358333D01*
X16089714Y-8348809D01*
X16061143Y-8348809D01*
X16042095Y-8339286D01*
X16032571Y-8320238D01*
X16032571Y-8310714D01*
X16042095Y-8291667D01*
X16061143Y-8282143D01*
X16089714Y-8282143D01*
X16108762Y-8291667D01*
X16184952Y-8491667D02*
X16194476Y-8482143D01*
X16213524Y-8453571D01*
X16223048Y-8434524D01*
X16232571Y-8405952D01*
X16242095Y-8358333D01*
X16242095Y-8320238D01*
X16232571Y-8272619D01*
X16223048Y-8244048D01*
X16213524Y-8225000D01*
X16194476Y-8196428D01*
X16184952Y-8186905D01*
D14*
X9761500Y-8556500D02*
X9761500Y-8621500D01*
X9729000Y-8589000D02*
X9794000Y-8589000D01*
D11*
X10089714Y-8479476D02*
X10108762Y-8479476D01*
X10127810Y-8489000D01*
X10137333Y-8498524D01*
X10146857Y-8517571D01*
X10156381Y-8555667D01*
X10156381Y-8603286D01*
X10146857Y-8641381D01*
X10137333Y-8660429D01*
X10127810Y-8669952D01*
X10108762Y-8679476D01*
X10089714Y-8679476D01*
X10070667Y-8669952D01*
X10061143Y-8660429D01*
X10051619Y-8641381D01*
X10042095Y-8603286D01*
X10042095Y-8555667D01*
X10051619Y-8517571D01*
X10061143Y-8498524D01*
X10070667Y-8489000D01*
X10089714Y-8479476D01*
X10242095Y-8660429D02*
X10251619Y-8669952D01*
X10242095Y-8679476D01*
X10232571Y-8669952D01*
X10242095Y-8660429D01*
X10242095Y-8679476D01*
X10423048Y-8479476D02*
X10384952Y-8479476D01*
X10365905Y-8489000D01*
X10356381Y-8498524D01*
X10337333Y-8527095D01*
X10327810Y-8565190D01*
X10327810Y-8641381D01*
X10337333Y-8660429D01*
X10346857Y-8669952D01*
X10365905Y-8679476D01*
X10404000Y-8679476D01*
X10423048Y-8669952D01*
X10432571Y-8660429D01*
X10442095Y-8641381D01*
X10442095Y-8593762D01*
X10432571Y-8574714D01*
X10423048Y-8565190D01*
X10404000Y-8555667D01*
X10365905Y-8555667D01*
X10346857Y-8565190D01*
X10337333Y-8574714D01*
X10327810Y-8593762D01*
X10623048Y-8479476D02*
X10527810Y-8479476D01*
X10518286Y-8574714D01*
X10527810Y-8565190D01*
X10546857Y-8555667D01*
X10594476Y-8555667D01*
X10613524Y-8565190D01*
X10623048Y-8574714D01*
X10632571Y-8593762D01*
X10632571Y-8641381D01*
X10623048Y-8660429D01*
X10613524Y-8669952D01*
X10594476Y-8679476D01*
X10546857Y-8679476D01*
X10527810Y-8669952D01*
X10518286Y-8660429D01*
X10756381Y-8479476D02*
X10775429Y-8479476D01*
X10794476Y-8489000D01*
X10804000Y-8498524D01*
X10813524Y-8517571D01*
X10823048Y-8555667D01*
X10823048Y-8603286D01*
X10813524Y-8641381D01*
X10804000Y-8660429D01*
X10794476Y-8669952D01*
X10775429Y-8679476D01*
X10756381Y-8679476D01*
X10737333Y-8669952D01*
X10727810Y-8660429D01*
X10718286Y-8641381D01*
X10708762Y-8603286D01*
X10708762Y-8555667D01*
X10718286Y-8517571D01*
X10727810Y-8498524D01*
X10737333Y-8489000D01*
X10756381Y-8479476D01*
X10908762Y-8679476D02*
X10908762Y-8546143D01*
X10908762Y-8565190D02*
X10918286Y-8555667D01*
X10937333Y-8546143D01*
X10965905Y-8546143D01*
X10984952Y-8555667D01*
X10994476Y-8574714D01*
X10994476Y-8679476D01*
X10994476Y-8574714D02*
X11004000Y-8555667D01*
X11023048Y-8546143D01*
X11051619Y-8546143D01*
X11070667Y-8555667D01*
X11080190Y-8574714D01*
X11080190Y-8679476D01*
X11175429Y-8679476D02*
X11175429Y-8546143D01*
X11175429Y-8565190D02*
X11184952Y-8555667D01*
X11204000Y-8546143D01*
X11232571Y-8546143D01*
X11251619Y-8555667D01*
X11261143Y-8574714D01*
X11261143Y-8679476D01*
X11261143Y-8574714D02*
X11270667Y-8555667D01*
X11289714Y-8546143D01*
X11318286Y-8546143D01*
X11337333Y-8555667D01*
X11346857Y-8574714D01*
X11346857Y-8679476D01*
X11737333Y-8469952D02*
X11565905Y-8727095D01*
X11994476Y-8479476D02*
X12013524Y-8479476D01*
X12032571Y-8489000D01*
X12042095Y-8498524D01*
X12051619Y-8517571D01*
X12061143Y-8555667D01*
X12061143Y-8603286D01*
X12051619Y-8641381D01*
X12042095Y-8660429D01*
X12032571Y-8669952D01*
X12013524Y-8679476D01*
X11994476Y-8679476D01*
X11975428Y-8669952D01*
X11965905Y-8660429D01*
X11956381Y-8641381D01*
X11946857Y-8603286D01*
X11946857Y-8555667D01*
X11956381Y-8517571D01*
X11965905Y-8498524D01*
X11975428Y-8489000D01*
X11994476Y-8479476D01*
X12146857Y-8660429D02*
X12156381Y-8669952D01*
X12146857Y-8679476D01*
X12137333Y-8669952D01*
X12146857Y-8660429D01*
X12146857Y-8679476D01*
X12280190Y-8479476D02*
X12299238Y-8479476D01*
X12318286Y-8489000D01*
X12327809Y-8498524D01*
X12337333Y-8517571D01*
X12346857Y-8555667D01*
X12346857Y-8603286D01*
X12337333Y-8641381D01*
X12327809Y-8660429D01*
X12318286Y-8669952D01*
X12299238Y-8679476D01*
X12280190Y-8679476D01*
X12261143Y-8669952D01*
X12251619Y-8660429D01*
X12242095Y-8641381D01*
X12232571Y-8603286D01*
X12232571Y-8555667D01*
X12242095Y-8517571D01*
X12251619Y-8498524D01*
X12261143Y-8489000D01*
X12280190Y-8479476D01*
X12423048Y-8498524D02*
X12432571Y-8489000D01*
X12451619Y-8479476D01*
X12499238Y-8479476D01*
X12518286Y-8489000D01*
X12527809Y-8498524D01*
X12537333Y-8517571D01*
X12537333Y-8536619D01*
X12527809Y-8565190D01*
X12413524Y-8679476D01*
X12537333Y-8679476D01*
X12718286Y-8479476D02*
X12623048Y-8479476D01*
X12613524Y-8574714D01*
X12623048Y-8565190D01*
X12642095Y-8555667D01*
X12689714Y-8555667D01*
X12708762Y-8565190D01*
X12718286Y-8574714D01*
X12727809Y-8593762D01*
X12727809Y-8641381D01*
X12718286Y-8660429D01*
X12708762Y-8669952D01*
X12689714Y-8679476D01*
X12642095Y-8679476D01*
X12623048Y-8669952D01*
X12613524Y-8660429D01*
X12899238Y-8479476D02*
X12861143Y-8479476D01*
X12842095Y-8489000D01*
X12832571Y-8498524D01*
X12813524Y-8527095D01*
X12804000Y-8565190D01*
X12804000Y-8641381D01*
X12813524Y-8660429D01*
X12823048Y-8669952D01*
X12842095Y-8679476D01*
X12880190Y-8679476D01*
X12899238Y-8669952D01*
X12908762Y-8660429D01*
X12918286Y-8641381D01*
X12918286Y-8593762D01*
X12908762Y-8574714D01*
X12899238Y-8565190D01*
X12880190Y-8555667D01*
X12842095Y-8555667D01*
X12823048Y-8565190D01*
X12813524Y-8574714D01*
X12804000Y-8593762D01*
X12994476Y-8479476D02*
X12994476Y-8517571D01*
X13070667Y-8479476D02*
X13070667Y-8517571D01*
X13365905Y-8755667D02*
X13356381Y-8746143D01*
X13337333Y-8717571D01*
X13327809Y-8698524D01*
X13318286Y-8669952D01*
X13308762Y-8622333D01*
X13308762Y-8584238D01*
X13318286Y-8536619D01*
X13327809Y-8508048D01*
X13337333Y-8489000D01*
X13356381Y-8460429D01*
X13365905Y-8450905D01*
X13432571Y-8498524D02*
X13442095Y-8489000D01*
X13461143Y-8479476D01*
X13508762Y-8479476D01*
X13527809Y-8489000D01*
X13537333Y-8498524D01*
X13546857Y-8517571D01*
X13546857Y-8536619D01*
X13537333Y-8565190D01*
X13423048Y-8679476D01*
X13546857Y-8679476D01*
X13642095Y-8679476D02*
X13680190Y-8679476D01*
X13699238Y-8669952D01*
X13708762Y-8660429D01*
X13727809Y-8631857D01*
X13737333Y-8593762D01*
X13737333Y-8517571D01*
X13727809Y-8498524D01*
X13718286Y-8489000D01*
X13699238Y-8479476D01*
X13661143Y-8479476D01*
X13642095Y-8489000D01*
X13632571Y-8498524D01*
X13623048Y-8517571D01*
X13623048Y-8565190D01*
X13632571Y-8584238D01*
X13642095Y-8593762D01*
X13661143Y-8603286D01*
X13699238Y-8603286D01*
X13718286Y-8593762D01*
X13727809Y-8584238D01*
X13737333Y-8565190D01*
X13975428Y-8679476D02*
X13975428Y-8479476D01*
X14061143Y-8679476D02*
X14061143Y-8574714D01*
X14051619Y-8555667D01*
X14032571Y-8546143D01*
X14004000Y-8546143D01*
X13984952Y-8555667D01*
X13975428Y-8565190D01*
X14184952Y-8679476D02*
X14165905Y-8669952D01*
X14156381Y-8660429D01*
X14146857Y-8641381D01*
X14146857Y-8584238D01*
X14156381Y-8565190D01*
X14165905Y-8555667D01*
X14184952Y-8546143D01*
X14213524Y-8546143D01*
X14232571Y-8555667D01*
X14242095Y-8565190D01*
X14251619Y-8584238D01*
X14251619Y-8641381D01*
X14242095Y-8660429D01*
X14232571Y-8669952D01*
X14213524Y-8679476D01*
X14184952Y-8679476D01*
X14365905Y-8679476D02*
X14346857Y-8669952D01*
X14337333Y-8650905D01*
X14337333Y-8479476D01*
X14518286Y-8669952D02*
X14499238Y-8679476D01*
X14461143Y-8679476D01*
X14442095Y-8669952D01*
X14432571Y-8650905D01*
X14432571Y-8574714D01*
X14442095Y-8555667D01*
X14461143Y-8546143D01*
X14499238Y-8546143D01*
X14518286Y-8555667D01*
X14527809Y-8574714D01*
X14527809Y-8593762D01*
X14432571Y-8612810D01*
X14604000Y-8669952D02*
X14623048Y-8679476D01*
X14661143Y-8679476D01*
X14680190Y-8669952D01*
X14689714Y-8650905D01*
X14689714Y-8641381D01*
X14680190Y-8622333D01*
X14661143Y-8612810D01*
X14632571Y-8612810D01*
X14613524Y-8603286D01*
X14604000Y-8584238D01*
X14604000Y-8574714D01*
X14613524Y-8555667D01*
X14632571Y-8546143D01*
X14661143Y-8546143D01*
X14680190Y-8555667D01*
X14756381Y-8755667D02*
X14765905Y-8746143D01*
X14784952Y-8717571D01*
X14794476Y-8698524D01*
X14804000Y-8669952D01*
X14813524Y-8622333D01*
X14813524Y-8584238D01*
X14804000Y-8536619D01*
X14794476Y-8508048D01*
X14784952Y-8489000D01*
X14765905Y-8460429D01*
X14756381Y-8450905D01*
M02*
