%TF.GenerationSoftware,KiCad,Pcbnew,(6.0.8)*%
%TF.CreationDate,2022-10-31T15:06:43+01:00*%
%TF.ProjectId,epi,6570692e-6b69-4636-9164-5f7063625858,rev?*%
%TF.SameCoordinates,Original*%
%TF.FileFunction,Paste,Top*%
%TF.FilePolarity,Positive*%
%FSLAX46Y46*%
G04 Gerber Fmt 4.6, Leading zero omitted, Abs format (unit mm)*
G04 Created by KiCad (PCBNEW (6.0.8)) date 2022-10-31 15:06:43*
%MOMM*%
%LPD*%
G01*
G04 APERTURE LIST*
G04 Aperture macros list*
%AMRoundRect*
0 Rectangle with rounded corners*
0 $1 Rounding radius*
0 $2 $3 $4 $5 $6 $7 $8 $9 X,Y pos of 4 corners*
0 Add a 4 corners polygon primitive as box body*
4,1,4,$2,$3,$4,$5,$6,$7,$8,$9,$2,$3,0*
0 Add four circle primitives for the rounded corners*
1,1,$1+$1,$2,$3*
1,1,$1+$1,$4,$5*
1,1,$1+$1,$6,$7*
1,1,$1+$1,$8,$9*
0 Add four rect primitives between the rounded corners*
20,1,$1+$1,$2,$3,$4,$5,0*
20,1,$1+$1,$4,$5,$6,$7,0*
20,1,$1+$1,$6,$7,$8,$9,0*
20,1,$1+$1,$8,$9,$2,$3,0*%
%AMOutline5P*
0 Free polygon, 5 corners , with rotation*
0 The origin of the aperture is its center*
0 number of corners: always 5*
0 $1 to $10 corner X, Y*
0 $11 Rotation angle, in degrees counterclockwise*
0 create outline with 5 corners*
4,1,5,$1,$2,$3,$4,$5,$6,$7,$8,$9,$10,$1,$2,$11*%
%AMOutline6P*
0 Free polygon, 6 corners , with rotation*
0 The origin of the aperture is its center*
0 number of corners: always 6*
0 $1 to $12 corner X, Y*
0 $13 Rotation angle, in degrees counterclockwise*
0 create outline with 6 corners*
4,1,6,$1,$2,$3,$4,$5,$6,$7,$8,$9,$10,$11,$12,$1,$2,$13*%
%AMOutline7P*
0 Free polygon, 7 corners , with rotation*
0 The origin of the aperture is its center*
0 number of corners: always 7*
0 $1 to $14 corner X, Y*
0 $15 Rotation angle, in degrees counterclockwise*
0 create outline with 7 corners*
4,1,7,$1,$2,$3,$4,$5,$6,$7,$8,$9,$10,$11,$12,$13,$14,$1,$2,$15*%
%AMOutline8P*
0 Free polygon, 8 corners , with rotation*
0 The origin of the aperture is its center*
0 number of corners: always 8*
0 $1 to $16 corner X, Y*
0 $17 Rotation angle, in degrees counterclockwise*
0 create outline with 8 corners*
4,1,8,$1,$2,$3,$4,$5,$6,$7,$8,$9,$10,$11,$12,$13,$14,$15,$16,$1,$2,$17*%
G04 Aperture macros list end*
%ADD10RoundRect,0.140000X0.170000X-0.140000X0.170000X0.140000X-0.170000X0.140000X-0.170000X-0.140000X0*%
%ADD11RoundRect,0.135000X-0.185000X0.135000X-0.185000X-0.135000X0.185000X-0.135000X0.185000X0.135000X0*%
%ADD12RoundRect,0.135000X0.135000X0.185000X-0.135000X0.185000X-0.135000X-0.185000X0.135000X-0.185000X0*%
%ADD13RoundRect,0.140000X-0.140000X-0.170000X0.140000X-0.170000X0.140000X0.170000X-0.140000X0.170000X0*%
%ADD14RoundRect,0.062500X-0.062500X0.475000X-0.062500X-0.475000X0.062500X-0.475000X0.062500X0.475000X0*%
%ADD15RoundRect,0.062500X-0.475000X0.062500X-0.475000X-0.062500X0.475000X-0.062500X0.475000X0.062500X0*%
%ADD16RoundRect,0.147500X-0.172500X0.147500X-0.172500X-0.147500X0.172500X-0.147500X0.172500X0.147500X0*%
%ADD17RoundRect,0.135000X0.185000X-0.135000X0.185000X0.135000X-0.185000X0.135000X-0.185000X-0.135000X0*%
%ADD18RoundRect,0.147500X-0.147500X-0.172500X0.147500X-0.172500X0.147500X0.172500X-0.147500X0.172500X0*%
%ADD19RoundRect,0.140000X-0.170000X0.140000X-0.170000X-0.140000X0.170000X-0.140000X0.170000X0.140000X0*%
%ADD20Outline5P,-0.450000X0.160000X-0.210000X0.400000X0.450000X0.400000X0.450000X-0.400000X-0.450000X-0.400000X0.000000*%
%ADD21R,0.900000X0.800000*%
%ADD22R,0.615500X1.000000*%
%ADD23R,0.307750X1.000000*%
%ADD24R,0.607750X0.300000*%
%ADD25RoundRect,0.135000X-0.135000X-0.185000X0.135000X-0.185000X0.135000X0.185000X-0.135000X0.185000X0*%
G04 APERTURE END LIST*
D10*
%TO.C,C8*%
X95800000Y-46930000D03*
X95800000Y-45970000D03*
%TD*%
D11*
%TO.C,RV1*%
X101000000Y-44890000D03*
X101000000Y-45910000D03*
%TD*%
D12*
%TO.C,R4*%
X101310000Y-44000000D03*
X100290000Y-44000000D03*
%TD*%
D13*
%TO.C,C1*%
X102060000Y-45900000D03*
X103020000Y-45900000D03*
%TD*%
D14*
%TO.C,U1*%
X102500000Y-48212500D03*
X102000000Y-48212500D03*
X101500000Y-48212500D03*
X101000000Y-48212500D03*
X100500000Y-48212500D03*
X100000000Y-48212500D03*
X99500000Y-48212500D03*
X99000000Y-48212500D03*
X98500000Y-48212500D03*
X98000000Y-48212500D03*
X97500000Y-48212500D03*
D15*
X96662500Y-49050000D03*
X96662500Y-49550000D03*
X96662500Y-50050000D03*
X96662500Y-50550000D03*
X96662500Y-51050000D03*
X96662500Y-51550000D03*
X96662500Y-52050000D03*
X96662500Y-52550000D03*
X96662500Y-53050000D03*
X96662500Y-53550000D03*
X96662500Y-54050000D03*
D14*
X97500000Y-54887500D03*
X98000000Y-54887500D03*
X98500000Y-54887500D03*
X99000000Y-54887500D03*
X99500000Y-54887500D03*
X100000000Y-54887500D03*
X100500000Y-54887500D03*
X101000000Y-54887500D03*
X101500000Y-54887500D03*
X102000000Y-54887500D03*
X102500000Y-54887500D03*
D15*
X103337500Y-54050000D03*
X103337500Y-53550000D03*
X103337500Y-53050000D03*
X103337500Y-52550000D03*
X103337500Y-52050000D03*
X103337500Y-51550000D03*
X103337500Y-51050000D03*
X103337500Y-50550000D03*
X103337500Y-50050000D03*
X103337500Y-49550000D03*
X103337500Y-49050000D03*
%TD*%
D16*
%TO.C,D2*%
X103550000Y-56682500D03*
X103550000Y-57652500D03*
%TD*%
D11*
%TO.C,R2*%
X99950000Y-44890000D03*
X99950000Y-45910000D03*
%TD*%
%TO.C,R6*%
X104650000Y-46840000D03*
X104650000Y-47860000D03*
%TD*%
D17*
%TO.C,R7*%
X104600000Y-55260000D03*
X104600000Y-54240000D03*
%TD*%
D11*
%TO.C,R1*%
X97775000Y-43940000D03*
X97775000Y-44960000D03*
%TD*%
D12*
%TO.C,FB1*%
X97760000Y-46000000D03*
X96740000Y-46000000D03*
%TD*%
D17*
%TO.C,RV2*%
X96825000Y-44960000D03*
X96825000Y-43940000D03*
%TD*%
D12*
%TO.C,R3*%
X103060000Y-44950000D03*
X102040000Y-44950000D03*
%TD*%
D18*
%TO.C,D1*%
X102715000Y-46950000D03*
X103685000Y-46950000D03*
%TD*%
D19*
%TO.C,C6*%
X102200000Y-56670000D03*
X102200000Y-57630000D03*
%TD*%
D10*
%TO.C,C4*%
X104000000Y-45980000D03*
X104000000Y-45020000D03*
%TD*%
D20*
%TO.C,Y1*%
X100950000Y-57850000D03*
D21*
X99550000Y-56750000D03*
X99550000Y-57850000D03*
X100950000Y-56750000D03*
%TD*%
D10*
%TO.C,C2*%
X104600000Y-49680000D03*
X104600000Y-48720000D03*
%TD*%
D12*
%TO.C,R8*%
X104510000Y-58600000D03*
X103490000Y-58600000D03*
%TD*%
D22*
%TO.C,J4*%
X96800000Y-42705000D03*
X103200000Y-42705000D03*
X102400000Y-42705000D03*
D23*
X101250923Y-42705000D03*
X100249970Y-42705000D03*
X99751169Y-42705860D03*
X98750589Y-42705000D03*
D22*
X97600000Y-42705000D03*
D23*
X98247811Y-42705000D03*
X99250692Y-42705860D03*
X100750447Y-42705000D03*
X101750000Y-42705000D03*
D24*
X96800000Y-43105000D03*
X103200000Y-43105000D03*
%TD*%
D19*
%TO.C,C3*%
X104100000Y-43170000D03*
X104100000Y-44130000D03*
%TD*%
D10*
%TO.C,C5*%
X98300000Y-57630000D03*
X98300000Y-56670000D03*
%TD*%
D25*
%TO.C,R5*%
X102190000Y-44000000D03*
X103210000Y-44000000D03*
%TD*%
D10*
%TO.C,C7*%
X95800000Y-44905000D03*
X95800000Y-43945000D03*
%TD*%
M02*
