%TF.GenerationSoftware,KiCad,Pcbnew,(6.0.8)*%
%TF.CreationDate,2022-10-31T15:06:42+01:00*%
%TF.ProjectId,epi,6570692e-6b69-4636-9164-5f7063625858,rev?*%
%TF.SameCoordinates,Original*%
%TF.FileFunction,Copper,L2,Bot*%
%TF.FilePolarity,Positive*%
%FSLAX46Y46*%
G04 Gerber Fmt 4.6, Leading zero omitted, Abs format (unit mm)*
G04 Created by KiCad (PCBNEW (6.0.8)) date 2022-10-31 15:06:42*
%MOMM*%
%LPD*%
G01*
G04 APERTURE LIST*
G04 Aperture macros list*
%AMRoundRect*
0 Rectangle with rounded corners*
0 $1 Rounding radius*
0 $2 $3 $4 $5 $6 $7 $8 $9 X,Y pos of 4 corners*
0 Add a 4 corners polygon primitive as box body*
4,1,4,$2,$3,$4,$5,$6,$7,$8,$9,$2,$3,0*
0 Add four circle primitives for the rounded corners*
1,1,$1+$1,$2,$3*
1,1,$1+$1,$4,$5*
1,1,$1+$1,$6,$7*
1,1,$1+$1,$8,$9*
0 Add four rect primitives between the rounded corners*
20,1,$1+$1,$2,$3,$4,$5,0*
20,1,$1+$1,$4,$5,$6,$7,0*
20,1,$1+$1,$6,$7,$8,$9,0*
20,1,$1+$1,$8,$9,$2,$3,0*%
G04 Aperture macros list end*
%TA.AperFunction,ComponentPad*%
%ADD10RoundRect,0.250000X-0.250000X0.500000X-0.250000X-0.500000X0.250000X-0.500000X0.250000X0.500000X0*%
%TD*%
%TA.AperFunction,ComponentPad*%
%ADD11RoundRect,0.250000X-0.500000X-0.250000X0.500000X-0.250000X0.500000X0.250000X-0.500000X0.250000X0*%
%TD*%
%TA.AperFunction,ComponentPad*%
%ADD12O,1.200000X2.300000*%
%TD*%
%TA.AperFunction,ComponentPad*%
%ADD13O,1.200000X2.000000*%
%TD*%
%TA.AperFunction,ViaPad*%
%ADD14C,0.500000*%
%TD*%
%TA.AperFunction,Conductor*%
%ADD15C,0.200000*%
%TD*%
%TA.AperFunction,Conductor*%
%ADD16C,0.127000*%
%TD*%
G04 APERTURE END LIST*
D10*
%TO.P,J3,1,Pin_1*%
%TO.N,IO11*%
X101900000Y-59400000D03*
%TO.P,J3,2,Pin_2*%
%TO.N,IO12*%
X100630000Y-59400000D03*
%TO.P,J3,3,Pin_3*%
%TO.N,IO13*%
X99360000Y-59400000D03*
%TO.P,J3,4,Pin_4*%
%TO.N,A5*%
X98090000Y-59400000D03*
%TD*%
D11*
%TO.P,J1,1,Pin_1*%
%TO.N,D1{slash}TX*%
X93750000Y-44250000D03*
%TO.P,J1,2,Pin_2*%
%TO.N,D0{slash}RX*%
X93750000Y-45520000D03*
%TO.P,J1,3,Pin_3*%
%TO.N,GND*%
X93750000Y-46790000D03*
%TO.P,J1,4,Pin_4*%
X93750000Y-48060000D03*
%TO.P,J1,5,Pin_5*%
%TO.N,D2{slash}SDA*%
X93750000Y-49330000D03*
%TO.P,J1,6,Pin_6*%
%TO.N,D3{slash}SCL*%
X93750000Y-50600000D03*
%TO.P,J1,7,Pin_7*%
%TO.N,D4*%
X93750000Y-51870000D03*
%TO.P,J1,8,Pin_8*%
%TO.N,D5*%
X93750000Y-53140000D03*
%TO.P,J1,9,Pin_9*%
%TO.N,D6*%
X93750000Y-54410000D03*
%TO.P,J1,10,Pin_10*%
%TO.N,D7*%
X93750000Y-55680000D03*
%TO.P,J1,11,Pin_11*%
%TO.N,IO8*%
X93750000Y-56950000D03*
%TO.P,J1,12,Pin_12*%
%TO.N,IO9*%
X93750000Y-58220000D03*
%TD*%
D12*
%TO.P,J4,S1,SHIELD*%
%TO.N,unconnected-(J4-PadS1)*%
X105600000Y-37705000D03*
D13*
X105600000Y-41705000D03*
D12*
X94400000Y-37705000D03*
D13*
X94400000Y-41705000D03*
%TD*%
D11*
%TO.P,J2,1,Pin_1*%
%TO.N,VBUS*%
X106250000Y-44250000D03*
%TO.P,J2,2,Pin_2*%
%TO.N,GND*%
X106250000Y-45520000D03*
%TO.P,J2,3,Pin_3*%
%TO.N,RST*%
X106250000Y-46790000D03*
%TO.P,J2,4,Pin_4*%
%TO.N,A4*%
X106250000Y-48060000D03*
%TO.P,J2,5,Pin_5*%
%TO.N,A3*%
X106250000Y-49330000D03*
%TO.P,J2,6,Pin_6*%
%TO.N,A2*%
X106250000Y-50600000D03*
%TO.P,J2,7,Pin_7*%
%TO.N,A1*%
X106250000Y-51870000D03*
%TO.P,J2,8,Pin_8*%
%TO.N,A0*%
X106250000Y-53140000D03*
%TO.P,J2,9,Pin_9*%
%TO.N,D15{slash}SCK*%
X106250000Y-54410000D03*
%TO.P,J2,10,Pin_10*%
%TO.N,D14{slash}MISO*%
X106250000Y-55680000D03*
%TO.P,J2,11,Pin_11*%
%TO.N,D16{slash}MOSI*%
X106250000Y-56950000D03*
%TO.P,J2,12,Pin_12*%
%TO.N,IO10*%
X106250000Y-58220000D03*
%TD*%
D14*
%TO.N,VBUS*%
X97600000Y-42750000D03*
X102400000Y-42850000D03*
%TO.N,GND*%
X95450000Y-48000000D03*
X96350000Y-56500000D03*
X104400000Y-57700000D03*
X96900000Y-44000000D03*
X99850000Y-47050000D03*
X95600000Y-49250000D03*
X103450000Y-55300000D03*
X102200000Y-56550000D03*
X95000000Y-43500000D03*
X104000000Y-45000000D03*
X97250000Y-54750000D03*
X98300000Y-57600000D03*
X104500000Y-49700000D03*
X96600000Y-47000000D03*
X104850000Y-53650000D03*
X101400000Y-44100000D03*
%TO.N,Net-(C2-Pad2)*%
X97900000Y-46050000D03*
X102275000Y-49275000D03*
%TO.N,Net-(C5-Pad2)*%
X97750000Y-52250000D03*
X99500000Y-56750000D03*
%TO.N,Net-(C6-Pad2)*%
X100200000Y-53350000D03*
X100950000Y-57850000D03*
%TO.N,Net-(C7-Pad1)*%
X95250000Y-44850000D03*
X102200000Y-50150000D03*
%TO.N,Net-(C8-Pad2)*%
X100000000Y-49550000D03*
X95850000Y-45900000D03*
%TO.N,RST*%
X103150000Y-47750000D03*
X101400000Y-49250000D03*
%TO.N,D0{slash}RX*%
X96400000Y-48000000D03*
%TO.N,IO11*%
X96550000Y-48850000D03*
%TO.N,IO12*%
X99150000Y-53950000D03*
%TO.N,Net-(J4-PadA7)*%
X100950000Y-44900000D03*
X99150000Y-43950000D03*
%TO.N,Net-(J4-PadB5)*%
X98850000Y-45100000D03*
X100300000Y-44100000D03*
%TO.N,D+*%
X100800000Y-47050000D03*
X98900000Y-46300000D03*
%TO.N,D-*%
X99900000Y-45900000D03*
X101650000Y-47100000D03*
%TO.N,D7*%
X98400000Y-53450000D03*
X101400000Y-50950000D03*
X103650000Y-48400000D03*
%TO.N,D15{slash}SCK*%
X99000000Y-49300000D03*
%TO.N,D16{slash}MOSI*%
X98000000Y-49200000D03*
%TO.N,D14{slash}MISO*%
X97350000Y-48250000D03*
X104600000Y-56200000D03*
%TO.N,D3{slash}SCL*%
X95850000Y-52050000D03*
%TO.N,D2{slash}SDA*%
X98500000Y-51300000D03*
%TO.N,D4*%
X95700000Y-54450000D03*
X97650000Y-53800000D03*
%TO.N,IO10*%
X102300000Y-52650000D03*
%TO.N,D5*%
X101750000Y-53850000D03*
%TO.N,A5*%
X99350000Y-52550000D03*
X95600000Y-56150000D03*
%TD*%
D15*
%TO.N,VBUS*%
X102260000Y-42710000D02*
X97640000Y-42710000D01*
X97640000Y-42710000D02*
X97600000Y-42750000D01*
X102400000Y-42850000D02*
X102260000Y-42710000D01*
D16*
%TO.N,GND*%
X103100000Y-44100000D02*
X104000000Y-45000000D01*
X101400000Y-44100000D02*
X103100000Y-44100000D01*
%TO.N,Net-(C2-Pad2)*%
X98350000Y-46896910D02*
X98936500Y-47483410D01*
X100450000Y-48750000D02*
X100203090Y-48750000D01*
X97800000Y-46050000D02*
X98350000Y-46600000D01*
X101203090Y-49850000D02*
X100836500Y-49483410D01*
X98350000Y-46600000D02*
X98350000Y-46896910D01*
X100836500Y-49483410D02*
X100836500Y-49136500D01*
X100203090Y-48750000D02*
X98936500Y-47483410D01*
X102275000Y-49275000D02*
X101700000Y-49850000D01*
X100836500Y-49136500D02*
X100450000Y-48750000D01*
X101700000Y-49850000D02*
X101203090Y-49850000D01*
%TO.N,Net-(C5-Pad2)*%
X99583410Y-51936500D02*
X100763500Y-53116590D01*
X98807090Y-52246000D02*
X99116590Y-51936500D01*
X100763500Y-53116590D02*
X100763500Y-55486500D01*
X97754000Y-52246000D02*
X98807090Y-52246000D01*
X99116590Y-51936500D02*
X99583410Y-51936500D01*
X97750000Y-52250000D02*
X97754000Y-52246000D01*
X100763500Y-55486500D02*
X99500000Y-56750000D01*
%TO.N,Net-(C6-Pad2)*%
X97700000Y-56359210D02*
X97700000Y-58200000D01*
X100200000Y-53350000D02*
X100000000Y-53350000D01*
X100600000Y-58200000D02*
X100950000Y-57850000D01*
X99950000Y-54109210D02*
X97700000Y-56359210D01*
X97700000Y-58200000D02*
X100600000Y-58200000D01*
X99950000Y-53400000D02*
X99950000Y-54109210D01*
X100000000Y-53350000D02*
X99950000Y-53400000D01*
%TO.N,Net-(C7-Pad1)*%
X95250000Y-44850000D02*
X95600000Y-44850000D01*
X100582500Y-49241710D02*
X100582500Y-49588620D01*
X102154000Y-50104000D02*
X102200000Y-50150000D01*
X95600000Y-44850000D02*
X97363500Y-46613500D01*
X100344790Y-49004000D02*
X100582500Y-49241710D01*
X101097880Y-50104000D02*
X102154000Y-50104000D01*
X97363500Y-46613500D02*
X97707380Y-46613500D01*
X97707380Y-46613500D02*
X100097880Y-49004000D01*
X100582500Y-49588620D02*
X101097880Y-50104000D01*
X100097880Y-49004000D02*
X100344790Y-49004000D01*
%TO.N,Net-(C8-Pad2)*%
X97258290Y-46867500D02*
X97602170Y-46867500D01*
X97602170Y-46867500D02*
X100000000Y-49265330D01*
X100000000Y-49265330D02*
X100000000Y-49550000D01*
X95850000Y-45900000D02*
X96290790Y-45900000D01*
X96290790Y-45900000D02*
X97258290Y-46867500D01*
%TO.N,RST*%
X103150000Y-47750000D02*
X102900000Y-47750000D01*
X102900000Y-47750000D02*
X101400000Y-49250000D01*
%TO.N,D0{slash}RX*%
X96400000Y-48000000D02*
X96332961Y-48000000D01*
X96332961Y-48000000D02*
X93852961Y-45520000D01*
X93852961Y-45520000D02*
X93813500Y-45520000D01*
%TO.N,IO11*%
X98734515Y-50737605D02*
X99128395Y-50737605D01*
X99128395Y-50737605D02*
X101526370Y-53135580D01*
X96550000Y-48850000D02*
X96550000Y-48906120D01*
X102886500Y-58350000D02*
X101900000Y-59336500D01*
X96550000Y-48906120D02*
X98380380Y-50736500D01*
X98380380Y-50736500D02*
X98733410Y-50736500D01*
X98733410Y-50736500D02*
X98734515Y-50737605D01*
X102886500Y-54189590D02*
X102886500Y-58350000D01*
X101832490Y-53135580D02*
X102886500Y-54189590D01*
X101526370Y-53135580D02*
X101832490Y-53135580D01*
%TO.N,IO12*%
X97454000Y-58454000D02*
X97446000Y-58446000D01*
X97446000Y-58446000D02*
X97446000Y-56254000D01*
X100630000Y-59336500D02*
X100630000Y-59230000D01*
X100630000Y-59230000D02*
X99854000Y-58454000D01*
X99854000Y-58454000D02*
X97454000Y-58454000D01*
X97446000Y-56254000D02*
X99450000Y-54250000D01*
X99450000Y-54250000D02*
X99150000Y-53950000D01*
%TO.N,Net-(J4-PadA7)*%
X98286500Y-45333410D02*
X98653090Y-45700000D01*
X99150000Y-43950000D02*
X98286500Y-44813500D01*
X98286500Y-44813500D02*
X98286500Y-45333410D01*
X99303090Y-45700000D02*
X100103090Y-44900000D01*
X98653090Y-45700000D02*
X99303090Y-45700000D01*
X100103090Y-44900000D02*
X100950000Y-44900000D01*
%TO.N,Net-(J4-PadB5)*%
X99650000Y-44300000D02*
X98850000Y-45100000D01*
X100300000Y-44100000D02*
X100100000Y-44300000D01*
X100100000Y-44300000D02*
X99650000Y-44300000D01*
%TO.N,D+*%
X99666590Y-46463500D02*
X100263500Y-46463500D01*
X100263500Y-46463500D02*
X100800000Y-47000000D01*
X100800000Y-47000000D02*
X100800000Y-47050000D01*
X98900000Y-46300000D02*
X99503090Y-46300000D01*
X99503090Y-46300000D02*
X99666590Y-46463500D01*
%TO.N,D-*%
X100200000Y-46200000D02*
X100750000Y-46200000D01*
X100750000Y-46200000D02*
X101650000Y-47100000D01*
X99900000Y-45900000D02*
X100200000Y-46200000D01*
%TO.N,D7*%
X98350000Y-54990790D02*
X98350000Y-53500000D01*
X102196910Y-50950000D02*
X103650000Y-49496910D01*
X98350000Y-53500000D02*
X98400000Y-53450000D01*
X93852961Y-55680000D02*
X95272961Y-57100000D01*
X101400000Y-50950000D02*
X102196910Y-50950000D01*
X97192000Y-57100000D02*
X97192000Y-56148790D01*
X97192000Y-56148790D02*
X98350000Y-54990790D01*
X95272961Y-57100000D02*
X97192000Y-57100000D01*
X103650000Y-49496910D02*
X103650000Y-48400000D01*
X93813500Y-55680000D02*
X93852961Y-55680000D01*
%TO.N,D15{slash}SCK*%
X106186500Y-54473500D02*
X106186500Y-54410000D01*
X103371500Y-53237750D02*
X104633750Y-54500000D01*
X103371500Y-52206170D02*
X103371500Y-53237750D01*
X106160000Y-54500000D02*
X106186500Y-54473500D01*
X101018420Y-51550000D02*
X102715330Y-51550000D01*
X99000000Y-49300000D02*
X99000000Y-49531580D01*
X104633750Y-54500000D02*
X106160000Y-54500000D01*
X102715330Y-51550000D02*
X103371500Y-52206170D01*
X99000000Y-49531580D02*
X101018420Y-51550000D01*
%TO.N,D16{slash}MOSI*%
X103117500Y-52311380D02*
X103117500Y-53342960D01*
X103117500Y-53342960D02*
X105246000Y-55471460D01*
X99338815Y-50229605D02*
X100913210Y-51804000D01*
X98000000Y-49200000D02*
X98053090Y-49200000D01*
X105246000Y-55471460D02*
X105246000Y-56496000D01*
X100913210Y-51804000D02*
X102610120Y-51804000D01*
X105700000Y-56950000D02*
X106186500Y-56950000D01*
X98053090Y-49200000D02*
X99082695Y-50229605D01*
X105246000Y-56496000D02*
X105700000Y-56950000D01*
X99082695Y-50229605D02*
X99338815Y-50229605D01*
X102610120Y-51804000D02*
X103117500Y-52311380D01*
%TO.N,D14{slash}MISO*%
X97450000Y-48350000D02*
X97350000Y-48250000D01*
X100808000Y-52058000D02*
X99233605Y-50483605D01*
X102504910Y-52058000D02*
X100808000Y-52058000D01*
X99233605Y-50483605D02*
X98977485Y-50483605D01*
X97436500Y-49433410D02*
X97436500Y-48966590D01*
X102863500Y-53448170D02*
X102863500Y-52416590D01*
X102863500Y-52416590D02*
X102504910Y-52058000D01*
X104600000Y-56200000D02*
X104600000Y-55184670D01*
X98571940Y-50078060D02*
X98081150Y-50078060D01*
X98977485Y-50483605D02*
X98571940Y-50078060D01*
X98081150Y-50078060D02*
X97436500Y-49433410D01*
X97450000Y-48953090D02*
X97450000Y-48350000D01*
X104600000Y-55184670D02*
X102863500Y-53448170D01*
X97436500Y-48966590D02*
X97450000Y-48953090D01*
%TO.N,D3{slash}SCL*%
X95850000Y-51862603D02*
X94587397Y-50600000D01*
X95850000Y-52050000D02*
X95850000Y-51862603D01*
X94587397Y-50600000D02*
X93813500Y-50600000D01*
%TO.N,D2{slash}SDA*%
X98500000Y-51300000D02*
X97000000Y-49800000D01*
X95100000Y-49800000D02*
X94630000Y-49330000D01*
X94630000Y-49330000D02*
X93813500Y-49330000D01*
X97000000Y-49800000D02*
X95100000Y-49800000D01*
%TO.N,D4*%
X95800000Y-54350000D02*
X95700000Y-54450000D01*
X95800000Y-53750000D02*
X95800000Y-54350000D01*
X97650000Y-53800000D02*
X97600000Y-53750000D01*
X97600000Y-53750000D02*
X95800000Y-53750000D01*
%TO.N,IO10*%
X102300000Y-52650000D02*
X102300000Y-53243880D01*
X104036500Y-56536500D02*
X105720000Y-58220000D01*
X105720000Y-58220000D02*
X106186500Y-58220000D01*
X104036500Y-54980380D02*
X104036500Y-56536500D01*
X102300000Y-53243880D02*
X104036500Y-54980380D01*
%TO.N,D5*%
X101250000Y-53350000D02*
X101250000Y-53240790D01*
X101750000Y-53850000D02*
X101250000Y-53350000D01*
X98288910Y-51992000D02*
X97983410Y-51686500D01*
X97983410Y-51686500D02*
X97145080Y-51686500D01*
X97145080Y-51686500D02*
X95691580Y-53140000D01*
X95691580Y-53140000D02*
X93813500Y-53140000D01*
X99691710Y-51682500D02*
X99011380Y-51682500D01*
X98701880Y-51992000D02*
X98288910Y-51992000D01*
X101250000Y-53240790D02*
X99691710Y-51682500D01*
X99011380Y-51682500D02*
X98701880Y-51992000D01*
%TO.N,A5*%
X95694790Y-53496000D02*
X95546000Y-53644790D01*
X97063500Y-53236500D02*
X96804000Y-53496000D01*
X97813500Y-53236500D02*
X97063500Y-53236500D01*
X95546000Y-53807090D02*
X95100000Y-54253090D01*
X99350000Y-52550000D02*
X99050000Y-52850000D01*
X96804000Y-53496000D02*
X95694790Y-53496000D01*
X95546000Y-53644790D02*
X95546000Y-53807090D01*
X99050000Y-52850000D02*
X98200000Y-52850000D01*
X95100000Y-54253090D02*
X95100000Y-55650000D01*
X95100000Y-55650000D02*
X95600000Y-56150000D01*
X98200000Y-52850000D02*
X97813500Y-53236500D01*
%TD*%
%TA.AperFunction,Conductor*%
%TO.N,GND*%
G36*
X103184194Y-54398189D02*
G01*
X103827194Y-55041189D01*
X103845500Y-55085383D01*
X103845500Y-56493268D01*
X103844250Y-56500607D01*
X103844977Y-56500690D01*
X103844180Y-56507681D01*
X103841848Y-56514322D01*
X103842626Y-56521315D01*
X103842626Y-56521316D01*
X103845117Y-56543697D01*
X103845500Y-56550610D01*
X103845500Y-56558033D01*
X103847081Y-56564965D01*
X103848257Y-56571918D01*
X103851486Y-56600929D01*
X103855219Y-56606893D01*
X103856594Y-56610841D01*
X103858403Y-56614600D01*
X103859968Y-56621459D01*
X103864353Y-56626961D01*
X103864353Y-56626962D01*
X103878148Y-56644273D01*
X103882244Y-56650059D01*
X103884220Y-56653215D01*
X103886096Y-56656211D01*
X103891309Y-56661424D01*
X103895994Y-56666668D01*
X103914275Y-56689609D01*
X103920614Y-56692667D01*
X103926115Y-56697058D01*
X103925689Y-56697592D01*
X103931853Y-56701968D01*
X105354194Y-58124309D01*
X105372500Y-58168503D01*
X105372501Y-58336183D01*
X105372501Y-58505780D01*
X105383422Y-58579979D01*
X105385562Y-58584337D01*
X105385562Y-58584338D01*
X105431161Y-58677210D01*
X105438810Y-58692790D01*
X105442462Y-58696436D01*
X105442463Y-58696437D01*
X105524098Y-58777930D01*
X105524100Y-58777932D01*
X105527753Y-58781578D01*
X105640661Y-58836769D01*
X105645464Y-58837470D01*
X105645465Y-58837470D01*
X105667440Y-58840676D01*
X105714219Y-58847500D01*
X105988016Y-58847500D01*
X106010718Y-58851769D01*
X106029259Y-58858998D01*
X106077266Y-58877715D01*
X106077270Y-58877716D01*
X106080776Y-58879083D01*
X106084513Y-58879575D01*
X106203442Y-58895233D01*
X106203448Y-58895233D01*
X106205473Y-58895500D01*
X106290996Y-58895500D01*
X106292868Y-58895274D01*
X106292876Y-58895273D01*
X106376275Y-58885180D01*
X106412313Y-58880819D01*
X106415842Y-58879485D01*
X106419496Y-58878588D01*
X106419790Y-58879785D01*
X106463228Y-58881156D01*
X106495968Y-58916031D01*
X106500000Y-58938115D01*
X106500000Y-59687500D01*
X106481694Y-59731694D01*
X106437500Y-59750000D01*
X102590000Y-59750000D01*
X102545806Y-59731694D01*
X102527500Y-59687500D01*
X102527500Y-59674046D01*
X102533200Y-59651105D01*
X102532152Y-59650703D01*
X102533503Y-59647183D01*
X102535265Y-59643855D01*
X102575095Y-59485284D01*
X102575951Y-59321790D01*
X102537784Y-59162810D01*
X102536058Y-59159465D01*
X102536056Y-59159461D01*
X102534461Y-59156371D01*
X102527499Y-59127705D01*
X102527499Y-59005004D01*
X102545805Y-58960810D01*
X102990987Y-58515628D01*
X102997061Y-58511323D01*
X102996605Y-58510750D01*
X103002113Y-58506369D01*
X103008458Y-58503322D01*
X103021217Y-58487368D01*
X103026918Y-58480239D01*
X103031535Y-58475080D01*
X103036784Y-58469831D01*
X103040557Y-58463828D01*
X103044665Y-58458047D01*
X103048302Y-58453500D01*
X103062883Y-58435267D01*
X103064460Y-58428407D01*
X103066278Y-58424647D01*
X103067656Y-58420711D01*
X103071402Y-58414752D01*
X103074680Y-58385758D01*
X103075870Y-58378792D01*
X103077500Y-58371703D01*
X103077500Y-58364329D01*
X103077896Y-58357308D01*
X103078531Y-58351688D01*
X103081191Y-58328161D01*
X103078870Y-58321516D01*
X103078086Y-58314522D01*
X103078764Y-58314446D01*
X103077500Y-58306994D01*
X103077500Y-54442383D01*
X103095806Y-54398189D01*
X103140000Y-54379883D01*
X103184194Y-54398189D01*
G37*
%TD.AperFunction*%
%TA.AperFunction,Conductor*%
G36*
X101061194Y-53413946D02*
G01*
X101072221Y-53429491D01*
X101073468Y-53434959D01*
X101077851Y-53440460D01*
X101077852Y-53440461D01*
X101091648Y-53457773D01*
X101095744Y-53463559D01*
X101099596Y-53469711D01*
X101104809Y-53474924D01*
X101109494Y-53480168D01*
X101120943Y-53494535D01*
X101127775Y-53503109D01*
X101134114Y-53506167D01*
X101139615Y-53510558D01*
X101139189Y-53511092D01*
X101145353Y-53515468D01*
X101256375Y-53626490D01*
X101274681Y-53670684D01*
X101269516Y-53693838D01*
X101269641Y-53693876D01*
X101269148Y-53695488D01*
X101268756Y-53697244D01*
X101266447Y-53702163D01*
X101244391Y-53843823D01*
X101244968Y-53848236D01*
X101244968Y-53848238D01*
X101245277Y-53850598D01*
X101262980Y-53985979D01*
X101264773Y-53990054D01*
X101312883Y-54099391D01*
X101320720Y-54117203D01*
X101323584Y-54120610D01*
X101410107Y-54223543D01*
X101410110Y-54223546D01*
X101412970Y-54226948D01*
X101532313Y-54306390D01*
X101536564Y-54307718D01*
X101664905Y-54347814D01*
X101664908Y-54347814D01*
X101669157Y-54349142D01*
X101673609Y-54349224D01*
X101673611Y-54349224D01*
X101744642Y-54350526D01*
X101812499Y-54351770D01*
X101950817Y-54314060D01*
X102072991Y-54239045D01*
X102090202Y-54220031D01*
X102166213Y-54136054D01*
X102169200Y-54132754D01*
X102231710Y-54003733D01*
X102240231Y-53953087D01*
X102265616Y-53912543D01*
X102312235Y-53901823D01*
X102346057Y-53919262D01*
X102476817Y-54050021D01*
X102677194Y-54250398D01*
X102695500Y-54294592D01*
X102695500Y-58244997D01*
X102677194Y-58289191D01*
X102407639Y-58558746D01*
X102363445Y-58577052D01*
X102335998Y-58570703D01*
X102263699Y-58535362D01*
X102263698Y-58535362D01*
X102259339Y-58533231D01*
X102254536Y-58532530D01*
X102254535Y-58532530D01*
X102232560Y-58529324D01*
X102185781Y-58522500D01*
X101900755Y-58522500D01*
X101614220Y-58522501D01*
X101540021Y-58533422D01*
X101535663Y-58535562D01*
X101535662Y-58535562D01*
X101431845Y-58586534D01*
X101431844Y-58586535D01*
X101427210Y-58588810D01*
X101423564Y-58592462D01*
X101423563Y-58592463D01*
X101342070Y-58674098D01*
X101342068Y-58674100D01*
X101338422Y-58677753D01*
X101336154Y-58682393D01*
X101321129Y-58713131D01*
X101285275Y-58744797D01*
X101237531Y-58741835D01*
X101208876Y-58713230D01*
X101193467Y-58681847D01*
X101193466Y-58681846D01*
X101191190Y-58677210D01*
X101183008Y-58669042D01*
X101105902Y-58592070D01*
X101105900Y-58592068D01*
X101102247Y-58588422D01*
X101031363Y-58553773D01*
X100993699Y-58535362D01*
X100993698Y-58535362D01*
X100989339Y-58533231D01*
X100984536Y-58532530D01*
X100984535Y-58532530D01*
X100962560Y-58529324D01*
X100915781Y-58522500D01*
X100630755Y-58522500D01*
X100344220Y-58522501D01*
X100270021Y-58533422D01*
X100265661Y-58535563D01*
X100265660Y-58535563D01*
X100265556Y-58535614D01*
X100265480Y-58535619D01*
X100261022Y-58537004D01*
X100260687Y-58535924D01*
X100217817Y-58538657D01*
X100193819Y-58523704D01*
X100167809Y-58497694D01*
X100149503Y-58453500D01*
X100167809Y-58409306D01*
X100212003Y-58391000D01*
X100556768Y-58391000D01*
X100564107Y-58392250D01*
X100564190Y-58391523D01*
X100571181Y-58392320D01*
X100577822Y-58394652D01*
X100584815Y-58393874D01*
X100584816Y-58393874D01*
X100607197Y-58391383D01*
X100614110Y-58391000D01*
X100621533Y-58391000D01*
X100628465Y-58389419D01*
X100635418Y-58388243D01*
X100664429Y-58385014D01*
X100670393Y-58381281D01*
X100674341Y-58379906D01*
X100678100Y-58378097D01*
X100684959Y-58376532D01*
X100707774Y-58358351D01*
X100713559Y-58354256D01*
X100716715Y-58352280D01*
X100716717Y-58352279D01*
X100719711Y-58350404D01*
X100724924Y-58345191D01*
X100730168Y-58340506D01*
X100735593Y-58336183D01*
X100781564Y-58322958D01*
X100793171Y-58325403D01*
X100869157Y-58349142D01*
X100873610Y-58349224D01*
X100873612Y-58349224D01*
X100942791Y-58350492D01*
X101012499Y-58351770D01*
X101150817Y-58314060D01*
X101272991Y-58239045D01*
X101369200Y-58132754D01*
X101431710Y-58003733D01*
X101455496Y-57862354D01*
X101455647Y-57850000D01*
X101435323Y-57708082D01*
X101375984Y-57577572D01*
X101282400Y-57468963D01*
X101162095Y-57390985D01*
X101149456Y-57387205D01*
X101036773Y-57353506D01*
X101024739Y-57349907D01*
X100953057Y-57349469D01*
X100885829Y-57349058D01*
X100885828Y-57349058D01*
X100881376Y-57349031D01*
X100743529Y-57388428D01*
X100622280Y-57464930D01*
X100619337Y-57468262D01*
X100619335Y-57468264D01*
X100565805Y-57528876D01*
X100527377Y-57572388D01*
X100466447Y-57702163D01*
X100444391Y-57843823D01*
X100444968Y-57848236D01*
X100444968Y-57848237D01*
X100456758Y-57938396D01*
X100444337Y-57984591D01*
X100402890Y-58008472D01*
X100394786Y-58009000D01*
X97953500Y-58009000D01*
X97909306Y-57990694D01*
X97891000Y-57946500D01*
X97891000Y-56464213D01*
X97909306Y-56420019D01*
X100054487Y-54274838D01*
X100060561Y-54270533D01*
X100060105Y-54269960D01*
X100065613Y-54265579D01*
X100071958Y-54262532D01*
X100088155Y-54242279D01*
X100090418Y-54239449D01*
X100095035Y-54234290D01*
X100100284Y-54229041D01*
X100104057Y-54223038D01*
X100108165Y-54217257D01*
X100108209Y-54217203D01*
X100126383Y-54194477D01*
X100127960Y-54187617D01*
X100129778Y-54183857D01*
X100131156Y-54179921D01*
X100134902Y-54173962D01*
X100136218Y-54162326D01*
X100138179Y-54144973D01*
X100139370Y-54138002D01*
X100141000Y-54130913D01*
X100141000Y-54123539D01*
X100141396Y-54116518D01*
X100142923Y-54103009D01*
X100144691Y-54087371D01*
X100142370Y-54080726D01*
X100141586Y-54073732D01*
X100142264Y-54073656D01*
X100141000Y-54066204D01*
X100141000Y-53913198D01*
X100159306Y-53869004D01*
X100204646Y-53850709D01*
X100262499Y-53851770D01*
X100400817Y-53814060D01*
X100404606Y-53811734D01*
X100404612Y-53811731D01*
X100477297Y-53767102D01*
X100524537Y-53759577D01*
X100563261Y-53787660D01*
X100572500Y-53820363D01*
X100572500Y-55381497D01*
X100554194Y-55425691D01*
X99720612Y-56259273D01*
X99676418Y-56277579D01*
X99658511Y-56274959D01*
X99579007Y-56251183D01*
X99579004Y-56251183D01*
X99574739Y-56249907D01*
X99503057Y-56249469D01*
X99435829Y-56249058D01*
X99435828Y-56249058D01*
X99431376Y-56249031D01*
X99293529Y-56288428D01*
X99172280Y-56364930D01*
X99169337Y-56368262D01*
X99169335Y-56368264D01*
X99084597Y-56464213D01*
X99077377Y-56472388D01*
X99016447Y-56602163D01*
X99015762Y-56606561D01*
X99015762Y-56606562D01*
X99014338Y-56615711D01*
X98994391Y-56743823D01*
X98994968Y-56748236D01*
X98994968Y-56748238D01*
X98996499Y-56759942D01*
X99012980Y-56885979D01*
X99014773Y-56890054D01*
X99022556Y-56907741D01*
X99070720Y-57017203D01*
X99073584Y-57020610D01*
X99160107Y-57123543D01*
X99160110Y-57123546D01*
X99162970Y-57126948D01*
X99282313Y-57206390D01*
X99286564Y-57207718D01*
X99414905Y-57247814D01*
X99414908Y-57247814D01*
X99419157Y-57249142D01*
X99423609Y-57249224D01*
X99423611Y-57249224D01*
X99494642Y-57250526D01*
X99562499Y-57251770D01*
X99700817Y-57214060D01*
X99822991Y-57139045D01*
X99919200Y-57032754D01*
X99981710Y-56903733D01*
X99984012Y-56890054D01*
X99991339Y-56846500D01*
X100005496Y-56762354D01*
X100005647Y-56750000D01*
X99993507Y-56665230D01*
X99985954Y-56612486D01*
X99985953Y-56612484D01*
X99985323Y-56608082D01*
X99983481Y-56604031D01*
X99983480Y-56604027D01*
X99980345Y-56597131D01*
X99978717Y-56549323D01*
X99993046Y-56527069D01*
X100867987Y-55652128D01*
X100874061Y-55647823D01*
X100873605Y-55647250D01*
X100879113Y-55642869D01*
X100885458Y-55639822D01*
X100903918Y-55616739D01*
X100908535Y-55611580D01*
X100913784Y-55606331D01*
X100917557Y-55600328D01*
X100921665Y-55594547D01*
X100925949Y-55589191D01*
X100939883Y-55571767D01*
X100941460Y-55564907D01*
X100943278Y-55561147D01*
X100944656Y-55557211D01*
X100948402Y-55551252D01*
X100951679Y-55522263D01*
X100952871Y-55515287D01*
X100954500Y-55508203D01*
X100954500Y-55500829D01*
X100954896Y-55493808D01*
X100957400Y-55471655D01*
X100958191Y-55464662D01*
X100955870Y-55458017D01*
X100955086Y-55451023D01*
X100955764Y-55450947D01*
X100954500Y-55443495D01*
X100954500Y-53458140D01*
X100972806Y-53413946D01*
X101017000Y-53395640D01*
X101061194Y-53413946D01*
G37*
%TD.AperFunction*%
%TA.AperFunction,Conductor*%
G36*
X95482981Y-53349306D02*
G01*
X95501287Y-53393500D01*
X95482981Y-53437694D01*
X95441513Y-53479162D01*
X95435439Y-53483467D01*
X95435895Y-53484040D01*
X95430387Y-53488421D01*
X95424042Y-53491468D01*
X95419646Y-53496965D01*
X95405582Y-53514551D01*
X95400965Y-53519710D01*
X95395716Y-53524959D01*
X95393847Y-53527933D01*
X95391943Y-53530962D01*
X95387838Y-53536738D01*
X95369617Y-53559523D01*
X95368040Y-53566383D01*
X95366222Y-53570143D01*
X95364844Y-53574079D01*
X95361098Y-53580038D01*
X95360307Y-53587032D01*
X95360307Y-53587033D01*
X95357821Y-53609026D01*
X95356629Y-53616003D01*
X95355000Y-53623087D01*
X95355000Y-53630461D01*
X95354604Y-53637482D01*
X95351309Y-53666628D01*
X95353630Y-53673273D01*
X95354414Y-53680267D01*
X95353736Y-53680343D01*
X95355000Y-53687795D01*
X95355000Y-53702087D01*
X95336694Y-53746281D01*
X94995513Y-54087462D01*
X94989439Y-54091767D01*
X94989895Y-54092340D01*
X94984387Y-54096721D01*
X94978042Y-54099768D01*
X94973646Y-54105265D01*
X94959582Y-54122851D01*
X94954965Y-54128010D01*
X94949716Y-54133259D01*
X94947847Y-54136233D01*
X94945943Y-54139262D01*
X94941838Y-54145038D01*
X94923617Y-54167823D01*
X94922040Y-54174683D01*
X94920222Y-54178443D01*
X94918844Y-54182379D01*
X94915098Y-54188338D01*
X94914307Y-54195332D01*
X94914307Y-54195333D01*
X94911821Y-54217326D01*
X94910629Y-54224303D01*
X94909000Y-54231387D01*
X94909000Y-54238761D01*
X94908604Y-54245782D01*
X94905309Y-54274928D01*
X94907630Y-54281573D01*
X94908414Y-54288567D01*
X94907736Y-54288643D01*
X94909000Y-54296095D01*
X94909000Y-55606768D01*
X94907750Y-55614107D01*
X94908477Y-55614190D01*
X94907680Y-55621181D01*
X94905348Y-55627822D01*
X94906126Y-55634815D01*
X94906126Y-55634816D01*
X94908617Y-55657197D01*
X94909000Y-55664110D01*
X94909000Y-55671533D01*
X94910581Y-55678465D01*
X94911757Y-55685418D01*
X94914986Y-55714429D01*
X94918719Y-55720393D01*
X94920094Y-55724341D01*
X94921903Y-55728100D01*
X94923468Y-55734959D01*
X94927853Y-55740461D01*
X94927853Y-55740462D01*
X94941648Y-55757773D01*
X94945744Y-55763559D01*
X94949596Y-55769711D01*
X94954809Y-55774924D01*
X94959494Y-55780168D01*
X94977775Y-55803109D01*
X94984114Y-55806167D01*
X94989615Y-55810558D01*
X94989189Y-55811092D01*
X94995353Y-55815468D01*
X95106375Y-55926490D01*
X95124681Y-55970684D01*
X95119516Y-55993838D01*
X95119641Y-55993876D01*
X95119148Y-55995488D01*
X95118756Y-55997244D01*
X95116447Y-56002163D01*
X95094391Y-56143823D01*
X95094968Y-56148236D01*
X95094968Y-56148238D01*
X95100664Y-56191795D01*
X95112980Y-56285979D01*
X95114773Y-56290054D01*
X95158227Y-56388810D01*
X95170720Y-56417203D01*
X95173584Y-56420610D01*
X95260107Y-56523543D01*
X95260110Y-56523546D01*
X95262970Y-56526948D01*
X95382313Y-56606390D01*
X95386564Y-56607718D01*
X95514905Y-56647814D01*
X95514908Y-56647814D01*
X95519157Y-56649142D01*
X95523609Y-56649224D01*
X95523611Y-56649224D01*
X95594642Y-56650526D01*
X95662499Y-56651770D01*
X95800817Y-56614060D01*
X95906252Y-56549323D01*
X95919198Y-56541374D01*
X95922991Y-56539045D01*
X96019200Y-56432754D01*
X96081710Y-56303733D01*
X96084012Y-56290054D01*
X96092232Y-56241190D01*
X96105496Y-56162354D01*
X96105647Y-56150000D01*
X96085323Y-56008082D01*
X96025984Y-55877572D01*
X95932400Y-55768963D01*
X95812095Y-55690985D01*
X95781754Y-55681911D01*
X95735335Y-55668029D01*
X95674739Y-55649907D01*
X95603057Y-55649469D01*
X95535829Y-55649058D01*
X95535828Y-55649058D01*
X95531376Y-55649031D01*
X95520540Y-55652128D01*
X95440568Y-55674984D01*
X95393045Y-55669527D01*
X95379199Y-55659084D01*
X95309306Y-55589191D01*
X95291000Y-55544997D01*
X95291000Y-54895725D01*
X95309306Y-54851531D01*
X95353500Y-54833225D01*
X95388133Y-54843698D01*
X95482313Y-54906390D01*
X95486564Y-54907718D01*
X95614905Y-54947814D01*
X95614908Y-54947814D01*
X95619157Y-54949142D01*
X95623609Y-54949224D01*
X95623611Y-54949224D01*
X95694642Y-54950526D01*
X95762499Y-54951770D01*
X95900817Y-54914060D01*
X96022991Y-54839045D01*
X96119200Y-54732754D01*
X96181710Y-54603733D01*
X96205496Y-54462354D01*
X96205647Y-54450000D01*
X96185323Y-54308082D01*
X96125984Y-54177572D01*
X96032400Y-54068963D01*
X96028665Y-54066542D01*
X96019507Y-54060606D01*
X95992377Y-54021208D01*
X95991000Y-54008159D01*
X95991000Y-54003500D01*
X96009306Y-53959306D01*
X96053500Y-53941000D01*
X97124407Y-53941000D01*
X97168601Y-53959306D01*
X97181613Y-53978327D01*
X97190861Y-53999343D01*
X97213160Y-54050021D01*
X97220720Y-54067203D01*
X97223584Y-54070610D01*
X97310107Y-54173543D01*
X97310110Y-54173546D01*
X97312970Y-54176948D01*
X97432313Y-54256390D01*
X97436564Y-54257718D01*
X97564905Y-54297814D01*
X97564908Y-54297814D01*
X97569157Y-54299142D01*
X97573609Y-54299224D01*
X97573611Y-54299224D01*
X97644642Y-54300526D01*
X97712499Y-54301770D01*
X97850817Y-54264060D01*
X97972991Y-54189045D01*
X98033707Y-54121967D01*
X98050163Y-54103786D01*
X98093392Y-54083305D01*
X98138442Y-54099391D01*
X98159000Y-54145728D01*
X98159000Y-54885787D01*
X98140694Y-54929981D01*
X97087513Y-55983162D01*
X97081439Y-55987467D01*
X97081895Y-55988040D01*
X97076387Y-55992421D01*
X97070042Y-55995468D01*
X97065646Y-56000965D01*
X97051582Y-56018551D01*
X97046965Y-56023710D01*
X97041716Y-56028959D01*
X97039847Y-56031933D01*
X97037943Y-56034962D01*
X97033838Y-56040738D01*
X97015617Y-56063523D01*
X97014040Y-56070383D01*
X97012222Y-56074143D01*
X97010844Y-56078079D01*
X97007098Y-56084038D01*
X97006307Y-56091032D01*
X97006307Y-56091033D01*
X97003821Y-56113026D01*
X97002629Y-56120003D01*
X97001000Y-56127087D01*
X97001000Y-56134461D01*
X97000604Y-56141482D01*
X96997309Y-56170628D01*
X96999630Y-56177273D01*
X97000414Y-56184267D01*
X96999736Y-56184343D01*
X97001000Y-56191795D01*
X97001000Y-56846500D01*
X96982694Y-56890694D01*
X96938500Y-56909000D01*
X95377964Y-56909000D01*
X95333770Y-56890694D01*
X94604210Y-56161134D01*
X94585904Y-56116940D01*
X94592253Y-56089493D01*
X94614638Y-56043699D01*
X94614638Y-56043698D01*
X94616769Y-56039339D01*
X94617850Y-56031933D01*
X94624964Y-55983162D01*
X94627500Y-55965781D01*
X94627499Y-55394220D01*
X94616578Y-55320021D01*
X94614438Y-55315662D01*
X94563466Y-55211845D01*
X94563465Y-55211844D01*
X94561190Y-55207210D01*
X94557537Y-55203563D01*
X94475902Y-55122070D01*
X94475900Y-55122068D01*
X94472247Y-55118422D01*
X94436869Y-55101129D01*
X94405203Y-55065275D01*
X94408165Y-55017531D01*
X94436770Y-54988876D01*
X94468153Y-54973467D01*
X94468154Y-54973466D01*
X94472790Y-54971190D01*
X94476437Y-54967537D01*
X94557930Y-54885902D01*
X94557932Y-54885900D01*
X94561578Y-54882247D01*
X94610487Y-54782191D01*
X94614638Y-54773699D01*
X94614638Y-54773698D01*
X94616769Y-54769339D01*
X94627500Y-54695781D01*
X94627499Y-54124220D01*
X94616578Y-54050021D01*
X94606795Y-54030095D01*
X94563466Y-53941845D01*
X94563465Y-53941844D01*
X94561190Y-53937210D01*
X94538000Y-53914060D01*
X94475902Y-53852070D01*
X94475900Y-53852068D01*
X94472247Y-53848422D01*
X94436869Y-53831129D01*
X94405203Y-53795275D01*
X94408165Y-53747531D01*
X94436770Y-53718876D01*
X94468153Y-53703467D01*
X94468154Y-53703466D01*
X94472790Y-53701190D01*
X94478482Y-53695488D01*
X94557930Y-53615902D01*
X94557932Y-53615900D01*
X94561578Y-53612247D01*
X94590037Y-53554026D01*
X94614638Y-53503699D01*
X94614638Y-53503698D01*
X94616769Y-53499339D01*
X94619085Y-53483467D01*
X94621989Y-53463559D01*
X94627500Y-53425781D01*
X94627500Y-53393500D01*
X94645806Y-53349306D01*
X94690000Y-53331000D01*
X95438787Y-53331000D01*
X95482981Y-53349306D01*
G37*
%TD.AperFunction*%
%TA.AperFunction,Conductor*%
G36*
X93717980Y-40945806D02*
G01*
X93736286Y-40990000D01*
X93729449Y-41018423D01*
X93713485Y-41049687D01*
X93673163Y-41214468D01*
X93672500Y-41225156D01*
X93672500Y-42147483D01*
X93687192Y-42273501D01*
X93688432Y-42276917D01*
X93739437Y-42417432D01*
X93745074Y-42432962D01*
X93747065Y-42435998D01*
X93747065Y-42435999D01*
X93777553Y-42482500D01*
X93838088Y-42574832D01*
X93961243Y-42691498D01*
X94107935Y-42776703D01*
X94186810Y-42800592D01*
X94263516Y-42823824D01*
X94270294Y-42825877D01*
X94439610Y-42836381D01*
X94606802Y-42807652D01*
X94762900Y-42741232D01*
X94899532Y-42640682D01*
X95009367Y-42511397D01*
X95054337Y-42423329D01*
X95090738Y-42392294D01*
X95138423Y-42396089D01*
X95169458Y-42432490D01*
X95172500Y-42451752D01*
X95172500Y-42669314D01*
X95170117Y-42684088D01*
X95170020Y-42686883D01*
X95167196Y-42695408D01*
X95171573Y-42712491D01*
X95172388Y-42715671D01*
X95172500Y-42716233D01*
X95172500Y-42718349D01*
X95173757Y-42722635D01*
X95173758Y-42722640D01*
X95176727Y-42732762D01*
X95177298Y-42734840D01*
X95185764Y-42767882D01*
X95187508Y-42769504D01*
X95188178Y-42771789D01*
X95194060Y-42776893D01*
X95194062Y-42776896D01*
X95213955Y-42794158D01*
X95215563Y-42795602D01*
X95234842Y-42813537D01*
X95234843Y-42813538D01*
X95240541Y-42818838D01*
X95242884Y-42819261D01*
X95244683Y-42820822D01*
X95278450Y-42825718D01*
X95280581Y-42826065D01*
X95307572Y-42830936D01*
X95314166Y-42832126D01*
X95314767Y-42831972D01*
X95316527Y-42831239D01*
X95318723Y-42831557D01*
X95327937Y-42827368D01*
X95350272Y-42817213D01*
X95352102Y-42816416D01*
X96513961Y-42332308D01*
X96537999Y-42327500D01*
X97166754Y-42327500D01*
X97210948Y-42345806D01*
X97229254Y-42390000D01*
X97213600Y-42431373D01*
X97177377Y-42472388D01*
X97116447Y-42602163D01*
X97094391Y-42743823D01*
X97094968Y-42748236D01*
X97094968Y-42748238D01*
X97100973Y-42794158D01*
X97112980Y-42885979D01*
X97114773Y-42890054D01*
X97166557Y-43007741D01*
X97170720Y-43017203D01*
X97173584Y-43020610D01*
X97260107Y-43123543D01*
X97260110Y-43123546D01*
X97262970Y-43126948D01*
X97382313Y-43206390D01*
X97386564Y-43207718D01*
X97514905Y-43247814D01*
X97514908Y-43247814D01*
X97519157Y-43249142D01*
X97523609Y-43249224D01*
X97523611Y-43249224D01*
X97594642Y-43250526D01*
X97662499Y-43251770D01*
X97800817Y-43214060D01*
X97922991Y-43139045D01*
X98019200Y-43032754D01*
X98048272Y-42972749D01*
X98084015Y-42940959D01*
X98104518Y-42937500D01*
X101852660Y-42937500D01*
X101896854Y-42955806D01*
X101912546Y-42982661D01*
X101912980Y-42985979D01*
X101914771Y-42990049D01*
X101914772Y-42990053D01*
X101968927Y-43113129D01*
X101970720Y-43117203D01*
X101973584Y-43120610D01*
X102060107Y-43223543D01*
X102060110Y-43223546D01*
X102062970Y-43226948D01*
X102182313Y-43306390D01*
X102186564Y-43307718D01*
X102314905Y-43347814D01*
X102314908Y-43347814D01*
X102319157Y-43349142D01*
X102323609Y-43349224D01*
X102323611Y-43349224D01*
X102394642Y-43350526D01*
X102462499Y-43351770D01*
X102600817Y-43314060D01*
X102722991Y-43239045D01*
X102754783Y-43203922D01*
X102816213Y-43136054D01*
X102819200Y-43132754D01*
X102881710Y-43003733D01*
X102885166Y-42983195D01*
X102892853Y-42937500D01*
X102905496Y-42862354D01*
X102905647Y-42850000D01*
X102885323Y-42708082D01*
X102825984Y-42577572D01*
X102732400Y-42468963D01*
X102691491Y-42442447D01*
X102664362Y-42403048D01*
X102673038Y-42356006D01*
X102712437Y-42328877D01*
X102725485Y-42327500D01*
X103462000Y-42327500D01*
X103486038Y-42332308D01*
X104622636Y-42805891D01*
X104635354Y-42813771D01*
X104637902Y-42814937D01*
X104644683Y-42820822D01*
X104663497Y-42823550D01*
X104665389Y-42823824D01*
X104665945Y-42823936D01*
X104667899Y-42824750D01*
X104678865Y-42825954D01*
X104682804Y-42826387D01*
X104684950Y-42826660D01*
X104711017Y-42830440D01*
X104711018Y-42830440D01*
X104718723Y-42831557D01*
X104720892Y-42830571D01*
X104723258Y-42830831D01*
X104730225Y-42827368D01*
X104730226Y-42827368D01*
X104748942Y-42818065D01*
X104753824Y-42815639D01*
X104755766Y-42814715D01*
X104757843Y-42813771D01*
X104769948Y-42808267D01*
X104779740Y-42803815D01*
X104779741Y-42803814D01*
X104786828Y-42800592D01*
X104788119Y-42798592D01*
X104790252Y-42797532D01*
X104807753Y-42768254D01*
X104808891Y-42766425D01*
X104823773Y-42743376D01*
X104823773Y-42743374D01*
X104827411Y-42737741D01*
X104827500Y-42737127D01*
X104827500Y-42735220D01*
X104828638Y-42733316D01*
X104827532Y-42698684D01*
X104827500Y-42696689D01*
X104827500Y-42461626D01*
X104845806Y-42417432D01*
X104890000Y-42399126D01*
X104934194Y-42417432D01*
X104944749Y-42432066D01*
X104945074Y-42432962D01*
X104947065Y-42435999D01*
X104947067Y-42436002D01*
X104977553Y-42482500D01*
X105038088Y-42574832D01*
X105161243Y-42691498D01*
X105307935Y-42776703D01*
X105386810Y-42800592D01*
X105463516Y-42823824D01*
X105470294Y-42825877D01*
X105639610Y-42836381D01*
X105806802Y-42807652D01*
X105962900Y-42741232D01*
X106099532Y-42640682D01*
X106209367Y-42511397D01*
X106282098Y-42368963D01*
X106284864Y-42363547D01*
X106284865Y-42363544D01*
X106286515Y-42360313D01*
X106326837Y-42195532D01*
X106327500Y-42184844D01*
X106327500Y-41262517D01*
X106312808Y-41136499D01*
X106269688Y-41017706D01*
X106267372Y-41011325D01*
X106269500Y-40963537D01*
X106304796Y-40931251D01*
X106326121Y-40927500D01*
X106437500Y-40927500D01*
X106481694Y-40945806D01*
X106500000Y-40990000D01*
X106500000Y-43531549D01*
X106481694Y-43575743D01*
X106437500Y-43594049D01*
X106422351Y-43592136D01*
X106419224Y-43590917D01*
X106406038Y-43589181D01*
X106296558Y-43574767D01*
X106296552Y-43574767D01*
X106294527Y-43574500D01*
X106209004Y-43574500D01*
X106207132Y-43574726D01*
X106207124Y-43574727D01*
X106123725Y-43584820D01*
X106087687Y-43589181D01*
X106084162Y-43590513D01*
X106084158Y-43590514D01*
X106010187Y-43618466D01*
X105988095Y-43622501D01*
X105714220Y-43622501D01*
X105640021Y-43633422D01*
X105635663Y-43635562D01*
X105635662Y-43635562D01*
X105531845Y-43686534D01*
X105531844Y-43686535D01*
X105527210Y-43688810D01*
X105523564Y-43692462D01*
X105523563Y-43692463D01*
X105442070Y-43774098D01*
X105442068Y-43774100D01*
X105438422Y-43777753D01*
X105426490Y-43802163D01*
X105385675Y-43885662D01*
X105383231Y-43890661D01*
X105372500Y-43964219D01*
X105372501Y-44535780D01*
X105383422Y-44609979D01*
X105385562Y-44614337D01*
X105385562Y-44614338D01*
X105433394Y-44711758D01*
X105438810Y-44722790D01*
X105442462Y-44726436D01*
X105442463Y-44726437D01*
X105473381Y-44757301D01*
X105507938Y-44791797D01*
X105512660Y-44796511D01*
X105531004Y-44840689D01*
X105512737Y-44884900D01*
X105505637Y-44891017D01*
X105431965Y-44945433D01*
X105425433Y-44951965D01*
X105350591Y-45053293D01*
X105346264Y-45061463D01*
X105304240Y-45181133D01*
X105302620Y-45188517D01*
X105300138Y-45214765D01*
X105300000Y-45217704D01*
X105300000Y-45407569D01*
X105303641Y-45416359D01*
X105312431Y-45420000D01*
X106287500Y-45420000D01*
X106331694Y-45438306D01*
X106350000Y-45482500D01*
X106350000Y-45557500D01*
X106331694Y-45601694D01*
X106287500Y-45620000D01*
X105312432Y-45620000D01*
X105303642Y-45623641D01*
X105300001Y-45632431D01*
X105300001Y-45822294D01*
X105300140Y-45825238D01*
X105302620Y-45851485D01*
X105304239Y-45858865D01*
X105346264Y-45978537D01*
X105350591Y-45986707D01*
X105425433Y-46088035D01*
X105431965Y-46094567D01*
X105505578Y-46148939D01*
X105530250Y-46189920D01*
X105518718Y-46236345D01*
X105512682Y-46243363D01*
X105505579Y-46250479D01*
X105442070Y-46314098D01*
X105442068Y-46314100D01*
X105438422Y-46317753D01*
X105436154Y-46322393D01*
X105393670Y-46409306D01*
X105383231Y-46430661D01*
X105372500Y-46504219D01*
X105372501Y-47075780D01*
X105383422Y-47149979D01*
X105385562Y-47154337D01*
X105385562Y-47154338D01*
X105432656Y-47250255D01*
X105438810Y-47262790D01*
X105442462Y-47266436D01*
X105442463Y-47266437D01*
X105524098Y-47347930D01*
X105524100Y-47347932D01*
X105527753Y-47351578D01*
X105563131Y-47368871D01*
X105594797Y-47404725D01*
X105591835Y-47452469D01*
X105563230Y-47481124D01*
X105531847Y-47496533D01*
X105531846Y-47496534D01*
X105527210Y-47498810D01*
X105523564Y-47502462D01*
X105523563Y-47502463D01*
X105442070Y-47584098D01*
X105442068Y-47584100D01*
X105438422Y-47587753D01*
X105383231Y-47700661D01*
X105372500Y-47774219D01*
X105372501Y-48345780D01*
X105383422Y-48419979D01*
X105385562Y-48424337D01*
X105385562Y-48424338D01*
X105407011Y-48468023D01*
X105438810Y-48532790D01*
X105442462Y-48536436D01*
X105442463Y-48536437D01*
X105524098Y-48617930D01*
X105524100Y-48617932D01*
X105527753Y-48621578D01*
X105563131Y-48638871D01*
X105594797Y-48674725D01*
X105591835Y-48722469D01*
X105563230Y-48751124D01*
X105531847Y-48766533D01*
X105531846Y-48766534D01*
X105527210Y-48768810D01*
X105523564Y-48772462D01*
X105523563Y-48772463D01*
X105442070Y-48854098D01*
X105442068Y-48854100D01*
X105438422Y-48857753D01*
X105421904Y-48891544D01*
X105385675Y-48965662D01*
X105383231Y-48970661D01*
X105382530Y-48975464D01*
X105382530Y-48975465D01*
X105381374Y-48983391D01*
X105372500Y-49044219D01*
X105372501Y-49615780D01*
X105383422Y-49689979D01*
X105385562Y-49694337D01*
X105385562Y-49694338D01*
X105431320Y-49787534D01*
X105438810Y-49802790D01*
X105442462Y-49806436D01*
X105442463Y-49806437D01*
X105524098Y-49887930D01*
X105524100Y-49887932D01*
X105527753Y-49891578D01*
X105563131Y-49908871D01*
X105594797Y-49944725D01*
X105591835Y-49992469D01*
X105563230Y-50021124D01*
X105531847Y-50036533D01*
X105531846Y-50036534D01*
X105527210Y-50038810D01*
X105523564Y-50042462D01*
X105523563Y-50042463D01*
X105442070Y-50124098D01*
X105442068Y-50124100D01*
X105438422Y-50127753D01*
X105436154Y-50132393D01*
X105385675Y-50235662D01*
X105383231Y-50240661D01*
X105372500Y-50314219D01*
X105372501Y-50885780D01*
X105383422Y-50959979D01*
X105385562Y-50964337D01*
X105385562Y-50964338D01*
X105436265Y-51067606D01*
X105438810Y-51072790D01*
X105442462Y-51076436D01*
X105442463Y-51076437D01*
X105524098Y-51157930D01*
X105524100Y-51157932D01*
X105527753Y-51161578D01*
X105563131Y-51178871D01*
X105594797Y-51214725D01*
X105591835Y-51262469D01*
X105563230Y-51291124D01*
X105531847Y-51306533D01*
X105531846Y-51306534D01*
X105527210Y-51308810D01*
X105523564Y-51312462D01*
X105523563Y-51312463D01*
X105442070Y-51394098D01*
X105442068Y-51394100D01*
X105438422Y-51397753D01*
X105436154Y-51402393D01*
X105385675Y-51505662D01*
X105383231Y-51510661D01*
X105372500Y-51584219D01*
X105372501Y-52155780D01*
X105383422Y-52229979D01*
X105438810Y-52342790D01*
X105442462Y-52346436D01*
X105442463Y-52346437D01*
X105524098Y-52427930D01*
X105524100Y-52427932D01*
X105527753Y-52431578D01*
X105563131Y-52448871D01*
X105594797Y-52484725D01*
X105591835Y-52532469D01*
X105563230Y-52561124D01*
X105531847Y-52576533D01*
X105531846Y-52576534D01*
X105527210Y-52578810D01*
X105523564Y-52582462D01*
X105523563Y-52582463D01*
X105442070Y-52664098D01*
X105442068Y-52664100D01*
X105438422Y-52667753D01*
X105425661Y-52693860D01*
X105385675Y-52775662D01*
X105383231Y-52780661D01*
X105382530Y-52785464D01*
X105382530Y-52785465D01*
X105379324Y-52807440D01*
X105372500Y-52854219D01*
X105372501Y-53425780D01*
X105383422Y-53499979D01*
X105385562Y-53504337D01*
X105385562Y-53504338D01*
X105395687Y-53524959D01*
X105438810Y-53612790D01*
X105442462Y-53616436D01*
X105442463Y-53616437D01*
X105524098Y-53697930D01*
X105524100Y-53697932D01*
X105527753Y-53701578D01*
X105563131Y-53718871D01*
X105594797Y-53754725D01*
X105591835Y-53802469D01*
X105563230Y-53831124D01*
X105531847Y-53846533D01*
X105531846Y-53846534D01*
X105527210Y-53848810D01*
X105523564Y-53852462D01*
X105523563Y-53852463D01*
X105442070Y-53934098D01*
X105442068Y-53934100D01*
X105438422Y-53937753D01*
X105430927Y-53953087D01*
X105385675Y-54045662D01*
X105383231Y-54050661D01*
X105382530Y-54055464D01*
X105382530Y-54055465D01*
X105379876Y-54073656D01*
X105372500Y-54124219D01*
X105372500Y-54246500D01*
X105354194Y-54290694D01*
X105310000Y-54309000D01*
X104738753Y-54309000D01*
X104694559Y-54290694D01*
X103580806Y-53176941D01*
X103562500Y-53132747D01*
X103562500Y-52249404D01*
X103563753Y-52242063D01*
X103563024Y-52241980D01*
X103563821Y-52234989D01*
X103566153Y-52228348D01*
X103562883Y-52198964D01*
X103562500Y-52192052D01*
X103562500Y-52184637D01*
X103560920Y-52177708D01*
X103559745Y-52170765D01*
X103556515Y-52141742D01*
X103552780Y-52135776D01*
X103551408Y-52131837D01*
X103549597Y-52128074D01*
X103548032Y-52121211D01*
X103529851Y-52098396D01*
X103525756Y-52092611D01*
X103523780Y-52089455D01*
X103523779Y-52089453D01*
X103521904Y-52086459D01*
X103516691Y-52081246D01*
X103512006Y-52076002D01*
X103498112Y-52058566D01*
X103498111Y-52058566D01*
X103493725Y-52053061D01*
X103487386Y-52050003D01*
X103481885Y-52045612D01*
X103482311Y-52045078D01*
X103476147Y-52040702D01*
X102880958Y-51445513D01*
X102876653Y-51439439D01*
X102876080Y-51439895D01*
X102871699Y-51434387D01*
X102868652Y-51428042D01*
X102845569Y-51409582D01*
X102840410Y-51404965D01*
X102835161Y-51399716D01*
X102829158Y-51395943D01*
X102823382Y-51391838D01*
X102800597Y-51373617D01*
X102793737Y-51372040D01*
X102789977Y-51370222D01*
X102786041Y-51368844D01*
X102780082Y-51365098D01*
X102773088Y-51364307D01*
X102773087Y-51364307D01*
X102751094Y-51361821D01*
X102744117Y-51360629D01*
X102737033Y-51359000D01*
X102729659Y-51359000D01*
X102722638Y-51358604D01*
X102720957Y-51358414D01*
X102693492Y-51355309D01*
X102686847Y-51357630D01*
X102679853Y-51358414D01*
X102679777Y-51357736D01*
X102672325Y-51359000D01*
X101845801Y-51359000D01*
X101801607Y-51340694D01*
X101783301Y-51296500D01*
X101799464Y-51254558D01*
X101810378Y-51242501D01*
X101819200Y-51232754D01*
X101846576Y-51176249D01*
X101882319Y-51144459D01*
X101902822Y-51141000D01*
X102153678Y-51141000D01*
X102161017Y-51142250D01*
X102161100Y-51141523D01*
X102168091Y-51142320D01*
X102174732Y-51144652D01*
X102181725Y-51143874D01*
X102181726Y-51143874D01*
X102204107Y-51141383D01*
X102211020Y-51141000D01*
X102218443Y-51141000D01*
X102225375Y-51139419D01*
X102232328Y-51138243D01*
X102261339Y-51135014D01*
X102267303Y-51131281D01*
X102271251Y-51129906D01*
X102275010Y-51128097D01*
X102281869Y-51126532D01*
X102304684Y-51108351D01*
X102310469Y-51104256D01*
X102313625Y-51102280D01*
X102313627Y-51102279D01*
X102316621Y-51100404D01*
X102321834Y-51095191D01*
X102327078Y-51090506D01*
X102344514Y-51076612D01*
X102344514Y-51076611D01*
X102350019Y-51072225D01*
X102353077Y-51065886D01*
X102357468Y-51060385D01*
X102358002Y-51060811D01*
X102362378Y-51054647D01*
X103754487Y-49662538D01*
X103760561Y-49658233D01*
X103760105Y-49657660D01*
X103765613Y-49653279D01*
X103771958Y-49650232D01*
X103790418Y-49627149D01*
X103795035Y-49621990D01*
X103800284Y-49616741D01*
X103804057Y-49610738D01*
X103808165Y-49604957D01*
X103821987Y-49587674D01*
X103826383Y-49582177D01*
X103827960Y-49575317D01*
X103829778Y-49571557D01*
X103831156Y-49567621D01*
X103834902Y-49561662D01*
X103838180Y-49532668D01*
X103839370Y-49525702D01*
X103841000Y-49518613D01*
X103841000Y-49511239D01*
X103841396Y-49504218D01*
X103843900Y-49482064D01*
X103844691Y-49475071D01*
X103842370Y-49468426D01*
X103841586Y-49461432D01*
X103842264Y-49461356D01*
X103841000Y-49453904D01*
X103841000Y-48905054D01*
X103859306Y-48860860D01*
X103870797Y-48851792D01*
X103876586Y-48848238D01*
X103954734Y-48800255D01*
X103969198Y-48791374D01*
X103972991Y-48789045D01*
X103983370Y-48777579D01*
X104066213Y-48686054D01*
X104069200Y-48682754D01*
X104131710Y-48553733D01*
X104134012Y-48540054D01*
X104148087Y-48456390D01*
X104155496Y-48412354D01*
X104155647Y-48400000D01*
X104135323Y-48258082D01*
X104075984Y-48127572D01*
X103982400Y-48018963D01*
X103862095Y-47940985D01*
X103724739Y-47899907D01*
X103705885Y-47899792D01*
X103661804Y-47881217D01*
X103643768Y-47836912D01*
X103644633Y-47826924D01*
X103653118Y-47776486D01*
X103655496Y-47762354D01*
X103655647Y-47750000D01*
X103635323Y-47608082D01*
X103575984Y-47477572D01*
X103492864Y-47381107D01*
X103485303Y-47372332D01*
X103482400Y-47368963D01*
X103362095Y-47290985D01*
X103349456Y-47287205D01*
X103315663Y-47277099D01*
X103224739Y-47249907D01*
X103153058Y-47249469D01*
X103085829Y-47249058D01*
X103085828Y-47249058D01*
X103081376Y-47249031D01*
X102943529Y-47288428D01*
X102822280Y-47364930D01*
X102819337Y-47368262D01*
X102819335Y-47368264D01*
X102744969Y-47452469D01*
X102727377Y-47472388D01*
X102666447Y-47602163D01*
X102665762Y-47606561D01*
X102665762Y-47606562D01*
X102649065Y-47713804D01*
X102631503Y-47748383D01*
X101620612Y-48759273D01*
X101576418Y-48777579D01*
X101558511Y-48774959D01*
X101479007Y-48751183D01*
X101479004Y-48751183D01*
X101474739Y-48749907D01*
X101403057Y-48749469D01*
X101335829Y-48749058D01*
X101335828Y-48749058D01*
X101331376Y-48749031D01*
X101193529Y-48788428D01*
X101072280Y-48864930D01*
X101069336Y-48868264D01*
X101069332Y-48868267D01*
X101005041Y-48941064D01*
X100962066Y-48962072D01*
X100914001Y-48943886D01*
X100615628Y-48645513D01*
X100611323Y-48639439D01*
X100610750Y-48639895D01*
X100606369Y-48634387D01*
X100603322Y-48628042D01*
X100580239Y-48609582D01*
X100575080Y-48604965D01*
X100569831Y-48599716D01*
X100563828Y-48595943D01*
X100558052Y-48591838D01*
X100535267Y-48573617D01*
X100528407Y-48572040D01*
X100524647Y-48570222D01*
X100520711Y-48568844D01*
X100514752Y-48565098D01*
X100507758Y-48564307D01*
X100507757Y-48564307D01*
X100485764Y-48561821D01*
X100478787Y-48560629D01*
X100471703Y-48559000D01*
X100464329Y-48559000D01*
X100457308Y-48558604D01*
X100455627Y-48558414D01*
X100428162Y-48555309D01*
X100421517Y-48557630D01*
X100414523Y-48558414D01*
X100414447Y-48557736D01*
X100406995Y-48559000D01*
X100308093Y-48559000D01*
X100263899Y-48540694D01*
X98559306Y-46836101D01*
X98541000Y-46791907D01*
X98541000Y-46779008D01*
X98559306Y-46734814D01*
X98603500Y-46716508D01*
X98638133Y-46726981D01*
X98682313Y-46756390D01*
X98686564Y-46757718D01*
X98814905Y-46797814D01*
X98814908Y-46797814D01*
X98819157Y-46799142D01*
X98823609Y-46799224D01*
X98823611Y-46799224D01*
X98894642Y-46800526D01*
X98962499Y-46801770D01*
X99100817Y-46764060D01*
X99222991Y-46689045D01*
X99319200Y-46582754D01*
X99333104Y-46554055D01*
X99345031Y-46529439D01*
X99380774Y-46497649D01*
X99428528Y-46500444D01*
X99445471Y-46512496D01*
X99500962Y-46567987D01*
X99505267Y-46574061D01*
X99505840Y-46573605D01*
X99510221Y-46579113D01*
X99513268Y-46585458D01*
X99518765Y-46589854D01*
X99536351Y-46603918D01*
X99541510Y-46608535D01*
X99546759Y-46613784D01*
X99549733Y-46615653D01*
X99552762Y-46617557D01*
X99558538Y-46621662D01*
X99581323Y-46639883D01*
X99588183Y-46641460D01*
X99591943Y-46643278D01*
X99595879Y-46644656D01*
X99601838Y-46648402D01*
X99608832Y-46649193D01*
X99608833Y-46649193D01*
X99630826Y-46651679D01*
X99637803Y-46652871D01*
X99644887Y-46654500D01*
X99652261Y-46654500D01*
X99659282Y-46654896D01*
X99688428Y-46658191D01*
X99695073Y-46655870D01*
X99702067Y-46655086D01*
X99702143Y-46655764D01*
X99709595Y-46654500D01*
X100158497Y-46654500D01*
X100202691Y-46672806D01*
X100322349Y-46792464D01*
X100340655Y-46836658D01*
X100334730Y-46863219D01*
X100320448Y-46893641D01*
X100316447Y-46902163D01*
X100294391Y-47043823D01*
X100294968Y-47048236D01*
X100294968Y-47048238D01*
X100301114Y-47095235D01*
X100312980Y-47185979D01*
X100314773Y-47190054D01*
X100359184Y-47290985D01*
X100370720Y-47317203D01*
X100373584Y-47320610D01*
X100460107Y-47423543D01*
X100460110Y-47423546D01*
X100462970Y-47426948D01*
X100582313Y-47506390D01*
X100586564Y-47507718D01*
X100714905Y-47547814D01*
X100714908Y-47547814D01*
X100719157Y-47549142D01*
X100723609Y-47549224D01*
X100723611Y-47549224D01*
X100794642Y-47550526D01*
X100862499Y-47551770D01*
X101000817Y-47514060D01*
X101115862Y-47443422D01*
X101119198Y-47441374D01*
X101122991Y-47439045D01*
X101156895Y-47401588D01*
X101200124Y-47381107D01*
X101245174Y-47397193D01*
X101251070Y-47403309D01*
X101312970Y-47476948D01*
X101432313Y-47556390D01*
X101436564Y-47557718D01*
X101564905Y-47597814D01*
X101564908Y-47597814D01*
X101569157Y-47599142D01*
X101573609Y-47599224D01*
X101573611Y-47599224D01*
X101644642Y-47600526D01*
X101712499Y-47601770D01*
X101850817Y-47564060D01*
X101954734Y-47500255D01*
X101969198Y-47491374D01*
X101972991Y-47489045D01*
X101976261Y-47485433D01*
X102066213Y-47386054D01*
X102069200Y-47382754D01*
X102131710Y-47253733D01*
X102155496Y-47112354D01*
X102155647Y-47100000D01*
X102135323Y-46958082D01*
X102075984Y-46827572D01*
X101982400Y-46718963D01*
X101862095Y-46640985D01*
X101724739Y-46599907D01*
X101653057Y-46599469D01*
X101585829Y-46599058D01*
X101585828Y-46599058D01*
X101581376Y-46599031D01*
X101548314Y-46608480D01*
X101490568Y-46624984D01*
X101443045Y-46619527D01*
X101429199Y-46609084D01*
X100915628Y-46095513D01*
X100911323Y-46089439D01*
X100910750Y-46089895D01*
X100906369Y-46084387D01*
X100903322Y-46078042D01*
X100880239Y-46059582D01*
X100875080Y-46054965D01*
X100869831Y-46049716D01*
X100863828Y-46045943D01*
X100858052Y-46041838D01*
X100835267Y-46023617D01*
X100828407Y-46022040D01*
X100824647Y-46020222D01*
X100820711Y-46018844D01*
X100814752Y-46015098D01*
X100807758Y-46014307D01*
X100807757Y-46014307D01*
X100785764Y-46011821D01*
X100778787Y-46010629D01*
X100771703Y-46009000D01*
X100764329Y-46009000D01*
X100757308Y-46008604D01*
X100755627Y-46008414D01*
X100728162Y-46005309D01*
X100721517Y-46007630D01*
X100714523Y-46008414D01*
X100714447Y-46007736D01*
X100706995Y-46009000D01*
X100463130Y-46009000D01*
X100418936Y-45990694D01*
X100400630Y-45946500D01*
X100401496Y-45936131D01*
X100404384Y-45918963D01*
X100405496Y-45912354D01*
X100405647Y-45900000D01*
X100385323Y-45758082D01*
X100325984Y-45627572D01*
X100232400Y-45518963D01*
X100112095Y-45440985D01*
X100107833Y-45439710D01*
X100107830Y-45439709D01*
X100029751Y-45416359D01*
X99997000Y-45406565D01*
X99959904Y-45376364D01*
X99955028Y-45328778D01*
X99970714Y-45302491D01*
X100163899Y-45109306D01*
X100208093Y-45091000D01*
X100446408Y-45091000D01*
X100490602Y-45109306D01*
X100503615Y-45128329D01*
X100518926Y-45163127D01*
X100518928Y-45163130D01*
X100520720Y-45167203D01*
X100523584Y-45170610D01*
X100610107Y-45273543D01*
X100610110Y-45273546D01*
X100612970Y-45276948D01*
X100732313Y-45356390D01*
X100736564Y-45357718D01*
X100864905Y-45397814D01*
X100864908Y-45397814D01*
X100869157Y-45399142D01*
X100873609Y-45399224D01*
X100873611Y-45399224D01*
X100944642Y-45400526D01*
X101012499Y-45401770D01*
X101150817Y-45364060D01*
X101272991Y-45289045D01*
X101369200Y-45182754D01*
X101431710Y-45053733D01*
X101432808Y-45047210D01*
X101440769Y-44999889D01*
X101455496Y-44912354D01*
X101455647Y-44900000D01*
X101435323Y-44758082D01*
X101375984Y-44627572D01*
X101282400Y-44518963D01*
X101162095Y-44440985D01*
X101024739Y-44399907D01*
X100953058Y-44399469D01*
X100885829Y-44399058D01*
X100885828Y-44399058D01*
X100881376Y-44399031D01*
X100818322Y-44417052D01*
X100770799Y-44411595D01*
X100741053Y-44374133D01*
X100744901Y-44329707D01*
X100779768Y-44257741D01*
X100781710Y-44253733D01*
X100805496Y-44112354D01*
X100805647Y-44100000D01*
X100785323Y-43958082D01*
X100725984Y-43827572D01*
X100632400Y-43718963D01*
X100512095Y-43640985D01*
X100499456Y-43637205D01*
X100436796Y-43618466D01*
X100374739Y-43599907D01*
X100303058Y-43599469D01*
X100235829Y-43599058D01*
X100235828Y-43599058D01*
X100231376Y-43599031D01*
X100093529Y-43638428D01*
X99972280Y-43714930D01*
X99969337Y-43718262D01*
X99969335Y-43718264D01*
X99886118Y-43812491D01*
X99877377Y-43822388D01*
X99816447Y-43952163D01*
X99815762Y-43956561D01*
X99815762Y-43956562D01*
X99800262Y-44056115D01*
X99775375Y-44096967D01*
X99738506Y-44109000D01*
X99704718Y-44109000D01*
X99660524Y-44090694D01*
X99642218Y-44046500D01*
X99643084Y-44036131D01*
X99650748Y-43990574D01*
X99655496Y-43962354D01*
X99655647Y-43950000D01*
X99635323Y-43808082D01*
X99575984Y-43677572D01*
X99482400Y-43568963D01*
X99362095Y-43490985D01*
X99349456Y-43487205D01*
X99315663Y-43477099D01*
X99224739Y-43449907D01*
X99153057Y-43449469D01*
X99085829Y-43449058D01*
X99085828Y-43449058D01*
X99081376Y-43449031D01*
X98943529Y-43488428D01*
X98822280Y-43564930D01*
X98819337Y-43568262D01*
X98819335Y-43568264D01*
X98761959Y-43633231D01*
X98727377Y-43672388D01*
X98666447Y-43802163D01*
X98644391Y-43943823D01*
X98644968Y-43948236D01*
X98644968Y-43948238D01*
X98647356Y-43966499D01*
X98662980Y-44085979D01*
X98669150Y-44100000D01*
X98670489Y-44103044D01*
X98671533Y-44150868D01*
X98657476Y-44172410D01*
X98418290Y-44411595D01*
X98182013Y-44647872D01*
X98175939Y-44652177D01*
X98176395Y-44652750D01*
X98170887Y-44657131D01*
X98164542Y-44660178D01*
X98160146Y-44665675D01*
X98146082Y-44683261D01*
X98141465Y-44688420D01*
X98136216Y-44693669D01*
X98134347Y-44696643D01*
X98132443Y-44699672D01*
X98128338Y-44705448D01*
X98110117Y-44728233D01*
X98108540Y-44735093D01*
X98106722Y-44738853D01*
X98105344Y-44742789D01*
X98101598Y-44748748D01*
X98100807Y-44755742D01*
X98100807Y-44755743D01*
X98098321Y-44777736D01*
X98097129Y-44784713D01*
X98095500Y-44791797D01*
X98095500Y-44799171D01*
X98095104Y-44806192D01*
X98091809Y-44835338D01*
X98094130Y-44841983D01*
X98094914Y-44848977D01*
X98094236Y-44849053D01*
X98095500Y-44856505D01*
X98095500Y-45290178D01*
X98094250Y-45297517D01*
X98094977Y-45297600D01*
X98094180Y-45304591D01*
X98091848Y-45311232D01*
X98092626Y-45318225D01*
X98092626Y-45318226D01*
X98095117Y-45340607D01*
X98095500Y-45347520D01*
X98095500Y-45354943D01*
X98097081Y-45361875D01*
X98098257Y-45368828D01*
X98101486Y-45397839D01*
X98105219Y-45403803D01*
X98106594Y-45407751D01*
X98108403Y-45411510D01*
X98109968Y-45418369D01*
X98125953Y-45438428D01*
X98128148Y-45441183D01*
X98132244Y-45446969D01*
X98136096Y-45453121D01*
X98141309Y-45458334D01*
X98145994Y-45463578D01*
X98164275Y-45486519D01*
X98162189Y-45488181D01*
X98180046Y-45520531D01*
X98166779Y-45566490D01*
X98124900Y-45589607D01*
X98100027Y-45587376D01*
X98099455Y-45587205D01*
X97974739Y-45549907D01*
X97903058Y-45549469D01*
X97835829Y-45549058D01*
X97835828Y-45549058D01*
X97831376Y-45549031D01*
X97693529Y-45588428D01*
X97572280Y-45664930D01*
X97569337Y-45668262D01*
X97569335Y-45668264D01*
X97488075Y-45760275D01*
X97477377Y-45772388D01*
X97416447Y-45902163D01*
X97394391Y-46043823D01*
X97394968Y-46048236D01*
X97394968Y-46048238D01*
X97401150Y-46095513D01*
X97412980Y-46185979D01*
X97414773Y-46190055D01*
X97414774Y-46190057D01*
X97441360Y-46250479D01*
X97442403Y-46298303D01*
X97409324Y-46332857D01*
X97361500Y-46333900D01*
X97339959Y-46319844D01*
X95765628Y-44745513D01*
X95761323Y-44739439D01*
X95760750Y-44739895D01*
X95756369Y-44734387D01*
X95753322Y-44728042D01*
X95747825Y-44723646D01*
X95743443Y-44718137D01*
X95744234Y-44717507D01*
X95733113Y-44703221D01*
X95698721Y-44627579D01*
X95675984Y-44577572D01*
X95582400Y-44468963D01*
X95462095Y-44390985D01*
X95449456Y-44387205D01*
X95415663Y-44377099D01*
X95324739Y-44349907D01*
X95253058Y-44349469D01*
X95185829Y-44349058D01*
X95185828Y-44349058D01*
X95181376Y-44349031D01*
X95043529Y-44388428D01*
X94922280Y-44464930D01*
X94919337Y-44468262D01*
X94919335Y-44468264D01*
X94841817Y-44556038D01*
X94827377Y-44572388D01*
X94766447Y-44702163D01*
X94765762Y-44706561D01*
X94765762Y-44706562D01*
X94765261Y-44709781D01*
X94744391Y-44843823D01*
X94744968Y-44848236D01*
X94744968Y-44848238D01*
X94749784Y-44885068D01*
X94762980Y-44985979D01*
X94764773Y-44990054D01*
X94792793Y-45053733D01*
X94820720Y-45117203D01*
X94823584Y-45120610D01*
X94910107Y-45223543D01*
X94910110Y-45223546D01*
X94912970Y-45226948D01*
X95032313Y-45306390D01*
X95036564Y-45307718D01*
X95164905Y-45347814D01*
X95164908Y-45347814D01*
X95169157Y-45349142D01*
X95173609Y-45349224D01*
X95173611Y-45349224D01*
X95244642Y-45350526D01*
X95312499Y-45351770D01*
X95450817Y-45314060D01*
X95572991Y-45239045D01*
X95579398Y-45231967D01*
X95598246Y-45211144D01*
X95641476Y-45190663D01*
X95688777Y-45208892D01*
X95782134Y-45302249D01*
X95800440Y-45346443D01*
X95782134Y-45390637D01*
X95755117Y-45406536D01*
X95643529Y-45438428D01*
X95522280Y-45514930D01*
X95519337Y-45518262D01*
X95519335Y-45518264D01*
X95476744Y-45566490D01*
X95427377Y-45622388D01*
X95366447Y-45752163D01*
X95365762Y-45756561D01*
X95365762Y-45756562D01*
X95364839Y-45762491D01*
X95344391Y-45893823D01*
X95344968Y-45898236D01*
X95344968Y-45898238D01*
X95346499Y-45909942D01*
X95362980Y-46035979D01*
X95364773Y-46040054D01*
X95418651Y-46162500D01*
X95420720Y-46167203D01*
X95423584Y-46170610D01*
X95510107Y-46273543D01*
X95510110Y-46273546D01*
X95512970Y-46276948D01*
X95632313Y-46356390D01*
X95636564Y-46357718D01*
X95764905Y-46397814D01*
X95764908Y-46397814D01*
X95769157Y-46399142D01*
X95773609Y-46399224D01*
X95773611Y-46399224D01*
X95844642Y-46400526D01*
X95912499Y-46401770D01*
X96050817Y-46364060D01*
X96172991Y-46289045D01*
X96175979Y-46285744D01*
X96241381Y-46213489D01*
X96284610Y-46193008D01*
X96331912Y-46211237D01*
X97092662Y-46971987D01*
X97096967Y-46978061D01*
X97097540Y-46977605D01*
X97101921Y-46983113D01*
X97104968Y-46989458D01*
X97110465Y-46993854D01*
X97128051Y-47007918D01*
X97133210Y-47012535D01*
X97138459Y-47017784D01*
X97141433Y-47019653D01*
X97144462Y-47021557D01*
X97150238Y-47025662D01*
X97165642Y-47037980D01*
X97167449Y-47039425D01*
X97173023Y-47043883D01*
X97179883Y-47045460D01*
X97183643Y-47047278D01*
X97187579Y-47048656D01*
X97193538Y-47052402D01*
X97200532Y-47053193D01*
X97200533Y-47053193D01*
X97210010Y-47054264D01*
X97222532Y-47055680D01*
X97229498Y-47056870D01*
X97236587Y-47058500D01*
X97243961Y-47058500D01*
X97250982Y-47058896D01*
X97280129Y-47062191D01*
X97286774Y-47059870D01*
X97293768Y-47059086D01*
X97293844Y-47059764D01*
X97301296Y-47058500D01*
X97497167Y-47058500D01*
X97541361Y-47076806D01*
X99170435Y-48705880D01*
X99188741Y-48750074D01*
X99170435Y-48794268D01*
X99126241Y-48812574D01*
X99108333Y-48809953D01*
X99079011Y-48801184D01*
X99079007Y-48801183D01*
X99074739Y-48799907D01*
X99003058Y-48799469D01*
X98935829Y-48799058D01*
X98935828Y-48799058D01*
X98931376Y-48799031D01*
X98793529Y-48838428D01*
X98672280Y-48914930D01*
X98669337Y-48918262D01*
X98669335Y-48918264D01*
X98594878Y-49002572D01*
X98577377Y-49022388D01*
X98575737Y-49025881D01*
X98536355Y-49052644D01*
X98489367Y-49043681D01*
X98466786Y-49017312D01*
X98462434Y-49007741D01*
X98425984Y-48927572D01*
X98332400Y-48818963D01*
X98212095Y-48740985D01*
X98199456Y-48737205D01*
X98119930Y-48713422D01*
X98074739Y-48699907D01*
X98003058Y-48699469D01*
X97935829Y-48699058D01*
X97935828Y-48699058D01*
X97931376Y-48699031D01*
X97793529Y-48738428D01*
X97737875Y-48773543D01*
X97736851Y-48774189D01*
X97689706Y-48782290D01*
X97650642Y-48754682D01*
X97641000Y-48721331D01*
X97641000Y-48693653D01*
X97659306Y-48649459D01*
X97665841Y-48644302D01*
X97665771Y-48644218D01*
X97669192Y-48641378D01*
X97672991Y-48639045D01*
X97769200Y-48532754D01*
X97831710Y-48403733D01*
X97832635Y-48398238D01*
X97855096Y-48264729D01*
X97855496Y-48262354D01*
X97855647Y-48250000D01*
X97835323Y-48108082D01*
X97775984Y-47977572D01*
X97682400Y-47868963D01*
X97562095Y-47790985D01*
X97549456Y-47787205D01*
X97466359Y-47762354D01*
X97424739Y-47749907D01*
X97353057Y-47749469D01*
X97285829Y-47749058D01*
X97285828Y-47749058D01*
X97281376Y-47749031D01*
X97143529Y-47788428D01*
X97022280Y-47864930D01*
X97019337Y-47868262D01*
X97019335Y-47868264D01*
X96994816Y-47896027D01*
X96951840Y-47917034D01*
X96906597Y-47901500D01*
X96887766Y-47866600D01*
X96887204Y-47866764D01*
X96886435Y-47864134D01*
X96886101Y-47863515D01*
X96885323Y-47858082D01*
X96825984Y-47727572D01*
X96732400Y-47618963D01*
X96612095Y-47540985D01*
X96604609Y-47538746D01*
X96525976Y-47515230D01*
X96474739Y-47499907D01*
X96403058Y-47499469D01*
X96335829Y-47499058D01*
X96335828Y-47499058D01*
X96331376Y-47499031D01*
X96197049Y-47537422D01*
X96197048Y-47537422D01*
X96193529Y-47538428D01*
X96193272Y-47537527D01*
X96149524Y-47538746D01*
X96127630Y-47524554D01*
X94604210Y-46001134D01*
X94585904Y-45956940D01*
X94592253Y-45929493D01*
X94614638Y-45883699D01*
X94614638Y-45883698D01*
X94616769Y-45879339D01*
X94627500Y-45805781D01*
X94627499Y-45234220D01*
X94616578Y-45160021D01*
X94593555Y-45113129D01*
X94563466Y-45051845D01*
X94563465Y-45051844D01*
X94561190Y-45047210D01*
X94557537Y-45043563D01*
X94475902Y-44962070D01*
X94475900Y-44962068D01*
X94472247Y-44958422D01*
X94436869Y-44941129D01*
X94405203Y-44905275D01*
X94408165Y-44857531D01*
X94436770Y-44828876D01*
X94468153Y-44813467D01*
X94468154Y-44813466D01*
X94472790Y-44811190D01*
X94476437Y-44807537D01*
X94557930Y-44725902D01*
X94557932Y-44725900D01*
X94561578Y-44722247D01*
X94607853Y-44627579D01*
X94614638Y-44613699D01*
X94614638Y-44613698D01*
X94616769Y-44609339D01*
X94627500Y-44535781D01*
X94627499Y-43964220D01*
X94616578Y-43890021D01*
X94581733Y-43819051D01*
X94563466Y-43781845D01*
X94563465Y-43781844D01*
X94561190Y-43777210D01*
X94557537Y-43773563D01*
X94475902Y-43692070D01*
X94475900Y-43692068D01*
X94472247Y-43688422D01*
X94359339Y-43633231D01*
X94354536Y-43632530D01*
X94354535Y-43632530D01*
X94332560Y-43629324D01*
X94285781Y-43622500D01*
X94011984Y-43622500D01*
X93989281Y-43618231D01*
X93922734Y-43592285D01*
X93922730Y-43592284D01*
X93919224Y-43590917D01*
X93906038Y-43589181D01*
X93796558Y-43574767D01*
X93796552Y-43574767D01*
X93794527Y-43574500D01*
X93709004Y-43574500D01*
X93707132Y-43574726D01*
X93707124Y-43574727D01*
X93623725Y-43584820D01*
X93587687Y-43589181D01*
X93584158Y-43590515D01*
X93580504Y-43591412D01*
X93580210Y-43590215D01*
X93536772Y-43588844D01*
X93504032Y-43553969D01*
X93500000Y-43531885D01*
X93500000Y-40990000D01*
X93518306Y-40945806D01*
X93562500Y-40927500D01*
X93673786Y-40927500D01*
X93717980Y-40945806D01*
G37*
%TD.AperFunction*%
%TA.AperFunction,Conductor*%
G36*
X97318823Y-51895806D02*
G01*
X97337129Y-51940000D01*
X97327477Y-51972275D01*
X97327377Y-51972388D01*
X97266447Y-52102163D01*
X97244391Y-52243823D01*
X97244968Y-52248236D01*
X97244968Y-52248238D01*
X97247151Y-52264930D01*
X97262980Y-52385979D01*
X97264773Y-52390054D01*
X97318651Y-52512500D01*
X97320720Y-52517203D01*
X97323584Y-52520610D01*
X97410107Y-52623543D01*
X97410110Y-52623546D01*
X97412970Y-52626948D01*
X97532313Y-52706390D01*
X97556864Y-52714060D01*
X97664905Y-52747814D01*
X97664908Y-52747814D01*
X97669157Y-52749142D01*
X97673609Y-52749224D01*
X97673611Y-52749224D01*
X97744642Y-52750526D01*
X97812499Y-52751770D01*
X97816797Y-52750598D01*
X97816799Y-52750598D01*
X97881913Y-52732846D01*
X97929366Y-52738883D01*
X97958651Y-52776706D01*
X97952614Y-52824159D01*
X97942546Y-52837339D01*
X97752691Y-53027194D01*
X97708497Y-53045500D01*
X97106731Y-53045500D01*
X97099392Y-53044250D01*
X97099309Y-53044977D01*
X97092318Y-53044180D01*
X97085677Y-53041848D01*
X97078685Y-53042626D01*
X97078683Y-53042626D01*
X97056303Y-53045117D01*
X97049390Y-53045500D01*
X97041967Y-53045500D01*
X97038543Y-53046281D01*
X97035053Y-53047077D01*
X97028067Y-53048259D01*
X97020383Y-53049114D01*
X96999071Y-53051486D01*
X96993108Y-53055219D01*
X96989162Y-53056593D01*
X96985402Y-53058403D01*
X96978541Y-53059968D01*
X96973039Y-53064353D01*
X96973038Y-53064353D01*
X96955721Y-53078153D01*
X96949941Y-53082246D01*
X96943789Y-53086097D01*
X96938581Y-53091305D01*
X96933337Y-53095990D01*
X96910391Y-53114275D01*
X96907333Y-53120614D01*
X96902942Y-53126115D01*
X96902409Y-53125689D01*
X96898031Y-53131855D01*
X96743191Y-53286694D01*
X96698997Y-53305000D01*
X95947583Y-53305000D01*
X95903389Y-53286694D01*
X95885083Y-53242500D01*
X95903389Y-53198306D01*
X97205889Y-51895806D01*
X97250083Y-51877500D01*
X97274629Y-51877500D01*
X97318823Y-51895806D01*
G37*
%TD.AperFunction*%
%TA.AperFunction,Conductor*%
G36*
X94681574Y-50969082D02*
G01*
X94698321Y-50981039D01*
X95416549Y-51699267D01*
X95434855Y-51743461D01*
X95426350Y-51771906D01*
X95427377Y-51772388D01*
X95366447Y-51902163D01*
X95344391Y-52043823D01*
X95344968Y-52048236D01*
X95344968Y-52048238D01*
X95349640Y-52083961D01*
X95362980Y-52185979D01*
X95364773Y-52190054D01*
X95418211Y-52311500D01*
X95420720Y-52317203D01*
X95423584Y-52320610D01*
X95510107Y-52423543D01*
X95510110Y-52423546D01*
X95512970Y-52426948D01*
X95632313Y-52506390D01*
X95636564Y-52507718D01*
X95764905Y-52547814D01*
X95764908Y-52547814D01*
X95769157Y-52549142D01*
X95860913Y-52550824D01*
X95904761Y-52569936D01*
X95922254Y-52614459D01*
X95903958Y-52657507D01*
X95630771Y-52930694D01*
X95586577Y-52949000D01*
X94689999Y-52949000D01*
X94645805Y-52930694D01*
X94627499Y-52886500D01*
X94627499Y-52854220D01*
X94616578Y-52780021D01*
X94614438Y-52775662D01*
X94563466Y-52671845D01*
X94563465Y-52671844D01*
X94561190Y-52667210D01*
X94552437Y-52658472D01*
X94475902Y-52582070D01*
X94475900Y-52582068D01*
X94472247Y-52578422D01*
X94436869Y-52561129D01*
X94405203Y-52525275D01*
X94408165Y-52477531D01*
X94436770Y-52448876D01*
X94468153Y-52433467D01*
X94468154Y-52433466D01*
X94472790Y-52431190D01*
X94480424Y-52423543D01*
X94557930Y-52345902D01*
X94557932Y-52345900D01*
X94561578Y-52342247D01*
X94606961Y-52249404D01*
X94614638Y-52233699D01*
X94614638Y-52233698D01*
X94616769Y-52229339D01*
X94627500Y-52155781D01*
X94627499Y-51584220D01*
X94616578Y-51510021D01*
X94614438Y-51505662D01*
X94563466Y-51401845D01*
X94563465Y-51401844D01*
X94561190Y-51397210D01*
X94555806Y-51391835D01*
X94475902Y-51312070D01*
X94475900Y-51312068D01*
X94472247Y-51308422D01*
X94436869Y-51291129D01*
X94405203Y-51255275D01*
X94408165Y-51207531D01*
X94436770Y-51178876D01*
X94468153Y-51163467D01*
X94468154Y-51163466D01*
X94472790Y-51161190D01*
X94479941Y-51154027D01*
X94557930Y-51075902D01*
X94557932Y-51075900D01*
X94561578Y-51072247D01*
X94583559Y-51027279D01*
X94597976Y-50997786D01*
X94633831Y-50966120D01*
X94681574Y-50969082D01*
G37*
%TD.AperFunction*%
%TA.AperFunction,Conductor*%
G36*
X94695561Y-49670466D02*
G01*
X94712308Y-49682423D01*
X94934372Y-49904487D01*
X94938677Y-49910561D01*
X94939250Y-49910105D01*
X94943631Y-49915613D01*
X94946678Y-49921958D01*
X94952175Y-49926354D01*
X94969761Y-49940418D01*
X94974920Y-49945035D01*
X94980168Y-49950283D01*
X94983139Y-49952150D01*
X94983140Y-49952151D01*
X94986169Y-49954055D01*
X94991944Y-49958159D01*
X95009236Y-49971988D01*
X95009240Y-49971990D01*
X95014733Y-49976383D01*
X95021590Y-49977960D01*
X95025352Y-49979778D01*
X95029290Y-49981157D01*
X95035248Y-49984902D01*
X95042239Y-49985692D01*
X95042244Y-49985694D01*
X95064237Y-49988180D01*
X95071223Y-49989373D01*
X95078297Y-49991000D01*
X95085677Y-49991000D01*
X95092698Y-49991396D01*
X95121838Y-49994690D01*
X95128484Y-49992369D01*
X95135478Y-49991585D01*
X95135554Y-49992264D01*
X95143004Y-49991000D01*
X96894997Y-49991000D01*
X96939191Y-50009306D01*
X98006375Y-51076490D01*
X98024681Y-51120684D01*
X98019516Y-51143838D01*
X98019641Y-51143876D01*
X98019148Y-51145488D01*
X98018756Y-51147244D01*
X98016447Y-51152163D01*
X97994391Y-51293823D01*
X97994968Y-51298236D01*
X97994968Y-51298238D01*
X98011381Y-51423753D01*
X97998960Y-51469948D01*
X97961354Y-51491160D01*
X97961580Y-51491807D01*
X97961574Y-51491809D01*
X97961572Y-51491809D01*
X97961014Y-51492004D01*
X97959361Y-51492284D01*
X97957978Y-51493064D01*
X97954923Y-51494131D01*
X97947933Y-51494915D01*
X97947857Y-51494236D01*
X97940405Y-51495500D01*
X97188311Y-51495500D01*
X97180972Y-51494250D01*
X97180889Y-51494977D01*
X97173898Y-51494180D01*
X97167257Y-51491848D01*
X97160265Y-51492626D01*
X97160263Y-51492626D01*
X97137883Y-51495117D01*
X97130970Y-51495500D01*
X97123547Y-51495500D01*
X97120123Y-51496281D01*
X97116633Y-51497077D01*
X97109647Y-51498259D01*
X97101963Y-51499114D01*
X97080651Y-51501486D01*
X97074688Y-51505219D01*
X97070742Y-51506593D01*
X97066982Y-51508403D01*
X97060121Y-51509968D01*
X97054619Y-51514353D01*
X97054618Y-51514353D01*
X97037301Y-51528153D01*
X97031521Y-51532246D01*
X97025369Y-51536097D01*
X97020161Y-51541305D01*
X97014917Y-51545990D01*
X97010002Y-51549907D01*
X96991971Y-51564275D01*
X96988913Y-51570614D01*
X96984522Y-51576115D01*
X96983989Y-51575689D01*
X96979611Y-51581855D01*
X96462284Y-52099182D01*
X96418090Y-52117488D01*
X96373896Y-52099182D01*
X96355838Y-52054817D01*
X96355774Y-52054821D01*
X96355761Y-52054628D01*
X96355595Y-52054219D01*
X96355647Y-52050000D01*
X96335323Y-51908082D01*
X96275984Y-51777572D01*
X96182400Y-51668963D01*
X96062095Y-51590985D01*
X96047052Y-51586486D01*
X96006501Y-51574359D01*
X95924739Y-51549907D01*
X95832361Y-51549343D01*
X95788550Y-51531038D01*
X94753025Y-50495513D01*
X94748720Y-50489439D01*
X94748147Y-50489895D01*
X94743766Y-50484387D01*
X94740719Y-50478042D01*
X94717636Y-50459582D01*
X94712477Y-50454965D01*
X94707228Y-50449716D01*
X94701225Y-50445943D01*
X94695449Y-50441838D01*
X94672664Y-50423617D01*
X94665804Y-50422040D01*
X94662797Y-50420586D01*
X94630976Y-50384871D01*
X94627499Y-50364316D01*
X94627499Y-50314220D01*
X94616578Y-50240021D01*
X94611832Y-50230354D01*
X94563466Y-50131845D01*
X94563465Y-50131844D01*
X94561190Y-50127210D01*
X94557537Y-50123563D01*
X94475902Y-50042070D01*
X94475900Y-50042068D01*
X94472247Y-50038422D01*
X94436869Y-50021129D01*
X94405203Y-49985275D01*
X94408165Y-49937531D01*
X94436770Y-49908876D01*
X94468153Y-49893467D01*
X94468154Y-49893466D01*
X94472790Y-49891190D01*
X94476913Y-49887060D01*
X94557930Y-49805902D01*
X94557932Y-49805900D01*
X94561578Y-49802247D01*
X94611964Y-49699169D01*
X94647817Y-49667504D01*
X94695561Y-49670466D01*
G37*
%TD.AperFunction*%
%TA.AperFunction,Conductor*%
G36*
X102843702Y-48147406D02*
G01*
X102928602Y-48203921D01*
X102928609Y-48203924D01*
X102932313Y-48206390D01*
X103069157Y-48249142D01*
X103073608Y-48249224D01*
X103073617Y-48249225D01*
X103095007Y-48249617D01*
X103138858Y-48268729D01*
X103156350Y-48313252D01*
X103155617Y-48321721D01*
X103144391Y-48393823D01*
X103144968Y-48398236D01*
X103144968Y-48398238D01*
X103147811Y-48419979D01*
X103162980Y-48535979D01*
X103164773Y-48540054D01*
X103215131Y-48654500D01*
X103220720Y-48667203D01*
X103228761Y-48676769D01*
X103310107Y-48773543D01*
X103310110Y-48773546D01*
X103312970Y-48776948D01*
X103366490Y-48812574D01*
X103431133Y-48855605D01*
X103457778Y-48895332D01*
X103459000Y-48907632D01*
X103459000Y-49391907D01*
X103440694Y-49436101D01*
X102796646Y-50080149D01*
X102752452Y-50098455D01*
X102708258Y-50080149D01*
X102690583Y-50044814D01*
X102690247Y-50042463D01*
X102688799Y-50032353D01*
X102685955Y-50012491D01*
X102685954Y-50012487D01*
X102685323Y-50008082D01*
X102625984Y-49877572D01*
X102623080Y-49874202D01*
X102623077Y-49874197D01*
X102543909Y-49782318D01*
X102528929Y-49736889D01*
X102550460Y-49694173D01*
X102558555Y-49688259D01*
X102594196Y-49666376D01*
X102594200Y-49666373D01*
X102597991Y-49664045D01*
X102648964Y-49607731D01*
X102691213Y-49561054D01*
X102694200Y-49557754D01*
X102756710Y-49428733D01*
X102780496Y-49287354D01*
X102780647Y-49275000D01*
X102760323Y-49133082D01*
X102700984Y-49002572D01*
X102607400Y-48893963D01*
X102487095Y-48815985D01*
X102475690Y-48812574D01*
X102414478Y-48794268D01*
X102349739Y-48774907D01*
X102296041Y-48774579D01*
X102251960Y-48756003D01*
X102233924Y-48711698D01*
X102252229Y-48667886D01*
X102764876Y-48155239D01*
X102809070Y-48136933D01*
X102843702Y-48147406D01*
G37*
%TD.AperFunction*%
%TA.AperFunction,Conductor*%
G36*
X94742980Y-46686862D02*
G01*
X94763256Y-46700410D01*
X95893808Y-47830962D01*
X95912114Y-47875156D01*
X95911370Y-47884768D01*
X95894391Y-47993823D01*
X95894968Y-47998236D01*
X95894968Y-47998238D01*
X95896814Y-48012354D01*
X95912980Y-48135979D01*
X95914773Y-48140054D01*
X95968647Y-48262491D01*
X95970720Y-48267203D01*
X95973584Y-48270610D01*
X96060107Y-48373543D01*
X96060110Y-48373546D01*
X96062970Y-48376948D01*
X96101228Y-48402415D01*
X96152593Y-48436607D01*
X96179238Y-48476334D01*
X96169987Y-48523267D01*
X96164806Y-48530006D01*
X96130327Y-48569047D01*
X96130325Y-48569050D01*
X96127377Y-48572388D01*
X96066447Y-48702163D01*
X96044391Y-48843823D01*
X96044968Y-48848236D01*
X96044968Y-48848238D01*
X96051127Y-48895332D01*
X96062980Y-48985979D01*
X96064773Y-48990054D01*
X96088607Y-49044220D01*
X96120720Y-49117203D01*
X96130659Y-49129027D01*
X96210107Y-49223543D01*
X96210110Y-49223546D01*
X96212970Y-49226948D01*
X96332313Y-49306390D01*
X96336564Y-49307718D01*
X96464905Y-49347814D01*
X96464908Y-49347814D01*
X96469157Y-49349142D01*
X96473609Y-49349224D01*
X96473611Y-49349224D01*
X96544642Y-49350526D01*
X96612499Y-49351770D01*
X96666331Y-49337094D01*
X96713784Y-49343131D01*
X96726964Y-49353199D01*
X96838268Y-49464502D01*
X96876072Y-49502306D01*
X96894378Y-49546500D01*
X96876072Y-49590694D01*
X96831878Y-49609000D01*
X95205002Y-49609000D01*
X95160808Y-49590694D01*
X94795628Y-49225514D01*
X94791323Y-49219440D01*
X94790749Y-49219896D01*
X94786370Y-49214391D01*
X94783322Y-49208042D01*
X94760239Y-49189582D01*
X94755080Y-49184965D01*
X94749831Y-49179716D01*
X94743828Y-49175943D01*
X94738052Y-49171838D01*
X94715267Y-49153617D01*
X94708407Y-49152040D01*
X94704647Y-49150222D01*
X94700711Y-49148844D01*
X94694752Y-49145098D01*
X94687758Y-49144307D01*
X94687757Y-49144307D01*
X94682978Y-49143767D01*
X94641120Y-49120613D01*
X94627499Y-49081663D01*
X94627499Y-49044220D01*
X94616578Y-48970021D01*
X94612675Y-48962072D01*
X94563466Y-48861845D01*
X94563465Y-48861844D01*
X94561190Y-48857210D01*
X94553968Y-48850000D01*
X94516476Y-48812574D01*
X94487340Y-48783488D01*
X94468996Y-48739311D01*
X94487263Y-48695100D01*
X94494363Y-48688983D01*
X94568035Y-48634567D01*
X94574567Y-48628035D01*
X94649409Y-48526707D01*
X94653736Y-48518537D01*
X94695760Y-48398867D01*
X94697380Y-48391483D01*
X94699862Y-48365235D01*
X94700000Y-48362296D01*
X94700000Y-48172431D01*
X94696359Y-48163641D01*
X94687569Y-48160000D01*
X93712500Y-48160000D01*
X93668306Y-48141694D01*
X93650000Y-48097500D01*
X93650000Y-47947569D01*
X93850000Y-47947569D01*
X93853641Y-47956359D01*
X93862431Y-47960000D01*
X94687568Y-47960000D01*
X94696358Y-47956359D01*
X94699999Y-47947569D01*
X94699999Y-47757706D01*
X94699860Y-47754762D01*
X94697380Y-47728515D01*
X94695761Y-47721135D01*
X94653736Y-47601463D01*
X94649409Y-47593293D01*
X94574567Y-47491965D01*
X94568035Y-47485433D01*
X94554280Y-47475273D01*
X94529607Y-47434291D01*
X94541140Y-47387867D01*
X94554280Y-47374727D01*
X94568035Y-47364567D01*
X94574567Y-47358035D01*
X94649409Y-47256707D01*
X94653736Y-47248537D01*
X94695760Y-47128867D01*
X94697380Y-47121483D01*
X94699862Y-47095235D01*
X94700000Y-47092296D01*
X94700000Y-46902431D01*
X94696359Y-46893641D01*
X94687569Y-46890000D01*
X93862431Y-46890000D01*
X93853641Y-46893641D01*
X93850000Y-46902431D01*
X93850000Y-47947569D01*
X93650000Y-47947569D01*
X93650000Y-46752500D01*
X93668306Y-46708306D01*
X93712500Y-46690000D01*
X94687567Y-46690000D01*
X94695145Y-46686861D01*
X94742980Y-46686862D01*
G37*
%TD.AperFunction*%
%TD*%
%TA.AperFunction,NonConductor*%
G36*
X94734193Y-56831346D02*
G01*
X95107332Y-57204485D01*
X95111639Y-57210560D01*
X95112211Y-57210105D01*
X95116592Y-57215613D01*
X95119639Y-57221958D01*
X95125136Y-57226354D01*
X95142727Y-57240422D01*
X95147886Y-57245039D01*
X95153130Y-57250283D01*
X95156093Y-57252145D01*
X95156100Y-57252151D01*
X95159135Y-57254058D01*
X95164911Y-57258163D01*
X95187694Y-57276383D01*
X95194552Y-57277960D01*
X95198317Y-57279780D01*
X95202253Y-57281158D01*
X95208209Y-57284902D01*
X95215200Y-57285692D01*
X95215205Y-57285694D01*
X95237198Y-57288180D01*
X95244184Y-57289373D01*
X95251258Y-57291000D01*
X95258638Y-57291000D01*
X95265659Y-57291396D01*
X95294799Y-57294690D01*
X95301445Y-57292369D01*
X95308439Y-57291585D01*
X95308515Y-57292264D01*
X95315965Y-57291000D01*
X97186150Y-57291000D01*
X97192558Y-57291006D01*
X97236735Y-57309353D01*
X97255000Y-57353506D01*
X97255000Y-58402768D01*
X97253750Y-58410107D01*
X97254477Y-58410190D01*
X97253680Y-58417181D01*
X97251348Y-58423822D01*
X97252126Y-58430815D01*
X97252126Y-58430816D01*
X97254617Y-58453197D01*
X97255000Y-58460110D01*
X97255000Y-58467533D01*
X97256581Y-58474465D01*
X97257757Y-58481418D01*
X97260986Y-58510429D01*
X97264719Y-58516393D01*
X97266094Y-58520341D01*
X97267903Y-58524100D01*
X97269468Y-58530959D01*
X97273853Y-58536461D01*
X97273853Y-58536462D01*
X97287648Y-58553773D01*
X97291745Y-58559560D01*
X97294438Y-58563862D01*
X97297550Y-58569511D01*
X97297632Y-58569614D01*
X97300678Y-58575958D01*
X97306174Y-58580353D01*
X97308016Y-58581826D01*
X97317864Y-58591691D01*
X97323775Y-58599109D01*
X97330113Y-58602166D01*
X97330173Y-58602214D01*
X97336018Y-58605446D01*
X97340183Y-58608064D01*
X97345948Y-58612162D01*
X97368733Y-58630383D01*
X97375593Y-58631960D01*
X97379353Y-58633778D01*
X97383289Y-58635156D01*
X97389248Y-58638902D01*
X97396242Y-58639693D01*
X97396243Y-58639693D01*
X97418236Y-58642179D01*
X97425213Y-58643371D01*
X97432297Y-58645000D01*
X97439671Y-58645000D01*
X97446680Y-58645395D01*
X97451088Y-58645893D01*
X97492946Y-58669042D01*
X97506176Y-58715012D01*
X97500222Y-58735444D01*
X97477861Y-58781190D01*
X97473231Y-58790661D01*
X97462500Y-58864219D01*
X97462500Y-59125954D01*
X97456800Y-59148895D01*
X97457848Y-59149297D01*
X97456497Y-59152817D01*
X97454735Y-59156145D01*
X97414905Y-59314716D01*
X97414049Y-59478210D01*
X97452216Y-59637190D01*
X97453942Y-59640535D01*
X97453944Y-59640539D01*
X97455539Y-59643629D01*
X97462501Y-59672295D01*
X97462501Y-59687500D01*
X97444195Y-59731694D01*
X97400001Y-59750000D01*
X93562500Y-59750000D01*
X93518306Y-59731694D01*
X93500000Y-59687500D01*
X93500000Y-58938451D01*
X93518306Y-58894257D01*
X93562500Y-58875951D01*
X93577649Y-58877864D01*
X93580776Y-58879083D01*
X93584513Y-58879575D01*
X93703442Y-58895233D01*
X93703448Y-58895233D01*
X93705473Y-58895500D01*
X93790996Y-58895500D01*
X93792868Y-58895274D01*
X93792876Y-58895273D01*
X93876275Y-58885180D01*
X93912313Y-58880819D01*
X93915838Y-58879487D01*
X93915842Y-58879486D01*
X93989813Y-58851534D01*
X94011905Y-58847499D01*
X94285780Y-58847499D01*
X94359979Y-58836578D01*
X94443716Y-58795465D01*
X94468155Y-58783466D01*
X94468156Y-58783465D01*
X94472790Y-58781190D01*
X94509120Y-58744797D01*
X94557930Y-58695902D01*
X94557932Y-58695900D01*
X94561578Y-58692247D01*
X94587654Y-58638902D01*
X94614638Y-58583699D01*
X94614638Y-58583698D01*
X94616769Y-58579339D01*
X94619655Y-58559560D01*
X94623024Y-58536462D01*
X94627500Y-58505781D01*
X94627499Y-57934220D01*
X94616578Y-57860021D01*
X94561190Y-57747210D01*
X94557537Y-57743563D01*
X94475902Y-57662070D01*
X94475900Y-57662068D01*
X94472247Y-57658422D01*
X94436869Y-57641129D01*
X94405203Y-57605275D01*
X94408165Y-57557531D01*
X94436770Y-57528876D01*
X94468153Y-57513467D01*
X94468154Y-57513466D01*
X94472790Y-57511190D01*
X94476437Y-57507537D01*
X94557930Y-57425902D01*
X94557932Y-57425900D01*
X94561578Y-57422247D01*
X94597367Y-57349031D01*
X94614638Y-57313699D01*
X94614638Y-57313698D01*
X94616769Y-57309339D01*
X94619022Y-57293899D01*
X94624235Y-57258163D01*
X94627500Y-57235781D01*
X94627499Y-56875539D01*
X94645805Y-56831346D01*
X94689999Y-56813040D01*
X94734193Y-56831346D01*
G37*
%TD.AperFunction*%
M02*
