M48
; DRILL file {KiCad (6.0.8)} date Thu Nov  3 22:59:10 2022
; FORMAT={-:-/ absolute / metric / decimal}
; #@! TF.CreationDate,2022-11-03T22:59:10+01:00
; #@! TF.GenerationSoftware,Kicad,Pcbnew,(6.0.8)
; #@! TF.FileFunction,Plated,1,2,PTH
FMAT,2
METRIC
; #@! TA.AperFunction,Plated,PTH,ViaDrill
T1C0.300
; #@! TA.AperFunction,Plated,PTH,ComponentDrill
T2C0.600
; #@! TA.AperFunction,Plated,PTH,ComponentDrill
T3C0.650
%
G90
G05
T1
X95.25Y-48.15
X95.55Y-46.8
X95.6Y-49.25
X95.6Y-56.15
X95.7Y-45.95
X95.7Y-54.45
X95.75Y-45.1
X95.85Y-52.05
X96.35Y-56.5
X96.4Y-48.0
X96.55Y-48.85
X96.9Y-44.0
X97.25Y-54.75
X97.35Y-48.25
X97.6Y-42.75
X97.65Y-53.8
X97.681Y-45.178
X97.75Y-46.05
X97.75Y-52.25
X98.0Y-49.2
X98.3Y-57.6
X98.4Y-53.45
X98.5Y-51.3
X98.85Y-45.1
X99.0Y-49.3
X99.15Y-43.95
X99.15Y-53.95
X99.2Y-56.75
X99.35Y-52.55
X99.5Y-46.95
X100.0Y-49.55
X100.05Y-45.75
X100.2Y-53.35
X100.3Y-44.1
X100.8Y-46.95
X100.95Y-44.9
X100.95Y-57.85
X101.4Y-44.1
X101.4Y-49.25
X101.4Y-50.95
X101.75Y-53.85
X102.0Y-56.6
X102.2Y-50.15
X102.275Y-49.275
X102.3Y-52.65
X102.4Y-42.85
X103.15Y-47.75
X103.25Y-44.95
X103.45Y-55.3
X103.65Y-48.4
X104.2Y-43.2
X104.4Y-57.7
X104.5Y-49.7
X104.6Y-56.2
X104.85Y-53.65
T3
X93.75Y-44.25
X93.75Y-45.52
X93.75Y-46.79
X93.75Y-48.06
X93.75Y-49.33
X93.75Y-50.6
X93.75Y-51.87
X93.75Y-53.14
X93.75Y-54.41
X93.75Y-55.68
X93.75Y-56.95
X93.75Y-58.22
X98.09Y-59.4
X99.36Y-59.4
X100.63Y-59.4
X101.9Y-59.4
X106.25Y-44.25
X106.25Y-45.52
X106.25Y-46.79
X106.25Y-48.06
X106.25Y-49.33
X106.25Y-50.6
X106.25Y-51.87
X106.25Y-53.14
X106.25Y-54.41
X106.25Y-55.68
X106.25Y-56.95
X106.25Y-58.22
T2
G00X94.4Y-37.155
M15
G01X94.4Y-38.255
M16
G05
G00X94.4Y-41.305
M15
G01X94.4Y-42.105
M16
G05
G00X105.6Y-37.155
M15
G01X105.6Y-38.255
M16
G05
G00X105.6Y-41.305
M15
G01X105.6Y-42.105
M16
G05
T0
M30
