%TF.GenerationSoftware,KiCad,Pcbnew,(6.0.8)*%
%TF.CreationDate,2022-11-03T22:59:07+01:00*%
%TF.ProjectId,epi,6570692e-6b69-4636-9164-5f7063625858,rev?*%
%TF.SameCoordinates,Original*%
%TF.FileFunction,Legend,Bot*%
%TF.FilePolarity,Positive*%
%FSLAX46Y46*%
G04 Gerber Fmt 4.6, Leading zero omitted, Abs format (unit mm)*
G04 Created by KiCad (PCBNEW (6.0.8)) date 2022-11-03 22:59:07*
%MOMM*%
%LPD*%
G01*
G04 APERTURE LIST*
%ADD10C,0.180000*%
%ADD11C,0.160000*%
%ADD12C,0.000000*%
G04 APERTURE END LIST*
D10*
X99769680Y-46955082D02*
X99704099Y-46941712D01*
X100717551Y-47172305D02*
X100713035Y-47182878D01*
X99129270Y-48435319D02*
X99144470Y-48474944D01*
X99697065Y-48506346D02*
X99731077Y-48512462D01*
X99393928Y-45954308D02*
X99361929Y-45986240D01*
X100122526Y-45110821D02*
X100125580Y-45191913D01*
X98840645Y-48757050D02*
X98824616Y-48790744D01*
X103048033Y-47809242D02*
X103084884Y-47896433D01*
X99567820Y-46664701D02*
X99601227Y-46696055D01*
X98886330Y-49679584D02*
X99066220Y-49733443D01*
X99785938Y-45048926D02*
X99762461Y-45060820D01*
X100224793Y-48482026D02*
X100226772Y-48490076D01*
X98787650Y-49063702D02*
X98792643Y-49107205D01*
X100797065Y-47938732D02*
X100794566Y-47967600D01*
X100405828Y-48490139D02*
X100368062Y-48493340D01*
X102382576Y-45774447D02*
X102249188Y-45750406D01*
X103247927Y-48734807D02*
X103248749Y-48860694D01*
X97034384Y-47644141D02*
X96991790Y-47725287D01*
X99729317Y-45047524D02*
X99762461Y-45060820D01*
X99033589Y-48567526D02*
X98997098Y-48589176D01*
X100855060Y-46860801D02*
X100838370Y-46913661D01*
X99854998Y-45017463D02*
X99832203Y-45027258D01*
X100230308Y-46954963D02*
X100295890Y-46941593D01*
X100820747Y-47638098D02*
X100846633Y-47702637D01*
X98859478Y-48724879D02*
X98840645Y-48757050D01*
X97228326Y-47343975D02*
X97176717Y-47415819D01*
X99272513Y-47151449D02*
X99277620Y-47161903D01*
X99066184Y-49733351D02*
X99123524Y-49805200D01*
X99332849Y-46700773D02*
X99307313Y-46657466D01*
X97206949Y-45876802D02*
X97345335Y-45838837D01*
X99733199Y-48248637D02*
X99745227Y-48264337D01*
X99226185Y-46164923D02*
X99204430Y-46204219D01*
X99785701Y-44677730D02*
X99776164Y-44735915D01*
X96859200Y-49738844D02*
X97339764Y-49645522D01*
X100692674Y-46657348D02*
X100713195Y-46611901D01*
X100703672Y-49994893D02*
X100645812Y-50049273D01*
X99462152Y-45894527D02*
X99427361Y-45923725D01*
X102665780Y-46148683D02*
X102632706Y-46201573D01*
X100000035Y-45657222D02*
X100014938Y-45659683D01*
X96859200Y-49738918D02*
X96906729Y-49604995D01*
X99161705Y-48514748D02*
X99115853Y-48530246D01*
X99100975Y-47168693D02*
X99142545Y-47162291D01*
X100722368Y-47161793D02*
X100717551Y-47172305D01*
X99396770Y-48492854D02*
X99487688Y-48491879D01*
X97579811Y-48450220D02*
X97727938Y-48294821D01*
X99768703Y-44796176D02*
X99763461Y-44858656D01*
X99895417Y-47043774D02*
X99902948Y-47019980D01*
X101266809Y-45903248D02*
X101211479Y-45940857D01*
X100112371Y-44949629D02*
X100112371Y-44949629D01*
X100690791Y-47258781D02*
X100689087Y-47269921D01*
X99805482Y-48515545D02*
X99801618Y-48519639D01*
X102747118Y-45738226D02*
X102773111Y-45784481D01*
X100113850Y-47066055D02*
X100104572Y-47043653D01*
X100731947Y-47457235D02*
X100762888Y-47515281D01*
X100587816Y-50099059D02*
X100529683Y-50144162D01*
X101555258Y-45772562D02*
X101496060Y-45791527D01*
X99144900Y-46860897D02*
X99161590Y-46913756D01*
X100686904Y-47327656D02*
X100687853Y-47339715D01*
X99791128Y-48526635D02*
X99788657Y-48527609D01*
X99222853Y-47143387D02*
X99261470Y-47130809D01*
X99116042Y-48395887D02*
X99129270Y-48435319D01*
X99231349Y-47075716D02*
X99261434Y-47130708D01*
X100000017Y-45657222D02*
X100000017Y-45657222D01*
X99638439Y-46724993D02*
X99679392Y-46751349D01*
X100432168Y-46664591D02*
X100398762Y-46695945D01*
X100269404Y-48314460D02*
X100259411Y-48334711D01*
X100337269Y-47408356D02*
X100382299Y-47432283D01*
X100698203Y-47225824D02*
X100695360Y-47236734D01*
X100686436Y-47315696D02*
X100686904Y-47327656D01*
X100706942Y-46253766D02*
X100683278Y-46199736D01*
X103148841Y-48081157D02*
X103175535Y-48179156D01*
X98742355Y-47151777D02*
X98835509Y-47166826D01*
X101199906Y-49151542D02*
X101190052Y-49196839D01*
X100795228Y-47021108D02*
X100768615Y-47075623D01*
X100732861Y-47140942D02*
X100727476Y-47151339D01*
X100301213Y-48261949D02*
X100290315Y-48278135D01*
X100686406Y-47303835D02*
X100606663Y-47298641D01*
X99202934Y-47938831D02*
X99205430Y-47967700D01*
X102654668Y-45838736D02*
X102517789Y-45804271D01*
X100838283Y-48514647D02*
X100838283Y-48514647D01*
X101164493Y-47166734D02*
X101073350Y-47174774D01*
X100225796Y-48429065D02*
X100224622Y-48436433D01*
X100062010Y-46838492D02*
X99999985Y-46845879D01*
X98792968Y-48900303D02*
X98787766Y-48939428D01*
X99589315Y-45883853D02*
X99657575Y-45834765D01*
X97079540Y-47565670D02*
X97034384Y-47644141D01*
X101236805Y-45261776D02*
X101339110Y-45254891D01*
X100401234Y-44452870D02*
X100484543Y-44524238D01*
X102771672Y-47343879D02*
X102823281Y-47415723D01*
X98963649Y-48612743D02*
X98933201Y-48638163D01*
X100468197Y-46876782D02*
X100517110Y-46847734D01*
X100888261Y-46510288D02*
X100891915Y-46558018D01*
X101212343Y-49063605D02*
X101207350Y-49107109D01*
X99804079Y-47350368D02*
X99756138Y-47367239D01*
X100697408Y-46053922D02*
X100724634Y-46089694D01*
X100357473Y-46923948D02*
X100414947Y-46902265D01*
X100818996Y-49872716D02*
X100761400Y-49936011D01*
X99317401Y-45038208D02*
X99340644Y-45029420D01*
X99658563Y-45768080D02*
X99635804Y-45779934D01*
X98168151Y-46931452D02*
X98263262Y-46982121D01*
X99851519Y-50317034D02*
X99881112Y-50321259D01*
X100223432Y-48472715D02*
X100224793Y-48482026D01*
X102696457Y-46095205D02*
X102665780Y-46148683D01*
X99777432Y-48319787D02*
X99786748Y-48341261D01*
X100777145Y-47143296D02*
X100738527Y-47130718D01*
X97303544Y-46095293D02*
X97334222Y-46148770D01*
X99585042Y-46902384D02*
X99531792Y-46876900D01*
X99601227Y-46696055D02*
X99638439Y-46724993D01*
X99263360Y-46360979D02*
X99275300Y-46307671D01*
X97450097Y-47071728D02*
X97336556Y-47205291D01*
X97982490Y-46815829D02*
X98074400Y-46875919D01*
X101640749Y-47027527D02*
X101544364Y-47067548D01*
X100236654Y-44946657D02*
X100206193Y-44945525D01*
X100601475Y-46779898D02*
X100636701Y-46741584D01*
X100431051Y-45703974D02*
X100484018Y-45624604D01*
X100686897Y-47292445D02*
X100686434Y-47303835D01*
X101893392Y-49564861D02*
X101751022Y-49570248D01*
X103175535Y-48179156D02*
X103198431Y-48281222D01*
X100743541Y-46465089D02*
X100742874Y-46413453D01*
X99816973Y-47158839D02*
X99833518Y-47142743D01*
X100050664Y-44958479D02*
X100029724Y-44962571D01*
X99708984Y-47386668D02*
X99662799Y-47408448D01*
X100231385Y-48404500D02*
X100231385Y-48404500D01*
X101050569Y-46079196D02*
X100998691Y-46134289D01*
X98503943Y-45791627D02*
X98562406Y-45814036D01*
X100149184Y-44278969D02*
X100204980Y-44313113D01*
X100096246Y-45698267D02*
X100000017Y-45657222D01*
X100713035Y-47182878D02*
X100708830Y-47193515D01*
X100884135Y-48530146D02*
X100926828Y-48547761D01*
X99249842Y-46126767D02*
X99226185Y-46164923D01*
X99619208Y-48164140D02*
X99634828Y-48171289D01*
X102549901Y-47071631D02*
X102663442Y-47205194D01*
X98933201Y-48638163D02*
X98905717Y-48665370D01*
X100787627Y-47994904D02*
X100776065Y-48020437D01*
X100692885Y-47247719D02*
X100690791Y-47258781D01*
X103235091Y-49129083D02*
X103220199Y-49272050D01*
X100000017Y-45657222D02*
X100072156Y-45698467D01*
X100762888Y-47515281D02*
X100792660Y-47575607D01*
X100222844Y-48462065D02*
X100223031Y-48467562D01*
X99587171Y-48152143D02*
X99619208Y-48164140D01*
X102724630Y-46041209D02*
X102696457Y-46095205D01*
X102249188Y-45750406D02*
X102117783Y-45733289D01*
X103173261Y-49576689D02*
X103140802Y-49738826D01*
X97127053Y-47489640D02*
X97079540Y-47565670D01*
X99382245Y-46092011D02*
X99424343Y-46038675D01*
X98558249Y-47707840D02*
X98738695Y-47620922D01*
X100207401Y-50304477D02*
X100177881Y-50311371D01*
X98836724Y-49289856D02*
X98853575Y-49337349D01*
X99161705Y-48514748D02*
X99161705Y-48514748D01*
X99691692Y-45875810D02*
X99645434Y-45922354D01*
X100691255Y-47364141D02*
X100693740Y-47376513D01*
X100118727Y-50321161D02*
X100089092Y-50324035D01*
X100175334Y-44945615D02*
X100144065Y-44946969D01*
X98787766Y-48939428D02*
X98785172Y-48979748D01*
X99204695Y-47908604D02*
X99202934Y-47938831D01*
X99082166Y-47979063D02*
X99075039Y-48052107D01*
X101615169Y-45756898D02*
X101555258Y-45772562D01*
X102520185Y-46356036D02*
X102478604Y-46405892D01*
X101957942Y-45319619D02*
X102150396Y-45374224D01*
X98881155Y-48694297D02*
X98859478Y-48724879D01*
X99183192Y-47153869D02*
X99222853Y-47143387D01*
X100008592Y-44967254D02*
X99987264Y-44972536D01*
X99799268Y-47173803D02*
X99816973Y-47158839D01*
X101737054Y-45734901D02*
X101675774Y-45744392D01*
X97180429Y-49011769D02*
X97241935Y-48907461D01*
X100876464Y-49805099D02*
X100818996Y-49872716D01*
X98800086Y-49151639D02*
X98809941Y-49196935D01*
X96757722Y-48614244D02*
X96752073Y-48734902D01*
X100879076Y-46756991D02*
X100868601Y-46808566D01*
X99849403Y-45691732D02*
X99824822Y-45699422D01*
X100816808Y-47153777D02*
X100777145Y-47143296D01*
X100515828Y-47288462D02*
X100468203Y-47280639D01*
X99756138Y-47367239D02*
X99708984Y-47386668D01*
X99387053Y-45491538D02*
X99312404Y-45437137D01*
X97438845Y-48620794D02*
X97579811Y-48450220D01*
X96751251Y-48860789D02*
X96755461Y-48992137D01*
X100572595Y-45923633D02*
X100606029Y-45954216D01*
X99298585Y-47215094D02*
X99301786Y-47225932D01*
X100487303Y-46595294D02*
X100461704Y-46630985D01*
X103248749Y-48860694D02*
X103244539Y-48992042D01*
X100838370Y-46913661D02*
X100818453Y-46967109D01*
X99282438Y-47172415D02*
X99286954Y-47182988D01*
X102872945Y-47489543D02*
X102920458Y-47565573D01*
X99220523Y-44905939D02*
X99273687Y-44832198D01*
X100855519Y-48474843D02*
X100838283Y-48514647D01*
X101322951Y-45869653D02*
X101266809Y-45903248D01*
X99299634Y-47401686D02*
X99299634Y-47401686D01*
X100606029Y-45954216D02*
X100638027Y-45986148D01*
X99832203Y-45027258D02*
X99809184Y-45037742D01*
X99271398Y-46564669D02*
X99261245Y-46515652D01*
X97334222Y-46148770D02*
X97367296Y-46201661D01*
D11*
X94900000Y-48100000D02*
X95400000Y-48100000D01*
D10*
X100411853Y-44976708D02*
X100354802Y-44962543D01*
X100127176Y-45276006D02*
X100127277Y-45365100D01*
X97345335Y-45838837D02*
X97482214Y-45804372D01*
X100472222Y-45934245D02*
X100410672Y-45883740D01*
X99704133Y-50276030D02*
X99733534Y-50286843D01*
X99874152Y-45684591D02*
X99849403Y-45691732D01*
X97371206Y-48712108D02*
X97438845Y-48620794D01*
X100097040Y-47019860D02*
X100091352Y-46994633D01*
X98263262Y-46982121D02*
X98359251Y-47027619D01*
X100693740Y-47376513D02*
X100696768Y-47388994D01*
X99762973Y-50296362D02*
X99792450Y-50304574D01*
X100259825Y-47212199D02*
X100239223Y-47200374D01*
X102632706Y-46201573D02*
X102597344Y-46253808D01*
X100118212Y-45682427D02*
X100118212Y-45682427D01*
X101447353Y-49605476D02*
X101284621Y-49637169D01*
X99261642Y-48065473D02*
X99288165Y-48084460D01*
X100779752Y-47844803D02*
X100789476Y-47877127D01*
X100382299Y-47432283D02*
X100425995Y-47458148D01*
X98970837Y-49582492D02*
X99000616Y-49632596D01*
X100759699Y-48043994D02*
X100738345Y-48065368D01*
X100259411Y-48334711D02*
X100249737Y-48356431D01*
X99841781Y-44462921D02*
X99825354Y-44514217D01*
X99424343Y-46038675D02*
X99472812Y-45986046D01*
X98792643Y-49107205D02*
X98800086Y-49151639D01*
X98262950Y-45735002D02*
X98324230Y-45744493D01*
X99724020Y-46774957D02*
X99772258Y-46795652D01*
X101257647Y-47151685D02*
X101164493Y-47166734D01*
X99733534Y-50286843D02*
X99762973Y-50296362D01*
X99756633Y-48281387D02*
X99767381Y-48299849D01*
X101736737Y-46982029D02*
X101640749Y-47027527D01*
X99307103Y-47247826D02*
X99309198Y-47258887D01*
X99340644Y-45029420D02*
X99364397Y-45021768D01*
X98788524Y-45940957D02*
X98843020Y-45982723D01*
X98106608Y-49564964D02*
X98248977Y-49570350D01*
X100347556Y-48209064D02*
X100335576Y-48220619D01*
X100618059Y-47609358D02*
X100649911Y-47642533D01*
X99275300Y-46307671D02*
X99293045Y-46253883D01*
X98863515Y-45274621D02*
X98763194Y-45261869D01*
X99902948Y-47019980D02*
X99908636Y-46994752D01*
X98715377Y-49637270D02*
X98886330Y-49679584D01*
X98896663Y-46028789D02*
X98949434Y-46079297D01*
X102750192Y-45986762D02*
X102724630Y-46041209D01*
X99070350Y-45214753D02*
X99108230Y-45177976D01*
X102389976Y-46502747D02*
X102343145Y-46549609D01*
X101831848Y-46931361D02*
X101736737Y-46982029D01*
X96915114Y-47896529D02*
X96881443Y-47987089D01*
X97806121Y-46683199D02*
X97806121Y-46683199D01*
X99277620Y-47161903D02*
X99282438Y-47172415D01*
X99066184Y-49733351D02*
X99066184Y-49733351D01*
X100029705Y-50325683D02*
X99999953Y-50324434D01*
X99310690Y-47351980D02*
X99308733Y-47364246D01*
X100295890Y-46941593D02*
X100357473Y-46923948D01*
X97367296Y-46201661D02*
X97402658Y-46253896D01*
X100825119Y-44958269D02*
X100862475Y-45029351D01*
D11*
X104611905Y-45550000D02*
X104611905Y-45050000D01*
D10*
X99095241Y-48317663D02*
X99104720Y-48356664D01*
X100223031Y-48467562D02*
X100223432Y-48472715D01*
X99170204Y-44981032D02*
X99220523Y-44905939D01*
X103198431Y-48281222D02*
X103217324Y-48387588D01*
X98738695Y-47620922D02*
X98922752Y-47541655D01*
X100833022Y-46285999D02*
X100848606Y-46328505D01*
X99878596Y-44364293D02*
X99859575Y-44412994D01*
X99445408Y-46346734D02*
X99446019Y-46391461D01*
X100397864Y-48172444D02*
X100384947Y-48180272D01*
X99579842Y-47270676D02*
X99627548Y-47257941D01*
X99515980Y-45624696D02*
X99455130Y-45553956D01*
X99949262Y-45666518D02*
X99924095Y-45671978D01*
X99256446Y-46465207D02*
X99257113Y-46413570D01*
X99286792Y-46612019D02*
X99271398Y-46564669D01*
X99795291Y-48364335D02*
X99803022Y-48389071D01*
X97849603Y-45374314D02*
X97672797Y-45441340D01*
X99153356Y-47702737D02*
X99130189Y-47769209D01*
X100410672Y-45883740D02*
X100342413Y-45834652D01*
X101352332Y-47129933D02*
X101257647Y-47151685D01*
X99760765Y-47200507D02*
X99780499Y-47187678D01*
X100882023Y-46463435D02*
X100888261Y-46510288D01*
X99131357Y-46808661D02*
X99144900Y-46860897D01*
X99286954Y-47182988D02*
X99291158Y-47193624D01*
X99908636Y-46994752D02*
X99912383Y-46968047D01*
X101159346Y-48756951D02*
X101175374Y-48790645D01*
X99718791Y-47223202D02*
X99740163Y-47212334D01*
X100256994Y-45829885D02*
X100308297Y-45875700D01*
X100266731Y-44948967D02*
X100236654Y-44946657D01*
X98042058Y-45319710D02*
X97849603Y-45374314D01*
X98997167Y-45294051D02*
X99036211Y-45213988D01*
X97882221Y-45733390D02*
X98011484Y-45724339D01*
X99310902Y-47270026D02*
X99312203Y-47281245D01*
X103043254Y-49476252D02*
X102990812Y-49352737D01*
X100160843Y-46963820D02*
X100230308Y-46954963D01*
X103244539Y-48992042D02*
X103235091Y-49129083D01*
D11*
X95400000Y-46800000D02*
X95400000Y-46300000D01*
D10*
X100290315Y-48278135D02*
X100279708Y-48295620D01*
X102990812Y-49352737D02*
X102936008Y-49234227D01*
X99073215Y-48126505D02*
X99074453Y-48164176D01*
X101547057Y-45257498D02*
X101755081Y-45279892D01*
X99299634Y-47401686D02*
X99268042Y-47457336D01*
X97482214Y-45804372D02*
X97617428Y-45774548D01*
X97806121Y-46683190D02*
X97567303Y-46941429D01*
X100642530Y-48114333D02*
X100581792Y-48122115D01*
X100768159Y-45390349D02*
X100853986Y-45351058D01*
X100795527Y-46204128D02*
X100815303Y-46244529D01*
X100684372Y-44741437D02*
X100736833Y-44814074D01*
X100471411Y-50184491D02*
X100412997Y-50219956D01*
X100386621Y-45792281D02*
X100431051Y-45703974D01*
X100562241Y-47294347D02*
X100515828Y-47288462D01*
X99329706Y-44759855D02*
X99388592Y-44688952D01*
X100219489Y-47187546D02*
X100200721Y-47173673D01*
X98922752Y-47541655D02*
X99109913Y-47468966D01*
X99797173Y-44621480D02*
X99785701Y-44677730D01*
X99272356Y-45058998D02*
X99294645Y-45048083D01*
X100711820Y-48084353D02*
X100679943Y-48100743D01*
X99457431Y-46254665D02*
X99449191Y-46301080D01*
X102107095Y-46751395D02*
X102017508Y-46815737D01*
X99229004Y-48504609D02*
X99308945Y-48497206D01*
X102150396Y-45374224D02*
X102327203Y-45441251D01*
X98835509Y-47166826D02*
X98926651Y-47174866D01*
X100642530Y-48114333D02*
X100642530Y-48114333D01*
X100414947Y-46902265D02*
X100468197Y-46876782D01*
X101066788Y-48638064D02*
X101094273Y-48665270D01*
X101127314Y-49385344D02*
X101105996Y-49433970D01*
X99111696Y-46510380D02*
X99108042Y-46558111D01*
X99455130Y-45553956D02*
X99387053Y-45491538D01*
X100501734Y-45866657D02*
X100537804Y-45894435D01*
D11*
X105111905Y-45550000D02*
X104611905Y-45550000D01*
D10*
X97252881Y-45738316D02*
X97226887Y-45784571D01*
X99460159Y-46477474D02*
X99473558Y-46518428D01*
X100412997Y-50219956D02*
X100354439Y-50250467D01*
X97479818Y-46356124D02*
X97521399Y-46405981D01*
X102823281Y-47415723D02*
X102872945Y-47489543D01*
X100912450Y-48278799D02*
X100904748Y-48317562D01*
X100783494Y-44886430D02*
X100825119Y-44958269D01*
X99151351Y-46328597D02*
X99137842Y-46372599D01*
X97567303Y-46941429D02*
X97450097Y-47071728D01*
X101146417Y-49337252D02*
X101127314Y-49385344D01*
X99117934Y-46463527D02*
X99111696Y-46510380D01*
X100467703Y-44994565D02*
X100411853Y-44976708D01*
X100848606Y-46328505D02*
X100848606Y-46328505D01*
X98853575Y-49337349D02*
X98872679Y-49385441D01*
X98384835Y-45756999D02*
X98444746Y-45772663D01*
X102597344Y-46253808D02*
X102559801Y-46305318D01*
X99814066Y-48500315D02*
X99812571Y-48503993D01*
X99354142Y-50049371D02*
X99412124Y-50099157D01*
X100862475Y-45029351D02*
X100896325Y-45099437D01*
X100398762Y-46695945D02*
X100361549Y-46724883D01*
X100551956Y-48126124D02*
X100522573Y-48130814D01*
X99261245Y-46515652D02*
X99256446Y-46465207D01*
X99576907Y-48494605D02*
X99619381Y-48497458D01*
X99817491Y-48487147D02*
X99816551Y-48491907D01*
X99350126Y-47642626D02*
X99320882Y-47676299D01*
X98917488Y-49483162D02*
X98943115Y-49532659D01*
X100071417Y-44954965D02*
X100050664Y-44958479D01*
X100410993Y-48165408D02*
X100397864Y-48172444D01*
X100000049Y-47312587D02*
X99950790Y-47317165D01*
X99294435Y-47710262D02*
X99270966Y-47744309D01*
X99760579Y-44923495D02*
X99760198Y-44990836D01*
X102666360Y-45647054D02*
X102711316Y-45692315D01*
X99987264Y-44972536D02*
X99965738Y-44978431D01*
X99205430Y-47967700D02*
X99212366Y-47995005D01*
X100279708Y-48295620D02*
X100269404Y-48314460D01*
X99273687Y-44832198D02*
X99329706Y-44759855D01*
X98043649Y-48025251D02*
X98210219Y-47908929D01*
X100463705Y-46064595D02*
X100490432Y-46112399D01*
X99812571Y-48503993D02*
X99810941Y-48507339D01*
X99381982Y-47609451D02*
X99350126Y-47642626D01*
X100727476Y-47151339D02*
X100722368Y-47161793D01*
X99313552Y-47315798D02*
X99313084Y-47327758D01*
X100544868Y-45553863D02*
X100612945Y-45491445D01*
X103118555Y-47986993D02*
X103148841Y-48081157D01*
X100668513Y-46019396D02*
X100697408Y-46053922D01*
X97892903Y-46751486D02*
X97982490Y-46815829D01*
X99659634Y-48501358D02*
X99697065Y-48506346D01*
X101261303Y-47620827D02*
X101077245Y-47541561D01*
X100320597Y-46751239D02*
X100275969Y-46774847D01*
D11*
X104311905Y-45250000D02*
X104311905Y-45850000D01*
D10*
X100493713Y-48136636D02*
X100465448Y-48144041D01*
X99452803Y-47545415D02*
X99416269Y-47576978D01*
X100681303Y-45096116D02*
X100629151Y-45066892D01*
X100091352Y-46994633D02*
X100087606Y-46967928D01*
X99313084Y-47327758D02*
X99312136Y-47339818D01*
X99582549Y-44485335D02*
X99653004Y-44420639D01*
X99740163Y-47212334D02*
X99760765Y-47200507D01*
X100224622Y-48436433D02*
X100223759Y-48443407D01*
X99464930Y-45003480D02*
X99491551Y-45002229D01*
X99126676Y-46417588D02*
X99117934Y-46463527D01*
X96752073Y-48734902D02*
X96751251Y-48860789D01*
X99515003Y-44551648D02*
X99582549Y-44485335D01*
X100229210Y-48496945D02*
X100231951Y-48502711D01*
X97440202Y-46305406D02*
X97479818Y-46356124D01*
X99331444Y-46019487D02*
X99302549Y-46054014D01*
X99393326Y-47298776D02*
X99437747Y-47294487D01*
X102660240Y-49645418D02*
X102539250Y-49623182D01*
X102561154Y-48620701D02*
X102420188Y-48450126D01*
X98660888Y-45254984D02*
X98557253Y-45253660D01*
X100359784Y-48198525D02*
X100347556Y-48209064D01*
X99301786Y-47225932D02*
X99304629Y-47236842D01*
X101339110Y-45254891D02*
X101442746Y-45253568D01*
X100223759Y-48443407D02*
X100223189Y-48449997D01*
X99142545Y-47162291D02*
X99183192Y-47153869D01*
X100708830Y-47193515D02*
X100704949Y-47204216D01*
X101988520Y-45724238D02*
X101861557Y-45724395D01*
X102773111Y-45784481D02*
X102788640Y-45830772D01*
X101073350Y-47174774D02*
X100984701Y-47175499D01*
X99801618Y-48519639D02*
X99797806Y-48522771D01*
X96859200Y-49738918D02*
X96859200Y-49738918D01*
X102628793Y-48712015D02*
X102561154Y-48620701D01*
X100242790Y-48516320D02*
X100244683Y-48517752D01*
X99137842Y-46372599D02*
X99126676Y-46417588D01*
X99999971Y-45657332D02*
X99927832Y-45698577D01*
X100895268Y-48356563D02*
X100883947Y-48395786D01*
X99964110Y-44178920D02*
X100028845Y-44211842D01*
X98872679Y-49385441D02*
X98893996Y-49434068D01*
X99015301Y-47175590D02*
X99100975Y-47168693D01*
X99270966Y-47744309D02*
X99250659Y-47778236D01*
X100645812Y-50049273D02*
X100587816Y-50099059D01*
X100512440Y-46160104D02*
X100529793Y-46207544D01*
X100187867Y-45703536D02*
X100222152Y-45715718D01*
X99312404Y-45437137D02*
X99231839Y-45390443D01*
X100236883Y-50296265D02*
X100207401Y-50304477D01*
X99940416Y-50325645D02*
X99970128Y-50325782D01*
X100354555Y-45922245D02*
X100395832Y-45969352D01*
X100120686Y-46827530D02*
X100062010Y-46838492D01*
X103140802Y-49738826D02*
X103093272Y-49604903D01*
X100926556Y-48089044D02*
X100926773Y-48126405D01*
X100291087Y-47386576D02*
X100337269Y-47408356D01*
X100204980Y-44313113D02*
X100257987Y-44347605D01*
X99220258Y-47844899D02*
X99210531Y-47877225D01*
X100838237Y-48514601D02*
X100772386Y-48504051D01*
X99881919Y-44236702D02*
X99964110Y-44178920D01*
X97969593Y-49566496D02*
X98106608Y-49564964D01*
X99645443Y-50250564D02*
X99704133Y-50276030D01*
X99814675Y-45741790D02*
X99903742Y-45698378D01*
X100088920Y-45674944D02*
X100103590Y-45678587D01*
X99184654Y-46244620D02*
X99166935Y-46286091D01*
X99886139Y-47066177D02*
X99895417Y-47043774D01*
X100998691Y-46134289D02*
X100947725Y-46194110D01*
X100529683Y-50144162D02*
X100471411Y-50184491D01*
X99568947Y-45704066D02*
X99515980Y-45624696D01*
X99052277Y-46194211D02*
X99102311Y-46258902D01*
X100766319Y-47811738D02*
X100779752Y-47844803D01*
X99110257Y-47837498D02*
X99094077Y-47907488D01*
X99634828Y-48171289D02*
X99650133Y-48179288D01*
X99320042Y-48100852D02*
X99357454Y-48114443D01*
X97672797Y-45441340D02*
X97516880Y-45518334D01*
X100892903Y-46606589D02*
X100891147Y-46655966D01*
X100386621Y-45792189D02*
X100386621Y-45792189D01*
X99726376Y-44357606D02*
X99802678Y-44296278D01*
X99679392Y-46751349D02*
X99724020Y-46774957D01*
X99776164Y-44735915D02*
X99768703Y-44796176D01*
X99999971Y-45657332D02*
X99999971Y-45657332D01*
X98943115Y-49532659D02*
X98970837Y-49582492D01*
X97448393Y-45559801D02*
X97387095Y-45602840D01*
X100732807Y-45127332D02*
X100681303Y-45096116D01*
X100144065Y-44946969D02*
X100112371Y-44949629D01*
X102432695Y-46941331D02*
X102549901Y-47071631D01*
X99204734Y-47021202D02*
X99231349Y-47075716D01*
X100933805Y-49733251D02*
X100876464Y-49805099D01*
X100889732Y-47837397D02*
X100905911Y-47907387D01*
X101755081Y-45279892D02*
X101957942Y-45319619D01*
X102793048Y-45876793D02*
X102793048Y-45876793D01*
X99786748Y-48341261D02*
X99795291Y-48364335D01*
X100625347Y-44668760D02*
X100684372Y-44741437D01*
X100522573Y-48130814D02*
X100493713Y-48136636D01*
X100153208Y-45692433D02*
X100187867Y-45703536D01*
X100296440Y-44952413D02*
X100266731Y-44948967D01*
X100059418Y-50325546D02*
X100029705Y-50325683D01*
X101214846Y-49021097D02*
X101212343Y-49063605D01*
X99267128Y-47141052D02*
X99272513Y-47151449D01*
X99818656Y-48464041D02*
X99818803Y-48470457D01*
X99512686Y-46595404D02*
X99538285Y-46631095D01*
X100424325Y-48159105D02*
X100410993Y-48165408D01*
X100724687Y-46307554D02*
X100706942Y-46253766D01*
X99815401Y-48496292D02*
X99814066Y-48500315D01*
X99388680Y-45015300D02*
X99413516Y-45010064D01*
X101441749Y-47707744D02*
X101261303Y-47620827D01*
X100426065Y-45815499D02*
X100464461Y-45840333D01*
X102244988Y-46639857D02*
X102193877Y-46683107D01*
X98785146Y-49021194D02*
X98787650Y-49063702D01*
X101544364Y-47067548D02*
X101448064Y-47101786D01*
X99304629Y-47236842D02*
X99307103Y-47247826D01*
X99449191Y-46301080D02*
X99445408Y-46346734D01*
X99824040Y-46813268D02*
X99879302Y-46827640D01*
X99824822Y-45699422D02*
X99800421Y-45707653D01*
X100227731Y-46795542D02*
X100175948Y-46813158D01*
X100295735Y-50275933D02*
X100266328Y-50286747D01*
X99912383Y-46968047D02*
X99912383Y-46968047D01*
X98733194Y-45903348D02*
X98788524Y-45940957D01*
X99033387Y-45253572D02*
X99070350Y-45214753D01*
X101188637Y-48825796D02*
X101199174Y-48862338D01*
X99081550Y-48240388D02*
X99087539Y-48278900D01*
X100687785Y-47281142D02*
X100686897Y-47292445D01*
X100089092Y-50324035D02*
X100059418Y-50325546D01*
X101036340Y-48612643D02*
X101066788Y-48638064D01*
X99812423Y-48424884D02*
X99814485Y-48433709D01*
X97288683Y-45692404D02*
X97252881Y-45738316D01*
X100312396Y-48247006D02*
X100301213Y-48261949D01*
X99450958Y-46435096D02*
X99460159Y-46477474D01*
X100927435Y-45168290D02*
X100984493Y-45301338D01*
X99238576Y-49936111D02*
X99296293Y-49994993D01*
X101113668Y-49679483D02*
X100933777Y-49733342D01*
X99635804Y-45779934D02*
X99613335Y-45792281D01*
D11*
X95400000Y-48100000D02*
X95400000Y-47600000D01*
D10*
X100223189Y-48449997D02*
X100222890Y-48456213D01*
X100354802Y-44962543D02*
X100325792Y-44956953D01*
X100323853Y-48233248D02*
X100312396Y-48247006D01*
X99291158Y-47193624D02*
X99295039Y-47204325D01*
X100267331Y-45787219D02*
X100185313Y-45741678D01*
X100869800Y-47769108D02*
X100889732Y-47837397D01*
X99357454Y-48114443D02*
X99357454Y-48114443D01*
X99613376Y-45792372D02*
X99568947Y-45704066D01*
X100231951Y-48502711D02*
X100234837Y-48507453D01*
D11*
X104611905Y-45550000D02*
X104611905Y-46050000D01*
D10*
X99212366Y-47995005D02*
X99223925Y-48020539D01*
X99257113Y-46413570D02*
X99263360Y-46360979D01*
X99910744Y-50324133D02*
X99940416Y-50325645D01*
X100773772Y-46164832D02*
X100795527Y-46204128D01*
X101442746Y-45253568D02*
X101547057Y-45257498D01*
X99788657Y-48527609D02*
X99786443Y-48528243D01*
X99073161Y-48547861D02*
X99033589Y-48567526D01*
X100122832Y-45566304D02*
X100118207Y-45682417D01*
X101496060Y-45791527D02*
X101437597Y-45813935D01*
X97249808Y-45986851D02*
X97275370Y-46041297D01*
X97750816Y-45750506D02*
X97882221Y-45733390D01*
X99859575Y-44412994D02*
X99841781Y-44462921D01*
X101056876Y-49532561D02*
X101029153Y-49582394D01*
X96755461Y-48992137D02*
X96764910Y-49129178D01*
X99817337Y-48449839D02*
X99818176Y-48457173D01*
X98557253Y-45253660D02*
X98452942Y-45257590D01*
X100870718Y-48435218D02*
X100855519Y-48474843D01*
X100768615Y-47075623D02*
X100738532Y-47130617D01*
X100226772Y-48490076D02*
X100229210Y-48496945D01*
X102788640Y-45830772D02*
X102793048Y-45876793D01*
X100484543Y-44524238D02*
X100558992Y-44596281D01*
X99303221Y-47389097D02*
X99301498Y-47395378D01*
X102420188Y-48450126D02*
X102272061Y-48294727D01*
X99899930Y-44999894D02*
X99877572Y-45008345D01*
X98138447Y-45724496D02*
X98262950Y-45735002D01*
X101094273Y-48665270D02*
X101118835Y-48694198D01*
X99731077Y-48512462D02*
X99761069Y-48519748D01*
X97705221Y-46595426D02*
X97755011Y-46639949D01*
X100984493Y-45301347D02*
X100884543Y-45229516D01*
X99861000Y-45741212D02*
X99799409Y-45785074D01*
X101751022Y-49570248D02*
X101602582Y-49583477D01*
X100195997Y-47350277D02*
X100243936Y-47367147D01*
X99767381Y-48299849D02*
X99777432Y-48319787D01*
X100239223Y-47200374D02*
X100219489Y-47187546D01*
X98248977Y-49570350D02*
X98397417Y-49583579D01*
X99122719Y-45057434D02*
X99170204Y-44981032D01*
X100281198Y-47223065D02*
X100259825Y-47212199D01*
X99693773Y-48209012D02*
X99707434Y-48221037D01*
X99617766Y-47432374D02*
X99574067Y-47458240D01*
X98244918Y-45279984D02*
X98042058Y-45319710D01*
X99094077Y-47907488D02*
X99082166Y-47979063D01*
X99818196Y-48481995D02*
X99817491Y-48487147D01*
X97336556Y-47205291D02*
X97228326Y-47343975D01*
X100853986Y-45351058D02*
X100944420Y-45318862D01*
X102416489Y-49603236D02*
X102291239Y-49586505D01*
X100862115Y-46372508D02*
X100873281Y-46417496D01*
X100792660Y-47575607D02*
X100820747Y-47638098D01*
X99944009Y-44984948D02*
X99922074Y-44992099D01*
X101437597Y-45813935D02*
X101379887Y-45839930D01*
X100517110Y-46847734D02*
X100561574Y-46815361D01*
X100679943Y-48100743D02*
X100642530Y-48114333D01*
X100528716Y-48487046D02*
X100486658Y-48487060D01*
X97564838Y-46454909D02*
X97610026Y-46502838D01*
X102612905Y-45602751D02*
X102666360Y-45647054D01*
X97305549Y-48807619D02*
X97371206Y-48712108D01*
X99075039Y-48052107D02*
X99073432Y-48089144D01*
X99357454Y-48114443D02*
X99487452Y-48130066D01*
X99363287Y-46741703D02*
X99332849Y-46700773D01*
X99634666Y-45018294D02*
X99665442Y-45026309D01*
X100183015Y-47158711D02*
X100166471Y-47142616D01*
X101103340Y-46028688D02*
X101050569Y-46079196D01*
X99179241Y-47638198D02*
X99153356Y-47702737D01*
X99760198Y-44990836D02*
X99762461Y-45060820D01*
X100432193Y-46016857D02*
X100463705Y-46064595D01*
X101207023Y-48900205D02*
X101212226Y-48939331D01*
X100966400Y-48567426D02*
X101002891Y-48589075D01*
X99604157Y-45969462D02*
X99567795Y-46016967D01*
X99144470Y-48474944D02*
X99161705Y-48514748D01*
X101140512Y-48724780D02*
X101159346Y-48756951D01*
X100947725Y-46194110D02*
X100897692Y-46258801D01*
X103232009Y-48498486D02*
X103242278Y-48614148D01*
X99535495Y-45840425D02*
X99498223Y-45866748D01*
X99240289Y-48044097D02*
X99261642Y-48065473D01*
X98905717Y-48665370D02*
X98881155Y-48694297D01*
X100886565Y-46706112D02*
X100879076Y-46756991D01*
X100000031Y-47312496D02*
X100049289Y-47317073D01*
X100289446Y-45743248D02*
X100322379Y-45758561D01*
X98620116Y-45840030D02*
X98677052Y-45869754D01*
X100104572Y-47043653D02*
X100097040Y-47019860D01*
X100072156Y-45698467D02*
X100138989Y-45741103D01*
X100679150Y-47676205D02*
X100705592Y-47710167D01*
X97206949Y-45876885D02*
X97206949Y-45876885D01*
X99108810Y-46656061D02*
X99113393Y-46706207D01*
X100561574Y-46815361D02*
X100601475Y-46779898D01*
X99546731Y-45004046D02*
X99575332Y-45007211D01*
X99674125Y-47242231D02*
X99718791Y-47223202D01*
X100724634Y-46089694D02*
X100750115Y-46126675D01*
X99879302Y-46827640D02*
X99937978Y-46838602D01*
X100868601Y-46808566D02*
X100855060Y-46860801D01*
X100118212Y-45682427D02*
X100153208Y-45692433D01*
X99487452Y-48130066D02*
X99520989Y-48135606D01*
X100967578Y-49682805D02*
X100933805Y-49733251D01*
X99531885Y-47485840D02*
X99491403Y-47514967D01*
X101175374Y-48790645D02*
X101188637Y-48825796D01*
X100815303Y-46244529D02*
X100833022Y-46285999D01*
X97708763Y-49586610D02*
X97837217Y-49574020D01*
X96824464Y-48179252D02*
X96801568Y-48281318D01*
X100729057Y-47744215D02*
X100749360Y-47778140D01*
X99309198Y-47258887D02*
X99310902Y-47270026D01*
X99536284Y-46064705D02*
X99509557Y-46112509D01*
X100445528Y-48488068D02*
X100405828Y-48490139D01*
X97211358Y-45830863D02*
X97206949Y-45876885D01*
X99653004Y-44420639D02*
X99726376Y-44357606D01*
X99161742Y-48514739D02*
X99193489Y-48509353D01*
X99364397Y-45021768D02*
X99388680Y-45015300D01*
X96906729Y-49604995D02*
X96956747Y-49476343D01*
X101789779Y-47908834D02*
X101618077Y-47803388D01*
X98763194Y-45261869D02*
X98660888Y-45254984D01*
X98677052Y-45869754D02*
X98733194Y-45903348D01*
X101199174Y-48862338D02*
X101207023Y-48900205D01*
X99108042Y-46558111D02*
X99107054Y-46606683D01*
X102162783Y-49573916D02*
X102030407Y-49566392D01*
X99657575Y-45834765D02*
X99732657Y-45787331D01*
X100325864Y-47242092D02*
X100281198Y-47223065D01*
X99413516Y-45010064D02*
X99438925Y-45006108D01*
X99575332Y-45007211D02*
X99604637Y-45011944D01*
X97226965Y-45932024D02*
X97249808Y-45986851D01*
X99470196Y-46207654D02*
X99457431Y-46254665D01*
X96764910Y-49129178D02*
X96779802Y-49272144D01*
X100256025Y-45728962D02*
X100289446Y-45743248D01*
X99180987Y-49872817D02*
X99238576Y-49936111D01*
X100924949Y-48052007D02*
X100926556Y-48089044D01*
X100776065Y-48020437D02*
X100759699Y-48043994D01*
X97333640Y-45647143D02*
X97288683Y-45692404D01*
X98785172Y-48979748D02*
X98785146Y-49021194D01*
X99296293Y-49994993D02*
X99354142Y-50049371D01*
X102793053Y-45876701D02*
X102654668Y-45838736D01*
X101038804Y-45293454D02*
X101136484Y-45274528D01*
X96779802Y-49272144D02*
X96800344Y-49421268D01*
X99816115Y-48442022D02*
X99817337Y-48449839D01*
X99800421Y-45707653D02*
X99776214Y-45716420D01*
X99901587Y-47325125D02*
X99852622Y-47336261D01*
X100464461Y-45840333D02*
X100501734Y-45866657D01*
X100354439Y-50250467D02*
X100295735Y-50275933D01*
X100728589Y-46564550D02*
X100738742Y-46515534D01*
X102920458Y-47565573D02*
X102965614Y-47644045D01*
X98800818Y-48862436D02*
X98792968Y-48900303D01*
X99619381Y-48497458D02*
X99659634Y-48501358D01*
X100342413Y-45834652D02*
X100267331Y-45787219D01*
X103199658Y-49421175D02*
X103173261Y-49576689D01*
X99627548Y-47257941D02*
X99674125Y-47242231D01*
X99950790Y-47317165D02*
X99901587Y-47325125D01*
X100542557Y-46254555D02*
X100550798Y-46300970D01*
X99102311Y-46258902D02*
X99151392Y-46328606D01*
X102327203Y-45441251D02*
X102483120Y-45518245D01*
X99446019Y-46391461D02*
X99450958Y-46435096D01*
X100147455Y-47336170D02*
X100195997Y-47350277D01*
X99261475Y-47130708D02*
X99267128Y-47141052D01*
X99087539Y-48278900D02*
X99095241Y-48317663D01*
X100185313Y-45741678D02*
X100096246Y-45698267D01*
X100926773Y-48126405D02*
X100925536Y-48164075D01*
X101029153Y-49582394D02*
X100999374Y-49632497D01*
X99210531Y-47877225D02*
X99204695Y-47908604D01*
X100638027Y-45986148D02*
X100668513Y-46019396D01*
X101136484Y-45274528D02*
X101236805Y-45261776D01*
X99772258Y-46795652D02*
X99824040Y-46813268D01*
X100166471Y-47142616D02*
X100151184Y-47125347D01*
X99229088Y-45083755D02*
X99250510Y-45070905D01*
X99821965Y-50311468D02*
X99851519Y-50317034D01*
X99123524Y-49805200D02*
X99180987Y-49872817D01*
X99450354Y-44619535D02*
X99515003Y-44551648D01*
X100905911Y-47907387D02*
X100917823Y-47978962D01*
X97727938Y-48294821D02*
X97882720Y-48153523D01*
X98562406Y-45814036D02*
X98620116Y-45840030D01*
X99001312Y-46134390D02*
X99052277Y-46194211D01*
X99293045Y-46253883D02*
X99316709Y-46199852D01*
X100897692Y-46258801D02*
X100848610Y-46328505D01*
X99720589Y-48234225D02*
X99733199Y-48248637D01*
X102117278Y-48153428D02*
X101956349Y-48025155D01*
X100838283Y-48514647D02*
X100884135Y-48530146D01*
X100926828Y-48547761D02*
X100966400Y-48567426D01*
X103242278Y-48614148D02*
X103247927Y-48734807D01*
X98809941Y-49196935D02*
X98822167Y-49243030D01*
X99308733Y-47364246D02*
X99306248Y-47376618D01*
X99681596Y-45756725D02*
X99658563Y-45768080D01*
X101675774Y-45744392D02*
X101615169Y-45756898D01*
X99974542Y-45661631D02*
X99949262Y-45666518D01*
X97882720Y-48153523D02*
X98043649Y-48025251D01*
X100508900Y-46557683D02*
X100487303Y-46595294D01*
X97617428Y-45774548D02*
X97750816Y-45750506D01*
X99388592Y-44688952D02*
X99450354Y-44619535D01*
X99862735Y-47106983D02*
X99875212Y-47087232D01*
X99487688Y-48491879D02*
X99576907Y-48494605D01*
X102551607Y-45559712D02*
X102612905Y-45602751D01*
X100649911Y-47642533D02*
X100679150Y-47676205D01*
X99839146Y-46963939D02*
X99769680Y-46955082D01*
X102435165Y-46454819D02*
X102389976Y-46502747D01*
X100749360Y-47778140D02*
X100766319Y-47811738D01*
X99104720Y-48356664D02*
X99116042Y-48395887D01*
X100583777Y-47576886D02*
X100618059Y-47609358D01*
X96991790Y-47725287D02*
X96951965Y-47809339D01*
D11*
X94900000Y-46800000D02*
X95400000Y-46800000D01*
D10*
X100944420Y-45318862D02*
X101038804Y-45293454D01*
X98961195Y-45293548D02*
X98863515Y-45274621D01*
X100468203Y-47280639D02*
X100420147Y-47270533D01*
X100606663Y-47298641D02*
X100562241Y-47294347D01*
X102193877Y-46683107D02*
X102107095Y-46751395D01*
X98647670Y-47130025D02*
X98742355Y-47151777D01*
X99898702Y-44316676D02*
X99878596Y-44364293D01*
X99115853Y-48530246D02*
X99073161Y-48547861D01*
X98455637Y-47067640D02*
X98551937Y-47101877D01*
X99482878Y-46847853D02*
X99438414Y-46815480D01*
X100257987Y-44347605D02*
X100308301Y-44382415D01*
X100508651Y-47514874D02*
X100547246Y-47545322D01*
X103008208Y-47725191D02*
X103048033Y-47809242D01*
X100984701Y-47175499D02*
X100899026Y-47168602D01*
X99166935Y-46286091D02*
X99151351Y-46328597D01*
X98824616Y-48790744D02*
X98811354Y-48825894D01*
X99313091Y-47292548D02*
X99313555Y-47303935D01*
X100087606Y-46967928D02*
X100087606Y-46967928D01*
X100687853Y-47339715D02*
X100689298Y-47351876D01*
X100461704Y-46630985D02*
X100432168Y-46664591D01*
X100686434Y-47303835D02*
X100686436Y-47315696D01*
X103220199Y-49272050D02*
X103199658Y-49421175D01*
X101177826Y-49242933D02*
X101163268Y-49289760D01*
X100576241Y-45039998D02*
X100522462Y-45015775D01*
X101207350Y-49107109D02*
X101199906Y-49151542D01*
X99809903Y-48415532D02*
X99812423Y-48424884D01*
X98011484Y-45724339D02*
X98138447Y-45724496D01*
X102878907Y-49120584D02*
X102819572Y-49011676D01*
X99233695Y-47811834D02*
X99220258Y-47844899D01*
X100490432Y-46112399D02*
X100512440Y-46160104D01*
X99650133Y-48179288D02*
X99665085Y-48188200D01*
X100698490Y-47395276D02*
X100700354Y-47401586D01*
X100575643Y-46038560D02*
X100527174Y-45985931D01*
X99320882Y-47676299D02*
X99294435Y-47710262D01*
X99922074Y-44992099D02*
X99899930Y-44999894D01*
X99294645Y-45048083D02*
X99317401Y-45038208D01*
X97241935Y-48907461D02*
X97305549Y-48807619D01*
X100761400Y-49936011D02*
X100703672Y-49994893D01*
X99810941Y-48507339D02*
X99809199Y-48510370D01*
X100700354Y-47401586D02*
X100700354Y-47401586D01*
X99275322Y-46089786D02*
X99249842Y-46126767D01*
X102758065Y-48907368D02*
X102694451Y-48807526D01*
X99472812Y-45986046D02*
X99527765Y-45934359D01*
X100933805Y-49733251D02*
X100933805Y-49733251D01*
X100249737Y-48356431D02*
X100240392Y-48379675D01*
X99531792Y-46876900D02*
X99482878Y-46847853D01*
X101156983Y-45982623D02*
X101103340Y-46028688D01*
X99484161Y-47288604D02*
X99531786Y-47280782D01*
X99470242Y-50144260D02*
X99528500Y-50184588D01*
X96826741Y-49576782D02*
X96859200Y-49738918D01*
X99877572Y-45008345D02*
X99854998Y-45017463D01*
X99816551Y-48491907D02*
X99815401Y-48496292D01*
X97275370Y-46041297D02*
X97303544Y-46095293D01*
X99799409Y-45785074D02*
X99742995Y-45829995D01*
X97460753Y-49623287D02*
X97583513Y-49603341D01*
X100368062Y-48493340D02*
X100332732Y-48497739D01*
X97176717Y-47415819D02*
X97127053Y-47489640D01*
X100686434Y-47303835D02*
X100686434Y-47303835D01*
X100629151Y-45066892D02*
X100576241Y-45039998D01*
X99613335Y-45792281D02*
X99573892Y-45815590D01*
X98811354Y-48825894D02*
X98800818Y-48862436D01*
X100667138Y-46700654D02*
X100692674Y-46657348D01*
X99912383Y-46968047D02*
X99839146Y-46963939D01*
X99613335Y-45792281D02*
X99613335Y-45792281D01*
X102539250Y-49623182D02*
X102416489Y-49603236D01*
X97402658Y-46253896D02*
X97440202Y-46305406D01*
X101163268Y-49289760D02*
X101146417Y-49337252D01*
X100074204Y-45671498D02*
X100088920Y-45674944D01*
X99825354Y-44514217D02*
X99810438Y-44567022D01*
X99312136Y-47339818D02*
X99310690Y-47351980D01*
X97837217Y-49574020D02*
X97969593Y-49566496D01*
X99792450Y-50304574D02*
X99821965Y-50311468D01*
X100738742Y-46515534D02*
X100743541Y-46465089D01*
X100222152Y-45715718D02*
X100256025Y-45728962D01*
X100738345Y-48065368D02*
X100711820Y-48084353D01*
X100612945Y-45491445D02*
X100687594Y-45437042D01*
X98452942Y-45257590D02*
X98244918Y-45279984D01*
X101002891Y-48589075D02*
X101036340Y-48612643D01*
X101956349Y-48025155D02*
X101789779Y-47908834D01*
X100395832Y-45969352D02*
X100432193Y-46016857D01*
D11*
X95700000Y-47100000D02*
X95700000Y-46500000D01*
D10*
X99074453Y-48164176D02*
X99077209Y-48202142D01*
X99696985Y-45036036D02*
X99729317Y-45047524D01*
X99412124Y-50099157D02*
X99470242Y-50144260D01*
X100125580Y-45191913D02*
X100127176Y-45276006D01*
X99964110Y-44178920D02*
X99919750Y-44270003D01*
X97121093Y-49120676D02*
X97180429Y-49011769D01*
X100271391Y-48510403D02*
X100246386Y-48518804D01*
X99912168Y-46967928D02*
X100087445Y-46967937D01*
X100904748Y-48317562D02*
X100895268Y-48356563D01*
X99147198Y-45143628D02*
X99187426Y-45112093D01*
X100386621Y-45792189D02*
X100426065Y-45815499D01*
X99346405Y-46145816D02*
X99382245Y-46092011D01*
X99268042Y-47457336D02*
X99237101Y-47515382D01*
X102193877Y-46683107D02*
X102193877Y-46683107D01*
X100736627Y-46360862D02*
X100724687Y-46307554D01*
X100549031Y-46434987D02*
X100539830Y-46477364D01*
X100372440Y-47257799D02*
X100325864Y-47242092D01*
X102559801Y-46305318D02*
X102520185Y-46356036D01*
X100308297Y-45875700D02*
X100354555Y-45922245D01*
X100704949Y-47204216D02*
X100701403Y-47214985D01*
X99307313Y-46657466D02*
X99286792Y-46612019D01*
X101618077Y-47803388D02*
X101441749Y-47707744D01*
X100420147Y-47270533D02*
X100372440Y-47257799D01*
X102030407Y-49566392D02*
X101893392Y-49564861D01*
X99473558Y-46518428D02*
X99491088Y-46557793D01*
X99704892Y-45745876D02*
X99681596Y-45756725D01*
X100275969Y-46774847D02*
X100227731Y-46795542D01*
X100028845Y-44211842D02*
X100090504Y-44245202D01*
X98997167Y-45294051D02*
X99033387Y-45253572D01*
X99313582Y-47303954D02*
X99393326Y-47298776D01*
X99036211Y-45213988D02*
X99078058Y-45135101D01*
X96951965Y-47809339D02*
X96915114Y-47896529D01*
X99528500Y-50184588D02*
X99586899Y-50220053D01*
X100437851Y-48153481D02*
X100424325Y-48159105D01*
X99927832Y-45698577D02*
X99861000Y-45741212D01*
X99302549Y-46054014D02*
X99275322Y-46089786D01*
X100736833Y-44814074D02*
X100783494Y-44886430D01*
X99802678Y-44296278D02*
X99881919Y-44236702D01*
X100783775Y-45160197D02*
X100732807Y-45127332D01*
X97755011Y-46639949D02*
X97806121Y-46683199D01*
X100091984Y-44952019D02*
X100071417Y-44954965D01*
X103140802Y-49738826D02*
X103140802Y-49738826D01*
X99586899Y-50220053D02*
X99645443Y-50250564D01*
X99312203Y-47281245D02*
X99313091Y-47292548D01*
X98949434Y-46079297D02*
X99001312Y-46134390D01*
X99204430Y-46204219D02*
X99184654Y-46244620D01*
X100553970Y-46391351D02*
X100549031Y-46434987D01*
X102773034Y-45931934D02*
X102750192Y-45986762D01*
X100243936Y-47367147D02*
X100291087Y-47386576D01*
X96881443Y-47987089D02*
X96851158Y-48081253D01*
X100818453Y-46967109D02*
X100795228Y-47021108D01*
X100465448Y-48144041D02*
X100437851Y-48153481D01*
X100098492Y-47325033D02*
X100147455Y-47336170D01*
X99761069Y-48519748D02*
X99786443Y-48528243D01*
X100425995Y-47458148D02*
X100468173Y-47485748D01*
X100354783Y-45774880D02*
X100386621Y-45792189D01*
X98381921Y-47803484D02*
X98558249Y-47707840D01*
X102483120Y-45518245D02*
X102551607Y-45559712D01*
X100231385Y-48404500D02*
X100229158Y-48413108D01*
X99527765Y-45934359D02*
X99589315Y-45883853D01*
X99487549Y-46160214D02*
X99470196Y-46207654D01*
X99491403Y-47514967D02*
X99452803Y-47545415D01*
X102517789Y-45804271D02*
X102382576Y-45774447D01*
X98444746Y-45772663D02*
X98503943Y-45791627D01*
X101118835Y-48694198D02*
X101140512Y-48724780D01*
X101214820Y-48979650D02*
X101214846Y-49021097D01*
X100705592Y-47710167D02*
X100729057Y-47744215D01*
X97656856Y-46549700D02*
X97705221Y-46595426D01*
X100613603Y-48489731D02*
X100528716Y-48487046D01*
X100234837Y-48507453D02*
X100237710Y-48511249D01*
X99964110Y-44178920D02*
X99964110Y-44178920D01*
X100059445Y-45668249D02*
X100074204Y-45671498D01*
X99109913Y-47468966D02*
X99299671Y-47401778D01*
X99416269Y-47576978D02*
X99381982Y-47609451D01*
X99573892Y-45815590D02*
X99535495Y-45840425D01*
X100999374Y-49632497D02*
X100967578Y-49682805D01*
X99250510Y-45070905D02*
X99272356Y-45058998D01*
X100537804Y-45894435D02*
X100572595Y-45923633D01*
X99810438Y-44567022D02*
X99797173Y-44621480D01*
X100848606Y-46328505D02*
X100862115Y-46372508D01*
X100240414Y-48514179D02*
X100242790Y-48516320D01*
X99113393Y-46706207D02*
X99120882Y-46757086D01*
X99728436Y-45735538D02*
X99704892Y-45745876D01*
X99073432Y-48089144D02*
X99073215Y-48126505D01*
X99509557Y-46112509D02*
X99487549Y-46160214D01*
X101105996Y-49433970D02*
X101082504Y-49483065D01*
X98074400Y-46875919D02*
X98168151Y-46931452D01*
X98926651Y-47174866D02*
X99015301Y-47175590D01*
X97009189Y-49352829D02*
X97063992Y-49234318D01*
X100266328Y-50286747D02*
X100236883Y-50296265D01*
X102294780Y-46595335D02*
X102244988Y-46639857D01*
X99308945Y-48497206D02*
X99396770Y-48492854D01*
X100890084Y-47468873D02*
X100700327Y-47401686D01*
X100687594Y-45437042D02*
X100768159Y-45390349D01*
X99120882Y-46757086D02*
X99131357Y-46808661D01*
X100857455Y-47162200D02*
X100816808Y-47153777D01*
X96956747Y-49476343D02*
X97009189Y-49352829D01*
X100883947Y-48395786D02*
X100870718Y-48435218D01*
X100550798Y-46300970D02*
X100554580Y-46346624D01*
X99306248Y-47376618D02*
X99303221Y-47389097D01*
X99970128Y-50325782D02*
X99999880Y-50324535D01*
X100547246Y-47545322D02*
X100583777Y-47576886D01*
X99032411Y-49682904D02*
X99066184Y-49733351D01*
X98552645Y-49605578D02*
X98715377Y-49637270D01*
X100527174Y-45985931D02*
X100472222Y-45934245D01*
X100526431Y-46518318D02*
X100508900Y-46557683D01*
X100322379Y-45758561D02*
X100354783Y-45774880D01*
X97516880Y-45518334D02*
X97448393Y-45559801D01*
X100636701Y-46741584D02*
X100667138Y-46700654D01*
X99438414Y-46815480D02*
X99398513Y-46780017D01*
X99818803Y-48470457D02*
X99818642Y-48476437D01*
X100884543Y-45229516D02*
X100783775Y-45160197D01*
X99427361Y-45923725D02*
X99393928Y-45954308D01*
X99937978Y-46838602D02*
X100000003Y-46845989D01*
X100335576Y-48220619D02*
X100323853Y-48233248D01*
X100200721Y-47173673D02*
X100183015Y-47158711D01*
X99803022Y-48389071D02*
X99809903Y-48415532D01*
X97610026Y-46502838D02*
X97656856Y-46549700D01*
X102272061Y-48294727D02*
X102117278Y-48153428D01*
X99161590Y-46913756D02*
X99181508Y-46967204D01*
X102694451Y-48807526D02*
X102628793Y-48712015D01*
X100103590Y-45678587D02*
X100118212Y-45682427D01*
X99732657Y-45787331D02*
X99814675Y-45741790D01*
X100738514Y-47130599D02*
X100732861Y-47140942D01*
X100029724Y-44962571D02*
X100008592Y-44967254D01*
X100014938Y-45659683D02*
X100029809Y-45662341D01*
X99567795Y-46016967D02*
X99536284Y-46064705D01*
X100539830Y-46477364D02*
X100526431Y-46518318D01*
X100361549Y-46724883D02*
X100320597Y-46751239D01*
X102819572Y-49011676D02*
X102758065Y-48907368D01*
X102965614Y-47644045D02*
X103008208Y-47725191D01*
X100891147Y-46655966D02*
X100886565Y-46706112D01*
X100529793Y-46207544D02*
X100542557Y-46254555D01*
X101190052Y-49196839D02*
X101177826Y-49242933D01*
X99313555Y-47303935D02*
X99313555Y-47303935D01*
X100918439Y-48240287D02*
X100912450Y-48278799D01*
X99745227Y-48264337D02*
X99756633Y-48281387D01*
X100917823Y-47978962D02*
X100924949Y-48052007D01*
X100701403Y-47214985D02*
X100698203Y-47225824D01*
X99078058Y-45135101D02*
X99122719Y-45057434D01*
X100689298Y-47351876D02*
X100691255Y-47364141D01*
X99574067Y-47458240D02*
X99531885Y-47485840D01*
X100696168Y-48495580D02*
X100613603Y-48489731D01*
X100325792Y-44956953D02*
X100296440Y-44952413D01*
X99924095Y-45671978D02*
X99899053Y-45678004D01*
X99707434Y-48221037D02*
X99720589Y-48234225D01*
X100200579Y-45784964D02*
X100256994Y-45829885D01*
X100581792Y-48122115D02*
X100551956Y-48126124D01*
X99780499Y-47187678D02*
X99799268Y-47173803D01*
X101379887Y-45839930D02*
X101322951Y-45869653D01*
X100112371Y-44949629D02*
X100091984Y-44952019D01*
X100124776Y-47087110D02*
X100113850Y-47066055D01*
X97063992Y-49234318D02*
X97121093Y-49120676D01*
X100087606Y-46967928D02*
X100160843Y-46963820D01*
X98997098Y-48589176D02*
X98963649Y-48612743D01*
X101861557Y-45724395D02*
X101737054Y-45734901D01*
X98397417Y-49583579D02*
X98552645Y-49605578D01*
X97226887Y-45784571D02*
X97211358Y-45830863D01*
X100308301Y-44382415D02*
X100401234Y-44452870D01*
X98551937Y-47101877D02*
X98647670Y-47130025D01*
X99361929Y-45986240D02*
X99331444Y-46019487D01*
X100029809Y-45662341D02*
X100044645Y-45665196D01*
X102193877Y-46683089D02*
X102432695Y-46941331D01*
X100683278Y-46199736D02*
X100653582Y-46145700D01*
X99809199Y-48510370D02*
X99805482Y-48515545D01*
X100522462Y-45015775D02*
X100467703Y-44994565D01*
X99919750Y-44270003D02*
X99898702Y-44316676D01*
X99288165Y-48084460D02*
X99320042Y-48100852D01*
X99881112Y-50321259D02*
X99910744Y-50324133D01*
X102117783Y-45733289D02*
X101988520Y-45724238D01*
X99181508Y-46967204D02*
X99204734Y-47021202D01*
X99237101Y-47515382D02*
X99207328Y-47575708D01*
X99000616Y-49632596D02*
X99032411Y-49682904D01*
X100151184Y-47125347D02*
X100137253Y-47106859D01*
X101602582Y-49583477D02*
X101447353Y-49605476D01*
X100300340Y-48503404D02*
X100271391Y-48510403D01*
X99437747Y-47294487D02*
X99484161Y-47288604D01*
X100484018Y-45624604D02*
X100544868Y-45553863D01*
X100795308Y-47908505D02*
X100797065Y-47938732D01*
D11*
X95400000Y-48100000D02*
X95400000Y-48600000D01*
D10*
X99965738Y-44978431D02*
X99944009Y-44984948D01*
X102291239Y-49586505D02*
X102162783Y-49573916D01*
X96800344Y-49421268D02*
X96826741Y-49576782D01*
X103093272Y-49604903D02*
X103043254Y-49476252D01*
X100090504Y-44245202D02*
X100149184Y-44278969D01*
X99208067Y-45097500D02*
X99229088Y-45083755D01*
X100558992Y-44596281D02*
X100625347Y-44668760D01*
X102936008Y-49234227D02*
X102878907Y-49120584D01*
X99704099Y-46941712D02*
X99642515Y-46924067D01*
X97521399Y-46405981D02*
X97564838Y-46454909D01*
X99852622Y-47336261D02*
X99804079Y-47350368D01*
X99848804Y-47125472D02*
X99862735Y-47106983D01*
X99518811Y-45002401D02*
X99546731Y-45004046D01*
X100244683Y-48517752D02*
X100246386Y-48518804D01*
X97206949Y-45876885D02*
X97226965Y-45932024D01*
X100794566Y-47967600D02*
X100787627Y-47994904D01*
X100049289Y-47317073D02*
X100098492Y-47325033D01*
X98822167Y-49243030D02*
X98836724Y-49289856D01*
X99794243Y-48525063D02*
X99791128Y-48526635D01*
X99313555Y-47303935D02*
X99313552Y-47315798D01*
X98210219Y-47908929D02*
X98381921Y-47803484D01*
X99903742Y-45698378D02*
X99999971Y-45657332D01*
X99818176Y-48457173D02*
X99818656Y-48464041D01*
D12*
G36*
X114342365Y-55500000D02*
G01*
X114375867Y-55500376D01*
X114404664Y-55501091D01*
X114425374Y-55502121D01*
X114431640Y-55502746D01*
X114434617Y-55503440D01*
X114435126Y-55504304D01*
X114435594Y-55506258D01*
X114436414Y-55513549D01*
X114437085Y-55525553D01*
X114437616Y-55542510D01*
X114438288Y-55592240D01*
X114438497Y-55664659D01*
X114438497Y-55823409D01*
X114411334Y-55820587D01*
X114388703Y-55818861D01*
X114362452Y-55817891D01*
X114333918Y-55817641D01*
X114304442Y-55818073D01*
X114275363Y-55819150D01*
X114248019Y-55820835D01*
X114223752Y-55823090D01*
X114203900Y-55825878D01*
X114182421Y-55829919D01*
X114161235Y-55834502D01*
X114140327Y-55839636D01*
X114119686Y-55845325D01*
X114099296Y-55851577D01*
X114079145Y-55858397D01*
X114059220Y-55865792D01*
X114039506Y-55873768D01*
X114019991Y-55882331D01*
X114000660Y-55891487D01*
X113981502Y-55901242D01*
X113962501Y-55911603D01*
X113943645Y-55922576D01*
X113924921Y-55934167D01*
X113906314Y-55946383D01*
X113887811Y-55959228D01*
X113880033Y-55965023D01*
X113871105Y-55972230D01*
X113861213Y-55980667D01*
X113850538Y-55990152D01*
X113827573Y-56011529D01*
X113803674Y-56034899D01*
X113780304Y-56058799D01*
X113758926Y-56081764D01*
X113749442Y-56092438D01*
X113741005Y-56102331D01*
X113733798Y-56111258D01*
X113728003Y-56119037D01*
X113715285Y-56137395D01*
X113703188Y-56155839D01*
X113691704Y-56174385D01*
X113680825Y-56193054D01*
X113670543Y-56211863D01*
X113660851Y-56230831D01*
X113651740Y-56249978D01*
X113643204Y-56269320D01*
X113635234Y-56288878D01*
X113627823Y-56308669D01*
X113620963Y-56328712D01*
X113614646Y-56349026D01*
X113608864Y-56369629D01*
X113603610Y-56390541D01*
X113598875Y-56411779D01*
X113594653Y-56433362D01*
X113592496Y-56445540D01*
X113590761Y-56457169D01*
X113589407Y-56468987D01*
X113588391Y-56481736D01*
X113587673Y-56496155D01*
X113587212Y-56512985D01*
X113586965Y-56532964D01*
X113586892Y-56556834D01*
X113586965Y-56580704D01*
X113587212Y-56600683D01*
X113587673Y-56617512D01*
X113588391Y-56631932D01*
X113589407Y-56644680D01*
X113590761Y-56656499D01*
X113592496Y-56668128D01*
X113594653Y-56680306D01*
X113598941Y-56701967D01*
X113603740Y-56723301D01*
X113609055Y-56744321D01*
X113614894Y-56765039D01*
X113621261Y-56785468D01*
X113628164Y-56805619D01*
X113635609Y-56825507D01*
X113643601Y-56845142D01*
X113652147Y-56864537D01*
X113661254Y-56883705D01*
X113670926Y-56902657D01*
X113681172Y-56921408D01*
X113691996Y-56939968D01*
X113703405Y-56958350D01*
X113715405Y-56976567D01*
X113728003Y-56994631D01*
X113733205Y-57001672D01*
X113739344Y-57009486D01*
X113753971Y-57026949D01*
X113770971Y-57046057D01*
X113789430Y-57065848D01*
X113808436Y-57085358D01*
X113827073Y-57103623D01*
X113844429Y-57119680D01*
X113852340Y-57126580D01*
X113859589Y-57132567D01*
X113878970Y-57147655D01*
X113898862Y-57162087D01*
X113919240Y-57175852D01*
X113940078Y-57188940D01*
X113961350Y-57201340D01*
X113983030Y-57213040D01*
X114005092Y-57224030D01*
X114027511Y-57234300D01*
X114050261Y-57243837D01*
X114073316Y-57252632D01*
X114096650Y-57260674D01*
X114120237Y-57267951D01*
X114144051Y-57274453D01*
X114168067Y-57280170D01*
X114192259Y-57285089D01*
X114216600Y-57289200D01*
X114235173Y-57291480D01*
X114257164Y-57293280D01*
X114281595Y-57294583D01*
X114307485Y-57295374D01*
X114333854Y-57295636D01*
X114359723Y-57295352D01*
X114384112Y-57294506D01*
X114406042Y-57293081D01*
X114438497Y-57290259D01*
X114438497Y-57607759D01*
X114425445Y-57610581D01*
X114419012Y-57611483D01*
X114409871Y-57612209D01*
X114384859Y-57613150D01*
X114353207Y-57613446D01*
X114317715Y-57613139D01*
X114281181Y-57612269D01*
X114246405Y-57610879D01*
X114216183Y-57609009D01*
X114193317Y-57606700D01*
X114151926Y-57600325D01*
X114111227Y-57592576D01*
X114071217Y-57583452D01*
X114031894Y-57572950D01*
X113993255Y-57561069D01*
X113955297Y-57547808D01*
X113918019Y-57533165D01*
X113881417Y-57517139D01*
X113845489Y-57499728D01*
X113810233Y-57480930D01*
X113775645Y-57460745D01*
X113741723Y-57439170D01*
X113708464Y-57416203D01*
X113675867Y-57391844D01*
X113643928Y-57366091D01*
X113612645Y-57338942D01*
X113583184Y-57311191D01*
X113554761Y-57282095D01*
X113527420Y-57251733D01*
X113501206Y-57220183D01*
X113476163Y-57187523D01*
X113452338Y-57153831D01*
X113429775Y-57119185D01*
X113408519Y-57083663D01*
X113388614Y-57047344D01*
X113370107Y-57010304D01*
X113353041Y-56972623D01*
X113337462Y-56934378D01*
X113323414Y-56895647D01*
X113310943Y-56856508D01*
X113300094Y-56817040D01*
X113290911Y-56777320D01*
X113285125Y-56748775D01*
X113280405Y-56722331D01*
X113276661Y-56697077D01*
X113273802Y-56672104D01*
X113271736Y-56646503D01*
X113270373Y-56619364D01*
X113269622Y-56589777D01*
X113269392Y-56556834D01*
X113269622Y-56523891D01*
X113270373Y-56494304D01*
X113271736Y-56467165D01*
X113273802Y-56441564D01*
X113276661Y-56416591D01*
X113280405Y-56391337D01*
X113285125Y-56364893D01*
X113290911Y-56336348D01*
X113301769Y-56289887D01*
X113314736Y-56244078D01*
X113329773Y-56198985D01*
X113346838Y-56154673D01*
X113365891Y-56111206D01*
X113386893Y-56068650D01*
X113409803Y-56027067D01*
X113434580Y-55986525D01*
X113461185Y-55947086D01*
X113489576Y-55908815D01*
X113519714Y-55871777D01*
X113551559Y-55836037D01*
X113585070Y-55801660D01*
X113620206Y-55768709D01*
X113656928Y-55737249D01*
X113695195Y-55707345D01*
X113724401Y-55686258D01*
X113754202Y-55666257D01*
X113784588Y-55647347D01*
X113815553Y-55629530D01*
X113847085Y-55612811D01*
X113879177Y-55597194D01*
X113911820Y-55582681D01*
X113945005Y-55569277D01*
X113978724Y-55556985D01*
X114012967Y-55545808D01*
X114047726Y-55535751D01*
X114082991Y-55526817D01*
X114118755Y-55519009D01*
X114155008Y-55512331D01*
X114191742Y-55506788D01*
X114228947Y-55502381D01*
X114247450Y-55501153D01*
X114274775Y-55500364D01*
X114307541Y-55499988D01*
X114342365Y-55500000D01*
G37*
D10*
X102711316Y-45692315D02*
X102747118Y-45738226D01*
X101925598Y-46875828D02*
X101831848Y-46931361D01*
X99520989Y-48135606D02*
X99554330Y-48142798D01*
X100742874Y-46413453D02*
X100736627Y-46360862D01*
X103084884Y-47896433D02*
X103118555Y-47986993D01*
X102793048Y-45876793D02*
X102773034Y-45931934D01*
X100177881Y-50311371D02*
X100148323Y-50316936D01*
X99193489Y-48509353D02*
X99229004Y-48504609D01*
X100896325Y-45099437D02*
X100927435Y-45168290D01*
X100240392Y-48379675D02*
X100231385Y-48404500D01*
X99763461Y-44858656D02*
X99760579Y-44923495D01*
X96851158Y-48081253D02*
X96824464Y-48179252D01*
X96767991Y-48498582D02*
X96757722Y-48614244D01*
X99207328Y-47575708D02*
X99179241Y-47638198D01*
X99187426Y-45112093D02*
X99208067Y-45097500D01*
X99531786Y-47280782D02*
X99579842Y-47270676D01*
X100222890Y-48456213D02*
X100222844Y-48462065D01*
X98893996Y-49434068D02*
X98917488Y-49483162D01*
X99814485Y-48433709D02*
X99816115Y-48442022D01*
X99077209Y-48202142D02*
X99081550Y-48240388D01*
X99398513Y-46780017D02*
X99363287Y-46741703D01*
X100899026Y-47168602D02*
X100857455Y-47162200D01*
X99295039Y-47204325D02*
X99298585Y-47215094D01*
X100148323Y-50316936D02*
X100118727Y-50321161D01*
X99108230Y-45177976D02*
X99147198Y-45143628D01*
X99498223Y-45866748D02*
X99462152Y-45894527D01*
X101211479Y-45940857D02*
X101156983Y-45982623D01*
X99491088Y-46557793D02*
X99512686Y-46595404D01*
X100332732Y-48497739D02*
X100300340Y-48503404D01*
X99491551Y-45002229D02*
X99518811Y-45002401D01*
X100384947Y-48180272D02*
X100372251Y-48188947D01*
X100653582Y-46145700D02*
X100617741Y-46091896D01*
X101448064Y-47101786D02*
X101352332Y-47129933D01*
D12*
G36*
X116163696Y-55499355D02*
G01*
X116184687Y-55499975D01*
X116201680Y-55500970D01*
X116230608Y-55503087D01*
X116230608Y-55823056D01*
X116210500Y-55820587D01*
X116204907Y-55819960D01*
X116196847Y-55819407D01*
X116174825Y-55818558D01*
X116147447Y-55818106D01*
X116117720Y-55818117D01*
X116097658Y-55818205D01*
X116080259Y-55818487D01*
X116065010Y-55818992D01*
X116051397Y-55819749D01*
X116038910Y-55820787D01*
X116027034Y-55822136D01*
X116015257Y-55823823D01*
X116003067Y-55825878D01*
X115981472Y-55829981D01*
X115960199Y-55834618D01*
X115939232Y-55839797D01*
X115918555Y-55845524D01*
X115898150Y-55851804D01*
X115878002Y-55858645D01*
X115858093Y-55866053D01*
X115838408Y-55874033D01*
X115818929Y-55882591D01*
X115799641Y-55891735D01*
X115780526Y-55901470D01*
X115761568Y-55911802D01*
X115742751Y-55922738D01*
X115724058Y-55934283D01*
X115705473Y-55946445D01*
X115686978Y-55959228D01*
X115679199Y-55965023D01*
X115670272Y-55972230D01*
X115660380Y-55980667D01*
X115649705Y-55990152D01*
X115626740Y-56011529D01*
X115602840Y-56034899D01*
X115579470Y-56058799D01*
X115558093Y-56081764D01*
X115548609Y-56092438D01*
X115540171Y-56102331D01*
X115532964Y-56111258D01*
X115527170Y-56119037D01*
X115517425Y-56132960D01*
X115508036Y-56146950D01*
X115499002Y-56161006D01*
X115490321Y-56175128D01*
X115481994Y-56189317D01*
X115474019Y-56203571D01*
X115466398Y-56217892D01*
X115459128Y-56232278D01*
X115452209Y-56246731D01*
X115445642Y-56261250D01*
X115439424Y-56275835D01*
X115433557Y-56290487D01*
X115428039Y-56305204D01*
X115422869Y-56319988D01*
X115418048Y-56334838D01*
X115413575Y-56349753D01*
X115411135Y-56358205D01*
X115408873Y-56366235D01*
X115406834Y-56373653D01*
X115405064Y-56380269D01*
X115403608Y-56385893D01*
X115402512Y-56390334D01*
X115401821Y-56393403D01*
X115401642Y-56394363D01*
X115401581Y-56394909D01*
X115407233Y-56395552D01*
X115423717Y-56396149D01*
X115486336Y-56397158D01*
X115710261Y-56398084D01*
X116018942Y-56398084D01*
X116018942Y-56715584D01*
X115710261Y-56715584D01*
X115583746Y-56715832D01*
X115486336Y-56716510D01*
X115423717Y-56717519D01*
X115407233Y-56718116D01*
X115403009Y-56718433D01*
X115401581Y-56718759D01*
X115401821Y-56720265D01*
X115402512Y-56723334D01*
X115405064Y-56733399D01*
X115408873Y-56747433D01*
X115413575Y-56763914D01*
X115418114Y-56778900D01*
X115423000Y-56793825D01*
X115428230Y-56808685D01*
X115433805Y-56823479D01*
X115439722Y-56838202D01*
X115445982Y-56852852D01*
X115452583Y-56867425D01*
X115459524Y-56881919D01*
X115466804Y-56896330D01*
X115474422Y-56910655D01*
X115482377Y-56924891D01*
X115490668Y-56939036D01*
X115499294Y-56953085D01*
X115508253Y-56967036D01*
X115517546Y-56980886D01*
X115527170Y-56994631D01*
X115532372Y-57001672D01*
X115538510Y-57009486D01*
X115553137Y-57026949D01*
X115570138Y-57046057D01*
X115588597Y-57065848D01*
X115607602Y-57085358D01*
X115626240Y-57103623D01*
X115643595Y-57119680D01*
X115651507Y-57126580D01*
X115658756Y-57132567D01*
X115678132Y-57147655D01*
X115698014Y-57162087D01*
X115718376Y-57175852D01*
X115739195Y-57188940D01*
X115760445Y-57201340D01*
X115782103Y-57213040D01*
X115804145Y-57224030D01*
X115826546Y-57234300D01*
X115849281Y-57243837D01*
X115872328Y-57252632D01*
X115895660Y-57260674D01*
X115919255Y-57267951D01*
X115943087Y-57274453D01*
X115967132Y-57280170D01*
X115991367Y-57285089D01*
X116015767Y-57289200D01*
X116034188Y-57291480D01*
X116056176Y-57293280D01*
X116080637Y-57294583D01*
X116106475Y-57295374D01*
X116132593Y-57295636D01*
X116157898Y-57295352D01*
X116181292Y-57294506D01*
X116201680Y-57293081D01*
X116230608Y-57290612D01*
X116230608Y-57449362D01*
X116230582Y-57498743D01*
X116230539Y-57519081D01*
X116230465Y-57536768D01*
X116230354Y-57551993D01*
X116230199Y-57564945D01*
X116229992Y-57575813D01*
X116229867Y-57580524D01*
X116229726Y-57584784D01*
X116229569Y-57588618D01*
X116229394Y-57592048D01*
X116229201Y-57595099D01*
X116228989Y-57597794D01*
X116228757Y-57600156D01*
X116228503Y-57602209D01*
X116228228Y-57603976D01*
X116227929Y-57605482D01*
X116227607Y-57606750D01*
X116227261Y-57607803D01*
X116226888Y-57608665D01*
X116226489Y-57609359D01*
X116226063Y-57609910D01*
X116225609Y-57610340D01*
X116225125Y-57610674D01*
X116224611Y-57610934D01*
X116221486Y-57611444D01*
X116215020Y-57611910D01*
X116193655Y-57612654D01*
X116163691Y-57613067D01*
X116128303Y-57613051D01*
X116094224Y-57612821D01*
X116063833Y-57612069D01*
X116036154Y-57610707D01*
X116010211Y-57608641D01*
X115985028Y-57605781D01*
X115959631Y-57602037D01*
X115933043Y-57597317D01*
X115904289Y-57591531D01*
X115845572Y-57577466D01*
X115788034Y-57560074D01*
X115731796Y-57539450D01*
X115676979Y-57515689D01*
X115623704Y-57488888D01*
X115572092Y-57459142D01*
X115522264Y-57426547D01*
X115474341Y-57391197D01*
X115428444Y-57353190D01*
X115384693Y-57312620D01*
X115343210Y-57269582D01*
X115304115Y-57224174D01*
X115267529Y-57176489D01*
X115233574Y-57126624D01*
X115202371Y-57074675D01*
X115174039Y-57020737D01*
X115155571Y-56980935D01*
X115139004Y-56941240D01*
X115124256Y-56901364D01*
X115117538Y-56881267D01*
X115111245Y-56861017D01*
X115099887Y-56819908D01*
X115090100Y-56777750D01*
X115081802Y-56734252D01*
X115074909Y-56689126D01*
X115072015Y-56662043D01*
X115069948Y-56629826D01*
X115068707Y-56594186D01*
X115068294Y-56556834D01*
X115068707Y-56519482D01*
X115069948Y-56483842D01*
X115072015Y-56451625D01*
X115074909Y-56424542D01*
X115081802Y-56379416D01*
X115085770Y-56357481D01*
X115090100Y-56335918D01*
X115094802Y-56314689D01*
X115099887Y-56293760D01*
X115105364Y-56273092D01*
X115111245Y-56252651D01*
X115117538Y-56232401D01*
X115124256Y-56212304D01*
X115131408Y-56192325D01*
X115139004Y-56172428D01*
X115147055Y-56152576D01*
X115155571Y-56132733D01*
X115174039Y-56092931D01*
X115206366Y-56031868D01*
X115242252Y-55973505D01*
X115281536Y-55917953D01*
X115324058Y-55865323D01*
X115369655Y-55815729D01*
X115418167Y-55769280D01*
X115469432Y-55726089D01*
X115523289Y-55686267D01*
X115579577Y-55649926D01*
X115638135Y-55617177D01*
X115698801Y-55588133D01*
X115761414Y-55562905D01*
X115825813Y-55541604D01*
X115891837Y-55524342D01*
X115959325Y-55511230D01*
X116028114Y-55502381D01*
X116045223Y-55501178D01*
X116066297Y-55500226D01*
X116090008Y-55499547D01*
X116115030Y-55499162D01*
X116140035Y-55499091D01*
X116163696Y-55499355D01*
G37*
D10*
X96782675Y-48387684D02*
X96767991Y-48498582D01*
X99250659Y-47778236D02*
X99233695Y-47811834D01*
X102663442Y-47205194D02*
X102771672Y-47343879D01*
X99316709Y-46199852D02*
X99346405Y-46145816D01*
X98843020Y-45982723D02*
X98896663Y-46028789D01*
X98324230Y-45744493D02*
X98384835Y-45756999D01*
X100175948Y-46813158D02*
X100120686Y-46827530D01*
X100925536Y-48164075D02*
X100922779Y-48202041D01*
X98359251Y-47027619D02*
X98455637Y-47067640D01*
X100772386Y-48504051D02*
X100696168Y-48495580D01*
X100700354Y-47401586D02*
X100731947Y-47457235D01*
X99055579Y-45318956D02*
X98961195Y-45293548D01*
X100229158Y-48413108D02*
X100227302Y-48421294D01*
X99538285Y-46631095D02*
X99567820Y-46664701D01*
X100750115Y-46126675D02*
X100773772Y-46164832D01*
X99554330Y-48142798D02*
X99587171Y-48152143D01*
X99665085Y-48188200D02*
X99679644Y-48198087D01*
X99875212Y-47087232D02*
X99886139Y-47066177D01*
X99752214Y-45725717D02*
X99728436Y-45735538D01*
X99301498Y-47395378D02*
X99299634Y-47401686D01*
X99604637Y-45011944D02*
X99634666Y-45018294D01*
X99231839Y-45390443D02*
X99146012Y-45351152D01*
X100125842Y-45461199D02*
X100122832Y-45566304D01*
X99223925Y-48020539D02*
X99240289Y-48044097D01*
X100044645Y-45665196D02*
X100059445Y-45668249D01*
X100873281Y-46417496D02*
X100882023Y-46463435D01*
X100696768Y-47388994D02*
X100698490Y-47395276D01*
X99818642Y-48476437D02*
X99818196Y-48481995D01*
X100206193Y-44945525D02*
X100175334Y-44945615D01*
X100891915Y-46558018D02*
X100892903Y-46606589D01*
X99642515Y-46924067D02*
X99585042Y-46902384D01*
X97583513Y-49603341D02*
X97708763Y-49586610D01*
X103140807Y-49738744D02*
X102660240Y-49645418D01*
X99809184Y-45037742D02*
X99785938Y-45048926D01*
X100118055Y-45030727D02*
X100122526Y-45110821D01*
X96801568Y-48281318D02*
X96782675Y-48387684D01*
X100713195Y-46611901D02*
X100728589Y-46564550D01*
X100554580Y-46346624D02*
X100553970Y-46391351D01*
X100689087Y-47269921D02*
X100687785Y-47281142D01*
X97387095Y-45602840D02*
X97333640Y-45647143D01*
X99146012Y-45351152D02*
X99055579Y-45318956D01*
X99130189Y-47769209D02*
X99110257Y-47837498D01*
X101212226Y-48939331D02*
X101214820Y-48979650D01*
X100789476Y-47877127D02*
X100795308Y-47908505D01*
X99645434Y-45922354D02*
X99604157Y-45969462D01*
X99999921Y-45657323D02*
X99974542Y-45661631D01*
X100468173Y-47485748D02*
X100508651Y-47514874D01*
X99679644Y-48198087D02*
X99693773Y-48209012D01*
X101284621Y-49637169D02*
X101113668Y-49679483D01*
X100138989Y-45741103D02*
X100200579Y-45784964D01*
X100486658Y-48487060D02*
X100445528Y-48488068D01*
D11*
X95700000Y-48400000D02*
X95700000Y-47800000D01*
D10*
X100922779Y-48202041D02*
X100918439Y-48240287D01*
X99662799Y-47408448D02*
X99617766Y-47432374D01*
X99665442Y-45026309D02*
X99696985Y-45036036D01*
X102478604Y-46405892D02*
X102435165Y-46454819D01*
X100846633Y-47702637D02*
X100869800Y-47769108D01*
X100372251Y-48188947D02*
X100359784Y-48198525D01*
X99107054Y-46606683D02*
X99108810Y-46656061D01*
X99809903Y-48415532D02*
X99809903Y-48415532D01*
X99899053Y-45678004D02*
X99874152Y-45684591D01*
X100127277Y-45365100D02*
X100125842Y-45461199D01*
X100617741Y-46091896D02*
X100575643Y-46038560D01*
X103217324Y-48387588D02*
X103232009Y-48498486D01*
D11*
X95400000Y-46800000D02*
X95400000Y-47300000D01*
D10*
X99797806Y-48522771D02*
X99794243Y-48525063D01*
X97339764Y-49645522D02*
X97460753Y-49623287D01*
X100137253Y-47106859D02*
X100124776Y-47087110D01*
X102343145Y-46549609D02*
X102294780Y-46595335D01*
X102017508Y-46815737D02*
X101925598Y-46875828D01*
X97806121Y-46683199D02*
X97892903Y-46751486D01*
X100227302Y-48421294D02*
X100225796Y-48429065D01*
X99742995Y-45829995D02*
X99691692Y-45875810D01*
X100695360Y-47236734D02*
X100692885Y-47247719D01*
X99151351Y-46328597D02*
X99151351Y-46328597D01*
X99776214Y-45716420D02*
X99752214Y-45725717D01*
X101077245Y-47541561D02*
X100890084Y-47468873D01*
X100112206Y-44949629D02*
X100118055Y-45030727D01*
X101082504Y-49483065D02*
X101056876Y-49532561D01*
X99438925Y-45006108D02*
X99464930Y-45003480D01*
X99833518Y-47142743D02*
X99848804Y-47125472D01*
X100237710Y-48511249D02*
X100240414Y-48514179D01*
D11*
X105209523Y-52076333D02*
X104828571Y-52076333D01*
X105285714Y-52304904D02*
X105019047Y-51504904D01*
X104752380Y-52304904D01*
X104066666Y-52304904D02*
X104523809Y-52304904D01*
X104295237Y-52304904D02*
X104295237Y-51504904D01*
X104371428Y-51619190D01*
X104447618Y-51695380D01*
X104523809Y-51733476D01*
X102285714Y-43192857D02*
X102019047Y-43192857D01*
X101904761Y-43611904D02*
X102285714Y-43611904D01*
X102285714Y-42811904D01*
X101904761Y-42811904D01*
X101561904Y-43078571D02*
X101561904Y-43878571D01*
X101561904Y-43116666D02*
X101485714Y-43078571D01*
X101333333Y-43078571D01*
X101257142Y-43116666D01*
X101219047Y-43154761D01*
X101180952Y-43230952D01*
X101180952Y-43459523D01*
X101219047Y-43535714D01*
X101257142Y-43573809D01*
X101333333Y-43611904D01*
X101485714Y-43611904D01*
X101561904Y-43573809D01*
X100838095Y-43611904D02*
X100838095Y-43078571D01*
X100838095Y-42811904D02*
X100876190Y-42850000D01*
X100838095Y-42888095D01*
X100800000Y-42850000D01*
X100838095Y-42811904D01*
X100838095Y-42888095D01*
X99923809Y-43078571D02*
X99733333Y-43611904D01*
X99542857Y-43078571D01*
X98819047Y-43611904D02*
X99276190Y-43611904D01*
X99047619Y-43611904D02*
X99047619Y-42811904D01*
X99123809Y-42926190D01*
X99200000Y-43002380D01*
X99276190Y-43040476D01*
X98438095Y-43573809D02*
X98438095Y-43611904D01*
X98476190Y-43688095D01*
X98514285Y-43726190D01*
X97676190Y-43611904D02*
X98133333Y-43611904D01*
X97904761Y-43611904D02*
X97904761Y-42811904D01*
X97980952Y-42926190D01*
X98057142Y-43002380D01*
X98133333Y-43040476D01*
X104790475Y-43884904D02*
X105171428Y-43884904D01*
X105209523Y-44265857D01*
X105171428Y-44227761D01*
X105095237Y-44189666D01*
X104904761Y-44189666D01*
X104828571Y-44227761D01*
X104790475Y-44265857D01*
X104752380Y-44342047D01*
X104752380Y-44532523D01*
X104790475Y-44608714D01*
X104828571Y-44646809D01*
X104904761Y-44684904D01*
X105095237Y-44684904D01*
X105171428Y-44646809D01*
X105209523Y-44608714D01*
X104523809Y-43884904D02*
X104257142Y-44684904D01*
X103990475Y-43884904D01*
X99498142Y-56235761D02*
X99460047Y-56273856D01*
X99421952Y-56350047D01*
X99498142Y-56502428D01*
X99460047Y-56578618D01*
X99421952Y-56616713D01*
X99802904Y-57340523D02*
X99802904Y-56883380D01*
X99802904Y-57111951D02*
X99002904Y-57111951D01*
X99117190Y-57035761D01*
X99193380Y-56959570D01*
X99231476Y-56883380D01*
X99002904Y-57607190D02*
X99002904Y-58102428D01*
X99307666Y-57835761D01*
X99307666Y-57950047D01*
X99345761Y-58026237D01*
X99383857Y-58064332D01*
X99460047Y-58102428D01*
X99650523Y-58102428D01*
X99726714Y-58064332D01*
X99764809Y-58026237D01*
X99802904Y-57950047D01*
X99802904Y-57721475D01*
X99764809Y-57645285D01*
X99726714Y-57607190D01*
X105209523Y-53346333D02*
X104828571Y-53346333D01*
X105285714Y-53574904D02*
X105019047Y-52774904D01*
X104752380Y-53574904D01*
X104333333Y-52774904D02*
X104257142Y-52774904D01*
X104180952Y-52813000D01*
X104142856Y-52851095D01*
X104104761Y-52927285D01*
X104066666Y-53079666D01*
X104066666Y-53270142D01*
X104104761Y-53422523D01*
X104142856Y-53498714D01*
X104180952Y-53536809D01*
X104257142Y-53574904D01*
X104333333Y-53574904D01*
X104409523Y-53536809D01*
X104447618Y-53498714D01*
X104485714Y-53422523D01*
X104523809Y-53270142D01*
X104523809Y-53079666D01*
X104485714Y-52927285D01*
X104447618Y-52851095D01*
X104409523Y-52813000D01*
X104333333Y-52774904D01*
X101072904Y-57340523D02*
X101072904Y-56883380D01*
X101072904Y-57111951D02*
X100272904Y-57111951D01*
X100387190Y-57035761D01*
X100463380Y-56959570D01*
X100501476Y-56883380D01*
X100349095Y-57645284D02*
X100311000Y-57683380D01*
X100272904Y-57759570D01*
X100272904Y-57950046D01*
X100311000Y-58026237D01*
X100349095Y-58064332D01*
X100425285Y-58102427D01*
X100501476Y-58102427D01*
X100615761Y-58064332D01*
X101072904Y-57607189D01*
X101072904Y-58102427D01*
X95907142Y-50730142D02*
X95869046Y-50692047D01*
X95792856Y-50653952D01*
X95640475Y-50730142D01*
X95564285Y-50692047D01*
X95526189Y-50653952D01*
X95297618Y-50234904D02*
X94802380Y-50234904D01*
X95069046Y-50539666D01*
X94954761Y-50539666D01*
X94878570Y-50577761D01*
X94840475Y-50615857D01*
X94802380Y-50692047D01*
X94802380Y-50882523D01*
X94840475Y-50958714D01*
X94878570Y-50996809D01*
X94954761Y-51034904D01*
X95183332Y-51034904D01*
X95259523Y-50996809D01*
X95297618Y-50958714D01*
X95297618Y-55314904D02*
X94764285Y-55314904D01*
X95107142Y-56114904D01*
X94802380Y-44684904D02*
X95259523Y-44684904D01*
X95030952Y-44684904D02*
X95030952Y-43884904D01*
X95107142Y-43999190D01*
X95183332Y-44075380D01*
X95259523Y-44113476D01*
X95040476Y-56927761D02*
X95116666Y-56889666D01*
X95154762Y-56851571D01*
X95192857Y-56775380D01*
X95192857Y-56737285D01*
X95154762Y-56661095D01*
X95116666Y-56623000D01*
X95040476Y-56584904D01*
X94888095Y-56584904D01*
X94811905Y-56623000D01*
X94773809Y-56661095D01*
X94735714Y-56737285D01*
X94735714Y-56775380D01*
X94773809Y-56851571D01*
X94811905Y-56889666D01*
X94888095Y-56927761D01*
X95040476Y-56927761D01*
X95116666Y-56965857D01*
X95154762Y-57003952D01*
X95192857Y-57080142D01*
X95192857Y-57232523D01*
X95154762Y-57308714D01*
X95116666Y-57346809D01*
X95040476Y-57384904D01*
X94888095Y-57384904D01*
X94811905Y-57346809D01*
X94773809Y-57308714D01*
X94735714Y-57232523D01*
X94735714Y-57080142D01*
X94773809Y-57003952D01*
X94811905Y-56965857D01*
X94888095Y-56927761D01*
X104752380Y-57384904D02*
X105209523Y-57384904D01*
X104980952Y-57384904D02*
X104980952Y-56584904D01*
X105057142Y-56699190D01*
X105133333Y-56775380D01*
X105209523Y-56813476D01*
X104066666Y-56584904D02*
X104219047Y-56584904D01*
X104295238Y-56623000D01*
X104333333Y-56661095D01*
X104409523Y-56775380D01*
X104447619Y-56927761D01*
X104447619Y-57232523D01*
X104409523Y-57308714D01*
X104371428Y-57346809D01*
X104295238Y-57384904D01*
X104142857Y-57384904D01*
X104066666Y-57346809D01*
X104028571Y-57308714D01*
X103990476Y-57232523D01*
X103990476Y-57042047D01*
X104028571Y-56965857D01*
X104066666Y-56927761D01*
X104142857Y-56889666D01*
X104295238Y-56889666D01*
X104371428Y-56927761D01*
X104409523Y-56965857D01*
X104447619Y-57042047D01*
X115664285Y-54611904D02*
X115930952Y-54230952D01*
X116121428Y-54611904D02*
X116121428Y-53811904D01*
X115816666Y-53811904D01*
X115740476Y-53850000D01*
X115702380Y-53888095D01*
X115664285Y-53964285D01*
X115664285Y-54078571D01*
X115702380Y-54154761D01*
X115740476Y-54192857D01*
X115816666Y-54230952D01*
X116121428Y-54230952D01*
X115207142Y-54611904D02*
X115283333Y-54573809D01*
X115321428Y-54535714D01*
X115359523Y-54459523D01*
X115359523Y-54230952D01*
X115321428Y-54154761D01*
X115283333Y-54116666D01*
X115207142Y-54078571D01*
X115092857Y-54078571D01*
X115016666Y-54116666D01*
X114978571Y-54154761D01*
X114940476Y-54230952D01*
X114940476Y-54459523D01*
X114978571Y-54535714D01*
X115016666Y-54573809D01*
X115092857Y-54611904D01*
X115207142Y-54611904D01*
X114597619Y-54611904D02*
X114597619Y-53811904D01*
X114597619Y-54192857D02*
X114140476Y-54192857D01*
X114140476Y-54611904D02*
X114140476Y-53811904D01*
X113797619Y-54573809D02*
X113683333Y-54611904D01*
X113492857Y-54611904D01*
X113416666Y-54573809D01*
X113378571Y-54535714D01*
X113340476Y-54459523D01*
X113340476Y-54383333D01*
X113378571Y-54307142D01*
X113416666Y-54269047D01*
X113492857Y-54230952D01*
X113645238Y-54192857D01*
X113721428Y-54154761D01*
X113759523Y-54116666D01*
X113797619Y-54040476D01*
X113797619Y-53964285D01*
X113759523Y-53888095D01*
X113721428Y-53850000D01*
X113645238Y-53811904D01*
X113454761Y-53811904D01*
X113340476Y-53850000D01*
X104752380Y-54844904D02*
X105209523Y-54844904D01*
X104980952Y-54844904D02*
X104980952Y-54044904D01*
X105057142Y-54159190D01*
X105133333Y-54235380D01*
X105209523Y-54273476D01*
X104028571Y-54044904D02*
X104409523Y-54044904D01*
X104447619Y-54425857D01*
X104409523Y-54387761D01*
X104333333Y-54349666D01*
X104142857Y-54349666D01*
X104066666Y-54387761D01*
X104028571Y-54425857D01*
X103990476Y-54502047D01*
X103990476Y-54692523D01*
X104028571Y-54768714D01*
X104066666Y-54806809D01*
X104142857Y-54844904D01*
X104333333Y-54844904D01*
X104409523Y-54806809D01*
X104447619Y-54768714D01*
X102038142Y-56235761D02*
X102000047Y-56273856D01*
X101961952Y-56350047D01*
X102038142Y-56502428D01*
X102000047Y-56578618D01*
X101961952Y-56616713D01*
X102342904Y-57340523D02*
X102342904Y-56883380D01*
X102342904Y-57111951D02*
X101542904Y-57111951D01*
X101657190Y-57035761D01*
X101733380Y-56959570D01*
X101771476Y-56883380D01*
X102342904Y-58102428D02*
X102342904Y-57645285D01*
X102342904Y-57873856D02*
X101542904Y-57873856D01*
X101657190Y-57797666D01*
X101733380Y-57721475D01*
X101771476Y-57645285D01*
X95907142Y-54540142D02*
X95869046Y-54502047D01*
X95792856Y-54463952D01*
X95640475Y-54540142D01*
X95564285Y-54502047D01*
X95526189Y-54463952D01*
X94878570Y-54044904D02*
X95030951Y-54044904D01*
X95107142Y-54083000D01*
X95145237Y-54121095D01*
X95221427Y-54235380D01*
X95259523Y-54387761D01*
X95259523Y-54692523D01*
X95221427Y-54768714D01*
X95183332Y-54806809D01*
X95107142Y-54844904D01*
X94954761Y-54844904D01*
X94878570Y-54806809D01*
X94840475Y-54768714D01*
X94802380Y-54692523D01*
X94802380Y-54502047D01*
X94840475Y-54425857D01*
X94878570Y-54387761D01*
X94954761Y-54349666D01*
X95107142Y-54349666D01*
X95183332Y-54387761D01*
X95221427Y-54425857D01*
X95259523Y-54502047D01*
X95259523Y-45231095D02*
X95221428Y-45193000D01*
X95145237Y-45154904D01*
X94954761Y-45154904D01*
X94878571Y-45193000D01*
X94840475Y-45231095D01*
X94802380Y-45307285D01*
X94802380Y-45383476D01*
X94840475Y-45497761D01*
X95297618Y-45954904D01*
X94802380Y-45954904D01*
X104714285Y-47161904D02*
X104980952Y-46780952D01*
X105171428Y-47161904D02*
X105171428Y-46361904D01*
X104866666Y-46361904D01*
X104790476Y-46400000D01*
X104752381Y-46438095D01*
X104714285Y-46514285D01*
X104714285Y-46628571D01*
X104752381Y-46704761D01*
X104790476Y-46742857D01*
X104866666Y-46780952D01*
X105171428Y-46780952D01*
X104738095Y-58654904D02*
X105195238Y-58654904D01*
X104966666Y-58654904D02*
X104966666Y-57854904D01*
X105042857Y-57969190D01*
X105119047Y-58045380D01*
X105195238Y-58083476D01*
X104242857Y-57854904D02*
X104166666Y-57854904D01*
X104090476Y-57893000D01*
X104052380Y-57931095D01*
X104014285Y-58007285D01*
X103976190Y-58159666D01*
X103976190Y-58350142D01*
X104014285Y-58502523D01*
X104052380Y-58578714D01*
X104090476Y-58616809D01*
X104166666Y-58654904D01*
X104242857Y-58654904D01*
X104319047Y-58616809D01*
X104357142Y-58578714D01*
X104395238Y-58502523D01*
X104433333Y-58350142D01*
X104433333Y-58159666D01*
X104395238Y-58007285D01*
X104357142Y-57931095D01*
X104319047Y-57893000D01*
X104242857Y-57854904D01*
X103747619Y-58350142D02*
X103709523Y-58312047D01*
X103633333Y-58273952D01*
X103480952Y-58350142D01*
X103404761Y-58312047D01*
X103366666Y-58273952D01*
X95907142Y-53270142D02*
X95869046Y-53232047D01*
X95792856Y-53193952D01*
X95640475Y-53270142D01*
X95564285Y-53232047D01*
X95526189Y-53193952D01*
X94840475Y-52774904D02*
X95221427Y-52774904D01*
X95259523Y-53155857D01*
X95221427Y-53117761D01*
X95145237Y-53079666D01*
X94954761Y-53079666D01*
X94878570Y-53117761D01*
X94840475Y-53155857D01*
X94802380Y-53232047D01*
X94802380Y-53422523D01*
X94840475Y-53498714D01*
X94878570Y-53536809D01*
X94954761Y-53574904D01*
X95145237Y-53574904D01*
X95221427Y-53536809D01*
X95259523Y-53498714D01*
X105209523Y-50806333D02*
X104828571Y-50806333D01*
X105285714Y-51034904D02*
X105019047Y-50234904D01*
X104752380Y-51034904D01*
X104523809Y-50311095D02*
X104485714Y-50273000D01*
X104409523Y-50234904D01*
X104219047Y-50234904D01*
X104142856Y-50273000D01*
X104104761Y-50311095D01*
X104066666Y-50387285D01*
X104066666Y-50463476D01*
X104104761Y-50577761D01*
X104561904Y-51034904D01*
X104066666Y-51034904D01*
X116990476Y-51267904D02*
X116990476Y-50467904D01*
X116723809Y-51039333D01*
X116457142Y-50467904D01*
X116457142Y-51267904D01*
X115733333Y-51267904D02*
X115733333Y-50848857D01*
X115771428Y-50772666D01*
X115847619Y-50734571D01*
X116000000Y-50734571D01*
X116076190Y-50772666D01*
X115733333Y-51229809D02*
X115809523Y-51267904D01*
X116000000Y-51267904D01*
X116076190Y-51229809D01*
X116114285Y-51153619D01*
X116114285Y-51077428D01*
X116076190Y-51001238D01*
X116000000Y-50963142D01*
X115809523Y-50963142D01*
X115733333Y-50925047D01*
X115009523Y-51267904D02*
X115009523Y-50467904D01*
X115009523Y-51229809D02*
X115085714Y-51267904D01*
X115238095Y-51267904D01*
X115314285Y-51229809D01*
X115352380Y-51191714D01*
X115390476Y-51115523D01*
X115390476Y-50886952D01*
X115352380Y-50810761D01*
X115314285Y-50772666D01*
X115238095Y-50734571D01*
X115085714Y-50734571D01*
X115009523Y-50772666D01*
X114323809Y-51229809D02*
X114400000Y-51267904D01*
X114552380Y-51267904D01*
X114628571Y-51229809D01*
X114666666Y-51153619D01*
X114666666Y-50848857D01*
X114628571Y-50772666D01*
X114552380Y-50734571D01*
X114400000Y-50734571D01*
X114323809Y-50772666D01*
X114285714Y-50848857D01*
X114285714Y-50925047D01*
X114666666Y-51001238D01*
X113333333Y-51267904D02*
X113333333Y-50734571D01*
X113333333Y-50467904D02*
X113371428Y-50506000D01*
X113333333Y-50544095D01*
X113295238Y-50506000D01*
X113333333Y-50467904D01*
X113333333Y-50544095D01*
X112952380Y-50734571D02*
X112952380Y-51267904D01*
X112952380Y-50810761D02*
X112914285Y-50772666D01*
X112838095Y-50734571D01*
X112723809Y-50734571D01*
X112647619Y-50772666D01*
X112609523Y-50848857D01*
X112609523Y-51267904D01*
X116742857Y-52022571D02*
X116438095Y-52022571D01*
X116628571Y-51755904D02*
X116628571Y-52441619D01*
X116590476Y-52517809D01*
X116514285Y-52555904D01*
X116438095Y-52555904D01*
X116171428Y-52555904D02*
X116171428Y-51755904D01*
X115828571Y-52555904D02*
X115828571Y-52136857D01*
X115866666Y-52060666D01*
X115942857Y-52022571D01*
X116057142Y-52022571D01*
X116133333Y-52060666D01*
X116171428Y-52098761D01*
X115142857Y-52517809D02*
X115219047Y-52555904D01*
X115371428Y-52555904D01*
X115447619Y-52517809D01*
X115485714Y-52441619D01*
X115485714Y-52136857D01*
X115447619Y-52060666D01*
X115371428Y-52022571D01*
X115219047Y-52022571D01*
X115142857Y-52060666D01*
X115104761Y-52136857D01*
X115104761Y-52213047D01*
X115485714Y-52289238D01*
X114152380Y-52136857D02*
X113885714Y-52136857D01*
X113771428Y-52555904D02*
X114152380Y-52555904D01*
X114152380Y-51755904D01*
X113771428Y-51755904D01*
X113428571Y-51755904D02*
X113428571Y-52403523D01*
X113390476Y-52479714D01*
X113352380Y-52517809D01*
X113276190Y-52555904D01*
X113123809Y-52555904D01*
X113047619Y-52517809D01*
X113009523Y-52479714D01*
X112971428Y-52403523D01*
X112971428Y-51755904D01*
X94878571Y-51771571D02*
X94878571Y-52304904D01*
X95069047Y-51466809D02*
X95259523Y-52038238D01*
X94764285Y-52038238D01*
X95259523Y-49041095D02*
X95221428Y-49003000D01*
X95145237Y-48964904D01*
X94954761Y-48964904D01*
X94878571Y-49003000D01*
X94840475Y-49041095D01*
X94802380Y-49117285D01*
X94802380Y-49193476D01*
X94840475Y-49307761D01*
X95297618Y-49764904D01*
X94802380Y-49764904D01*
X105209523Y-48266333D02*
X104828571Y-48266333D01*
X105285714Y-48494904D02*
X105019047Y-47694904D01*
X104752380Y-48494904D01*
X104142856Y-47961571D02*
X104142856Y-48494904D01*
X104333333Y-47656809D02*
X104523809Y-48228238D01*
X104028571Y-48228238D01*
X98304333Y-56959571D02*
X98304333Y-57340523D01*
X98532904Y-56883380D02*
X97732904Y-57150047D01*
X98532904Y-57416714D01*
X97732904Y-58064333D02*
X97732904Y-57683380D01*
X98113857Y-57645285D01*
X98075761Y-57683380D01*
X98037666Y-57759571D01*
X98037666Y-57950047D01*
X98075761Y-58026238D01*
X98113857Y-58064333D01*
X98190047Y-58102428D01*
X98380523Y-58102428D01*
X98456714Y-58064333D01*
X98494809Y-58026238D01*
X98532904Y-57950047D01*
X98532904Y-57759571D01*
X98494809Y-57683380D01*
X98456714Y-57645285D01*
X105209523Y-49536333D02*
X104828571Y-49536333D01*
X105285714Y-49764904D02*
X105019047Y-48964904D01*
X104752380Y-49764904D01*
X104561904Y-48964904D02*
X104066666Y-48964904D01*
X104333333Y-49269666D01*
X104219047Y-49269666D01*
X104142856Y-49307761D01*
X104104761Y-49345857D01*
X104066666Y-49422047D01*
X104066666Y-49612523D01*
X104104761Y-49688714D01*
X104142856Y-49726809D01*
X104219047Y-49764904D01*
X104447618Y-49764904D01*
X104523809Y-49726809D01*
X104561904Y-49688714D01*
X95840476Y-58350142D02*
X95802380Y-58312047D01*
X95726190Y-58273952D01*
X95573809Y-58350142D01*
X95497619Y-58312047D01*
X95459523Y-58273952D01*
X95116666Y-58654904D02*
X94964285Y-58654904D01*
X94888095Y-58616809D01*
X94850000Y-58578714D01*
X94773809Y-58464428D01*
X94735714Y-58312047D01*
X94735714Y-58007285D01*
X94773809Y-57931095D01*
X94811904Y-57893000D01*
X94888095Y-57854904D01*
X95040476Y-57854904D01*
X95116666Y-57893000D01*
X95154761Y-57931095D01*
X95192857Y-58007285D01*
X95192857Y-58197761D01*
X95154761Y-58273952D01*
X95116666Y-58312047D01*
X95040476Y-58350142D01*
X94888095Y-58350142D01*
X94811904Y-58312047D01*
X94773809Y-58273952D01*
X94735714Y-58197761D01*
X104752380Y-56114904D02*
X105209523Y-56114904D01*
X104980952Y-56114904D02*
X104980952Y-55314904D01*
X105057142Y-55429190D01*
X105133333Y-55505380D01*
X105209523Y-55543476D01*
X104066666Y-55581571D02*
X104066666Y-56114904D01*
X104257142Y-55276809D02*
X104447619Y-55848238D01*
X103952380Y-55848238D01*
M02*
