%TF.GenerationSoftware,KiCad,Pcbnew,(6.0.8)*%
%TF.CreationDate,2022-11-03T22:59:11+01:00*%
%TF.ProjectId,epi,6570692e-6b69-4636-9164-5f7063625858,rev?*%
%TF.SameCoordinates,Original*%
%TF.FileFunction,Drillmap*%
%TF.FilePolarity,Positive*%
%FSLAX45Y45*%
G04 Gerber Fmt 4.5, Leading zero omitted, Abs format (unit mm)*
G04 Created by KiCad (PCBNEW (6.0.8)) date 2022-11-03 22:59:11*
%MOMM*%
%LPD*%
G01*
G04 APERTURE LIST*
%ADD10C,0.100000*%
%ADD11C,0.200000*%
G04 APERTURE END LIST*
D10*
X10625000Y-3640000D02*
X10625000Y-3880000D01*
X9375000Y-3640000D02*
X9375000Y-3880000D01*
X9530000Y-4270000D02*
X9650000Y-4220000D01*
X9650000Y-4220000D02*
X10350000Y-4220000D01*
X10625000Y-3880000D02*
G75*
G03*
X10625000Y-4080000I0J-100000D01*
G01*
X9375000Y-4080000D02*
G75*
G03*
X9375000Y-3880000I0J100000D01*
G01*
X10470000Y-3640000D02*
X10625000Y-3640000D01*
X10470000Y-4270000D02*
X10470000Y-3640000D01*
X10625000Y-5940000D02*
X10625000Y-4080000D01*
X9375000Y-5940000D02*
X10625000Y-5940000D01*
X9375000Y-4080000D02*
X9375000Y-5940000D01*
X9375000Y-3640000D02*
X9530000Y-3640000D01*
X9530000Y-3640000D02*
X9530000Y-4270000D01*
X10350000Y-4220000D02*
X10470000Y-4270000D01*
D11*
X9627619Y-6255476D02*
X9627619Y-6055476D01*
X9675238Y-6055476D01*
X9703810Y-6065000D01*
X9722857Y-6084048D01*
X9732381Y-6103095D01*
X9741905Y-6141190D01*
X9741905Y-6169762D01*
X9732381Y-6207857D01*
X9722857Y-6226905D01*
X9703810Y-6245952D01*
X9675238Y-6255476D01*
X9627619Y-6255476D01*
X9827619Y-6255476D02*
X9827619Y-6122143D01*
X9827619Y-6160238D02*
X9837143Y-6141190D01*
X9846667Y-6131667D01*
X9865714Y-6122143D01*
X9884762Y-6122143D01*
X9951429Y-6255476D02*
X9951429Y-6122143D01*
X9951429Y-6055476D02*
X9941905Y-6065000D01*
X9951429Y-6074524D01*
X9960952Y-6065000D01*
X9951429Y-6055476D01*
X9951429Y-6074524D01*
X10075238Y-6255476D02*
X10056190Y-6245952D01*
X10046667Y-6226905D01*
X10046667Y-6055476D01*
X10180000Y-6255476D02*
X10160952Y-6245952D01*
X10151429Y-6226905D01*
X10151429Y-6055476D01*
X10408571Y-6255476D02*
X10408571Y-6055476D01*
X10475238Y-6198333D01*
X10541905Y-6055476D01*
X10541905Y-6255476D01*
X10722857Y-6255476D02*
X10722857Y-6150714D01*
X10713333Y-6131667D01*
X10694286Y-6122143D01*
X10656190Y-6122143D01*
X10637143Y-6131667D01*
X10722857Y-6245952D02*
X10703810Y-6255476D01*
X10656190Y-6255476D01*
X10637143Y-6245952D01*
X10627619Y-6226905D01*
X10627619Y-6207857D01*
X10637143Y-6188809D01*
X10656190Y-6179286D01*
X10703810Y-6179286D01*
X10722857Y-6169762D01*
X10818095Y-6122143D02*
X10818095Y-6322143D01*
X10818095Y-6131667D02*
X10837143Y-6122143D01*
X10875238Y-6122143D01*
X10894286Y-6131667D01*
X10903810Y-6141190D01*
X10913333Y-6160238D01*
X10913333Y-6217381D01*
X10903810Y-6236428D01*
X10894286Y-6245952D01*
X10875238Y-6255476D01*
X10837143Y-6255476D01*
X10818095Y-6245952D01*
X10999048Y-6236428D02*
X11008571Y-6245952D01*
X10999048Y-6255476D01*
X10989524Y-6245952D01*
X10999048Y-6236428D01*
X10999048Y-6255476D01*
X10999048Y-6131667D02*
X11008571Y-6141190D01*
X10999048Y-6150714D01*
X10989524Y-6141190D01*
X10999048Y-6131667D01*
X10999048Y-6150714D01*
M02*
