%TF.GenerationSoftware,KiCad,Pcbnew,(6.0.8)*%
%TF.CreationDate,2022-10-30T22:36:46+01:00*%
%TF.ProjectId,epi,6570692e-6b69-4636-9164-5f7063625858,rev?*%
%TF.SameCoordinates,Original*%
%TF.FileFunction,Copper,L1,Top*%
%TF.FilePolarity,Positive*%
%FSLAX46Y46*%
G04 Gerber Fmt 4.6, Leading zero omitted, Abs format (unit mm)*
G04 Created by KiCad (PCBNEW (6.0.8)) date 2022-10-30 22:36:46*
%MOMM*%
%LPD*%
G01*
G04 APERTURE LIST*
G04 Aperture macros list*
%AMRoundRect*
0 Rectangle with rounded corners*
0 $1 Rounding radius*
0 $2 $3 $4 $5 $6 $7 $8 $9 X,Y pos of 4 corners*
0 Add a 4 corners polygon primitive as box body*
4,1,4,$2,$3,$4,$5,$6,$7,$8,$9,$2,$3,0*
0 Add four circle primitives for the rounded corners*
1,1,$1+$1,$2,$3*
1,1,$1+$1,$4,$5*
1,1,$1+$1,$6,$7*
1,1,$1+$1,$8,$9*
0 Add four rect primitives between the rounded corners*
20,1,$1+$1,$2,$3,$4,$5,0*
20,1,$1+$1,$4,$5,$6,$7,0*
20,1,$1+$1,$6,$7,$8,$9,0*
20,1,$1+$1,$8,$9,$2,$3,0*%
%AMOutline5P*
0 Free polygon, 5 corners , with rotation*
0 The origin of the aperture is its center*
0 number of corners: always 5*
0 $1 to $10 corner X, Y*
0 $11 Rotation angle, in degrees counterclockwise*
0 create outline with 5 corners*
4,1,5,$1,$2,$3,$4,$5,$6,$7,$8,$9,$10,$1,$2,$11*%
%AMOutline6P*
0 Free polygon, 6 corners , with rotation*
0 The origin of the aperture is its center*
0 number of corners: always 6*
0 $1 to $12 corner X, Y*
0 $13 Rotation angle, in degrees counterclockwise*
0 create outline with 6 corners*
4,1,6,$1,$2,$3,$4,$5,$6,$7,$8,$9,$10,$11,$12,$1,$2,$13*%
%AMOutline7P*
0 Free polygon, 7 corners , with rotation*
0 The origin of the aperture is its center*
0 number of corners: always 7*
0 $1 to $14 corner X, Y*
0 $15 Rotation angle, in degrees counterclockwise*
0 create outline with 7 corners*
4,1,7,$1,$2,$3,$4,$5,$6,$7,$8,$9,$10,$11,$12,$13,$14,$1,$2,$15*%
%AMOutline8P*
0 Free polygon, 8 corners , with rotation*
0 The origin of the aperture is its center*
0 number of corners: always 8*
0 $1 to $16 corner X, Y*
0 $17 Rotation angle, in degrees counterclockwise*
0 create outline with 8 corners*
4,1,8,$1,$2,$3,$4,$5,$6,$7,$8,$9,$10,$11,$12,$13,$14,$15,$16,$1,$2,$17*%
G04 Aperture macros list end*
%TA.AperFunction,SMDPad,CuDef*%
%ADD10RoundRect,0.140000X0.170000X-0.140000X0.170000X0.140000X-0.170000X0.140000X-0.170000X-0.140000X0*%
%TD*%
%TA.AperFunction,SMDPad,CuDef*%
%ADD11RoundRect,0.135000X-0.185000X0.135000X-0.185000X-0.135000X0.185000X-0.135000X0.185000X0.135000X0*%
%TD*%
%TA.AperFunction,SMDPad,CuDef*%
%ADD12RoundRect,0.135000X0.135000X0.185000X-0.135000X0.185000X-0.135000X-0.185000X0.135000X-0.185000X0*%
%TD*%
%TA.AperFunction,SMDPad,CuDef*%
%ADD13RoundRect,0.140000X-0.140000X-0.170000X0.140000X-0.170000X0.140000X0.170000X-0.140000X0.170000X0*%
%TD*%
%TA.AperFunction,SMDPad,CuDef*%
%ADD14RoundRect,0.062500X-0.475000X0.062500X-0.475000X-0.062500X0.475000X-0.062500X0.475000X0.062500X0*%
%TD*%
%TA.AperFunction,SMDPad,CuDef*%
%ADD15RoundRect,0.062500X-0.062500X0.475000X-0.062500X-0.475000X0.062500X-0.475000X0.062500X0.475000X0*%
%TD*%
%TA.AperFunction,ComponentPad*%
%ADD16R,1.000000X1.000000*%
%TD*%
%TA.AperFunction,ComponentPad*%
%ADD17O,1.000000X1.000000*%
%TD*%
%TA.AperFunction,SMDPad,CuDef*%
%ADD18RoundRect,0.135000X0.185000X-0.135000X0.185000X0.135000X-0.185000X0.135000X-0.185000X-0.135000X0*%
%TD*%
%TA.AperFunction,SMDPad,CuDef*%
%ADD19RoundRect,0.147500X-0.147500X-0.172500X0.147500X-0.172500X0.147500X0.172500X-0.147500X0.172500X0*%
%TD*%
%TA.AperFunction,SMDPad,CuDef*%
%ADD20RoundRect,0.140000X-0.170000X0.140000X-0.170000X-0.140000X0.170000X-0.140000X0.170000X0.140000X0*%
%TD*%
%TA.AperFunction,SMDPad,CuDef*%
%ADD21Outline5P,-0.450000X0.160000X-0.210000X0.400000X0.450000X0.400000X0.450000X-0.400000X-0.450000X-0.400000X0.000000*%
%TD*%
%TA.AperFunction,SMDPad,CuDef*%
%ADD22R,0.900000X0.800000*%
%TD*%
%TA.AperFunction,SMDPad,CuDef*%
%ADD23R,0.615500X1.000000*%
%TD*%
%TA.AperFunction,SMDPad,CuDef*%
%ADD24R,0.307750X1.000000*%
%TD*%
%TA.AperFunction,SMDPad,CuDef*%
%ADD25R,0.607750X0.300000*%
%TD*%
%TA.AperFunction,ComponentPad*%
%ADD26O,1.200000X2.300000*%
%TD*%
%TA.AperFunction,ComponentPad*%
%ADD27O,1.200000X2.000000*%
%TD*%
%TA.AperFunction,SMDPad,CuDef*%
%ADD28RoundRect,0.135000X-0.135000X-0.185000X0.135000X-0.185000X0.135000X0.185000X-0.135000X0.185000X0*%
%TD*%
%TA.AperFunction,ViaPad*%
%ADD29C,0.500000*%
%TD*%
%TA.AperFunction,Conductor*%
%ADD30C,0.127000*%
%TD*%
%TA.AperFunction,Conductor*%
%ADD31C,0.200000*%
%TD*%
G04 APERTURE END LIST*
D10*
%TO.P,C8,1*%
%TO.N,GND*%
X95800000Y-46930000D03*
%TO.P,C8,2*%
%TO.N,Net-(C8-Pad2)*%
X95800000Y-45970000D03*
%TD*%
D11*
%TO.P,RV1,1*%
%TO.N,Net-(J4-PadA7)*%
X101000000Y-44890000D03*
%TO.P,RV1,2*%
%TO.N,GND*%
X101000000Y-45910000D03*
%TD*%
D12*
%TO.P,R4,1*%
%TO.N,GND*%
X101310000Y-44000000D03*
%TO.P,R4,2*%
%TO.N,Net-(J4-PadB5)*%
X100290000Y-44000000D03*
%TD*%
D13*
%TO.P,C1,1*%
%TO.N,VBUS*%
X102060000Y-45900000D03*
%TO.P,C1,2*%
%TO.N,GND*%
X103020000Y-45900000D03*
%TD*%
D14*
%TO.P,U1,44,AVCC*%
%TO.N,Net-(C2-Pad2)*%
X103337500Y-49050000D03*
%TO.P,U1,43,GND*%
%TO.N,GND*%
X103337500Y-49550000D03*
%TO.P,U1,42,AREF*%
%TO.N,Net-(C7-Pad1)*%
X103337500Y-50050000D03*
%TO.P,U1,41,PF0*%
%TO.N,A5*%
X103337500Y-50550000D03*
%TO.P,U1,40,PF1*%
%TO.N,A4*%
X103337500Y-51050000D03*
%TO.P,U1,39,PF4*%
%TO.N,A3*%
X103337500Y-51550000D03*
%TO.P,U1,38,PF5*%
%TO.N,A2*%
X103337500Y-52050000D03*
%TO.P,U1,37,PF6*%
%TO.N,A1*%
X103337500Y-52550000D03*
%TO.P,U1,36,PF7*%
%TO.N,A0*%
X103337500Y-53050000D03*
%TO.P,U1,35,GND*%
%TO.N,GND*%
X103337500Y-53550000D03*
%TO.P,U1,34,VCC*%
%TO.N,VBUS*%
X103337500Y-54050000D03*
D15*
%TO.P,U1,33,~{HWB}/PE2*%
%TO.N,HWB*%
X102500000Y-54887500D03*
%TO.P,U1,32,PC7*%
%TO.N,IO13*%
X102000000Y-54887500D03*
%TO.P,U1,31,PC6*%
%TO.N,D5*%
X101500000Y-54887500D03*
%TO.P,U1,30,PB6*%
%TO.N,IO10*%
X101000000Y-54887500D03*
%TO.P,U1,29,PB5*%
%TO.N,IO9*%
X100500000Y-54887500D03*
%TO.P,U1,28,PB4*%
%TO.N,IO8*%
X100000000Y-54887500D03*
%TO.P,U1,27,PD7*%
%TO.N,D6*%
X99500000Y-54887500D03*
%TO.P,U1,26,PD6*%
%TO.N,IO12*%
X99000000Y-54887500D03*
%TO.P,U1,25,PD4*%
%TO.N,D4*%
X98500000Y-54887500D03*
%TO.P,U1,24,AVCC*%
%TO.N,Net-(C2-Pad2)*%
X98000000Y-54887500D03*
%TO.P,U1,23,GND*%
%TO.N,GND*%
X97500000Y-54887500D03*
D14*
%TO.P,U1,22,PD5*%
%TO.N,unconnected-(U1-Pad22)*%
X96662500Y-54050000D03*
%TO.P,U1,21,PD3*%
%TO.N,D1{slash}TX*%
X96662500Y-53550000D03*
%TO.P,U1,20,PD2*%
%TO.N,D0{slash}RX*%
X96662500Y-53050000D03*
%TO.P,U1,19,PD1*%
%TO.N,D2{slash}SDA*%
X96662500Y-52550000D03*
%TO.P,U1,18,PD0*%
%TO.N,D3{slash}SCL*%
X96662500Y-52050000D03*
%TO.P,U1,17,XTAL1*%
%TO.N,Net-(C5-Pad2)*%
X96662500Y-51550000D03*
%TO.P,U1,16,XTAL2*%
%TO.N,Net-(C6-Pad2)*%
X96662500Y-51050000D03*
%TO.P,U1,15,GND*%
%TO.N,GND*%
X96662500Y-50550000D03*
%TO.P,U1,14,VCC*%
%TO.N,VBUS*%
X96662500Y-50050000D03*
%TO.P,U1,13,~{RESET}*%
%TO.N,RST*%
X96662500Y-49550000D03*
%TO.P,U1,12,PB7*%
%TO.N,IO11*%
X96662500Y-49050000D03*
D15*
%TO.P,U1,11,PB3*%
%TO.N,D14{slash}MISO*%
X97500000Y-48212500D03*
%TO.P,U1,10,PB2*%
%TO.N,D16{slash}MOSI*%
X98000000Y-48212500D03*
%TO.P,U1,9,PB1*%
%TO.N,D15{slash}SCK*%
X98500000Y-48212500D03*
%TO.P,U1,8,PB0*%
%TO.N,SS*%
X99000000Y-48212500D03*
%TO.P,U1,7,VBUS*%
%TO.N,VBUS*%
X99500000Y-48212500D03*
%TO.P,U1,6,UCAP*%
%TO.N,Net-(C8-Pad2)*%
X100000000Y-48212500D03*
%TO.P,U1,5,UGND*%
%TO.N,GND*%
X100500000Y-48212500D03*
%TO.P,U1,4,D+*%
%TO.N,D+*%
X101000000Y-48212500D03*
%TO.P,U1,3,D-*%
%TO.N,D-*%
X101500000Y-48212500D03*
%TO.P,U1,2,UVCC*%
%TO.N,VBUS*%
X102000000Y-48212500D03*
%TO.P,U1,1,PE6*%
%TO.N,D7*%
X102500000Y-48212500D03*
%TD*%
D11*
%TO.P,R2,1*%
%TO.N,Net-(J4-PadA7)*%
X99950000Y-44890000D03*
%TO.P,R2,2*%
%TO.N,D-*%
X99950000Y-45910000D03*
%TD*%
%TO.P,R6,1*%
%TO.N,VBUS*%
X104650000Y-46990000D03*
%TO.P,R6,2*%
%TO.N,RST*%
X104650000Y-48010000D03*
%TD*%
%TO.P,R1,1*%
%TO.N,Net-(J4-PadA6)*%
X97775000Y-43940000D03*
%TO.P,R1,2*%
%TO.N,D+*%
X97775000Y-44960000D03*
%TD*%
D16*
%TO.P,J3,1,Pin_1*%
%TO.N,IO11*%
X101900000Y-59400000D03*
D17*
%TO.P,J3,2,Pin_2*%
%TO.N,IO12*%
X100630000Y-59400000D03*
%TO.P,J3,3,Pin_3*%
%TO.N,IO13*%
X99360000Y-59400000D03*
%TO.P,J3,4,Pin_4*%
%TO.N,A5*%
X98090000Y-59400000D03*
%TD*%
D12*
%TO.P,FB1,1*%
%TO.N,Net-(C2-Pad2)*%
X97760000Y-46000000D03*
%TO.P,FB1,2*%
%TO.N,VBUS*%
X96740000Y-46000000D03*
%TD*%
D18*
%TO.P,RV2,1*%
%TO.N,Net-(J4-PadA6)*%
X96825000Y-44960000D03*
%TO.P,RV2,2*%
%TO.N,GND*%
X96825000Y-43940000D03*
%TD*%
D12*
%TO.P,R3,1*%
%TO.N,GND*%
X103060000Y-44950000D03*
%TO.P,R3,2*%
%TO.N,VBUS*%
X102040000Y-44950000D03*
%TD*%
D19*
%TO.P,D1,1,K*%
%TO.N,VBUS*%
X102715000Y-46950000D03*
%TO.P,D1,2,A*%
%TO.N,RST*%
X103685000Y-46950000D03*
%TD*%
D20*
%TO.P,C6,1*%
%TO.N,GND*%
X102200000Y-56670000D03*
%TO.P,C6,2*%
%TO.N,Net-(C6-Pad2)*%
X102200000Y-57630000D03*
%TD*%
D16*
%TO.P,J1,1,Pin_1*%
%TO.N,D1{slash}TX*%
X93750000Y-44250000D03*
D17*
%TO.P,J1,2,Pin_2*%
%TO.N,D0{slash}RX*%
X93750000Y-45520000D03*
%TO.P,J1,3,Pin_3*%
%TO.N,GND*%
X93750000Y-46790000D03*
%TO.P,J1,4,Pin_4*%
X93750000Y-48060000D03*
%TO.P,J1,5,Pin_5*%
%TO.N,D2{slash}SDA*%
X93750000Y-49330000D03*
%TO.P,J1,6,Pin_6*%
%TO.N,D3{slash}SCL*%
X93750000Y-50600000D03*
%TO.P,J1,7,Pin_7*%
%TO.N,D4*%
X93750000Y-51870000D03*
%TO.P,J1,8,Pin_8*%
%TO.N,D5*%
X93750000Y-53140000D03*
%TO.P,J1,9,Pin_9*%
%TO.N,D6*%
X93750000Y-54410000D03*
%TO.P,J1,10,Pin_10*%
%TO.N,D7*%
X93750000Y-55680000D03*
%TO.P,J1,11,Pin_11*%
%TO.N,IO8*%
X93750000Y-56950000D03*
%TO.P,J1,12,Pin_12*%
%TO.N,IO9*%
X93750000Y-58220000D03*
%TD*%
D10*
%TO.P,C4,1*%
%TO.N,VBUS*%
X104000000Y-45980000D03*
%TO.P,C4,2*%
%TO.N,GND*%
X104000000Y-45020000D03*
%TD*%
D21*
%TO.P,Y1,1,1*%
%TO.N,Net-(C6-Pad2)*%
X100950000Y-57850000D03*
D22*
%TO.P,Y1,2,2*%
%TO.N,Net-(C5-Pad2)*%
X99550000Y-56750000D03*
%TO.P,Y1,3*%
%TO.N,N/C*%
X99550000Y-57850000D03*
%TO.P,Y1,4*%
X100950000Y-56750000D03*
%TD*%
D10*
%TO.P,C2,1*%
%TO.N,GND*%
X104650000Y-49880000D03*
%TO.P,C2,2*%
%TO.N,Net-(C2-Pad2)*%
X104650000Y-48920000D03*
%TD*%
D23*
%TO.P,J4,A1,GND*%
%TO.N,GND*%
X96800000Y-42705000D03*
X103200000Y-42705000D03*
%TO.P,J4,A4,VBUS*%
%TO.N,VBUS*%
X102400000Y-42705000D03*
D24*
%TO.P,J4,A5,CC1*%
%TO.N,Net-(J4-PadA5)*%
X101250923Y-42705000D03*
%TO.P,J4,A6,D+*%
%TO.N,Net-(J4-PadA6)*%
X100249970Y-42705000D03*
%TO.P,J4,A7,D-*%
%TO.N,Net-(J4-PadA7)*%
X99751169Y-42705860D03*
%TO.P,J4,A8,SBU1*%
%TO.N,unconnected-(J4-PadA8)*%
X98750589Y-42705000D03*
D23*
%TO.P,J4,A9,VBUS*%
%TO.N,VBUS*%
X97600000Y-42705000D03*
D24*
%TO.P,J4,B5,CC2*%
%TO.N,Net-(J4-PadB5)*%
X98247811Y-42705000D03*
%TO.P,J4,B6,D+*%
%TO.N,Net-(J4-PadA6)*%
X99250692Y-42705860D03*
%TO.P,J4,B7,D-*%
%TO.N,Net-(J4-PadA7)*%
X100750447Y-42705000D03*
%TO.P,J4,B8,SBU2*%
%TO.N,unconnected-(J4-PadB8)*%
X101750000Y-42705000D03*
D25*
%TO.P,J4,B12,GND*%
%TO.N,GND*%
X96800000Y-43105000D03*
X103200000Y-43105000D03*
D26*
%TO.P,J4,S1,SHIELD*%
%TO.N,unconnected-(J4-PadS1)*%
X105600000Y-37705000D03*
D27*
X105600000Y-41705000D03*
D26*
X94400000Y-37705000D03*
D27*
X94400000Y-41705000D03*
%TD*%
D20*
%TO.P,C3,1*%
%TO.N,GND*%
X104100000Y-43170000D03*
%TO.P,C3,2*%
%TO.N,VBUS*%
X104100000Y-44130000D03*
%TD*%
D10*
%TO.P,C5,1*%
%TO.N,GND*%
X98300000Y-57630000D03*
%TO.P,C5,2*%
%TO.N,Net-(C5-Pad2)*%
X98300000Y-56670000D03*
%TD*%
D28*
%TO.P,R5,1*%
%TO.N,Net-(J4-PadA5)*%
X102190000Y-44000000D03*
%TO.P,R5,2*%
%TO.N,GND*%
X103210000Y-44000000D03*
%TD*%
D10*
%TO.P,C7,1*%
%TO.N,Net-(C7-Pad1)*%
X95800000Y-44905000D03*
%TO.P,C7,2*%
%TO.N,GND*%
X95800000Y-43945000D03*
%TD*%
D16*
%TO.P,J2,1,Pin_1*%
%TO.N,VBUS*%
X106250000Y-44250000D03*
D17*
%TO.P,J2,2,Pin_2*%
%TO.N,GND*%
X106250000Y-45520000D03*
%TO.P,J2,3,Pin_3*%
%TO.N,RST*%
X106250000Y-46790000D03*
%TO.P,J2,4,Pin_4*%
%TO.N,A4*%
X106250000Y-48060000D03*
%TO.P,J2,5,Pin_5*%
%TO.N,A3*%
X106250000Y-49330000D03*
%TO.P,J2,6,Pin_6*%
%TO.N,A2*%
X106250000Y-50600000D03*
%TO.P,J2,7,Pin_7*%
%TO.N,A1*%
X106250000Y-51870000D03*
%TO.P,J2,8,Pin_8*%
%TO.N,A0*%
X106250000Y-53140000D03*
%TO.P,J2,9,Pin_9*%
%TO.N,D15{slash}SCK*%
X106250000Y-54410000D03*
%TO.P,J2,10,Pin_10*%
%TO.N,D14{slash}MISO*%
X106250000Y-55680000D03*
%TO.P,J2,11,Pin_11*%
%TO.N,D16{slash}MOSI*%
X106250000Y-56950000D03*
%TO.P,J2,12,Pin_12*%
%TO.N,IO10*%
X106250000Y-58220000D03*
%TD*%
D29*
%TO.N,VBUS*%
X97600000Y-42750000D03*
X102400000Y-42850000D03*
%TO.N,GND*%
X96200000Y-56200000D03*
X103900000Y-57700000D03*
X96900000Y-44000000D03*
X99850000Y-47050000D03*
X102200000Y-56000000D03*
X95000000Y-43500000D03*
X104000000Y-45000000D03*
X97250000Y-54750000D03*
X98300000Y-57600000D03*
X104635000Y-49865000D03*
X96600000Y-47000000D03*
X105100000Y-53700000D03*
X101400000Y-44100000D03*
%TO.N,Net-(C2-Pad2)*%
X97900000Y-46050000D03*
X102275000Y-49275000D03*
%TO.N,Net-(C5-Pad2)*%
X97750000Y-51750000D03*
X99500000Y-56750000D03*
%TO.N,Net-(C6-Pad2)*%
X99450000Y-52700000D03*
X100950000Y-57850000D03*
%TO.N,Net-(C7-Pad1)*%
X95250000Y-44850000D03*
X102200000Y-50150000D03*
%TO.N,Net-(C8-Pad2)*%
X100000000Y-49550000D03*
X95850000Y-45900000D03*
%TO.N,RST*%
X103150000Y-47750000D03*
X101400000Y-49250000D03*
%TO.N,D0{slash}RX*%
X95220558Y-47656290D03*
%TO.N,IO11*%
X96350000Y-48400000D03*
%TO.N,IO12*%
X99050000Y-53950000D03*
%TO.N,Net-(J4-PadA7)*%
X100950000Y-44900000D03*
X99150000Y-43950000D03*
%TO.N,Net-(J4-PadB5)*%
X98850000Y-45100000D03*
X100300000Y-44100000D03*
%TO.N,D+*%
X100800000Y-47050000D03*
X98900000Y-46300000D03*
%TO.N,D-*%
X99900000Y-45900000D03*
X101650000Y-47100000D03*
%TO.N,D7*%
X98550000Y-53300000D03*
X101400000Y-50950000D03*
X103650000Y-48400000D03*
%TO.N,D15{slash}SCK*%
X99000000Y-49300000D03*
%TO.N,D16{slash}MOSI*%
X98000000Y-49200000D03*
%TO.N,D14{slash}MISO*%
X97350000Y-48250000D03*
X104600000Y-56100000D03*
%TO.N,D3{slash}SCL*%
X95600000Y-51200000D03*
%TO.N,D2{slash}SDA*%
X95300000Y-49200000D03*
%TO.N,D4*%
X95100000Y-54000000D03*
X97700000Y-53050000D03*
%TO.N,IO10*%
X102300000Y-52650000D03*
%TO.N,D5*%
X101750000Y-53850000D03*
%TO.N,A5*%
X98850000Y-52100000D03*
X95500000Y-55750000D03*
%TD*%
D30*
%TO.N,VBUS*%
X106186500Y-44186500D02*
X106186500Y-44250000D01*
D31*
X102060000Y-45900000D02*
X102060000Y-44970000D01*
D30*
X102000000Y-48212500D02*
X102000000Y-47623455D01*
X96314500Y-43595173D02*
X96314500Y-45314500D01*
D31*
X104600000Y-45900000D02*
X104650000Y-45850000D01*
X102400000Y-42850000D02*
X102400000Y-43355000D01*
D30*
X102060000Y-44970000D02*
X102040000Y-44950000D01*
D31*
X103348377Y-46437000D02*
X103385377Y-46400000D01*
X103950000Y-45930000D02*
X104570000Y-45930000D01*
D30*
X106130000Y-44130000D02*
X106186500Y-44186500D01*
X101913500Y-46486500D02*
X99513500Y-46486500D01*
D31*
X102700000Y-43655000D02*
X102700000Y-44345000D01*
D30*
X99100000Y-47200000D02*
X99500000Y-47600000D01*
D31*
X102485183Y-47061728D02*
X102561728Y-47061728D01*
X104650000Y-44200000D02*
X104600000Y-44150000D01*
D30*
X96740000Y-45740000D02*
X96740000Y-46000000D01*
X99513500Y-46486500D02*
X99100000Y-46900000D01*
X97600000Y-43450000D02*
X96459673Y-43450000D01*
D31*
X102700000Y-44345000D02*
X102090000Y-44955000D01*
X102060000Y-45900000D02*
X102060000Y-46360000D01*
D30*
X96459673Y-43450000D02*
X96314500Y-43595173D01*
X103950000Y-45950000D02*
X103950000Y-45930000D01*
D31*
X102060000Y-46360000D02*
X102250000Y-46550000D01*
D30*
X102050000Y-46350000D02*
X101913500Y-46486500D01*
X104600000Y-44150000D02*
X104580000Y-44130000D01*
X104570000Y-45930000D02*
X104600000Y-45900000D01*
D31*
X102250000Y-46550000D02*
X102250000Y-46826545D01*
D30*
X99100000Y-46900000D02*
X99100000Y-47200000D01*
D31*
X104000000Y-46000000D02*
X104000000Y-45980000D01*
X104650000Y-45850000D02*
X104650000Y-44200000D01*
X104580000Y-44130000D02*
X106130000Y-44130000D01*
X103600000Y-46400000D02*
X104000000Y-46000000D01*
X102715000Y-47000000D02*
X103278000Y-46437000D01*
X103278000Y-46437000D02*
X103348377Y-46437000D01*
X102250000Y-46826545D02*
X102485183Y-47061728D01*
D30*
X103950000Y-44130000D02*
X104580000Y-44130000D01*
X104600000Y-46940000D02*
X104600000Y-45900000D01*
D31*
X103385377Y-46400000D02*
X103600000Y-46400000D01*
D30*
X96314500Y-45314500D02*
X96740000Y-45740000D01*
X102000000Y-47623455D02*
X102561728Y-47061728D01*
X99500000Y-47600000D02*
X99500000Y-48212500D01*
D31*
X102400000Y-43355000D02*
X102700000Y-43655000D01*
D30*
X97600000Y-42705000D02*
X97600000Y-43450000D01*
%TO.N,GND*%
X101400000Y-44100000D02*
X101310000Y-44010000D01*
X103060000Y-44540000D02*
X103210000Y-44390000D01*
X101400000Y-44200000D02*
X101700000Y-44500000D01*
X101579500Y-45420500D02*
X101550000Y-45450000D01*
X103337500Y-49550000D02*
X104320000Y-49550000D01*
X104320000Y-49550000D02*
X104635000Y-49865000D01*
X104635000Y-49865000D02*
X104650000Y-49880000D01*
X103210000Y-44390000D02*
X103210000Y-44000000D01*
X101579500Y-45129500D02*
X101579500Y-45420500D01*
X103060000Y-44950000D02*
X103060000Y-44540000D01*
X100500000Y-47700000D02*
X100500000Y-48212500D01*
X99850000Y-47050000D02*
X100500000Y-47700000D01*
X101400000Y-44100000D02*
X101400000Y-44200000D01*
X101310000Y-44010000D02*
X101310000Y-44000000D01*
X101700000Y-44500000D02*
X101579500Y-44620500D01*
X101579500Y-44620500D02*
X101579500Y-45129500D01*
%TO.N,Net-(C2-Pad2)*%
X103337500Y-49050000D02*
X102500000Y-49050000D01*
X102500000Y-49050000D02*
X102275000Y-49275000D01*
X104420000Y-49050000D02*
X104650000Y-48820000D01*
X103337500Y-49050000D02*
X104420000Y-49050000D01*
%TO.N,Net-(C5-Pad2)*%
X97750000Y-51750000D02*
X97550000Y-51550000D01*
X97550000Y-51550000D02*
X96662500Y-51550000D01*
X99550000Y-56750000D02*
X99500000Y-56750000D01*
X98380000Y-56750000D02*
X98300000Y-56670000D01*
X99500000Y-56750000D02*
X98380000Y-56750000D01*
%TO.N,Net-(C6-Pad2)*%
X98313500Y-51983410D02*
X98200000Y-52096910D01*
X100950000Y-57850000D02*
X101980000Y-57850000D01*
X98406180Y-52700000D02*
X99450000Y-52700000D01*
X97846910Y-51050000D02*
X98313500Y-51516590D01*
X98200000Y-52500000D02*
X98403090Y-52703090D01*
X98200000Y-52096910D02*
X98200000Y-52500000D01*
X98313500Y-51516590D02*
X98313500Y-51983410D01*
X98403090Y-52703090D02*
X98406180Y-52700000D01*
X101980000Y-57850000D02*
X102200000Y-57630000D01*
X96662500Y-51050000D02*
X97846910Y-51050000D01*
%TO.N,Net-(C7-Pad1)*%
X102200000Y-50150000D02*
X102300000Y-50050000D01*
X102300000Y-50050000D02*
X103337500Y-50050000D01*
%TO.N,Net-(C8-Pad2)*%
X95850000Y-45900000D02*
X95850000Y-45970000D01*
X100000000Y-49550000D02*
X100000000Y-48212500D01*
%TO.N,RST*%
X106186500Y-46853500D02*
X106186500Y-46790000D01*
X104600000Y-47915000D02*
X103685000Y-47000000D01*
X97250000Y-49550000D02*
X97800000Y-50100000D01*
X104600000Y-47960000D02*
X104600000Y-47915000D01*
X96662500Y-49550000D02*
X97250000Y-49550000D01*
X105080000Y-47960000D02*
X106186500Y-46853500D01*
X104600000Y-47960000D02*
X105080000Y-47960000D01*
X100550000Y-50100000D02*
X101400000Y-49250000D01*
X103150000Y-47750000D02*
X103150000Y-47535000D01*
X103150000Y-47535000D02*
X103685000Y-47000000D01*
X97800000Y-50100000D02*
X100550000Y-50100000D01*
%TO.N,D1{slash}TX*%
X94500000Y-52197290D02*
X94500000Y-44250000D01*
X94500000Y-44250000D02*
X93813500Y-44250000D01*
X96662500Y-53550000D02*
X95550000Y-53550000D01*
X95454000Y-53151290D02*
X94500000Y-52197290D01*
X95550000Y-53550000D02*
X95454000Y-53454000D01*
X95454000Y-53454000D02*
X95454000Y-53151290D01*
%TO.N,D0{slash}RX*%
X94754000Y-48122848D02*
X94754000Y-52092080D01*
X95220558Y-47656290D02*
X94754000Y-48122848D01*
X95711920Y-53050000D02*
X96662500Y-53050000D01*
X94754000Y-52092080D02*
X95711920Y-53050000D01*
%TO.N,A4*%
X105246000Y-49754000D02*
X105500000Y-49500000D01*
X104450000Y-51050000D02*
X105246000Y-50254000D01*
X105500000Y-48250000D02*
X105690000Y-48060000D01*
X105246000Y-50254000D02*
X105246000Y-49754000D01*
X105690000Y-48060000D02*
X106186500Y-48060000D01*
X105500000Y-49500000D02*
X105500000Y-48250000D01*
X103337500Y-51050000D02*
X104450000Y-51050000D01*
%TO.N,IO11*%
X96662500Y-48712500D02*
X96350000Y-48400000D01*
X96662500Y-49050000D02*
X96662500Y-48712500D01*
%TO.N,IO12*%
X99000000Y-54887500D02*
X99000000Y-54000000D01*
X99000000Y-54000000D02*
X99050000Y-53950000D01*
%TO.N,Net-(J4-PadA5)*%
X101695500Y-43395500D02*
X101445037Y-43395500D01*
X101250923Y-43201386D02*
X101250923Y-42705000D01*
X102040000Y-44000000D02*
X102040000Y-43740000D01*
X102040000Y-43740000D02*
X101695500Y-43395500D01*
X101445037Y-43395500D02*
X101250923Y-43201386D01*
%TO.N,Net-(J4-PadA6)*%
X99004500Y-43395500D02*
X99250692Y-43149308D01*
X98286500Y-44686500D02*
X98099500Y-44499500D01*
X98913500Y-44513500D02*
X98550000Y-44150000D01*
X99439500Y-44510500D02*
X99439500Y-45307410D01*
X99439500Y-44510500D02*
X99713500Y-44236500D01*
X99436500Y-44513500D02*
X98913500Y-44513500D01*
X97799500Y-43964500D02*
X97775000Y-43940000D01*
X98099500Y-44499500D02*
X97799500Y-44499500D01*
X99439500Y-45307410D02*
X99083410Y-45663500D01*
X99439500Y-44510500D02*
X99436500Y-44513500D01*
X98616590Y-45663500D02*
X98286500Y-45333410D01*
X97285500Y-44499500D02*
X96825000Y-44960000D01*
X99713500Y-44236500D02*
X99713500Y-43786500D01*
X98550000Y-44150000D02*
X98550000Y-43406552D01*
X97799500Y-44499500D02*
X97285500Y-44499500D01*
X99250692Y-43149308D02*
X99250692Y-42705860D01*
X98286500Y-45333410D02*
X98286500Y-44686500D01*
X98561052Y-43395500D02*
X99004500Y-43395500D01*
X99713500Y-43786500D02*
X100249970Y-43250030D01*
X100249970Y-43250030D02*
X100249970Y-42705000D01*
X99083410Y-45663500D02*
X98616590Y-45663500D01*
X98550000Y-43406552D02*
X98561052Y-43395500D01*
X97799500Y-44499500D02*
X97799500Y-43964500D01*
%TO.N,Net-(J4-PadA7)*%
X100850000Y-44801000D02*
X100939000Y-44890000D01*
X100750447Y-42705000D02*
X100750447Y-43399553D01*
X100750447Y-43399553D02*
X100850000Y-43499106D01*
X100850000Y-43499106D02*
X100850000Y-44801000D01*
X100939000Y-44890000D02*
X101000000Y-44890000D01*
X99751169Y-43348831D02*
X99751169Y-42705860D01*
X99200000Y-43900000D02*
X99751169Y-43348831D01*
X99950000Y-44890000D02*
X101000000Y-44890000D01*
%TO.N,Net-(J4-PadB5)*%
X98296000Y-44336790D02*
X98296000Y-42753189D01*
X98850000Y-45100000D02*
X98850000Y-44890790D01*
X98850000Y-44890790D02*
X98296000Y-44336790D01*
X98296000Y-42753189D02*
X98247811Y-42705000D01*
%TO.N,D+*%
X101000000Y-47650000D02*
X101000000Y-48212500D01*
X98586500Y-46613500D02*
X97593173Y-46613500D01*
X97299500Y-46319827D02*
X97299500Y-45360500D01*
X97299500Y-45360500D02*
X97700000Y-44960000D01*
X100800000Y-47450000D02*
X101000000Y-47650000D01*
X98900000Y-46300000D02*
X98586500Y-46613500D01*
X100800000Y-47050000D02*
X100800000Y-47450000D01*
X97593173Y-46613500D02*
X97299500Y-46319827D01*
%TO.N,D-*%
X101650000Y-47100000D02*
X101500000Y-47250000D01*
X101500000Y-47250000D02*
X101500000Y-48212500D01*
%TO.N,D7*%
X99360410Y-53463500D02*
X100186500Y-53463500D01*
X102687500Y-48400000D02*
X102500000Y-48212500D01*
X98713500Y-53463500D02*
X98739590Y-53463500D01*
X100186500Y-53463500D02*
X101400000Y-52250000D01*
X98739590Y-53463500D02*
X98816590Y-53386500D01*
X101400000Y-52250000D02*
X101400000Y-50950000D01*
X98550000Y-53300000D02*
X98713500Y-53463500D01*
X99283410Y-53386500D02*
X99360410Y-53463500D01*
X103650000Y-48400000D02*
X102687500Y-48400000D01*
X98816590Y-53386500D02*
X99283410Y-53386500D01*
%TO.N,D15{slash}SCK*%
X98500000Y-48800000D02*
X98500000Y-48212500D01*
X99000000Y-49300000D02*
X98500000Y-48800000D01*
%TO.N,D16{slash}MOSI*%
X98000000Y-49200000D02*
X98000000Y-48212500D01*
%TO.N,D14{slash}MISO*%
X97387500Y-48212500D02*
X97350000Y-48250000D01*
X104600000Y-56100000D02*
X105020000Y-55680000D01*
X105020000Y-55680000D02*
X106186500Y-55680000D01*
X97500000Y-48212500D02*
X97387500Y-48212500D01*
%TO.N,D3{slash}SCL*%
X95950000Y-52050000D02*
X96662500Y-52050000D01*
X95600000Y-51200000D02*
X95600000Y-51700000D01*
X95600000Y-51700000D02*
X95950000Y-52050000D01*
%TO.N,D2{slash}SDA*%
X95008000Y-51986870D02*
X95571130Y-52550000D01*
X95571130Y-52550000D02*
X96662500Y-52550000D01*
X95300000Y-49200000D02*
X95008000Y-49492000D01*
X95008000Y-49492000D02*
X95008000Y-51986870D01*
%TO.N,D4*%
X95100000Y-54000000D02*
X95100000Y-53156500D01*
X98500000Y-54492204D02*
X97886500Y-53878704D01*
X97878704Y-53878704D02*
X97700000Y-53700000D01*
X97700000Y-53700000D02*
X97700000Y-53050000D01*
X97886500Y-53878704D02*
X97878704Y-53878704D01*
X95100000Y-53156500D02*
X93813500Y-51870000D01*
X98500000Y-54887500D02*
X98500000Y-54492204D01*
%TO.N,D6*%
X97291500Y-55641500D02*
X96213500Y-54563500D01*
X96213500Y-54563500D02*
X93913500Y-54563500D01*
X99500000Y-55540790D02*
X99399290Y-55641500D01*
X99399290Y-55641500D02*
X97291500Y-55641500D01*
X99500000Y-54887500D02*
X99500000Y-55540790D01*
%TO.N,IO8*%
X96108290Y-54817500D02*
X94500000Y-54817500D01*
X97186290Y-55895500D02*
X96108290Y-54817500D01*
X99504500Y-55895500D02*
X97186290Y-55895500D01*
X94500000Y-54817500D02*
X94500000Y-56263500D01*
X94500000Y-56263500D02*
X93813500Y-56950000D01*
X100000000Y-54887500D02*
X100000000Y-55400000D01*
X100000000Y-55400000D02*
X99504500Y-55895500D01*
%TO.N,IO9*%
X100500000Y-55500000D02*
X100500000Y-54887500D01*
X97081080Y-56149500D02*
X99850500Y-56149500D01*
X99850500Y-56149500D02*
X100500000Y-55500000D01*
X94754000Y-55071500D02*
X96003080Y-55071500D01*
X96003080Y-55071500D02*
X97081080Y-56149500D01*
X93813500Y-58220000D02*
X94754000Y-57279500D01*
X94754000Y-57279500D02*
X94754000Y-55071500D01*
%TO.N,IO10*%
X101000000Y-53803090D02*
X101000000Y-54887500D01*
X102153090Y-52650000D02*
X101000000Y-53803090D01*
X102300000Y-52650000D02*
X102153090Y-52650000D01*
%TO.N,D5*%
X101500000Y-54100000D02*
X101750000Y-53850000D01*
X101500000Y-54887500D02*
X101500000Y-54100000D01*
%TO.N,IO13*%
X100131000Y-58500000D02*
X99600000Y-58500000D01*
X100300000Y-56169000D02*
X100300000Y-58331000D01*
X100309500Y-56159500D02*
X100300000Y-56169000D01*
X99600000Y-58500000D02*
X99360000Y-58740000D01*
X101123296Y-56159500D02*
X100309500Y-56159500D01*
X99360000Y-58740000D02*
X99360000Y-59336500D01*
X102000000Y-55282796D02*
X101123296Y-56159500D01*
X102000000Y-54887500D02*
X102000000Y-55282796D01*
X100300000Y-58331000D02*
X100131000Y-58500000D01*
%TO.N,A0*%
X106186500Y-53076500D02*
X106186500Y-53140000D01*
X106160000Y-53050000D02*
X106186500Y-53076500D01*
X103337500Y-53050000D02*
X106160000Y-53050000D01*
%TO.N,A1*%
X106186500Y-51933500D02*
X106186500Y-51870000D01*
X103337500Y-52550000D02*
X105570000Y-52550000D01*
X105570000Y-52550000D02*
X106186500Y-51933500D01*
%TO.N,A2*%
X105450000Y-52050000D02*
X105500000Y-52000000D01*
X105500000Y-51000000D02*
X105900000Y-50600000D01*
X105900000Y-50600000D02*
X106186500Y-50600000D01*
X103337500Y-52050000D02*
X105450000Y-52050000D01*
X105500000Y-52000000D02*
X105500000Y-51000000D01*
%TO.N,A3*%
X103337500Y-51550000D02*
X105200000Y-51550000D01*
X105500000Y-50640790D02*
X105500000Y-50016500D01*
X105246000Y-50894790D02*
X105500000Y-50640790D01*
X105246000Y-51504000D02*
X105246000Y-50894790D01*
X105200000Y-51550000D02*
X105246000Y-51504000D01*
X105500000Y-50016500D02*
X106186500Y-49330000D01*
%TO.N,A5*%
X95500000Y-55750000D02*
X95500000Y-58000000D01*
X98850000Y-52100000D02*
X100550000Y-50400000D01*
X103174000Y-50713500D02*
X103337500Y-50550000D01*
X100550000Y-50400000D02*
X101653090Y-50400000D01*
X101966590Y-50713500D02*
X103174000Y-50713500D01*
X96200000Y-58700000D02*
X98100000Y-58700000D01*
X98100000Y-58700000D02*
X98100000Y-59336500D01*
X95500000Y-58000000D02*
X96200000Y-58700000D01*
X101653090Y-50400000D02*
X101966590Y-50713500D01*
X98100000Y-59336500D02*
X98090000Y-59336500D01*
%TD*%
%TA.AperFunction,Conductor*%
%TO.N,GND*%
G36*
X102663261Y-53087660D02*
G01*
X102672500Y-53120363D01*
X102672500Y-53131212D01*
X102683524Y-53186634D01*
X102686945Y-53191754D01*
X102697187Y-53207082D01*
X102706520Y-53253998D01*
X102682377Y-53290132D01*
X102682719Y-53290474D01*
X102681000Y-53292193D01*
X102679945Y-53293772D01*
X102678366Y-53294827D01*
X102669829Y-53303365D01*
X102618650Y-53379958D01*
X102614029Y-53391116D01*
X102604741Y-53437807D01*
X102606597Y-53447139D01*
X102610880Y-53450000D01*
X104060253Y-53450000D01*
X104069043Y-53446359D01*
X104071013Y-53441602D01*
X104060971Y-53391116D01*
X104056350Y-53379958D01*
X104028463Y-53338223D01*
X104019131Y-53291307D01*
X104045707Y-53251533D01*
X104080430Y-53241000D01*
X105530249Y-53241000D01*
X105574443Y-53259306D01*
X105591022Y-53288910D01*
X105591638Y-53291476D01*
X105612216Y-53377190D01*
X105613941Y-53380532D01*
X105613942Y-53380535D01*
X105649293Y-53449026D01*
X105687204Y-53522476D01*
X105694779Y-53531159D01*
X105791269Y-53641767D01*
X105794683Y-53645681D01*
X105797765Y-53647847D01*
X105797766Y-53647848D01*
X105825619Y-53667423D01*
X105906390Y-53724190D01*
X105932020Y-53764577D01*
X105921585Y-53811261D01*
X105905853Y-53826830D01*
X105800003Y-53899579D01*
X105691240Y-54021652D01*
X105614735Y-54166145D01*
X105574905Y-54324716D01*
X105574885Y-54328481D01*
X105574885Y-54328483D01*
X105574578Y-54387117D01*
X105574049Y-54488210D01*
X105612216Y-54647190D01*
X105687204Y-54792476D01*
X105703888Y-54811601D01*
X105780798Y-54899764D01*
X105794683Y-54915681D01*
X105797765Y-54917847D01*
X105797766Y-54917848D01*
X105826728Y-54938203D01*
X105906390Y-54994190D01*
X105932020Y-55034577D01*
X105921585Y-55081261D01*
X105905853Y-55096830D01*
X105800003Y-55169579D01*
X105691240Y-55291652D01*
X105642225Y-55384225D01*
X105617674Y-55430595D01*
X105614735Y-55436145D01*
X105613818Y-55439796D01*
X105613333Y-55441727D01*
X105612803Y-55442441D01*
X105612466Y-55443318D01*
X105612221Y-55443224D01*
X105584811Y-55480130D01*
X105552716Y-55489000D01*
X105063234Y-55489000D01*
X105055893Y-55487747D01*
X105055810Y-55488476D01*
X105048819Y-55487679D01*
X105042178Y-55485347D01*
X105035185Y-55486125D01*
X105035184Y-55486125D01*
X105012794Y-55488617D01*
X105005881Y-55489000D01*
X104998467Y-55489000D01*
X104991544Y-55490579D01*
X104984591Y-55491755D01*
X104955571Y-55494985D01*
X104949607Y-55498719D01*
X104945670Y-55500090D01*
X104941904Y-55501903D01*
X104935041Y-55503468D01*
X104929535Y-55507855D01*
X104929536Y-55507855D01*
X104912229Y-55521646D01*
X104906446Y-55525740D01*
X104903290Y-55527716D01*
X104903284Y-55527721D01*
X104900289Y-55529596D01*
X104895076Y-55534809D01*
X104889832Y-55539494D01*
X104873511Y-55552500D01*
X104866891Y-55557775D01*
X104863833Y-55564114D01*
X104859442Y-55569615D01*
X104858908Y-55569189D01*
X104854532Y-55575353D01*
X104820612Y-55609273D01*
X104776418Y-55627579D01*
X104758511Y-55624959D01*
X104679007Y-55601183D01*
X104679004Y-55601183D01*
X104674739Y-55599907D01*
X104603058Y-55599469D01*
X104535829Y-55599058D01*
X104535828Y-55599058D01*
X104531376Y-55599031D01*
X104393529Y-55638428D01*
X104272280Y-55714930D01*
X104269337Y-55718262D01*
X104269335Y-55718264D01*
X104228299Y-55764729D01*
X104177377Y-55822388D01*
X104116447Y-55952163D01*
X104094391Y-56093823D01*
X104094968Y-56098236D01*
X104094968Y-56098238D01*
X104098802Y-56127556D01*
X104112980Y-56235979D01*
X104114773Y-56240054D01*
X104163286Y-56350307D01*
X104170720Y-56367203D01*
X104173584Y-56370610D01*
X104260107Y-56473543D01*
X104260110Y-56473546D01*
X104262970Y-56476948D01*
X104382313Y-56556390D01*
X104390667Y-56559000D01*
X104514905Y-56597814D01*
X104514908Y-56597814D01*
X104519157Y-56599142D01*
X104523609Y-56599224D01*
X104523611Y-56599224D01*
X104594642Y-56600526D01*
X104662499Y-56601770D01*
X104800817Y-56564060D01*
X104922991Y-56489045D01*
X105019200Y-56382754D01*
X105081710Y-56253733D01*
X105083124Y-56245332D01*
X105093637Y-56182843D01*
X105105496Y-56112354D01*
X105105647Y-56100000D01*
X105095443Y-56028747D01*
X105085954Y-55962486D01*
X105085953Y-55962484D01*
X105085323Y-55958082D01*
X105083482Y-55954034D01*
X105082607Y-55951040D01*
X105087774Y-55903485D01*
X105125055Y-55873512D01*
X105142595Y-55871000D01*
X105552083Y-55871000D01*
X105596277Y-55889306D01*
X105610665Y-55911719D01*
X105611335Y-55913522D01*
X105612216Y-55917190D01*
X105687204Y-56062476D01*
X105710713Y-56089425D01*
X105730716Y-56112354D01*
X105794683Y-56185681D01*
X105797765Y-56187847D01*
X105797766Y-56187848D01*
X105818516Y-56202431D01*
X105906390Y-56264190D01*
X105932020Y-56304577D01*
X105921585Y-56351261D01*
X105905853Y-56366830D01*
X105800003Y-56439579D01*
X105691240Y-56561652D01*
X105614735Y-56706145D01*
X105574905Y-56864716D01*
X105574885Y-56868481D01*
X105574885Y-56868483D01*
X105574645Y-56914373D01*
X105574049Y-57028210D01*
X105612216Y-57187190D01*
X105613941Y-57190532D01*
X105613942Y-57190535D01*
X105648589Y-57257662D01*
X105687204Y-57332476D01*
X105706109Y-57354147D01*
X105781222Y-57440250D01*
X105794683Y-57455681D01*
X105797765Y-57457847D01*
X105797766Y-57457848D01*
X105810394Y-57466723D01*
X105906390Y-57534190D01*
X105932020Y-57574577D01*
X105921585Y-57621261D01*
X105905853Y-57636830D01*
X105800003Y-57709579D01*
X105691240Y-57831652D01*
X105614735Y-57976145D01*
X105574905Y-58134716D01*
X105574885Y-58138481D01*
X105574885Y-58138483D01*
X105574767Y-58161092D01*
X105574049Y-58298210D01*
X105574929Y-58301874D01*
X105574929Y-58301877D01*
X105584543Y-58341922D01*
X105612216Y-58457190D01*
X105613941Y-58460532D01*
X105613942Y-58460535D01*
X105644750Y-58520224D01*
X105687204Y-58602476D01*
X105694475Y-58610811D01*
X105788242Y-58718297D01*
X105794683Y-58725681D01*
X105797765Y-58727847D01*
X105797766Y-58727848D01*
X105818308Y-58742285D01*
X105928448Y-58819693D01*
X106027109Y-58858159D01*
X106080776Y-58879083D01*
X106080138Y-58880720D01*
X106113800Y-58906000D01*
X106122500Y-58937809D01*
X106122500Y-59210000D01*
X106104194Y-59254194D01*
X106060000Y-59272500D01*
X102613389Y-59272500D01*
X102569195Y-59254194D01*
X102552616Y-59224590D01*
X102538664Y-59166476D01*
X102537784Y-59162810D01*
X102536054Y-59159458D01*
X102534462Y-59156373D01*
X102527500Y-59127707D01*
X102527500Y-58887442D01*
X102520102Y-58850252D01*
X102491922Y-58808078D01*
X102449748Y-58779898D01*
X102443715Y-58778698D01*
X102443713Y-58778697D01*
X102415569Y-58773099D01*
X102412558Y-58772500D01*
X102161984Y-58772500D01*
X102139281Y-58768231D01*
X102072734Y-58742285D01*
X102072730Y-58742284D01*
X102069224Y-58740917D01*
X102056038Y-58739181D01*
X101946558Y-58724767D01*
X101946552Y-58724767D01*
X101944527Y-58724500D01*
X101859004Y-58724500D01*
X101857132Y-58724726D01*
X101857124Y-58724727D01*
X101773725Y-58734820D01*
X101737687Y-58739181D01*
X101734162Y-58740513D01*
X101734158Y-58740514D01*
X101660189Y-58768465D01*
X101638097Y-58772500D01*
X101387442Y-58772500D01*
X101384431Y-58773099D01*
X101356287Y-58778697D01*
X101356285Y-58778698D01*
X101350252Y-58779898D01*
X101308078Y-58808078D01*
X101279898Y-58850252D01*
X101272500Y-58887442D01*
X101272500Y-58942170D01*
X101254194Y-58986364D01*
X101210000Y-59004670D01*
X101162902Y-58983256D01*
X101087793Y-58897157D01*
X101087792Y-58897156D01*
X101085317Y-58894319D01*
X101079901Y-58890512D01*
X100957709Y-58804634D01*
X100951552Y-58800307D01*
X100860419Y-58764776D01*
X100802734Y-58742285D01*
X100802730Y-58742284D01*
X100799224Y-58740917D01*
X100786038Y-58739181D01*
X100676558Y-58724767D01*
X100676552Y-58724767D01*
X100674527Y-58724500D01*
X100589004Y-58724500D01*
X100587132Y-58724726D01*
X100587124Y-58724727D01*
X100503725Y-58734820D01*
X100467687Y-58739181D01*
X100464162Y-58740513D01*
X100464158Y-58740514D01*
X100318270Y-58795641D01*
X100314745Y-58796973D01*
X100311640Y-58799107D01*
X100185656Y-58885694D01*
X100180003Y-58889579D01*
X100071240Y-59011652D01*
X100050478Y-59050865D01*
X100013622Y-59081355D01*
X99965999Y-59076854D01*
X99939706Y-59050284D01*
X99924527Y-59020875D01*
X99924521Y-59020866D01*
X99922796Y-59017524D01*
X99853256Y-58937809D01*
X99817793Y-58897157D01*
X99817792Y-58897156D01*
X99815317Y-58894319D01*
X99810595Y-58891000D01*
X99687709Y-58804634D01*
X99662078Y-58764245D01*
X99672513Y-58717562D01*
X99712902Y-58691931D01*
X99723647Y-58691000D01*
X100087768Y-58691000D01*
X100095107Y-58692250D01*
X100095190Y-58691523D01*
X100102181Y-58692320D01*
X100108822Y-58694652D01*
X100115815Y-58693874D01*
X100115816Y-58693874D01*
X100138197Y-58691383D01*
X100145110Y-58691000D01*
X100152533Y-58691000D01*
X100159465Y-58689419D01*
X100166418Y-58688243D01*
X100195429Y-58685014D01*
X100201393Y-58681281D01*
X100205341Y-58679906D01*
X100209100Y-58678097D01*
X100215959Y-58676532D01*
X100238774Y-58658351D01*
X100244559Y-58654256D01*
X100247715Y-58652280D01*
X100247717Y-58652279D01*
X100250711Y-58650404D01*
X100255923Y-58645192D01*
X100261167Y-58640507D01*
X100278604Y-58626612D01*
X100278604Y-58626611D01*
X100284109Y-58622225D01*
X100287167Y-58615886D01*
X100291558Y-58610385D01*
X100292092Y-58610811D01*
X100296468Y-58604647D01*
X100404485Y-58496629D01*
X100410560Y-58492322D01*
X100410105Y-58491750D01*
X100415613Y-58487369D01*
X100421958Y-58484322D01*
X100440422Y-58461234D01*
X100445039Y-58456075D01*
X100450283Y-58450831D01*
X100452145Y-58447868D01*
X100452151Y-58447861D01*
X100454058Y-58444826D01*
X100458163Y-58439050D01*
X100471988Y-58421763D01*
X100471988Y-58421762D01*
X100476383Y-58416267D01*
X100477402Y-58411836D01*
X100512036Y-58380977D01*
X100532591Y-58377500D01*
X101412558Y-58377500D01*
X101417616Y-58376494D01*
X101443713Y-58371303D01*
X101443715Y-58371302D01*
X101449748Y-58370102D01*
X101491922Y-58341922D01*
X101520102Y-58299748D01*
X101527500Y-58262558D01*
X101527500Y-58103500D01*
X101545806Y-58059306D01*
X101590000Y-58041000D01*
X101936768Y-58041000D01*
X101944107Y-58042250D01*
X101944190Y-58041523D01*
X101951181Y-58042320D01*
X101957822Y-58044652D01*
X101964815Y-58043874D01*
X101964816Y-58043874D01*
X101987197Y-58041383D01*
X101994110Y-58041000D01*
X102001533Y-58041000D01*
X102004948Y-58040221D01*
X102004949Y-58040221D01*
X102005771Y-58040033D01*
X102008456Y-58039421D01*
X102015437Y-58038241D01*
X102018650Y-58037883D01*
X102025554Y-58037500D01*
X102396348Y-58037500D01*
X102399358Y-58036901D01*
X102399361Y-58036901D01*
X102441831Y-58028453D01*
X102474373Y-58021980D01*
X102479490Y-58018561D01*
X102479492Y-58018560D01*
X102557740Y-57966276D01*
X102562857Y-57962857D01*
X102621980Y-57874373D01*
X102629310Y-57837524D01*
X102636901Y-57799361D01*
X102636901Y-57799358D01*
X102637500Y-57796348D01*
X102637500Y-57463652D01*
X102636858Y-57460421D01*
X102623181Y-57391666D01*
X102621980Y-57385627D01*
X102606992Y-57363195D01*
X102566276Y-57302260D01*
X102562857Y-57297143D01*
X102477189Y-57239901D01*
X102450613Y-57200128D01*
X102459945Y-57153212D01*
X102485498Y-57131291D01*
X102563066Y-57095120D01*
X102571892Y-57088940D01*
X102648940Y-57011892D01*
X102655120Y-57003067D01*
X102701460Y-56903689D01*
X102704105Y-56894615D01*
X102709733Y-56851871D01*
X102710000Y-56847793D01*
X102710000Y-56782431D01*
X102706359Y-56773641D01*
X102697569Y-56770000D01*
X101702431Y-56770000D01*
X101693641Y-56773641D01*
X101690000Y-56782431D01*
X101690000Y-56847793D01*
X101690267Y-56851871D01*
X101695895Y-56894615D01*
X101698540Y-56903689D01*
X101744880Y-57003067D01*
X101751060Y-57011892D01*
X101828108Y-57088940D01*
X101836934Y-57095120D01*
X101914502Y-57131291D01*
X101946819Y-57166559D01*
X101944732Y-57214349D01*
X101922812Y-57239901D01*
X101837143Y-57297143D01*
X101833724Y-57302260D01*
X101793009Y-57363195D01*
X101778020Y-57385627D01*
X101776819Y-57391666D01*
X101763143Y-57460421D01*
X101762500Y-57463652D01*
X101762500Y-57596500D01*
X101744194Y-57640694D01*
X101700000Y-57659000D01*
X101590000Y-57659000D01*
X101545806Y-57640694D01*
X101527500Y-57596500D01*
X101527500Y-57437442D01*
X101526494Y-57432384D01*
X101521303Y-57406287D01*
X101521302Y-57406285D01*
X101520102Y-57400252D01*
X101491922Y-57358078D01*
X101482776Y-57351967D01*
X101456200Y-57312194D01*
X101465532Y-57265277D01*
X101482776Y-57248033D01*
X101486805Y-57245341D01*
X101491922Y-57241922D01*
X101520102Y-57199748D01*
X101527500Y-57162558D01*
X101527500Y-56557569D01*
X101690000Y-56557569D01*
X101693641Y-56566359D01*
X101702431Y-56570000D01*
X102087569Y-56570000D01*
X102096359Y-56566359D01*
X102100000Y-56557569D01*
X102300000Y-56557569D01*
X102303641Y-56566359D01*
X102312431Y-56570000D01*
X102697569Y-56570000D01*
X102706359Y-56566359D01*
X102710000Y-56557569D01*
X102710000Y-56492207D01*
X102709733Y-56488129D01*
X102704105Y-56445385D01*
X102701460Y-56436311D01*
X102655120Y-56336933D01*
X102648940Y-56328108D01*
X102571892Y-56251060D01*
X102563067Y-56244880D01*
X102463689Y-56198540D01*
X102454615Y-56195895D01*
X102411871Y-56190267D01*
X102407793Y-56190000D01*
X102312431Y-56190000D01*
X102303641Y-56193641D01*
X102300000Y-56202431D01*
X102300000Y-56557569D01*
X102100000Y-56557569D01*
X102100000Y-56202431D01*
X102096359Y-56193641D01*
X102087569Y-56190000D01*
X101992207Y-56190000D01*
X101988129Y-56190267D01*
X101945385Y-56195895D01*
X101936311Y-56198540D01*
X101836933Y-56244880D01*
X101828108Y-56251060D01*
X101751060Y-56328108D01*
X101744880Y-56336933D01*
X101698540Y-56436311D01*
X101695895Y-56445385D01*
X101690267Y-56488129D01*
X101690000Y-56492207D01*
X101690000Y-56557569D01*
X101527500Y-56557569D01*
X101527500Y-56337442D01*
X101524326Y-56321487D01*
X101521303Y-56306287D01*
X101521302Y-56306285D01*
X101520102Y-56300252D01*
X101491922Y-56258078D01*
X101449748Y-56229898D01*
X101445115Y-56228976D01*
X101411806Y-56195667D01*
X101411807Y-56147832D01*
X101425355Y-56127556D01*
X101982105Y-55570806D01*
X102026299Y-55552500D01*
X102081212Y-55552500D01*
X102084222Y-55551901D01*
X102084225Y-55551901D01*
X102124216Y-55543946D01*
X102136634Y-55541476D01*
X102141751Y-55538057D01*
X102141753Y-55538056D01*
X102191692Y-55504687D01*
X102199482Y-55499482D01*
X102202901Y-55494365D01*
X102205806Y-55491460D01*
X102250000Y-55473154D01*
X102294194Y-55491460D01*
X102297099Y-55494365D01*
X102300518Y-55499482D01*
X102308308Y-55504687D01*
X102358247Y-55538056D01*
X102358249Y-55538057D01*
X102363366Y-55541476D01*
X102375784Y-55543946D01*
X102415775Y-55551901D01*
X102415778Y-55551901D01*
X102418788Y-55552500D01*
X102581212Y-55552500D01*
X102584222Y-55551901D01*
X102584225Y-55551901D01*
X102624216Y-55543946D01*
X102636634Y-55541476D01*
X102641751Y-55538057D01*
X102641753Y-55538056D01*
X102691692Y-55504687D01*
X102699482Y-55499482D01*
X102717586Y-55472388D01*
X102738056Y-55441753D01*
X102738057Y-55441751D01*
X102741476Y-55436634D01*
X102752500Y-55381212D01*
X102752500Y-54393788D01*
X102748081Y-54371573D01*
X102757413Y-54324657D01*
X102797186Y-54298081D01*
X102821572Y-54298081D01*
X102843788Y-54302500D01*
X103831212Y-54302500D01*
X103834222Y-54301901D01*
X103834225Y-54301901D01*
X103861648Y-54296446D01*
X103886634Y-54291476D01*
X103891751Y-54288057D01*
X103891753Y-54288056D01*
X103944365Y-54252901D01*
X103949482Y-54249482D01*
X103991476Y-54186634D01*
X103998020Y-54153733D01*
X104001901Y-54134225D01*
X104001901Y-54134222D01*
X104002500Y-54131212D01*
X104002500Y-53968788D01*
X104000741Y-53959942D01*
X103992677Y-53919405D01*
X103991476Y-53913366D01*
X103977813Y-53892918D01*
X103968480Y-53846002D01*
X103992623Y-53809868D01*
X103992281Y-53809526D01*
X103994000Y-53807807D01*
X103995055Y-53806228D01*
X103996634Y-53805173D01*
X104005171Y-53796635D01*
X104056350Y-53720042D01*
X104060971Y-53708884D01*
X104070259Y-53662193D01*
X104068403Y-53652861D01*
X104064120Y-53650000D01*
X102614747Y-53650000D01*
X102605957Y-53653641D01*
X102603987Y-53658398D01*
X102614029Y-53708884D01*
X102618650Y-53720042D01*
X102669829Y-53796635D01*
X102678366Y-53805173D01*
X102679945Y-53806228D01*
X102681000Y-53807807D01*
X102682719Y-53809526D01*
X102682377Y-53809868D01*
X102706520Y-53846002D01*
X102697187Y-53892918D01*
X102683524Y-53913366D01*
X102682323Y-53919405D01*
X102674260Y-53959942D01*
X102672500Y-53968788D01*
X102672500Y-54131212D01*
X102676107Y-54149342D01*
X102676919Y-54153426D01*
X102667587Y-54200343D01*
X102627814Y-54226919D01*
X102603428Y-54226919D01*
X102581212Y-54222500D01*
X102418788Y-54222500D01*
X102415778Y-54223099D01*
X102415775Y-54223099D01*
X102389297Y-54228366D01*
X102363366Y-54233524D01*
X102358249Y-54236943D01*
X102358247Y-54236944D01*
X102347141Y-54244365D01*
X102300518Y-54275518D01*
X102297099Y-54280635D01*
X102294194Y-54283540D01*
X102250000Y-54301846D01*
X102205806Y-54283540D01*
X102202901Y-54280635D01*
X102199482Y-54275518D01*
X102160292Y-54249332D01*
X102133718Y-54209559D01*
X102143050Y-54162642D01*
X102148680Y-54155424D01*
X102149299Y-54154741D01*
X102169200Y-54132754D01*
X102231710Y-54003733D01*
X102232635Y-53998238D01*
X102242529Y-53939425D01*
X102255496Y-53862354D01*
X102255647Y-53850000D01*
X102235323Y-53708082D01*
X102175984Y-53577572D01*
X102082400Y-53468963D01*
X101962095Y-53390985D01*
X101957833Y-53389710D01*
X101957830Y-53389709D01*
X101886388Y-53368344D01*
X101847000Y-53356565D01*
X101809904Y-53326364D01*
X101805028Y-53278778D01*
X101820714Y-53252491D01*
X101976768Y-53096437D01*
X102020962Y-53078131D01*
X102055592Y-53088603D01*
X102082313Y-53106390D01*
X102127039Y-53120363D01*
X102214905Y-53147814D01*
X102214908Y-53147814D01*
X102219157Y-53149142D01*
X102223609Y-53149224D01*
X102223611Y-53149224D01*
X102294642Y-53150526D01*
X102362499Y-53151770D01*
X102500817Y-53114060D01*
X102504606Y-53111734D01*
X102504612Y-53111731D01*
X102577297Y-53067102D01*
X102624537Y-53059577D01*
X102663261Y-53087660D01*
G37*
%TD.AperFunction*%
%TA.AperFunction,Conductor*%
G36*
X95942271Y-55280806D02*
G01*
X96915451Y-56253985D01*
X96919758Y-56260060D01*
X96920330Y-56259605D01*
X96924711Y-56265113D01*
X96927758Y-56271458D01*
X96933255Y-56275854D01*
X96950846Y-56289922D01*
X96956005Y-56294539D01*
X96961249Y-56299783D01*
X96964212Y-56301645D01*
X96964219Y-56301651D01*
X96967254Y-56303558D01*
X96973030Y-56307663D01*
X96995813Y-56325883D01*
X97002671Y-56327460D01*
X97006436Y-56329280D01*
X97010372Y-56330658D01*
X97016328Y-56334402D01*
X97023319Y-56335192D01*
X97023324Y-56335194D01*
X97045317Y-56337680D01*
X97052303Y-56338873D01*
X97059377Y-56340500D01*
X97066757Y-56340500D01*
X97073778Y-56340896D01*
X97102918Y-56344190D01*
X97109564Y-56341869D01*
X97116558Y-56341085D01*
X97116634Y-56341764D01*
X97124084Y-56340500D01*
X97821043Y-56340500D01*
X97865237Y-56358806D01*
X97883543Y-56403000D01*
X97879475Y-56423449D01*
X97878020Y-56425627D01*
X97876819Y-56431663D01*
X97876819Y-56431664D01*
X97863923Y-56496500D01*
X97862500Y-56503652D01*
X97862500Y-56836348D01*
X97863099Y-56839358D01*
X97863099Y-56839361D01*
X97867416Y-56861063D01*
X97878020Y-56914373D01*
X97881439Y-56919490D01*
X97881440Y-56919492D01*
X97926581Y-56987049D01*
X97937143Y-57002857D01*
X98022811Y-57060099D01*
X98049387Y-57099872D01*
X98040055Y-57146788D01*
X98014502Y-57168709D01*
X97936934Y-57204880D01*
X97928108Y-57211060D01*
X97851060Y-57288108D01*
X97844880Y-57296933D01*
X97798540Y-57396311D01*
X97795895Y-57405385D01*
X97790267Y-57448129D01*
X97790000Y-57452207D01*
X97790000Y-57517569D01*
X97793641Y-57526359D01*
X97802431Y-57530000D01*
X98797569Y-57530000D01*
X98806359Y-57526359D01*
X98810000Y-57517569D01*
X98810000Y-57452207D01*
X98809733Y-57448129D01*
X98804105Y-57405385D01*
X98801460Y-57396311D01*
X98755120Y-57296933D01*
X98748940Y-57288108D01*
X98671892Y-57211060D01*
X98663066Y-57204880D01*
X98585498Y-57168709D01*
X98553181Y-57133441D01*
X98555268Y-57085651D01*
X98577188Y-57060099D01*
X98662857Y-57002857D01*
X98685628Y-56968777D01*
X98725401Y-56942201D01*
X98737595Y-56941000D01*
X98910000Y-56941000D01*
X98954194Y-56959306D01*
X98972500Y-57003500D01*
X98972500Y-57162558D01*
X98979898Y-57199748D01*
X99008078Y-57241922D01*
X99013195Y-57245341D01*
X99017224Y-57248033D01*
X99043800Y-57287806D01*
X99034468Y-57334723D01*
X99017225Y-57351966D01*
X99008078Y-57358078D01*
X98979898Y-57400252D01*
X98978698Y-57406285D01*
X98978697Y-57406287D01*
X98973506Y-57432384D01*
X98972500Y-57437442D01*
X98972500Y-58262558D01*
X98979898Y-58299748D01*
X99008078Y-58341922D01*
X99050252Y-58370102D01*
X99056285Y-58371302D01*
X99056287Y-58371303D01*
X99082384Y-58376494D01*
X99087442Y-58377500D01*
X99301497Y-58377500D01*
X99345691Y-58395806D01*
X99363997Y-58440000D01*
X99345691Y-58484194D01*
X99255513Y-58574372D01*
X99249439Y-58578677D01*
X99249895Y-58579250D01*
X99244387Y-58583631D01*
X99238042Y-58586678D01*
X99233646Y-58592175D01*
X99219582Y-58609761D01*
X99214965Y-58614920D01*
X99209716Y-58620169D01*
X99207847Y-58623143D01*
X99205943Y-58626172D01*
X99201838Y-58631948D01*
X99183617Y-58654733D01*
X99182040Y-58661593D01*
X99180222Y-58665353D01*
X99178844Y-58669289D01*
X99175098Y-58675248D01*
X99174307Y-58682242D01*
X99174307Y-58682243D01*
X99171821Y-58704236D01*
X99170629Y-58711213D01*
X99169000Y-58718297D01*
X99169000Y-58718299D01*
X99167424Y-58717937D01*
X99146798Y-58755200D01*
X99129953Y-58764776D01*
X99044745Y-58796973D01*
X99041640Y-58799107D01*
X98915656Y-58885694D01*
X98910003Y-58889579D01*
X98801240Y-59011652D01*
X98780478Y-59050865D01*
X98743622Y-59081355D01*
X98695999Y-59076854D01*
X98669706Y-59050284D01*
X98654527Y-59020875D01*
X98654521Y-59020866D01*
X98652796Y-59017524D01*
X98583256Y-58937809D01*
X98547793Y-58897157D01*
X98547792Y-58897156D01*
X98545317Y-58894319D01*
X98539901Y-58890512D01*
X98417709Y-58804634D01*
X98411552Y-58800307D01*
X98408041Y-58798938D01*
X98408039Y-58798937D01*
X98330797Y-58768822D01*
X98296271Y-58735713D01*
X98291000Y-58710591D01*
X98291000Y-58705899D01*
X98291037Y-58663635D01*
X98291037Y-58663634D01*
X98291043Y-58656596D01*
X98284491Y-58642951D01*
X98279899Y-58629801D01*
X98278098Y-58621904D01*
X98278097Y-58621902D01*
X98276532Y-58615041D01*
X98267240Y-58603380D01*
X98259779Y-58591487D01*
X98256369Y-58584387D01*
X98253322Y-58578042D01*
X98241498Y-58568586D01*
X98231660Y-58558731D01*
X98222225Y-58546891D01*
X98208793Y-58540413D01*
X98196916Y-58532934D01*
X98185267Y-58523617D01*
X98170513Y-58520224D01*
X98157369Y-58515608D01*
X98150078Y-58512091D01*
X98150076Y-58512091D01*
X98143737Y-58509033D01*
X98122868Y-58509015D01*
X98121771Y-58509014D01*
X98121760Y-58509013D01*
X98121703Y-58509000D01*
X98105899Y-58509000D01*
X98056844Y-58508957D01*
X98056596Y-58508957D01*
X98056520Y-58508993D01*
X98056461Y-58509000D01*
X96305002Y-58509000D01*
X96260808Y-58490694D01*
X95709306Y-57939191D01*
X95691000Y-57894997D01*
X95691000Y-57807793D01*
X97790000Y-57807793D01*
X97790267Y-57811871D01*
X97795895Y-57854615D01*
X97798540Y-57863689D01*
X97844880Y-57963067D01*
X97851060Y-57971892D01*
X97928108Y-58048940D01*
X97936933Y-58055120D01*
X98036311Y-58101460D01*
X98045385Y-58104105D01*
X98088129Y-58109733D01*
X98092207Y-58110000D01*
X98187569Y-58110000D01*
X98196359Y-58106359D01*
X98200000Y-58097569D01*
X98400000Y-58097569D01*
X98403641Y-58106359D01*
X98412431Y-58110000D01*
X98507793Y-58110000D01*
X98511871Y-58109733D01*
X98554615Y-58104105D01*
X98563689Y-58101460D01*
X98663067Y-58055120D01*
X98671892Y-58048940D01*
X98748940Y-57971892D01*
X98755120Y-57963067D01*
X98801460Y-57863689D01*
X98804105Y-57854615D01*
X98809733Y-57811871D01*
X98810000Y-57807793D01*
X98810000Y-57742431D01*
X98806359Y-57733641D01*
X98797569Y-57730000D01*
X98412431Y-57730000D01*
X98403641Y-57733641D01*
X98400000Y-57742431D01*
X98400000Y-58097569D01*
X98200000Y-58097569D01*
X98200000Y-57742431D01*
X98196359Y-57733641D01*
X98187569Y-57730000D01*
X97802431Y-57730000D01*
X97793641Y-57733641D01*
X97790000Y-57742431D01*
X97790000Y-57807793D01*
X95691000Y-57807793D01*
X95691000Y-56255054D01*
X95709306Y-56210860D01*
X95720797Y-56201792D01*
X95726094Y-56198540D01*
X95822991Y-56139045D01*
X95849334Y-56109942D01*
X95916213Y-56036054D01*
X95919200Y-56032754D01*
X95981710Y-55903733D01*
X95986795Y-55873512D01*
X96005096Y-55764729D01*
X96005496Y-55762354D01*
X96005647Y-55750000D01*
X95985323Y-55608082D01*
X95925984Y-55477572D01*
X95845551Y-55384225D01*
X95835305Y-55372334D01*
X95835304Y-55372333D01*
X95832400Y-55368963D01*
X95833155Y-55368313D01*
X95813765Y-55329250D01*
X95829023Y-55283913D01*
X95876120Y-55262500D01*
X95898077Y-55262500D01*
X95942271Y-55280806D01*
G37*
%TD.AperFunction*%
%TA.AperFunction,Conductor*%
G36*
X97424633Y-53467995D02*
G01*
X97481133Y-53505605D01*
X97507778Y-53545332D01*
X97509000Y-53557632D01*
X97509000Y-53656768D01*
X97507750Y-53664107D01*
X97508477Y-53664190D01*
X97507680Y-53671181D01*
X97505348Y-53677822D01*
X97506126Y-53684815D01*
X97506126Y-53684816D01*
X97508617Y-53707197D01*
X97509000Y-53714110D01*
X97509000Y-53721533D01*
X97510581Y-53728465D01*
X97511757Y-53735418D01*
X97514986Y-53764429D01*
X97518719Y-53770393D01*
X97520094Y-53774341D01*
X97521903Y-53778100D01*
X97523468Y-53784959D01*
X97527853Y-53790461D01*
X97527853Y-53790462D01*
X97541648Y-53807773D01*
X97545744Y-53813559D01*
X97549596Y-53819711D01*
X97554809Y-53824924D01*
X97559494Y-53830168D01*
X97572112Y-53846002D01*
X97577775Y-53853109D01*
X97584114Y-53856167D01*
X97589615Y-53860558D01*
X97589189Y-53861092D01*
X97595353Y-53865468D01*
X97713076Y-53983191D01*
X97717381Y-53989265D01*
X97717954Y-53988809D01*
X97722335Y-53994317D01*
X97725382Y-54000662D01*
X97730879Y-54005058D01*
X97748465Y-54019122D01*
X97753624Y-54023739D01*
X97758873Y-54028988D01*
X97761847Y-54030857D01*
X97764876Y-54032761D01*
X97770652Y-54036866D01*
X97781279Y-54045364D01*
X97787392Y-54050253D01*
X97792550Y-54054869D01*
X97874398Y-54136717D01*
X97892704Y-54180911D01*
X97874398Y-54225105D01*
X97862882Y-54232797D01*
X97863367Y-54233523D01*
X97842918Y-54247187D01*
X97796002Y-54256520D01*
X97759868Y-54232377D01*
X97759526Y-54232719D01*
X97757807Y-54231000D01*
X97756228Y-54229945D01*
X97755173Y-54228366D01*
X97746635Y-54219829D01*
X97670042Y-54168650D01*
X97658884Y-54164029D01*
X97612193Y-54154741D01*
X97602861Y-54156597D01*
X97600000Y-54160880D01*
X97600000Y-54925000D01*
X97581694Y-54969194D01*
X97537500Y-54987500D01*
X97187431Y-54987500D01*
X97178641Y-54991141D01*
X97175000Y-54999931D01*
X97175000Y-55103997D01*
X97156694Y-55148191D01*
X97112500Y-55166497D01*
X97068306Y-55148191D01*
X96379128Y-54459013D01*
X96374823Y-54452939D01*
X96374250Y-54453395D01*
X96369869Y-54447887D01*
X96366822Y-54441542D01*
X96343739Y-54423082D01*
X96338580Y-54418465D01*
X96333331Y-54413216D01*
X96333058Y-54413044D01*
X96310375Y-54371989D01*
X96323624Y-54326025D01*
X96365494Y-54302892D01*
X96372483Y-54302500D01*
X97115581Y-54302500D01*
X97159775Y-54320806D01*
X97178081Y-54365000D01*
X97176880Y-54377194D01*
X97175599Y-54383634D01*
X97175000Y-54389715D01*
X97175000Y-54775069D01*
X97178641Y-54783859D01*
X97187431Y-54787500D01*
X97387569Y-54787500D01*
X97396359Y-54783859D01*
X97400000Y-54775069D01*
X97400000Y-54164747D01*
X97396359Y-54155957D01*
X97376082Y-54147558D01*
X97376317Y-54146991D01*
X97350351Y-54139114D01*
X97327801Y-54096928D01*
X97327500Y-54090801D01*
X97327500Y-53968788D01*
X97325741Y-53959942D01*
X97317677Y-53919405D01*
X97316476Y-53913366D01*
X97312328Y-53907157D01*
X97279463Y-53857972D01*
X97274482Y-53850518D01*
X97269365Y-53847099D01*
X97266460Y-53844194D01*
X97248154Y-53800000D01*
X97266460Y-53755806D01*
X97269365Y-53752901D01*
X97274482Y-53749482D01*
X97294153Y-53720042D01*
X97313056Y-53691753D01*
X97313057Y-53691751D01*
X97316476Y-53686634D01*
X97323904Y-53649291D01*
X97326901Y-53634225D01*
X97326901Y-53634222D01*
X97327500Y-53631212D01*
X97327500Y-53520022D01*
X97345806Y-53475828D01*
X97390000Y-53457522D01*
X97424633Y-53467995D01*
G37*
%TD.AperFunction*%
%TA.AperFunction,Conductor*%
G36*
X102654370Y-50922806D02*
G01*
X102672676Y-50967000D01*
X102672617Y-50968200D01*
X102672500Y-50968788D01*
X102672500Y-51131212D01*
X102683524Y-51186634D01*
X102686943Y-51191751D01*
X102686944Y-51191753D01*
X102703950Y-51217203D01*
X102725518Y-51249482D01*
X102730635Y-51252901D01*
X102733540Y-51255806D01*
X102751846Y-51300000D01*
X102733540Y-51344194D01*
X102730635Y-51347099D01*
X102725518Y-51350518D01*
X102719724Y-51359190D01*
X102688418Y-51406042D01*
X102683524Y-51413366D01*
X102682323Y-51419405D01*
X102674417Y-51459152D01*
X102672500Y-51468788D01*
X102672500Y-51631212D01*
X102673099Y-51634222D01*
X102673099Y-51634225D01*
X102673692Y-51637205D01*
X102683524Y-51686634D01*
X102686943Y-51691751D01*
X102686944Y-51691753D01*
X102706843Y-51721533D01*
X102725518Y-51749482D01*
X102730635Y-51752901D01*
X102733540Y-51755806D01*
X102751846Y-51800000D01*
X102733540Y-51844194D01*
X102730635Y-51847099D01*
X102725518Y-51850518D01*
X102718809Y-51860558D01*
X102687311Y-51907699D01*
X102683524Y-51913366D01*
X102682323Y-51919405D01*
X102673753Y-51962491D01*
X102672500Y-51968788D01*
X102672500Y-52131212D01*
X102673099Y-52134222D01*
X102673099Y-52134225D01*
X102681026Y-52174075D01*
X102671694Y-52220991D01*
X102631920Y-52247567D01*
X102585733Y-52238715D01*
X102512095Y-52190985D01*
X102506097Y-52189191D01*
X102455552Y-52174075D01*
X102374739Y-52149907D01*
X102303058Y-52149469D01*
X102235829Y-52149058D01*
X102235828Y-52149058D01*
X102231376Y-52149031D01*
X102093529Y-52188428D01*
X101972280Y-52264930D01*
X101969337Y-52268262D01*
X101969335Y-52268264D01*
X101882258Y-52366861D01*
X101877377Y-52372388D01*
X101816447Y-52502163D01*
X101815762Y-52506561D01*
X101815762Y-52506562D01*
X101815127Y-52510639D01*
X101794391Y-52643823D01*
X101794968Y-52648236D01*
X101794968Y-52648238D01*
X101801357Y-52697099D01*
X101788936Y-52743293D01*
X101783579Y-52749396D01*
X100895513Y-53637462D01*
X100889439Y-53641767D01*
X100889895Y-53642340D01*
X100884387Y-53646721D01*
X100878042Y-53649768D01*
X100873646Y-53655265D01*
X100859582Y-53672851D01*
X100854965Y-53678010D01*
X100849716Y-53683259D01*
X100847847Y-53686233D01*
X100845943Y-53689262D01*
X100841838Y-53695038D01*
X100823617Y-53717823D01*
X100822040Y-53724683D01*
X100820222Y-53728443D01*
X100818844Y-53732379D01*
X100815098Y-53738338D01*
X100814307Y-53745332D01*
X100814307Y-53745333D01*
X100811821Y-53767326D01*
X100810629Y-53774303D01*
X100809000Y-53781387D01*
X100809000Y-53788761D01*
X100808604Y-53795782D01*
X100805309Y-53824928D01*
X100807630Y-53831573D01*
X100808414Y-53838567D01*
X100807736Y-53838643D01*
X100809000Y-53846095D01*
X100809000Y-54235846D01*
X100790694Y-54280040D01*
X100746500Y-54298346D01*
X100702579Y-54280153D01*
X100699482Y-54275518D01*
X100652859Y-54244365D01*
X100641753Y-54236944D01*
X100641751Y-54236943D01*
X100636634Y-54233524D01*
X100610703Y-54228366D01*
X100584225Y-54223099D01*
X100584222Y-54223099D01*
X100581212Y-54222500D01*
X100418788Y-54222500D01*
X100415778Y-54223099D01*
X100415775Y-54223099D01*
X100389297Y-54228366D01*
X100363366Y-54233524D01*
X100358249Y-54236943D01*
X100358247Y-54236944D01*
X100347141Y-54244365D01*
X100300518Y-54275518D01*
X100297099Y-54280635D01*
X100294194Y-54283540D01*
X100250000Y-54301846D01*
X100205806Y-54283540D01*
X100202901Y-54280635D01*
X100199482Y-54275518D01*
X100152859Y-54244365D01*
X100141753Y-54236944D01*
X100141751Y-54236943D01*
X100136634Y-54233524D01*
X100110703Y-54228366D01*
X100084225Y-54223099D01*
X100084222Y-54223099D01*
X100081212Y-54222500D01*
X99918788Y-54222500D01*
X99915778Y-54223099D01*
X99915775Y-54223099D01*
X99889297Y-54228366D01*
X99863366Y-54233524D01*
X99858249Y-54236943D01*
X99858247Y-54236944D01*
X99847141Y-54244365D01*
X99800518Y-54275518D01*
X99797099Y-54280635D01*
X99794194Y-54283540D01*
X99750000Y-54301846D01*
X99705806Y-54283540D01*
X99702901Y-54280635D01*
X99699482Y-54275518D01*
X99652859Y-54244365D01*
X99641753Y-54236944D01*
X99641751Y-54236943D01*
X99636634Y-54233524D01*
X99610703Y-54228366D01*
X99584225Y-54223099D01*
X99584222Y-54223099D01*
X99581212Y-54222500D01*
X99573898Y-54222500D01*
X99529704Y-54204194D01*
X99511398Y-54160000D01*
X99517652Y-54132749D01*
X99529768Y-54107741D01*
X99531710Y-54103733D01*
X99533973Y-54090286D01*
X99542959Y-54036869D01*
X99555496Y-53962354D01*
X99555647Y-53950000D01*
X99535323Y-53808082D01*
X99530512Y-53797500D01*
X99505673Y-53742868D01*
X99504045Y-53695061D01*
X99536700Y-53660105D01*
X99562568Y-53654500D01*
X100143268Y-53654500D01*
X100150607Y-53655750D01*
X100150690Y-53655023D01*
X100157681Y-53655820D01*
X100164322Y-53658152D01*
X100171315Y-53657374D01*
X100171316Y-53657374D01*
X100193697Y-53654883D01*
X100200610Y-53654500D01*
X100208033Y-53654500D01*
X100214965Y-53652919D01*
X100221918Y-53651743D01*
X100250929Y-53648514D01*
X100256895Y-53644779D01*
X100260842Y-53643405D01*
X100264598Y-53641597D01*
X100271459Y-53640032D01*
X100294274Y-53621851D01*
X100300059Y-53617756D01*
X100303215Y-53615780D01*
X100303217Y-53615779D01*
X100306211Y-53613904D01*
X100311423Y-53608692D01*
X100316667Y-53604007D01*
X100334104Y-53590112D01*
X100334104Y-53590111D01*
X100339609Y-53585725D01*
X100342667Y-53579386D01*
X100347058Y-53573885D01*
X100347592Y-53574311D01*
X100351968Y-53568147D01*
X101504485Y-52415629D01*
X101510560Y-52411322D01*
X101510105Y-52410750D01*
X101515613Y-52406369D01*
X101521958Y-52403322D01*
X101540422Y-52380234D01*
X101545039Y-52375075D01*
X101550283Y-52369831D01*
X101552145Y-52366868D01*
X101552151Y-52366861D01*
X101554058Y-52363826D01*
X101558163Y-52358050D01*
X101571987Y-52340764D01*
X101576383Y-52335267D01*
X101577960Y-52328409D01*
X101579780Y-52324644D01*
X101581158Y-52320708D01*
X101584902Y-52314752D01*
X101585692Y-52307761D01*
X101585694Y-52307756D01*
X101588180Y-52285763D01*
X101589373Y-52278778D01*
X101590208Y-52275146D01*
X101591000Y-52271703D01*
X101591000Y-52264323D01*
X101591396Y-52257303D01*
X101592469Y-52247814D01*
X101594690Y-52228162D01*
X101592369Y-52221516D01*
X101591585Y-52214522D01*
X101592264Y-52214446D01*
X101591000Y-52206996D01*
X101591000Y-51455054D01*
X101609306Y-51410860D01*
X101620797Y-51401792D01*
X101632871Y-51394379D01*
X101722991Y-51339045D01*
X101742168Y-51317859D01*
X101816213Y-51236054D01*
X101819200Y-51232754D01*
X101881710Y-51103733D01*
X101882449Y-51099342D01*
X101905096Y-50964734D01*
X101905096Y-50964729D01*
X101905496Y-50962354D01*
X101905636Y-50962378D01*
X101927421Y-50920755D01*
X101974507Y-50906617D01*
X101988428Y-50908191D01*
X101995072Y-50905871D01*
X102002067Y-50905086D01*
X102002143Y-50905764D01*
X102009595Y-50904500D01*
X102610176Y-50904500D01*
X102654370Y-50922806D01*
G37*
%TD.AperFunction*%
%TA.AperFunction,Conductor*%
G36*
X100961393Y-50609306D02*
G01*
X100979699Y-50653500D01*
X100973774Y-50680062D01*
X100916447Y-50802163D01*
X100894391Y-50943823D01*
X100894968Y-50948236D01*
X100894968Y-50948238D01*
X100897890Y-50970580D01*
X100912980Y-51085979D01*
X100914773Y-51090054D01*
X100964154Y-51202280D01*
X100970720Y-51217203D01*
X100978562Y-51226532D01*
X101060107Y-51323543D01*
X101060110Y-51323546D01*
X101062970Y-51326948D01*
X101115779Y-51362101D01*
X101181133Y-51405605D01*
X101207778Y-51445332D01*
X101209000Y-51457632D01*
X101209000Y-52144997D01*
X101190694Y-52189191D01*
X100125691Y-53254194D01*
X100081497Y-53272500D01*
X99695445Y-53272500D01*
X99651251Y-53254194D01*
X99632945Y-53210000D01*
X99651251Y-53165806D01*
X99662742Y-53156738D01*
X99769198Y-53091374D01*
X99772991Y-53089045D01*
X99794248Y-53065561D01*
X99866213Y-52986054D01*
X99869200Y-52982754D01*
X99931710Y-52853733D01*
X99955496Y-52712354D01*
X99955647Y-52700000D01*
X99935323Y-52558082D01*
X99875984Y-52427572D01*
X99799826Y-52339187D01*
X99785303Y-52322332D01*
X99782400Y-52318963D01*
X99662095Y-52240985D01*
X99654231Y-52238633D01*
X99573354Y-52214446D01*
X99524739Y-52199907D01*
X99414390Y-52199233D01*
X99370310Y-52180657D01*
X99352274Y-52136352D01*
X99353139Y-52126365D01*
X99355096Y-52114731D01*
X99355496Y-52112354D01*
X99355647Y-52100000D01*
X99335323Y-51958082D01*
X99330344Y-51947131D01*
X99328716Y-51899325D01*
X99343045Y-51877069D01*
X100610808Y-50609306D01*
X100655002Y-50591000D01*
X100917199Y-50591000D01*
X100961393Y-50609306D01*
G37*
%TD.AperFunction*%
%TA.AperFunction,Conductor*%
G36*
X94797694Y-45075425D02*
G01*
X94810707Y-45094447D01*
X94820720Y-45117203D01*
X94829311Y-45127423D01*
X94910107Y-45223543D01*
X94910110Y-45223546D01*
X94912970Y-45226948D01*
X95032313Y-45306390D01*
X95036564Y-45307718D01*
X95164905Y-45347814D01*
X95164908Y-45347814D01*
X95169157Y-45349142D01*
X95173609Y-45349224D01*
X95173611Y-45349224D01*
X95244642Y-45350526D01*
X95312499Y-45351770D01*
X95450817Y-45314060D01*
X95454608Y-45311732D01*
X95454611Y-45311731D01*
X95471663Y-45301261D01*
X95518903Y-45293737D01*
X95522539Y-45294916D01*
X95525627Y-45296980D01*
X95531665Y-45298181D01*
X95600639Y-45311901D01*
X95600642Y-45311901D01*
X95603652Y-45312500D01*
X95638019Y-45312500D01*
X95682213Y-45330806D01*
X95700519Y-45375000D01*
X95682213Y-45419194D01*
X95655196Y-45435094D01*
X95643529Y-45438428D01*
X95522280Y-45514930D01*
X95519337Y-45518262D01*
X95519335Y-45518264D01*
X95430324Y-45619051D01*
X95427377Y-45622388D01*
X95389277Y-45703538D01*
X95382995Y-45716917D01*
X95382668Y-45717497D01*
X95382250Y-45718442D01*
X95382249Y-45718506D01*
X95380999Y-45721168D01*
X95378020Y-45725627D01*
X95377577Y-45727856D01*
X95376800Y-45728633D01*
X95377369Y-45728900D01*
X95366447Y-45752163D01*
X95365762Y-45756561D01*
X95365762Y-45756562D01*
X95360689Y-45789144D01*
X95344391Y-45893823D01*
X95344968Y-45898236D01*
X95344968Y-45898238D01*
X95361972Y-46028270D01*
X95362500Y-46036374D01*
X95362500Y-46136348D01*
X95363099Y-46139358D01*
X95363099Y-46139361D01*
X95366823Y-46158082D01*
X95378020Y-46214373D01*
X95381439Y-46219490D01*
X95381440Y-46219492D01*
X95416453Y-46271892D01*
X95437143Y-46302857D01*
X95522811Y-46360099D01*
X95549387Y-46399872D01*
X95540055Y-46446788D01*
X95514502Y-46468709D01*
X95436934Y-46504880D01*
X95428108Y-46511060D01*
X95351060Y-46588108D01*
X95344880Y-46596933D01*
X95298540Y-46696311D01*
X95295895Y-46705385D01*
X95290267Y-46748129D01*
X95290000Y-46752207D01*
X95290000Y-46817569D01*
X95293641Y-46826359D01*
X95302431Y-46830000D01*
X96297569Y-46830000D01*
X96306359Y-46826359D01*
X96310000Y-46817569D01*
X96310000Y-46752207D01*
X96309733Y-46748129D01*
X96304105Y-46705385D01*
X96301460Y-46696311D01*
X96255120Y-46596933D01*
X96248940Y-46588108D01*
X96171892Y-46511060D01*
X96163066Y-46504880D01*
X96085498Y-46468709D01*
X96053181Y-46433441D01*
X96055268Y-46385651D01*
X96077188Y-46360099D01*
X96162857Y-46302857D01*
X96166562Y-46297312D01*
X96167141Y-46296446D01*
X96173438Y-46289449D01*
X96172991Y-46289045D01*
X96241319Y-46213557D01*
X96284548Y-46193076D01*
X96329598Y-46209162D01*
X96348954Y-46243305D01*
X96357730Y-46287423D01*
X96361149Y-46292540D01*
X96361150Y-46292542D01*
X96391294Y-46337655D01*
X96415748Y-46374252D01*
X96420865Y-46377671D01*
X96497458Y-46428850D01*
X96497460Y-46428851D01*
X96502577Y-46432270D01*
X96524054Y-46436542D01*
X96576131Y-46446901D01*
X96576134Y-46446901D01*
X96579144Y-46447500D01*
X96900856Y-46447500D01*
X96903866Y-46446901D01*
X96903869Y-46446901D01*
X96955946Y-46436542D01*
X96977423Y-46432270D01*
X96982540Y-46428851D01*
X96982542Y-46428850D01*
X97039042Y-46391097D01*
X97085958Y-46381765D01*
X97121802Y-46405715D01*
X97122968Y-46404786D01*
X97141148Y-46427600D01*
X97145244Y-46433386D01*
X97145331Y-46433525D01*
X97149096Y-46439538D01*
X97154309Y-46444751D01*
X97158994Y-46449995D01*
X97177275Y-46472936D01*
X97183614Y-46475994D01*
X97189115Y-46480385D01*
X97188689Y-46480919D01*
X97194853Y-46485295D01*
X97427545Y-46717987D01*
X97431850Y-46724061D01*
X97432423Y-46723605D01*
X97436804Y-46729113D01*
X97439851Y-46735458D01*
X97449798Y-46743413D01*
X97462934Y-46753918D01*
X97468093Y-46758535D01*
X97473341Y-46763783D01*
X97476312Y-46765650D01*
X97476313Y-46765651D01*
X97479342Y-46767555D01*
X97485117Y-46771659D01*
X97502409Y-46785488D01*
X97502413Y-46785490D01*
X97507906Y-46789883D01*
X97514763Y-46791460D01*
X97518525Y-46793278D01*
X97522463Y-46794657D01*
X97528421Y-46798402D01*
X97535412Y-46799192D01*
X97535417Y-46799194D01*
X97557410Y-46801680D01*
X97564396Y-46802873D01*
X97571470Y-46804500D01*
X97578850Y-46804500D01*
X97585871Y-46804896D01*
X97615011Y-46808190D01*
X97621657Y-46805869D01*
X97628651Y-46805085D01*
X97628727Y-46805764D01*
X97636177Y-46804500D01*
X98543268Y-46804500D01*
X98550607Y-46805750D01*
X98550690Y-46805023D01*
X98557681Y-46805820D01*
X98564322Y-46808152D01*
X98571315Y-46807374D01*
X98571316Y-46807374D01*
X98592439Y-46805023D01*
X98593698Y-46804883D01*
X98600610Y-46804500D01*
X98608033Y-46804500D01*
X98614965Y-46802919D01*
X98621918Y-46801743D01*
X98650929Y-46798514D01*
X98656893Y-46794781D01*
X98660841Y-46793406D01*
X98664599Y-46791597D01*
X98671459Y-46790032D01*
X98676963Y-46785646D01*
X98676965Y-46785645D01*
X98678912Y-46784094D01*
X98682084Y-46783181D01*
X98683305Y-46782594D01*
X98683405Y-46782802D01*
X98724883Y-46770870D01*
X98736498Y-46773318D01*
X98814905Y-46797814D01*
X98814908Y-46797814D01*
X98819157Y-46799142D01*
X98849721Y-46799702D01*
X98893569Y-46818814D01*
X98911063Y-46863336D01*
X98910081Y-46871326D01*
X98910191Y-46871339D01*
X98909792Y-46874852D01*
X98909000Y-46878297D01*
X98909000Y-46885671D01*
X98908604Y-46892692D01*
X98905309Y-46921838D01*
X98907630Y-46928483D01*
X98908414Y-46935477D01*
X98907736Y-46935553D01*
X98909000Y-46943005D01*
X98909000Y-47156768D01*
X98907750Y-47164107D01*
X98908477Y-47164190D01*
X98907680Y-47171181D01*
X98905348Y-47177822D01*
X98906126Y-47184815D01*
X98906126Y-47184816D01*
X98908617Y-47207197D01*
X98909000Y-47214110D01*
X98909000Y-47221533D01*
X98910581Y-47228465D01*
X98911757Y-47235418D01*
X98914986Y-47264429D01*
X98918719Y-47270393D01*
X98920094Y-47274341D01*
X98921903Y-47278100D01*
X98923468Y-47284959D01*
X98927853Y-47290461D01*
X98927853Y-47290462D01*
X98941648Y-47307773D01*
X98945744Y-47313559D01*
X98949596Y-47319711D01*
X98954809Y-47324924D01*
X98959494Y-47330168D01*
X98977775Y-47353109D01*
X98984114Y-47356167D01*
X98989615Y-47360558D01*
X98989189Y-47361092D01*
X98995353Y-47365468D01*
X99070691Y-47440806D01*
X99088997Y-47485000D01*
X99070691Y-47529194D01*
X99026497Y-47547500D01*
X98918788Y-47547500D01*
X98915778Y-47548099D01*
X98915775Y-47548099D01*
X98889297Y-47553366D01*
X98863366Y-47558524D01*
X98858249Y-47561943D01*
X98858247Y-47561944D01*
X98815146Y-47590744D01*
X98800518Y-47600518D01*
X98797099Y-47605635D01*
X98794194Y-47608540D01*
X98750000Y-47626846D01*
X98705806Y-47608540D01*
X98702901Y-47605635D01*
X98699482Y-47600518D01*
X98684854Y-47590744D01*
X98641753Y-47561944D01*
X98641751Y-47561943D01*
X98636634Y-47558524D01*
X98610703Y-47553366D01*
X98584225Y-47548099D01*
X98584222Y-47548099D01*
X98581212Y-47547500D01*
X98418788Y-47547500D01*
X98415778Y-47548099D01*
X98415775Y-47548099D01*
X98389297Y-47553366D01*
X98363366Y-47558524D01*
X98358249Y-47561943D01*
X98358247Y-47561944D01*
X98315146Y-47590744D01*
X98300518Y-47600518D01*
X98297099Y-47605635D01*
X98294194Y-47608540D01*
X98250000Y-47626846D01*
X98205806Y-47608540D01*
X98202901Y-47605635D01*
X98199482Y-47600518D01*
X98184854Y-47590744D01*
X98141753Y-47561944D01*
X98141751Y-47561943D01*
X98136634Y-47558524D01*
X98110703Y-47553366D01*
X98084225Y-47548099D01*
X98084222Y-47548099D01*
X98081212Y-47547500D01*
X97918788Y-47547500D01*
X97915778Y-47548099D01*
X97915775Y-47548099D01*
X97889297Y-47553366D01*
X97863366Y-47558524D01*
X97858249Y-47561943D01*
X97858247Y-47561944D01*
X97815146Y-47590744D01*
X97800518Y-47600518D01*
X97797099Y-47605635D01*
X97794194Y-47608540D01*
X97750000Y-47626846D01*
X97705806Y-47608540D01*
X97702901Y-47605635D01*
X97699482Y-47600518D01*
X97684854Y-47590744D01*
X97641753Y-47561944D01*
X97641751Y-47561943D01*
X97636634Y-47558524D01*
X97610703Y-47553366D01*
X97584225Y-47548099D01*
X97584222Y-47548099D01*
X97581212Y-47547500D01*
X97418788Y-47547500D01*
X97415778Y-47548099D01*
X97415775Y-47548099D01*
X97389297Y-47553366D01*
X97363366Y-47558524D01*
X97358249Y-47561943D01*
X97358247Y-47561944D01*
X97315146Y-47590744D01*
X97300518Y-47600518D01*
X97297099Y-47605635D01*
X97272434Y-47642549D01*
X97258524Y-47663366D01*
X97247500Y-47718788D01*
X97247263Y-47718741D01*
X97225378Y-47759680D01*
X97202906Y-47771458D01*
X97143529Y-47788428D01*
X97022280Y-47864930D01*
X97019337Y-47868262D01*
X97019335Y-47868264D01*
X96976028Y-47917301D01*
X96927377Y-47972388D01*
X96869023Y-48096678D01*
X96867799Y-48099284D01*
X96832446Y-48131509D01*
X96784662Y-48129297D01*
X96763876Y-48113520D01*
X96685303Y-48022332D01*
X96682400Y-48018963D01*
X96562095Y-47940985D01*
X96551362Y-47937775D01*
X96482901Y-47917301D01*
X96424739Y-47899907D01*
X96353058Y-47899469D01*
X96285829Y-47899058D01*
X96285828Y-47899058D01*
X96281376Y-47899031D01*
X96143529Y-47938428D01*
X96022280Y-48014930D01*
X96019337Y-48018262D01*
X96019335Y-48018264D01*
X95945239Y-48102163D01*
X95927377Y-48122388D01*
X95866447Y-48252163D01*
X95844391Y-48393823D01*
X95844968Y-48398236D01*
X95844968Y-48398238D01*
X95846179Y-48407500D01*
X95862980Y-48535979D01*
X95864773Y-48540054D01*
X95918927Y-48663127D01*
X95920720Y-48667203D01*
X96012970Y-48776948D01*
X96020865Y-48782203D01*
X96047510Y-48821928D01*
X96038200Y-48868953D01*
X96022365Y-48892652D01*
X96008524Y-48913366D01*
X96006369Y-48924201D01*
X96001919Y-48946574D01*
X95997500Y-48968788D01*
X95997500Y-49131212D01*
X96008524Y-49186634D01*
X96011943Y-49191751D01*
X96011944Y-49191753D01*
X96040744Y-49234854D01*
X96050518Y-49249482D01*
X96055635Y-49252901D01*
X96058540Y-49255806D01*
X96076846Y-49300000D01*
X96058540Y-49344194D01*
X96055635Y-49347099D01*
X96050518Y-49350518D01*
X96047099Y-49355635D01*
X96012055Y-49408082D01*
X96008524Y-49413366D01*
X96006479Y-49423646D01*
X96000495Y-49453733D01*
X95997500Y-49468788D01*
X95997500Y-49631212D01*
X95998099Y-49634222D01*
X95998099Y-49634225D01*
X96002496Y-49656331D01*
X96008524Y-49686634D01*
X96011943Y-49691751D01*
X96011944Y-49691753D01*
X96029715Y-49718348D01*
X96050518Y-49749482D01*
X96055635Y-49752901D01*
X96058540Y-49755806D01*
X96076846Y-49800000D01*
X96058540Y-49844194D01*
X96055635Y-49847099D01*
X96050518Y-49850518D01*
X96043741Y-49860661D01*
X96016211Y-49901862D01*
X96008524Y-49913366D01*
X95997500Y-49968788D01*
X95997500Y-50131212D01*
X96008524Y-50186634D01*
X96011945Y-50191754D01*
X96022187Y-50207082D01*
X96031520Y-50253998D01*
X96007377Y-50290132D01*
X96007719Y-50290474D01*
X96006000Y-50292193D01*
X96004945Y-50293772D01*
X96003366Y-50294827D01*
X95994829Y-50303365D01*
X95943650Y-50379958D01*
X95939029Y-50391116D01*
X95929741Y-50437807D01*
X95931597Y-50447139D01*
X95935880Y-50450000D01*
X97385253Y-50450000D01*
X97394043Y-50446359D01*
X97396013Y-50441602D01*
X97385971Y-50391116D01*
X97381350Y-50379958D01*
X97330171Y-50303365D01*
X97321634Y-50294827D01*
X97320055Y-50293772D01*
X97319000Y-50292193D01*
X97317281Y-50290474D01*
X97317623Y-50290132D01*
X97293480Y-50253998D01*
X97302813Y-50207082D01*
X97313055Y-50191754D01*
X97316476Y-50186634D01*
X97327500Y-50131212D01*
X97327500Y-50048503D01*
X97345806Y-50004309D01*
X97390000Y-49986003D01*
X97434194Y-50004309D01*
X97634372Y-50204487D01*
X97638677Y-50210561D01*
X97639250Y-50210105D01*
X97643631Y-50215613D01*
X97646678Y-50221958D01*
X97652175Y-50226354D01*
X97669761Y-50240418D01*
X97674920Y-50245035D01*
X97680168Y-50250283D01*
X97683139Y-50252150D01*
X97683140Y-50252151D01*
X97686169Y-50254055D01*
X97691944Y-50258159D01*
X97709236Y-50271988D01*
X97709240Y-50271990D01*
X97714733Y-50276383D01*
X97721590Y-50277960D01*
X97725352Y-50279778D01*
X97729290Y-50281157D01*
X97735248Y-50284902D01*
X97742239Y-50285692D01*
X97742244Y-50285694D01*
X97764237Y-50288180D01*
X97771223Y-50289373D01*
X97778297Y-50291000D01*
X97785677Y-50291000D01*
X97792698Y-50291396D01*
X97821838Y-50294690D01*
X97828482Y-50292370D01*
X97835478Y-50291585D01*
X97835554Y-50292264D01*
X97843003Y-50291000D01*
X100237997Y-50291000D01*
X100282191Y-50309306D01*
X100300497Y-50353500D01*
X100282191Y-50397694D01*
X99070612Y-51609273D01*
X99026418Y-51627579D01*
X99008511Y-51624959D01*
X98929007Y-51601183D01*
X98929004Y-51601183D01*
X98924739Y-51599907D01*
X98853057Y-51599469D01*
X98785829Y-51599058D01*
X98785828Y-51599058D01*
X98781376Y-51599031D01*
X98643529Y-51638428D01*
X98639764Y-51640804D01*
X98639763Y-51640804D01*
X98600351Y-51665671D01*
X98553206Y-51673772D01*
X98514142Y-51646164D01*
X98504500Y-51612813D01*
X98504500Y-51559822D01*
X98505750Y-51552483D01*
X98505023Y-51552400D01*
X98505820Y-51545409D01*
X98508152Y-51538768D01*
X98504883Y-51509390D01*
X98504500Y-51502478D01*
X98504500Y-51495057D01*
X98502923Y-51488142D01*
X98501742Y-51481159D01*
X98499293Y-51459152D01*
X98498515Y-51452161D01*
X98494782Y-51446198D01*
X98493412Y-51442265D01*
X98491598Y-51438495D01*
X98490032Y-51431631D01*
X98471854Y-51408819D01*
X98467760Y-51403036D01*
X98465784Y-51399880D01*
X98465779Y-51399874D01*
X98463904Y-51396879D01*
X98458691Y-51391666D01*
X98454006Y-51386422D01*
X98440112Y-51368986D01*
X98440111Y-51368986D01*
X98435725Y-51363481D01*
X98429386Y-51360423D01*
X98423885Y-51356032D01*
X98424311Y-51355498D01*
X98418147Y-51351122D01*
X98012538Y-50945513D01*
X98008233Y-50939439D01*
X98007660Y-50939895D01*
X98003279Y-50934387D01*
X98000232Y-50928042D01*
X97977149Y-50909582D01*
X97971990Y-50904965D01*
X97966741Y-50899716D01*
X97960738Y-50895943D01*
X97954962Y-50891838D01*
X97932177Y-50873617D01*
X97925317Y-50872040D01*
X97921557Y-50870222D01*
X97917621Y-50868844D01*
X97911662Y-50865098D01*
X97904668Y-50864307D01*
X97904667Y-50864307D01*
X97882674Y-50861821D01*
X97875697Y-50860629D01*
X97868613Y-50859000D01*
X97861239Y-50859000D01*
X97854218Y-50858604D01*
X97852537Y-50858414D01*
X97825072Y-50855309D01*
X97818427Y-50857630D01*
X97811433Y-50858414D01*
X97811357Y-50857736D01*
X97803905Y-50859000D01*
X97405430Y-50859000D01*
X97361236Y-50840694D01*
X97342930Y-50796500D01*
X97353463Y-50761777D01*
X97381350Y-50720042D01*
X97385971Y-50708884D01*
X97395259Y-50662193D01*
X97393403Y-50652861D01*
X97389120Y-50650000D01*
X95939747Y-50650000D01*
X95930957Y-50653641D01*
X95928987Y-50658398D01*
X95936282Y-50695072D01*
X95926950Y-50741989D01*
X95887177Y-50768565D01*
X95840989Y-50759713D01*
X95815830Y-50743406D01*
X95812095Y-50740985D01*
X95799456Y-50737205D01*
X95704756Y-50708884D01*
X95674739Y-50699907D01*
X95603057Y-50699469D01*
X95535829Y-50699058D01*
X95535828Y-50699058D01*
X95531376Y-50699031D01*
X95393529Y-50738428D01*
X95309453Y-50791476D01*
X95294851Y-50800689D01*
X95247706Y-50808790D01*
X95208642Y-50781182D01*
X95199000Y-50747831D01*
X95199000Y-49762428D01*
X95217306Y-49718234D01*
X95262645Y-49699939D01*
X95362499Y-49701770D01*
X95500817Y-49664060D01*
X95622991Y-49589045D01*
X95649334Y-49559942D01*
X95716213Y-49486054D01*
X95719200Y-49482754D01*
X95781710Y-49353733D01*
X95782986Y-49346152D01*
X95793842Y-49281624D01*
X95805496Y-49212354D01*
X95805647Y-49200000D01*
X95785323Y-49058082D01*
X95725984Y-48927572D01*
X95637380Y-48824742D01*
X95635303Y-48822332D01*
X95632400Y-48818963D01*
X95512095Y-48740985D01*
X95499456Y-48737205D01*
X95447710Y-48721730D01*
X95374739Y-48699907D01*
X95303058Y-48699469D01*
X95235829Y-48699058D01*
X95235828Y-48699058D01*
X95231376Y-48699031D01*
X95093529Y-48738428D01*
X95089764Y-48740804D01*
X95089763Y-48740804D01*
X95040851Y-48771665D01*
X94993706Y-48779766D01*
X94954642Y-48752158D01*
X94945000Y-48718807D01*
X94945000Y-48227851D01*
X94963306Y-48183657D01*
X95000068Y-48146895D01*
X95044262Y-48128589D01*
X95062897Y-48131433D01*
X95139715Y-48155432D01*
X95144167Y-48155514D01*
X95144169Y-48155514D01*
X95215200Y-48156816D01*
X95283057Y-48158060D01*
X95421375Y-48120350D01*
X95543549Y-48045335D01*
X95639758Y-47939044D01*
X95702268Y-47810023D01*
X95705502Y-47790804D01*
X95717137Y-47721646D01*
X95726054Y-47668644D01*
X95726205Y-47656290D01*
X95705881Y-47514372D01*
X95696707Y-47494194D01*
X95688721Y-47476629D01*
X95687874Y-47426843D01*
X95700000Y-47397569D01*
X95900000Y-47397569D01*
X95903641Y-47406359D01*
X95912431Y-47410000D01*
X96007793Y-47410000D01*
X96011871Y-47409733D01*
X96054615Y-47404105D01*
X96063689Y-47401460D01*
X96163067Y-47355120D01*
X96171892Y-47348940D01*
X96248940Y-47271892D01*
X96255120Y-47263067D01*
X96301460Y-47163689D01*
X96304105Y-47154615D01*
X96309733Y-47111871D01*
X96310000Y-47107793D01*
X96310000Y-47042431D01*
X96306359Y-47033641D01*
X96297569Y-47030000D01*
X95912431Y-47030000D01*
X95903641Y-47033641D01*
X95900000Y-47042431D01*
X95900000Y-47397569D01*
X95700000Y-47397569D01*
X95700000Y-47042431D01*
X95696359Y-47033641D01*
X95687569Y-47030000D01*
X95302431Y-47030000D01*
X95293641Y-47033641D01*
X95290000Y-47042431D01*
X95290000Y-47093281D01*
X95271694Y-47137475D01*
X95227118Y-47155780D01*
X95156387Y-47155348D01*
X95156386Y-47155348D01*
X95151934Y-47155321D01*
X95014087Y-47194718D01*
X94892838Y-47271220D01*
X94889895Y-47274552D01*
X94889893Y-47274554D01*
X94800346Y-47375948D01*
X94757370Y-47396955D01*
X94712127Y-47381421D01*
X94691000Y-47334575D01*
X94691000Y-45119619D01*
X94709306Y-45075425D01*
X94753500Y-45057119D01*
X94797694Y-45075425D01*
G37*
%TD.AperFunction*%
%TA.AperFunction,Conductor*%
G36*
X104117563Y-49740925D02*
G01*
X104140582Y-49768974D01*
X104143641Y-49776359D01*
X104152431Y-49780000D01*
X104687500Y-49780000D01*
X104731694Y-49798306D01*
X104750000Y-49842500D01*
X104750000Y-50347569D01*
X104754322Y-50358003D01*
X104785820Y-50389500D01*
X104785821Y-50437336D01*
X104772272Y-50457613D01*
X104389191Y-50840694D01*
X104344997Y-50859000D01*
X103989154Y-50859000D01*
X103944960Y-50840694D01*
X103926654Y-50796500D01*
X103944847Y-50752579D01*
X103949482Y-50749482D01*
X103982375Y-50700255D01*
X103988056Y-50691753D01*
X103988057Y-50691751D01*
X103991476Y-50686634D01*
X104002500Y-50631212D01*
X104002500Y-50468788D01*
X103991476Y-50413366D01*
X103981005Y-50397694D01*
X103952901Y-50355635D01*
X103949482Y-50350518D01*
X103944365Y-50347099D01*
X103941460Y-50344194D01*
X103923154Y-50300000D01*
X103941460Y-50255806D01*
X103944365Y-50252901D01*
X103949482Y-50249482D01*
X103974512Y-50212022D01*
X103988056Y-50191753D01*
X103988057Y-50191751D01*
X103991476Y-50186634D01*
X104002500Y-50131212D01*
X104002500Y-50057793D01*
X104140000Y-50057793D01*
X104140267Y-50061871D01*
X104145895Y-50104615D01*
X104148540Y-50113689D01*
X104194880Y-50213067D01*
X104201060Y-50221892D01*
X104278108Y-50298940D01*
X104286933Y-50305120D01*
X104386311Y-50351460D01*
X104395385Y-50354105D01*
X104438129Y-50359733D01*
X104442207Y-50360000D01*
X104537569Y-50360000D01*
X104546359Y-50356359D01*
X104550000Y-50347569D01*
X104550000Y-49992431D01*
X104546359Y-49983641D01*
X104537569Y-49980000D01*
X104152431Y-49980000D01*
X104143641Y-49983641D01*
X104140000Y-49992431D01*
X104140000Y-50057793D01*
X104002500Y-50057793D01*
X104002500Y-49968788D01*
X103991476Y-49913366D01*
X103977813Y-49892918D01*
X103968480Y-49846002D01*
X103992623Y-49809868D01*
X103992281Y-49809526D01*
X103994000Y-49807807D01*
X103995055Y-49806228D01*
X103996634Y-49805173D01*
X104005171Y-49796636D01*
X104030873Y-49758169D01*
X104070647Y-49731593D01*
X104117563Y-49740925D01*
G37*
%TD.AperFunction*%
%TA.AperFunction,Conductor*%
G36*
X100581694Y-48130806D02*
G01*
X100600000Y-48175000D01*
X100600000Y-48935253D01*
X100603641Y-48944043D01*
X100608398Y-48946013D01*
X100658884Y-48935971D01*
X100670042Y-48931350D01*
X100746635Y-48880171D01*
X100755173Y-48871634D01*
X100756228Y-48870055D01*
X100757807Y-48869000D01*
X100759526Y-48867281D01*
X100759868Y-48867623D01*
X100796002Y-48843480D01*
X100842918Y-48852813D01*
X100863366Y-48866476D01*
X100881359Y-48870055D01*
X100915775Y-48876901D01*
X100915778Y-48876901D01*
X100918788Y-48877500D01*
X100924629Y-48877500D01*
X100968823Y-48895806D01*
X100987129Y-48940000D01*
X100977477Y-48972275D01*
X100977377Y-48972388D01*
X100916447Y-49102163D01*
X100894391Y-49243823D01*
X100894968Y-49248236D01*
X100894968Y-49248238D01*
X100895572Y-49252857D01*
X100912980Y-49385979D01*
X100920118Y-49402200D01*
X100920488Y-49403041D01*
X100921533Y-49450865D01*
X100907476Y-49472409D01*
X100560950Y-49818935D01*
X100516756Y-49837241D01*
X100472562Y-49818935D01*
X100454256Y-49774741D01*
X100460510Y-49747490D01*
X100474684Y-49718234D01*
X100481710Y-49703733D01*
X100482483Y-49699142D01*
X100494771Y-49626101D01*
X100505496Y-49562354D01*
X100505647Y-49550000D01*
X100485323Y-49408082D01*
X100425984Y-49277572D01*
X100332400Y-49168963D01*
X100219505Y-49095788D01*
X100192377Y-49056390D01*
X100191000Y-49043342D01*
X100191000Y-48955430D01*
X100209306Y-48911236D01*
X100253500Y-48892930D01*
X100288223Y-48903463D01*
X100329958Y-48931350D01*
X100341116Y-48935971D01*
X100387807Y-48945259D01*
X100397139Y-48943403D01*
X100400000Y-48939120D01*
X100400000Y-48175000D01*
X100418306Y-48130806D01*
X100462500Y-48112500D01*
X100537500Y-48112500D01*
X100581694Y-48130806D01*
G37*
%TD.AperFunction*%
%TA.AperFunction,Conductor*%
G36*
X104285534Y-49255265D02*
G01*
X104287143Y-49252857D01*
X104372811Y-49310099D01*
X104399387Y-49349872D01*
X104390055Y-49396788D01*
X104364502Y-49418709D01*
X104286934Y-49454880D01*
X104278108Y-49461060D01*
X104201060Y-49538108D01*
X104194880Y-49546934D01*
X104157963Y-49626101D01*
X104122695Y-49658418D01*
X104074905Y-49656331D01*
X104066596Y-49651654D01*
X104064121Y-49650000D01*
X103300000Y-49650000D01*
X103255806Y-49631694D01*
X103237500Y-49587500D01*
X103237500Y-49512500D01*
X103255806Y-49468306D01*
X103300000Y-49450000D01*
X104060253Y-49450000D01*
X104069043Y-49446359D01*
X104071013Y-49441602D01*
X104060971Y-49391116D01*
X104056350Y-49379958D01*
X104028463Y-49338223D01*
X104019131Y-49291307D01*
X104045707Y-49251533D01*
X104080430Y-49241000D01*
X104251096Y-49241000D01*
X104285534Y-49255265D01*
G37*
%TD.AperFunction*%
%TA.AperFunction,Conductor*%
G36*
X105576004Y-44375806D02*
G01*
X105592583Y-44405410D01*
X105612216Y-44487190D01*
X105613946Y-44490541D01*
X105613946Y-44490542D01*
X105615538Y-44493627D01*
X105622500Y-44522293D01*
X105622500Y-44762558D01*
X105629898Y-44799748D01*
X105658078Y-44841922D01*
X105700252Y-44870102D01*
X105706285Y-44871302D01*
X105706287Y-44871303D01*
X105732384Y-44876494D01*
X105737442Y-44877500D01*
X105754899Y-44877500D01*
X105799093Y-44895806D01*
X105817399Y-44940000D01*
X105795985Y-44987098D01*
X105728816Y-45045693D01*
X105723811Y-45051252D01*
X105630726Y-45183699D01*
X105627187Y-45190298D01*
X105568380Y-45341129D01*
X105566520Y-45348376D01*
X105558714Y-45407674D01*
X105561176Y-45416865D01*
X105566607Y-45420000D01*
X106060000Y-45420000D01*
X106104194Y-45438306D01*
X106122500Y-45482500D01*
X106122500Y-45557500D01*
X106104194Y-45601694D01*
X106060000Y-45620000D01*
X105569184Y-45620000D01*
X105560394Y-45623641D01*
X105557837Y-45629815D01*
X105563077Y-45677275D01*
X105564786Y-45684561D01*
X105620419Y-45836585D01*
X105623818Y-45843256D01*
X105714111Y-45977628D01*
X105718999Y-45983290D01*
X105838737Y-46092243D01*
X105844839Y-46096580D01*
X105878911Y-46115079D01*
X105909015Y-46152253D01*
X105904015Y-46199827D01*
X105884491Y-46221512D01*
X105800003Y-46279579D01*
X105691240Y-46401652D01*
X105614735Y-46546145D01*
X105574905Y-46704716D01*
X105574885Y-46708481D01*
X105574885Y-46708483D01*
X105574551Y-46772388D01*
X105574049Y-46868210D01*
X105574929Y-46871874D01*
X105574929Y-46871877D01*
X105579926Y-46892692D01*
X105612216Y-47027190D01*
X105613943Y-47030535D01*
X105613944Y-47030539D01*
X105635693Y-47072678D01*
X105639695Y-47120346D01*
X105624348Y-47145537D01*
X105096420Y-47673465D01*
X105052226Y-47691771D01*
X105017503Y-47681238D01*
X104942542Y-47631150D01*
X104942540Y-47631149D01*
X104937423Y-47627730D01*
X104903629Y-47621008D01*
X104863869Y-47613099D01*
X104863866Y-47613099D01*
X104860856Y-47612500D01*
X104593502Y-47612500D01*
X104549308Y-47594194D01*
X104449308Y-47494194D01*
X104431002Y-47450000D01*
X104449308Y-47405806D01*
X104493502Y-47387500D01*
X104860856Y-47387500D01*
X104863866Y-47386901D01*
X104863869Y-47386901D01*
X104903629Y-47378992D01*
X104937423Y-47372270D01*
X104942540Y-47368851D01*
X104942542Y-47368850D01*
X105019135Y-47317671D01*
X105024252Y-47314252D01*
X105051165Y-47273975D01*
X105078850Y-47232542D01*
X105078851Y-47232540D01*
X105082270Y-47227423D01*
X105094864Y-47164107D01*
X105096901Y-47153869D01*
X105096901Y-47153866D01*
X105097500Y-47150856D01*
X105097500Y-46829144D01*
X105095446Y-46818814D01*
X105086211Y-46772388D01*
X105082270Y-46752577D01*
X105073867Y-46740000D01*
X105032467Y-46678042D01*
X105024252Y-46665748D01*
X104942543Y-46611151D01*
X104942542Y-46611150D01*
X104942540Y-46611149D01*
X104937423Y-46607730D01*
X104903629Y-46601008D01*
X104863869Y-46593099D01*
X104863866Y-46593099D01*
X104860856Y-46592500D01*
X104853500Y-46592500D01*
X104809306Y-46574194D01*
X104791000Y-46530000D01*
X104791000Y-46057001D01*
X104811680Y-46010554D01*
X104833281Y-45991105D01*
X104833284Y-45991101D01*
X104838163Y-45986708D01*
X104848550Y-45963378D01*
X104853229Y-45954761D01*
X104863557Y-45938858D01*
X104863558Y-45938856D01*
X104867134Y-45933349D01*
X104868726Y-45923298D01*
X104873360Y-45907656D01*
X104874829Y-45904357D01*
X104874829Y-45904355D01*
X104877500Y-45898357D01*
X104877500Y-45872822D01*
X104878270Y-45863044D01*
X104881236Y-45844317D01*
X104882264Y-45837828D01*
X104879628Y-45827992D01*
X104877500Y-45811821D01*
X104877500Y-44420000D01*
X104895806Y-44375806D01*
X104940000Y-44357500D01*
X105531810Y-44357500D01*
X105576004Y-44375806D01*
G37*
%TD.AperFunction*%
%TA.AperFunction,Conductor*%
G36*
X101819799Y-44321807D02*
G01*
X101845351Y-44343727D01*
X101858163Y-44362901D01*
X101865748Y-44374252D01*
X101890791Y-44390985D01*
X101891268Y-44391304D01*
X101917844Y-44431078D01*
X101908512Y-44477994D01*
X101868738Y-44504570D01*
X101802577Y-44517730D01*
X101797460Y-44521149D01*
X101797458Y-44521150D01*
X101787376Y-44527887D01*
X101715748Y-44575748D01*
X101702964Y-44594880D01*
X101664412Y-44652577D01*
X101657730Y-44662577D01*
X101642500Y-44739144D01*
X101642500Y-45160856D01*
X101657730Y-45237423D01*
X101661149Y-45242540D01*
X101661150Y-45242542D01*
X101697391Y-45296779D01*
X101715748Y-45324252D01*
X101791697Y-45375000D01*
X101802577Y-45382270D01*
X101800678Y-45385112D01*
X101826090Y-45410521D01*
X101826093Y-45458356D01*
X101803072Y-45486409D01*
X101727143Y-45537143D01*
X101723724Y-45542260D01*
X101671780Y-45620000D01*
X101668020Y-45625627D01*
X101652500Y-45703652D01*
X101652500Y-46096348D01*
X101653099Y-46099358D01*
X101653099Y-46099361D01*
X101658856Y-46128301D01*
X101668020Y-46174373D01*
X101676439Y-46186973D01*
X101683992Y-46198277D01*
X101693324Y-46245193D01*
X101666748Y-46284967D01*
X101632025Y-46295500D01*
X101535927Y-46295500D01*
X101491733Y-46277194D01*
X101473427Y-46233000D01*
X101479283Y-46206586D01*
X101511556Y-46137375D01*
X101514201Y-46128301D01*
X101519733Y-46086286D01*
X101520000Y-46082208D01*
X101520000Y-46022431D01*
X101516359Y-46013641D01*
X101507569Y-46010000D01*
X100962500Y-46010000D01*
X100918306Y-45991694D01*
X100900000Y-45947500D01*
X100900000Y-45872500D01*
X100918306Y-45828306D01*
X100962500Y-45810000D01*
X101507568Y-45810000D01*
X101516358Y-45806359D01*
X101519999Y-45797569D01*
X101519999Y-45737793D01*
X101519731Y-45733713D01*
X101514201Y-45691698D01*
X101511557Y-45682626D01*
X101465961Y-45584845D01*
X101459781Y-45576020D01*
X101383980Y-45500219D01*
X101375155Y-45494039D01*
X101277375Y-45448444D01*
X101268301Y-45445799D01*
X101236683Y-45441636D01*
X101195256Y-45417718D01*
X101182876Y-45371513D01*
X101206794Y-45330086D01*
X101212138Y-45326410D01*
X101269194Y-45291377D01*
X101269197Y-45291375D01*
X101272991Y-45289045D01*
X101284140Y-45276728D01*
X101295750Y-45266706D01*
X101331913Y-45242542D01*
X101374252Y-45214252D01*
X101432270Y-45127423D01*
X101445207Y-45062385D01*
X101446901Y-45053869D01*
X101446901Y-45053866D01*
X101447500Y-45050856D01*
X101447500Y-44965103D01*
X101448366Y-44954734D01*
X101454158Y-44920307D01*
X101455496Y-44912354D01*
X101455647Y-44900000D01*
X101448131Y-44847517D01*
X101447500Y-44838657D01*
X101447500Y-44729144D01*
X101432270Y-44652577D01*
X101408647Y-44617223D01*
X101399314Y-44570307D01*
X101425889Y-44530533D01*
X101460613Y-44519999D01*
X101482207Y-44519999D01*
X101486287Y-44519731D01*
X101528302Y-44514201D01*
X101537374Y-44511557D01*
X101635155Y-44465961D01*
X101643980Y-44459781D01*
X101719781Y-44383980D01*
X101725961Y-44375154D01*
X101736741Y-44352037D01*
X101772009Y-44319720D01*
X101819799Y-44321807D01*
G37*
%TD.AperFunction*%
%TA.AperFunction,Conductor*%
G36*
X95138423Y-42396089D02*
G01*
X95169458Y-42432490D01*
X95172500Y-42451752D01*
X95172500Y-42669314D01*
X95170117Y-42684088D01*
X95170020Y-42686883D01*
X95167196Y-42695408D01*
X95171019Y-42710329D01*
X95172388Y-42715671D01*
X95172500Y-42716233D01*
X95172500Y-42718349D01*
X95173757Y-42722635D01*
X95173758Y-42722640D01*
X95176727Y-42732762D01*
X95177298Y-42734840D01*
X95185764Y-42767882D01*
X95187508Y-42769504D01*
X95188178Y-42771789D01*
X95194060Y-42776893D01*
X95194062Y-42776896D01*
X95213955Y-42794158D01*
X95215563Y-42795602D01*
X95234842Y-42813537D01*
X95234843Y-42813538D01*
X95240541Y-42818838D01*
X95242884Y-42819261D01*
X95244683Y-42820822D01*
X95278450Y-42825718D01*
X95280581Y-42826065D01*
X95307572Y-42830936D01*
X95314166Y-42832126D01*
X95314767Y-42831972D01*
X95316527Y-42831239D01*
X95318723Y-42831557D01*
X95327937Y-42827368D01*
X95350272Y-42817213D01*
X95352102Y-42816416D01*
X96205712Y-42460745D01*
X96253547Y-42460645D01*
X96287442Y-42494399D01*
X96292250Y-42518437D01*
X96292250Y-42592569D01*
X96295891Y-42601359D01*
X96304681Y-42605000D01*
X96837500Y-42605000D01*
X96881694Y-42623306D01*
X96900000Y-42667500D01*
X96900000Y-43196500D01*
X96881694Y-43240694D01*
X96837500Y-43259000D01*
X96758979Y-43259000D01*
X96714785Y-43240694D01*
X96701237Y-43220418D01*
X96696359Y-43208641D01*
X96687569Y-43205000D01*
X96304681Y-43205000D01*
X96295891Y-43208641D01*
X96292250Y-43217431D01*
X96292250Y-43221627D01*
X96292849Y-43227711D01*
X96294924Y-43238141D01*
X96296125Y-43250334D01*
X96296125Y-43271627D01*
X96296725Y-43277713D01*
X96301011Y-43299266D01*
X96291678Y-43346183D01*
X96283906Y-43355652D01*
X96210013Y-43429545D01*
X96203939Y-43433850D01*
X96204395Y-43434423D01*
X96198887Y-43438804D01*
X96192542Y-43441851D01*
X96188146Y-43447348D01*
X96174082Y-43464934D01*
X96169465Y-43470093D01*
X96164421Y-43475137D01*
X96120227Y-43493443D01*
X96093813Y-43487587D01*
X96063689Y-43473540D01*
X96054615Y-43470895D01*
X96011871Y-43465267D01*
X96007793Y-43465000D01*
X95912431Y-43465000D01*
X95903641Y-43468641D01*
X95900000Y-43477431D01*
X95900000Y-43832569D01*
X95903641Y-43841359D01*
X95912431Y-43845000D01*
X96061000Y-43845000D01*
X96105194Y-43863306D01*
X96123500Y-43907500D01*
X96123500Y-43982500D01*
X96105194Y-44026694D01*
X96061000Y-44045000D01*
X95302431Y-44045000D01*
X95293641Y-44048641D01*
X95290000Y-44057431D01*
X95290000Y-44122793D01*
X95290267Y-44126871D01*
X95295895Y-44169615D01*
X95298540Y-44178689D01*
X95336791Y-44260719D01*
X95338878Y-44308509D01*
X95306561Y-44343777D01*
X95279765Y-44349632D01*
X95185829Y-44349058D01*
X95185828Y-44349058D01*
X95181376Y-44349031D01*
X95043529Y-44388428D01*
X94922280Y-44464930D01*
X94919337Y-44468262D01*
X94919335Y-44468264D01*
X94864342Y-44530533D01*
X94827377Y-44572388D01*
X94813706Y-44601507D01*
X94810075Y-44609240D01*
X94774722Y-44641465D01*
X94726938Y-44639253D01*
X94694713Y-44603900D01*
X94691000Y-44582678D01*
X94691000Y-44255899D01*
X94691037Y-44213635D01*
X94691037Y-44213634D01*
X94691043Y-44206596D01*
X94684491Y-44192951D01*
X94679899Y-44179801D01*
X94678098Y-44171904D01*
X94678097Y-44171902D01*
X94676532Y-44165041D01*
X94667240Y-44153380D01*
X94659779Y-44141487D01*
X94656369Y-44134387D01*
X94653322Y-44128042D01*
X94641498Y-44118586D01*
X94631660Y-44108731D01*
X94622225Y-44096891D01*
X94608793Y-44090413D01*
X94596916Y-44082934D01*
X94585267Y-44073617D01*
X94570513Y-44070224D01*
X94557369Y-44065608D01*
X94550078Y-44062091D01*
X94550076Y-44062091D01*
X94543737Y-44059033D01*
X94522868Y-44059015D01*
X94521771Y-44059014D01*
X94521760Y-44059013D01*
X94521703Y-44059000D01*
X94505899Y-44059000D01*
X94456844Y-44058957D01*
X94456596Y-44058957D01*
X94456520Y-44058993D01*
X94456461Y-44059000D01*
X94447917Y-44059000D01*
X94403723Y-44040694D01*
X94389336Y-44018282D01*
X94388663Y-44016472D01*
X94387784Y-44012810D01*
X94386060Y-44009469D01*
X94386057Y-44009462D01*
X94384462Y-44006373D01*
X94377500Y-43977707D01*
X94377500Y-43832569D01*
X95290000Y-43832569D01*
X95293641Y-43841359D01*
X95302431Y-43845000D01*
X95687569Y-43845000D01*
X95696359Y-43841359D01*
X95700000Y-43832569D01*
X95700000Y-43477431D01*
X95696359Y-43468641D01*
X95687569Y-43465000D01*
X95592207Y-43465000D01*
X95588129Y-43465267D01*
X95545385Y-43470895D01*
X95536311Y-43473540D01*
X95436933Y-43519880D01*
X95428108Y-43526060D01*
X95351060Y-43603108D01*
X95344880Y-43611933D01*
X95298540Y-43711311D01*
X95295895Y-43720385D01*
X95290267Y-43763129D01*
X95290000Y-43767207D01*
X95290000Y-43832569D01*
X94377500Y-43832569D01*
X94377500Y-43737442D01*
X94374107Y-43720385D01*
X94371303Y-43706287D01*
X94371302Y-43706285D01*
X94370102Y-43700252D01*
X94341922Y-43658078D01*
X94299748Y-43629898D01*
X94293715Y-43628698D01*
X94293713Y-43628697D01*
X94265569Y-43623099D01*
X94262558Y-43622500D01*
X94011984Y-43622500D01*
X93989281Y-43618231D01*
X93919224Y-43590917D01*
X93919862Y-43589280D01*
X93886200Y-43564000D01*
X93877500Y-43532191D01*
X93877500Y-42992569D01*
X96292250Y-42992569D01*
X96295891Y-43001359D01*
X96304681Y-43005000D01*
X96687569Y-43005000D01*
X96696359Y-43001359D01*
X96700000Y-42992569D01*
X96700000Y-42817431D01*
X96696359Y-42808641D01*
X96687569Y-42805000D01*
X96304681Y-42805000D01*
X96295891Y-42808641D01*
X96292250Y-42817431D01*
X96292250Y-42992569D01*
X93877500Y-42992569D01*
X93877500Y-42751437D01*
X93895806Y-42707243D01*
X93940000Y-42688937D01*
X93971389Y-42697391D01*
X94107935Y-42776703D01*
X94186810Y-42800592D01*
X94263516Y-42823824D01*
X94270294Y-42825877D01*
X94439610Y-42836381D01*
X94606802Y-42807652D01*
X94762900Y-42741232D01*
X94899532Y-42640682D01*
X95009367Y-42511397D01*
X95054337Y-42423329D01*
X95090738Y-42392294D01*
X95138423Y-42396089D01*
G37*
%TD.AperFunction*%
%TA.AperFunction,Conductor*%
G36*
X96906694Y-43659306D02*
G01*
X96925000Y-43703500D01*
X96925000Y-44397568D01*
X96928641Y-44406358D01*
X96937431Y-44409999D01*
X96953999Y-44409999D01*
X96998193Y-44428305D01*
X97016499Y-44472499D01*
X96998193Y-44516693D01*
X96970692Y-44544194D01*
X96926498Y-44562500D01*
X96614144Y-44562500D01*
X96611134Y-44563099D01*
X96611131Y-44563099D01*
X96580193Y-44569253D01*
X96533276Y-44559921D01*
X96506701Y-44520147D01*
X96505500Y-44507954D01*
X96505500Y-44468728D01*
X96523806Y-44424534D01*
X96568000Y-44406228D01*
X96576158Y-44406763D01*
X96598714Y-44409733D01*
X96602792Y-44410000D01*
X96712569Y-44410000D01*
X96721359Y-44406359D01*
X96725000Y-44397569D01*
X96725000Y-44052431D01*
X96721359Y-44043641D01*
X96712569Y-44040000D01*
X96568000Y-44040000D01*
X96523806Y-44021694D01*
X96505500Y-43977500D01*
X96505500Y-43902500D01*
X96523806Y-43858306D01*
X96568000Y-43840000D01*
X96712569Y-43840000D01*
X96721359Y-43836359D01*
X96725000Y-43827569D01*
X96725000Y-43703500D01*
X96743306Y-43659306D01*
X96787500Y-43641000D01*
X96862500Y-43641000D01*
X96906694Y-43659306D01*
G37*
%TD.AperFunction*%
%TA.AperFunction,Conductor*%
G36*
X104934194Y-42417432D02*
G01*
X104944749Y-42432066D01*
X104945074Y-42432962D01*
X105038088Y-42574832D01*
X105161243Y-42691498D01*
X105307935Y-42776703D01*
X105386810Y-42800592D01*
X105463516Y-42823824D01*
X105470294Y-42825877D01*
X105639610Y-42836381D01*
X105806802Y-42807652D01*
X105962900Y-42741232D01*
X105965823Y-42739081D01*
X105965828Y-42739078D01*
X106020716Y-42698684D01*
X106022956Y-42697036D01*
X106069400Y-42685585D01*
X106110338Y-42710329D01*
X106122500Y-42747374D01*
X106122500Y-43532830D01*
X106104194Y-43577024D01*
X106082092Y-43591295D01*
X106010189Y-43618465D01*
X105988097Y-43622500D01*
X105737442Y-43622500D01*
X105734431Y-43623099D01*
X105706287Y-43628697D01*
X105706285Y-43628698D01*
X105700252Y-43629898D01*
X105658078Y-43658078D01*
X105629898Y-43700252D01*
X105628698Y-43706285D01*
X105628697Y-43706287D01*
X105625893Y-43720385D01*
X105622500Y-43737442D01*
X105622500Y-43840000D01*
X105604194Y-43884194D01*
X105560000Y-43902500D01*
X104566661Y-43902500D01*
X104522467Y-43884194D01*
X104514694Y-43874723D01*
X104507066Y-43863306D01*
X104462857Y-43797143D01*
X104377189Y-43739901D01*
X104350613Y-43700128D01*
X104359945Y-43653212D01*
X104385498Y-43631291D01*
X104463066Y-43595120D01*
X104471892Y-43588940D01*
X104548940Y-43511892D01*
X104555120Y-43503067D01*
X104601460Y-43403689D01*
X104604105Y-43394615D01*
X104609733Y-43351871D01*
X104610000Y-43347793D01*
X104610000Y-43282431D01*
X104606359Y-43273641D01*
X104597569Y-43270000D01*
X103612500Y-43270000D01*
X103568306Y-43251694D01*
X103558269Y-43227464D01*
X103554758Y-43228918D01*
X103546359Y-43208641D01*
X103537569Y-43205000D01*
X103312431Y-43205000D01*
X103303641Y-43208641D01*
X103300000Y-43217431D01*
X103300000Y-43427568D01*
X103308527Y-43448154D01*
X103308527Y-43480000D01*
X103310000Y-43480000D01*
X103310000Y-44037500D01*
X103291694Y-44081694D01*
X103247500Y-44100000D01*
X103172500Y-44100000D01*
X103128306Y-44081694D01*
X103110000Y-44037500D01*
X103110000Y-43507432D01*
X103101473Y-43486846D01*
X103101473Y-43455000D01*
X103100000Y-43455000D01*
X103100000Y-42667500D01*
X103118306Y-42623306D01*
X103162500Y-42605000D01*
X103695319Y-42605000D01*
X103704109Y-42601359D01*
X103707750Y-42592569D01*
X103707750Y-42518437D01*
X103726056Y-42474243D01*
X103770250Y-42455937D01*
X103794285Y-42460744D01*
X104056040Y-42569809D01*
X104089792Y-42603703D01*
X104089692Y-42651539D01*
X104055797Y-42685292D01*
X104032000Y-42690000D01*
X103892207Y-42690000D01*
X103888129Y-42690267D01*
X103845385Y-42695895D01*
X103836311Y-42698540D01*
X103759017Y-42734582D01*
X103747407Y-42747252D01*
X103746801Y-42750689D01*
X103744611Y-42750303D01*
X103744441Y-42750489D01*
X103729444Y-42786694D01*
X103685250Y-42805000D01*
X103312431Y-42805000D01*
X103303641Y-42808641D01*
X103300000Y-42817431D01*
X103300000Y-42992569D01*
X103303641Y-43001359D01*
X103312431Y-43005000D01*
X103681375Y-43005000D01*
X103725569Y-43023306D01*
X103735606Y-43047536D01*
X103739117Y-43046082D01*
X103747516Y-43066359D01*
X103756306Y-43070000D01*
X104597569Y-43070000D01*
X104606359Y-43066359D01*
X104610000Y-43057569D01*
X104610000Y-42992207D01*
X104609733Y-42988129D01*
X104604105Y-42945385D01*
X104601461Y-42936313D01*
X104589469Y-42910595D01*
X104587384Y-42862805D01*
X104619701Y-42827537D01*
X104655082Y-42822330D01*
X104665402Y-42823826D01*
X104665942Y-42823934D01*
X104667899Y-42824750D01*
X104678865Y-42825954D01*
X104682804Y-42826387D01*
X104684950Y-42826660D01*
X104711017Y-42830440D01*
X104711018Y-42830440D01*
X104718723Y-42831557D01*
X104720892Y-42830571D01*
X104723258Y-42830831D01*
X104730225Y-42827368D01*
X104730226Y-42827368D01*
X104750218Y-42817431D01*
X104753824Y-42815639D01*
X104755766Y-42814715D01*
X104779740Y-42803815D01*
X104779741Y-42803814D01*
X104786828Y-42800592D01*
X104788119Y-42798592D01*
X104790252Y-42797532D01*
X104807753Y-42768254D01*
X104808891Y-42766425D01*
X104823773Y-42743376D01*
X104823773Y-42743374D01*
X104827411Y-42737741D01*
X104827500Y-42737127D01*
X104827500Y-42735220D01*
X104828638Y-42733316D01*
X104827532Y-42698684D01*
X104827500Y-42696689D01*
X104827500Y-42461626D01*
X104845806Y-42417432D01*
X104890000Y-42399126D01*
X104934194Y-42417432D01*
G37*
%TD.AperFunction*%
%TD*%
%TA.AperFunction,NonConductor*%
G36*
X102580416Y-44840881D02*
G01*
X102602431Y-44850000D01*
X103507500Y-44850000D01*
X103551694Y-44868306D01*
X103563498Y-44896804D01*
X103565242Y-44896082D01*
X103573641Y-44916359D01*
X103582431Y-44920000D01*
X104037500Y-44920000D01*
X104081694Y-44938306D01*
X104100000Y-44982500D01*
X104100000Y-45057500D01*
X104081694Y-45101694D01*
X104037500Y-45120000D01*
X103512500Y-45120000D01*
X103468306Y-45101694D01*
X103456502Y-45073196D01*
X103454758Y-45073918D01*
X103446359Y-45053641D01*
X103437569Y-45050000D01*
X103172431Y-45050000D01*
X103163641Y-45053641D01*
X103160000Y-45062431D01*
X103160000Y-45456820D01*
X103141694Y-45501014D01*
X103123964Y-45512861D01*
X103120000Y-45522431D01*
X103120000Y-45937500D01*
X103101694Y-45981694D01*
X103057500Y-46000000D01*
X102982500Y-46000000D01*
X102938306Y-45981694D01*
X102920000Y-45937500D01*
X102920000Y-45403180D01*
X102938306Y-45358986D01*
X102956036Y-45347139D01*
X102960000Y-45337569D01*
X102960000Y-45062431D01*
X102956359Y-45053641D01*
X102947569Y-45050000D01*
X102602432Y-45050000D01*
X102593642Y-45053641D01*
X102590001Y-45062431D01*
X102590001Y-45172207D01*
X102590269Y-45176287D01*
X102595799Y-45218302D01*
X102598443Y-45227374D01*
X102644039Y-45325155D01*
X102650219Y-45333980D01*
X102678510Y-45362271D01*
X102696816Y-45406465D01*
X102678510Y-45450659D01*
X102601060Y-45528108D01*
X102594880Y-45536934D01*
X102558709Y-45614502D01*
X102523441Y-45646819D01*
X102475651Y-45644732D01*
X102450098Y-45622811D01*
X102449816Y-45622388D01*
X102392857Y-45537143D01*
X102315277Y-45485306D01*
X102288701Y-45445532D01*
X102287500Y-45433339D01*
X102287500Y-45408944D01*
X102305806Y-45364750D01*
X102315277Y-45356977D01*
X102359135Y-45327672D01*
X102359138Y-45327669D01*
X102364252Y-45324252D01*
X102382609Y-45296779D01*
X102418850Y-45242542D01*
X102418851Y-45242540D01*
X102422270Y-45237423D01*
X102437500Y-45160856D01*
X102437500Y-44955121D01*
X102455806Y-44910927D01*
X102512304Y-44854429D01*
X102556498Y-44836123D01*
X102580416Y-44840881D01*
G37*
%TD.AperFunction*%
%TA.AperFunction,NonConductor*%
G36*
X100368823Y-46695806D02*
G01*
X100387129Y-46740000D01*
X100377477Y-46772275D01*
X100377377Y-46772388D01*
X100316447Y-46902163D01*
X100294391Y-47043823D01*
X100312980Y-47185979D01*
X100314773Y-47190054D01*
X100366571Y-47307773D01*
X100370720Y-47317203D01*
X100422103Y-47378330D01*
X100422222Y-47378472D01*
X100436646Y-47424081D01*
X100414595Y-47466531D01*
X100386572Y-47479987D01*
X100341116Y-47489029D01*
X100329958Y-47493650D01*
X100253365Y-47544829D01*
X100244827Y-47553366D01*
X100243772Y-47554945D01*
X100242193Y-47556000D01*
X100240474Y-47557719D01*
X100240132Y-47557377D01*
X100203998Y-47581520D01*
X100157082Y-47572187D01*
X100141754Y-47561945D01*
X100141752Y-47561944D01*
X100136634Y-47558524D01*
X100110703Y-47553366D01*
X100084225Y-47548099D01*
X100084222Y-47548099D01*
X100081212Y-47547500D01*
X99918788Y-47547500D01*
X99915778Y-47548099D01*
X99915775Y-47548099D01*
X99889297Y-47553366D01*
X99863366Y-47558524D01*
X99858249Y-47561943D01*
X99858247Y-47561944D01*
X99815146Y-47590744D01*
X99800518Y-47600518D01*
X99797099Y-47605635D01*
X99795728Y-47607006D01*
X99751534Y-47625312D01*
X99707340Y-47607006D01*
X99690598Y-47576705D01*
X99689422Y-47571547D01*
X99688241Y-47564567D01*
X99686408Y-47548099D01*
X99685014Y-47535571D01*
X99681281Y-47529608D01*
X99679907Y-47525662D01*
X99678097Y-47521902D01*
X99676532Y-47515041D01*
X99658344Y-47492217D01*
X99654254Y-47486441D01*
X99650403Y-47480289D01*
X99645195Y-47475081D01*
X99640510Y-47469837D01*
X99626612Y-47452396D01*
X99626611Y-47452396D01*
X99622225Y-47446891D01*
X99615886Y-47443833D01*
X99610385Y-47439442D01*
X99610811Y-47438909D01*
X99604645Y-47434531D01*
X99309306Y-47139191D01*
X99291000Y-47094997D01*
X99291000Y-47005003D01*
X99309306Y-46960809D01*
X99574308Y-46695806D01*
X99618502Y-46677500D01*
X100324629Y-46677500D01*
X100368823Y-46695806D01*
G37*
%TD.AperFunction*%
%TA.AperFunction,NonConductor*%
G36*
X95051694Y-55984515D02*
G01*
X95064707Y-56003538D01*
X95068926Y-56013127D01*
X95068928Y-56013130D01*
X95070720Y-56017203D01*
X95073584Y-56020610D01*
X95160107Y-56123543D01*
X95160110Y-56123546D01*
X95162970Y-56126948D01*
X95214858Y-56161488D01*
X95281133Y-56205605D01*
X95307778Y-56245332D01*
X95309000Y-56257632D01*
X95309000Y-57956768D01*
X95307750Y-57964107D01*
X95308477Y-57964190D01*
X95307680Y-57971181D01*
X95305348Y-57977822D01*
X95306126Y-57984815D01*
X95306126Y-57984816D01*
X95308617Y-58007197D01*
X95309000Y-58014110D01*
X95309000Y-58021533D01*
X95310581Y-58028465D01*
X95311757Y-58035418D01*
X95314986Y-58064429D01*
X95318719Y-58070393D01*
X95320094Y-58074341D01*
X95321903Y-58078100D01*
X95323468Y-58084959D01*
X95327853Y-58090461D01*
X95327853Y-58090462D01*
X95341648Y-58107773D01*
X95345744Y-58113559D01*
X95349596Y-58119711D01*
X95354809Y-58124924D01*
X95359494Y-58130168D01*
X95377775Y-58153109D01*
X95384114Y-58156167D01*
X95389615Y-58160558D01*
X95389189Y-58161092D01*
X95395353Y-58165468D01*
X96034372Y-58804487D01*
X96038677Y-58810561D01*
X96039250Y-58810105D01*
X96043631Y-58815613D01*
X96046678Y-58821958D01*
X96052175Y-58826354D01*
X96069761Y-58840418D01*
X96074920Y-58845035D01*
X96080168Y-58850283D01*
X96083139Y-58852150D01*
X96083140Y-58852151D01*
X96086169Y-58854055D01*
X96091944Y-58858159D01*
X96109236Y-58871988D01*
X96109240Y-58871990D01*
X96114733Y-58876383D01*
X96121590Y-58877960D01*
X96125352Y-58879778D01*
X96129290Y-58881157D01*
X96135248Y-58884902D01*
X96142239Y-58885692D01*
X96142244Y-58885694D01*
X96164237Y-58888180D01*
X96171223Y-58889373D01*
X96178297Y-58891000D01*
X96185677Y-58891000D01*
X96192698Y-58891396D01*
X96221838Y-58894690D01*
X96228482Y-58892370D01*
X96235478Y-58891585D01*
X96235554Y-58892264D01*
X96243003Y-58891000D01*
X97499343Y-58891000D01*
X97543537Y-58909306D01*
X97561843Y-58953500D01*
X97546008Y-58995077D01*
X97531240Y-59011652D01*
X97454735Y-59156145D01*
X97453818Y-59159797D01*
X97437383Y-59225226D01*
X97408862Y-59263629D01*
X97376766Y-59272500D01*
X93940000Y-59272500D01*
X93895806Y-59254194D01*
X93877500Y-59210000D01*
X93877500Y-58937170D01*
X93895806Y-58892976D01*
X93917908Y-58878705D01*
X94061730Y-58824359D01*
X94065255Y-58823027D01*
X94199997Y-58730421D01*
X94308760Y-58608348D01*
X94385265Y-58463855D01*
X94425095Y-58305284D01*
X94425951Y-58141790D01*
X94420651Y-58119711D01*
X94388664Y-57986476D01*
X94387784Y-57982810D01*
X94385926Y-57979210D01*
X94385915Y-57979085D01*
X94384742Y-57975930D01*
X94385623Y-57975602D01*
X94381919Y-57931544D01*
X94397268Y-57906347D01*
X94858487Y-57445128D01*
X94864561Y-57440823D01*
X94864105Y-57440250D01*
X94869613Y-57435869D01*
X94875958Y-57432822D01*
X94894418Y-57409739D01*
X94899035Y-57404580D01*
X94904284Y-57399331D01*
X94908057Y-57393328D01*
X94912165Y-57387547D01*
X94917795Y-57380508D01*
X94930383Y-57364767D01*
X94931960Y-57357907D01*
X94933778Y-57354147D01*
X94935156Y-57350211D01*
X94938902Y-57344252D01*
X94940612Y-57329131D01*
X94942179Y-57315264D01*
X94943371Y-57308287D01*
X94945000Y-57301203D01*
X94945000Y-57293829D01*
X94945396Y-57286808D01*
X94946448Y-57277500D01*
X94948691Y-57257662D01*
X94946370Y-57251017D01*
X94945586Y-57244023D01*
X94946264Y-57243947D01*
X94945000Y-57236495D01*
X94945000Y-56028709D01*
X94963306Y-55984515D01*
X95007500Y-55966209D01*
X95051694Y-55984515D01*
G37*
%TD.AperFunction*%
M02*
