%TF.GenerationSoftware,KiCad,Pcbnew,(6.0.8)*%
%TF.CreationDate,2022-11-03T22:25:17+01:00*%
%TF.ProjectId,epi,6570692e-6b69-4636-9164-5f7063625858,rev?*%
%TF.SameCoordinates,Original*%
%TF.FileFunction,Copper,L1,Top*%
%TF.FilePolarity,Positive*%
%FSLAX46Y46*%
G04 Gerber Fmt 4.6, Leading zero omitted, Abs format (unit mm)*
G04 Created by KiCad (PCBNEW (6.0.8)) date 2022-11-03 22:25:17*
%MOMM*%
%LPD*%
G01*
G04 APERTURE LIST*
G04 Aperture macros list*
%AMRoundRect*
0 Rectangle with rounded corners*
0 $1 Rounding radius*
0 $2 $3 $4 $5 $6 $7 $8 $9 X,Y pos of 4 corners*
0 Add a 4 corners polygon primitive as box body*
4,1,4,$2,$3,$4,$5,$6,$7,$8,$9,$2,$3,0*
0 Add four circle primitives for the rounded corners*
1,1,$1+$1,$2,$3*
1,1,$1+$1,$4,$5*
1,1,$1+$1,$6,$7*
1,1,$1+$1,$8,$9*
0 Add four rect primitives between the rounded corners*
20,1,$1+$1,$2,$3,$4,$5,0*
20,1,$1+$1,$4,$5,$6,$7,0*
20,1,$1+$1,$6,$7,$8,$9,0*
20,1,$1+$1,$8,$9,$2,$3,0*%
%AMOutline5P*
0 Free polygon, 5 corners , with rotation*
0 The origin of the aperture is its center*
0 number of corners: always 5*
0 $1 to $10 corner X, Y*
0 $11 Rotation angle, in degrees counterclockwise*
0 create outline with 5 corners*
4,1,5,$1,$2,$3,$4,$5,$6,$7,$8,$9,$10,$1,$2,$11*%
%AMOutline6P*
0 Free polygon, 6 corners , with rotation*
0 The origin of the aperture is its center*
0 number of corners: always 6*
0 $1 to $12 corner X, Y*
0 $13 Rotation angle, in degrees counterclockwise*
0 create outline with 6 corners*
4,1,6,$1,$2,$3,$4,$5,$6,$7,$8,$9,$10,$11,$12,$1,$2,$13*%
%AMOutline7P*
0 Free polygon, 7 corners , with rotation*
0 The origin of the aperture is its center*
0 number of corners: always 7*
0 $1 to $14 corner X, Y*
0 $15 Rotation angle, in degrees counterclockwise*
0 create outline with 7 corners*
4,1,7,$1,$2,$3,$4,$5,$6,$7,$8,$9,$10,$11,$12,$13,$14,$1,$2,$15*%
%AMOutline8P*
0 Free polygon, 8 corners , with rotation*
0 The origin of the aperture is its center*
0 number of corners: always 8*
0 $1 to $16 corner X, Y*
0 $17 Rotation angle, in degrees counterclockwise*
0 create outline with 8 corners*
4,1,8,$1,$2,$3,$4,$5,$6,$7,$8,$9,$10,$11,$12,$13,$14,$15,$16,$1,$2,$17*%
G04 Aperture macros list end*
%TA.AperFunction,SMDPad,CuDef*%
%ADD10RoundRect,0.140000X0.170000X-0.140000X0.170000X0.140000X-0.170000X0.140000X-0.170000X-0.140000X0*%
%TD*%
%TA.AperFunction,SMDPad,CuDef*%
%ADD11RoundRect,0.135000X-0.185000X0.135000X-0.185000X-0.135000X0.185000X-0.135000X0.185000X0.135000X0*%
%TD*%
%TA.AperFunction,SMDPad,CuDef*%
%ADD12RoundRect,0.135000X0.135000X0.185000X-0.135000X0.185000X-0.135000X-0.185000X0.135000X-0.185000X0*%
%TD*%
%TA.AperFunction,SMDPad,CuDef*%
%ADD13RoundRect,0.140000X-0.140000X-0.170000X0.140000X-0.170000X0.140000X0.170000X-0.140000X0.170000X0*%
%TD*%
%TA.AperFunction,SMDPad,CuDef*%
%ADD14RoundRect,0.062500X-0.062500X0.475000X-0.062500X-0.475000X0.062500X-0.475000X0.062500X0.475000X0*%
%TD*%
%TA.AperFunction,SMDPad,CuDef*%
%ADD15RoundRect,0.062500X-0.475000X0.062500X-0.475000X-0.062500X0.475000X-0.062500X0.475000X0.062500X0*%
%TD*%
%TA.AperFunction,SMDPad,CuDef*%
%ADD16RoundRect,0.147500X-0.172500X0.147500X-0.172500X-0.147500X0.172500X-0.147500X0.172500X0.147500X0*%
%TD*%
%TA.AperFunction,SMDPad,CuDef*%
%ADD17RoundRect,0.135000X0.185000X-0.135000X0.185000X0.135000X-0.185000X0.135000X-0.185000X-0.135000X0*%
%TD*%
%TA.AperFunction,ComponentPad*%
%ADD18RoundRect,0.250000X-0.250000X0.500000X-0.250000X-0.500000X0.250000X-0.500000X0.250000X0.500000X0*%
%TD*%
%TA.AperFunction,SMDPad,CuDef*%
%ADD19RoundRect,0.147500X-0.147500X-0.172500X0.147500X-0.172500X0.147500X0.172500X-0.147500X0.172500X0*%
%TD*%
%TA.AperFunction,SMDPad,CuDef*%
%ADD20RoundRect,0.140000X-0.170000X0.140000X-0.170000X-0.140000X0.170000X-0.140000X0.170000X0.140000X0*%
%TD*%
%TA.AperFunction,ComponentPad*%
%ADD21RoundRect,0.250000X-0.500000X-0.250000X0.500000X-0.250000X0.500000X0.250000X-0.500000X0.250000X0*%
%TD*%
%TA.AperFunction,SMDPad,CuDef*%
%ADD22Outline5P,-0.450000X0.160000X-0.210000X0.400000X0.450000X0.400000X0.450000X-0.400000X-0.450000X-0.400000X0.000000*%
%TD*%
%TA.AperFunction,SMDPad,CuDef*%
%ADD23R,0.900000X0.800000*%
%TD*%
%TA.AperFunction,SMDPad,CuDef*%
%ADD24R,0.615500X1.000000*%
%TD*%
%TA.AperFunction,SMDPad,CuDef*%
%ADD25R,0.307750X1.000000*%
%TD*%
%TA.AperFunction,SMDPad,CuDef*%
%ADD26R,0.607750X0.300000*%
%TD*%
%TA.AperFunction,ComponentPad*%
%ADD27O,1.200000X2.300000*%
%TD*%
%TA.AperFunction,ComponentPad*%
%ADD28O,1.200000X2.000000*%
%TD*%
%TA.AperFunction,SMDPad,CuDef*%
%ADD29RoundRect,0.135000X-0.135000X-0.185000X0.135000X-0.185000X0.135000X0.185000X-0.135000X0.185000X0*%
%TD*%
%TA.AperFunction,ViaPad*%
%ADD30C,0.500000*%
%TD*%
%TA.AperFunction,Conductor*%
%ADD31C,0.127000*%
%TD*%
%TA.AperFunction,Conductor*%
%ADD32C,0.250000*%
%TD*%
%TA.AperFunction,Conductor*%
%ADD33C,0.200000*%
%TD*%
G04 APERTURE END LIST*
D10*
%TO.P,C8,1*%
%TO.N,GND*%
X95400000Y-48080000D03*
%TO.P,C8,2*%
%TO.N,Net-(C8-Pad2)*%
X95400000Y-47120000D03*
%TD*%
D11*
%TO.P,RV1,1*%
%TO.N,Net-(J4-PadA7)*%
X101000000Y-44890000D03*
%TO.P,RV1,2*%
%TO.N,GND*%
X101000000Y-45910000D03*
%TD*%
D12*
%TO.P,R4,1*%
%TO.N,GND*%
X101310000Y-44000000D03*
%TO.P,R4,2*%
%TO.N,Net-(J4-PadB5)*%
X100290000Y-44000000D03*
%TD*%
D13*
%TO.P,C1,1*%
%TO.N,VBUS*%
X102260000Y-45900000D03*
%TO.P,C1,2*%
%TO.N,GND*%
X103220000Y-45900000D03*
%TD*%
D14*
%TO.P,U1,1,PE6*%
%TO.N,D7*%
X102500000Y-48212500D03*
%TO.P,U1,2,UVCC*%
%TO.N,VBUS*%
X102000000Y-48212500D03*
%TO.P,U1,3,D-*%
%TO.N,D-*%
X101500000Y-48212500D03*
%TO.P,U1,4,D+*%
%TO.N,D+*%
X101000000Y-48212500D03*
%TO.P,U1,5,UGND*%
%TO.N,GND*%
X100500000Y-48212500D03*
%TO.P,U1,6,UCAP*%
%TO.N,Net-(C8-Pad2)*%
X100000000Y-48212500D03*
%TO.P,U1,7,VBUS*%
%TO.N,VBUS*%
X99500000Y-48212500D03*
%TO.P,U1,8,PB0*%
%TO.N,SS*%
X99000000Y-48212500D03*
%TO.P,U1,9,PB1*%
%TO.N,D15{slash}SCK*%
X98500000Y-48212500D03*
%TO.P,U1,10,PB2*%
%TO.N,D16{slash}MOSI*%
X98000000Y-48212500D03*
%TO.P,U1,11,PB3*%
%TO.N,D14{slash}MISO*%
X97500000Y-48212500D03*
D15*
%TO.P,U1,12,PB7*%
%TO.N,IO11*%
X96662500Y-49050000D03*
%TO.P,U1,13,~{RESET}*%
%TO.N,RST*%
X96662500Y-49550000D03*
%TO.P,U1,14,VCC*%
%TO.N,VBUS*%
X96662500Y-50050000D03*
%TO.P,U1,15,GND*%
%TO.N,GND*%
X96662500Y-50550000D03*
%TO.P,U1,16,XTAL2*%
%TO.N,Net-(C6-Pad2)*%
X96662500Y-51050000D03*
%TO.P,U1,17,XTAL1*%
%TO.N,Net-(C5-Pad2)*%
X96662500Y-51550000D03*
%TO.P,U1,18,PD0*%
%TO.N,D3{slash}SCL*%
X96662500Y-52050000D03*
%TO.P,U1,19,PD1*%
%TO.N,D2{slash}SDA*%
X96662500Y-52550000D03*
%TO.P,U1,20,PD2*%
%TO.N,D0{slash}RX*%
X96662500Y-53050000D03*
%TO.P,U1,21,PD3*%
%TO.N,D1{slash}TX*%
X96662500Y-53550000D03*
%TO.P,U1,22,PD5*%
%TO.N,unconnected-(U1-Pad22)*%
X96662500Y-54050000D03*
D14*
%TO.P,U1,23,GND*%
%TO.N,GND*%
X97500000Y-54887500D03*
%TO.P,U1,24,AVCC*%
%TO.N,Net-(C2-Pad2)*%
X98000000Y-54887500D03*
%TO.P,U1,25,PD4*%
%TO.N,D4*%
X98500000Y-54887500D03*
%TO.P,U1,26,PD6*%
%TO.N,IO12*%
X99000000Y-54887500D03*
%TO.P,U1,27,PD7*%
%TO.N,D6*%
X99500000Y-54887500D03*
%TO.P,U1,28,PB4*%
%TO.N,IO8*%
X100000000Y-54887500D03*
%TO.P,U1,29,PB5*%
%TO.N,IO9*%
X100500000Y-54887500D03*
%TO.P,U1,30,PB6*%
%TO.N,IO10*%
X101000000Y-54887500D03*
%TO.P,U1,31,PC6*%
%TO.N,D5*%
X101500000Y-54887500D03*
%TO.P,U1,32,PC7*%
%TO.N,IO13*%
X102000000Y-54887500D03*
%TO.P,U1,33,~{HWB}/PE2*%
%TO.N,Net-(R7-Pad1)*%
X102500000Y-54887500D03*
D15*
%TO.P,U1,34,VCC*%
%TO.N,VBUS*%
X103337500Y-54050000D03*
%TO.P,U1,35,GND*%
%TO.N,GND*%
X103337500Y-53550000D03*
%TO.P,U1,36,PF7*%
%TO.N,A0*%
X103337500Y-53050000D03*
%TO.P,U1,37,PF6*%
%TO.N,A1*%
X103337500Y-52550000D03*
%TO.P,U1,38,PF5*%
%TO.N,A2*%
X103337500Y-52050000D03*
%TO.P,U1,39,PF4*%
%TO.N,A3*%
X103337500Y-51550000D03*
%TO.P,U1,40,PF1*%
%TO.N,A4*%
X103337500Y-51050000D03*
%TO.P,U1,41,PF0*%
%TO.N,A5*%
X103337500Y-50550000D03*
%TO.P,U1,42,AREF*%
%TO.N,Net-(C7-Pad1)*%
X103337500Y-50050000D03*
%TO.P,U1,43,GND*%
%TO.N,GND*%
X103337500Y-49550000D03*
%TO.P,U1,44,AVCC*%
%TO.N,Net-(C2-Pad2)*%
X103337500Y-49050000D03*
%TD*%
D16*
%TO.P,D2,1,K*%
%TO.N,GND*%
X103550000Y-56682500D03*
%TO.P,D2,2,A*%
%TO.N,Net-(D2-Pad2)*%
X103550000Y-57652500D03*
%TD*%
D11*
%TO.P,R2,1*%
%TO.N,Net-(J4-PadA7)*%
X100050000Y-44890000D03*
%TO.P,R2,2*%
%TO.N,D-*%
X100050000Y-45910000D03*
%TD*%
D12*
%TO.P,R6,1*%
%TO.N,VBUS*%
X104510000Y-46950000D03*
%TO.P,R6,2*%
%TO.N,RST*%
X103490000Y-46950000D03*
%TD*%
D17*
%TO.P,R7,1*%
%TO.N,Net-(R7-Pad1)*%
X104600000Y-55260000D03*
%TO.P,R7,2*%
%TO.N,GND*%
X104600000Y-54240000D03*
%TD*%
D11*
%TO.P,R1,1*%
%TO.N,Net-(J4-PadA6)*%
X97775000Y-43940000D03*
%TO.P,R1,2*%
%TO.N,D+*%
X97775000Y-44960000D03*
%TD*%
D18*
%TO.P,J3,1,Pin_1*%
%TO.N,IO11*%
X101900000Y-59400000D03*
%TO.P,J3,2,Pin_2*%
%TO.N,IO12*%
X100630000Y-59400000D03*
%TO.P,J3,3,Pin_3*%
%TO.N,IO13*%
X99360000Y-59400000D03*
%TO.P,J3,4,Pin_4*%
%TO.N,A5*%
X98090000Y-59400000D03*
%TD*%
D12*
%TO.P,FB1,1*%
%TO.N,Net-(C2-Pad2)*%
X97810000Y-46000000D03*
%TO.P,FB1,2*%
%TO.N,VBUS*%
X96790000Y-46000000D03*
%TD*%
D17*
%TO.P,RV2,1*%
%TO.N,Net-(J4-PadA6)*%
X96825000Y-44960000D03*
%TO.P,RV2,2*%
%TO.N,GND*%
X96825000Y-43940000D03*
%TD*%
D12*
%TO.P,R3,1*%
%TO.N,GND*%
X103260000Y-44950000D03*
%TO.P,R3,2*%
%TO.N,VBUS*%
X102240000Y-44950000D03*
%TD*%
D19*
%TO.P,D1,1,K*%
%TO.N,VBUS*%
X101615000Y-46950000D03*
%TO.P,D1,2,A*%
%TO.N,RST*%
X102585000Y-46950000D03*
%TD*%
D20*
%TO.P,C6,1*%
%TO.N,GND*%
X102000000Y-56620000D03*
%TO.P,C6,2*%
%TO.N,Net-(C6-Pad2)*%
X102000000Y-57580000D03*
%TD*%
D21*
%TO.P,J1,1,Pin_1*%
%TO.N,D1{slash}TX*%
X93750000Y-44250000D03*
%TO.P,J1,2,Pin_2*%
%TO.N,D0{slash}RX*%
X93750000Y-45520000D03*
%TO.P,J1,3,Pin_3*%
%TO.N,GND*%
X93750000Y-46790000D03*
%TO.P,J1,4,Pin_4*%
X93750000Y-48060000D03*
%TO.P,J1,5,Pin_5*%
%TO.N,D2{slash}SDA*%
X93750000Y-49330000D03*
%TO.P,J1,6,Pin_6*%
%TO.N,D3{slash}SCL*%
X93750000Y-50600000D03*
%TO.P,J1,7,Pin_7*%
%TO.N,D4*%
X93750000Y-51870000D03*
%TO.P,J1,8,Pin_8*%
%TO.N,D5*%
X93750000Y-53140000D03*
%TO.P,J1,9,Pin_9*%
%TO.N,D6*%
X93750000Y-54410000D03*
%TO.P,J1,10,Pin_10*%
%TO.N,D7*%
X93750000Y-55680000D03*
%TO.P,J1,11,Pin_11*%
%TO.N,IO8*%
X93750000Y-56950000D03*
%TO.P,J1,12,Pin_12*%
%TO.N,IO9*%
X93750000Y-58220000D03*
%TD*%
D20*
%TO.P,C4,1*%
%TO.N,VBUS*%
X104150000Y-45020000D03*
%TO.P,C4,2*%
%TO.N,GND*%
X104150000Y-45980000D03*
%TD*%
D22*
%TO.P,Y1,1,1*%
%TO.N,Net-(C6-Pad2)*%
X100700000Y-57850000D03*
D23*
%TO.P,Y1,2,2*%
%TO.N,Net-(C5-Pad2)*%
X99300000Y-56750000D03*
%TO.P,Y1,3*%
%TO.N,GND*%
X99300000Y-57850000D03*
%TO.P,Y1,4*%
X100700000Y-56750000D03*
%TD*%
D10*
%TO.P,C2,1*%
%TO.N,GND*%
X104600000Y-49680000D03*
%TO.P,C2,2*%
%TO.N,Net-(C2-Pad2)*%
X104600000Y-48720000D03*
%TD*%
D12*
%TO.P,R8,1*%
%TO.N,Net-(D2-Pad2)*%
X104510000Y-58600000D03*
%TO.P,R8,2*%
%TO.N,IO13*%
X103490000Y-58600000D03*
%TD*%
D24*
%TO.P,J4,A1,GND*%
%TO.N,GND*%
X96800000Y-42705000D03*
X103200000Y-42705000D03*
%TO.P,J4,A4,VBUS*%
%TO.N,Net-(F1-Pad1)*%
X102400000Y-42705000D03*
D25*
%TO.P,J4,A5,CC1*%
%TO.N,Net-(J4-PadA5)*%
X101250923Y-42705000D03*
%TO.P,J4,A6,D+*%
%TO.N,Net-(J4-PadA6)*%
X100249970Y-42705000D03*
%TO.P,J4,A7,D-*%
%TO.N,Net-(J4-PadA7)*%
X99751169Y-42705860D03*
%TO.P,J4,A8,SBU1*%
%TO.N,unconnected-(J4-PadA8)*%
X98750589Y-42705000D03*
D24*
%TO.P,J4,A9,VBUS*%
%TO.N,Net-(F1-Pad1)*%
X97600000Y-42705000D03*
D25*
%TO.P,J4,B5,CC2*%
%TO.N,Net-(J4-PadB5)*%
X98247811Y-42705000D03*
%TO.P,J4,B6,D+*%
%TO.N,Net-(J4-PadA6)*%
X99250692Y-42705860D03*
%TO.P,J4,B7,D-*%
%TO.N,Net-(J4-PadA7)*%
X100750447Y-42705000D03*
%TO.P,J4,B8,SBU2*%
%TO.N,unconnected-(J4-PadB8)*%
X101750000Y-42705000D03*
D26*
%TO.P,J4,B12,GND*%
%TO.N,GND*%
X96800000Y-43105000D03*
X103200000Y-43105000D03*
D27*
%TO.P,J4,S1,SHIELD*%
%TO.N,unconnected-(J4-PadS1)*%
X105600000Y-37705000D03*
D28*
X105600000Y-41705000D03*
D27*
X94400000Y-37705000D03*
D28*
X94400000Y-41705000D03*
%TD*%
D20*
%TO.P,C3,1*%
%TO.N,GND*%
X95800000Y-43220000D03*
%TO.P,C3,2*%
%TO.N,VBUS*%
X95800000Y-44180000D03*
%TD*%
D10*
%TO.P,C5,1*%
%TO.N,GND*%
X98000000Y-57630000D03*
%TO.P,C5,2*%
%TO.N,Net-(C5-Pad2)*%
X98000000Y-56670000D03*
%TD*%
D29*
%TO.P,R5,1*%
%TO.N,Net-(J4-PadA5)*%
X102190000Y-44000000D03*
%TO.P,R5,2*%
%TO.N,GND*%
X103210000Y-44000000D03*
%TD*%
D10*
%TO.P,C7,1*%
%TO.N,Net-(C7-Pad1)*%
X95800000Y-46030000D03*
%TO.P,C7,2*%
%TO.N,GND*%
X95800000Y-45070000D03*
%TD*%
D16*
%TO.P,F1,1*%
%TO.N,Net-(F1-Pad1)*%
X104150000Y-43165000D03*
%TO.P,F1,2*%
%TO.N,VBUS*%
X104150000Y-44135000D03*
%TD*%
D21*
%TO.P,J2,1,Pin_1*%
%TO.N,VBUS*%
X106250000Y-44250000D03*
%TO.P,J2,2,Pin_2*%
%TO.N,GND*%
X106250000Y-45520000D03*
%TO.P,J2,3,Pin_3*%
%TO.N,RST*%
X106250000Y-46790000D03*
%TO.P,J2,4,Pin_4*%
%TO.N,A4*%
X106250000Y-48060000D03*
%TO.P,J2,5,Pin_5*%
%TO.N,A3*%
X106250000Y-49330000D03*
%TO.P,J2,6,Pin_6*%
%TO.N,A2*%
X106250000Y-50600000D03*
%TO.P,J2,7,Pin_7*%
%TO.N,A1*%
X106250000Y-51870000D03*
%TO.P,J2,8,Pin_8*%
%TO.N,A0*%
X106250000Y-53140000D03*
%TO.P,J2,9,Pin_9*%
%TO.N,D15{slash}SCK*%
X106250000Y-54410000D03*
%TO.P,J2,10,Pin_10*%
%TO.N,D14{slash}MISO*%
X106250000Y-55680000D03*
%TO.P,J2,11,Pin_11*%
%TO.N,D16{slash}MOSI*%
X106250000Y-56950000D03*
%TO.P,J2,12,Pin_12*%
%TO.N,IO10*%
X106250000Y-58220000D03*
%TD*%
D30*
%TO.N,GND*%
X103250000Y-44950000D03*
X95250000Y-48150000D03*
X96350000Y-56500000D03*
X104400000Y-57700000D03*
X96900000Y-44000000D03*
X95600000Y-49250000D03*
X103450000Y-55300000D03*
X102000000Y-56600000D03*
X95750000Y-45100000D03*
X97250000Y-54750000D03*
X98300000Y-57600000D03*
X104500000Y-49700000D03*
X104850000Y-53650000D03*
X101400000Y-44100000D03*
%TO.N,Net-(C2-Pad2)*%
X97750000Y-46050000D03*
X102275000Y-49275000D03*
%TO.N,Net-(C5-Pad2)*%
X97750000Y-52250000D03*
X99200000Y-56750000D03*
%TO.N,Net-(C6-Pad2)*%
X100200000Y-53350000D03*
X100950000Y-57850000D03*
%TO.N,Net-(C7-Pad1)*%
X102200000Y-50150000D03*
X95700000Y-45950000D03*
%TO.N,Net-(C8-Pad2)*%
X100000000Y-49550000D03*
X95550000Y-46800000D03*
%TO.N,RST*%
X103150000Y-47750000D03*
X101400000Y-49250000D03*
%TO.N,D0{slash}RX*%
X96400000Y-48000000D03*
%TO.N,IO11*%
X96550000Y-48850000D03*
%TO.N,IO12*%
X99150000Y-53950000D03*
%TO.N,Net-(J4-PadA7)*%
X100950000Y-44900000D03*
X99150000Y-43950000D03*
%TO.N,Net-(J4-PadB5)*%
X98850000Y-45100000D03*
X100300000Y-44100000D03*
%TO.N,D+*%
X99500000Y-46950000D03*
X97680879Y-45177889D03*
%TO.N,D-*%
X100050000Y-45750000D03*
X100800000Y-46950000D03*
%TO.N,D7*%
X98400000Y-53450000D03*
X101400000Y-50950000D03*
X103650000Y-48400000D03*
%TO.N,D15{slash}SCK*%
X99000000Y-49300000D03*
%TO.N,D16{slash}MOSI*%
X98000000Y-49200000D03*
%TO.N,D14{slash}MISO*%
X97350000Y-48250000D03*
X104600000Y-56200000D03*
%TO.N,D3{slash}SCL*%
X95850000Y-52050000D03*
%TO.N,D2{slash}SDA*%
X98500000Y-51300000D03*
%TO.N,D4*%
X95700000Y-54450000D03*
X97650000Y-53800000D03*
%TO.N,IO10*%
X102300000Y-52650000D03*
%TO.N,D5*%
X101750000Y-53850000D03*
%TO.N,A5*%
X99350000Y-52550000D03*
X95600000Y-56150000D03*
%TO.N,Net-(F1-Pad1)*%
X97600000Y-42750000D03*
X102400000Y-42850000D03*
X104200000Y-43200000D03*
%TD*%
D31*
%TO.N,Net-(C6-Pad2)*%
X101730000Y-57850000D02*
X102000000Y-57580000D01*
X100950000Y-57850000D02*
X101730000Y-57850000D01*
%TO.N,IO13*%
X100000000Y-58400000D02*
X100050000Y-58450000D01*
X100000000Y-56219000D02*
X100000000Y-58400000D01*
X100059500Y-56159500D02*
X100000000Y-56219000D01*
X101123296Y-56159500D02*
X100059500Y-56159500D01*
X102000000Y-55282796D02*
X101123296Y-56159500D01*
X102000000Y-54887500D02*
X102000000Y-55282796D01*
%TO.N,Net-(C5-Pad2)*%
X99200000Y-56750000D02*
X98380000Y-56750000D01*
X98380000Y-56750000D02*
X98300000Y-56670000D01*
%TO.N,IO9*%
X100500000Y-55300000D02*
X100500000Y-54887500D01*
X99650500Y-56149500D02*
X100500000Y-55300000D01*
X97081080Y-56149500D02*
X99650500Y-56149500D01*
X95050000Y-56396910D02*
X95036500Y-56383410D01*
X95036500Y-56383410D02*
X95036500Y-55863500D01*
X95036500Y-55863500D02*
X95313500Y-55586500D01*
X95313500Y-55586500D02*
X96518080Y-55586500D01*
X96518080Y-55586500D02*
X97081080Y-56149500D01*
X95050000Y-57100000D02*
X95050000Y-56396910D01*
X93930000Y-58220000D02*
X95050000Y-57100000D01*
X93813500Y-58220000D02*
X93930000Y-58220000D01*
%TO.N,GND*%
X96263500Y-45613500D02*
X96300000Y-45650000D01*
X96300000Y-45650000D02*
X96300000Y-46200000D01*
%TO.N,VBUS*%
X104650000Y-46710000D02*
X104460000Y-46900000D01*
X104650000Y-45520000D02*
X104650000Y-46710000D01*
X104150000Y-45020000D02*
X104650000Y-45520000D01*
X104150000Y-45020000D02*
X104150000Y-44135000D01*
X104342602Y-46950000D02*
X104460000Y-46950000D01*
X103792602Y-46400000D02*
X104342602Y-46950000D01*
X102059000Y-46400000D02*
X103792602Y-46400000D01*
X102029500Y-46370500D02*
X102059000Y-46400000D01*
X102050000Y-45910000D02*
X102060000Y-45900000D01*
X102050000Y-46350000D02*
X102050000Y-45910000D01*
D32*
X104150000Y-44135000D02*
X104715000Y-44135000D01*
D31*
X97100000Y-46650000D02*
X96740000Y-46290000D01*
X98224500Y-46675500D02*
X98250000Y-46650000D01*
X101615000Y-46950000D02*
X102000000Y-47335000D01*
X101570500Y-46370500D02*
X98529500Y-46370500D01*
X102060000Y-45900000D02*
X102060000Y-44970000D01*
X101570500Y-46370500D02*
X101570500Y-46905500D01*
X95800000Y-44180000D02*
X96314500Y-44694500D01*
X96740000Y-46290000D02*
X96740000Y-46000000D01*
X102050000Y-46350000D02*
X102029500Y-46370500D01*
X102029500Y-46370500D02*
X101570500Y-46370500D01*
X99384500Y-47484500D02*
X98224500Y-47484500D01*
X99500000Y-48212500D02*
X99500000Y-47600000D01*
X96314500Y-45305290D02*
X96740000Y-45730790D01*
D32*
X104715000Y-44135000D02*
X106135000Y-44135000D01*
D31*
X98224500Y-47484500D02*
X98224500Y-46675500D01*
X98529500Y-46370500D02*
X98250000Y-46650000D01*
X96740000Y-45730790D02*
X96740000Y-46000000D01*
X99500000Y-47600000D02*
X99384500Y-47484500D01*
X102000000Y-47335000D02*
X102000000Y-48212500D01*
%TO.N,GND*%
X104000000Y-45980000D02*
X104070000Y-46050000D01*
D33*
X104000000Y-46000000D02*
X104000000Y-45980000D01*
D31*
%TO.N,VBUS*%
X96314500Y-44694500D02*
X96314500Y-45305290D01*
X98250000Y-46650000D02*
X97100000Y-46650000D01*
D33*
X106135000Y-44135000D02*
X106150000Y-44150000D01*
D31*
X101570500Y-46905500D02*
X101615000Y-46950000D01*
%TO.N,GND*%
X101579500Y-44620500D02*
X101400000Y-44441000D01*
X95420000Y-48080000D02*
X95950000Y-47550000D01*
X101400000Y-44441000D02*
X101400000Y-44100000D01*
X95750000Y-45100000D02*
X96263500Y-45613500D01*
X101310000Y-44010000D02*
X101310000Y-44000000D01*
X104350000Y-49550000D02*
X103337500Y-49550000D01*
X104500000Y-49700000D02*
X104350000Y-49550000D01*
X95400000Y-48080000D02*
X95420000Y-48080000D01*
%TO.N,Net-(C2-Pad2)*%
X103337500Y-49050000D02*
X102500000Y-49050000D01*
X102500000Y-49050000D02*
X102275000Y-49275000D01*
X104420000Y-49050000D02*
X104650000Y-48820000D01*
X103337500Y-49050000D02*
X104420000Y-49050000D01*
%TO.N,Net-(C5-Pad2)*%
X97057796Y-51550000D02*
X96662500Y-51550000D01*
X97750000Y-52250000D02*
X97750000Y-52242204D01*
X97750000Y-52242204D02*
X97057796Y-51550000D01*
%TO.N,Net-(C6-Pad2)*%
X97450000Y-51050000D02*
X96662500Y-51050000D01*
X98982500Y-53132500D02*
X98786500Y-52936500D01*
X97900000Y-50600000D02*
X97450000Y-51050000D01*
X99544800Y-53132500D02*
X98982500Y-53132500D01*
X100200000Y-53350000D02*
X99762300Y-53350000D01*
X98786500Y-52266590D02*
X99750000Y-51303090D01*
X99762300Y-53350000D02*
X99544800Y-53132500D01*
X99750000Y-50600000D02*
X97900000Y-50600000D01*
X99750000Y-51303090D02*
X99750000Y-50600000D01*
X98786500Y-52936500D02*
X98786500Y-52266590D01*
%TO.N,Net-(C7-Pad1)*%
X102200000Y-50150000D02*
X102300000Y-50050000D01*
X102300000Y-50050000D02*
X103337500Y-50050000D01*
%TO.N,Net-(C8-Pad2)*%
X95400000Y-46950000D02*
X95400000Y-47120000D01*
X100000000Y-49550000D02*
X100000000Y-48212500D01*
X95550000Y-46800000D02*
X95400000Y-46950000D01*
%TO.N,RST*%
X97250000Y-49550000D02*
X97800000Y-50100000D01*
X105187039Y-47750000D02*
X106147039Y-46790000D01*
X96662500Y-49550000D02*
X97250000Y-49550000D01*
X103150000Y-47500000D02*
X103550000Y-47100000D01*
X100550000Y-50100000D02*
X101400000Y-49250000D01*
X103150000Y-47750000D02*
X103150000Y-47500000D01*
X103400000Y-46950000D02*
X102585000Y-46950000D01*
X103550000Y-47100000D02*
X103400000Y-46950000D01*
X103150000Y-47750000D02*
X105187039Y-47750000D01*
X97800000Y-50100000D02*
X100550000Y-50100000D01*
%TO.N,D1{slash}TX*%
X96190790Y-53550000D02*
X94690500Y-52049710D01*
X96662500Y-53550000D02*
X96190790Y-53550000D01*
X93852961Y-44250000D02*
X93813500Y-44250000D01*
X94690500Y-52049710D02*
X94690500Y-45087539D01*
X94690500Y-45087539D02*
X93852961Y-44250000D01*
%TO.N,D0{slash}RX*%
X96050000Y-53050000D02*
X96662500Y-53050000D01*
X95366590Y-48686500D02*
X94944500Y-49108590D01*
X95663500Y-48686500D02*
X95366590Y-48686500D01*
X96350000Y-48000000D02*
X95663500Y-48686500D01*
X96400000Y-48000000D02*
X96350000Y-48000000D01*
X94944500Y-51944500D02*
X96050000Y-53050000D01*
X94944500Y-49108590D02*
X94944500Y-51944500D01*
%TO.N,A4*%
X105690000Y-48060000D02*
X106186500Y-48060000D01*
X103337500Y-51050000D02*
X104731580Y-51050000D01*
X105250000Y-48500000D02*
X105690000Y-48060000D01*
X105046000Y-50011398D02*
X105250000Y-49807398D01*
X104731580Y-51050000D02*
X105046000Y-50735580D01*
X105046000Y-50735580D02*
X105046000Y-50011398D01*
X105250000Y-49807398D02*
X105250000Y-48500000D01*
%TO.N,IO11*%
X96662500Y-48962500D02*
X96662500Y-49050000D01*
X96550000Y-48850000D02*
X96662500Y-48962500D01*
%TO.N,IO12*%
X99150000Y-53950000D02*
X99150000Y-54737500D01*
X99150000Y-54737500D02*
X99000000Y-54887500D01*
%TO.N,Net-(J4-PadA5)*%
X101695500Y-43395500D02*
X101445037Y-43395500D01*
X101250923Y-43201386D02*
X101250923Y-42705000D01*
X102040000Y-44000000D02*
X102040000Y-43740000D01*
X102040000Y-43740000D02*
X101695500Y-43395500D01*
X101445037Y-43395500D02*
X101250923Y-43201386D01*
%TO.N,Net-(J4-PadA6)*%
X99004500Y-43395500D02*
X99250692Y-43149308D01*
X98286500Y-44686500D02*
X98099500Y-44499500D01*
X98913500Y-44513500D02*
X98550000Y-44150000D01*
X99439500Y-44510500D02*
X99439500Y-45307410D01*
X99439500Y-44510500D02*
X99713500Y-44236500D01*
X99436500Y-44513500D02*
X98913500Y-44513500D01*
X97799500Y-43964500D02*
X97775000Y-43940000D01*
X98099500Y-44499500D02*
X97799500Y-44499500D01*
X99439500Y-45307410D02*
X99083410Y-45663500D01*
X99439500Y-44510500D02*
X99436500Y-44513500D01*
X98616590Y-45663500D02*
X98286500Y-45333410D01*
X97285500Y-44499500D02*
X96825000Y-44960000D01*
X99713500Y-44236500D02*
X99713500Y-43786500D01*
X98550000Y-44150000D02*
X98550000Y-43406552D01*
X97799500Y-44499500D02*
X97285500Y-44499500D01*
X99250692Y-43149308D02*
X99250692Y-42705860D01*
X98286500Y-45333410D02*
X98286500Y-44686500D01*
X98561052Y-43395500D02*
X99004500Y-43395500D01*
X99713500Y-43786500D02*
X100249970Y-43250030D01*
X100249970Y-43250030D02*
X100249970Y-42705000D01*
X99083410Y-45663500D02*
X98616590Y-45663500D01*
X98550000Y-43406552D02*
X98561052Y-43395500D01*
X97799500Y-44499500D02*
X97799500Y-43964500D01*
%TO.N,Net-(J4-PadA7)*%
X100850000Y-44801000D02*
X100939000Y-44890000D01*
X100750447Y-42705000D02*
X100750447Y-43399553D01*
X100750447Y-43399553D02*
X100850000Y-43499106D01*
X100850000Y-43499106D02*
X100850000Y-44801000D01*
X100939000Y-44890000D02*
X101000000Y-44890000D01*
X99751169Y-43348831D02*
X99751169Y-42705860D01*
X99200000Y-43900000D02*
X99751169Y-43348831D01*
X99950000Y-44890000D02*
X101000000Y-44890000D01*
%TO.N,Net-(J4-PadB5)*%
X98296000Y-44336790D02*
X98296000Y-42753189D01*
X98850000Y-45100000D02*
X98850000Y-44890790D01*
X98850000Y-44890790D02*
X98296000Y-44336790D01*
X98296000Y-42753189D02*
X98247811Y-42705000D01*
%TO.N,D+*%
X97775000Y-45083768D02*
X97775000Y-44960000D01*
X99500000Y-47240790D02*
X99500000Y-46950000D01*
X101000000Y-48212500D02*
X101000000Y-47817204D01*
X100667296Y-47484500D02*
X99743710Y-47484500D01*
X101000000Y-47817204D02*
X100667296Y-47484500D01*
X97680879Y-45177889D02*
X97775000Y-45083768D01*
X99743710Y-47484500D02*
X99500000Y-47240790D01*
%TO.N,D-*%
X101500000Y-47800000D02*
X101500000Y-48212500D01*
X100800000Y-46950000D02*
X100800000Y-47100000D01*
X100800000Y-47100000D02*
X101500000Y-47800000D01*
%TO.N,D7*%
X101400000Y-50950000D02*
X101400000Y-53043880D01*
X100530380Y-53913500D02*
X99966590Y-53913500D01*
X99636500Y-53583410D02*
X99633410Y-53583410D01*
X102687500Y-48400000D02*
X102500000Y-48212500D01*
X98463500Y-53386500D02*
X98400000Y-53450000D01*
X99633410Y-53583410D02*
X99436500Y-53386500D01*
X99436500Y-53386500D02*
X98463500Y-53386500D01*
X103650000Y-48400000D02*
X102687500Y-48400000D01*
X101400000Y-53043880D02*
X100530380Y-53913500D01*
X99966590Y-53913500D02*
X99636500Y-53583410D01*
%TO.N,Net-(D2-Pad2)*%
X104497500Y-58600000D02*
X103550000Y-57652500D01*
X104510000Y-58600000D02*
X104497500Y-58600000D01*
%TO.N,D15{slash}SCK*%
X98500000Y-48800000D02*
X98500000Y-48212500D01*
X99000000Y-49300000D02*
X98500000Y-48800000D01*
%TO.N,D16{slash}MOSI*%
X98000000Y-49200000D02*
X98000000Y-48212500D01*
%TO.N,D14{slash}MISO*%
X105120000Y-55680000D02*
X106186500Y-55680000D01*
X104600000Y-56200000D02*
X105120000Y-55680000D01*
X97387500Y-48212500D02*
X97350000Y-48250000D01*
X97500000Y-48212500D02*
X97387500Y-48212500D01*
%TO.N,D3{slash}SCL*%
X95850000Y-52050000D02*
X96662500Y-52050000D01*
%TO.N,D2{slash}SDA*%
X98400000Y-51400000D02*
X98500000Y-51300000D01*
X97553090Y-52850000D02*
X98100000Y-52850000D01*
X98400000Y-52550000D02*
X98400000Y-51400000D01*
X98100000Y-52850000D02*
X98400000Y-52550000D01*
X97253090Y-52550000D02*
X97553090Y-52850000D01*
X96662500Y-52550000D02*
X97253090Y-52550000D01*
%TO.N,D4*%
X97650000Y-53800000D02*
X97728704Y-53878704D01*
X97886500Y-53878704D02*
X98500000Y-54492204D01*
X94151580Y-51870000D02*
X93813500Y-51870000D01*
X98500000Y-54492204D02*
X98500000Y-54887500D01*
X97728704Y-53878704D02*
X97886500Y-53878704D01*
X95700000Y-53418420D02*
X94151580Y-51870000D01*
X95700000Y-54450000D02*
X95700000Y-53418420D01*
%TO.N,D6*%
X94350000Y-55000000D02*
X93913500Y-54563500D01*
X99500000Y-54887500D02*
X99500000Y-55540790D01*
X97291500Y-55641500D02*
X96650000Y-55000000D01*
X99500000Y-55540790D02*
X99399290Y-55641500D01*
X96650000Y-55000000D02*
X94350000Y-55000000D01*
X99399290Y-55641500D02*
X97291500Y-55641500D01*
%TO.N,IO8*%
X94796000Y-56800000D02*
X94646000Y-56950000D01*
X94782500Y-56786500D02*
X94796000Y-56800000D01*
X95240790Y-55300000D02*
X94782500Y-55758290D01*
X99504500Y-55895500D02*
X97186290Y-55895500D01*
X96590790Y-55300000D02*
X95240790Y-55300000D01*
X100000000Y-55400000D02*
X99504500Y-55895500D01*
X100000000Y-54887500D02*
X100000000Y-55400000D01*
X97186290Y-55895500D02*
X96590790Y-55300000D01*
X94782500Y-55758290D02*
X94782500Y-56786500D01*
X94646000Y-56950000D02*
X93813500Y-56950000D01*
%TO.N,IO10*%
X101000000Y-53803090D02*
X101000000Y-54887500D01*
X102153090Y-52650000D02*
X101000000Y-53803090D01*
X102300000Y-52650000D02*
X102153090Y-52650000D01*
%TO.N,D5*%
X101500000Y-54100000D02*
X101750000Y-53850000D01*
X101500000Y-54887500D02*
X101500000Y-54100000D01*
%TO.N,IO13*%
X103340000Y-58450000D02*
X103490000Y-58600000D01*
X99650000Y-58450000D02*
X99360000Y-58740000D01*
X100300000Y-58450000D02*
X103340000Y-58450000D01*
X100300000Y-58450000D02*
X99650000Y-58450000D01*
X99360000Y-58740000D02*
X99360000Y-59336500D01*
%TO.N,Net-(R7-Pad1)*%
X102500000Y-55450000D02*
X102950000Y-55900000D01*
X102500000Y-54887500D02*
X102500000Y-55450000D01*
X103960000Y-55900000D02*
X104600000Y-55260000D01*
X102950000Y-55900000D02*
X103960000Y-55900000D01*
%TO.N,A0*%
X106186500Y-53076500D02*
X106186500Y-53140000D01*
X106160000Y-53050000D02*
X106186500Y-53076500D01*
X103337500Y-53050000D02*
X106160000Y-53050000D01*
%TO.N,A1*%
X105980000Y-51870000D02*
X106186500Y-51870000D01*
X105300000Y-52550000D02*
X105980000Y-51870000D01*
X103337500Y-52550000D02*
X105300000Y-52550000D01*
%TO.N,A2*%
X105900000Y-50600000D02*
X106186500Y-50600000D01*
X104450000Y-52050000D02*
X105900000Y-50600000D01*
X103337500Y-52050000D02*
X104450000Y-52050000D01*
%TO.N,A3*%
X103337500Y-51550000D02*
X104590790Y-51550000D01*
X104590790Y-51550000D02*
X105300000Y-50840790D01*
X106086608Y-49330000D02*
X106186500Y-49330000D01*
X105300000Y-50116608D02*
X106086608Y-49330000D01*
X105300000Y-50840790D02*
X105300000Y-50116608D01*
%TO.N,A5*%
X95600000Y-56150000D02*
X95500000Y-56250000D01*
X101966590Y-50713500D02*
X102433410Y-50713500D01*
X101639590Y-50386500D02*
X101966590Y-50713500D01*
X99350000Y-52203090D02*
X101166590Y-50386500D01*
X96200000Y-58700000D02*
X97350000Y-58700000D01*
X97350000Y-58700000D02*
X97986500Y-59336500D01*
X99350000Y-52550000D02*
X99350000Y-52203090D01*
X95500000Y-58000000D02*
X96200000Y-58700000D01*
X97986500Y-59336500D02*
X98090000Y-59336500D01*
X102433410Y-50713500D02*
X102596910Y-50550000D01*
X95500000Y-56250000D02*
X95500000Y-58000000D01*
X102596910Y-50550000D02*
X103337500Y-50550000D01*
X101166590Y-50386500D02*
X101639590Y-50386500D01*
%TD*%
%TA.AperFunction,Conductor*%
%TO.N,GND*%
G36*
X102294194Y-55491460D02*
G01*
X102297099Y-55494365D01*
X102300518Y-55499482D01*
X102305635Y-55502901D01*
X102306323Y-55503589D01*
X102315129Y-55514658D01*
X102315379Y-55515058D01*
X102318263Y-55522040D01*
X102318851Y-55521757D01*
X102321903Y-55528098D01*
X102323468Y-55534959D01*
X102327853Y-55540461D01*
X102327853Y-55540462D01*
X102341648Y-55557773D01*
X102345744Y-55563559D01*
X102349596Y-55569711D01*
X102354808Y-55574923D01*
X102359493Y-55580167D01*
X102377775Y-55603109D01*
X102384114Y-55606167D01*
X102389615Y-55610558D01*
X102389189Y-55611092D01*
X102395353Y-55615468D01*
X102784371Y-56004485D01*
X102788678Y-56010560D01*
X102789250Y-56010105D01*
X102793631Y-56015613D01*
X102796678Y-56021958D01*
X102802175Y-56026354D01*
X102819766Y-56040422D01*
X102824925Y-56045039D01*
X102830169Y-56050283D01*
X102833132Y-56052145D01*
X102833139Y-56052151D01*
X102836174Y-56054058D01*
X102841950Y-56058163D01*
X102864733Y-56076383D01*
X102871591Y-56077960D01*
X102875356Y-56079780D01*
X102879292Y-56081158D01*
X102885248Y-56084902D01*
X102892239Y-56085692D01*
X102892244Y-56085694D01*
X102914237Y-56088180D01*
X102921223Y-56089373D01*
X102928297Y-56091000D01*
X102935677Y-56091000D01*
X102942698Y-56091396D01*
X102971838Y-56094690D01*
X102978484Y-56092369D01*
X102985478Y-56091585D01*
X102985554Y-56092264D01*
X102993004Y-56091000D01*
X103225486Y-56091000D01*
X103269680Y-56109306D01*
X103287986Y-56153500D01*
X103269680Y-56197694D01*
X103251900Y-56210144D01*
X103180064Y-56243641D01*
X103171239Y-56249821D01*
X103092321Y-56328739D01*
X103086141Y-56337564D01*
X103038683Y-56439340D01*
X103036038Y-56448414D01*
X103030267Y-56492246D01*
X103030000Y-56496325D01*
X103030000Y-56570069D01*
X103033641Y-56578859D01*
X103042431Y-56582500D01*
X104057569Y-56582500D01*
X104066359Y-56578859D01*
X104070000Y-56570069D01*
X104070000Y-56518867D01*
X104088306Y-56474673D01*
X104132500Y-56456367D01*
X104176694Y-56474673D01*
X104180343Y-56478651D01*
X104260107Y-56573543D01*
X104260110Y-56573546D01*
X104262970Y-56576948D01*
X104382313Y-56656390D01*
X104386564Y-56657718D01*
X104514905Y-56697814D01*
X104514908Y-56697814D01*
X104519157Y-56699142D01*
X104523609Y-56699224D01*
X104523611Y-56699224D01*
X104594642Y-56700526D01*
X104662499Y-56701770D01*
X104800817Y-56664060D01*
X104922991Y-56589045D01*
X105019200Y-56482754D01*
X105081710Y-56353733D01*
X105083937Y-56340500D01*
X105094433Y-56278108D01*
X105105496Y-56212354D01*
X105105647Y-56200000D01*
X105085323Y-56058082D01*
X105080344Y-56047131D01*
X105078716Y-55999325D01*
X105093045Y-55977069D01*
X105180808Y-55889306D01*
X105225002Y-55871000D01*
X105310001Y-55871000D01*
X105354195Y-55889306D01*
X105372501Y-55933500D01*
X105372501Y-55965780D01*
X105383422Y-56039979D01*
X105385562Y-56044337D01*
X105385562Y-56044338D01*
X105435425Y-56145895D01*
X105438810Y-56152790D01*
X105442462Y-56156436D01*
X105442463Y-56156437D01*
X105524098Y-56237930D01*
X105524100Y-56237932D01*
X105527753Y-56241578D01*
X105563131Y-56258871D01*
X105594797Y-56294725D01*
X105591835Y-56342469D01*
X105563230Y-56371124D01*
X105531847Y-56386533D01*
X105531846Y-56386534D01*
X105527210Y-56388810D01*
X105523564Y-56392462D01*
X105523563Y-56392463D01*
X105442070Y-56474098D01*
X105442068Y-56474100D01*
X105438422Y-56477753D01*
X105434364Y-56486054D01*
X105391599Y-56573543D01*
X105383231Y-56590661D01*
X105372500Y-56664219D01*
X105372501Y-57235780D01*
X105383422Y-57309979D01*
X105385562Y-57314337D01*
X105385562Y-57314338D01*
X105422723Y-57390024D01*
X105438810Y-57422790D01*
X105442462Y-57426436D01*
X105442463Y-57426437D01*
X105524098Y-57507930D01*
X105524100Y-57507932D01*
X105527753Y-57511578D01*
X105563131Y-57528871D01*
X105594797Y-57564725D01*
X105591835Y-57612469D01*
X105563230Y-57641124D01*
X105531847Y-57656533D01*
X105531846Y-57656534D01*
X105527210Y-57658810D01*
X105523564Y-57662462D01*
X105523563Y-57662463D01*
X105442070Y-57744098D01*
X105442068Y-57744100D01*
X105438422Y-57747753D01*
X105436154Y-57752393D01*
X105389327Y-57848191D01*
X105383231Y-57860661D01*
X105372500Y-57934219D01*
X105372501Y-58505780D01*
X105383422Y-58579979D01*
X105385562Y-58584337D01*
X105385562Y-58584338D01*
X105431161Y-58677210D01*
X105438810Y-58692790D01*
X105442462Y-58696436D01*
X105442463Y-58696437D01*
X105524098Y-58777930D01*
X105524100Y-58777932D01*
X105527753Y-58781578D01*
X105546335Y-58790661D01*
X105587046Y-58810561D01*
X105640661Y-58836769D01*
X105645464Y-58837470D01*
X105645465Y-58837470D01*
X105665674Y-58840418D01*
X105714219Y-58847500D01*
X105988016Y-58847500D01*
X106010718Y-58851769D01*
X106062578Y-58871988D01*
X106080776Y-58879083D01*
X106080138Y-58880720D01*
X106113800Y-58906000D01*
X106122500Y-58937809D01*
X106122500Y-59210000D01*
X106104194Y-59254194D01*
X106060000Y-59272500D01*
X102613389Y-59272500D01*
X102569195Y-59254194D01*
X102552616Y-59224590D01*
X102538663Y-59166472D01*
X102537784Y-59162810D01*
X102536058Y-59159465D01*
X102536056Y-59159461D01*
X102534461Y-59156371D01*
X102527499Y-59127705D01*
X102527499Y-58864220D01*
X102516578Y-58790021D01*
X102487622Y-58731045D01*
X102484577Y-58683307D01*
X102516180Y-58647397D01*
X102543725Y-58641000D01*
X103030000Y-58641000D01*
X103074194Y-58659306D01*
X103092500Y-58703500D01*
X103092500Y-58810856D01*
X103107730Y-58887423D01*
X103111149Y-58892540D01*
X103111150Y-58892542D01*
X103120143Y-58906000D01*
X103165748Y-58974252D01*
X103170865Y-58977671D01*
X103247458Y-59028850D01*
X103247460Y-59028851D01*
X103252577Y-59032270D01*
X103286371Y-59038992D01*
X103326131Y-59046901D01*
X103326134Y-59046901D01*
X103329144Y-59047500D01*
X103650856Y-59047500D01*
X103653866Y-59046901D01*
X103653869Y-59046901D01*
X103693629Y-59038992D01*
X103727423Y-59032270D01*
X103732540Y-59028851D01*
X103732542Y-59028850D01*
X103809135Y-58977671D01*
X103814252Y-58974252D01*
X103859857Y-58906000D01*
X103868850Y-58892542D01*
X103868851Y-58892540D01*
X103872270Y-58887423D01*
X103887500Y-58810856D01*
X103887500Y-58411003D01*
X103905806Y-58366809D01*
X103950000Y-58348503D01*
X103994194Y-58366809D01*
X104094194Y-58466809D01*
X104112500Y-58511003D01*
X104112500Y-58810856D01*
X104127730Y-58887423D01*
X104131149Y-58892540D01*
X104131150Y-58892542D01*
X104140143Y-58906000D01*
X104185748Y-58974252D01*
X104190865Y-58977671D01*
X104267458Y-59028850D01*
X104267460Y-59028851D01*
X104272577Y-59032270D01*
X104306371Y-59038992D01*
X104346131Y-59046901D01*
X104346134Y-59046901D01*
X104349144Y-59047500D01*
X104670856Y-59047500D01*
X104673866Y-59046901D01*
X104673869Y-59046901D01*
X104713629Y-59038992D01*
X104747423Y-59032270D01*
X104752540Y-59028851D01*
X104752542Y-59028850D01*
X104829135Y-58977671D01*
X104834252Y-58974252D01*
X104879857Y-58906000D01*
X104888850Y-58892542D01*
X104888851Y-58892540D01*
X104892270Y-58887423D01*
X104907500Y-58810856D01*
X104907500Y-58389144D01*
X104892270Y-58312577D01*
X104883597Y-58299596D01*
X104837671Y-58230865D01*
X104837670Y-58230864D01*
X104834252Y-58225748D01*
X104790480Y-58196500D01*
X104752542Y-58171150D01*
X104752540Y-58171149D01*
X104747423Y-58167730D01*
X104698366Y-58157972D01*
X104673869Y-58153099D01*
X104673866Y-58153099D01*
X104670856Y-58152500D01*
X104349144Y-58152500D01*
X104349144Y-58151487D01*
X104306642Y-58138601D01*
X104302091Y-58134476D01*
X104015806Y-57848191D01*
X103997500Y-57803997D01*
X103997500Y-57477912D01*
X103981545Y-57397700D01*
X103920764Y-57306736D01*
X103849342Y-57259012D01*
X103822767Y-57219239D01*
X103832099Y-57172322D01*
X103857652Y-57150402D01*
X103919936Y-57121359D01*
X103928761Y-57115179D01*
X104007679Y-57036261D01*
X104013859Y-57027436D01*
X104061317Y-56925660D01*
X104063962Y-56916586D01*
X104069733Y-56872754D01*
X104070000Y-56868675D01*
X104070000Y-56794931D01*
X104066359Y-56786141D01*
X104057569Y-56782500D01*
X103042431Y-56782500D01*
X103033641Y-56786141D01*
X103030000Y-56794931D01*
X103030000Y-56868675D01*
X103030267Y-56872754D01*
X103036038Y-56916586D01*
X103038683Y-56925660D01*
X103086141Y-57027436D01*
X103092321Y-57036261D01*
X103171239Y-57115179D01*
X103180064Y-57121359D01*
X103242348Y-57150402D01*
X103274665Y-57185670D01*
X103272578Y-57233460D01*
X103250659Y-57259012D01*
X103179236Y-57306736D01*
X103118455Y-57397700D01*
X103102500Y-57477912D01*
X103102500Y-57827088D01*
X103103099Y-57830098D01*
X103103099Y-57830101D01*
X103107769Y-57853576D01*
X103118455Y-57907300D01*
X103121874Y-57912417D01*
X103121875Y-57912419D01*
X103149419Y-57953641D01*
X103179236Y-57998264D01*
X103184353Y-58001683D01*
X103184354Y-58001684D01*
X103267846Y-58057473D01*
X103294421Y-58097247D01*
X103285088Y-58144163D01*
X103257585Y-58166734D01*
X103252577Y-58167730D01*
X103247460Y-58171149D01*
X103247458Y-58171150D01*
X103209520Y-58196500D01*
X103165748Y-58225748D01*
X103162329Y-58230865D01*
X103162090Y-58231223D01*
X103161731Y-58231463D01*
X103157976Y-58235218D01*
X103157229Y-58234471D01*
X103122316Y-58257799D01*
X103110123Y-58259000D01*
X101395801Y-58259000D01*
X101351607Y-58240694D01*
X101333301Y-58196500D01*
X101349464Y-58154558D01*
X101366213Y-58136054D01*
X101369200Y-58132754D01*
X101396576Y-58076249D01*
X101432319Y-58044459D01*
X101452822Y-58041000D01*
X101686768Y-58041000D01*
X101694107Y-58042250D01*
X101694190Y-58041523D01*
X101701181Y-58042320D01*
X101707822Y-58044652D01*
X101714815Y-58043874D01*
X101714816Y-58043874D01*
X101737197Y-58041383D01*
X101744110Y-58041000D01*
X101751533Y-58041000D01*
X101758465Y-58039419D01*
X101765418Y-58038243D01*
X101794429Y-58035014D01*
X101800393Y-58031281D01*
X101804341Y-58029906D01*
X101808100Y-58028097D01*
X101814959Y-58026532D01*
X101825630Y-58018029D01*
X101837773Y-58008352D01*
X101843559Y-58004256D01*
X101846710Y-58002283D01*
X101846711Y-58002282D01*
X101849097Y-58000788D01*
X101849101Y-58000787D01*
X101849712Y-58000404D01*
X101849799Y-58000543D01*
X101887120Y-57987500D01*
X102196348Y-57987500D01*
X102199358Y-57986901D01*
X102199361Y-57986901D01*
X102245003Y-57977822D01*
X102274373Y-57971980D01*
X102279490Y-57968561D01*
X102279492Y-57968560D01*
X102357740Y-57916276D01*
X102362857Y-57912857D01*
X102398161Y-57860021D01*
X102418560Y-57829492D01*
X102418561Y-57829490D01*
X102421980Y-57824373D01*
X102437500Y-57746348D01*
X102437500Y-57413652D01*
X102421980Y-57335627D01*
X102418211Y-57329985D01*
X102369371Y-57256892D01*
X102362857Y-57247143D01*
X102277189Y-57189901D01*
X102250613Y-57150128D01*
X102259945Y-57103212D01*
X102285498Y-57081291D01*
X102363066Y-57045120D01*
X102371892Y-57038940D01*
X102448940Y-56961892D01*
X102455120Y-56953067D01*
X102501460Y-56853689D01*
X102504105Y-56844615D01*
X102509733Y-56801871D01*
X102510000Y-56797793D01*
X102510000Y-56732431D01*
X102506359Y-56723641D01*
X102497569Y-56720000D01*
X101502431Y-56720000D01*
X101493641Y-56723641D01*
X101490000Y-56732431D01*
X101490000Y-56797793D01*
X101490267Y-56801871D01*
X101495895Y-56844615D01*
X101498540Y-56853689D01*
X101544880Y-56953067D01*
X101551060Y-56961892D01*
X101628108Y-57038940D01*
X101636934Y-57045120D01*
X101714502Y-57081291D01*
X101746819Y-57116559D01*
X101744732Y-57164349D01*
X101722812Y-57189901D01*
X101637143Y-57247143D01*
X101630629Y-57256892D01*
X101581790Y-57329985D01*
X101578020Y-57335627D01*
X101562500Y-57413652D01*
X101562500Y-57596500D01*
X101544194Y-57640694D01*
X101500000Y-57659000D01*
X101453247Y-57659000D01*
X101409053Y-57640694D01*
X101396352Y-57622369D01*
X101377827Y-57581624D01*
X101377825Y-57581620D01*
X101375984Y-57577572D01*
X101292652Y-57480861D01*
X101278766Y-57443473D01*
X101277801Y-57443568D01*
X101277500Y-57440512D01*
X101277500Y-57437442D01*
X101275311Y-57426437D01*
X101271303Y-57406287D01*
X101271302Y-57406285D01*
X101270102Y-57400252D01*
X101266683Y-57395135D01*
X101263268Y-57390024D01*
X101253935Y-57343108D01*
X101280512Y-57303333D01*
X101289073Y-57297613D01*
X101297611Y-57289075D01*
X101334976Y-57233155D01*
X101339597Y-57221997D01*
X101349401Y-57172711D01*
X101350000Y-57166627D01*
X101350000Y-56862431D01*
X101346359Y-56853641D01*
X101337569Y-56850000D01*
X100662500Y-56850000D01*
X100618306Y-56831694D01*
X100600000Y-56787500D01*
X100600000Y-56712500D01*
X100618306Y-56668306D01*
X100662500Y-56650000D01*
X101337569Y-56650000D01*
X101346359Y-56646359D01*
X101350000Y-56637569D01*
X101350000Y-56507569D01*
X101490000Y-56507569D01*
X101493641Y-56516359D01*
X101502431Y-56520000D01*
X101887569Y-56520000D01*
X101896359Y-56516359D01*
X101900000Y-56507569D01*
X102100000Y-56507569D01*
X102103641Y-56516359D01*
X102112431Y-56520000D01*
X102497569Y-56520000D01*
X102506359Y-56516359D01*
X102510000Y-56507569D01*
X102510000Y-56442207D01*
X102509733Y-56438129D01*
X102504105Y-56395385D01*
X102501460Y-56386311D01*
X102455120Y-56286933D01*
X102448940Y-56278108D01*
X102371892Y-56201060D01*
X102363067Y-56194880D01*
X102263689Y-56148540D01*
X102254615Y-56145895D01*
X102211871Y-56140267D01*
X102207793Y-56140000D01*
X102112431Y-56140000D01*
X102103641Y-56143641D01*
X102100000Y-56152431D01*
X102100000Y-56507569D01*
X101900000Y-56507569D01*
X101900000Y-56152431D01*
X101896359Y-56143641D01*
X101887569Y-56140000D01*
X101792207Y-56140000D01*
X101788129Y-56140267D01*
X101745385Y-56145895D01*
X101736311Y-56148540D01*
X101636933Y-56194880D01*
X101628108Y-56201060D01*
X101551060Y-56278108D01*
X101544880Y-56286933D01*
X101498540Y-56386311D01*
X101495895Y-56395385D01*
X101490267Y-56438129D01*
X101490000Y-56442207D01*
X101490000Y-56507569D01*
X101350000Y-56507569D01*
X101350000Y-56333373D01*
X101349401Y-56327289D01*
X101339597Y-56278000D01*
X101336632Y-56270843D01*
X101336632Y-56223007D01*
X101350180Y-56202731D01*
X101982105Y-55570806D01*
X102026299Y-55552500D01*
X102081212Y-55552500D01*
X102084222Y-55551901D01*
X102084225Y-55551901D01*
X102124216Y-55543946D01*
X102136634Y-55541476D01*
X102141751Y-55538057D01*
X102141753Y-55538056D01*
X102193335Y-55503589D01*
X102199482Y-55499482D01*
X102202901Y-55494365D01*
X102205806Y-55491460D01*
X102250000Y-55473154D01*
X102294194Y-55491460D01*
G37*
%TD.AperFunction*%
%TA.AperFunction,Conductor*%
G36*
X96457271Y-55795806D02*
G01*
X96915451Y-56253985D01*
X96919758Y-56260060D01*
X96920330Y-56259605D01*
X96924711Y-56265113D01*
X96927758Y-56271458D01*
X96933255Y-56275854D01*
X96950846Y-56289922D01*
X96956005Y-56294539D01*
X96961249Y-56299783D01*
X96964212Y-56301645D01*
X96964219Y-56301651D01*
X96967254Y-56303558D01*
X96973030Y-56307663D01*
X96995813Y-56325883D01*
X97002671Y-56327460D01*
X97006436Y-56329280D01*
X97010372Y-56330658D01*
X97016328Y-56334402D01*
X97023319Y-56335192D01*
X97023324Y-56335194D01*
X97045317Y-56337680D01*
X97052303Y-56338873D01*
X97059377Y-56340500D01*
X97066757Y-56340500D01*
X97073778Y-56340896D01*
X97102918Y-56344190D01*
X97109564Y-56341869D01*
X97116558Y-56341085D01*
X97116634Y-56341764D01*
X97124084Y-56340500D01*
X97521043Y-56340500D01*
X97565237Y-56358806D01*
X97583543Y-56403000D01*
X97579475Y-56423449D01*
X97578020Y-56425627D01*
X97576819Y-56431663D01*
X97576819Y-56431664D01*
X97563923Y-56496500D01*
X97562500Y-56503652D01*
X97562500Y-56836348D01*
X97563099Y-56839358D01*
X97563099Y-56839361D01*
X97571188Y-56880025D01*
X97578020Y-56914373D01*
X97581439Y-56919490D01*
X97581440Y-56919492D01*
X97596614Y-56942201D01*
X97637143Y-57002857D01*
X97722811Y-57060099D01*
X97749387Y-57099872D01*
X97740055Y-57146788D01*
X97714502Y-57168709D01*
X97636934Y-57204880D01*
X97628108Y-57211060D01*
X97551060Y-57288108D01*
X97544880Y-57296933D01*
X97498540Y-57396311D01*
X97495895Y-57405385D01*
X97490267Y-57448129D01*
X97490000Y-57452207D01*
X97490000Y-57517569D01*
X97493641Y-57526359D01*
X97502431Y-57530000D01*
X98497569Y-57530000D01*
X98506359Y-57526359D01*
X98510000Y-57517569D01*
X98510000Y-57452207D01*
X98509733Y-57448129D01*
X98504105Y-57405385D01*
X98501460Y-57396311D01*
X98455120Y-57296933D01*
X98448940Y-57288108D01*
X98371892Y-57211060D01*
X98363066Y-57204880D01*
X98285498Y-57168709D01*
X98253181Y-57133441D01*
X98255268Y-57085651D01*
X98277188Y-57060099D01*
X98362857Y-57002857D01*
X98385629Y-56968776D01*
X98425403Y-56942201D01*
X98437596Y-56941000D01*
X98660000Y-56941000D01*
X98704194Y-56959306D01*
X98722500Y-57003500D01*
X98722500Y-57162558D01*
X98723099Y-57165569D01*
X98727098Y-57185670D01*
X98729898Y-57199748D01*
X98733317Y-57204865D01*
X98736732Y-57209976D01*
X98746065Y-57256892D01*
X98719488Y-57296667D01*
X98710927Y-57302387D01*
X98702389Y-57310925D01*
X98665024Y-57366845D01*
X98660403Y-57378003D01*
X98650599Y-57427289D01*
X98650000Y-57433373D01*
X98650000Y-57737569D01*
X98653641Y-57746359D01*
X98662431Y-57750000D01*
X99337500Y-57750000D01*
X99381694Y-57768306D01*
X99400000Y-57812500D01*
X99400000Y-57887500D01*
X99381694Y-57931694D01*
X99337500Y-57950000D01*
X98662431Y-57950000D01*
X98653641Y-57953641D01*
X98650000Y-57962431D01*
X98650000Y-58266627D01*
X98650599Y-58272711D01*
X98660403Y-58321997D01*
X98665024Y-58333155D01*
X98702389Y-58389075D01*
X98710925Y-58397611D01*
X98766845Y-58434976D01*
X98778003Y-58439597D01*
X98827289Y-58449401D01*
X98833373Y-58450000D01*
X98900821Y-58450000D01*
X98945015Y-58468306D01*
X98963321Y-58512500D01*
X98945015Y-58556694D01*
X98928368Y-58568602D01*
X98887210Y-58588810D01*
X98883564Y-58592462D01*
X98883563Y-58592463D01*
X98802070Y-58674098D01*
X98802068Y-58674100D01*
X98798422Y-58677753D01*
X98796154Y-58682393D01*
X98781129Y-58713131D01*
X98745275Y-58744797D01*
X98697531Y-58741835D01*
X98668876Y-58713230D01*
X98653467Y-58681847D01*
X98653466Y-58681846D01*
X98651190Y-58677210D01*
X98621325Y-58647397D01*
X98565902Y-58592070D01*
X98565900Y-58592068D01*
X98562247Y-58588422D01*
X98488145Y-58552200D01*
X98453699Y-58535362D01*
X98453698Y-58535362D01*
X98449339Y-58533231D01*
X98444536Y-58532530D01*
X98444535Y-58532530D01*
X98413571Y-58528013D01*
X98375781Y-58522500D01*
X98090755Y-58522500D01*
X97804220Y-58522501D01*
X97730021Y-58533422D01*
X97617210Y-58588810D01*
X97610519Y-58595513D01*
X97607308Y-58598729D01*
X97563130Y-58617073D01*
X97518882Y-58598767D01*
X97515628Y-58595513D01*
X97511323Y-58589439D01*
X97510750Y-58589895D01*
X97506369Y-58584387D01*
X97503322Y-58578042D01*
X97480239Y-58559582D01*
X97475080Y-58554965D01*
X97469831Y-58549716D01*
X97463828Y-58545943D01*
X97458052Y-58541838D01*
X97435267Y-58523617D01*
X97428407Y-58522040D01*
X97424647Y-58520222D01*
X97420711Y-58518844D01*
X97414752Y-58515098D01*
X97407758Y-58514307D01*
X97407757Y-58514307D01*
X97385764Y-58511821D01*
X97378787Y-58510629D01*
X97371703Y-58509000D01*
X97364329Y-58509000D01*
X97357308Y-58508604D01*
X97355627Y-58508414D01*
X97328162Y-58505309D01*
X97321517Y-58507630D01*
X97314523Y-58508414D01*
X97314447Y-58507736D01*
X97306995Y-58509000D01*
X96305002Y-58509000D01*
X96260808Y-58490694D01*
X95709306Y-57939191D01*
X95691000Y-57894997D01*
X95691000Y-57807793D01*
X97490000Y-57807793D01*
X97490267Y-57811871D01*
X97495895Y-57854615D01*
X97498540Y-57863689D01*
X97544880Y-57963067D01*
X97551060Y-57971892D01*
X97628108Y-58048940D01*
X97636933Y-58055120D01*
X97736311Y-58101460D01*
X97745385Y-58104105D01*
X97788129Y-58109733D01*
X97792207Y-58110000D01*
X97887569Y-58110000D01*
X97896359Y-58106359D01*
X97900000Y-58097569D01*
X98100000Y-58097569D01*
X98103641Y-58106359D01*
X98112431Y-58110000D01*
X98207793Y-58110000D01*
X98211871Y-58109733D01*
X98254615Y-58104105D01*
X98263689Y-58101460D01*
X98363067Y-58055120D01*
X98371892Y-58048940D01*
X98448940Y-57971892D01*
X98455120Y-57963067D01*
X98501460Y-57863689D01*
X98504105Y-57854615D01*
X98509733Y-57811871D01*
X98510000Y-57807793D01*
X98510000Y-57742431D01*
X98506359Y-57733641D01*
X98497569Y-57730000D01*
X98112431Y-57730000D01*
X98103641Y-57733641D01*
X98100000Y-57742431D01*
X98100000Y-58097569D01*
X97900000Y-58097569D01*
X97900000Y-57742431D01*
X97896359Y-57733641D01*
X97887569Y-57730000D01*
X97502431Y-57730000D01*
X97493641Y-57733641D01*
X97490000Y-57742431D01*
X97490000Y-57807793D01*
X95691000Y-57807793D01*
X95691000Y-56691741D01*
X95709306Y-56647547D01*
X95737061Y-56631442D01*
X95755968Y-56626288D01*
X95796523Y-56615231D01*
X95796525Y-56615230D01*
X95800817Y-56614060D01*
X95922991Y-56539045D01*
X95955041Y-56503637D01*
X96016213Y-56436054D01*
X96019200Y-56432754D01*
X96081710Y-56303733D01*
X96084537Y-56286933D01*
X96092781Y-56237930D01*
X96105496Y-56162354D01*
X96105647Y-56150000D01*
X96085323Y-56008082D01*
X96025984Y-55877572D01*
X96023079Y-55874201D01*
X96022741Y-55873672D01*
X96014353Y-55826578D01*
X96041723Y-55787346D01*
X96075395Y-55777500D01*
X96413077Y-55777500D01*
X96457271Y-55795806D01*
G37*
%TD.AperFunction*%
%TA.AperFunction,Conductor*%
G36*
X102663261Y-53087660D02*
G01*
X102672500Y-53120363D01*
X102672500Y-53131212D01*
X102683524Y-53186634D01*
X102686945Y-53191754D01*
X102697187Y-53207082D01*
X102706520Y-53253998D01*
X102682377Y-53290132D01*
X102682719Y-53290474D01*
X102681000Y-53292193D01*
X102679945Y-53293772D01*
X102678366Y-53294827D01*
X102669829Y-53303365D01*
X102618650Y-53379958D01*
X102614029Y-53391116D01*
X102604741Y-53437807D01*
X102606597Y-53447139D01*
X102610880Y-53450000D01*
X104060253Y-53450000D01*
X104069043Y-53446359D01*
X104071013Y-53441602D01*
X104060971Y-53391116D01*
X104056350Y-53379958D01*
X104028463Y-53338223D01*
X104019131Y-53291307D01*
X104045707Y-53251533D01*
X104080430Y-53241000D01*
X105310001Y-53241000D01*
X105354195Y-53259306D01*
X105372501Y-53303500D01*
X105372501Y-53425780D01*
X105383422Y-53499979D01*
X105385562Y-53504337D01*
X105385562Y-53504338D01*
X105421519Y-53577572D01*
X105438810Y-53612790D01*
X105442462Y-53616436D01*
X105442463Y-53616437D01*
X105524098Y-53697930D01*
X105524100Y-53697932D01*
X105527753Y-53701578D01*
X105563131Y-53718871D01*
X105594797Y-53754725D01*
X105591835Y-53802469D01*
X105563230Y-53831124D01*
X105531847Y-53846533D01*
X105531846Y-53846534D01*
X105527210Y-53848810D01*
X105523564Y-53852462D01*
X105523563Y-53852463D01*
X105442070Y-53934098D01*
X105442068Y-53934100D01*
X105438422Y-53937753D01*
X105432308Y-53950261D01*
X105385675Y-54045662D01*
X105383231Y-54050661D01*
X105382530Y-54055464D01*
X105382530Y-54055465D01*
X105381299Y-54063904D01*
X105372500Y-54124219D01*
X105372501Y-54695780D01*
X105383422Y-54769979D01*
X105385562Y-54774337D01*
X105385562Y-54774338D01*
X105436326Y-54877730D01*
X105438810Y-54882790D01*
X105442462Y-54886436D01*
X105442463Y-54886437D01*
X105524098Y-54967930D01*
X105524100Y-54967932D01*
X105527753Y-54971578D01*
X105563131Y-54988871D01*
X105594797Y-55024725D01*
X105591835Y-55072469D01*
X105563230Y-55101124D01*
X105531847Y-55116533D01*
X105531846Y-55116534D01*
X105527210Y-55118810D01*
X105523564Y-55122462D01*
X105523563Y-55122463D01*
X105442070Y-55204098D01*
X105442068Y-55204100D01*
X105438422Y-55207753D01*
X105436154Y-55212393D01*
X105394458Y-55297694D01*
X105383231Y-55320661D01*
X105372500Y-55394219D01*
X105372500Y-55426500D01*
X105354194Y-55470694D01*
X105310000Y-55489000D01*
X105163232Y-55489000D01*
X105155893Y-55487750D01*
X105155810Y-55488477D01*
X105148819Y-55487680D01*
X105142178Y-55485348D01*
X105135185Y-55486126D01*
X105135183Y-55486126D01*
X105116395Y-55488217D01*
X105070448Y-55474911D01*
X105047366Y-55433012D01*
X105047297Y-55421877D01*
X105047500Y-55420856D01*
X105047500Y-55099144D01*
X105032270Y-55022577D01*
X105017139Y-54999931D01*
X104977671Y-54940865D01*
X104974252Y-54935748D01*
X104914037Y-54895513D01*
X104892542Y-54881150D01*
X104892540Y-54881149D01*
X104887423Y-54877730D01*
X104853629Y-54871008D01*
X104813869Y-54863099D01*
X104813866Y-54863099D01*
X104810856Y-54862500D01*
X104389144Y-54862500D01*
X104386134Y-54863099D01*
X104386131Y-54863099D01*
X104346371Y-54871008D01*
X104312577Y-54877730D01*
X104307460Y-54881149D01*
X104307458Y-54881150D01*
X104285963Y-54895513D01*
X104225748Y-54935748D01*
X104222329Y-54940865D01*
X104182862Y-54999931D01*
X104167730Y-55022577D01*
X104152500Y-55099144D01*
X104152500Y-55411497D01*
X104134194Y-55455691D01*
X103899191Y-55690694D01*
X103854997Y-55709000D01*
X103055003Y-55709000D01*
X103010809Y-55690694D01*
X102767632Y-55447517D01*
X102749326Y-55403323D01*
X102750527Y-55391129D01*
X102751901Y-55384222D01*
X102752500Y-55381212D01*
X102752500Y-54412207D01*
X104080001Y-54412207D01*
X104080269Y-54416287D01*
X104085799Y-54458302D01*
X104088443Y-54467374D01*
X104134039Y-54565155D01*
X104140219Y-54573980D01*
X104216020Y-54649781D01*
X104224845Y-54655961D01*
X104322625Y-54701556D01*
X104331699Y-54704201D01*
X104373714Y-54709733D01*
X104377792Y-54710000D01*
X104487569Y-54710000D01*
X104496359Y-54706359D01*
X104500000Y-54697569D01*
X104500000Y-54697568D01*
X104700000Y-54697568D01*
X104703641Y-54706358D01*
X104712431Y-54709999D01*
X104822207Y-54709999D01*
X104826287Y-54709731D01*
X104868302Y-54704201D01*
X104877374Y-54701557D01*
X104975155Y-54655961D01*
X104983980Y-54649781D01*
X105059781Y-54573980D01*
X105065961Y-54565155D01*
X105111556Y-54467375D01*
X105114201Y-54458301D01*
X105119733Y-54416286D01*
X105120000Y-54412208D01*
X105120000Y-54352431D01*
X105116359Y-54343641D01*
X105107569Y-54340000D01*
X104712431Y-54340000D01*
X104703641Y-54343641D01*
X104700000Y-54352431D01*
X104700000Y-54697568D01*
X104500000Y-54697568D01*
X104500000Y-54352431D01*
X104496359Y-54343641D01*
X104487569Y-54340000D01*
X104092432Y-54340000D01*
X104083642Y-54343641D01*
X104080001Y-54352431D01*
X104080001Y-54412207D01*
X102752500Y-54412207D01*
X102752500Y-54393788D01*
X102748081Y-54371573D01*
X102757413Y-54324657D01*
X102797186Y-54298081D01*
X102821572Y-54298081D01*
X102843788Y-54302500D01*
X103831212Y-54302500D01*
X103834222Y-54301901D01*
X103834225Y-54301901D01*
X103864302Y-54295918D01*
X103886634Y-54291476D01*
X103891751Y-54288057D01*
X103891753Y-54288056D01*
X103934854Y-54259256D01*
X103949482Y-54249482D01*
X103971050Y-54217203D01*
X103988056Y-54191753D01*
X103988057Y-54191751D01*
X103991476Y-54186634D01*
X103992873Y-54179610D01*
X103993431Y-54178775D01*
X103995032Y-54174910D01*
X103995801Y-54175228D01*
X104019446Y-54139837D01*
X104066362Y-54130502D01*
X104078089Y-54134059D01*
X104092432Y-54140000D01*
X104487569Y-54140000D01*
X104496359Y-54136359D01*
X104500000Y-54127569D01*
X104700000Y-54127569D01*
X104703641Y-54136359D01*
X104712431Y-54140000D01*
X105107568Y-54140000D01*
X105116358Y-54136359D01*
X105119999Y-54127569D01*
X105119999Y-54067793D01*
X105119731Y-54063713D01*
X105114201Y-54021698D01*
X105111557Y-54012626D01*
X105065961Y-53914845D01*
X105059781Y-53906020D01*
X104983980Y-53830219D01*
X104975155Y-53824039D01*
X104877375Y-53778444D01*
X104868301Y-53775799D01*
X104826286Y-53770267D01*
X104822208Y-53770000D01*
X104712431Y-53770000D01*
X104703641Y-53773641D01*
X104700000Y-53782431D01*
X104700000Y-54127569D01*
X104500000Y-54127569D01*
X104500000Y-53782432D01*
X104496359Y-53773642D01*
X104487569Y-53770001D01*
X104377793Y-53770001D01*
X104373713Y-53770269D01*
X104331698Y-53775799D01*
X104322626Y-53778443D01*
X104224845Y-53824039D01*
X104216020Y-53830219D01*
X104140219Y-53906020D01*
X104134039Y-53914846D01*
X104115004Y-53955666D01*
X104079736Y-53987983D01*
X104031946Y-53985896D01*
X103999629Y-53950628D01*
X103997061Y-53941445D01*
X103995493Y-53933563D01*
X103991476Y-53913366D01*
X103977813Y-53892918D01*
X103968480Y-53846002D01*
X103992623Y-53809868D01*
X103992281Y-53809526D01*
X103994000Y-53807807D01*
X103995055Y-53806228D01*
X103996634Y-53805173D01*
X104005171Y-53796635D01*
X104056350Y-53720042D01*
X104060971Y-53708884D01*
X104070259Y-53662193D01*
X104068403Y-53652861D01*
X104064120Y-53650000D01*
X102614747Y-53650000D01*
X102605957Y-53653641D01*
X102603987Y-53658398D01*
X102614029Y-53708884D01*
X102618650Y-53720042D01*
X102669829Y-53796635D01*
X102678366Y-53805173D01*
X102679945Y-53806228D01*
X102681000Y-53807807D01*
X102682719Y-53809526D01*
X102682377Y-53809868D01*
X102706520Y-53846002D01*
X102697187Y-53892918D01*
X102683524Y-53913366D01*
X102672500Y-53968788D01*
X102672500Y-54131212D01*
X102673099Y-54134222D01*
X102676919Y-54153426D01*
X102667587Y-54200343D01*
X102627814Y-54226919D01*
X102603428Y-54226919D01*
X102581212Y-54222500D01*
X102418788Y-54222500D01*
X102415778Y-54223099D01*
X102415775Y-54223099D01*
X102389634Y-54228299D01*
X102363366Y-54233524D01*
X102358249Y-54236943D01*
X102358247Y-54236944D01*
X102347141Y-54244365D01*
X102300518Y-54275518D01*
X102297099Y-54280635D01*
X102294194Y-54283540D01*
X102250000Y-54301846D01*
X102205806Y-54283540D01*
X102202901Y-54280635D01*
X102199482Y-54275518D01*
X102160292Y-54249332D01*
X102133718Y-54209559D01*
X102143050Y-54162642D01*
X102148680Y-54155424D01*
X102149239Y-54154807D01*
X102169200Y-54132754D01*
X102231710Y-54003733D01*
X102233452Y-53993383D01*
X102242122Y-53941845D01*
X102255496Y-53862354D01*
X102255647Y-53850000D01*
X102235323Y-53708082D01*
X102175984Y-53577572D01*
X102082400Y-53468963D01*
X101962095Y-53390985D01*
X101957833Y-53389710D01*
X101957830Y-53389709D01*
X101866359Y-53362354D01*
X101847000Y-53356565D01*
X101809904Y-53326364D01*
X101805028Y-53278778D01*
X101820714Y-53252491D01*
X101976768Y-53096437D01*
X102020962Y-53078131D01*
X102055592Y-53088603D01*
X102082313Y-53106390D01*
X102127039Y-53120363D01*
X102214905Y-53147814D01*
X102214908Y-53147814D01*
X102219157Y-53149142D01*
X102223609Y-53149224D01*
X102223611Y-53149224D01*
X102294642Y-53150526D01*
X102362499Y-53151770D01*
X102500817Y-53114060D01*
X102504606Y-53111734D01*
X102504612Y-53111731D01*
X102577297Y-53067102D01*
X102624537Y-53059577D01*
X102663261Y-53087660D01*
G37*
%TD.AperFunction*%
%TA.AperFunction,Conductor*%
G36*
X97159775Y-54320806D02*
G01*
X97178081Y-54365000D01*
X97176880Y-54377194D01*
X97175599Y-54383634D01*
X97175000Y-54389715D01*
X97175000Y-54775069D01*
X97178641Y-54783859D01*
X97187431Y-54787500D01*
X97537500Y-54787500D01*
X97581694Y-54805806D01*
X97600000Y-54850000D01*
X97600000Y-54925000D01*
X97581694Y-54969194D01*
X97537500Y-54987500D01*
X97187431Y-54987500D01*
X97178641Y-54991141D01*
X97175000Y-54999931D01*
X97175000Y-55103997D01*
X97156694Y-55148191D01*
X97112500Y-55166497D01*
X97068306Y-55148191D01*
X96815628Y-54895513D01*
X96811323Y-54889439D01*
X96810750Y-54889895D01*
X96806369Y-54884387D01*
X96803322Y-54878042D01*
X96780239Y-54859582D01*
X96775080Y-54854965D01*
X96769831Y-54849716D01*
X96763828Y-54845943D01*
X96758052Y-54841838D01*
X96735267Y-54823617D01*
X96728407Y-54822040D01*
X96724647Y-54820222D01*
X96720711Y-54818844D01*
X96714752Y-54815098D01*
X96707758Y-54814307D01*
X96707757Y-54814307D01*
X96685764Y-54811821D01*
X96678787Y-54810629D01*
X96671703Y-54809000D01*
X96664329Y-54809000D01*
X96657308Y-54808604D01*
X96655627Y-54808414D01*
X96628162Y-54805309D01*
X96621517Y-54807630D01*
X96614523Y-54808414D01*
X96614447Y-54807736D01*
X96606995Y-54809000D01*
X96181989Y-54809000D01*
X96137795Y-54790694D01*
X96119489Y-54746500D01*
X96125743Y-54719249D01*
X96130225Y-54709999D01*
X96181710Y-54603733D01*
X96184012Y-54590054D01*
X96205096Y-54464729D01*
X96205496Y-54462354D01*
X96205647Y-54450000D01*
X96194743Y-54373860D01*
X96206599Y-54327517D01*
X96247752Y-54303131D01*
X96256612Y-54302500D01*
X97115581Y-54302500D01*
X97159775Y-54320806D01*
G37*
%TD.AperFunction*%
%TA.AperFunction,Conductor*%
G36*
X94714105Y-52702640D02*
G01*
X95490694Y-53479229D01*
X95509000Y-53523423D01*
X95509000Y-53944200D01*
X95490694Y-53988394D01*
X95479851Y-53997058D01*
X95456662Y-54011689D01*
X95372280Y-54064930D01*
X95369337Y-54068262D01*
X95369335Y-54068264D01*
X95292904Y-54154807D01*
X95277377Y-54172388D01*
X95216447Y-54302163D01*
X95194391Y-54443823D01*
X95194968Y-54448236D01*
X95194968Y-54448238D01*
X95197471Y-54467375D01*
X95212980Y-54585979D01*
X95269176Y-54713693D01*
X95269176Y-54713695D01*
X95270720Y-54717203D01*
X95269823Y-54717598D01*
X95276956Y-54760661D01*
X95249112Y-54799558D01*
X95216081Y-54809000D01*
X94683262Y-54809000D01*
X94639068Y-54790694D01*
X94620762Y-54746500D01*
X94621417Y-54737478D01*
X94624375Y-54717203D01*
X94627500Y-54695781D01*
X94627499Y-54124220D01*
X94616578Y-54050021D01*
X94604609Y-54025643D01*
X94563466Y-53941845D01*
X94563465Y-53941844D01*
X94561190Y-53937210D01*
X94552461Y-53928496D01*
X94475902Y-53852070D01*
X94475900Y-53852068D01*
X94472247Y-53848422D01*
X94436869Y-53831129D01*
X94405203Y-53795275D01*
X94408165Y-53747531D01*
X94436770Y-53718876D01*
X94468153Y-53703467D01*
X94468154Y-53703466D01*
X94472790Y-53701190D01*
X94487321Y-53686634D01*
X94557930Y-53615902D01*
X94557932Y-53615900D01*
X94561578Y-53612247D01*
X94580175Y-53574201D01*
X94614638Y-53503699D01*
X94614638Y-53503698D01*
X94616769Y-53499339D01*
X94627500Y-53425781D01*
X94627499Y-52854220D01*
X94616578Y-52780021D01*
X94614439Y-52775664D01*
X94614437Y-52775658D01*
X94613808Y-52774378D01*
X94613748Y-52773443D01*
X94612996Y-52771022D01*
X94613582Y-52770840D01*
X94610763Y-52726640D01*
X94642367Y-52690731D01*
X94690105Y-52687686D01*
X94714105Y-52702640D01*
G37*
%TD.AperFunction*%
%TA.AperFunction,Conductor*%
G36*
X100891328Y-51020264D02*
G01*
X100909106Y-51056354D01*
X100912980Y-51085979D01*
X100914773Y-51090054D01*
X100964154Y-51202280D01*
X100970720Y-51217203D01*
X100978562Y-51226532D01*
X101060107Y-51323543D01*
X101060110Y-51323546D01*
X101062970Y-51326948D01*
X101111121Y-51359000D01*
X101181133Y-51405605D01*
X101207778Y-51445332D01*
X101209000Y-51457632D01*
X101209000Y-52938878D01*
X101190694Y-52983072D01*
X100808794Y-53364971D01*
X100764600Y-53383277D01*
X100720406Y-53364971D01*
X100702731Y-53329637D01*
X100692659Y-53259306D01*
X100685323Y-53208082D01*
X100625984Y-53077572D01*
X100532400Y-52968963D01*
X100412095Y-52890985D01*
X100399456Y-52887205D01*
X100296781Y-52856499D01*
X100274739Y-52849907D01*
X100203058Y-52849469D01*
X100135829Y-52849058D01*
X100135828Y-52849058D01*
X100131376Y-52849031D01*
X99993529Y-52888428D01*
X99872280Y-52964930D01*
X99869337Y-52968262D01*
X99869335Y-52968264D01*
X99810809Y-53034533D01*
X99767833Y-53055540D01*
X99719769Y-53037354D01*
X99710428Y-53028013D01*
X99706122Y-53021938D01*
X99705549Y-53022394D01*
X99701170Y-53016889D01*
X99698122Y-53010542D01*
X99692624Y-53006145D01*
X99688244Y-53000639D01*
X99691240Y-52998256D01*
X99674818Y-52968546D01*
X99690588Y-52919604D01*
X99766213Y-52836054D01*
X99769200Y-52832754D01*
X99831710Y-52703733D01*
X99833176Y-52695023D01*
X99852727Y-52578810D01*
X99855496Y-52562354D01*
X99855647Y-52550000D01*
X99835323Y-52408082D01*
X99775984Y-52277572D01*
X99707245Y-52197797D01*
X99692265Y-52152367D01*
X99710398Y-52112807D01*
X100802940Y-51020264D01*
X100847134Y-51001958D01*
X100891328Y-51020264D01*
G37*
%TD.AperFunction*%
%TA.AperFunction,Conductor*%
G36*
X102677376Y-50819582D02*
G01*
X102700494Y-50861460D01*
X102690350Y-50903150D01*
X102683524Y-50913366D01*
X102682323Y-50919405D01*
X102674380Y-50959339D01*
X102672500Y-50968788D01*
X102672500Y-51131212D01*
X102673099Y-51134222D01*
X102673099Y-51134225D01*
X102675866Y-51148134D01*
X102683524Y-51186634D01*
X102686943Y-51191751D01*
X102686944Y-51191753D01*
X102703532Y-51216578D01*
X102725518Y-51249482D01*
X102730635Y-51252901D01*
X102733540Y-51255806D01*
X102751846Y-51300000D01*
X102733540Y-51344194D01*
X102730635Y-51347099D01*
X102725518Y-51350518D01*
X102715744Y-51365146D01*
X102688710Y-51405605D01*
X102683524Y-51413366D01*
X102679026Y-51435979D01*
X102675495Y-51453733D01*
X102672500Y-51468788D01*
X102672500Y-51631212D01*
X102683524Y-51686634D01*
X102725518Y-51749482D01*
X102730635Y-51752901D01*
X102733540Y-51755806D01*
X102751846Y-51800000D01*
X102733540Y-51844194D01*
X102730635Y-51847099D01*
X102725518Y-51850518D01*
X102715744Y-51865146D01*
X102691010Y-51902163D01*
X102683524Y-51913366D01*
X102672500Y-51968788D01*
X102672500Y-52131212D01*
X102673099Y-52134222D01*
X102673099Y-52134225D01*
X102677161Y-52154647D01*
X102680153Y-52169684D01*
X102681026Y-52174075D01*
X102671694Y-52220991D01*
X102631920Y-52247567D01*
X102585733Y-52238715D01*
X102512095Y-52190985D01*
X102499456Y-52187205D01*
X102455552Y-52174075D01*
X102374739Y-52149907D01*
X102303058Y-52149469D01*
X102235829Y-52149058D01*
X102235828Y-52149058D01*
X102231376Y-52149031D01*
X102093529Y-52188428D01*
X101972280Y-52264930D01*
X101969337Y-52268262D01*
X101969335Y-52268264D01*
X101880324Y-52369051D01*
X101877377Y-52372388D01*
X101816447Y-52502163D01*
X101815762Y-52506561D01*
X101815762Y-52506562D01*
X101814837Y-52512501D01*
X101794391Y-52643823D01*
X101794968Y-52648236D01*
X101794968Y-52648238D01*
X101801357Y-52697099D01*
X101788936Y-52743293D01*
X101783579Y-52749396D01*
X101697694Y-52835281D01*
X101653500Y-52853587D01*
X101609306Y-52835281D01*
X101591000Y-52791087D01*
X101591000Y-51455054D01*
X101609306Y-51410860D01*
X101620797Y-51401792D01*
X101627376Y-51397753D01*
X101722991Y-51339045D01*
X101749334Y-51309942D01*
X101816213Y-51236054D01*
X101819200Y-51232754D01*
X101881710Y-51103733D01*
X101882449Y-51099342D01*
X101905096Y-50964734D01*
X101905096Y-50964729D01*
X101905496Y-50962354D01*
X101905636Y-50962378D01*
X101927421Y-50920755D01*
X101974507Y-50906617D01*
X101988428Y-50908191D01*
X101995072Y-50905871D01*
X102002067Y-50905086D01*
X102002143Y-50905764D01*
X102009595Y-50904500D01*
X102390178Y-50904500D01*
X102397517Y-50905750D01*
X102397600Y-50905023D01*
X102404591Y-50905820D01*
X102411232Y-50908152D01*
X102418225Y-50907374D01*
X102418226Y-50907374D01*
X102440607Y-50904883D01*
X102447520Y-50904500D01*
X102454943Y-50904500D01*
X102461875Y-50902919D01*
X102468828Y-50901743D01*
X102497839Y-50898514D01*
X102503803Y-50894781D01*
X102507751Y-50893406D01*
X102511510Y-50891597D01*
X102518369Y-50890032D01*
X102541184Y-50871851D01*
X102546969Y-50867756D01*
X102550125Y-50865780D01*
X102550127Y-50865779D01*
X102553121Y-50863904D01*
X102558334Y-50858691D01*
X102563578Y-50854006D01*
X102581014Y-50840112D01*
X102581014Y-50840111D01*
X102586519Y-50835725D01*
X102589559Y-50829422D01*
X102631416Y-50806316D01*
X102677376Y-50819582D01*
G37*
%TD.AperFunction*%
%TA.AperFunction,Conductor*%
G36*
X96046808Y-48661695D02*
G01*
X96065114Y-48705889D01*
X96064370Y-48715502D01*
X96044391Y-48843823D01*
X96044042Y-48843769D01*
X96034535Y-48874438D01*
X96022365Y-48892652D01*
X96008524Y-48913366D01*
X96004947Y-48931350D01*
X96001919Y-48946574D01*
X95997500Y-48968788D01*
X95997500Y-49131212D01*
X96008524Y-49186634D01*
X96011943Y-49191751D01*
X96011944Y-49191753D01*
X96029956Y-49218709D01*
X96050518Y-49249482D01*
X96055635Y-49252901D01*
X96058540Y-49255806D01*
X96076846Y-49300000D01*
X96058540Y-49344194D01*
X96055635Y-49347099D01*
X96050518Y-49350518D01*
X96047099Y-49355635D01*
X96012055Y-49408082D01*
X96008524Y-49413366D01*
X96007323Y-49419405D01*
X96000495Y-49453733D01*
X95997500Y-49468788D01*
X95997500Y-49631212D01*
X95998099Y-49634222D01*
X95998099Y-49634225D01*
X96002508Y-49656390D01*
X96008524Y-49686634D01*
X96011943Y-49691751D01*
X96011944Y-49691753D01*
X96027631Y-49715230D01*
X96050518Y-49749482D01*
X96055635Y-49752901D01*
X96058540Y-49755806D01*
X96076846Y-49800000D01*
X96058540Y-49844194D01*
X96055635Y-49847099D01*
X96050518Y-49850518D01*
X96043741Y-49860661D01*
X96016211Y-49901862D01*
X96008524Y-49913366D01*
X95997500Y-49968788D01*
X95997500Y-50131212D01*
X95998099Y-50134222D01*
X95998099Y-50134225D01*
X96002054Y-50154105D01*
X96008524Y-50186634D01*
X96011945Y-50191754D01*
X96022187Y-50207082D01*
X96031520Y-50253998D01*
X96007377Y-50290132D01*
X96007719Y-50290474D01*
X96006000Y-50292193D01*
X96004945Y-50293772D01*
X96003366Y-50294827D01*
X95994829Y-50303365D01*
X95943650Y-50379958D01*
X95939029Y-50391116D01*
X95929741Y-50437807D01*
X95931597Y-50447139D01*
X95935880Y-50450000D01*
X97385253Y-50450000D01*
X97394043Y-50446359D01*
X97396013Y-50441602D01*
X97385971Y-50391116D01*
X97381350Y-50379958D01*
X97330171Y-50303365D01*
X97321634Y-50294827D01*
X97320055Y-50293772D01*
X97319000Y-50292193D01*
X97317281Y-50290474D01*
X97317623Y-50290132D01*
X97293480Y-50253998D01*
X97302813Y-50207082D01*
X97313055Y-50191754D01*
X97316476Y-50186634D01*
X97322946Y-50154105D01*
X97326901Y-50134225D01*
X97326901Y-50134222D01*
X97327500Y-50131212D01*
X97327500Y-50048503D01*
X97345806Y-50004309D01*
X97390000Y-49986003D01*
X97434194Y-50004309D01*
X97634372Y-50204487D01*
X97638677Y-50210561D01*
X97639250Y-50210105D01*
X97643631Y-50215613D01*
X97646678Y-50221958D01*
X97652175Y-50226354D01*
X97669761Y-50240418D01*
X97674920Y-50245035D01*
X97680168Y-50250283D01*
X97683139Y-50252150D01*
X97683140Y-50252151D01*
X97686169Y-50254055D01*
X97691944Y-50258159D01*
X97709236Y-50271988D01*
X97709240Y-50271990D01*
X97714733Y-50276383D01*
X97721590Y-50277960D01*
X97725352Y-50279778D01*
X97729290Y-50281157D01*
X97735248Y-50284902D01*
X97742239Y-50285692D01*
X97742244Y-50285694D01*
X97764237Y-50288180D01*
X97771223Y-50289373D01*
X97778297Y-50291000D01*
X97785677Y-50291000D01*
X97792697Y-50291396D01*
X97821838Y-50294690D01*
X97821563Y-50297121D01*
X97857604Y-50307526D01*
X97880720Y-50349406D01*
X97867452Y-50395364D01*
X97840512Y-50414436D01*
X97835571Y-50414986D01*
X97829607Y-50418719D01*
X97825662Y-50420093D01*
X97821902Y-50421903D01*
X97815041Y-50423468D01*
X97809539Y-50427853D01*
X97809538Y-50427853D01*
X97792227Y-50441648D01*
X97786441Y-50445744D01*
X97783285Y-50447720D01*
X97780289Y-50449596D01*
X97775076Y-50454809D01*
X97769832Y-50459494D01*
X97746891Y-50477775D01*
X97743833Y-50484114D01*
X97739442Y-50489615D01*
X97738908Y-50489189D01*
X97734532Y-50495353D01*
X97498131Y-50731754D01*
X97453937Y-50750060D01*
X97409743Y-50731754D01*
X97391437Y-50687560D01*
X97392638Y-50675366D01*
X97395259Y-50662192D01*
X97393403Y-50652861D01*
X97389120Y-50650000D01*
X95939747Y-50650000D01*
X95930957Y-50653641D01*
X95928987Y-50658398D01*
X95939029Y-50708884D01*
X95943650Y-50720042D01*
X95994829Y-50796635D01*
X96003366Y-50805173D01*
X96004945Y-50806228D01*
X96006000Y-50807807D01*
X96007719Y-50809526D01*
X96007377Y-50809868D01*
X96031520Y-50846002D01*
X96022187Y-50892918D01*
X96013034Y-50906617D01*
X96008524Y-50913366D01*
X96007323Y-50919405D01*
X95999380Y-50959339D01*
X95997500Y-50968788D01*
X95997500Y-51131212D01*
X95998099Y-51134222D01*
X95998099Y-51134225D01*
X96000866Y-51148134D01*
X96008524Y-51186634D01*
X96011943Y-51191751D01*
X96011944Y-51191753D01*
X96028532Y-51216578D01*
X96050518Y-51249482D01*
X96055635Y-51252901D01*
X96058540Y-51255806D01*
X96076846Y-51300000D01*
X96058540Y-51344194D01*
X96055635Y-51347099D01*
X96050518Y-51350518D01*
X96040744Y-51365146D01*
X96013710Y-51405605D01*
X96008524Y-51413366D01*
X96004026Y-51435979D01*
X96000495Y-51453733D01*
X95997500Y-51468788D01*
X95997500Y-51488884D01*
X95979194Y-51533078D01*
X95935000Y-51551384D01*
X95927919Y-51550858D01*
X95924739Y-51549907D01*
X95856136Y-51549488D01*
X95785829Y-51549058D01*
X95785828Y-51549058D01*
X95781376Y-51549031D01*
X95643529Y-51588428D01*
X95522280Y-51664930D01*
X95519337Y-51668262D01*
X95519335Y-51668264D01*
X95440657Y-51757351D01*
X95427377Y-51772388D01*
X95366447Y-51902163D01*
X95359220Y-51948578D01*
X95334335Y-51989429D01*
X95287850Y-52000718D01*
X95253271Y-51983156D01*
X95153806Y-51883691D01*
X95135500Y-51839497D01*
X95135500Y-49213593D01*
X95153806Y-49169399D01*
X95427399Y-48895806D01*
X95471593Y-48877500D01*
X95620268Y-48877500D01*
X95627607Y-48878750D01*
X95627690Y-48878023D01*
X95634681Y-48878820D01*
X95641322Y-48881152D01*
X95648315Y-48880374D01*
X95648316Y-48880374D01*
X95670697Y-48877883D01*
X95677610Y-48877500D01*
X95685033Y-48877500D01*
X95691965Y-48875919D01*
X95698918Y-48874743D01*
X95727929Y-48871514D01*
X95733893Y-48867781D01*
X95737841Y-48866406D01*
X95741600Y-48864597D01*
X95748459Y-48863032D01*
X95755915Y-48857091D01*
X95771273Y-48844852D01*
X95777059Y-48840756D01*
X95780215Y-48838780D01*
X95780217Y-48838779D01*
X95783211Y-48836904D01*
X95788424Y-48831691D01*
X95793668Y-48827006D01*
X95811104Y-48813112D01*
X95811104Y-48813111D01*
X95816609Y-48808725D01*
X95819667Y-48802386D01*
X95824058Y-48796885D01*
X95824592Y-48797311D01*
X95828968Y-48791147D01*
X95958420Y-48661695D01*
X96002614Y-48643389D01*
X96046808Y-48661695D01*
G37*
%TD.AperFunction*%
%TA.AperFunction,Conductor*%
G36*
X101869032Y-49570835D02*
G01*
X101874932Y-49576955D01*
X101931162Y-49643849D01*
X101945586Y-49689457D01*
X101923535Y-49731907D01*
X101916670Y-49736922D01*
X101872280Y-49764930D01*
X101869337Y-49768262D01*
X101869335Y-49768264D01*
X101783781Y-49865137D01*
X101777377Y-49872388D01*
X101716447Y-50002163D01*
X101715762Y-50006561D01*
X101715762Y-50006562D01*
X101694944Y-50140271D01*
X101670057Y-50181123D01*
X101631682Y-50191299D01*
X101631740Y-50191815D01*
X101628268Y-50192205D01*
X101626170Y-50192761D01*
X101617752Y-50191809D01*
X101611108Y-50194129D01*
X101604113Y-50194914D01*
X101604037Y-50194236D01*
X101596585Y-50195500D01*
X101209822Y-50195500D01*
X101202483Y-50194250D01*
X101202400Y-50194977D01*
X101195409Y-50194180D01*
X101188768Y-50191848D01*
X101181775Y-50192626D01*
X101181774Y-50192626D01*
X101159393Y-50195117D01*
X101152480Y-50195500D01*
X101145057Y-50195500D01*
X101138125Y-50197081D01*
X101131172Y-50198257D01*
X101102161Y-50201486D01*
X101096197Y-50205219D01*
X101092249Y-50206594D01*
X101088490Y-50208403D01*
X101081631Y-50209968D01*
X101076129Y-50214353D01*
X101076128Y-50214353D01*
X101058817Y-50228148D01*
X101053031Y-50232244D01*
X101049875Y-50234220D01*
X101046879Y-50236096D01*
X101041666Y-50241309D01*
X101036422Y-50245994D01*
X101023690Y-50256140D01*
X101013481Y-50264275D01*
X101010423Y-50270614D01*
X101006032Y-50276115D01*
X101005498Y-50275689D01*
X101001122Y-50281853D01*
X100047694Y-51235281D01*
X100003500Y-51253587D01*
X99959306Y-51235281D01*
X99941000Y-51191087D01*
X99941000Y-50605899D01*
X99941037Y-50563635D01*
X99941037Y-50563634D01*
X99941043Y-50556596D01*
X99934491Y-50542951D01*
X99929899Y-50529801D01*
X99928098Y-50521904D01*
X99928097Y-50521902D01*
X99926532Y-50515041D01*
X99917240Y-50503380D01*
X99909779Y-50491487D01*
X99906369Y-50484387D01*
X99903322Y-50478042D01*
X99891498Y-50468586D01*
X99881660Y-50458731D01*
X99872225Y-50446891D01*
X99858793Y-50440413D01*
X99846916Y-50432934D01*
X99835267Y-50423617D01*
X99820513Y-50420224D01*
X99807369Y-50415608D01*
X99795315Y-50409794D01*
X99763462Y-50374106D01*
X99766173Y-50326348D01*
X99801861Y-50294495D01*
X99822467Y-50291000D01*
X100506768Y-50291000D01*
X100514107Y-50292250D01*
X100514190Y-50291523D01*
X100521181Y-50292320D01*
X100527822Y-50294652D01*
X100534815Y-50293874D01*
X100534816Y-50293874D01*
X100555939Y-50291523D01*
X100557198Y-50291383D01*
X100564110Y-50291000D01*
X100571533Y-50291000D01*
X100578465Y-50289419D01*
X100585418Y-50288243D01*
X100614429Y-50285014D01*
X100620393Y-50281281D01*
X100624341Y-50279906D01*
X100628100Y-50278097D01*
X100634959Y-50276532D01*
X100640662Y-50271988D01*
X100657773Y-50258352D01*
X100663559Y-50254256D01*
X100666715Y-50252280D01*
X100666717Y-50252279D01*
X100669711Y-50250404D01*
X100674924Y-50245191D01*
X100680168Y-50240506D01*
X100697604Y-50226612D01*
X100697604Y-50226611D01*
X100703109Y-50222225D01*
X100706167Y-50215886D01*
X100710558Y-50210385D01*
X100711092Y-50210811D01*
X100715468Y-50204647D01*
X101179510Y-49740605D01*
X101223704Y-49722299D01*
X101242339Y-49725143D01*
X101319157Y-49749142D01*
X101323609Y-49749224D01*
X101323611Y-49749224D01*
X101394642Y-49750526D01*
X101462499Y-49751770D01*
X101600817Y-49714060D01*
X101722991Y-49639045D01*
X101780753Y-49575230D01*
X101823982Y-49554749D01*
X101869032Y-49570835D01*
G37*
%TD.AperFunction*%
%TA.AperFunction,Conductor*%
G36*
X100581694Y-48130806D02*
G01*
X100600000Y-48175000D01*
X100600000Y-48935253D01*
X100603641Y-48944043D01*
X100608398Y-48946013D01*
X100658884Y-48935971D01*
X100670042Y-48931350D01*
X100746635Y-48880171D01*
X100755173Y-48871634D01*
X100756228Y-48870055D01*
X100757807Y-48869000D01*
X100759526Y-48867281D01*
X100759868Y-48867623D01*
X100796002Y-48843480D01*
X100842918Y-48852813D01*
X100849499Y-48857210D01*
X100863366Y-48866476D01*
X100881359Y-48870055D01*
X100915775Y-48876901D01*
X100915778Y-48876901D01*
X100918788Y-48877500D01*
X100924629Y-48877500D01*
X100968823Y-48895806D01*
X100987129Y-48940000D01*
X100977477Y-48972275D01*
X100977377Y-48972388D01*
X100916447Y-49102163D01*
X100915762Y-49106561D01*
X100915762Y-49106562D01*
X100912502Y-49127500D01*
X100894391Y-49243823D01*
X100894968Y-49248236D01*
X100894968Y-49248238D01*
X100895958Y-49255806D01*
X100912980Y-49385979D01*
X100920118Y-49402200D01*
X100920488Y-49403041D01*
X100921533Y-49450865D01*
X100907476Y-49472409D01*
X100560950Y-49818935D01*
X100516756Y-49837241D01*
X100472562Y-49818935D01*
X100454256Y-49774741D01*
X100460510Y-49747490D01*
X100479768Y-49707741D01*
X100481710Y-49703733D01*
X100482483Y-49699142D01*
X100496507Y-49615780D01*
X100505496Y-49562354D01*
X100505647Y-49550000D01*
X100485323Y-49408082D01*
X100425984Y-49277572D01*
X100332400Y-49168963D01*
X100219505Y-49095788D01*
X100192377Y-49056390D01*
X100191000Y-49043342D01*
X100191000Y-48955430D01*
X100209306Y-48911236D01*
X100253500Y-48892930D01*
X100288223Y-48903463D01*
X100329958Y-48931350D01*
X100341116Y-48935971D01*
X100387807Y-48945259D01*
X100397139Y-48943403D01*
X100400000Y-48939120D01*
X100400000Y-48175000D01*
X100418306Y-48130806D01*
X100462500Y-48112500D01*
X100537500Y-48112500D01*
X100581694Y-48130806D01*
G37*
%TD.AperFunction*%
%TA.AperFunction,Conductor*%
G36*
X96241997Y-45502902D02*
G01*
X96391990Y-45652895D01*
X96410296Y-45697089D01*
X96407234Y-45712478D01*
X96407730Y-45712577D01*
X96393200Y-45785627D01*
X96392500Y-45789144D01*
X96392500Y-46210856D01*
X96393099Y-46213866D01*
X96393099Y-46213869D01*
X96395994Y-46228422D01*
X96407730Y-46287423D01*
X96411149Y-46292540D01*
X96411150Y-46292542D01*
X96441018Y-46337242D01*
X96465748Y-46374252D01*
X96477668Y-46382217D01*
X96547458Y-46428850D01*
X96547460Y-46428851D01*
X96552577Y-46432270D01*
X96608354Y-46443364D01*
X96640354Y-46460469D01*
X96934372Y-46754487D01*
X96938677Y-46760561D01*
X96939250Y-46760105D01*
X96943631Y-46765613D01*
X96946678Y-46771958D01*
X96952175Y-46776354D01*
X96969761Y-46790418D01*
X96974920Y-46795035D01*
X96980169Y-46800284D01*
X96986124Y-46804027D01*
X96986172Y-46804057D01*
X96991948Y-46808162D01*
X97014733Y-46826383D01*
X97021593Y-46827960D01*
X97025353Y-46829778D01*
X97029289Y-46831156D01*
X97035248Y-46834902D01*
X97042242Y-46835693D01*
X97042243Y-46835693D01*
X97064236Y-46838179D01*
X97071213Y-46839371D01*
X97078297Y-46841000D01*
X97085671Y-46841000D01*
X97092692Y-46841396D01*
X97121838Y-46844691D01*
X97128483Y-46842370D01*
X97135477Y-46841586D01*
X97135553Y-46842264D01*
X97143005Y-46841000D01*
X97971000Y-46841000D01*
X98015194Y-46859306D01*
X98033500Y-46903500D01*
X98033500Y-47478298D01*
X98033494Y-47485055D01*
X98015149Y-47529233D01*
X97970994Y-47547500D01*
X97918788Y-47547500D01*
X97915778Y-47548099D01*
X97915775Y-47548099D01*
X97888352Y-47553554D01*
X97863366Y-47558524D01*
X97858249Y-47561943D01*
X97858247Y-47561944D01*
X97820435Y-47587210D01*
X97800518Y-47600518D01*
X97797099Y-47605635D01*
X97794194Y-47608540D01*
X97750000Y-47626846D01*
X97705806Y-47608540D01*
X97702901Y-47605635D01*
X97699482Y-47600518D01*
X97679565Y-47587210D01*
X97641753Y-47561944D01*
X97641751Y-47561943D01*
X97636634Y-47558524D01*
X97611648Y-47553554D01*
X97584225Y-47548099D01*
X97584222Y-47548099D01*
X97581212Y-47547500D01*
X97418788Y-47547500D01*
X97415778Y-47548099D01*
X97415775Y-47548099D01*
X97388352Y-47553554D01*
X97363366Y-47558524D01*
X97358249Y-47561943D01*
X97358247Y-47561944D01*
X97320435Y-47587210D01*
X97300518Y-47600518D01*
X97297099Y-47605635D01*
X97262925Y-47656780D01*
X97258524Y-47663366D01*
X97247500Y-47718788D01*
X97247263Y-47718741D01*
X97225378Y-47759680D01*
X97202906Y-47771458D01*
X97143529Y-47788428D01*
X97022280Y-47864930D01*
X97019337Y-47868262D01*
X97019335Y-47868264D01*
X96994816Y-47896027D01*
X96951840Y-47917034D01*
X96906597Y-47901500D01*
X96887766Y-47866600D01*
X96887204Y-47866764D01*
X96886435Y-47864134D01*
X96886101Y-47863515D01*
X96885323Y-47858082D01*
X96825984Y-47727572D01*
X96749826Y-47639187D01*
X96735303Y-47622332D01*
X96732400Y-47618963D01*
X96612095Y-47540985D01*
X96599456Y-47537205D01*
X96549847Y-47522369D01*
X96474739Y-47499907D01*
X96403058Y-47499469D01*
X96335829Y-47499058D01*
X96335828Y-47499058D01*
X96331376Y-47499031D01*
X96193529Y-47538428D01*
X96072280Y-47614930D01*
X96069337Y-47618262D01*
X96069335Y-47618264D01*
X95997131Y-47700021D01*
X95977377Y-47722388D01*
X95975485Y-47726418D01*
X95975483Y-47726421D01*
X95967064Y-47744352D01*
X95931712Y-47776576D01*
X95883927Y-47774363D01*
X95859894Y-47750263D01*
X95858255Y-47751411D01*
X95848940Y-47738108D01*
X95771892Y-47661060D01*
X95763066Y-47654880D01*
X95685498Y-47618709D01*
X95653181Y-47583441D01*
X95655268Y-47535651D01*
X95677188Y-47510099D01*
X95762857Y-47452857D01*
X95786482Y-47417500D01*
X95818560Y-47369492D01*
X95818561Y-47369490D01*
X95821980Y-47364373D01*
X95829939Y-47324361D01*
X95836901Y-47289361D01*
X95836901Y-47289358D01*
X95837500Y-47286348D01*
X95837500Y-47245802D01*
X95855806Y-47201608D01*
X95867295Y-47192543D01*
X95872991Y-47189045D01*
X95969200Y-47082754D01*
X96031710Y-46953733D01*
X96032635Y-46948238D01*
X96044851Y-46875627D01*
X96055496Y-46812354D01*
X96055647Y-46800000D01*
X96035323Y-46658082D01*
X96002050Y-46584902D01*
X95977827Y-46531624D01*
X95977825Y-46531620D01*
X95975984Y-46527572D01*
X95975582Y-46527105D01*
X95967443Y-46481410D01*
X95994813Y-46442178D01*
X96016292Y-46433533D01*
X96039835Y-46428850D01*
X96074373Y-46421980D01*
X96079490Y-46418561D01*
X96079492Y-46418560D01*
X96157740Y-46366276D01*
X96162857Y-46362857D01*
X96189894Y-46322393D01*
X96218560Y-46279492D01*
X96218561Y-46279490D01*
X96221980Y-46274373D01*
X96230761Y-46230230D01*
X96236901Y-46199361D01*
X96236901Y-46199358D01*
X96237500Y-46196348D01*
X96237500Y-45863652D01*
X96236257Y-45857400D01*
X96223181Y-45791666D01*
X96221980Y-45785627D01*
X96214135Y-45773885D01*
X96166276Y-45702260D01*
X96162857Y-45697143D01*
X96154708Y-45691698D01*
X96122768Y-45670356D01*
X96110144Y-45659187D01*
X96078359Y-45622300D01*
X96063378Y-45576871D01*
X96084908Y-45534155D01*
X96099293Y-45524858D01*
X96168025Y-45492808D01*
X96168762Y-45494389D01*
X96208658Y-45485546D01*
X96241997Y-45502902D01*
G37*
%TD.AperFunction*%
%TA.AperFunction,Conductor*%
G36*
X105354195Y-44405806D02*
G01*
X105372501Y-44450000D01*
X105372501Y-44535780D01*
X105383422Y-44609979D01*
X105385562Y-44614337D01*
X105385562Y-44614338D01*
X105420729Y-44685963D01*
X105438810Y-44722790D01*
X105442462Y-44726436D01*
X105442463Y-44726437D01*
X105458269Y-44742215D01*
X105511823Y-44795675D01*
X105512660Y-44796511D01*
X105531004Y-44840689D01*
X105512737Y-44884900D01*
X105505637Y-44891017D01*
X105431965Y-44945433D01*
X105425433Y-44951965D01*
X105350591Y-45053293D01*
X105346264Y-45061463D01*
X105304240Y-45181133D01*
X105302620Y-45188517D01*
X105300138Y-45214765D01*
X105300000Y-45217704D01*
X105300000Y-45407569D01*
X105303641Y-45416359D01*
X105312431Y-45420000D01*
X106060000Y-45420000D01*
X106104194Y-45438306D01*
X106122500Y-45482500D01*
X106122500Y-45557500D01*
X106104194Y-45601694D01*
X106060000Y-45620000D01*
X105312432Y-45620000D01*
X105303642Y-45623641D01*
X105300001Y-45632431D01*
X105300001Y-45822294D01*
X105300140Y-45825238D01*
X105302620Y-45851485D01*
X105304239Y-45858865D01*
X105346264Y-45978537D01*
X105350591Y-45986707D01*
X105425433Y-46088035D01*
X105431965Y-46094567D01*
X105505578Y-46148939D01*
X105530250Y-46189920D01*
X105518718Y-46236345D01*
X105512682Y-46243363D01*
X105496385Y-46259689D01*
X105442070Y-46314098D01*
X105442068Y-46314100D01*
X105438422Y-46317753D01*
X105436154Y-46322393D01*
X105387249Y-46422442D01*
X105383231Y-46430661D01*
X105372500Y-46504219D01*
X105372501Y-47075780D01*
X105383422Y-47149979D01*
X105385562Y-47154337D01*
X105385562Y-47154338D01*
X105407689Y-47199405D01*
X105410734Y-47247143D01*
X105395780Y-47271144D01*
X105126230Y-47540694D01*
X105082036Y-47559000D01*
X103653247Y-47559000D01*
X103609053Y-47540694D01*
X103596352Y-47522369D01*
X103579756Y-47485869D01*
X103578128Y-47438062D01*
X103610782Y-47403105D01*
X103636651Y-47397500D01*
X103650856Y-47397500D01*
X103653866Y-47396901D01*
X103653869Y-47396901D01*
X103693629Y-47388992D01*
X103727423Y-47382270D01*
X103732540Y-47378851D01*
X103732542Y-47378850D01*
X103809135Y-47327671D01*
X103814252Y-47324252D01*
X103855683Y-47262247D01*
X103868850Y-47242542D01*
X103868851Y-47242540D01*
X103872270Y-47237423D01*
X103881198Y-47192540D01*
X103886901Y-47163869D01*
X103886901Y-47163866D01*
X103887500Y-47160856D01*
X103887500Y-46915901D01*
X103905806Y-46871707D01*
X103950000Y-46853401D01*
X103994194Y-46871707D01*
X104094194Y-46971707D01*
X104112500Y-47015901D01*
X104112500Y-47160856D01*
X104113099Y-47163866D01*
X104113099Y-47163869D01*
X104118802Y-47192540D01*
X104127730Y-47237423D01*
X104131149Y-47242540D01*
X104131150Y-47242542D01*
X104144317Y-47262247D01*
X104185748Y-47324252D01*
X104190865Y-47327671D01*
X104267458Y-47378850D01*
X104267460Y-47378851D01*
X104272577Y-47382270D01*
X104306371Y-47388992D01*
X104346131Y-47396901D01*
X104346134Y-47396901D01*
X104349144Y-47397500D01*
X104670856Y-47397500D01*
X104673866Y-47396901D01*
X104673869Y-47396901D01*
X104713629Y-47388992D01*
X104747423Y-47382270D01*
X104752540Y-47378851D01*
X104752542Y-47378850D01*
X104829135Y-47327671D01*
X104834252Y-47324252D01*
X104875683Y-47262247D01*
X104888850Y-47242542D01*
X104888851Y-47242540D01*
X104892270Y-47237423D01*
X104901198Y-47192540D01*
X104906901Y-47163869D01*
X104906901Y-47163866D01*
X104907500Y-47160856D01*
X104907500Y-46739144D01*
X104892270Y-46662577D01*
X104851532Y-46601609D01*
X104841000Y-46566888D01*
X104841000Y-45563234D01*
X104842253Y-45555893D01*
X104841524Y-45555810D01*
X104842321Y-45548819D01*
X104844653Y-45542178D01*
X104843713Y-45533724D01*
X104841383Y-45512794D01*
X104841000Y-45505881D01*
X104841000Y-45498467D01*
X104839421Y-45491544D01*
X104838245Y-45484591D01*
X104835015Y-45455571D01*
X104831281Y-45449607D01*
X104829910Y-45445670D01*
X104828097Y-45441904D01*
X104826532Y-45435041D01*
X104808354Y-45412229D01*
X104804260Y-45406446D01*
X104802284Y-45403290D01*
X104802279Y-45403284D01*
X104800404Y-45400289D01*
X104795191Y-45395076D01*
X104790506Y-45389832D01*
X104776612Y-45372396D01*
X104776611Y-45372396D01*
X104772225Y-45366891D01*
X104765886Y-45363833D01*
X104760385Y-45359442D01*
X104760811Y-45358908D01*
X104754647Y-45354532D01*
X104605806Y-45205691D01*
X104587500Y-45161497D01*
X104587500Y-44853652D01*
X104586050Y-44846359D01*
X104573181Y-44781666D01*
X104571980Y-44775627D01*
X104512857Y-44687143D01*
X104440150Y-44638562D01*
X104413575Y-44598789D01*
X104422907Y-44551873D01*
X104440150Y-44534629D01*
X104520764Y-44480764D01*
X104537441Y-44455806D01*
X104564523Y-44415276D01*
X104604296Y-44388701D01*
X104616489Y-44387500D01*
X105310001Y-44387500D01*
X105354195Y-44405806D01*
G37*
%TD.AperFunction*%
%TA.AperFunction,Conductor*%
G36*
X96285652Y-42419600D02*
G01*
X96292250Y-42447551D01*
X96292250Y-42592569D01*
X96295891Y-42601359D01*
X96304681Y-42605000D01*
X96837500Y-42605000D01*
X96881694Y-42623306D01*
X96900000Y-42667500D01*
X96900000Y-43417569D01*
X96910775Y-43443583D01*
X96920243Y-43453051D01*
X96925000Y-43476967D01*
X96925000Y-44397568D01*
X96928641Y-44406358D01*
X96937431Y-44409999D01*
X96953999Y-44409999D01*
X96998193Y-44428305D01*
X97016499Y-44472499D01*
X96998193Y-44516693D01*
X96970692Y-44544194D01*
X96926498Y-44562500D01*
X96614144Y-44562500D01*
X96611134Y-44563099D01*
X96611131Y-44563099D01*
X96574895Y-44570307D01*
X96537577Y-44577730D01*
X96532456Y-44581152D01*
X96527777Y-44583090D01*
X96479942Y-44583091D01*
X96454979Y-44564298D01*
X96441112Y-44546896D01*
X96441111Y-44546896D01*
X96436725Y-44541391D01*
X96430386Y-44538333D01*
X96424885Y-44533942D01*
X96425311Y-44533408D01*
X96419147Y-44529032D01*
X96255806Y-44365691D01*
X96237500Y-44321497D01*
X96237500Y-44286432D01*
X96255806Y-44242238D01*
X96300000Y-44223932D01*
X96344194Y-44242238D01*
X96356644Y-44260018D01*
X96359039Y-44265154D01*
X96365219Y-44273980D01*
X96441020Y-44349781D01*
X96449845Y-44355961D01*
X96547625Y-44401556D01*
X96556699Y-44404201D01*
X96598714Y-44409733D01*
X96602792Y-44410000D01*
X96712569Y-44410000D01*
X96721359Y-44406359D01*
X96725000Y-44397569D01*
X96725000Y-43507431D01*
X96714225Y-43481417D01*
X96704757Y-43471949D01*
X96700000Y-43448033D01*
X96700000Y-42817431D01*
X96696359Y-42808641D01*
X96687569Y-42805000D01*
X96304681Y-42805000D01*
X96291794Y-42810338D01*
X96263763Y-42838369D01*
X96215928Y-42838368D01*
X96195652Y-42824820D01*
X96171892Y-42801060D01*
X96163067Y-42794880D01*
X96063689Y-42748540D01*
X96054615Y-42745895D01*
X96011871Y-42740267D01*
X96007793Y-42740000D01*
X95912431Y-42740000D01*
X95903641Y-42743641D01*
X95900000Y-42752431D01*
X95900000Y-43257500D01*
X95881694Y-43301694D01*
X95837500Y-43320000D01*
X95302431Y-43320000D01*
X95293641Y-43323641D01*
X95290000Y-43332431D01*
X95290000Y-43397793D01*
X95290267Y-43401871D01*
X95295895Y-43444615D01*
X95298540Y-43453689D01*
X95344880Y-43553067D01*
X95351060Y-43561892D01*
X95428108Y-43638940D01*
X95436934Y-43645120D01*
X95514502Y-43681291D01*
X95546819Y-43716559D01*
X95544732Y-43764349D01*
X95522812Y-43789901D01*
X95437143Y-43847143D01*
X95378020Y-43935627D01*
X95362500Y-44013652D01*
X95362500Y-44346348D01*
X95363099Y-44349358D01*
X95363099Y-44349361D01*
X95368050Y-44374252D01*
X95378020Y-44424373D01*
X95381439Y-44429490D01*
X95381440Y-44429492D01*
X95393354Y-44447322D01*
X95437143Y-44512857D01*
X95442260Y-44516276D01*
X95442261Y-44516277D01*
X95461110Y-44528872D01*
X95487685Y-44568646D01*
X95478352Y-44615562D01*
X95452799Y-44637483D01*
X95436931Y-44644882D01*
X95428108Y-44651060D01*
X95351060Y-44728108D01*
X95344880Y-44736933D01*
X95298540Y-44836311D01*
X95295895Y-44845385D01*
X95290267Y-44888129D01*
X95290000Y-44892207D01*
X95290000Y-44957569D01*
X95293641Y-44966359D01*
X95302431Y-44970000D01*
X95837500Y-44970000D01*
X95881694Y-44988306D01*
X95900000Y-45032500D01*
X95900000Y-45107500D01*
X95881694Y-45151694D01*
X95837500Y-45170000D01*
X95302431Y-45170000D01*
X95293641Y-45173641D01*
X95290000Y-45182431D01*
X95290000Y-45247793D01*
X95290267Y-45251871D01*
X95295895Y-45294615D01*
X95298540Y-45303689D01*
X95344880Y-45403067D01*
X95351060Y-45411892D01*
X95397791Y-45458623D01*
X95416097Y-45502817D01*
X95397791Y-45547011D01*
X95386948Y-45555675D01*
X95372280Y-45564930D01*
X95369337Y-45568262D01*
X95369335Y-45568264D01*
X95283964Y-45664930D01*
X95277377Y-45672388D01*
X95216447Y-45802163D01*
X95194391Y-45943823D01*
X95212980Y-46085979D01*
X95214773Y-46090054D01*
X95268495Y-46212146D01*
X95270720Y-46217203D01*
X95311615Y-46265853D01*
X95316438Y-46271591D01*
X95330862Y-46317200D01*
X95308811Y-46359650D01*
X95301948Y-46364663D01*
X95294861Y-46369135D01*
X95226042Y-46412556D01*
X95226040Y-46412557D01*
X95222280Y-46414930D01*
X95219337Y-46418262D01*
X95219335Y-46418264D01*
X95163567Y-46481410D01*
X95127377Y-46522388D01*
X95066447Y-46652163D01*
X95065762Y-46656561D01*
X95065762Y-46656562D01*
X95049784Y-46759183D01*
X95035979Y-46786365D01*
X95037143Y-46787143D01*
X94995967Y-46848767D01*
X94956193Y-46875343D01*
X94909277Y-46866011D01*
X94882701Y-46826237D01*
X94881500Y-46814044D01*
X94881500Y-45130771D01*
X94882750Y-45123432D01*
X94882023Y-45123349D01*
X94882820Y-45116358D01*
X94885152Y-45109717D01*
X94881883Y-45080341D01*
X94881500Y-45073429D01*
X94881500Y-45066006D01*
X94879919Y-45059074D01*
X94878743Y-45052121D01*
X94875514Y-45023110D01*
X94871781Y-45017146D01*
X94870406Y-45013198D01*
X94868597Y-45009439D01*
X94867032Y-45002580D01*
X94848851Y-44979765D01*
X94844756Y-44973980D01*
X94842780Y-44970824D01*
X94842779Y-44970822D01*
X94840904Y-44967828D01*
X94835691Y-44962615D01*
X94831006Y-44957371D01*
X94817112Y-44939935D01*
X94817111Y-44939935D01*
X94812725Y-44934430D01*
X94806386Y-44931372D01*
X94800885Y-44926981D01*
X94801311Y-44926447D01*
X94795147Y-44922071D01*
X94604210Y-44731134D01*
X94585904Y-44686940D01*
X94592253Y-44659493D01*
X94614638Y-44613699D01*
X94614638Y-44613698D01*
X94616769Y-44609339D01*
X94627500Y-44535781D01*
X94627499Y-43964220D01*
X94616578Y-43890021D01*
X94614438Y-43885662D01*
X94563466Y-43781845D01*
X94563465Y-43781844D01*
X94561190Y-43777210D01*
X94551756Y-43767792D01*
X94475902Y-43692070D01*
X94475900Y-43692068D01*
X94472247Y-43688422D01*
X94383661Y-43645120D01*
X94363699Y-43635362D01*
X94363698Y-43635362D01*
X94359339Y-43633231D01*
X94354536Y-43632530D01*
X94354535Y-43632530D01*
X94332560Y-43629324D01*
X94285781Y-43622500D01*
X94011984Y-43622500D01*
X93989281Y-43618231D01*
X93982913Y-43615748D01*
X93919224Y-43590917D01*
X93919862Y-43589280D01*
X93886200Y-43564000D01*
X93877500Y-43532191D01*
X93877500Y-42751437D01*
X93895806Y-42707243D01*
X93940000Y-42688937D01*
X93971389Y-42697391D01*
X94107935Y-42776703D01*
X94207393Y-42806826D01*
X94246096Y-42818548D01*
X94270294Y-42825877D01*
X94439610Y-42836381D01*
X94606802Y-42807652D01*
X94762900Y-42741232D01*
X94899532Y-42640682D01*
X95009367Y-42511397D01*
X95054337Y-42423329D01*
X95090738Y-42392294D01*
X95138423Y-42396089D01*
X95169458Y-42432490D01*
X95172500Y-42451752D01*
X95172500Y-42675987D01*
X95170540Y-42691514D01*
X95167195Y-42704556D01*
X95170016Y-42713078D01*
X95170016Y-42713080D01*
X95177924Y-42736968D01*
X95178564Y-42739017D01*
X95185270Y-42761875D01*
X95188178Y-42771789D01*
X95189963Y-42773338D01*
X95190705Y-42775580D01*
X95196763Y-42780483D01*
X95196764Y-42780485D01*
X95217237Y-42797055D01*
X95218878Y-42798430D01*
X95222497Y-42801570D01*
X95244683Y-42820822D01*
X95247022Y-42821161D01*
X95248858Y-42822647D01*
X95256607Y-42823501D01*
X95256608Y-42823501D01*
X95282065Y-42826305D01*
X95323989Y-42849339D01*
X95337346Y-42895272D01*
X95331866Y-42914843D01*
X95298540Y-42986311D01*
X95295895Y-42995385D01*
X95290267Y-43038129D01*
X95290000Y-43042207D01*
X95290000Y-43107569D01*
X95293641Y-43116359D01*
X95302431Y-43120000D01*
X95687569Y-43120000D01*
X95696359Y-43116359D01*
X95700000Y-43107569D01*
X95700000Y-42752431D01*
X95688935Y-42725719D01*
X95680462Y-42717247D01*
X95680459Y-42669412D01*
X95710252Y-42637423D01*
X96201800Y-42391649D01*
X96249514Y-42388258D01*
X96285652Y-42419600D01*
G37*
%TD.AperFunction*%
%TA.AperFunction,Conductor*%
G36*
X101819799Y-44321807D02*
G01*
X101845351Y-44343727D01*
X101861038Y-44367203D01*
X101865748Y-44374252D01*
X101952577Y-44432270D01*
X101956388Y-44433028D01*
X101989394Y-44466033D01*
X101989395Y-44513869D01*
X101966376Y-44541918D01*
X101920867Y-44572327D01*
X101920865Y-44572329D01*
X101915748Y-44575748D01*
X101906482Y-44589615D01*
X101864412Y-44652577D01*
X101857730Y-44662577D01*
X101853524Y-44683724D01*
X101845028Y-44726437D01*
X101842500Y-44739144D01*
X101842500Y-45160856D01*
X101843099Y-45163866D01*
X101843099Y-45163869D01*
X101847743Y-45187213D01*
X101857730Y-45237423D01*
X101861151Y-45242543D01*
X101863506Y-45248229D01*
X101861644Y-45249000D01*
X101869000Y-45273249D01*
X101869000Y-45614545D01*
X101867799Y-45626738D01*
X101853795Y-45697143D01*
X101852500Y-45703652D01*
X101852500Y-46096348D01*
X101854182Y-46104807D01*
X101844852Y-46151721D01*
X101805080Y-46178299D01*
X101792884Y-46179500D01*
X101578728Y-46179500D01*
X101534534Y-46161194D01*
X101516228Y-46117000D01*
X101516763Y-46108842D01*
X101519733Y-46086286D01*
X101520000Y-46082208D01*
X101520000Y-46022431D01*
X101516359Y-46013641D01*
X101507569Y-46010000D01*
X100962500Y-46010000D01*
X100918306Y-45991694D01*
X100900000Y-45947500D01*
X100900000Y-45872500D01*
X100918306Y-45828306D01*
X100962500Y-45810000D01*
X101507568Y-45810000D01*
X101516358Y-45806359D01*
X101519999Y-45797569D01*
X101519999Y-45737793D01*
X101519731Y-45733713D01*
X101514201Y-45691698D01*
X101511557Y-45682626D01*
X101465961Y-45584845D01*
X101459781Y-45576020D01*
X101383980Y-45500219D01*
X101375155Y-45494039D01*
X101277375Y-45448444D01*
X101268301Y-45445799D01*
X101236683Y-45441636D01*
X101195256Y-45417718D01*
X101182876Y-45371513D01*
X101206794Y-45330086D01*
X101212138Y-45326410D01*
X101269194Y-45291377D01*
X101269197Y-45291375D01*
X101272991Y-45289045D01*
X101284140Y-45276728D01*
X101295750Y-45266706D01*
X101331913Y-45242542D01*
X101374252Y-45214252D01*
X101387919Y-45193798D01*
X101428850Y-45132542D01*
X101428851Y-45132540D01*
X101432270Y-45127423D01*
X101447500Y-45050856D01*
X101447500Y-44965103D01*
X101448366Y-44954734D01*
X101455096Y-44914729D01*
X101455496Y-44912354D01*
X101455647Y-44900000D01*
X101448131Y-44847517D01*
X101447500Y-44838657D01*
X101447500Y-44729144D01*
X101432270Y-44652577D01*
X101411385Y-44621320D01*
X101408647Y-44617223D01*
X101399314Y-44570307D01*
X101425889Y-44530533D01*
X101460613Y-44519999D01*
X101482207Y-44519999D01*
X101486287Y-44519731D01*
X101528302Y-44514201D01*
X101537374Y-44511557D01*
X101635155Y-44465961D01*
X101643980Y-44459781D01*
X101719781Y-44383980D01*
X101725961Y-44375154D01*
X101736741Y-44352037D01*
X101772009Y-44319720D01*
X101819799Y-44321807D01*
G37*
%TD.AperFunction*%
%TA.AperFunction,Conductor*%
G36*
X103798202Y-42391650D02*
G01*
X104176366Y-42580732D01*
X104207708Y-42616870D01*
X104204317Y-42664585D01*
X104168179Y-42695927D01*
X104148033Y-42699133D01*
X104141701Y-42699094D01*
X104135829Y-42699058D01*
X104135828Y-42699058D01*
X104131376Y-42699031D01*
X103993529Y-42738428D01*
X103993424Y-42738062D01*
X103972629Y-42742500D01*
X103950412Y-42742500D01*
X103947402Y-42743099D01*
X103947399Y-42743099D01*
X103905482Y-42751437D01*
X103870200Y-42758455D01*
X103865083Y-42761874D01*
X103865081Y-42761875D01*
X103787153Y-42813946D01*
X103740237Y-42823278D01*
X103729138Y-42815862D01*
X103728026Y-42818548D01*
X103695319Y-42805000D01*
X103312431Y-42805000D01*
X103303641Y-42808641D01*
X103300000Y-42817431D01*
X103300000Y-43427568D01*
X103308527Y-43448154D01*
X103308527Y-43480000D01*
X103310000Y-43480000D01*
X103310000Y-44377569D01*
X103313640Y-44386357D01*
X103321418Y-44389579D01*
X103355242Y-44423404D01*
X103360000Y-44447322D01*
X103360000Y-45456820D01*
X103341694Y-45501014D01*
X103323964Y-45512861D01*
X103320000Y-45522431D01*
X103320000Y-45787569D01*
X103323641Y-45796359D01*
X103332431Y-45800000D01*
X103677500Y-45800000D01*
X103721694Y-45818306D01*
X103740000Y-45862500D01*
X103740000Y-45867569D01*
X103743641Y-45876359D01*
X103752431Y-45880000D01*
X104187500Y-45880000D01*
X104231694Y-45898306D01*
X104250000Y-45942500D01*
X104250000Y-46017500D01*
X104231694Y-46061694D01*
X104187500Y-46080000D01*
X103662500Y-46080000D01*
X103618306Y-46061694D01*
X103600000Y-46017500D01*
X103600000Y-46012431D01*
X103596359Y-46003641D01*
X103587569Y-46000000D01*
X103182500Y-46000000D01*
X103138306Y-45981694D01*
X103120000Y-45937500D01*
X103120000Y-45403180D01*
X103138306Y-45358986D01*
X103156036Y-45347139D01*
X103160000Y-45337569D01*
X103160000Y-45062431D01*
X103156359Y-45053641D01*
X103147569Y-45050000D01*
X102802432Y-45050000D01*
X102793642Y-45053641D01*
X102790001Y-45062431D01*
X102790001Y-45172207D01*
X102790269Y-45176287D01*
X102795799Y-45218302D01*
X102798443Y-45227374D01*
X102844039Y-45325155D01*
X102850219Y-45333980D01*
X102878510Y-45362271D01*
X102896816Y-45406465D01*
X102878510Y-45450659D01*
X102801060Y-45528108D01*
X102794880Y-45536934D01*
X102758709Y-45614502D01*
X102723441Y-45646819D01*
X102675651Y-45644732D01*
X102650098Y-45622811D01*
X102644547Y-45614502D01*
X102592857Y-45537143D01*
X102504373Y-45478020D01*
X102504016Y-45477949D01*
X102472278Y-45446214D01*
X102472277Y-45398378D01*
X102495295Y-45370328D01*
X102564252Y-45324252D01*
X102589982Y-45285745D01*
X102618850Y-45242542D01*
X102618851Y-45242540D01*
X102622270Y-45237423D01*
X102632257Y-45187213D01*
X102636901Y-45163869D01*
X102636901Y-45163866D01*
X102637500Y-45160856D01*
X102637500Y-44739144D01*
X102634973Y-44726437D01*
X102626476Y-44683724D01*
X102622270Y-44662577D01*
X102615589Y-44652577D01*
X102573518Y-44589615D01*
X102564252Y-44575748D01*
X102477423Y-44517730D01*
X102473612Y-44516972D01*
X102440606Y-44483967D01*
X102440605Y-44436131D01*
X102463624Y-44408082D01*
X102509133Y-44377673D01*
X102509135Y-44377671D01*
X102514252Y-44374252D01*
X102534949Y-44343277D01*
X102568850Y-44292542D01*
X102568851Y-44292540D01*
X102572270Y-44287423D01*
X102585242Y-44222207D01*
X102740001Y-44222207D01*
X102740269Y-44226287D01*
X102745799Y-44268302D01*
X102748443Y-44277374D01*
X102794039Y-44375155D01*
X102800219Y-44383980D01*
X102872045Y-44455806D01*
X102890351Y-44500000D01*
X102872045Y-44544194D01*
X102850219Y-44566020D01*
X102844039Y-44574845D01*
X102798444Y-44672625D01*
X102795799Y-44681699D01*
X102790267Y-44723714D01*
X102790000Y-44727792D01*
X102790000Y-44837569D01*
X102793641Y-44846359D01*
X102802431Y-44850000D01*
X103147569Y-44850000D01*
X103156359Y-44846359D01*
X103160000Y-44837569D01*
X103160000Y-44572431D01*
X103156360Y-44563643D01*
X103148582Y-44560421D01*
X103114758Y-44526596D01*
X103110000Y-44502678D01*
X103110000Y-44112431D01*
X103106359Y-44103641D01*
X103097569Y-44100000D01*
X102752432Y-44100000D01*
X102743642Y-44103641D01*
X102740001Y-44112431D01*
X102740001Y-44222207D01*
X102585242Y-44222207D01*
X102587500Y-44210856D01*
X102587500Y-43789144D01*
X102586839Y-43785817D01*
X102577688Y-43739815D01*
X102572270Y-43712577D01*
X102566013Y-43703212D01*
X102523067Y-43638940D01*
X102514252Y-43625748D01*
X102484727Y-43606020D01*
X102432542Y-43571150D01*
X102432540Y-43571149D01*
X102427423Y-43567730D01*
X102390613Y-43560408D01*
X102353869Y-43553099D01*
X102353866Y-43553099D01*
X102350856Y-43552500D01*
X102148503Y-43552500D01*
X102104309Y-43534194D01*
X102004335Y-43434220D01*
X101986029Y-43390026D01*
X102004335Y-43345832D01*
X102048529Y-43327526D01*
X102060722Y-43328727D01*
X102076679Y-43331901D01*
X102076683Y-43331901D01*
X102079692Y-43332500D01*
X102256353Y-43332500D01*
X102274990Y-43335344D01*
X102293524Y-43341134D01*
X102319157Y-43349142D01*
X102323609Y-43349224D01*
X102323611Y-43349224D01*
X102394642Y-43350526D01*
X102462499Y-43351770D01*
X102525107Y-43334701D01*
X102541547Y-43332500D01*
X102673964Y-43332500D01*
X102718158Y-43350806D01*
X102725931Y-43360277D01*
X102748514Y-43394075D01*
X102757050Y-43402611D01*
X102812970Y-43439976D01*
X102824127Y-43444597D01*
X102832487Y-43446260D01*
X102872260Y-43472837D01*
X102881591Y-43519754D01*
X102864486Y-43551753D01*
X102800219Y-43616020D01*
X102794039Y-43624845D01*
X102748444Y-43722625D01*
X102745799Y-43731699D01*
X102740267Y-43773714D01*
X102740000Y-43777792D01*
X102740000Y-43887569D01*
X102743641Y-43896359D01*
X102752431Y-43900000D01*
X103097569Y-43900000D01*
X103106359Y-43896359D01*
X103110000Y-43887569D01*
X103110000Y-43507432D01*
X103101473Y-43486846D01*
X103101473Y-43455000D01*
X103100000Y-43455000D01*
X103100000Y-42667500D01*
X103118306Y-42623306D01*
X103162500Y-42605000D01*
X103695319Y-42605000D01*
X103704109Y-42601359D01*
X103707750Y-42592569D01*
X103707750Y-42447552D01*
X103726056Y-42403358D01*
X103770250Y-42385052D01*
X103798202Y-42391650D01*
G37*
%TD.AperFunction*%
%TD*%
%TA.AperFunction,NonConductor*%
G36*
X104934194Y-42417432D02*
G01*
X104944749Y-42432066D01*
X104945074Y-42432962D01*
X104947067Y-42436001D01*
X104947067Y-42436002D01*
X104984896Y-42493700D01*
X105038088Y-42574832D01*
X105161243Y-42691498D01*
X105307935Y-42776703D01*
X105407393Y-42806826D01*
X105446096Y-42818548D01*
X105470294Y-42825877D01*
X105639610Y-42836381D01*
X105806802Y-42807652D01*
X105962900Y-42741232D01*
X105965823Y-42739081D01*
X105965828Y-42739078D01*
X106015384Y-42702608D01*
X106022956Y-42697036D01*
X106069400Y-42685585D01*
X106110338Y-42710329D01*
X106122500Y-42747374D01*
X106122500Y-43532830D01*
X106104194Y-43577024D01*
X106082092Y-43591295D01*
X106010187Y-43618466D01*
X105988095Y-43622501D01*
X105714220Y-43622501D01*
X105640021Y-43633422D01*
X105635663Y-43635562D01*
X105635662Y-43635562D01*
X105531845Y-43686534D01*
X105531844Y-43686535D01*
X105527210Y-43688810D01*
X105523564Y-43692462D01*
X105523563Y-43692463D01*
X105442070Y-43774098D01*
X105442068Y-43774100D01*
X105438422Y-43777753D01*
X105436153Y-43782394D01*
X105436152Y-43782396D01*
X105404353Y-43847448D01*
X105368499Y-43879113D01*
X105348203Y-43882500D01*
X104616489Y-43882500D01*
X104572295Y-43864194D01*
X104564523Y-43854724D01*
X104524184Y-43794354D01*
X104524183Y-43794353D01*
X104520764Y-43789236D01*
X104446801Y-43739815D01*
X104420225Y-43700041D01*
X104429557Y-43653125D01*
X104448821Y-43634587D01*
X104519194Y-43591378D01*
X104519202Y-43591372D01*
X104522991Y-43589045D01*
X104537024Y-43573542D01*
X104612641Y-43490000D01*
X104619200Y-43482754D01*
X104681710Y-43353733D01*
X104682483Y-43349142D01*
X104692386Y-43290275D01*
X104705496Y-43212354D01*
X104705647Y-43200000D01*
X104685323Y-43058082D01*
X104625984Y-42927572D01*
X104623076Y-42924197D01*
X104621754Y-42922130D01*
X104613366Y-42875035D01*
X104640735Y-42835803D01*
X104685493Y-42826948D01*
X104714202Y-42832122D01*
X104716386Y-42831218D01*
X104718723Y-42831557D01*
X104725818Y-42828331D01*
X104725819Y-42828331D01*
X104749777Y-42817438D01*
X104751742Y-42816584D01*
X104767024Y-42810258D01*
X104783328Y-42803510D01*
X104784677Y-42801570D01*
X104786828Y-42800592D01*
X104805354Y-42771901D01*
X104806525Y-42770154D01*
X104826042Y-42742088D01*
X104826129Y-42739726D01*
X104827411Y-42737741D01*
X104827500Y-42737127D01*
X104827500Y-42703751D01*
X104827543Y-42701444D01*
X104827910Y-42691498D01*
X104828803Y-42667325D01*
X104827572Y-42665242D01*
X104827500Y-42664664D01*
X104827500Y-42461626D01*
X104845806Y-42417432D01*
X104890000Y-42399126D01*
X104934194Y-42417432D01*
G37*
%TD.AperFunction*%
%TA.AperFunction,NonConductor*%
G36*
X104681694Y-49598306D02*
G01*
X104700000Y-49642500D01*
X104700000Y-50147569D01*
X104703641Y-50156359D01*
X104712431Y-50160000D01*
X104792500Y-50160000D01*
X104836694Y-50178306D01*
X104855000Y-50222500D01*
X104855000Y-50630577D01*
X104836694Y-50674771D01*
X104670771Y-50840694D01*
X104626577Y-50859000D01*
X103989154Y-50859000D01*
X103944960Y-50840694D01*
X103926654Y-50796500D01*
X103944847Y-50752579D01*
X103949482Y-50749482D01*
X103991476Y-50686634D01*
X104002500Y-50631212D01*
X104002500Y-50468788D01*
X104001590Y-50464210D01*
X103994389Y-50428012D01*
X103991476Y-50413366D01*
X103979448Y-50395364D01*
X103959256Y-50365146D01*
X103949482Y-50350518D01*
X103944365Y-50347099D01*
X103941460Y-50344194D01*
X103923154Y-50300000D01*
X103941460Y-50255806D01*
X103944365Y-50252901D01*
X103949482Y-50249482D01*
X103972955Y-50214353D01*
X103988056Y-50191753D01*
X103988057Y-50191751D01*
X103991476Y-50186634D01*
X103997946Y-50154105D01*
X104001901Y-50134225D01*
X104001901Y-50134222D01*
X104002500Y-50131212D01*
X104002500Y-49989650D01*
X104020806Y-49945456D01*
X104065000Y-49927150D01*
X104109194Y-49945456D01*
X104121644Y-49963236D01*
X104144880Y-50013067D01*
X104151060Y-50021892D01*
X104228108Y-50098940D01*
X104236933Y-50105120D01*
X104336311Y-50151460D01*
X104345385Y-50154105D01*
X104388129Y-50159733D01*
X104392207Y-50160000D01*
X104487569Y-50160000D01*
X104496359Y-50156359D01*
X104500000Y-50147569D01*
X104500000Y-49642500D01*
X104518306Y-49598306D01*
X104562500Y-49580000D01*
X104637500Y-49580000D01*
X104681694Y-49598306D01*
G37*
%TD.AperFunction*%
%TA.AperFunction,NonConductor*%
G36*
X95285475Y-57212630D02*
G01*
X95308608Y-57254500D01*
X95309000Y-57261489D01*
X95309000Y-57956768D01*
X95307750Y-57964107D01*
X95308477Y-57964190D01*
X95307680Y-57971181D01*
X95305348Y-57977822D01*
X95306126Y-57984815D01*
X95306126Y-57984816D01*
X95308617Y-58007197D01*
X95309000Y-58014110D01*
X95309000Y-58021533D01*
X95310581Y-58028465D01*
X95311757Y-58035418D01*
X95314986Y-58064429D01*
X95318719Y-58070393D01*
X95320094Y-58074341D01*
X95321903Y-58078100D01*
X95323468Y-58084959D01*
X95327853Y-58090461D01*
X95327853Y-58090462D01*
X95341648Y-58107773D01*
X95345744Y-58113559D01*
X95349596Y-58119711D01*
X95354809Y-58124924D01*
X95359494Y-58130168D01*
X95377775Y-58153109D01*
X95384114Y-58156167D01*
X95389615Y-58160558D01*
X95389189Y-58161092D01*
X95395353Y-58165468D01*
X96034372Y-58804487D01*
X96038677Y-58810561D01*
X96039250Y-58810105D01*
X96043631Y-58815613D01*
X96046678Y-58821958D01*
X96052175Y-58826354D01*
X96069761Y-58840418D01*
X96074920Y-58845035D01*
X96080168Y-58850283D01*
X96083139Y-58852150D01*
X96083140Y-58852151D01*
X96086169Y-58854055D01*
X96091944Y-58858159D01*
X96109236Y-58871988D01*
X96109240Y-58871990D01*
X96114733Y-58876383D01*
X96121590Y-58877960D01*
X96125352Y-58879778D01*
X96129290Y-58881157D01*
X96135248Y-58884902D01*
X96142239Y-58885692D01*
X96142244Y-58885694D01*
X96164237Y-58888180D01*
X96171223Y-58889373D01*
X96178297Y-58891000D01*
X96185677Y-58891000D01*
X96192698Y-58891396D01*
X96221838Y-58894690D01*
X96228482Y-58892370D01*
X96235478Y-58891585D01*
X96235554Y-58892264D01*
X96243003Y-58891000D01*
X97244997Y-58891000D01*
X97289191Y-58909306D01*
X97444194Y-59064309D01*
X97462500Y-59108503D01*
X97462500Y-59125954D01*
X97456800Y-59148895D01*
X97457848Y-59149297D01*
X97456497Y-59152817D01*
X97454735Y-59156145D01*
X97453818Y-59159797D01*
X97437383Y-59225226D01*
X97408862Y-59263629D01*
X97376766Y-59272500D01*
X93940000Y-59272500D01*
X93895806Y-59254194D01*
X93877500Y-59210000D01*
X93877500Y-58937170D01*
X93895806Y-58892976D01*
X93917908Y-58878705D01*
X93989813Y-58851534D01*
X94011905Y-58847499D01*
X94285780Y-58847499D01*
X94359979Y-58836578D01*
X94380803Y-58826354D01*
X94468155Y-58783466D01*
X94468156Y-58783465D01*
X94472790Y-58781190D01*
X94509120Y-58744797D01*
X94557930Y-58695902D01*
X94557932Y-58695900D01*
X94561578Y-58692247D01*
X94598324Y-58617073D01*
X94614638Y-58583699D01*
X94614638Y-58583698D01*
X94616769Y-58579339D01*
X94627500Y-58505781D01*
X94627499Y-57934220D01*
X94620623Y-57887500D01*
X94617286Y-57864828D01*
X94617285Y-57864825D01*
X94616578Y-57860021D01*
X94614436Y-57855659D01*
X94613789Y-57853576D01*
X94618156Y-57805940D01*
X94629280Y-57790835D01*
X95154485Y-57265629D01*
X95160560Y-57261322D01*
X95160105Y-57260750D01*
X95165613Y-57256369D01*
X95171958Y-57253322D01*
X95190422Y-57230234D01*
X95195039Y-57225075D01*
X95200283Y-57219831D01*
X95201071Y-57220619D01*
X95239511Y-57199381D01*
X95285475Y-57212630D01*
G37*
%TD.AperFunction*%
M02*
