%TF.GenerationSoftware,KiCad,Pcbnew,(6.0.8)*%
%TF.CreationDate,2022-10-30T22:36:46+01:00*%
%TF.ProjectId,epi,6570692e-6b69-4636-9164-5f7063625858,rev?*%
%TF.SameCoordinates,Original*%
%TF.FileFunction,Copper,L2,Bot*%
%TF.FilePolarity,Positive*%
%FSLAX46Y46*%
G04 Gerber Fmt 4.6, Leading zero omitted, Abs format (unit mm)*
G04 Created by KiCad (PCBNEW (6.0.8)) date 2022-10-30 22:36:46*
%MOMM*%
%LPD*%
G01*
G04 APERTURE LIST*
%TA.AperFunction,ComponentPad*%
%ADD10R,1.000000X1.000000*%
%TD*%
%TA.AperFunction,ComponentPad*%
%ADD11O,1.000000X1.000000*%
%TD*%
%TA.AperFunction,ComponentPad*%
%ADD12O,1.200000X2.300000*%
%TD*%
%TA.AperFunction,ComponentPad*%
%ADD13O,1.200000X2.000000*%
%TD*%
%TA.AperFunction,ViaPad*%
%ADD14C,0.500000*%
%TD*%
%TA.AperFunction,Conductor*%
%ADD15C,0.200000*%
%TD*%
%TA.AperFunction,Conductor*%
%ADD16C,0.127000*%
%TD*%
G04 APERTURE END LIST*
D10*
%TO.P,J3,1,Pin_1*%
%TO.N,IO11*%
X101900000Y-59400000D03*
D11*
%TO.P,J3,2,Pin_2*%
%TO.N,IO12*%
X100630000Y-59400000D03*
%TO.P,J3,3,Pin_3*%
%TO.N,IO13*%
X99360000Y-59400000D03*
%TO.P,J3,4,Pin_4*%
%TO.N,A5*%
X98090000Y-59400000D03*
%TD*%
D10*
%TO.P,J1,1,Pin_1*%
%TO.N,D1{slash}TX*%
X93750000Y-44250000D03*
D11*
%TO.P,J1,2,Pin_2*%
%TO.N,D0{slash}RX*%
X93750000Y-45520000D03*
%TO.P,J1,3,Pin_3*%
%TO.N,GND*%
X93750000Y-46790000D03*
%TO.P,J1,4,Pin_4*%
X93750000Y-48060000D03*
%TO.P,J1,5,Pin_5*%
%TO.N,D2{slash}SDA*%
X93750000Y-49330000D03*
%TO.P,J1,6,Pin_6*%
%TO.N,D3{slash}SCL*%
X93750000Y-50600000D03*
%TO.P,J1,7,Pin_7*%
%TO.N,D4*%
X93750000Y-51870000D03*
%TO.P,J1,8,Pin_8*%
%TO.N,D5*%
X93750000Y-53140000D03*
%TO.P,J1,9,Pin_9*%
%TO.N,D6*%
X93750000Y-54410000D03*
%TO.P,J1,10,Pin_10*%
%TO.N,D7*%
X93750000Y-55680000D03*
%TO.P,J1,11,Pin_11*%
%TO.N,IO8*%
X93750000Y-56950000D03*
%TO.P,J1,12,Pin_12*%
%TO.N,IO9*%
X93750000Y-58220000D03*
%TD*%
D12*
%TO.P,J4,S1,SHIELD*%
%TO.N,unconnected-(J4-PadS1)*%
X105600000Y-37705000D03*
D13*
X105600000Y-41705000D03*
D12*
X94400000Y-37705000D03*
D13*
X94400000Y-41705000D03*
%TD*%
D10*
%TO.P,J2,1,Pin_1*%
%TO.N,VBUS*%
X106250000Y-44250000D03*
D11*
%TO.P,J2,2,Pin_2*%
%TO.N,GND*%
X106250000Y-45520000D03*
%TO.P,J2,3,Pin_3*%
%TO.N,RST*%
X106250000Y-46790000D03*
%TO.P,J2,4,Pin_4*%
%TO.N,A4*%
X106250000Y-48060000D03*
%TO.P,J2,5,Pin_5*%
%TO.N,A3*%
X106250000Y-49330000D03*
%TO.P,J2,6,Pin_6*%
%TO.N,A2*%
X106250000Y-50600000D03*
%TO.P,J2,7,Pin_7*%
%TO.N,A1*%
X106250000Y-51870000D03*
%TO.P,J2,8,Pin_8*%
%TO.N,A0*%
X106250000Y-53140000D03*
%TO.P,J2,9,Pin_9*%
%TO.N,D15{slash}SCK*%
X106250000Y-54410000D03*
%TO.P,J2,10,Pin_10*%
%TO.N,D14{slash}MISO*%
X106250000Y-55680000D03*
%TO.P,J2,11,Pin_11*%
%TO.N,D16{slash}MOSI*%
X106250000Y-56950000D03*
%TO.P,J2,12,Pin_12*%
%TO.N,IO10*%
X106250000Y-58220000D03*
%TD*%
D14*
%TO.N,VBUS*%
X97600000Y-42750000D03*
X102400000Y-42850000D03*
%TO.N,GND*%
X96200000Y-56200000D03*
X103900000Y-57700000D03*
X96900000Y-44000000D03*
X99850000Y-47050000D03*
X102200000Y-56000000D03*
X95000000Y-43500000D03*
X104000000Y-45000000D03*
X97250000Y-54750000D03*
X98300000Y-57600000D03*
X104635000Y-49865000D03*
X96600000Y-47000000D03*
X105100000Y-53700000D03*
X101400000Y-44100000D03*
%TO.N,Net-(C2-Pad2)*%
X97900000Y-46050000D03*
X102275000Y-49275000D03*
%TO.N,Net-(C5-Pad2)*%
X97750000Y-51750000D03*
X99500000Y-56750000D03*
%TO.N,Net-(C6-Pad2)*%
X99450000Y-52700000D03*
X100950000Y-57850000D03*
%TO.N,Net-(C7-Pad1)*%
X95250000Y-44850000D03*
X102200000Y-50150000D03*
%TO.N,Net-(C8-Pad2)*%
X100000000Y-49550000D03*
X95850000Y-45900000D03*
%TO.N,RST*%
X103150000Y-47750000D03*
X101400000Y-49250000D03*
%TO.N,D0{slash}RX*%
X95220558Y-47656290D03*
%TO.N,IO11*%
X96350000Y-48400000D03*
%TO.N,IO12*%
X99050000Y-53950000D03*
%TO.N,Net-(J4-PadA7)*%
X100950000Y-44900000D03*
X99150000Y-43950000D03*
%TO.N,Net-(J4-PadB5)*%
X98850000Y-45100000D03*
X100300000Y-44100000D03*
%TO.N,D+*%
X100800000Y-47050000D03*
X98900000Y-46300000D03*
%TO.N,D-*%
X99900000Y-45900000D03*
X101650000Y-47100000D03*
%TO.N,D7*%
X98550000Y-53300000D03*
X101400000Y-50950000D03*
X103650000Y-48400000D03*
%TO.N,D15{slash}SCK*%
X99000000Y-49300000D03*
%TO.N,D16{slash}MOSI*%
X98000000Y-49200000D03*
%TO.N,D14{slash}MISO*%
X97350000Y-48250000D03*
X104600000Y-56100000D03*
%TO.N,D3{slash}SCL*%
X95600000Y-51200000D03*
%TO.N,D2{slash}SDA*%
X95300000Y-49200000D03*
%TO.N,D4*%
X95100000Y-54000000D03*
X97700000Y-53050000D03*
%TO.N,IO10*%
X102300000Y-52650000D03*
%TO.N,D5*%
X101750000Y-53850000D03*
%TO.N,A5*%
X98850000Y-52100000D03*
X95500000Y-55750000D03*
%TD*%
D15*
%TO.N,VBUS*%
X102260000Y-42710000D02*
X97640000Y-42710000D01*
X97640000Y-42710000D02*
X97600000Y-42750000D01*
X102400000Y-42850000D02*
X102260000Y-42710000D01*
D16*
%TO.N,GND*%
X103100000Y-44100000D02*
X104000000Y-45000000D01*
X101400000Y-44100000D02*
X103100000Y-44100000D01*
%TO.N,Net-(C2-Pad2)*%
X98350000Y-46896910D02*
X98936500Y-47483410D01*
X100450000Y-48750000D02*
X100203090Y-48750000D01*
X97800000Y-46050000D02*
X98350000Y-46600000D01*
X101203090Y-49850000D02*
X100836500Y-49483410D01*
X98350000Y-46600000D02*
X98350000Y-46896910D01*
X100836500Y-49483410D02*
X100836500Y-49136500D01*
X100203090Y-48750000D02*
X98936500Y-47483410D01*
X102275000Y-49275000D02*
X101700000Y-49850000D01*
X100836500Y-49136500D02*
X100450000Y-48750000D01*
X101700000Y-49850000D02*
X101203090Y-49850000D01*
%TO.N,Net-(C5-Pad2)*%
X98000000Y-51500000D02*
X97750000Y-51750000D01*
X99150000Y-51500000D02*
X98000000Y-51500000D01*
X99009210Y-55409210D02*
X100800000Y-53618420D01*
X99009210Y-56259210D02*
X99009210Y-55409210D01*
X99500000Y-56750000D02*
X99009210Y-56259210D01*
X100800000Y-53618420D02*
X100800000Y-53150000D01*
X100800000Y-53150000D02*
X99150000Y-51500000D01*
%TO.N,Net-(C6-Pad2)*%
X97700000Y-58340790D02*
X97705210Y-58346000D01*
X99700000Y-53650000D02*
X99700000Y-54359210D01*
X99450000Y-52700000D02*
X99450000Y-53400000D01*
X99450000Y-53400000D02*
X99700000Y-53650000D01*
X97705210Y-58346000D02*
X100454000Y-58346000D01*
X99700000Y-54359210D02*
X97700000Y-56359210D01*
X100454000Y-58346000D02*
X100950000Y-57850000D01*
X97700000Y-56359210D02*
X97700000Y-58340790D01*
%TO.N,Net-(C7-Pad1)*%
X95250000Y-44850000D02*
X95600000Y-44850000D01*
X100582500Y-49241710D02*
X100582500Y-49588620D01*
X102154000Y-50104000D02*
X102200000Y-50150000D01*
X95600000Y-44850000D02*
X97363500Y-46613500D01*
X100344790Y-49004000D02*
X100582500Y-49241710D01*
X101097880Y-50104000D02*
X102154000Y-50104000D01*
X97363500Y-46613500D02*
X97707380Y-46613500D01*
X97707380Y-46613500D02*
X100097880Y-49004000D01*
X100582500Y-49588620D02*
X101097880Y-50104000D01*
X100097880Y-49004000D02*
X100344790Y-49004000D01*
%TO.N,Net-(C8-Pad2)*%
X97258290Y-46867500D02*
X97602170Y-46867500D01*
X97602170Y-46867500D02*
X100000000Y-49265330D01*
X100000000Y-49265330D02*
X100000000Y-49550000D01*
X95850000Y-45900000D02*
X96290790Y-45900000D01*
X96290790Y-45900000D02*
X97258290Y-46867500D01*
%TO.N,RST*%
X103150000Y-47750000D02*
X102900000Y-47750000D01*
X102900000Y-47750000D02*
X101400000Y-49250000D01*
%TO.N,D0{slash}RX*%
X95220558Y-46927058D02*
X93813500Y-45520000D01*
X95220558Y-47656290D02*
X95220558Y-46927058D01*
%TO.N,IO11*%
X98466730Y-50332060D02*
X98872275Y-50737605D01*
X96350000Y-48400000D02*
X96350000Y-48706120D01*
X99128395Y-50737605D02*
X99595395Y-51204605D01*
X99595395Y-51204605D02*
X99595395Y-51226975D01*
X103000000Y-58236500D02*
X101900000Y-59336500D01*
X101832490Y-53135580D02*
X103000000Y-54303090D01*
X99595395Y-51226975D02*
X101504000Y-53135580D01*
X103000000Y-54303090D02*
X103000000Y-58236500D01*
X96350000Y-48706120D02*
X97975940Y-50332060D01*
X98872275Y-50737605D02*
X99128395Y-50737605D01*
X101504000Y-53135580D02*
X101832490Y-53135580D01*
X97975940Y-50332060D02*
X98466730Y-50332060D01*
%TO.N,IO12*%
X100630000Y-59230000D02*
X100630000Y-59336500D01*
X100000000Y-58600000D02*
X100630000Y-59230000D01*
X98800000Y-54900000D02*
X97446000Y-56254000D01*
X99050000Y-53950000D02*
X98800000Y-54200000D01*
X97600000Y-58600000D02*
X100000000Y-58600000D01*
X97446000Y-56254000D02*
X97446000Y-58446000D01*
X97446000Y-58446000D02*
X97600000Y-58600000D01*
X98800000Y-54200000D02*
X98800000Y-54900000D01*
%TO.N,Net-(J4-PadA7)*%
X98286500Y-45333410D02*
X98653090Y-45700000D01*
X99150000Y-43950000D02*
X98286500Y-44813500D01*
X98286500Y-44813500D02*
X98286500Y-45333410D01*
X99303090Y-45700000D02*
X100103090Y-44900000D01*
X98653090Y-45700000D02*
X99303090Y-45700000D01*
X100103090Y-44900000D02*
X100950000Y-44900000D01*
%TO.N,Net-(J4-PadB5)*%
X99650000Y-44300000D02*
X98850000Y-45100000D01*
X100300000Y-44100000D02*
X100100000Y-44300000D01*
X100100000Y-44300000D02*
X99650000Y-44300000D01*
%TO.N,D+*%
X99666590Y-46463500D02*
X100263500Y-46463500D01*
X100263500Y-46463500D02*
X100800000Y-47000000D01*
X100800000Y-47000000D02*
X100800000Y-47050000D01*
X98900000Y-46300000D02*
X99503090Y-46300000D01*
X99503090Y-46300000D02*
X99666590Y-46463500D01*
%TO.N,D-*%
X100200000Y-46200000D02*
X100750000Y-46200000D01*
X100750000Y-46200000D02*
X101650000Y-47100000D01*
X99900000Y-45900000D02*
X100200000Y-46200000D01*
%TO.N,D7*%
X98550000Y-53300000D02*
X98486500Y-53363500D01*
X102196910Y-50950000D02*
X103650000Y-49496910D01*
X96250000Y-57000000D02*
X95133500Y-57000000D01*
X98486500Y-54763500D02*
X96250000Y-57000000D01*
X95133500Y-57000000D02*
X93813500Y-55680000D01*
X101400000Y-50950000D02*
X102196910Y-50950000D01*
X98486500Y-53363500D02*
X98486500Y-54763500D01*
X103650000Y-49496910D02*
X103650000Y-48400000D01*
%TO.N,D15{slash}SCK*%
X106186500Y-54473500D02*
X106186500Y-54410000D01*
X103371500Y-53237750D02*
X104633750Y-54500000D01*
X103371500Y-52206170D02*
X103371500Y-53237750D01*
X106160000Y-54500000D02*
X106186500Y-54473500D01*
X101018420Y-51550000D02*
X102715330Y-51550000D01*
X99000000Y-49300000D02*
X99000000Y-49531580D01*
X104633750Y-54500000D02*
X106160000Y-54500000D01*
X102715330Y-51550000D02*
X103371500Y-52206170D01*
X99000000Y-49531580D02*
X101018420Y-51550000D01*
%TO.N,D16{slash}MOSI*%
X103117500Y-52311380D02*
X103117500Y-53342960D01*
X103117500Y-53342960D02*
X105246000Y-55471460D01*
X99338815Y-50229605D02*
X100913210Y-51804000D01*
X98000000Y-49200000D02*
X98053090Y-49200000D01*
X105246000Y-55471460D02*
X105246000Y-56496000D01*
X100913210Y-51804000D02*
X102610120Y-51804000D01*
X105700000Y-56950000D02*
X106186500Y-56950000D01*
X98053090Y-49200000D02*
X99082695Y-50229605D01*
X105246000Y-56496000D02*
X105700000Y-56950000D01*
X99082695Y-50229605D02*
X99338815Y-50229605D01*
X102610120Y-51804000D02*
X103117500Y-52311380D01*
%TO.N,D14{slash}MISO*%
X97450000Y-48350000D02*
X97450000Y-48953090D01*
X102863500Y-52416590D02*
X102863500Y-53448170D01*
X98081150Y-50078060D02*
X98571940Y-50078060D01*
X99233605Y-50483605D02*
X100808000Y-52058000D01*
X104600000Y-55184670D02*
X104600000Y-56100000D01*
X98977485Y-50483605D02*
X99233605Y-50483605D01*
X97350000Y-48250000D02*
X97450000Y-48350000D01*
X97436500Y-49433410D02*
X98081150Y-50078060D01*
X98571940Y-50078060D02*
X98977485Y-50483605D01*
X97450000Y-48953090D02*
X97436500Y-48966590D01*
X102504910Y-52058000D02*
X102863500Y-52416590D01*
X100808000Y-52058000D02*
X102504910Y-52058000D01*
X102863500Y-53448170D02*
X104600000Y-55184670D01*
X97436500Y-48966590D02*
X97436500Y-49433410D01*
%TO.N,D3{slash}SCL*%
X95187397Y-51200000D02*
X94587397Y-50600000D01*
X95600000Y-51200000D02*
X95187397Y-51200000D01*
X94587397Y-50600000D02*
X93813500Y-50600000D01*
%TO.N,D2{slash}SDA*%
X95300000Y-49200000D02*
X95170000Y-49330000D01*
X95170000Y-49330000D02*
X93813500Y-49330000D01*
%TO.N,D4*%
X95100000Y-54100000D02*
X95450000Y-53750000D01*
X95450000Y-53750000D02*
X97000000Y-53750000D01*
X97000000Y-53750000D02*
X97700000Y-53050000D01*
X95100000Y-54000000D02*
X95100000Y-54100000D01*
%TO.N,IO10*%
X102300000Y-52650000D02*
X102300000Y-53243880D01*
X104036500Y-56536500D02*
X105720000Y-58220000D01*
X105720000Y-58220000D02*
X106186500Y-58220000D01*
X104036500Y-54980380D02*
X104036500Y-56536500D01*
X102300000Y-53243880D02*
X104036500Y-54980380D01*
%TO.N,D5*%
X101250000Y-53350000D02*
X101250000Y-53240790D01*
X101750000Y-53850000D02*
X101250000Y-53350000D01*
X97516590Y-51186500D02*
X97203090Y-51500000D01*
X95560000Y-53140000D02*
X93813500Y-53140000D01*
X97200000Y-51500000D02*
X95560000Y-53140000D01*
X101250000Y-53240790D02*
X99255210Y-51246000D01*
X98042910Y-51246000D02*
X97983410Y-51186500D01*
X97983410Y-51186500D02*
X97516590Y-51186500D01*
X97203090Y-51500000D02*
X97200000Y-51500000D01*
X99255210Y-51246000D02*
X98042910Y-51246000D01*
%TO.N,A5*%
X94550000Y-53753090D02*
X94550000Y-53394000D01*
X94536500Y-54786500D02*
X94536500Y-53766590D01*
X95665210Y-53394000D02*
X96659210Y-52400000D01*
X98550000Y-52400000D02*
X98850000Y-52100000D01*
X96659210Y-52400000D02*
X98550000Y-52400000D01*
X95500000Y-55750000D02*
X94536500Y-54786500D01*
X94536500Y-53766590D02*
X94550000Y-53753090D01*
X94550000Y-53394000D02*
X95665210Y-53394000D01*
%TD*%
%TA.AperFunction,Conductor*%
%TO.N,GND*%
G36*
X103297694Y-54511689D02*
G01*
X103827194Y-55041189D01*
X103845500Y-55085383D01*
X103845500Y-56493268D01*
X103844250Y-56500607D01*
X103844977Y-56500690D01*
X103844180Y-56507681D01*
X103841848Y-56514322D01*
X103842626Y-56521315D01*
X103842626Y-56521316D01*
X103845117Y-56543697D01*
X103845500Y-56550610D01*
X103845500Y-56558033D01*
X103847081Y-56564965D01*
X103848257Y-56571918D01*
X103851486Y-56600929D01*
X103855219Y-56606893D01*
X103856594Y-56610841D01*
X103858403Y-56614600D01*
X103859968Y-56621459D01*
X103864353Y-56626961D01*
X103864353Y-56626962D01*
X103878148Y-56644273D01*
X103882244Y-56650059D01*
X103886096Y-56656211D01*
X103891309Y-56661424D01*
X103895994Y-56666668D01*
X103914275Y-56689609D01*
X103920614Y-56692667D01*
X103926115Y-56697058D01*
X103925689Y-56697592D01*
X103931853Y-56701968D01*
X105554372Y-58324487D01*
X105558677Y-58330561D01*
X105559250Y-58330105D01*
X105563631Y-58335613D01*
X105566678Y-58341958D01*
X105572175Y-58346354D01*
X105576557Y-58351863D01*
X105575934Y-58352359D01*
X105593801Y-58380485D01*
X105612216Y-58457190D01*
X105613941Y-58460532D01*
X105613942Y-58460535D01*
X105636086Y-58503437D01*
X105687204Y-58602476D01*
X105794683Y-58725681D01*
X105797765Y-58727847D01*
X105797766Y-58727848D01*
X105861299Y-58772500D01*
X105928448Y-58819693D01*
X106033875Y-58860797D01*
X106080776Y-58879083D01*
X106080138Y-58880720D01*
X106113800Y-58906000D01*
X106122500Y-58937809D01*
X106122500Y-59210000D01*
X106104194Y-59254194D01*
X106060000Y-59272500D01*
X102613389Y-59272500D01*
X102569195Y-59254194D01*
X102552616Y-59224590D01*
X102538664Y-59166476D01*
X102537784Y-59162810D01*
X102536054Y-59159458D01*
X102534462Y-59156373D01*
X102527500Y-59127707D01*
X102527500Y-59005003D01*
X102545806Y-58960809D01*
X103104487Y-58402128D01*
X103110561Y-58397823D01*
X103110105Y-58397250D01*
X103115613Y-58392869D01*
X103121958Y-58389822D01*
X103140418Y-58366739D01*
X103145035Y-58361580D01*
X103150284Y-58356331D01*
X103154057Y-58350328D01*
X103158165Y-58344547D01*
X103171987Y-58327264D01*
X103176383Y-58321767D01*
X103177960Y-58314907D01*
X103179778Y-58311147D01*
X103181156Y-58307211D01*
X103184902Y-58301252D01*
X103188179Y-58272263D01*
X103189371Y-58265287D01*
X103191000Y-58258203D01*
X103191000Y-58250829D01*
X103191396Y-58243808D01*
X103191934Y-58239045D01*
X103194691Y-58214662D01*
X103192370Y-58208017D01*
X103191586Y-58201023D01*
X103192264Y-58200947D01*
X103191000Y-58193495D01*
X103191000Y-54555883D01*
X103209306Y-54511689D01*
X103253500Y-54493383D01*
X103297694Y-54511689D01*
G37*
%TD.AperFunction*%
%TA.AperFunction,Conductor*%
G36*
X101097694Y-53467322D02*
G01*
X101099053Y-53468844D01*
X101099596Y-53469711D01*
X101104809Y-53474924D01*
X101109494Y-53480168D01*
X101127775Y-53503109D01*
X101134114Y-53506167D01*
X101139615Y-53510558D01*
X101139189Y-53511092D01*
X101145353Y-53515468D01*
X101256375Y-53626490D01*
X101274681Y-53670684D01*
X101269516Y-53693838D01*
X101269641Y-53693876D01*
X101269148Y-53695488D01*
X101268756Y-53697244D01*
X101266447Y-53702163D01*
X101244391Y-53843823D01*
X101244968Y-53848236D01*
X101244968Y-53848238D01*
X101250495Y-53890506D01*
X101262980Y-53985979D01*
X101264773Y-53990054D01*
X101309141Y-54090887D01*
X101320720Y-54117203D01*
X101323584Y-54120610D01*
X101410107Y-54223543D01*
X101410110Y-54223546D01*
X101412970Y-54226948D01*
X101532313Y-54306390D01*
X101536564Y-54307718D01*
X101664905Y-54347814D01*
X101664908Y-54347814D01*
X101669157Y-54349142D01*
X101673609Y-54349224D01*
X101673611Y-54349224D01*
X101744642Y-54350526D01*
X101812499Y-54351770D01*
X101950817Y-54314060D01*
X102072991Y-54239045D01*
X102169200Y-54132754D01*
X102231710Y-54003733D01*
X102237357Y-53970166D01*
X102240231Y-53953088D01*
X102265616Y-53912544D01*
X102312235Y-53901824D01*
X102346059Y-53919264D01*
X102790694Y-54363899D01*
X102809000Y-54408093D01*
X102809000Y-58131497D01*
X102790694Y-58175691D01*
X102212191Y-58754194D01*
X102167997Y-58772500D01*
X102161984Y-58772500D01*
X102139281Y-58768231D01*
X102072734Y-58742285D01*
X102072730Y-58742284D01*
X102069224Y-58740917D01*
X102056038Y-58739181D01*
X101946558Y-58724767D01*
X101946552Y-58724767D01*
X101944527Y-58724500D01*
X101859004Y-58724500D01*
X101857132Y-58724726D01*
X101857124Y-58724727D01*
X101773725Y-58734820D01*
X101737687Y-58739181D01*
X101734162Y-58740513D01*
X101734158Y-58740514D01*
X101660189Y-58768465D01*
X101638097Y-58772500D01*
X101387442Y-58772500D01*
X101384431Y-58773099D01*
X101356287Y-58778697D01*
X101356285Y-58778698D01*
X101350252Y-58779898D01*
X101308078Y-58808078D01*
X101279898Y-58850252D01*
X101272500Y-58887442D01*
X101272500Y-58942170D01*
X101254194Y-58986364D01*
X101210000Y-59004670D01*
X101162902Y-58983256D01*
X101087793Y-58897157D01*
X101087792Y-58897156D01*
X101085317Y-58894319D01*
X101079901Y-58890512D01*
X100954638Y-58802476D01*
X100954639Y-58802476D01*
X100951552Y-58800307D01*
X100843463Y-58758165D01*
X100802734Y-58742285D01*
X100802730Y-58742284D01*
X100799224Y-58740917D01*
X100786038Y-58739181D01*
X100676558Y-58724767D01*
X100676552Y-58724767D01*
X100674527Y-58724500D01*
X100589004Y-58724500D01*
X100587132Y-58724726D01*
X100587124Y-58724727D01*
X100503725Y-58734820D01*
X100467687Y-58739181D01*
X100463064Y-58740928D01*
X100462541Y-58740912D01*
X100460504Y-58741412D01*
X100460364Y-58740843D01*
X100415255Y-58739431D01*
X100396774Y-58726659D01*
X100313809Y-58643694D01*
X100295503Y-58599500D01*
X100313809Y-58555306D01*
X100358003Y-58537000D01*
X100410768Y-58537000D01*
X100418107Y-58538250D01*
X100418190Y-58537523D01*
X100425181Y-58538320D01*
X100431822Y-58540652D01*
X100438815Y-58539874D01*
X100438816Y-58539874D01*
X100461197Y-58537383D01*
X100468110Y-58537000D01*
X100475533Y-58537000D01*
X100482465Y-58535419D01*
X100489418Y-58534243D01*
X100518429Y-58531014D01*
X100524393Y-58527281D01*
X100528341Y-58525906D01*
X100532100Y-58524097D01*
X100538959Y-58522532D01*
X100561774Y-58504351D01*
X100567559Y-58500256D01*
X100570715Y-58498280D01*
X100570717Y-58498279D01*
X100573711Y-58496404D01*
X100578924Y-58491191D01*
X100584168Y-58486506D01*
X100601604Y-58472612D01*
X100601604Y-58472611D01*
X100607109Y-58468225D01*
X100610167Y-58461886D01*
X100614558Y-58456385D01*
X100615092Y-58456811D01*
X100619468Y-58450647D01*
X100729510Y-58340605D01*
X100773704Y-58322299D01*
X100792339Y-58325143D01*
X100869157Y-58349142D01*
X100873609Y-58349224D01*
X100873611Y-58349224D01*
X100944642Y-58350526D01*
X101012499Y-58351770D01*
X101150817Y-58314060D01*
X101253799Y-58250829D01*
X101269198Y-58241374D01*
X101272991Y-58239045D01*
X101314221Y-58193495D01*
X101366213Y-58136054D01*
X101369200Y-58132754D01*
X101431710Y-58003733D01*
X101434012Y-57990054D01*
X101455096Y-57864729D01*
X101455496Y-57862354D01*
X101455647Y-57850000D01*
X101435323Y-57708082D01*
X101375984Y-57577572D01*
X101282400Y-57468963D01*
X101162095Y-57390985D01*
X101149456Y-57387205D01*
X101115663Y-57377099D01*
X101024739Y-57349907D01*
X100953057Y-57349469D01*
X100885829Y-57349058D01*
X100885828Y-57349058D01*
X100881376Y-57349031D01*
X100743529Y-57388428D01*
X100622280Y-57464930D01*
X100619337Y-57468262D01*
X100619335Y-57468264D01*
X100562014Y-57533169D01*
X100527377Y-57572388D01*
X100466447Y-57702163D01*
X100444391Y-57843823D01*
X100444968Y-57848236D01*
X100444968Y-57848238D01*
X100446499Y-57859942D01*
X100462980Y-57985979D01*
X100464773Y-57990054D01*
X100470488Y-58003041D01*
X100471533Y-58050865D01*
X100457476Y-58072409D01*
X100393191Y-58136694D01*
X100348997Y-58155000D01*
X97953500Y-58155000D01*
X97909306Y-58136694D01*
X97891000Y-58092500D01*
X97891000Y-56464213D01*
X97909306Y-56420019D01*
X98711516Y-55617809D01*
X98755710Y-55599503D01*
X98799904Y-55617809D01*
X98818210Y-55662003D01*
X98818210Y-56215978D01*
X98816960Y-56223317D01*
X98817687Y-56223400D01*
X98816890Y-56230391D01*
X98814558Y-56237032D01*
X98815336Y-56244025D01*
X98815336Y-56244026D01*
X98817827Y-56266407D01*
X98818210Y-56273320D01*
X98818210Y-56280743D01*
X98819791Y-56287675D01*
X98820967Y-56294628D01*
X98824196Y-56323639D01*
X98827929Y-56329603D01*
X98829304Y-56333551D01*
X98831113Y-56337310D01*
X98832678Y-56344169D01*
X98837063Y-56349671D01*
X98837063Y-56349672D01*
X98850858Y-56366983D01*
X98854954Y-56372769D01*
X98858806Y-56378921D01*
X98864019Y-56384134D01*
X98868704Y-56389378D01*
X98886985Y-56412319D01*
X98893324Y-56415377D01*
X98898825Y-56419768D01*
X98898399Y-56420302D01*
X98904563Y-56424678D01*
X99006375Y-56526490D01*
X99024681Y-56570684D01*
X99019516Y-56593838D01*
X99019641Y-56593876D01*
X99019148Y-56595488D01*
X99018756Y-56597244D01*
X99016447Y-56602163D01*
X98994391Y-56743823D01*
X98994968Y-56748236D01*
X98994968Y-56748238D01*
X98996499Y-56759942D01*
X99012980Y-56885979D01*
X99014773Y-56890054D01*
X99022556Y-56907741D01*
X99070720Y-57017203D01*
X99073584Y-57020610D01*
X99160107Y-57123543D01*
X99160110Y-57123546D01*
X99162970Y-57126948D01*
X99282313Y-57206390D01*
X99286564Y-57207718D01*
X99414905Y-57247814D01*
X99414908Y-57247814D01*
X99419157Y-57249142D01*
X99423609Y-57249224D01*
X99423611Y-57249224D01*
X99494642Y-57250526D01*
X99562499Y-57251770D01*
X99700817Y-57214060D01*
X99817040Y-57142699D01*
X99819198Y-57141374D01*
X99822991Y-57139045D01*
X99919200Y-57032754D01*
X99981710Y-56903733D01*
X99984012Y-56890054D01*
X100005096Y-56764729D01*
X100005496Y-56762354D01*
X100005647Y-56750000D01*
X99985323Y-56608082D01*
X99925984Y-56477572D01*
X99849826Y-56389187D01*
X99835303Y-56372332D01*
X99832400Y-56368963D01*
X99712095Y-56290985D01*
X99574739Y-56249907D01*
X99503057Y-56249469D01*
X99435829Y-56249058D01*
X99435828Y-56249058D01*
X99431376Y-56249031D01*
X99421793Y-56251770D01*
X99340568Y-56274984D01*
X99293045Y-56269527D01*
X99279199Y-56259084D01*
X99218516Y-56198401D01*
X99200210Y-56154207D01*
X99200210Y-55514213D01*
X99218516Y-55470019D01*
X100904487Y-53784048D01*
X100910561Y-53779743D01*
X100910105Y-53779170D01*
X100915613Y-53774789D01*
X100921958Y-53771742D01*
X100940418Y-53748659D01*
X100945035Y-53743500D01*
X100950284Y-53738251D01*
X100954057Y-53732248D01*
X100958165Y-53726467D01*
X100971987Y-53709184D01*
X100976383Y-53703687D01*
X100977960Y-53696827D01*
X100979778Y-53693067D01*
X100981156Y-53689131D01*
X100984902Y-53683172D01*
X100985848Y-53674810D01*
X100988179Y-53654183D01*
X100989370Y-53647212D01*
X100991000Y-53640123D01*
X100991000Y-53632749D01*
X100991396Y-53625728D01*
X100992259Y-53618090D01*
X100994691Y-53596581D01*
X100992370Y-53589936D01*
X100991586Y-53582942D01*
X100992264Y-53582866D01*
X100991000Y-53575414D01*
X100991000Y-53511516D01*
X101009306Y-53467322D01*
X101053500Y-53449016D01*
X101097694Y-53467322D01*
G37*
%TD.AperFunction*%
%TA.AperFunction,Conductor*%
G36*
X98080445Y-53477109D02*
G01*
X98084391Y-53484640D01*
X98117111Y-53559000D01*
X98120720Y-53567203D01*
X98123584Y-53570610D01*
X98210107Y-53673543D01*
X98210110Y-53673546D01*
X98212970Y-53676948D01*
X98250850Y-53702163D01*
X98267633Y-53713335D01*
X98294278Y-53753062D01*
X98295500Y-53765362D01*
X98295500Y-54658497D01*
X98277194Y-54702691D01*
X96189191Y-56790694D01*
X96144997Y-56809000D01*
X95238503Y-56809000D01*
X95194309Y-56790694D01*
X94397583Y-55993968D01*
X94379277Y-55949774D01*
X94383429Y-55927374D01*
X94383501Y-55927188D01*
X94385265Y-55923855D01*
X94425095Y-55765284D01*
X94425147Y-55755464D01*
X94425931Y-55605561D01*
X94425951Y-55601790D01*
X94387784Y-55442810D01*
X94385025Y-55437463D01*
X94326387Y-55323856D01*
X94312796Y-55297524D01*
X94205317Y-55174319D01*
X94200130Y-55170673D01*
X94173272Y-55151797D01*
X94093610Y-55095810D01*
X94067980Y-55055423D01*
X94078415Y-55008739D01*
X94094148Y-54993169D01*
X94199997Y-54920421D01*
X94257949Y-54855377D01*
X94301016Y-54834558D01*
X94346191Y-54850289D01*
X94359024Y-54867319D01*
X94359968Y-54871459D01*
X94364354Y-54876963D01*
X94378148Y-54894273D01*
X94382244Y-54900059D01*
X94386096Y-54906211D01*
X94391309Y-54911424D01*
X94395994Y-54916668D01*
X94414275Y-54939609D01*
X94420614Y-54942667D01*
X94426115Y-54947058D01*
X94425689Y-54947592D01*
X94431853Y-54951968D01*
X95006375Y-55526490D01*
X95024681Y-55570684D01*
X95019516Y-55593838D01*
X95019641Y-55593876D01*
X95019148Y-55595488D01*
X95018756Y-55597244D01*
X95016447Y-55602163D01*
X94994391Y-55743823D01*
X94994968Y-55748236D01*
X94994968Y-55748238D01*
X94995779Y-55754439D01*
X95012980Y-55885979D01*
X95014773Y-55890054D01*
X95041051Y-55949774D01*
X95070720Y-56017203D01*
X95073584Y-56020610D01*
X95160107Y-56123543D01*
X95160110Y-56123546D01*
X95162970Y-56126948D01*
X95282313Y-56206390D01*
X95286564Y-56207718D01*
X95414905Y-56247814D01*
X95414908Y-56247814D01*
X95419157Y-56249142D01*
X95423609Y-56249224D01*
X95423611Y-56249224D01*
X95494642Y-56250526D01*
X95562499Y-56251770D01*
X95700817Y-56214060D01*
X95822991Y-56139045D01*
X95919200Y-56032754D01*
X95981710Y-55903733D01*
X95984012Y-55890054D01*
X95990769Y-55849889D01*
X96005496Y-55762354D01*
X96005647Y-55750000D01*
X95985323Y-55608082D01*
X95925984Y-55477572D01*
X95832400Y-55368963D01*
X95712095Y-55290985D01*
X95574739Y-55249907D01*
X95503057Y-55249469D01*
X95435829Y-55249058D01*
X95435828Y-55249058D01*
X95431376Y-55249031D01*
X95398314Y-55258480D01*
X95340568Y-55274984D01*
X95293045Y-55269527D01*
X95279199Y-55259084D01*
X94745806Y-54725691D01*
X94727500Y-54681497D01*
X94727500Y-54470022D01*
X94745806Y-54425828D01*
X94790000Y-54407522D01*
X94824632Y-54417995D01*
X94878602Y-54453921D01*
X94878609Y-54453924D01*
X94882313Y-54456390D01*
X94886564Y-54457718D01*
X95014905Y-54497814D01*
X95014908Y-54497814D01*
X95019157Y-54499142D01*
X95023609Y-54499224D01*
X95023611Y-54499224D01*
X95094642Y-54500526D01*
X95162499Y-54501770D01*
X95300817Y-54464060D01*
X95422991Y-54389045D01*
X95519200Y-54282754D01*
X95581710Y-54153733D01*
X95584685Y-54136054D01*
X95592283Y-54090887D01*
X95605496Y-54012354D01*
X95605525Y-54009948D01*
X95605526Y-54009941D01*
X95605614Y-54002733D01*
X95624460Y-53958767D01*
X95668109Y-53941000D01*
X96956768Y-53941000D01*
X96964107Y-53942250D01*
X96964190Y-53941523D01*
X96971181Y-53942320D01*
X96977822Y-53944652D01*
X96984815Y-53943874D01*
X96984816Y-53943874D01*
X97007197Y-53941383D01*
X97014110Y-53941000D01*
X97021533Y-53941000D01*
X97028465Y-53939419D01*
X97035418Y-53938243D01*
X97064429Y-53935014D01*
X97070393Y-53931281D01*
X97074341Y-53929906D01*
X97078100Y-53928097D01*
X97084959Y-53926532D01*
X97107774Y-53908351D01*
X97113559Y-53904256D01*
X97116715Y-53902280D01*
X97116717Y-53902279D01*
X97119711Y-53900404D01*
X97124924Y-53895191D01*
X97130168Y-53890506D01*
X97147604Y-53876612D01*
X97147604Y-53876611D01*
X97153109Y-53872225D01*
X97156167Y-53865886D01*
X97160558Y-53860385D01*
X97161092Y-53860811D01*
X97165468Y-53854647D01*
X97479510Y-53540605D01*
X97523704Y-53522299D01*
X97542339Y-53525143D01*
X97597004Y-53542221D01*
X97603992Y-53544404D01*
X97619157Y-53549142D01*
X97623609Y-53549224D01*
X97623611Y-53549224D01*
X97694642Y-53550526D01*
X97762499Y-53551770D01*
X97900817Y-53514060D01*
X97904606Y-53511734D01*
X97904612Y-53511731D01*
X97994481Y-53456551D01*
X98041721Y-53449026D01*
X98080445Y-53477109D01*
G37*
%TD.AperFunction*%
%TA.AperFunction,Conductor*%
G36*
X97210948Y-42345806D02*
G01*
X97229254Y-42390000D01*
X97213600Y-42431373D01*
X97177377Y-42472388D01*
X97116447Y-42602163D01*
X97094391Y-42743823D01*
X97094968Y-42748236D01*
X97094968Y-42748238D01*
X97100973Y-42794158D01*
X97112980Y-42885979D01*
X97114773Y-42890054D01*
X97166557Y-43007741D01*
X97170720Y-43017203D01*
X97173584Y-43020610D01*
X97260107Y-43123543D01*
X97260110Y-43123546D01*
X97262970Y-43126948D01*
X97382313Y-43206390D01*
X97386564Y-43207718D01*
X97514905Y-43247814D01*
X97514908Y-43247814D01*
X97519157Y-43249142D01*
X97523609Y-43249224D01*
X97523611Y-43249224D01*
X97594642Y-43250526D01*
X97662499Y-43251770D01*
X97800817Y-43214060D01*
X97922991Y-43139045D01*
X98019200Y-43032754D01*
X98048272Y-42972749D01*
X98084015Y-42940959D01*
X98104518Y-42937500D01*
X101852660Y-42937500D01*
X101896854Y-42955806D01*
X101912546Y-42982661D01*
X101912980Y-42985979D01*
X101914771Y-42990049D01*
X101914772Y-42990053D01*
X101968927Y-43113129D01*
X101970720Y-43117203D01*
X101973584Y-43120610D01*
X102060107Y-43223543D01*
X102060110Y-43223546D01*
X102062970Y-43226948D01*
X102182313Y-43306390D01*
X102186564Y-43307718D01*
X102314905Y-43347814D01*
X102314908Y-43347814D01*
X102319157Y-43349142D01*
X102323609Y-43349224D01*
X102323611Y-43349224D01*
X102394642Y-43350526D01*
X102462499Y-43351770D01*
X102600817Y-43314060D01*
X102722991Y-43239045D01*
X102754783Y-43203922D01*
X102816213Y-43136054D01*
X102819200Y-43132754D01*
X102881710Y-43003733D01*
X102885166Y-42983195D01*
X102892853Y-42937500D01*
X102905496Y-42862354D01*
X102905647Y-42850000D01*
X102885323Y-42708082D01*
X102825984Y-42577572D01*
X102732400Y-42468963D01*
X102691491Y-42442447D01*
X102664362Y-42403048D01*
X102673038Y-42356006D01*
X102712437Y-42328877D01*
X102725485Y-42327500D01*
X103462000Y-42327500D01*
X103486038Y-42332308D01*
X104622636Y-42805891D01*
X104635354Y-42813771D01*
X104637902Y-42814937D01*
X104644683Y-42820822D01*
X104663497Y-42823550D01*
X104665389Y-42823824D01*
X104665945Y-42823936D01*
X104667899Y-42824750D01*
X104678865Y-42825954D01*
X104682804Y-42826387D01*
X104684950Y-42826660D01*
X104711017Y-42830440D01*
X104711018Y-42830440D01*
X104718723Y-42831557D01*
X104720892Y-42830571D01*
X104723258Y-42830831D01*
X104730225Y-42827368D01*
X104730226Y-42827368D01*
X104748942Y-42818065D01*
X104753824Y-42815639D01*
X104755766Y-42814715D01*
X104757843Y-42813771D01*
X104769948Y-42808267D01*
X104779740Y-42803815D01*
X104779741Y-42803814D01*
X104786828Y-42800592D01*
X104788119Y-42798592D01*
X104790252Y-42797532D01*
X104807753Y-42768254D01*
X104808891Y-42766425D01*
X104823773Y-42743376D01*
X104823773Y-42743374D01*
X104827411Y-42737741D01*
X104827500Y-42737127D01*
X104827500Y-42735220D01*
X104828638Y-42733316D01*
X104827532Y-42698684D01*
X104827500Y-42696689D01*
X104827500Y-42461626D01*
X104845806Y-42417432D01*
X104890000Y-42399126D01*
X104934194Y-42417432D01*
X104944749Y-42432066D01*
X104945074Y-42432962D01*
X104947067Y-42436001D01*
X104947067Y-42436002D01*
X104977553Y-42482500D01*
X105038088Y-42574832D01*
X105161243Y-42691498D01*
X105307935Y-42776703D01*
X105386810Y-42800592D01*
X105463516Y-42823824D01*
X105470294Y-42825877D01*
X105639610Y-42836381D01*
X105806802Y-42807652D01*
X105962900Y-42741232D01*
X105965823Y-42739081D01*
X105965828Y-42739078D01*
X106020716Y-42698684D01*
X106022956Y-42697036D01*
X106069400Y-42685585D01*
X106110338Y-42710329D01*
X106122500Y-42747374D01*
X106122500Y-43532830D01*
X106104194Y-43577024D01*
X106082092Y-43591295D01*
X106010189Y-43618465D01*
X105988097Y-43622500D01*
X105737442Y-43622500D01*
X105734431Y-43623099D01*
X105706287Y-43628697D01*
X105706285Y-43628698D01*
X105700252Y-43629898D01*
X105658078Y-43658078D01*
X105629898Y-43700252D01*
X105622500Y-43737442D01*
X105622500Y-43975954D01*
X105616800Y-43998895D01*
X105617848Y-43999297D01*
X105616497Y-44002817D01*
X105614735Y-44006145D01*
X105574905Y-44164716D01*
X105574885Y-44168481D01*
X105574885Y-44168483D01*
X105574848Y-44175561D01*
X105574049Y-44328210D01*
X105574929Y-44331874D01*
X105574929Y-44331877D01*
X105600817Y-44439710D01*
X105612216Y-44487190D01*
X105613946Y-44490541D01*
X105613946Y-44490542D01*
X105615538Y-44493627D01*
X105622500Y-44522293D01*
X105622500Y-44762558D01*
X105623099Y-44765569D01*
X105627798Y-44789189D01*
X105629898Y-44799748D01*
X105658078Y-44841922D01*
X105700252Y-44870102D01*
X105706285Y-44871302D01*
X105706287Y-44871303D01*
X105732384Y-44876494D01*
X105737442Y-44877500D01*
X105754899Y-44877500D01*
X105799093Y-44895806D01*
X105817399Y-44940000D01*
X105795985Y-44987098D01*
X105728816Y-45045693D01*
X105723811Y-45051252D01*
X105630726Y-45183699D01*
X105627187Y-45190298D01*
X105568380Y-45341129D01*
X105566520Y-45348376D01*
X105558714Y-45407674D01*
X105561176Y-45416865D01*
X105566607Y-45420000D01*
X106060000Y-45420000D01*
X106104194Y-45438306D01*
X106122500Y-45482500D01*
X106122500Y-45557500D01*
X106104194Y-45601694D01*
X106060000Y-45620000D01*
X105569184Y-45620000D01*
X105560394Y-45623641D01*
X105557837Y-45629815D01*
X105563077Y-45677275D01*
X105564786Y-45684561D01*
X105620419Y-45836585D01*
X105623818Y-45843256D01*
X105714111Y-45977628D01*
X105718999Y-45983290D01*
X105838737Y-46092243D01*
X105844839Y-46096580D01*
X105878911Y-46115079D01*
X105909015Y-46152253D01*
X105904015Y-46199827D01*
X105884491Y-46221512D01*
X105800003Y-46279579D01*
X105691240Y-46401652D01*
X105614735Y-46546145D01*
X105574905Y-46704716D01*
X105574885Y-46708481D01*
X105574885Y-46708483D01*
X105574516Y-46779008D01*
X105574049Y-46868210D01*
X105574929Y-46871874D01*
X105574929Y-46871877D01*
X105585621Y-46916411D01*
X105612216Y-47027190D01*
X105613941Y-47030532D01*
X105613942Y-47030535D01*
X105629873Y-47061400D01*
X105687204Y-47172476D01*
X105722879Y-47213371D01*
X105790429Y-47290804D01*
X105794683Y-47295681D01*
X105906390Y-47374190D01*
X105932020Y-47414577D01*
X105921585Y-47461261D01*
X105905853Y-47476830D01*
X105800003Y-47549579D01*
X105691240Y-47671652D01*
X105614735Y-47816145D01*
X105574905Y-47974716D01*
X105574885Y-47978481D01*
X105574885Y-47978483D01*
X105574535Y-48045335D01*
X105574049Y-48138210D01*
X105574929Y-48141874D01*
X105574929Y-48141877D01*
X105590417Y-48206390D01*
X105612216Y-48297190D01*
X105687204Y-48442476D01*
X105722879Y-48483371D01*
X105791316Y-48561821D01*
X105794683Y-48565681D01*
X105797765Y-48567847D01*
X105797766Y-48567848D01*
X105826728Y-48588203D01*
X105906390Y-48644190D01*
X105932020Y-48684577D01*
X105921585Y-48731261D01*
X105905853Y-48746830D01*
X105800003Y-48819579D01*
X105691240Y-48941652D01*
X105614735Y-49086145D01*
X105574905Y-49244716D01*
X105574885Y-49248481D01*
X105574885Y-49248483D01*
X105574551Y-49312354D01*
X105574049Y-49408210D01*
X105612216Y-49567190D01*
X105613941Y-49570532D01*
X105613942Y-49570535D01*
X105643163Y-49627149D01*
X105687204Y-49712476D01*
X105694779Y-49721159D01*
X105792130Y-49832754D01*
X105794683Y-49835681D01*
X105906390Y-49914190D01*
X105932020Y-49954577D01*
X105921585Y-50001261D01*
X105905853Y-50016830D01*
X105800003Y-50089579D01*
X105691240Y-50211652D01*
X105614735Y-50356145D01*
X105574905Y-50514716D01*
X105574885Y-50518481D01*
X105574885Y-50518483D01*
X105574642Y-50564930D01*
X105574049Y-50678210D01*
X105574929Y-50681874D01*
X105574929Y-50681877D01*
X105589050Y-50740694D01*
X105612216Y-50837190D01*
X105613941Y-50840532D01*
X105613942Y-50840535D01*
X105641305Y-50893548D01*
X105687204Y-50982476D01*
X105708238Y-51006588D01*
X105790080Y-51100404D01*
X105794683Y-51105681D01*
X105906390Y-51184190D01*
X105932020Y-51224577D01*
X105921585Y-51271261D01*
X105905853Y-51286830D01*
X105800003Y-51359579D01*
X105691240Y-51481652D01*
X105614735Y-51626145D01*
X105574905Y-51784716D01*
X105574049Y-51948210D01*
X105612216Y-52107190D01*
X105613941Y-52110532D01*
X105613942Y-52110535D01*
X105635289Y-52151893D01*
X105687204Y-52252476D01*
X105794683Y-52375681D01*
X105906390Y-52454190D01*
X105932020Y-52494577D01*
X105921585Y-52541261D01*
X105905853Y-52556830D01*
X105800003Y-52629579D01*
X105691240Y-52751652D01*
X105614735Y-52896145D01*
X105574905Y-53054716D01*
X105574885Y-53058481D01*
X105574885Y-53058483D01*
X105574727Y-53088674D01*
X105574049Y-53218210D01*
X105612216Y-53377190D01*
X105613941Y-53380532D01*
X105613942Y-53380535D01*
X105640460Y-53431911D01*
X105687204Y-53522476D01*
X105712687Y-53551688D01*
X105789170Y-53639361D01*
X105794683Y-53645681D01*
X105797765Y-53647847D01*
X105797766Y-53647848D01*
X105822431Y-53665183D01*
X105906390Y-53724190D01*
X105932020Y-53764577D01*
X105921585Y-53811261D01*
X105905853Y-53826830D01*
X105800003Y-53899579D01*
X105691240Y-54021652D01*
X105614735Y-54166145D01*
X105613818Y-54169797D01*
X105590727Y-54261726D01*
X105562206Y-54300129D01*
X105530110Y-54309000D01*
X104738753Y-54309000D01*
X104694559Y-54290694D01*
X103580806Y-53176941D01*
X103562500Y-53132747D01*
X103562500Y-52249404D01*
X103563753Y-52242063D01*
X103563024Y-52241980D01*
X103563821Y-52234989D01*
X103566153Y-52228348D01*
X103564243Y-52211180D01*
X103562883Y-52198965D01*
X103562500Y-52192052D01*
X103562500Y-52184637D01*
X103560920Y-52177708D01*
X103559745Y-52170765D01*
X103556515Y-52141742D01*
X103552780Y-52135776D01*
X103551408Y-52131837D01*
X103549597Y-52128074D01*
X103548032Y-52121211D01*
X103529851Y-52098396D01*
X103525756Y-52092611D01*
X103523780Y-52089455D01*
X103523779Y-52089453D01*
X103521904Y-52086459D01*
X103516691Y-52081246D01*
X103512006Y-52076002D01*
X103498112Y-52058566D01*
X103498111Y-52058566D01*
X103493725Y-52053061D01*
X103487386Y-52050003D01*
X103481885Y-52045612D01*
X103482311Y-52045078D01*
X103476147Y-52040702D01*
X102880958Y-51445513D01*
X102876653Y-51439439D01*
X102876080Y-51439895D01*
X102871699Y-51434387D01*
X102868652Y-51428042D01*
X102845569Y-51409582D01*
X102840410Y-51404965D01*
X102835161Y-51399716D01*
X102829158Y-51395943D01*
X102823382Y-51391838D01*
X102800597Y-51373617D01*
X102793737Y-51372040D01*
X102789977Y-51370222D01*
X102786041Y-51368844D01*
X102780082Y-51365098D01*
X102773088Y-51364307D01*
X102773087Y-51364307D01*
X102751094Y-51361821D01*
X102744117Y-51360629D01*
X102737033Y-51359000D01*
X102729659Y-51359000D01*
X102722638Y-51358604D01*
X102720957Y-51358414D01*
X102693492Y-51355309D01*
X102686847Y-51357630D01*
X102679853Y-51358414D01*
X102679777Y-51357736D01*
X102672325Y-51359000D01*
X101845801Y-51359000D01*
X101801607Y-51340694D01*
X101783301Y-51296500D01*
X101799464Y-51254558D01*
X101816213Y-51236054D01*
X101819200Y-51232754D01*
X101846576Y-51176249D01*
X101882319Y-51144459D01*
X101902822Y-51141000D01*
X102153678Y-51141000D01*
X102161017Y-51142250D01*
X102161100Y-51141523D01*
X102168091Y-51142320D01*
X102174732Y-51144652D01*
X102181725Y-51143874D01*
X102181726Y-51143874D01*
X102204107Y-51141383D01*
X102211020Y-51141000D01*
X102218443Y-51141000D01*
X102225375Y-51139419D01*
X102232328Y-51138243D01*
X102261339Y-51135014D01*
X102267303Y-51131281D01*
X102271251Y-51129906D01*
X102275010Y-51128097D01*
X102281869Y-51126532D01*
X102304684Y-51108351D01*
X102310469Y-51104256D01*
X102313625Y-51102280D01*
X102313627Y-51102279D01*
X102316621Y-51100404D01*
X102321834Y-51095191D01*
X102327078Y-51090506D01*
X102344514Y-51076612D01*
X102344514Y-51076611D01*
X102350019Y-51072225D01*
X102353077Y-51065886D01*
X102357468Y-51060385D01*
X102358002Y-51060811D01*
X102362378Y-51054647D01*
X103754487Y-49662538D01*
X103760561Y-49658233D01*
X103760105Y-49657660D01*
X103765613Y-49653279D01*
X103771958Y-49650232D01*
X103790418Y-49627149D01*
X103795035Y-49621990D01*
X103800284Y-49616741D01*
X103804057Y-49610738D01*
X103808165Y-49604957D01*
X103821987Y-49587674D01*
X103826383Y-49582177D01*
X103827960Y-49575317D01*
X103829778Y-49571557D01*
X103831156Y-49567621D01*
X103834902Y-49561662D01*
X103838180Y-49532668D01*
X103839370Y-49525702D01*
X103841000Y-49518613D01*
X103841000Y-49511239D01*
X103841396Y-49504218D01*
X103843900Y-49482064D01*
X103844691Y-49475071D01*
X103842370Y-49468426D01*
X103841586Y-49461432D01*
X103842264Y-49461356D01*
X103841000Y-49453904D01*
X103841000Y-48905054D01*
X103859306Y-48860860D01*
X103870797Y-48851792D01*
X103894555Y-48837205D01*
X103954734Y-48800255D01*
X103969198Y-48791374D01*
X103972991Y-48789045D01*
X103983370Y-48777579D01*
X104066213Y-48686054D01*
X104069200Y-48682754D01*
X104131710Y-48553733D01*
X104134012Y-48540054D01*
X104155096Y-48414729D01*
X104155496Y-48412354D01*
X104155647Y-48400000D01*
X104135323Y-48258082D01*
X104075984Y-48127572D01*
X103982400Y-48018963D01*
X103862095Y-47940985D01*
X103849456Y-47937205D01*
X103814998Y-47926900D01*
X103724739Y-47899907D01*
X103705885Y-47899792D01*
X103661804Y-47881217D01*
X103643768Y-47836912D01*
X103644633Y-47826924D01*
X103655096Y-47764730D01*
X103655496Y-47762354D01*
X103655647Y-47750000D01*
X103635323Y-47608082D01*
X103575984Y-47477572D01*
X103492333Y-47380491D01*
X103485303Y-47372332D01*
X103482400Y-47368963D01*
X103362095Y-47290985D01*
X103349456Y-47287205D01*
X103288067Y-47268846D01*
X103224739Y-47249907D01*
X103153058Y-47249469D01*
X103085829Y-47249058D01*
X103085828Y-47249058D01*
X103081376Y-47249031D01*
X102943529Y-47288428D01*
X102822280Y-47364930D01*
X102819337Y-47368262D01*
X102819335Y-47368264D01*
X102737204Y-47461261D01*
X102727377Y-47472388D01*
X102666447Y-47602163D01*
X102665762Y-47606561D01*
X102665762Y-47606562D01*
X102649065Y-47713804D01*
X102631503Y-47748383D01*
X101620612Y-48759273D01*
X101576418Y-48777579D01*
X101558511Y-48774959D01*
X101479007Y-48751183D01*
X101479004Y-48751183D01*
X101474739Y-48749907D01*
X101403057Y-48749469D01*
X101335829Y-48749058D01*
X101335828Y-48749058D01*
X101331376Y-48749031D01*
X101193529Y-48788428D01*
X101072280Y-48864930D01*
X101069336Y-48868264D01*
X101069332Y-48868267D01*
X101005041Y-48941064D01*
X100962066Y-48962072D01*
X100914001Y-48943886D01*
X100615628Y-48645513D01*
X100611323Y-48639439D01*
X100610750Y-48639895D01*
X100606369Y-48634387D01*
X100603322Y-48628042D01*
X100580239Y-48609582D01*
X100575080Y-48604965D01*
X100569831Y-48599716D01*
X100563828Y-48595943D01*
X100558052Y-48591838D01*
X100535267Y-48573617D01*
X100528407Y-48572040D01*
X100524647Y-48570222D01*
X100520711Y-48568844D01*
X100514752Y-48565098D01*
X100507758Y-48564307D01*
X100507757Y-48564307D01*
X100485764Y-48561821D01*
X100478787Y-48560629D01*
X100471703Y-48559000D01*
X100464329Y-48559000D01*
X100457308Y-48558604D01*
X100455627Y-48558414D01*
X100428162Y-48555309D01*
X100421517Y-48557630D01*
X100414523Y-48558414D01*
X100414447Y-48557736D01*
X100406995Y-48559000D01*
X100308093Y-48559000D01*
X100263899Y-48540694D01*
X98559306Y-46836101D01*
X98541000Y-46791907D01*
X98541000Y-46779008D01*
X98559306Y-46734814D01*
X98603500Y-46716508D01*
X98638133Y-46726981D01*
X98682313Y-46756390D01*
X98686564Y-46757718D01*
X98814905Y-46797814D01*
X98814908Y-46797814D01*
X98819157Y-46799142D01*
X98823609Y-46799224D01*
X98823611Y-46799224D01*
X98894642Y-46800526D01*
X98962499Y-46801770D01*
X99100817Y-46764060D01*
X99222991Y-46689045D01*
X99319200Y-46582754D01*
X99333708Y-46552810D01*
X99345031Y-46529439D01*
X99380774Y-46497649D01*
X99428528Y-46500444D01*
X99445471Y-46512496D01*
X99500962Y-46567987D01*
X99505267Y-46574061D01*
X99505840Y-46573605D01*
X99510221Y-46579113D01*
X99513268Y-46585458D01*
X99518765Y-46589854D01*
X99536351Y-46603918D01*
X99541510Y-46608535D01*
X99546759Y-46613784D01*
X99549733Y-46615653D01*
X99552762Y-46617557D01*
X99558538Y-46621662D01*
X99581323Y-46639883D01*
X99588183Y-46641460D01*
X99591943Y-46643278D01*
X99595879Y-46644656D01*
X99601838Y-46648402D01*
X99608832Y-46649193D01*
X99608833Y-46649193D01*
X99630826Y-46651679D01*
X99637803Y-46652871D01*
X99644887Y-46654500D01*
X99652261Y-46654500D01*
X99659282Y-46654896D01*
X99688428Y-46658191D01*
X99695073Y-46655870D01*
X99702067Y-46655086D01*
X99702143Y-46655764D01*
X99709595Y-46654500D01*
X100158497Y-46654500D01*
X100202691Y-46672806D01*
X100322349Y-46792464D01*
X100340655Y-46836658D01*
X100334730Y-46863219D01*
X100321393Y-46891628D01*
X100316447Y-46902163D01*
X100294391Y-47043823D01*
X100294968Y-47048236D01*
X100294968Y-47048238D01*
X100296689Y-47061400D01*
X100312980Y-47185979D01*
X100314773Y-47190054D01*
X100363336Y-47300421D01*
X100370720Y-47317203D01*
X100373584Y-47320610D01*
X100460107Y-47423543D01*
X100460110Y-47423546D01*
X100462970Y-47426948D01*
X100582313Y-47506390D01*
X100594883Y-47510317D01*
X100714905Y-47547814D01*
X100714908Y-47547814D01*
X100719157Y-47549142D01*
X100723609Y-47549224D01*
X100723611Y-47549224D01*
X100794642Y-47550526D01*
X100862499Y-47551770D01*
X101000817Y-47514060D01*
X101122991Y-47439045D01*
X101156895Y-47401588D01*
X101200124Y-47381107D01*
X101245174Y-47397193D01*
X101251070Y-47403309D01*
X101312970Y-47476948D01*
X101432313Y-47556390D01*
X101436564Y-47557718D01*
X101564905Y-47597814D01*
X101564908Y-47597814D01*
X101569157Y-47599142D01*
X101573609Y-47599224D01*
X101573611Y-47599224D01*
X101644642Y-47600526D01*
X101712499Y-47601770D01*
X101850817Y-47564060D01*
X101972991Y-47489045D01*
X101984047Y-47476831D01*
X102066213Y-47386054D01*
X102069200Y-47382754D01*
X102131710Y-47253733D01*
X102155496Y-47112354D01*
X102155647Y-47100000D01*
X102135323Y-46958082D01*
X102075984Y-46827572D01*
X101982400Y-46718963D01*
X101862095Y-46640985D01*
X101724739Y-46599907D01*
X101653057Y-46599469D01*
X101585829Y-46599058D01*
X101585828Y-46599058D01*
X101581376Y-46599031D01*
X101548314Y-46608480D01*
X101490568Y-46624984D01*
X101443045Y-46619527D01*
X101429199Y-46609084D01*
X100915628Y-46095513D01*
X100911323Y-46089439D01*
X100910750Y-46089895D01*
X100906369Y-46084387D01*
X100903322Y-46078042D01*
X100880239Y-46059582D01*
X100875080Y-46054965D01*
X100869831Y-46049716D01*
X100863828Y-46045943D01*
X100858052Y-46041838D01*
X100835267Y-46023617D01*
X100828407Y-46022040D01*
X100824647Y-46020222D01*
X100820711Y-46018844D01*
X100814752Y-46015098D01*
X100807758Y-46014307D01*
X100807757Y-46014307D01*
X100785764Y-46011821D01*
X100778787Y-46010629D01*
X100771703Y-46009000D01*
X100764329Y-46009000D01*
X100757308Y-46008604D01*
X100755627Y-46008414D01*
X100728162Y-46005309D01*
X100721517Y-46007630D01*
X100714523Y-46008414D01*
X100714447Y-46007736D01*
X100706995Y-46009000D01*
X100463130Y-46009000D01*
X100418936Y-45990694D01*
X100400630Y-45946500D01*
X100401496Y-45936131D01*
X100404384Y-45918963D01*
X100405496Y-45912354D01*
X100405647Y-45900000D01*
X100385323Y-45758082D01*
X100325984Y-45627572D01*
X100232400Y-45518963D01*
X100112095Y-45440985D01*
X100107833Y-45439710D01*
X100107830Y-45439709D01*
X100031443Y-45416865D01*
X99997000Y-45406565D01*
X99959904Y-45376364D01*
X99955028Y-45328778D01*
X99970714Y-45302491D01*
X100163899Y-45109306D01*
X100208093Y-45091000D01*
X100446408Y-45091000D01*
X100490602Y-45109306D01*
X100503615Y-45128329D01*
X100518926Y-45163127D01*
X100518928Y-45163130D01*
X100520720Y-45167203D01*
X100523584Y-45170610D01*
X100610107Y-45273543D01*
X100610110Y-45273546D01*
X100612970Y-45276948D01*
X100732313Y-45356390D01*
X100736564Y-45357718D01*
X100864905Y-45397814D01*
X100864908Y-45397814D01*
X100869157Y-45399142D01*
X100873609Y-45399224D01*
X100873611Y-45399224D01*
X100944642Y-45400526D01*
X101012499Y-45401770D01*
X101150817Y-45364060D01*
X101272991Y-45289045D01*
X101369200Y-45182754D01*
X101431710Y-45053733D01*
X101455496Y-44912354D01*
X101455647Y-44900000D01*
X101435323Y-44758082D01*
X101375984Y-44627572D01*
X101282400Y-44518963D01*
X101162095Y-44440985D01*
X101024739Y-44399907D01*
X100953058Y-44399469D01*
X100885829Y-44399058D01*
X100885828Y-44399058D01*
X100881376Y-44399031D01*
X100818322Y-44417052D01*
X100770799Y-44411595D01*
X100741053Y-44374133D01*
X100744901Y-44329707D01*
X100779768Y-44257741D01*
X100781710Y-44253733D01*
X100805496Y-44112354D01*
X100805647Y-44100000D01*
X100785323Y-43958082D01*
X100725984Y-43827572D01*
X100632400Y-43718963D01*
X100512095Y-43640985D01*
X100499456Y-43637205D01*
X100436793Y-43618465D01*
X100374739Y-43599907D01*
X100303058Y-43599469D01*
X100235829Y-43599058D01*
X100235828Y-43599058D01*
X100231376Y-43599031D01*
X100093529Y-43638428D01*
X99972280Y-43714930D01*
X99969337Y-43718262D01*
X99969335Y-43718264D01*
X99886118Y-43812491D01*
X99877377Y-43822388D01*
X99816447Y-43952163D01*
X99815762Y-43956561D01*
X99815762Y-43956562D01*
X99800262Y-44056115D01*
X99775375Y-44096967D01*
X99738506Y-44109000D01*
X99704718Y-44109000D01*
X99660524Y-44090694D01*
X99642218Y-44046500D01*
X99643084Y-44036131D01*
X99655096Y-43964730D01*
X99655496Y-43962354D01*
X99655647Y-43950000D01*
X99635323Y-43808082D01*
X99575984Y-43677572D01*
X99482400Y-43568963D01*
X99362095Y-43490985D01*
X99349456Y-43487205D01*
X99315663Y-43477099D01*
X99224739Y-43449907D01*
X99153057Y-43449469D01*
X99085829Y-43449058D01*
X99085828Y-43449058D01*
X99081376Y-43449031D01*
X98943529Y-43488428D01*
X98822280Y-43564930D01*
X98819337Y-43568262D01*
X98819335Y-43568264D01*
X98740015Y-43658078D01*
X98727377Y-43672388D01*
X98666447Y-43802163D01*
X98644391Y-43943823D01*
X98644968Y-43948236D01*
X98644968Y-43948238D01*
X98648822Y-43977707D01*
X98662980Y-44085979D01*
X98669150Y-44100000D01*
X98670489Y-44103044D01*
X98671533Y-44150868D01*
X98657476Y-44172410D01*
X98418290Y-44411595D01*
X98182013Y-44647872D01*
X98175939Y-44652177D01*
X98176395Y-44652750D01*
X98170887Y-44657131D01*
X98164542Y-44660178D01*
X98160146Y-44665675D01*
X98146082Y-44683261D01*
X98141465Y-44688420D01*
X98136216Y-44693669D01*
X98134347Y-44696643D01*
X98132443Y-44699672D01*
X98128338Y-44705448D01*
X98110117Y-44728233D01*
X98108540Y-44735093D01*
X98106722Y-44738853D01*
X98105344Y-44742789D01*
X98101598Y-44748748D01*
X98100807Y-44755742D01*
X98100807Y-44755743D01*
X98098321Y-44777736D01*
X98097129Y-44784713D01*
X98095500Y-44791797D01*
X98095500Y-44799171D01*
X98095104Y-44806192D01*
X98091809Y-44835338D01*
X98094130Y-44841983D01*
X98094914Y-44848977D01*
X98094236Y-44849053D01*
X98095500Y-44856505D01*
X98095500Y-45290178D01*
X98094250Y-45297517D01*
X98094977Y-45297600D01*
X98094180Y-45304591D01*
X98091848Y-45311232D01*
X98092626Y-45318225D01*
X98092626Y-45318226D01*
X98095117Y-45340607D01*
X98095500Y-45347520D01*
X98095500Y-45354943D01*
X98097081Y-45361875D01*
X98098257Y-45368828D01*
X98101486Y-45397839D01*
X98105219Y-45403803D01*
X98106594Y-45407751D01*
X98108403Y-45411510D01*
X98109968Y-45418369D01*
X98125953Y-45438428D01*
X98128148Y-45441183D01*
X98132244Y-45446969D01*
X98136096Y-45453121D01*
X98141309Y-45458334D01*
X98145994Y-45463578D01*
X98164275Y-45486519D01*
X98162189Y-45488181D01*
X98180046Y-45520531D01*
X98166779Y-45566490D01*
X98124900Y-45589607D01*
X98100027Y-45587376D01*
X98099455Y-45587205D01*
X97974739Y-45549907D01*
X97903058Y-45549469D01*
X97835829Y-45549058D01*
X97835828Y-45549058D01*
X97831376Y-45549031D01*
X97693529Y-45588428D01*
X97572280Y-45664930D01*
X97569337Y-45668262D01*
X97569335Y-45668264D01*
X97488141Y-45760200D01*
X97477377Y-45772388D01*
X97416447Y-45902163D01*
X97394391Y-46043823D01*
X97394968Y-46048236D01*
X97394968Y-46048238D01*
X97400165Y-46087978D01*
X97412980Y-46185979D01*
X97414773Y-46190055D01*
X97414774Y-46190057D01*
X97441360Y-46250479D01*
X97442403Y-46298303D01*
X97409324Y-46332857D01*
X97361500Y-46333900D01*
X97339959Y-46319844D01*
X95765628Y-44745513D01*
X95761323Y-44739439D01*
X95760750Y-44739895D01*
X95756369Y-44734387D01*
X95753322Y-44728042D01*
X95747825Y-44723646D01*
X95743443Y-44718137D01*
X95744234Y-44717507D01*
X95733113Y-44703221D01*
X95698721Y-44627579D01*
X95675984Y-44577572D01*
X95582400Y-44468963D01*
X95462095Y-44390985D01*
X95449456Y-44387205D01*
X95415663Y-44377099D01*
X95324739Y-44349907D01*
X95253058Y-44349469D01*
X95185829Y-44349058D01*
X95185828Y-44349058D01*
X95181376Y-44349031D01*
X95043529Y-44388428D01*
X94922280Y-44464930D01*
X94919337Y-44468262D01*
X94919335Y-44468264D01*
X94841817Y-44556038D01*
X94827377Y-44572388D01*
X94766447Y-44702163D01*
X94765762Y-44706561D01*
X94765762Y-44706562D01*
X94765261Y-44709781D01*
X94744391Y-44843823D01*
X94744968Y-44848236D01*
X94744968Y-44848238D01*
X94751425Y-44897613D01*
X94762980Y-44985979D01*
X94764773Y-44990054D01*
X94792793Y-45053733D01*
X94820720Y-45117203D01*
X94823584Y-45120610D01*
X94910107Y-45223543D01*
X94910110Y-45223546D01*
X94912970Y-45226948D01*
X95032313Y-45306390D01*
X95036564Y-45307718D01*
X95164905Y-45347814D01*
X95164908Y-45347814D01*
X95169157Y-45349142D01*
X95173609Y-45349224D01*
X95173611Y-45349224D01*
X95244642Y-45350526D01*
X95312499Y-45351770D01*
X95450817Y-45314060D01*
X95572991Y-45239045D01*
X95575979Y-45235744D01*
X95598246Y-45211144D01*
X95641476Y-45190663D01*
X95688777Y-45208892D01*
X95782134Y-45302249D01*
X95800440Y-45346443D01*
X95782134Y-45390637D01*
X95755117Y-45406536D01*
X95643529Y-45438428D01*
X95522280Y-45514930D01*
X95519337Y-45518262D01*
X95519335Y-45518264D01*
X95439256Y-45608937D01*
X95427377Y-45622388D01*
X95366447Y-45752163D01*
X95365762Y-45756561D01*
X95365762Y-45756562D01*
X95364839Y-45762491D01*
X95344391Y-45893823D01*
X95344968Y-45898236D01*
X95344968Y-45898238D01*
X95346499Y-45909942D01*
X95362980Y-46035979D01*
X95364773Y-46040054D01*
X95417417Y-46159696D01*
X95420720Y-46167203D01*
X95423584Y-46170610D01*
X95510107Y-46273543D01*
X95510110Y-46273546D01*
X95512970Y-46276948D01*
X95632313Y-46356390D01*
X95636564Y-46357718D01*
X95764905Y-46397814D01*
X95764908Y-46397814D01*
X95769157Y-46399142D01*
X95773609Y-46399224D01*
X95773611Y-46399224D01*
X95844642Y-46400526D01*
X95912499Y-46401770D01*
X96050817Y-46364060D01*
X96172991Y-46289045D01*
X96181559Y-46279579D01*
X96241381Y-46213489D01*
X96284610Y-46193008D01*
X96331912Y-46211237D01*
X97092662Y-46971987D01*
X97096967Y-46978061D01*
X97097540Y-46977605D01*
X97101921Y-46983113D01*
X97104968Y-46989458D01*
X97110465Y-46993854D01*
X97128051Y-47007918D01*
X97133210Y-47012535D01*
X97138459Y-47017784D01*
X97141433Y-47019653D01*
X97144462Y-47021557D01*
X97150238Y-47025662D01*
X97160484Y-47033855D01*
X97167449Y-47039425D01*
X97173023Y-47043883D01*
X97179883Y-47045460D01*
X97183643Y-47047278D01*
X97187579Y-47048656D01*
X97193538Y-47052402D01*
X97200532Y-47053193D01*
X97200533Y-47053193D01*
X97210010Y-47054264D01*
X97222532Y-47055680D01*
X97229498Y-47056870D01*
X97236587Y-47058500D01*
X97243961Y-47058500D01*
X97250982Y-47058896D01*
X97280129Y-47062191D01*
X97286774Y-47059870D01*
X97293768Y-47059086D01*
X97293844Y-47059764D01*
X97301296Y-47058500D01*
X97497167Y-47058500D01*
X97541361Y-47076806D01*
X99170435Y-48705880D01*
X99188741Y-48750074D01*
X99170435Y-48794268D01*
X99126241Y-48812574D01*
X99108333Y-48809953D01*
X99079011Y-48801184D01*
X99079007Y-48801183D01*
X99074739Y-48799907D01*
X99003058Y-48799469D01*
X98935829Y-48799058D01*
X98935828Y-48799058D01*
X98931376Y-48799031D01*
X98793529Y-48838428D01*
X98672280Y-48914930D01*
X98669337Y-48918262D01*
X98669335Y-48918264D01*
X98594878Y-49002572D01*
X98577377Y-49022388D01*
X98575737Y-49025881D01*
X98536355Y-49052644D01*
X98489367Y-49043681D01*
X98466786Y-49017312D01*
X98463277Y-49009595D01*
X98425984Y-48927572D01*
X98337015Y-48824319D01*
X98335303Y-48822332D01*
X98332400Y-48818963D01*
X98212095Y-48740985D01*
X98199456Y-48737205D01*
X98146376Y-48721331D01*
X98074739Y-48699907D01*
X98003058Y-48699469D01*
X97935829Y-48699058D01*
X97935828Y-48699058D01*
X97931376Y-48699031D01*
X97793529Y-48738428D01*
X97754716Y-48762917D01*
X97736851Y-48774189D01*
X97689706Y-48782290D01*
X97650642Y-48754682D01*
X97641000Y-48721331D01*
X97641000Y-48693653D01*
X97659306Y-48649459D01*
X97665841Y-48644302D01*
X97665771Y-48644218D01*
X97669192Y-48641378D01*
X97672991Y-48639045D01*
X97769200Y-48532754D01*
X97831710Y-48403733D01*
X97832635Y-48398238D01*
X97855096Y-48264729D01*
X97855496Y-48262354D01*
X97855647Y-48250000D01*
X97835323Y-48108082D01*
X97775984Y-47977572D01*
X97682400Y-47868963D01*
X97562095Y-47790985D01*
X97551623Y-47787853D01*
X97466359Y-47762354D01*
X97424739Y-47749907D01*
X97353057Y-47749469D01*
X97285829Y-47749058D01*
X97285828Y-47749058D01*
X97281376Y-47749031D01*
X97143529Y-47788428D01*
X97022280Y-47864930D01*
X97019337Y-47868262D01*
X97019335Y-47868264D01*
X96930324Y-47969051D01*
X96927377Y-47972388D01*
X96868637Y-48097500D01*
X96867799Y-48099284D01*
X96832446Y-48131509D01*
X96784662Y-48129297D01*
X96763876Y-48113520D01*
X96685303Y-48022332D01*
X96682400Y-48018963D01*
X96562095Y-47940985D01*
X96549456Y-47937205D01*
X96514998Y-47926900D01*
X96424739Y-47899907D01*
X96353058Y-47899469D01*
X96285829Y-47899058D01*
X96285828Y-47899058D01*
X96281376Y-47899031D01*
X96143529Y-47938428D01*
X96022280Y-48014930D01*
X96019337Y-48018262D01*
X96019335Y-48018264D01*
X95938130Y-48110212D01*
X95927377Y-48122388D01*
X95866447Y-48252163D01*
X95865762Y-48256561D01*
X95865762Y-48256562D01*
X95863868Y-48268729D01*
X95844391Y-48393823D01*
X95844968Y-48398236D01*
X95844968Y-48398238D01*
X95845560Y-48402766D01*
X95862980Y-48535979D01*
X95864773Y-48540054D01*
X95918883Y-48663027D01*
X95920720Y-48667203D01*
X95923584Y-48670610D01*
X96010107Y-48773543D01*
X96010110Y-48773546D01*
X96012970Y-48776948D01*
X96132313Y-48856390D01*
X96136564Y-48857718D01*
X96259931Y-48896260D01*
X96285487Y-48911722D01*
X97810312Y-50436547D01*
X97814617Y-50442621D01*
X97815190Y-50442165D01*
X97819571Y-50447673D01*
X97822618Y-50454018D01*
X97828115Y-50458414D01*
X97845701Y-50472478D01*
X97850860Y-50477095D01*
X97856108Y-50482343D01*
X97859079Y-50484210D01*
X97859080Y-50484211D01*
X97862109Y-50486115D01*
X97867884Y-50490219D01*
X97885176Y-50504048D01*
X97885180Y-50504050D01*
X97890673Y-50508443D01*
X97897530Y-50510020D01*
X97901292Y-50511838D01*
X97905230Y-50513217D01*
X97911188Y-50516962D01*
X97918179Y-50517752D01*
X97918184Y-50517754D01*
X97940177Y-50520240D01*
X97947163Y-50521433D01*
X97954237Y-50523060D01*
X97961617Y-50523060D01*
X97968638Y-50523456D01*
X97997778Y-50526750D01*
X98004424Y-50524429D01*
X98011418Y-50523645D01*
X98011494Y-50524324D01*
X98018944Y-50523060D01*
X98361727Y-50523060D01*
X98405921Y-50541366D01*
X98706646Y-50842090D01*
X98710953Y-50848165D01*
X98711525Y-50847710D01*
X98715906Y-50853218D01*
X98718953Y-50859563D01*
X98724450Y-50863959D01*
X98742041Y-50878027D01*
X98747200Y-50882644D01*
X98752444Y-50887888D01*
X98755407Y-50889750D01*
X98755414Y-50889756D01*
X98758449Y-50891663D01*
X98764225Y-50895768D01*
X98787008Y-50913988D01*
X98793866Y-50915565D01*
X98797631Y-50917385D01*
X98801567Y-50918763D01*
X98807523Y-50922507D01*
X98814514Y-50923297D01*
X98814519Y-50923299D01*
X98836512Y-50925785D01*
X98843498Y-50926978D01*
X98850572Y-50928605D01*
X98857952Y-50928605D01*
X98864972Y-50929001D01*
X98877313Y-50930396D01*
X98886494Y-50935474D01*
X98893293Y-50932202D01*
X98894113Y-50932295D01*
X98900759Y-50929974D01*
X98907753Y-50929190D01*
X98907829Y-50929869D01*
X98915279Y-50928605D01*
X99023392Y-50928605D01*
X99067586Y-50946911D01*
X99068981Y-50948306D01*
X99087287Y-50992500D01*
X99068981Y-51036694D01*
X99024787Y-51055000D01*
X98904026Y-51055000D01*
X98888584Y-51048604D01*
X98870293Y-51055000D01*
X98147913Y-51055000D01*
X98109796Y-51039211D01*
X98108462Y-51040883D01*
X98105725Y-51038700D01*
X98103241Y-51036216D01*
X98097238Y-51032443D01*
X98091462Y-51028338D01*
X98068677Y-51010117D01*
X98061817Y-51008540D01*
X98058057Y-51006722D01*
X98054121Y-51005344D01*
X98048162Y-51001598D01*
X98041168Y-51000807D01*
X98041167Y-51000807D01*
X98019174Y-50998321D01*
X98012197Y-50997129D01*
X98005113Y-50995500D01*
X97997739Y-50995500D01*
X97990718Y-50995104D01*
X97961572Y-50991809D01*
X97954927Y-50994130D01*
X97947933Y-50994914D01*
X97947857Y-50994236D01*
X97940405Y-50995500D01*
X97559822Y-50995500D01*
X97552483Y-50994250D01*
X97552400Y-50994977D01*
X97545409Y-50994180D01*
X97538768Y-50991848D01*
X97531775Y-50992626D01*
X97531774Y-50992626D01*
X97509390Y-50995117D01*
X97502478Y-50995500D01*
X97495057Y-50995500D01*
X97491634Y-50996281D01*
X97491633Y-50996281D01*
X97488142Y-50997077D01*
X97481159Y-50998258D01*
X97459152Y-51000707D01*
X97452161Y-51001485D01*
X97446198Y-51005218D01*
X97442265Y-51006588D01*
X97438495Y-51008402D01*
X97431631Y-51009968D01*
X97413838Y-51024147D01*
X97408819Y-51028146D01*
X97403036Y-51032240D01*
X97399880Y-51034216D01*
X97399874Y-51034221D01*
X97396879Y-51036096D01*
X97391666Y-51041309D01*
X97386422Y-51045994D01*
X97371253Y-51058082D01*
X97363481Y-51064275D01*
X97360423Y-51070614D01*
X97356032Y-51076115D01*
X97355498Y-51075689D01*
X97351122Y-51081853D01*
X97093570Y-51339405D01*
X97085991Y-51345439D01*
X97086053Y-51345516D01*
X97083282Y-51347722D01*
X97080289Y-51349596D01*
X97075076Y-51354809D01*
X97069832Y-51359494D01*
X97060216Y-51367157D01*
X97046891Y-51377775D01*
X97043833Y-51384114D01*
X97039442Y-51389615D01*
X97038908Y-51389189D01*
X97034532Y-51395353D01*
X95499191Y-52930694D01*
X95454997Y-52949000D01*
X94447917Y-52949000D01*
X94403723Y-52930694D01*
X94389335Y-52908281D01*
X94388665Y-52906478D01*
X94387784Y-52902810D01*
X94312796Y-52757524D01*
X94218009Y-52648868D01*
X94207793Y-52637157D01*
X94207792Y-52637156D01*
X94205317Y-52634319D01*
X94093610Y-52555810D01*
X94067980Y-52515423D01*
X94078415Y-52468739D01*
X94094148Y-52453169D01*
X94199997Y-52380421D01*
X94308760Y-52258348D01*
X94385265Y-52113855D01*
X94425095Y-51955284D01*
X94425133Y-51948134D01*
X94425931Y-51795561D01*
X94425951Y-51791790D01*
X94419455Y-51764729D01*
X94406019Y-51708767D01*
X94387784Y-51632810D01*
X94382627Y-51622817D01*
X94314522Y-51490869D01*
X94312796Y-51487524D01*
X94260906Y-51428042D01*
X94207793Y-51367157D01*
X94207792Y-51367156D01*
X94205317Y-51364319D01*
X94197186Y-51358604D01*
X94151298Y-51326354D01*
X94093610Y-51285810D01*
X94067980Y-51245423D01*
X94078415Y-51198739D01*
X94094148Y-51183169D01*
X94104217Y-51176249D01*
X94199997Y-51110421D01*
X94308760Y-50988348D01*
X94385265Y-50843855D01*
X94386667Y-50838273D01*
X94387197Y-50837559D01*
X94387534Y-50836682D01*
X94387779Y-50836776D01*
X94415189Y-50799870D01*
X94447284Y-50791000D01*
X94482394Y-50791000D01*
X94526588Y-50809306D01*
X95021768Y-51304485D01*
X95026075Y-51310560D01*
X95026647Y-51310105D01*
X95031028Y-51315613D01*
X95034075Y-51321958D01*
X95039572Y-51326354D01*
X95057163Y-51340422D01*
X95062322Y-51345039D01*
X95067566Y-51350283D01*
X95070529Y-51352145D01*
X95070536Y-51352151D01*
X95073571Y-51354058D01*
X95079347Y-51358163D01*
X95102130Y-51376383D01*
X95108989Y-51377960D01*
X95115327Y-51381024D01*
X95115039Y-51381619D01*
X95122059Y-51384534D01*
X95122645Y-51384902D01*
X95122646Y-51384902D01*
X95122649Y-51384904D01*
X95120494Y-51388332D01*
X95146737Y-51412697D01*
X95170720Y-51467203D01*
X95173585Y-51470611D01*
X95173586Y-51470613D01*
X95260107Y-51573543D01*
X95260110Y-51573546D01*
X95262970Y-51576948D01*
X95382313Y-51656390D01*
X95386564Y-51657718D01*
X95514905Y-51697814D01*
X95514908Y-51697814D01*
X95519157Y-51699142D01*
X95523609Y-51699224D01*
X95523611Y-51699224D01*
X95594642Y-51700526D01*
X95662499Y-51701770D01*
X95800817Y-51664060D01*
X95922991Y-51589045D01*
X96019200Y-51482754D01*
X96081710Y-51353733D01*
X96083093Y-51345516D01*
X96099932Y-51245423D01*
X96105496Y-51212354D01*
X96105647Y-51200000D01*
X96085323Y-51058082D01*
X96025984Y-50927572D01*
X95932400Y-50818963D01*
X95812095Y-50740985D01*
X95799456Y-50737205D01*
X95725665Y-50715137D01*
X95674739Y-50699907D01*
X95603057Y-50699469D01*
X95535829Y-50699058D01*
X95535828Y-50699058D01*
X95531376Y-50699031D01*
X95393529Y-50738428D01*
X95272280Y-50814930D01*
X95269337Y-50818262D01*
X95269335Y-50818264D01*
X95222579Y-50871206D01*
X95179603Y-50892213D01*
X95131539Y-50874027D01*
X94753025Y-50495513D01*
X94748720Y-50489439D01*
X94748147Y-50489895D01*
X94743766Y-50484387D01*
X94740719Y-50478042D01*
X94717636Y-50459582D01*
X94712477Y-50454965D01*
X94707228Y-50449716D01*
X94701225Y-50445943D01*
X94695449Y-50441838D01*
X94672664Y-50423617D01*
X94665804Y-50422040D01*
X94662044Y-50420222D01*
X94658108Y-50418844D01*
X94652149Y-50415098D01*
X94645155Y-50414307D01*
X94645154Y-50414307D01*
X94623161Y-50411821D01*
X94616184Y-50410629D01*
X94609100Y-50409000D01*
X94601726Y-50409000D01*
X94594705Y-50408604D01*
X94593024Y-50408414D01*
X94565559Y-50405309D01*
X94558914Y-50407630D01*
X94551920Y-50408414D01*
X94551844Y-50407736D01*
X94544392Y-50409000D01*
X94447917Y-50409000D01*
X94403723Y-50390694D01*
X94389335Y-50368281D01*
X94388665Y-50366478D01*
X94387784Y-50362810D01*
X94312796Y-50217524D01*
X94205317Y-50094319D01*
X94093610Y-50015810D01*
X94067980Y-49975423D01*
X94078415Y-49928739D01*
X94094148Y-49913169D01*
X94199997Y-49840421D01*
X94308760Y-49718348D01*
X94385265Y-49573855D01*
X94386667Y-49568273D01*
X94387197Y-49567559D01*
X94387534Y-49566682D01*
X94387779Y-49566776D01*
X94415189Y-49529870D01*
X94447284Y-49521000D01*
X94886830Y-49521000D01*
X94931024Y-49539306D01*
X94934668Y-49543278D01*
X94962970Y-49576948D01*
X95082313Y-49656390D01*
X95086564Y-49657718D01*
X95214905Y-49697814D01*
X95214908Y-49697814D01*
X95219157Y-49699142D01*
X95223609Y-49699224D01*
X95223611Y-49699224D01*
X95294642Y-49700526D01*
X95362499Y-49701770D01*
X95500817Y-49664060D01*
X95622991Y-49589045D01*
X95719200Y-49482754D01*
X95781710Y-49353733D01*
X95805496Y-49212354D01*
X95805647Y-49200000D01*
X95785323Y-49058082D01*
X95725984Y-48927572D01*
X95637015Y-48824319D01*
X95635303Y-48822332D01*
X95632400Y-48818963D01*
X95512095Y-48740985D01*
X95499456Y-48737205D01*
X95446376Y-48721331D01*
X95374739Y-48699907D01*
X95303058Y-48699469D01*
X95235829Y-48699058D01*
X95235828Y-48699058D01*
X95231376Y-48699031D01*
X95093529Y-48738428D01*
X94972280Y-48814930D01*
X94969337Y-48818262D01*
X94969335Y-48818264D01*
X94897907Y-48899142D01*
X94877377Y-48922388D01*
X94816447Y-49052163D01*
X94815762Y-49056561D01*
X94815762Y-49056562D01*
X94811161Y-49086115D01*
X94786274Y-49126967D01*
X94749405Y-49139000D01*
X94447917Y-49139000D01*
X94403723Y-49120694D01*
X94389335Y-49098281D01*
X94388665Y-49096478D01*
X94387784Y-49092810D01*
X94312796Y-48947524D01*
X94249363Y-48874810D01*
X94207793Y-48827157D01*
X94207792Y-48827156D01*
X94205317Y-48824319D01*
X94194255Y-48816544D01*
X94152509Y-48787205D01*
X94116814Y-48762118D01*
X94091183Y-48721730D01*
X94101618Y-48675046D01*
X94124668Y-48655149D01*
X94136849Y-48649022D01*
X94143087Y-48644878D01*
X94266190Y-48539737D01*
X94271250Y-48534235D01*
X94365720Y-48402766D01*
X94369325Y-48396208D01*
X94429710Y-48245998D01*
X94431645Y-48238773D01*
X94441104Y-48172308D01*
X94438738Y-48163093D01*
X94433508Y-48160000D01*
X93940000Y-48160000D01*
X93895806Y-48141694D01*
X93877500Y-48097500D01*
X93877500Y-48022500D01*
X93895806Y-47978306D01*
X93940000Y-47960000D01*
X94430609Y-47960000D01*
X94439399Y-47956359D01*
X94441876Y-47950379D01*
X94435240Y-47895544D01*
X94433454Y-47888273D01*
X94376230Y-47736836D01*
X94372764Y-47730206D01*
X94281069Y-47596789D01*
X94276120Y-47591175D01*
X94155249Y-47483482D01*
X94146009Y-47477060D01*
X94147150Y-47475418D01*
X94120718Y-47443472D01*
X94125215Y-47395848D01*
X94141076Y-47378330D01*
X94140219Y-47377327D01*
X94266190Y-47269737D01*
X94271250Y-47264235D01*
X94365720Y-47132766D01*
X94369325Y-47126208D01*
X94429710Y-46975998D01*
X94431645Y-46968773D01*
X94441104Y-46902308D01*
X94438738Y-46893093D01*
X94433508Y-46890000D01*
X93940000Y-46890000D01*
X93895806Y-46871694D01*
X93877500Y-46827500D01*
X93877500Y-46752500D01*
X93895806Y-46708306D01*
X93940000Y-46690000D01*
X94430609Y-46690000D01*
X94439399Y-46686359D01*
X94441876Y-46680379D01*
X94435240Y-46625544D01*
X94433454Y-46618273D01*
X94409609Y-46555169D01*
X94411111Y-46507358D01*
X94445982Y-46474612D01*
X94493793Y-46476114D01*
X94512268Y-46488883D01*
X95011252Y-46987867D01*
X95029558Y-47032061D01*
X95029558Y-47150490D01*
X95011252Y-47194684D01*
X95000409Y-47203348D01*
X94892838Y-47271220D01*
X94889895Y-47274552D01*
X94889893Y-47274554D01*
X94800882Y-47375341D01*
X94797935Y-47378678D01*
X94737005Y-47508453D01*
X94714949Y-47650113D01*
X94715526Y-47654526D01*
X94715526Y-47654528D01*
X94718201Y-47674981D01*
X94733538Y-47792269D01*
X94735331Y-47796344D01*
X94780652Y-47899343D01*
X94791278Y-47923493D01*
X94794142Y-47926900D01*
X94880665Y-48029833D01*
X94880668Y-48029836D01*
X94883528Y-48033238D01*
X95002871Y-48112680D01*
X95007122Y-48114008D01*
X95135463Y-48154104D01*
X95135466Y-48154104D01*
X95139715Y-48155432D01*
X95144167Y-48155514D01*
X95144169Y-48155514D01*
X95215200Y-48156816D01*
X95283057Y-48158060D01*
X95421375Y-48120350D01*
X95543549Y-48045335D01*
X95604885Y-47977572D01*
X95636771Y-47942344D01*
X95639758Y-47939044D01*
X95702268Y-47810023D01*
X95704570Y-47796344D01*
X95724560Y-47677524D01*
X95726054Y-47668644D01*
X95726205Y-47656290D01*
X95705881Y-47514372D01*
X95646542Y-47383862D01*
X95552958Y-47275253D01*
X95440063Y-47202078D01*
X95412935Y-47162680D01*
X95411558Y-47149632D01*
X95411558Y-46970292D01*
X95412811Y-46962951D01*
X95412082Y-46962868D01*
X95412879Y-46955877D01*
X95415211Y-46949236D01*
X95411941Y-46919852D01*
X95411558Y-46912940D01*
X95411558Y-46905525D01*
X95409978Y-46898596D01*
X95408803Y-46891653D01*
X95405573Y-46862630D01*
X95401838Y-46856664D01*
X95400466Y-46852725D01*
X95398655Y-46848962D01*
X95397090Y-46842099D01*
X95378909Y-46819284D01*
X95374814Y-46813499D01*
X95372838Y-46810343D01*
X95372837Y-46810341D01*
X95370962Y-46807347D01*
X95365749Y-46802134D01*
X95361064Y-46796890D01*
X95347170Y-46779454D01*
X95347169Y-46779454D01*
X95342783Y-46773949D01*
X95336444Y-46770891D01*
X95330943Y-46766500D01*
X95331369Y-46765966D01*
X95325205Y-46761590D01*
X94397583Y-45833968D01*
X94379277Y-45789774D01*
X94383429Y-45767374D01*
X94383501Y-45767188D01*
X94385265Y-45763855D01*
X94425095Y-45605284D01*
X94425951Y-45441790D01*
X94424851Y-45437205D01*
X94404856Y-45353922D01*
X94387784Y-45282810D01*
X94384759Y-45276948D01*
X94329873Y-45170610D01*
X94312796Y-45137524D01*
X94235870Y-45049342D01*
X94207793Y-45017157D01*
X94207792Y-45017156D01*
X94205317Y-45014319D01*
X94172328Y-44991134D01*
X94146697Y-44950746D01*
X94157132Y-44904062D01*
X94197520Y-44878431D01*
X94208266Y-44877500D01*
X94262558Y-44877500D01*
X94267616Y-44876494D01*
X94293713Y-44871303D01*
X94293715Y-44871302D01*
X94299748Y-44870102D01*
X94341922Y-44841922D01*
X94370102Y-44799748D01*
X94372203Y-44789189D01*
X94376901Y-44765569D01*
X94377500Y-44762558D01*
X94377500Y-44524046D01*
X94383200Y-44501105D01*
X94382152Y-44500703D01*
X94383503Y-44497183D01*
X94385265Y-44493855D01*
X94425095Y-44335284D01*
X94425951Y-44171790D01*
X94387784Y-44012810D01*
X94384462Y-44006373D01*
X94377500Y-43977707D01*
X94377500Y-43737442D01*
X94370102Y-43700252D01*
X94341922Y-43658078D01*
X94299748Y-43629898D01*
X94293715Y-43628698D01*
X94293713Y-43628697D01*
X94265569Y-43623099D01*
X94262558Y-43622500D01*
X94011984Y-43622500D01*
X93989281Y-43618231D01*
X93919224Y-43590917D01*
X93919862Y-43589280D01*
X93886200Y-43564000D01*
X93877500Y-43532191D01*
X93877500Y-42751437D01*
X93895806Y-42707243D01*
X93940000Y-42688937D01*
X93971389Y-42697391D01*
X94107935Y-42776703D01*
X94186810Y-42800592D01*
X94263516Y-42823824D01*
X94270294Y-42825877D01*
X94439610Y-42836381D01*
X94606802Y-42807652D01*
X94762900Y-42741232D01*
X94899532Y-42640682D01*
X95009367Y-42511397D01*
X95054337Y-42423329D01*
X95090738Y-42392294D01*
X95138423Y-42396089D01*
X95169458Y-42432490D01*
X95172500Y-42451752D01*
X95172500Y-42669314D01*
X95170117Y-42684088D01*
X95170020Y-42686883D01*
X95167196Y-42695408D01*
X95171019Y-42710329D01*
X95172388Y-42715671D01*
X95172500Y-42716233D01*
X95172500Y-42718349D01*
X95173757Y-42722635D01*
X95173758Y-42722640D01*
X95176727Y-42732762D01*
X95177298Y-42734840D01*
X95185764Y-42767882D01*
X95187508Y-42769504D01*
X95188178Y-42771789D01*
X95194060Y-42776893D01*
X95194062Y-42776896D01*
X95213955Y-42794158D01*
X95215563Y-42795602D01*
X95234842Y-42813537D01*
X95234843Y-42813538D01*
X95240541Y-42818838D01*
X95242884Y-42819261D01*
X95244683Y-42820822D01*
X95278450Y-42825718D01*
X95280581Y-42826065D01*
X95307572Y-42830936D01*
X95314166Y-42832126D01*
X95314767Y-42831972D01*
X95316527Y-42831239D01*
X95318723Y-42831557D01*
X95327937Y-42827368D01*
X95350272Y-42817213D01*
X95352102Y-42816416D01*
X96513961Y-42332308D01*
X96537999Y-42327500D01*
X97166754Y-42327500D01*
X97210948Y-42345806D01*
G37*
%TD.AperFunction*%
%TA.AperFunction,Conductor*%
G36*
X102843702Y-48147406D02*
G01*
X102928602Y-48203921D01*
X102928609Y-48203924D01*
X102932313Y-48206390D01*
X103069157Y-48249142D01*
X103073608Y-48249224D01*
X103073617Y-48249225D01*
X103095007Y-48249617D01*
X103138858Y-48268729D01*
X103156350Y-48313252D01*
X103155617Y-48321721D01*
X103144391Y-48393823D01*
X103144968Y-48398236D01*
X103144968Y-48398238D01*
X103145560Y-48402766D01*
X103162980Y-48535979D01*
X103164773Y-48540054D01*
X103218883Y-48663027D01*
X103220720Y-48667203D01*
X103223584Y-48670610D01*
X103310107Y-48773543D01*
X103310110Y-48773546D01*
X103312970Y-48776948D01*
X103366463Y-48812556D01*
X103431133Y-48855605D01*
X103457778Y-48895332D01*
X103459000Y-48907632D01*
X103459000Y-49391907D01*
X103440694Y-49436101D01*
X102796646Y-50080149D01*
X102752452Y-50098455D01*
X102708258Y-50080149D01*
X102690583Y-50044814D01*
X102685955Y-50012491D01*
X102685954Y-50012487D01*
X102685323Y-50008082D01*
X102625984Y-49877572D01*
X102623080Y-49874202D01*
X102623077Y-49874197D01*
X102543909Y-49782318D01*
X102528929Y-49736889D01*
X102550460Y-49694173D01*
X102558555Y-49688259D01*
X102594196Y-49666376D01*
X102594200Y-49666373D01*
X102597991Y-49664045D01*
X102648964Y-49607731D01*
X102691213Y-49561054D01*
X102694200Y-49557754D01*
X102756710Y-49428733D01*
X102780496Y-49287354D01*
X102780647Y-49275000D01*
X102760323Y-49133082D01*
X102700984Y-49002572D01*
X102607400Y-48893963D01*
X102487095Y-48815985D01*
X102475690Y-48812574D01*
X102414478Y-48794268D01*
X102349739Y-48774907D01*
X102296041Y-48774579D01*
X102251960Y-48756003D01*
X102233924Y-48711698D01*
X102252229Y-48667886D01*
X102764876Y-48155239D01*
X102809070Y-48136933D01*
X102843702Y-48147406D01*
G37*
%TD.AperFunction*%
%TD*%
%TA.AperFunction,NonConductor*%
G36*
X97236694Y-56371809D02*
G01*
X97255000Y-56416003D01*
X97255000Y-58402768D01*
X97253750Y-58410107D01*
X97254477Y-58410190D01*
X97253680Y-58417181D01*
X97251348Y-58423822D01*
X97252126Y-58430815D01*
X97252126Y-58430816D01*
X97254617Y-58453197D01*
X97255000Y-58460110D01*
X97255000Y-58467533D01*
X97256581Y-58474465D01*
X97257757Y-58481418D01*
X97260986Y-58510429D01*
X97264719Y-58516393D01*
X97266094Y-58520341D01*
X97267903Y-58524100D01*
X97269468Y-58530959D01*
X97273853Y-58536461D01*
X97273853Y-58536462D01*
X97287648Y-58553773D01*
X97291744Y-58559559D01*
X97295596Y-58565711D01*
X97300809Y-58570924D01*
X97305494Y-58576168D01*
X97323775Y-58599109D01*
X97330114Y-58602167D01*
X97335615Y-58606558D01*
X97335189Y-58607092D01*
X97341353Y-58611468D01*
X97434372Y-58704487D01*
X97438677Y-58710561D01*
X97439250Y-58710105D01*
X97443631Y-58715613D01*
X97446678Y-58721958D01*
X97452175Y-58726354D01*
X97469761Y-58740418D01*
X97474920Y-58745035D01*
X97480169Y-58750284D01*
X97483143Y-58752153D01*
X97486172Y-58754057D01*
X97491948Y-58758162D01*
X97514733Y-58776383D01*
X97521593Y-58777960D01*
X97525353Y-58779778D01*
X97529289Y-58781156D01*
X97535248Y-58784902D01*
X97542242Y-58785693D01*
X97542243Y-58785693D01*
X97564236Y-58788179D01*
X97571213Y-58789371D01*
X97578297Y-58791000D01*
X97585671Y-58791000D01*
X97592682Y-58791395D01*
X97595200Y-58791680D01*
X97637060Y-58814828D01*
X97650291Y-58860797D01*
X97634851Y-58895361D01*
X97537164Y-59005003D01*
X97531240Y-59011652D01*
X97454735Y-59156145D01*
X97453818Y-59159797D01*
X97437383Y-59225226D01*
X97408862Y-59263629D01*
X97376766Y-59272500D01*
X93940000Y-59272500D01*
X93895806Y-59254194D01*
X93877500Y-59210000D01*
X93877500Y-58937170D01*
X93895806Y-58892976D01*
X93917908Y-58878705D01*
X94061730Y-58824359D01*
X94065255Y-58823027D01*
X94199997Y-58730421D01*
X94308760Y-58608348D01*
X94385265Y-58463855D01*
X94425095Y-58305284D01*
X94425287Y-58268735D01*
X94425680Y-58193495D01*
X94425951Y-58141790D01*
X94387784Y-57982810D01*
X94312796Y-57837524D01*
X94205317Y-57714319D01*
X94093610Y-57635810D01*
X94067980Y-57595423D01*
X94078415Y-57548739D01*
X94094148Y-57533169D01*
X94182666Y-57472332D01*
X94199997Y-57460421D01*
X94308760Y-57338348D01*
X94385265Y-57193855D01*
X94425095Y-57035284D01*
X94425951Y-56871790D01*
X94387784Y-56712810D01*
X94384344Y-56706145D01*
X94370911Y-56680118D01*
X94366909Y-56632451D01*
X94397785Y-56595914D01*
X94445452Y-56591912D01*
X94470644Y-56607259D01*
X94967872Y-57104487D01*
X94972177Y-57110561D01*
X94972750Y-57110105D01*
X94977131Y-57115613D01*
X94980178Y-57121958D01*
X94985675Y-57126354D01*
X95003261Y-57140418D01*
X95008420Y-57145035D01*
X95013669Y-57150284D01*
X95016643Y-57152153D01*
X95019672Y-57154057D01*
X95025448Y-57158162D01*
X95048233Y-57176383D01*
X95055093Y-57177960D01*
X95058853Y-57179778D01*
X95062789Y-57181156D01*
X95068748Y-57184902D01*
X95075742Y-57185693D01*
X95075743Y-57185693D01*
X95097736Y-57188179D01*
X95104713Y-57189371D01*
X95111797Y-57191000D01*
X95119171Y-57191000D01*
X95126192Y-57191396D01*
X95155338Y-57194691D01*
X95161983Y-57192370D01*
X95168977Y-57191586D01*
X95169053Y-57192264D01*
X95176505Y-57191000D01*
X96206768Y-57191000D01*
X96214107Y-57192250D01*
X96214190Y-57191523D01*
X96221181Y-57192320D01*
X96227822Y-57194652D01*
X96234815Y-57193874D01*
X96234816Y-57193874D01*
X96255939Y-57191523D01*
X96257198Y-57191383D01*
X96264110Y-57191000D01*
X96271533Y-57191000D01*
X96278465Y-57189419D01*
X96285418Y-57188243D01*
X96314429Y-57185014D01*
X96320393Y-57181281D01*
X96324341Y-57179906D01*
X96328100Y-57178097D01*
X96334959Y-57176532D01*
X96357774Y-57158351D01*
X96363559Y-57154256D01*
X96366715Y-57152280D01*
X96366717Y-57152279D01*
X96369711Y-57150404D01*
X96374924Y-57145191D01*
X96380168Y-57140506D01*
X96397604Y-57126612D01*
X96397604Y-57126611D01*
X96403109Y-57122225D01*
X96406167Y-57115886D01*
X96410558Y-57110385D01*
X96411092Y-57110811D01*
X96415468Y-57104647D01*
X97148306Y-56371809D01*
X97192500Y-56353503D01*
X97236694Y-56371809D01*
G37*
%TD.AperFunction*%
M02*
